<svg xmlns="http://www.w3.org/2000/svg" width="1000" height="301.354" viewBox="0 0 1000 301.354">
  <g id="Amazon_logo" transform="translate(0 0)">
    <path id="path8" d="M620.38,235.668C562.269,278.5,478.039,301.354,405.52,301.354c-101.685,0-193.227-37.609-262.482-100.161-5.441-4.919-.566-11.622,5.964-7.792,74.74,43.486,167.153,69.647,262.613,69.647,64.38,0,135.2-13.32,200.322-40.961,9.838-4.179,18.065,6.442,8.445,13.581" fill="#fff" fill-rule="evenodd"/>
    <path id="path10" d="M644.539,208.027c-7.4-9.489-49.1-4.484-67.819-2.264-5.7.7-6.573-4.266-1.436-7.835C608.5,174.553,663,181.3,669.351,189.135c6.355,7.879-1.654,62.508-32.865,88.582-4.788,4-9.359,1.872-7.226-3.439,7.008-17.5,22.722-56.719,15.279-66.252" fill="#fff" fill-rule="evenodd"/>
    <path id="path12" d="M578.026,32.908V10.186a5.606,5.606,0,0,1,5.746-5.746H685.5a5.663,5.663,0,0,1,5.876,5.746V29.644c-.044,3.265-2.786,7.531-7.661,14.278L631,119.184c19.588-.479,40.265,2.438,58.025,12.449,4,2.264,5.093,5.572,5.4,8.836v24.246c0,3.308-3.656,7.182-7.487,5.18-31.3-16.411-72.868-18.2-107.474.174-3.526,1.915-7.226-1.915-7.226-5.224V141.819c0-3.7.044-10.012,3.743-15.627l61.072-87.581H583.9a5.628,5.628,0,0,1-5.876-5.7" fill="#fff" fill-rule="evenodd"/>
    <path id="path14" d="M206.939,174.684H175.989a5.846,5.846,0,0,1-5.528-5.267V10.578a5.81,5.81,0,0,1,5.964-5.7h28.86a5.828,5.828,0,0,1,5.615,5.311V30.95h.566C219,10.883,233.143,1.524,252.209,1.524c19.371,0,31.472,9.359,40.178,29.426,7.487-20.067,24.507-29.426,42.746-29.426,12.972,0,27.162,5.354,35.825,17.368,9.794,13.364,7.792,32.778,7.792,49.8l-.043,100.248a5.846,5.846,0,0,1-5.964,5.746H341.836a5.883,5.883,0,0,1-5.572-5.746V84.752c0-6.7.609-23.419-.871-29.774-2.307-10.665-9.228-13.668-18.2-13.668-7.487,0-15.322,5.006-18.5,13.015s-2.873,21.416-2.873,30.427v84.186a5.846,5.846,0,0,1-5.964,5.746H258.956a5.851,5.851,0,0,1-5.572-5.746l-.044-84.186c0-17.716,2.916-43.791-19.066-43.791-22.244,0-21.373,25.421-21.373,43.791v84.186a5.846,5.846,0,0,1-5.964,5.746" fill="#fff" fill-rule="evenodd"/>
    <path id="path16" d="M778.958,1.524c45.923,0,70.779,39.438,70.779,89.583,0,48.448-27.467,86.885-70.779,86.885-45.1,0-69.647-39.438-69.647-88.582,0-49.449,24.855-87.886,69.647-87.886m.261,32.429c-22.809,0-24.246,31.08-24.246,50.451,0,19.414-.3,60.854,23.985,60.854,23.985,0,25.116-33.431,25.116-53.8,0-13.407-.566-29.426-4.614-42.136-3.482-11.056-10.4-15.366-20.241-15.366" fill="#fff" fill-rule="evenodd"/>
    <path id="path18" d="M909.285,174.684H878.466a5.883,5.883,0,0,1-5.572-5.746l-.044-158.882a5.854,5.854,0,0,1,5.964-5.18H907.5a5.923,5.923,0,0,1,5.528,4.44V33.6h.566c8.662-21.721,20.807-32.081,42.18-32.081,13.886,0,27.424,5.006,36.129,18.718,8.1,12.711,8.1,34.084,8.1,49.449v99.987a5.946,5.946,0,0,1-5.964,5.006H963a5.861,5.861,0,0,1-5.485-5.006V83.4c0-17.368,2-42.789-19.371-42.789-7.531,0-14.452,5.049-17.891,12.711-4.353,9.707-4.919,19.371-4.919,30.079v85.535a5.951,5.951,0,0,1-6.051,5.746" fill="#fff" fill-rule="evenodd"/>
    <path id="path28" d="M496.931,98.812c0,12.058.3,22.113-5.789,32.821-4.919,8.706-12.754,14.06-21.416,14.06-11.884,0-18.848-9.054-18.848-22.418,0-26.379,23.636-31.167,46.054-31.167v6.7m31.211,75.436a6.463,6.463,0,0,1-7.313.74c-10.273-8.532-12.145-12.493-17.76-20.633-16.976,17.325-29.034,22.5-51.016,22.5-26.074,0-46.315-16.062-46.315-48.23,0-25.116,13.581-42.223,33-50.581,16.8-7.4,40.265-8.706,58.2-10.752v-4c0-7.356.566-16.062-3.787-22.418-3.744-5.7-10.969-8.053-17.368-8.053-11.8,0-22.287,6.051-24.855,18.587-.522,2.786-2.568,5.528-5.4,5.659l-29.992-3.221c-2.525-.566-5.354-2.612-4.614-6.486C417.795,10.97,450.7,0,480.129,0c15.061,0,34.736,4,46.62,15.409,15.061,14.06,13.625,32.821,13.625,53.236v48.231c0,14.5,6.007,20.851,11.666,28.686,1.959,2.786,2.394,6.138-.131,8.227-6.312,5.267-17.542,15.061-23.724,20.546l-.044-.087" fill="#fff" fill-rule="evenodd"/>
    <path id="path30" d="M91.194,98.812c0,12.058.3,22.113-5.789,32.821-4.919,8.706-12.711,14.06-21.416,14.06-11.884,0-18.8-9.054-18.8-22.418,0-26.379,23.636-31.167,46.011-31.167v6.7M122.4,174.248a6.463,6.463,0,0,1-7.313.74c-10.273-8.532-12.1-12.493-17.76-20.633-16.976,17.325-28.991,22.5-51.016,22.5C20.285,176.86,0,160.8,0,128.63c0-25.116,13.625-42.224,33-50.581,16.8-7.4,40.265-8.706,58.2-10.752v-4c0-7.356.566-16.062-3.744-22.418-3.787-5.7-11.013-8.053-17.368-8.053-11.8,0-22.331,6.051-24.9,18.587-.522,2.786-2.568,5.528-5.354,5.659L9.794,53.846C7.269,53.28,4.484,51.234,5.18,47.36,12.1,10.97,44.966,0,74.392,0c15.061,0,34.736,4,46.62,15.409,15.061,14.06,13.625,32.821,13.625,53.236v48.231c0,14.5,6.007,20.851,11.666,28.686,2,2.786,2.438,6.138-.087,8.227-6.312,5.267-17.542,15.061-23.724,20.546l-.087-.087" fill="#fff" fill-rule="evenodd"/>
  </g>
</svg>
