<svg xmlns="http://www.w3.org/2000/svg" width="378.02" height="79.9" viewBox="0 0 378.02 79.9">
  <g id="Group_59" data-name="Group 59" transform="translate(0.002 -0.049)">
    <path id="Path_100" data-name="Path 100" d="M59.58,22.139A14.92,14.92,0,0,0,48.7,27V7H45.48V51a29.061,29.061,0,0,0,10.7,2.26,16.7,16.7,0,0,0,12.34-4.38,16.118,16.118,0,0,0,4.62-12A15,15,0,0,0,69.36,26.3a12.54,12.54,0,0,0-9.78-4.16Zm6.18,24.378a13.2,13.2,0,0,1-9.66,3.76,20.841,20.841,0,0,1-7.4-1.42V30.638q5.1-5.82,10.5-5.82a9.4,9.4,0,0,1,7.44,3.44A12.978,12.978,0,0,1,69.6,37a12.679,12.679,0,0,1-3.84,9.519Zm60.119-24.378a11.4,11.4,0,0,0-10,5.82h-.14v-5.24h-3.22v30.1h3.22v-21.1q3.88-6.44,9.88-6.44,8.2,0,8.2,10.4V52.817h3.22V34.478a12.739,12.739,0,0,0-3.06-9.059A10.62,10.62,0,0,0,125.879,22.139ZM233.418,52.817h3.24v-30h-3.24Zm0-40h3.24V7.1h-3.24Zm96,12.659a10.6,10.6,0,0,0-8.16-3.28,11.4,11.4,0,0,0-10,5.82h-.14V7.12h-3.2v45.7h3.2v-21.1c2.68-4.3,6-6.44,9.88-6.44,5.48,0,8.2,3.46,8.2,10.4V52.817h3.32V34.4a12.639,12.639,0,0,0-3.06-8.979Zm-228.2,24.7c-.48,0-.72-.52-.72-1.54V30a6.839,6.839,0,0,0-2.66-5.84,10.86,10.86,0,0,0-6.76-2,18.46,18.46,0,0,0-9.74,3.2v3.3a15.54,15.54,0,0,1,9.18-3.84q6.7,0,6.7,6.16V34.8a27.321,27.321,0,0,0-13.04,3.26A8.7,8.7,0,0,0,79.62,45.8a7.179,7.179,0,0,0,2.36,5.38,8,8,0,0,0,5.78,2.24,15.3,15.3,0,0,0,9.46-3.74,8.318,8.318,0,0,0,.62,3,1.62,1.62,0,0,0,1.48.74h.12a14.461,14.461,0,0,0,6-1.54v-3.1a15.4,15.4,0,0,1-4.32,1.4Zm-4-3.3a12.78,12.78,0,0,1-8.4,3.88,6.4,6.4,0,0,1-4.3-1.44,4.5,4.5,0,0,1-1.7-3.52,7.039,7.039,0,0,1,4-6.14,18.781,18.781,0,0,1,10.3-2.18Zm118.659,1.1h0a4.579,4.579,0,0,1-1.18,2.28,4.759,4.759,0,0,1-1.2-2.24L206.518,27c-1.18-3.56-2.86-4.32-4-4.32s-2.86.76-4,4.32l-7,20.958a4.759,4.759,0,0,1-1.2,2.24,4.78,4.78,0,0,1-1.18-2.28h0L181.3,22.679h-3.14l8.12,26.138h0c1.14,3.64,2.8,4.42,4,4.44h0c1.2,0,2.86-.76,4-4.34l7-20.958a4.5,4.5,0,0,1,1.22-2.24h0a4.76,4.76,0,0,1,1.2,2.24L210.678,49c1.2,3.58,2.86,4.34,4,4.34h0c1.22,0,2.88-.8,4-4.44h0l8.12-26.138h-3.12ZM290.517,49a14.278,14.278,0,0,1-.72-5.68V25.339h8.48v-2.62H289.8v-10s-3.22,0-3.22,4.22v5.74h-8.06V25.3h8.14V47a5.859,5.859,0,0,0,2,4.72,7.48,7.48,0,0,0,4.98,1.7,14.34,14.34,0,0,0,6.24-1.54V48.8a13.44,13.44,0,0,1-5.52,1.48C292.317,50.277,291.057,49.817,290.517,49Zm-122-24.4a20,20,0,0,0-8.94-2.42,14.66,14.66,0,0,0-10.9,4.46,15.3,15.3,0,0,0-4.36,11.159,15.358,15.358,0,0,0,4.4,11.2,14.54,14.54,0,0,0,10.84,4.52,15.14,15.14,0,0,0,8.96-3v2.36h3.24V7.16h-3.24Zm0,22.978a14.16,14.16,0,0,1-8.14,2.74,12.16,12.16,0,0,1-9.02-3.62,12.339,12.339,0,0,1-3.64-9.1,12.139,12.139,0,0,1,3.38-8.819,11.54,11.54,0,0,1,8.6-3.46,16,16,0,0,1,8.8,2.82ZM269.077,24.6a20,20,0,0,0-8.92-2.42,14.62,14.62,0,0,0-10.9,4.46A15.3,15.3,0,0,0,244.9,37.8a15.378,15.378,0,0,0,4.42,11.2,14.54,14.54,0,0,0,10.84,4.52,15.08,15.08,0,0,0,8.92-2.94v2.36h3.26V7.16h-3.26Zm0,22.978a14.12,14.12,0,0,1-8.14,2.74,12.22,12.22,0,0,1-9.02-3.62,12.4,12.4,0,0,1-3.6-9.1,12,12,0,0,1,3.38-8.819,11.52,11.52,0,0,1,8.6-3.46,16,16,0,0,1,8.78,2.82Z" transform="translate(45.481 6.949)" fill="#fff"/>
    <path id="Path_101" data-name="Path 101" d="M54.362,20.209c-2.8-.6-3.12.86-2,3.52,6.34,14,.7,27.658-5.34,31.058a6.3,6.3,0,0,1-.16-1.38c-.72-6.64-3.24-12.419-4.94-12.419-1.36,0-.52,5.68-.88,10.7-2.24-1.32-3.6-2.26-6-1.84-3.42.6-8,7.859-8.14,6.819-1.36-8.4,1.9-21.318,6.42-22.7.7-.28,2,.8,4.68,1.82,2.14.82,1.88-1.32.9-2.12a10.38,10.38,0,0,0-10.9-.78c-6.8,3.32-9.88,18.439-6.22,24.618a9.58,9.58,0,0,0,6.82,4.72c4.56.52,6-.44,9.62-4.94a4.34,4.34,0,0,0,1.74.84c-3,9.319-14.22,17.179-16.64,15.839-11.76-8-8.5-33.577-.2-56a126.465,126.465,0,0,0,4-12.459c1.24-6-6.4-7.239-11.64-2.8C11.662,5.95,8,13.389,5.022,22.129c-9.5,27.818-5.46,51.216,11.54,56.316,19.56,5.84,28.88-6.36,30.32-18.619a23.34,23.34,0,0,0,3.6.18c6-.12,14.66-3.24,17.22-16.479C69.641,33.528,63.221,21.949,54.362,20.209Z" transform="translate(0 0)" fill="#fff"/>
  </g>
</svg>
