<svg xmlns="http://www.w3.org/2000/svg" width="575.998" height="152.813" viewBox="0 0 575.998 152.813">
  <g id="g10" transform="translate(0 152.813)">
    <g id="g12">
      <path id="path14" d="M505.236-97.433a47.755,47.755,0,0,1-7.6.409c-2.032,0-4.605,0-6.507-.139.807,2.989,1.624,12.483,1.624,19.674v17.1c0,2.983-.132,3.933-.541,4.2-3.8,2.171-11.941,3.259-18.315,3.259-9.5,0-24.557-2.85-35.405-14.521-6.783-6.783-12.483-18.04-12.483-33.643,0-14.113,5.832-25.369,13.289-31.881,8.008-7.053,18.591-9.9,29.175-9.9,21.3,0,31.531,6.163,34.647,9.825a69.553,69.553,0,0,1,1.491-13.294c-3.248-.68-15.381-4.533-31.94-4.533-9.224,0-24.955.4-38.929,10.307-10.041,6.783-21.033,20.083-21.033,42.193,0,15.742,5.976,28.357,13.565,36.5,10.716,11.8,27.275,17.366,44.365,17.366,11.665,0,24.965-1.9,33.924-5.971-.143-1.358-.143-3.662-.143-9.632V-74.367c0-9.092.408-19.674.817-23.066" fill="#fff"/>
      <path id="path16" d="M217.65-98.3c-1.813,1.256-4.045,1.677-8.095,1.677-7.4,0-14.375-.42-17.164-.981-.28-.136-.42-.416-.42-1.253v-43.125c0-.557,0-.837.56-.976a61.714,61.714,0,0,1,10.188-.557c16.047,0,25.539,9.072,25.539,23.862A25.962,25.962,0,0,1,217.65-98.3Zm34.331,41.309c-9.628-10.328-19.816-24.422-28.748-36.283,11.3-7.816,17.027-17.587,17.027-29.729a26.83,26.83,0,0,0-12.421-22.886c-6-3.769-14.929-5.025-24.423-5.025-4.885,0-15.629.56-18.423.56a52.289,52.289,0,0,1-6.419-.281c1.4,4.607,1.676,20.378,1.676,40.334v24.562c0,18.144-.56,35.727-1.4,40.473a68.312,68.312,0,0,1,8.235-.42,37.436,37.436,0,0,1,6.139.28c-.7-6.143-1.256-21.213-1.256-38.8v-4.326c0-.556,0-.836.42-.836,6.139.14,16.187.28,19.12.14a2.2,2.2,0,0,1,1.813.977c6.419,8.652,19.4,27.912,27.075,35.587,5.723,6,9.259,8.146,15.537,8.146a29.8,29.8,0,0,0,8.885-1.167c-2.653-1.117-6.979-4.746-12.841-11.3" fill="#fff"/>
      <path id="path18" d="M290.471-110.3c0-19.816.56-35.307.976-40.473a76.545,76.545,0,0,1-8.372.42c-1.676,0-4.605,0-5.863-.14.977,3.489,1.257,20.236,1.257,40.052v24.7c0,18.144-.42,35.727-.977,40.473,1.257-.14,5.3-.42,8.1-.42,2.233,0,4.883.14,6.139.28-.836-4.05-1.256-22.61-1.256-40.333V-110.3" fill="#fff"/>
      <path id="path20" d="M129.84-90.521H99.593c-.271,0-.406-.14-.271-.559l14.785-40.643,16,40.643c.136.419,0,.559-.271.559Zm-10.987-56.564c-1.9-4.609-2.576-5.727-3.255-5.727-.813,0-1.491,1.676-3.119,5.727L85.623-78.509c-5.426,13.547-10.58,25.838-13.97,33.24a71.972,71.972,0,0,1,7.188-.419,26.556,26.556,0,0,1,5.425.28C85.895-51.973,92.134-69.85,96.338-82a.627.627,0,0,1,.679-.419H132.69c.406,0,.406.139.542.419,4.612,11.313,12.072,30.308,14.242,36.732a70.171,70.171,0,0,1,8.817-.419c1.492,0,3.8.14,6.239.28C159-50.856,151.406-69.012,145.3-83.957c-11.665-28.352-24.958-59.638-26.45-63.128" fill="#fff"/>
      <path id="path22" d="M389.6-150.438a30.223,30.223,0,0,1-5.289-.28c1.084,14.8,1.356,60.023,1.628,82.636-10.717-10.19-58.189-67-71.074-80.822-2.712-2.791-3.8-3.908-4.341-3.908-.813,0-1.085.7-1.085,8.236,0,24.985-.407,87.661-1.492,99.247.949-.139,5.289-.419,6.647-.419a38.88,38.88,0,0,1,5.7.28C319.2-56.5,318.8-99.21,318.527-129.221c15.055,16.471,53.44,63.791,64.563,75.377,7.46,7.957,9.9,10.47,10.851,10.47.813,0,1.085-1.117,1.085-13.122,0-6.282-.136-12.7-.136-24.568,0-28.336.813-61.419,1.493-69.795a64.643,64.643,0,0,1-6.783.42" fill="#fff"/>
      <path id="path24" d="M556.1-102.874l-6.329-4.071c-12.791-8.129-14.667-13.109-14.828-20.568-.2-9.087,6.752-15.463,16.923-15.378,11.168.095,16.119,7.228,18.008,9.823a68.879,68.879,0,0,1,1.483-13.279c-1.552-.605-3.283-1.468-5.629-2.265a44.035,44.035,0,0,0-13.256-2.265c-18.58-.509-29.027,12.213-28.721,26.319.207,9.49,4.063,18.227,18.5,27.408L549-92.816c11.831,7.614,14.929,12.971,15.112,21.379.22,10.169-5.68,18.22-18.565,18.5-10.577.23-19.257-5.246-23.024-10.323a77.194,77.194,0,0,1-.817,12.776c4.407,3.02,13.98,6.148,22.659,5.96,6.911-.15,14.453-2.107,20.328-6.305,9.351-6.848,11.429-17.476,11.3-23.305-.22-10.169-3.525-18.377-19.889-28.737" fill="#fff"/>
      <path id="path26" d="M28.538-52.265c-7.935,0-13.364-1.393-14.756-2.787-.419-.555-.7-6.542-.7-30.621v-11.97c0-.279.14-.419.559-.559,1.253-.139,7.8-.139,12.249.14,5.847.28,11.691,1.254,16.565,5.149,7.8,5.987,9.188,12.389,9.188,18.656,0,15.171-11.275,21.993-23.106,21.993ZM13.084-141.912a.84.84,0,0,1,.419-.833,45.953,45.953,0,0,1,8.769-.556c14.058,0,21.3,7.932,21.3,19.765,0,6.123-2.786,12.8-8.49,16.565-1.672,1.113-2.785,1.253-5.292,1.253-2.228,0-13.5-.14-16.145-.279a.712.712,0,0,1-.559-.695Zm28.259,38a25.568,25.568,0,0,0,13.363-22.411c0-10.3-5.847-24.537-29.512-24.537-6.957,0-13.778.737-18.928.737-1.952,0-4.454-.14-6.266-.28.974,5.013,1.393,20.324,1.393,40.228v24.5c0,18.1-.44,34.855-.995,40.423a78.461,78.461,0,0,1,8.1-.334c3.2.14,9.883.974,19.486.974,24.639,0,36.194-15.311,36.194-31.32,0-15.869-11.136-24.5-22.831-27.979" fill="#fff"/>
      <path id="path28" d="M576-12.585,0,0,13.476-12.585H576" fill="#fff"/>
      <path id="path30" d="M576-15.605,0-28.19,13.476-15.605H576" fill="#fff"/>
    </g>
  </g>
</svg>
