<svg id="Group_57" data-name="Group 57" xmlns="http://www.w3.org/2000/svg" width="600" height="215.371" viewBox="0 0 600 215.371">
  <path id="Path_86" data-name="Path 86" d="M299.251,155.76c-.034.034-.068.034-.068.068-25.56,18.088-55.82,37.088-88.379,57.035l-1.285.744a.971.971,0,0,0,1.116,1.589l1.082-.575c27.623-14.4,59.336-31.51,91.252-49.057a3.7,3.7,0,0,1,.507-.27A40.477,40.477,0,0,1,299.251,155.76Zm167.7-135.742c-40.267-44.425-299.419-4.463-409.6,19.609l-2.57.541a.962.962,0,1,0,.338,1.893l2.536-.507c91.286-16.262,281.162-38.779,322,1.724,12.476,12.374,9.5,28.264-4.97,47.062,7.776,5,13.321,12.881,15.823,22.72C446.966,75.6,484.867,39.8,466.947,20.017Z" transform="translate(107.954 0)" fill="#fff"/>
  <g id="Group_56" data-name="Group 56" transform="translate(0 88.779)">
    <path id="Path_87" data-name="Path 87" d="M149.978,84.569c.507,15.62,10.413,28.433,23.295,28.433,24.985,0,35.635-30.7,34.892-51.187-.541-15.653-10.684-28.433-23.565-28.433C163.13,33.349,149.234,63.912,149.978,84.569Zm-13.186-.845c-.913-26.675,19.982-53.959,50.343-53.959,20.286,0,33.573,13.524,34.317,34.248.98,28.129-18.562,53.959-50.309,53.959-20.353,0-33.641-13.49-34.351-34.248Z" transform="translate(273.524 -29.253)" fill="#fff"/>
    <path id="Path_88" data-name="Path 88" d="M73.1,64.341a29.561,29.561,0,0,1-4.226,1.183c-1.724.406-4.9.947-9.5,1.69-3.178.507-5.376,1.149-6.627,2.062a4.88,4.88,0,0,0-2.1,3.246,3.187,3.187,0,0,0,1.386,3.347c1.217.845,3.246,1.285,6.12,1.285a19.757,19.757,0,0,0,6.289-1.014A14.826,14.826,0,0,0,69.581,73.4a8.316,8.316,0,0,0,2.231-3.246A37.364,37.364,0,0,0,73.1,64.341Zm26.372-16.4a66.678,66.678,0,0,1-1.183,8.351L93.822,81.346a4.672,4.672,0,0,0,2.5,5.173l-.135.98-25.56-.034-.237-6.356a51.44,51.44,0,0,1-12.273,5.24A44.485,44.485,0,0,1,45.88,87.838c-8.25,0-12.983-.845-16.262-3.719-3.313-2.941-4.936-4.9-4.767-8.959a14.129,14.129,0,0,1,3.077-7.438,19.282,19.282,0,0,1,6.8-4.767,36.585,36.585,0,0,1,10.244-2.874c4.531-.744,10.819-1.454,19.238-2.164a27.661,27.661,0,0,0,8.385-1.893c1.758-.676,2.468-1.454,2.7-2.874.473-2.569-.338-4.057-3.787-4.733-9.2-1.826-26.473,1.183-35.365,3.381l4.835-13.05a231.748,231.748,0,0,1,34.317-2.806c18.494,0,24.377,5.24,24.174,12Z" transform="translate(49.677 -16.902)" fill="#fff"/>
    <path id="Path_89" data-name="Path 89" d="M74.419,99.186l8.858-50.071h24.478L98.9,99.186ZM84.63,37.519c.744-4.125,7.235-7.438,14.471-7.438,7.269,0,12.577,3.347,11.867,7.438-.778,4.125-7.235,7.472-14.538,7.472C89.194,44.99,83.92,41.643,84.63,37.519Z" transform="translate(148.838 -28.622)" fill="#fff"/>
    <path id="Path_90" data-name="Path 90" d="M146.676,64.419c-1.116.372-2.536.778-4.26,1.183s-4.9.913-9.5,1.657c-3.144.507-5.376,1.149-6.593,2.062a5.118,5.118,0,0,0-2.13,3.212,3.165,3.165,0,0,0,1.386,3.347c1.251.845,3.28,1.251,6.153,1.251a21.013,21.013,0,0,0,6.289-.947,15.593,15.593,0,0,0,5.173-2.739,8.432,8.432,0,0,0,2.164-3.246,38.347,38.347,0,0,0,1.319-5.781Zm26.372-16.431a60.368,60.368,0,0,1-1.217,8.351L167.4,81.425a4.692,4.692,0,0,0,2.5,5.173l-.135.879-25.56.034-.2-6.39a49.373,49.373,0,0,1-12.273,5.24,43.358,43.358,0,0,1-12.307,1.521c-8.25,0-12.949-.811-16.229-3.719-3.347-2.975-4.936-4.9-4.767-8.959a13.406,13.406,0,0,1,3.077-7.438A18.7,18.7,0,0,1,108.335,63a37.729,37.729,0,0,1,10.211-2.908c4.531-.71,10.853-1.454,19.272-2.164a27.975,27.975,0,0,0,8.351-1.859c1.792-.676,2.468-1.454,2.739-2.908.44-2.536-.338-4.023-3.753-4.733-9.264-1.826-26.473,1.183-35.365,3.381l4.8-13.05a232.12,232.12,0,0,1,34.317-2.806c18.426.034,24.309,5.308,24.14,12.036Z" transform="translate(196.832 -16.879)" fill="#fff"/>
    <path id="Path_91" data-name="Path 91" d="M71.214,82.172a89.036,89.036,0,0,1-20.32,2.2c-11.7,0-21-5.815-20.489-16.465.372-7.1,8.757-22.043,30.091-22.043,6.728,0,11.969,1.183,19.035,5.207l3.11-17.378c-9.6-3.618-15.958-4.158-24.208-4.091C30.44,29.9,3.595,42.616.247,68.48c-3.381,26.269,28.7,32.862,42.938,32.795,8.216-.034,16.77-.372,24.749-1.183Z" transform="translate(0 -29.594)" fill="#fff"/>
    <path id="Path_92" data-name="Path 92" d="M97.647,46.861,99.4,36.651,125,31.073,122.26,46.827H134.8L132.437,56.9l-12.172-.034-7.4,40.266s-24.647-.169-24.749,0L95.483,56.97H86.219l1.893-10.143h9.534Z" transform="translate(172.437 -26.638)" fill="#fff"/>
    <path id="Path_93" data-name="Path 93" d="M160.09,30.508l-11.9,69.139-24.918.034,12.543-69.849Z" transform="translate(246.552 -29.118)" fill="#fff"/>
    <path id="Path_94" data-name="Path 94" d="M93.33,48.473a14.157,14.157,0,0,0-8.689,2.908,13.028,13.028,0,0,0-4.835,8.554q-1.166,6.542,1.42,9.433c1.758,1.927,4.26,2.908,7.573,2.908a14.5,14.5,0,0,0,6.221-1.251,12.182,12.182,0,0,0,4.8-4.125,16.6,16.6,0,0,0,2.7-6.593c.71-3.956.1-6.9-1.724-8.858A9.6,9.6,0,0,0,93.33,48.473ZM48.769,104.088,60.7,37.012h21.5L80.55,45.565c1.86-2.569,4.835-4.666,8.96-6.356a36.808,36.808,0,0,1,13.9-2.941c5.612,0,9.061.3,13.253,2.468a17.684,17.684,0,0,1,8.655,9.5A24.71,24.71,0,0,1,126.4,61.861a29.5,29.5,0,0,1-12.1,19.575c-6.559,4.8-12.476,6.052-20.894,6.086a31.733,31.733,0,0,1-7.54-.811,17.51,17.51,0,0,1-4.869-1.961A21.411,21.411,0,0,1,76.966,81.1l-3.99,22.99Z" transform="translate(97.537 -16.248)" fill="#fff"/>
    <path id="Path_95" data-name="Path 95" d="M223.78,48.789c-.135-4.023-2.164-6.762-6.322-6.762-10.042,0-20.725,19.677-22.551,27.588C211.372,69.649,224.186,59.844,223.78,48.789Zm2.164,30.834,1.927,1.319c-4.9,9.974-14.876,17.986-26.574,17.986-9.568,0-17.446-6.39-17.852-18.358-.778-21.469,19.339-41.382,35.8-41.382,7.066,0,13.625,3.077,13.9,10.684.609,17.073-23.362,22.28-39.152,22.652a19.118,19.118,0,0,0-.609,6.288c.271,7.066,4.531,13.016,13.389,13.016,7.641,0,15.282-6.153,19.17-12.205Z" transform="translate(366.843 -10.41)" fill="#fff"/>
    <path id="Path_96" data-name="Path 96" d="M165.928,48.27c1.69-.237,4.429-.541,5.612-.541,1.792,0,3.482.338,3.584,2.13.034,1.048-1.86,8.655-2.265,10.413l-3.82,16.837c-1.555,6.9-3.212,14.1-4.7,19.812h9.8l5.511-26.675c16.8-17.513,23.295-23.227,27.251-23.227a2.863,2.863,0,0,1,3.111,3.077c.1,3.077-1.826,10.075-2.468,12.1l-5.612,19.44c-1.285,4.361-2.231,8.317-2.13,11.123.169,4.26,2.739,6.153,6.593,6.153,7.168,0,12.374-7.472,16.9-14.808l-1.319-2.4c-1.826,2.941-6.086,9.4-9.433,9.4-1.048,0-2.062-.71-2.1-2.468-.1-2.265.845-5.68,1.521-7.945l6.255-22.787c1.69-6.288,2.468-10.312,2.434-12.475-.169-4.26-2.637-6.255-6.458-6.255-6.458,0-15.012,4.733-33.167,25.593h-.271l2.3-10.176c1.251-5.578,2.468-11.394,3.618-15.417a166.657,166.657,0,0,1-20.827,5.883Z" transform="translate(328.676 -10.433)" fill="#fff"/>
  </g>
</svg>
