<svg id="Group_61" data-name="Group 61" xmlns="http://www.w3.org/2000/svg" width="300" height="73.721" viewBox="0 0 300 73.721">
  <path id="Path_102" data-name="Path 102" d="M210.7,51.084h.376a3.838,3.838,0,0,0,.994-.076.6.6,0,0,0,.306-.256.8.8,0,0,0,.11-.422.732.732,0,0,0-.11-.4.584.584,0,0,0-.31-.256,3.625,3.625,0,0,0-.99-.08H210.7v1.492Zm-.92,3.1v-5.46h.92c.868,0,1.352,0,1.456.014a1.532,1.532,0,0,1,.714.218,1.278,1.278,0,0,1,.426.524,1.77,1.77,0,0,1,.17.78,1.6,1.6,0,0,1-.322,1.01,1.38,1.38,0,0,1-.9.52,1.128,1.128,0,0,1,.32.208,2.525,2.525,0,0,1,.308.42c.034.052.144.272.334.664l.54,1.1H212.6l-.38-.888a3.766,3.766,0,0,0-.638-1.126.91.91,0,0,0-.638-.232h-.24v2.246h-.924Zm1.94-6.893a3.06,3.06,0,0,0-1.694.532,3.583,3.583,0,0,0-1.28,1.524,4.888,4.888,0,0,0-.01,4.144,3.632,3.632,0,0,0,1.272,1.53,2.957,2.957,0,0,0,3.43,0,3.687,3.687,0,0,0,1.27-1.53,4.841,4.841,0,0,0-.008-4.144,3.556,3.556,0,0,0-1.282-1.524,3.074,3.074,0,0,0-1.7-.532Zm0-1a3.813,3.813,0,0,1,2.114.66,4.448,4.448,0,0,1,1.59,1.9,6.06,6.06,0,0,1,.012,5.148,4.546,4.546,0,0,1-1.582,1.9,3.691,3.691,0,0,1-4.27,0,4.554,4.554,0,0,1-1.584-1.9,6.06,6.06,0,0,1,.012-5.148,4.451,4.451,0,0,1,1.592-1.9A3.815,3.815,0,0,1,211.716,46.29ZM164.572,0h15.012V21.808h.158a13.322,13.322,0,0,1,5-3.712,14.433,14.433,0,0,1,6.116-1.344c9.054,0,14.852,6.006,14.852,17.383V56.577H190.7V36.347c0-5.056-1.826-7.743-5.716-7.743a5.275,5.275,0,0,0-5.084,3.24,5.007,5.007,0,0,0-.316,2.132v22.6H164.572V0m-3.43,56.457c-2.758,1.274-7.25,1.834-11.98,1.834-13.716,0-22.3-7.9-22.3-20.256,0-10.765,7.564-20.892,24.038-20.892a33.343,33.343,0,0,1,10.012,1.436L158.7,29.5a17.5,17.5,0,0,0-6.936-1.116c-5.6,0-9.616,3.668-9.536,9.089,0,6.461,4.884,9.249,10.088,9.249a19.224,19.224,0,0,0,7.092-1.116l1.734,10.847M109.98,32.613a5.789,5.789,0,0,0-5.92-5.9,6.578,6.578,0,0,0-6.534,5.9ZM97.76,42.741c.538,2.946,5.38,4.542,10.374,4.542a35.154,35.154,0,0,0,11.3-1.6l1.842,9.891a38.531,38.531,0,0,1-15.14,2.712C92,58.291,84,50.394,84,37.957c0-7.735,5.148-20.816,20.756-20.816,13.526,0,18.672,10.447,18.672,20.414a25.257,25.257,0,0,1-.534,5.184H97.76Z" transform="translate(84)" fill="#005eb8" fill-rule="evenodd"/>
  <path id="Path_103" data-name="Path 103" d="M79.922,13.856H65.142V1.715h44.576V13.856H94.626v41h-14.7Z" transform="translate(65.142 1.715)" fill="#005eb8" fill-rule="evenodd"/>
  <path id="Path_104" data-name="Path 104" d="M107.69,38.546a18.293,18.293,0,0,0,.08,2.092,6.869,6.869,0,0,0,6.578,5.786c4.62,0,7.676-3.376,7.676-9.161,0-5.064-2.35-9.4-7.52-9.4a7.1,7.1,0,0,0-6.736,6.189,11.077,11.077,0,0,0-.078,1.606v2.892Zm-14.8-7.553c0-5.624-.158-10.207-.314-13.741H105.34l.626,5.22h.158c3.368-4.256,8.146-6.187,13.942-6.187,7.676,0,17.076,6.271,17.076,20.092,0,14.709-10.184,21.378-19.112,21.378-4.856,0-8.616-1.688-10.184-3.856h-.156V72.863h-14.8V30.993Zm-20.44,7.781c-6.546,0-9.7,1.674-9.7,4.864,0,2.23,1.5,3.508,4.258,3.508a5.743,5.743,0,0,0,5.284-4.068,9.407,9.407,0,0,0,.16-2.152V38.774ZM86.8,46.749a56.029,56.029,0,0,0,.63,9.727h-13.4l-.79-3.348h-.316c-2.838,3.19-6.94,4.306-11.356,4.306C53.046,57.434,48,51.451,48,45.073c0-10.525,9.306-15.389,23.974-15.389v-.24c0-1.436-.946-3.19-6.784-3.19a26.712,26.712,0,0,0-11.748,3.112l-2.6-9.411c2.522-1.354,8.28-3.668,16.954-3.668,13.326,0,19,6.779,19,17.3V46.749ZM45.434,54.841c-2.168,1.134-7.74,2.592-14.86,2.592C9.444,57.434,0,44.707,0,30.037,0,11.07,14.24.857,31.346.857c6.734,0,12.384,1.3,14.94,2.756l-3.02,11.833a28.734,28.734,0,0,0-11.376-2.27c-8.748,0-16.488,4.942-16.488,15.805,0,9.4,6.116,15.967,16.874,15.967A31.389,31.389,0,0,0,43.19,43.084l2.244,11.757" transform="translate(0 0.857)" fill="#005eb8" fill-rule="evenodd"/>
</svg>
