<svg xmlns="http://www.w3.org/2000/svg" width="786.97" height="143.021" viewBox="0 0 786.97 143.021">
  <g id="layer1" transform="translate(217.318 -280.729)">
    <g id="g2901" transform="translate(5.314 5.308)">
      <path id="path2677" d="M-203.523,417.081h-19.11V359.027h19.11c20.218,0,31.054,9.877,31.054,28.987C-172.469,406.961-181.47,417.081-203.523,417.081Zm-1.385-49.222h-6.266v40.387h6.128c15.786.322,20.876-7.384,20.876-20.152,0-14.052-7.3-20.235-20.737-20.235" fill="#fff"/>
      <path id="path2679" d="M-154.952,392.591c.312-5.3,2.908-10.2,8.9-10.2,5.816,0,8.689,4.334,8.447,10.2Zm9.243-17.022c-15.267,0-20.564,10.839-20.564,21.035,0,12.127,6.093,21.2,19.11,21.6,10.351.083,19.525-3.05,20.149-14.371h-10.594c0,4.577-3.7,7.547-8.032,7.547-7.3,0-9.624-5.38-9.728-11.964l29.253-.08c.865-12.044-4.362-23.766-19.595-23.766" fill="#fff"/>
      <path id="path2681" d="M-79.135,417.081h-10.94l-.069-6.585c-1.835,5.217-6.924,7.869-13.155,7.869-7.409,0-14.4-4.5-14.471-15.257v-26.1h11.078v24.569c-.069,5.781,2.181,8.994,7.616,9.074,4.916,0,8.932-2.811,8.932-10.6V377.012h11.009v40.069" fill="#fff"/>
      <path id="path2683" d="M-64.941,377.175v-6.346l10.7-5.619v11.964h10.213v7.786H-54.244v19.352c0,3.933,1.35,6.183,5.366,6.342a15.607,15.607,0,0,0,4.916-.4v6.907c-5.228.724-11.251,2.088-16.237-.564-3.774-2-4.743-5.539-4.743-11.158V384.961h-8.586v-7.786h8.586" fill="#fff"/>
      <path id="path2685" d="M-2.453,399.816a11.716,11.716,0,0,1-.485,11.4c-3.774,5.778-11.978,7.225-18.314,7.066-9-.564-17-2.891-16.617-13.65h10.94c-.1,4.656,2.8,6.342,6.959,6.5,4.016,0,8.032-1.364,8.032-5.058,0-2.97-2.8-4.255-6.4-5.058-4.12-.883-7.062-1.284-11.667-3.133-3.67-1.766-7.3-4.736-7.3-10.355,0-4.66,3.635-8.191,8.378-10.119a27.774,27.774,0,0,1,10.524-1.766c7.616,0,15.89,2.648,15.406,12.283H-13.289a4.954,4.954,0,0,0-1.523-4.012c-2.25-2.008-9.174-2.25-11.321,1.042-2.423,5.622,5.054,6.024,13.329,8.271,5.228,1.2,8.759,3.372,10.351,6.585" fill="#fff"/>
      <path id="path2687" d="M24.931,375.485c8.759,0,17.829,4.016,17.829,15.018l-10.767-.083c0-5.138-2.8-8.271-8.1-8.028a9.875,9.875,0,0,0-4.016,1.2c-3.323,1.928-4.362,7.308-4.362,12.688,0,5.7,1.385,11.241,3.877,13.245,1.662,1.606,4.639,2.091,7.2,1.606,4.258-.72,5.539-4.9,5.643-8.509l10.524-.08c.138,11.48-9.243,15.818-19.041,15.655-13.086-.481-19.11-8.991-19.11-21.6,0-12.764,7.3-21.118,20.322-21.118" fill="#fff"/>
      <path id="path2689" d="M51.242,359.107H62.32v24.247c2.908-5.138,7.235-7.384,13.086-7.384,7.409,0,14.4,5.539,14.4,13.488v27.623H78.868V392.508c0-5.46-2.32-9.07-7.547-9.07-4.881,0-9.07,3.209-9.07,10.6v23.046H51.242V359.107" fill="#fff"/>
      <path id="path2691" d="M109.714,392.591c.312-5.3,2.873-10.2,8.9-10.2,5.781,0,8.689,4.334,8.447,10.2Zm9.243-17.022c-15.267,0-20.564,10.839-20.564,21.035,0,12.127,6.093,21.2,19.11,21.6,10.351.083,19.525-3.05,20.149-14.371H127.059c0,4.577-3.7,7.547-8.032,7.547-7.3,0-9.624-5.38-9.728-11.964l29.253-.08c.865-12.044-4.362-23.766-19.595-23.766" fill="#fff"/>
      <path id="path2693" d="M206.856,415.395a46.947,46.947,0,0,1-13.779,1.686H172.1V359.186h22.33c9.97,0,20.391,3.133,20.806,14.294.242,7.066-4.57,11.559-10.594,13.567,4.639,1.2,8.413,2.569,10.974,6.907A15.07,15.07,0,0,1,216.2,407.2,15.305,15.305,0,0,1,206.856,415.395Zm-12.428-47.536H183.107v15.014H194.6c6.024,0,9.14-2.489,9.14-7.388C203.741,370.909,200.14,367.859,194.428,367.859Zm1.142,23.687-12.463-.08v17.022h12.048c8.032,0,10.594-3.936,10.594-8.831,0-3.774-2.735-8.191-10.178-8.111" fill="#fff"/>
      <path id="path2695" d="M241.891,411.3c-4.085-.322-6.508-2.33-6.508-6.183.069-8.43,10.767-7.547,16.306-7.547C251.931,404.233,251.377,411.136,241.891,411.3Zm20.322-23.285c0-8.191-8.828-12.286-19.041-12.207-9.728.163-16.79,3.292-16.929,12.688h10.663c-.242-4.338,2.735-6.585,6.682-6.664,5.92,0,8.586,2.728,8.032,9.475-5.885.319-13.744-.083-19.595,2.648a12.424,12.424,0,0,0-7.547,11.8c0,7.71,5.366,12.366,13.225,12.608,5.643.561,12.048-1.928,14.54-7.145l.415,5.861h9.555V388.014" fill="#fff"/>
      <path id="path2697" d="M272.876,377.012h11.078v6.425c2.908-5.221,8.2-7.467,14.159-7.467,6.647,0,13.467,3.853,13.467,13.488v27.623H300.5V392.508c.069-5.217-2.493-9.07-7.547-9.07-4.985,0-9.07,3.209-9.07,10.6v23.046H272.876V377.012" fill="#fff"/>
      <path id="path2699" d="M350.354,417.081l-16.86-22.967,15.267-17.1h13.017l-15.821,16.7,18.625,23.368Zm-28.076-57.974h10.905v57.974H322.278Z" fill="#fff"/>
      <path id="path2701" d="M423.332,275.421H564.337V417H423.332Zm85.683,33.532-55.08,73.923h24.891l55.287-73.923Zm-66.054,88.435H544.708V295.033H442.961Z" fill="#fff"/>
    </g>
  </g>
</svg>
