<svg id="svg2606" xmlns="http://www.w3.org/2000/svg" viewBox="0 0 360 45"><defs><style>.cls-1{fill:#fff;}.cls-2{fill:none;}</style></defs><g id="layer1"><path id="path29" class="cls-1" d="M281.22,11.62a4.23,4.23,0,0,0-3.16,1.29,4,4,0,0,0-1.25,2.9,8.22,8.22,0,0,0,1.85,4.63,19.81,19.81,0,0,0-4.16,3.4,5.12,5.12,0,0,0-1.06,3.32,5.36,5.36,0,0,0,.87,3,6,6,0,0,0,2.22,2.06,6.15,6.15,0,0,0,2.91.75c2.06,0,4-1,5.87-3.09C286.87,32,288.67,33,290.72,33a4.13,4.13,0,0,0,2.5-.81,3.66,3.66,0,0,0,1.4-2.1h-.74a2.53,2.53,0,0,1-2.29,1.44,3.57,3.57,0,0,1-2-.65,13.08,13.08,0,0,1-2.65-3.07,14.67,14.67,0,0,0,1.56-2.93,9.73,9.73,0,0,1,2-3.32,5.26,5.26,0,0,1,2.22-1.22v-.75h-6.75v.75c1.65.19,2.47.86,2.47,2.07a6.32,6.32,0,0,1-.54,2.09,11.67,11.67,0,0,1-1.4,2.59q-2.49-3.53-5.28-7.31c3-1.52,4.5-3.07,4.5-4.69a3,3,0,0,0-1.35-2.53A5.27,5.27,0,0,0,281.22,11.62Zm28.69.1A10.21,10.21,0,0,0,304.84,13a8.77,8.77,0,0,0-3.59,4A12.88,12.88,0,0,0,300,22.66a10,10,0,0,0,2.78,7.4A9.76,9.76,0,0,0,310,32.84a8.72,8.72,0,0,0,6.84-3,5.32,5.32,0,0,1,1,2.16h.69V24.81h-.69a10.17,10.17,0,0,1-1.19,3.69,5.77,5.77,0,0,1-2.68,2.69,7.9,7.9,0,0,1-3.35.78,6.44,6.44,0,0,1-5.12-2.44c-1.37-1.63-2-4-2-7,0-3.23.62-5.73,1.87-7.47a5.91,5.91,0,0,1,5.06-2.59A7.42,7.42,0,0,1,315,14.06c1.39,1.08,2.3,3,2.75,5.72h.69l-.19-7.72h-.69a7.33,7.33,0,0,1-.78,2.66A8.31,8.31,0,0,0,314,12.66,8.92,8.92,0,0,0,309.91,11.72Zm-120,.06a10.21,10.21,0,0,0-5.07,1.28,8.77,8.77,0,0,0-3.59,4A12.88,12.88,0,0,0,180,22.72a10,10,0,0,0,2.78,7.4,9.68,9.68,0,0,0,7.19,2.79,8.73,8.73,0,0,0,6.84-3,5.39,5.39,0,0,1,1,2.15h.69V24.88h-.69a10.07,10.07,0,0,1-1.19,3.68,5.77,5.77,0,0,1-2.68,2.69,8,8,0,0,1-3.35.81,6.47,6.47,0,0,1-5.12-2.47c-1.37-1.63-2-4-2-7,0-3.23.62-5.7,1.87-7.44a6,6,0,0,1,5.06-2.62A7.42,7.42,0,0,1,195,14.12c1.38,1.09,2.3,3,2.75,5.72h.69l-.19-7.68h-.69a7.18,7.18,0,0,1-.81,2.62A8.16,8.16,0,0,0,194,12.72,9,9,0,0,0,189.91,11.78Zm-148.66.06c-1.15,0-2.76.05-4.81.13l-2.56.09v.69h.37a4.76,4.76,0,0,1,2,.28,1.33,1.33,0,0,1,.6,1A21.33,21.33,0,0,1,37,17.16v10a22.7,22.7,0,0,1-.15,3.28,1.53,1.53,0,0,1-.63,1,3.72,3.72,0,0,1-1.84.31h-.53v.69h9.4v-.69h-.69a3.44,3.44,0,0,1-1.87-.34,1.68,1.68,0,0,1-.63-1.13A30.32,30.32,0,0,1,40,27.16V22.84h2.25a12.75,12.75,0,0,0,4.91-.65,4.75,4.75,0,0,0,2.12-1.94,5.77,5.77,0,0,0,.75-3,4.71,4.71,0,0,0-1.09-3.19,5.8,5.8,0,0,0-2.82-1.75A18.4,18.4,0,0,0,41.25,11.84Zm-19.34.22v.69h.47a4.63,4.63,0,0,1,2,.28A1.41,1.41,0,0,1,25,14a20.06,20.06,0,0,1,.12,3.16v6.93A36.06,36.06,0,0,1,24.91,29a4.4,4.4,0,0,1-1.44,2.56,4.06,4.06,0,0,1-2.88,1.1,3.38,3.38,0,0,1-1.4-.28.84.84,0,0,1-.57-.76,1.4,1.4,0,0,1,.16-.53,1.94,1.94,0,0,0,.19-.78,1.4,1.4,0,0,0-.44-1.06,1.56,1.56,0,0,0-1.12-.44,1.46,1.46,0,0,0-1.1.5,1.68,1.68,0,0,0-.43,1.19,2.43,2.43,0,0,0,1.24,2,6.22,6.22,0,0,0,3.54.85,8.86,8.86,0,0,0,3.62-.69,6.12,6.12,0,0,0,3.63-4.63,30.19,30.19,0,0,0,.18-3.94v-7a19.64,19.64,0,0,1,.16-3.22,1.3,1.3,0,0,1,.63-.94,4.78,4.78,0,0,1,2-.25h.5v-.69Zm30.87,0v.69h.56a4.57,4.57,0,0,1,2,.28A1.39,1.39,0,0,1,56,14a23,23,0,0,1,.12,3.16V26a23,23,0,0,1-.15,3.47,2.63,2.63,0,0,1-1,1.59,3.68,3.68,0,0,1-2.13.69v.69h7.34v-.69A3.57,3.57,0,0,1,57.94,31,2.59,2.59,0,0,1,57,29.47a23.67,23.67,0,0,1-.16-3.35V14.19L65,32.47h.72l8-18.28v13a21.8,21.8,0,0,1-.13,3.25,1.52,1.52,0,0,1-.65,1,3.63,3.63,0,0,1-1.82.31h-.71v.69h9.81v-.69h-.91a3.41,3.41,0,0,1-1.87-.34,1.61,1.61,0,0,1-.63-1.1,25.86,25.86,0,0,1-.12-3.18v-10a20.11,20.11,0,0,1,.15-3.22,1.38,1.38,0,0,1,.63-.94,5,5,0,0,1,2-.25h.75v-.69H73.91L66.5,29,59,12.06Zm228.5.35a2.34,2.34,0,0,1,1.84.78,2.89,2.89,0,0,1,.72,2c0,1.42-1.06,2.75-3.15,4-1.29-1.77-1.91-3.17-1.91-4.19a2.59,2.59,0,0,1,.69-1.84A2.32,2.32,0,0,1,281.28,12.41Zm-239.72.15a5.71,5.71,0,0,1,4,1.19,4.93,4.93,0,0,1,1.25,3.72,5.06,5.06,0,0,1-.72,2.81,3.33,3.33,0,0,1-1.81,1.47,8.89,8.89,0,0,1-2.84.37H40v-9.5A15.19,15.19,0,0,1,41.56,12.56Zm202.06,3.88a4,4,0,0,0-2.93,1.09,3.76,3.76,0,0,0-1.19,2.81,4.2,4.2,0,0,0,.56,2.07A4.31,4.31,0,0,0,241.53,24a21.57,21.57,0,0,0,2.88,1.41,9.82,9.82,0,0,1,2.9,1.68,2.68,2.68,0,0,1,.78,2,3,3,0,0,1-.9,2.13,3.39,3.39,0,0,1-2.57.93q-3.68,0-4.65-4.93h-.59v5.06H240a3.77,3.77,0,0,1,.56-1.53,5.48,5.48,0,0,0,4.31,2,5.06,5.06,0,0,0,3.6-1.25,4.32,4.32,0,0,0,1.34-3.28,4.44,4.44,0,0,0-.56-2.25,3.92,3.92,0,0,0-1.47-1.5,29.1,29.1,0,0,0-3-1.47,11.39,11.39,0,0,1-2.9-1.72,2.35,2.35,0,0,1-.85-1.81,2.47,2.47,0,0,1,.66-1.66,2.6,2.6,0,0,1,2.06-.75,3.82,3.82,0,0,1,2.63,1,5.42,5.42,0,0,1,1.56,2.78h.5V16.72h-.5a2.45,2.45,0,0,1-.6,1.37,4.94,4.94,0,0,0-1.81-1.34A5.47,5.47,0,0,0,243.62,16.44Zm-153.78,0a8.59,8.59,0,0,0-6,2.19,7.5,7.5,0,0,0-2.43,5.84,7.83,7.83,0,0,0,2.4,6,9.45,9.45,0,0,0,12.31,0,7.76,7.76,0,0,0,2.35-5.88A7.52,7.52,0,0,0,96,18.66,8.94,8.94,0,0,0,89.84,16.47Zm36.28,0A7.15,7.15,0,0,0,120.34,19a8.93,8.93,0,0,0-2.15,5.91A7.64,7.64,0,0,0,126,32.75a10.47,10.47,0,0,0,3.63-.75,7,7,0,0,1,2.34-.53,3,3,0,0,1,.5,0V29.84a15.84,15.84,0,0,1,.12-2.56,1.19,1.19,0,0,1,.54-.78,3.51,3.51,0,0,1,1.53-.22v-.53h-6.78v.53h.37a3.61,3.61,0,0,1,1.28.16.88.88,0,0,1,.5.56,5,5,0,0,1,.19,1.69,4,4,0,0,1-.37,1.78,2.78,2.78,0,0,1-1.32,1.19,4.79,4.79,0,0,1-2.18.5,5.1,5.1,0,0,1-3.94-1.72c-1.06-1.16-1.56-3.16-1.56-5.94s.56-4.72,1.65-5.81A5.27,5.27,0,0,1,126.38,17,5.08,5.08,0,0,1,130,18.44a6.18,6.18,0,0,1,1.84,3.81h.54V17h-.54a5.61,5.61,0,0,1-.5,1.78A6.68,6.68,0,0,0,126.12,16.47Zm204.66,0a8.59,8.59,0,0,0-6,2.19,7.5,7.5,0,0,0-2.44,5.84,7.78,7.78,0,0,0,2.38,6,9.45,9.45,0,0,0,12.31,0,7.78,7.78,0,0,0,2.38-5.88,7.56,7.56,0,0,0-2.47-5.93A8.94,8.94,0,0,0,330.78,16.47Zm-101.69,0-4.56,10.88c-.33.78-.54,1.22-.59,1.34a9.15,9.15,0,0,1-1.22,2.4,2.51,2.51,0,0,1-1.56.76v.53h4.72v-.53a2.1,2.1,0,0,1-1.26-.38,1.25,1.25,0,0,1-.46-1.06,10.17,10.17,0,0,1,.9-2.82l.41-1h5.94l1.21,2.91a6.66,6.66,0,0,1,.54,1.5.7.7,0,0,1-.41.69,5,5,0,0,1-1.53.16v.53h6.16v-.53a2.36,2.36,0,0,1-1.22-.41,2.13,2.13,0,0,1-.66-.88L234.78,29,229.56,16.5Zm-122.75.06c-.87,0-2.06,0-3.56.1l-2.22.09v.53h.25a3.84,3.84,0,0,1,1.6.22,1,1,0,0,1,.47.75,17.39,17.39,0,0,1,.09,2.41v7.72a20.39,20.39,0,0,1-.09,2.5,1.2,1.2,0,0,1-.5.78,2.8,2.8,0,0,1-1.41.25h-.5v.53H108v-.53h-.75a2.66,2.66,0,0,1-1.47-.29,1.22,1.22,0,0,1-.47-.84,22.12,22.12,0,0,1-.06-2.4V24.94h.63a1.52,1.52,0,0,1,.9.22,6.84,6.84,0,0,1,1.1,1.15c.52.65,1,1.33,1.53,2a19,19,0,0,0,3.43,4.1H117v-.53a4.06,4.06,0,0,1-2.37-.79A15.61,15.61,0,0,1,111.88,28a12.77,12.77,0,0,0-3.19-3.41A5.54,5.54,0,0,0,112,23.25a3.59,3.59,0,0,0,1.12-2.66,3.21,3.21,0,0,0-.87-2.25A4.89,4.89,0,0,0,110,17,13.19,13.19,0,0,0,106.34,16.56Zm37.41,0-4.59,10.85c-.33.78-.51,1.23-.57,1.34a8.81,8.81,0,0,1-1.25,2.44,2.45,2.45,0,0,1-1.53.72v.53h4.72v-.53a2,2,0,0,1-1.25-.35,1.29,1.29,0,0,1-.47-1.09,10.21,10.21,0,0,1,.91-2.81l.4-1h5.94l1.19,2.9a8,8,0,0,1,.56,1.53.64.64,0,0,1-.4.66,4.73,4.73,0,0,1-1.53.16v.53H152v-.53a2.44,2.44,0,0,1-1.22-.38,2.17,2.17,0,0,1-.65-.87L149.44,29l-5.22-12.44Zm58.37.16v.53h.32a3.45,3.45,0,0,1,1.53.22,1,1,0,0,1,.47.75,15.67,15.67,0,0,1,.12,2.4v7.69a17.17,17.17,0,0,1-.12,2.53,1.12,1.12,0,0,1-.5.78,2.75,2.75,0,0,1-1.41.26h-.41v.53h7.13v-.53h-.41a2.62,2.62,0,0,1-1.46-.29,1.18,1.18,0,0,1-.47-.84,17.62,17.62,0,0,1-.1-2.44V24.53H215v3.78a18.34,18.34,0,0,1-.09,2.5,1.24,1.24,0,0,1-.5.81,2.67,2.67,0,0,1-1.38.26h-.53v.53h7.09v-.53h-.34a2.58,2.58,0,0,1-1.44-.29,1.22,1.22,0,0,1-.47-.84,20.2,20.2,0,0,1-.09-2.44V20.62a14.22,14.22,0,0,1,.13-2.46,1,1,0,0,1,.46-.72,3.89,3.89,0,0,1,1.54-.19h.21v-.53H212.5v.53h.41a3.51,3.51,0,0,1,1.53.22,1.07,1.07,0,0,1,.47.75,17.3,17.3,0,0,1,.09,2.4v3.13h-8.19V20.62a14.22,14.22,0,0,1,.13-2.46,1,1,0,0,1,.5-.72,3.66,3.66,0,0,1,1.5-.19h.31v-.53Zm50.63,0v.53a3.27,3.27,0,0,1,1.5.22,1.09,1.09,0,0,1,.47.78,17.43,17.43,0,0,1,.09,2.37v7.69a19.33,19.33,0,0,1-.09,2.47,1.36,1.36,0,0,1-.44.78,2.29,2.29,0,0,1-1.47.32h-.34v.53h12.94l.34-4.88h-.53a7.68,7.68,0,0,1-1.16,2.75,3.36,3.36,0,0,1-1.5,1.28,6.13,6.13,0,0,1-2,.28h-1.15c-1.05,0-1.7-.17-1.94-.5s-.35-1.42-.35-3.28V24.34h1.69a5.11,5.11,0,0,1,1.44.16,1,1,0,0,1,.62.56,4.51,4.51,0,0,1,.22,1.75h.53V21.47h-.53a5.61,5.61,0,0,1-.15,1.56,1,1,0,0,1-.6.59,4.27,4.27,0,0,1-1.59.19h-1.63V17.25h2.16a10.57,10.57,0,0,1,2.34.19,2.28,2.28,0,0,1,1.29.84,6.27,6.27,0,0,1,.9,2.34h.53l-.37-3.9Zm-98.69,0v.53a4.46,4.46,0,0,1,1.63.19,1.11,1.11,0,0,1,.53.78,10.65,10.65,0,0,1,.19,2.41V29a8.07,8.07,0,0,1-.13,1.78,1.3,1.3,0,0,1-.69.72,4.16,4.16,0,0,1-1.68.41v.53h5.81v-.53a3.7,3.7,0,0,1-1.84-.35,1.56,1.56,0,0,1-.79-.78A8.18,8.18,0,0,1,157,29V18.09l11.15,14.72h.47v-13a4.45,4.45,0,0,1,.16-1.4,1.44,1.44,0,0,1,.72-.75,4.29,4.29,0,0,1,1.56-.38v-.53h-5.65v.53a4.51,4.51,0,0,1,1.56.25,1.47,1.47,0,0,1,.87.66,3.57,3.57,0,0,1,.22,1.47V29l-9.28-12.28ZM89.88,17a5.21,5.21,0,0,1,4.37,2,8.93,8.93,0,0,1,1.5,5.59,8.89,8.89,0,0,1-1.53,5.66,5,5,0,0,1-4.16,1.91,5.38,5.38,0,0,1-4.5-1.91,9,9,0,0,1-1.5-5.66,9,9,0,0,1,1.5-5.65A5.16,5.16,0,0,1,89.88,17Zm240.93,0a5.23,5.23,0,0,1,4.38,2,9,9,0,0,1,1.5,5.59,8.89,8.89,0,0,1-1.53,5.66A5.06,5.06,0,0,1,331,32.16a5.44,5.44,0,0,1-4.53-1.91,9,9,0,0,1-1.5-5.66,9,9,0,0,1,1.5-5.65A5.22,5.22,0,0,1,330.81,17Zm-224.59.09c1.82,0,3,.34,3.56,1a4.12,4.12,0,0,1,.81,2.66,4.63,4.63,0,0,1-.25,1.6A2.39,2.39,0,0,1,108.59,24a6.39,6.39,0,0,1-1.59.25l-1.75.06V17.16A8.63,8.63,0,0,1,106.22,17.12Zm122.22,2.29L231.19,26h-5.47Zm-85.35,0,2.75,6.65h-5.5Zm136,1.65c1.6,2.09,3.52,4.8,5.72,8.16a5.37,5.37,0,0,1-4.06,2.19,4.71,4.71,0,0,1-3.56-1.72A5.46,5.46,0,0,1,275.66,26a4.66,4.66,0,0,1,.9-2.59A8.12,8.12,0,0,1,279.12,21.09Zm63.29,8.35a1.71,1.71,0,0,0-1.72,1.72,1.73,1.73,0,0,0,.5,1.22,1.63,1.63,0,0,0,1.22.5,1.68,1.68,0,0,0,1.21-.5,1.61,1.61,0,0,0,.5-1.22,1.64,1.64,0,0,0-.5-1.22A1.61,1.61,0,0,0,342.41,29.44Z"/><rect id="rect2666" class="cls-2" width="360" height="45"/></g></svg>