<svg xmlns="http://www.w3.org/2000/svg" width="375" height="87.961" viewBox="0 0 375 87.961">
  <g id="Group_60" data-name="Group 60" transform="translate(0 -0.34)">
    <path id="Path_100" data-name="Path 100" d="M93.653,64.348v-38.2L77.4,50.9H77.06l-16.4-24.492V64.342H48.434V5.692H62.1L77.4,30.286,92.684,5.692h13.182V64.348ZM140.516,65c-15.627,0-24.885-8.712-24.885-25.794V5.692h12.2V38.881c0,9.456,5.064,14.325,12.837,14.325s12.822-4.686,12.822-13.923V5.692h12.219V38.8c.012,17.571-9.582,26.2-25.2,26.2m47.2-47.091V30.133h25.665V42.349H187.718v21.99H175.493V5.692h45.219V17.911ZM253.5,65.1c-18.1,0-30.345-12.714-30.345-29.889v-.171c0-16.5,12.669-30.057,30.27-30.057,10.473,0,16.692,2.808,22.74,8.007l-8.115,9.669c-4.446-3.7-8.244-5.9-14.955-5.9-9.33,0-16.509,8.241-16.509,18.1v.177c0,10.638,7.137,18.42,17.448,18.42a20.833,20.833,0,0,0,11.883-3.486V42.346H252.482V30.13h25.65V55.864C272.021,60.943,264.14,65.1,253.5,65.1" transform="translate(96.868 9.282)" fill="#fff"/>
    <path id="Path_101" data-name="Path 101" d="M79.875.34A43.561,43.561,0,0,0,61.929,4.168,43.981,43.981,0,1,0,43.98,88.3a44.14,44.14,0,0,0,17.949-3.81A43.988,43.988,0,1,0,79.875.34M61.929,84.076a39.761,39.761,0,1,1,39.756-39.75,39.76,39.76,0,0,1-39.756,39.75m18.282-39.75A18.285,18.285,0,1,1,61.929,26.02,18.29,18.29,0,0,1,80.211,44.326" transform="translate(0 0)" fill="#fff"/>
  </g>
</svg>
