<svg id="Layer_2" data-name="Layer 2" xmlns="http://www.w3.org/2000/svg" width="538.004" height="135.779" viewBox="0 0 538.004 135.779">
  <g id="Layer_1" data-name="Layer 1">
    <rect id="Rectangle_60" data-name="Rectangle 60" width="33.26" height="135.26" transform="translate(137.7)" fill="#fff"/>
    <rect id="Rectangle_61" data-name="Rectangle 61" width="33.26" height="79.68" transform="translate(91.8 55.58)" fill="#fff"/>
    <rect id="Rectangle_62" data-name="Rectangle 62" width="33.26" height="99.77" transform="translate(45.9 35.49)" fill="#fff"/>
    <rect id="Rectangle_63" data-name="Rectangle 63" width="33.26" height="65.62" transform="translate(0 69.64)" fill="#fff"/>
    <path id="Path_102" data-name="Path 102" d="M465.7,127.31a28.22,28.22,0,0,1-8.8-13.89,62.539,62.539,0,0,1-2.64-18.18,56.36,56.36,0,0,1,2.2-15.46,31.66,31.66,0,0,1,6.89-12.89A30.66,30.66,0,0,1,483,56.72a46.25,46.25,0,0,1,21.7,1.86,29.62,29.62,0,0,1,16.42,14.89q5,9.45,5,22a53.451,53.451,0,0,1-2.05,15.75,40,40,0,0,1-5.28,11.17,29.35,29.35,0,0,1-17.89,11.74,40.87,40.87,0,0,1-19.5.43Q471.57,132.46,465.7,127.31Zm14.08-50.4q-6.16,6.59-5.57,19.62t5,18.18q1.76,2.29,6.16,3.86a14.32,14.32,0,0,0,8.94.29q4.54-1.29,8.06-6.44t3.82-16.61q0-10.31-3.38-15.46T495,73.76a14.58,14.58,0,0,0-8.8-.14,15.39,15.39,0,0,0-6.42,3.29ZM263,62.57a44.15,44.15,0,0,0-23.75-6.75,45.49,45.49,0,0,0-23,7.33q-10.41,6.75-10.41,26.68v45.74h20.53V85.73q0-7,4.1-10.26a14.78,14.78,0,0,1,9.39-3.23,15.39,15.39,0,0,1,9.53,3.23q4.25,3.23,4.25,10.26v49.85h20.23V89.84Q273.89,69.32,263,62.57Zm175.66,0A44.15,44.15,0,0,0,415,55.82a45.51,45.51,0,0,0-23,7.33q-10.41,6.75-10.41,26.68v45.74H402V85.73q0-7,4.11-10.26a14.79,14.79,0,0,1,9.39-3.23,15.38,15.38,0,0,1,9.53,3.23q4.25,3.23,4.25,10.26v49.85h20.23V89.84q.04-20.52-10.81-27.27Zm-112.35,49.5q-3.52,5.16-8.06,6.44a14.32,14.32,0,0,1-8.94-.29q-4.4-1.57-6.16-3.87-4.4-5.15-5-18.18t5.57-19.61a15.36,15.36,0,0,1,6.45-3.29,14.56,14.56,0,0,1,8.79.14q4.4,1.44,7.77,6.59a16.59,16.59,0,0,1,1.66,3.44h20.42a41.392,41.392,0,0,0-3.75-10.31A29.63,29.63,0,0,0,328.7,58.24,46.26,46.26,0,0,0,307,56.38a30.66,30.66,0,0,0-19.65,10.16,31.65,31.65,0,0,0-6.89,12.89,56.37,56.37,0,0,0-2.2,15.46,62.52,62.52,0,0,0,2.64,18.18A28.24,28.24,0,0,0,289.7,127q5.86,5.15,15.69,7.3a40.84,40.84,0,0,0,19.5-.43,29.35,29.35,0,0,0,17.89-11.74,40,40,0,0,0,5.28-11.17q.5-1.62.88-3.4H328.47a17.4,17.4,0,0,1-2.11,4.51Zm37.76-56.38H353.56v80.07h20.52V65.66a10,10,0,0,0-10-10Zm1.05-6.46a11.17,11.17,0,0,1,7.76,2.93,10.941,10.941,0,0,1,1.15,1.26v-18h-10.5a10,10,0,0,0-10,10v3.87Z" fill="#fff"/>
    <path id="Path_103" data-name="Path 103" d="M538,128.36a7.21,7.21,0,1,1-7.14-7A7.07,7.07,0,0,1,538,128.36Zm-12.62,0a5.46,5.46,0,0,0,5.48,5.61,5.729,5.729,0,1,0-5.47-5.56ZM529.7,132h-1.63v-7a19.051,19.051,0,0,1,2.7-.21,3.73,3.73,0,0,1,2.4.56,1.77,1.77,0,0,1,.73,1.5,1.81,1.81,0,0,1-1.45,1.67v.09c.68.21,1,.77,1.24,1.71a6.23,6.23,0,0,0,.51,1.71h-1.71a5.539,5.539,0,0,1-.56-1.71c-.13-.73-.56-1.07-1.46-1.07h-.77Zm0-3.94h.77c.9,0,1.63-.3,1.63-1s-.47-1.07-1.5-1.07a3.89,3.89,0,0,0-.9.09Z" fill="#fff"/>
  </g>
</svg>
