<svg xmlns="http://www.w3.org/2000/svg" width="194.658" height="58.068" viewBox="0 0 194.658 58.068">
  <g id="Group_59" data-name="Group 59" transform="translate(-0.232 -0.047)">
    <path id="wordmark" d="M121.739,41.251A.408.408,0,0,0,121.27,41l-.061.017a1.743,1.743,0,0,1-1.342-.12c-.445-.3-.661-.966-.661-2.046V29.09c0-3.813-2.3-5.747-6.852-5.747-4.072,0-7.262,1.9-7.262,4.328A2.159,2.159,0,0,0,107,29.957a2.369,2.369,0,0,0,1.968-.78c1-1.041.873-2.282-.341-3.612a4.834,4.834,0,0,1,3.44-1.179c2.363,0,3.371,1.382,3.371,4.622v2.468c-.553.168-1.071.327-2.021.548a26.913,26.913,0,0,0-6.519,2.112,4.426,4.426,0,0,0-2.465,4.148c0,2.034,1.354,4.409,5.169,4.409,2.137,0,4.05-1,6.014-3.143.171,2.228,1.026,3.064,3.1,3.064a6,6,0,0,0,2.747-.683.533.533,0,0,0,.273-.679Zm-6.3-2.983c-.463.637-1.978,2.532-3.866,2.532-2.549,0-3.085-1.765-3.085-3.246,0-2.435,1.892-3.562,6.95-4.794Zm48.883,4.508a9.39,9.39,0,0,1-9.48-9.717,9.674,9.674,0,0,1,9.48-9.837,9.459,9.459,0,0,1,9.44,9.676A9.676,9.676,0,0,1,164.321,42.777Zm-.2-18.512c-2.335,0-5.017.991-5.017,8.714,0,5.892,1.762,8.755,5.386,8.755,3.467,0,5.015-2.7,5.015-8.755C169.5,27.116,167.739,24.264,164.117,24.264Zm-83.342-.693c0,4.494-1.122,6.968-6.864,6.968H70.868V16.963h3.167C79.975,16.963,80.775,20.3,80.775,23.572Zm-9.907,15.28V31.788h2.757c4.113,0,7.241-.857,9.3-2.551a7.024,7.024,0,0,0,2.6-5.584c0-6.457-6.316-7.812-11.616-7.812l.022,0H63.186a.44.44,0,0,0-.442.436V16.3a.521.521,0,0,0,.347.494c.958.348,3.558-.139,3.558,2.611V38.847c0,1.415-.636,2.414-3.542,2.685a.436.436,0,0,0-.4.432v.068a.436.436,0,0,0,.44.434H74.625a.438.438,0,0,0,.441-.434v-.06a.444.444,0,0,0-.412-.434c-3.157-.25-3.791-1.214-3.791-2.69V31.8Zm23.35-15.638c-5,0-9.065,4.463-9.065,9.951,0,5.555,3.813,9.587,9.065,9.587a8.711,8.711,0,0,0,7.792-4.556.433.433,0,0,0-.12-.583l-.059-.041a.448.448,0,0,0-.6.087c-1.623,2.007-3.043,3.169-5.5,3.169-3.1,0-6.416-2.108-6.416-8.027v-.043c-.006-.261,0-.619.01-.954H102.02a.065.065,0,0,0,.065-.062l.008-.1a7.408,7.408,0,0,0-7.874-8.428ZM89.4,30.557c.418-4.049,2.019-6.269,4.535-6.269a3.676,3.676,0,0,1,2.851,1.053c.907.97,1.291,2.725,1.14,5.216Zm57.434.217h0C143.356,29.812,142,28.84,142,27.305a3.089,3.089,0,0,1,3.346-3.018c2.28,0,3.257,1.076,5.665,5.046l.031.052a.093.093,0,0,0,.033.033h.353a.439.439,0,0,0,.441-.436V23.277a.1.1,0,0,0-.029-.064h-.473a.439.439,0,0,0-.339.159l-.769.921a9.217,9.217,0,0,0-4.134-1.08c-3.987,0-6.772,2.429-6.772,5.909,0,3.267,2.2,4.491,5.987,5.5,3.683.995,4.99,2.03,4.99,3.952,0,2.139-2.1,3.1-3.591,3.1-2.775,0-3.946-1.016-6.6-5.727l-.031-.056a.109.109,0,0,0-.033-.035h-.357a.44.44,0,0,0-.442.436v6.393a.066.066,0,0,0,.067.066h.451a.448.448,0,0,0,.312-.128l1.215-1.2a10.606,10.606,0,0,0,4.931,1.326,6.552,6.552,0,0,0,4.931-1.874,6.3,6.3,0,0,0,1.593-4.361C152.775,33.54,151.164,31.984,146.831,30.774Zm-21.006,9.4c0,.985-.253,1.308-1.844,1.407a.434.434,0,0,0,.029.867h7.855a.43.43,0,0,0,.016-.859c-1.817-.087-2.288-.377-2.288-1.415V28.809c1.293-2.121,2.221-3.232,3.791-3.567a3.311,3.311,0,0,0-.126.85,2.356,2.356,0,0,0,4.711,0,2.808,2.808,0,0,0-3.157-2.83c-1.909,0-3.734,1.08-5.3,3.664V24a.534.534,0,0,0-.551-.53l-4.949.132a.434.434,0,0,0-.428.434V24.1a.43.43,0,0,0,.367.428c1.65.23,1.878,1,1.876,1.808Zm54.328-16.71a.434.434,0,0,1,.3.124.422.422,0,0,1,.137.31l.016,3.24s1.613-3.8,6.844-3.8h.047c3.261,0,5.131,2.052,5.131,5.629V40.154c0,.985.255,1.308,1.844,1.407a.434.434,0,0,1-.027.867h-7.058a.439.439,0,0,1-.039-.877c1.283-.108,1.487-.428,1.487-1.4v-10.1c0-3.337-.962-4.634-3.428-4.634-1.668,0-3.032,1.434-3.883,2.638a8.09,8.09,0,0,0-.907,1.552l.051,10.541c0,.97.2,1.289,1.446,1.4a.44.44,0,0,1-.039.879h-7.015a.435.435,0,0,1-.027-.869c1.589-.1,1.843-.42,1.843-1.405V26.338c0-.805-.228-1.583-1.886-1.816a.434.434,0,0,1-.369-.43v-.064a.437.437,0,0,1,.43-.436Z" fill="#fff"/>
    <path id="thumbprint" d="M42.276,3.786c12.439,6.991,15.335,22.666,6.679,38.526-7.606,13.94-24.214,19.894-36.59,12.8s-14.793-26.9-9.474-38.3C10.616.263,28.533-3.941,42.276,3.786" fill="#fff"/>
    <path id="interrobang" d="M41.988,15.812a12.049,12.049,0,0,1,2.771,9.647,12.852,12.852,0,0,1-6.44,9.239A21.4,21.4,0,0,1,27.681,37.21c-.031.6-.151,2.65-.212,2.975a2.09,2.09,0,0,1-.467,1,3.518,3.518,0,0,1-1.827,1.067,5.993,5.993,0,0,1-1.509.225c-.065,0-.13-.006-.194-.012a1.774,1.774,0,0,1-1.642-1.711l-.031-.406c-.08-.348-.522-18.032-.438-17.717.065-2.119,3.532-2.487,5.414-2.114s1.409,2.634,1.358,5.412c0,0-.09,3.652-.265,7.512a14.631,14.631,0,0,0,6.093-1.639c3.6-1.765,5.512-4.469,5.512-8.451s-3.928-8.441-11.179-8.441-10.363,1.8-13.873,4.669c-.791.646-1.4,1.3-1.976,1.725s-2.109.494-2.518-.509c-.5-1.208.428-2.555.971-3.207a19.2,19.2,0,0,1,5.286-4.283,23.051,23.051,0,0,1,10.482-2.969c4.113-.1,10.608.226,15.286,5.439M26.263,45.09a2.979,2.979,0,0,0-1.232-.573,2.282,2.282,0,0,0-.443-.045,2.641,2.641,0,0,0-2.121,1.177,2.794,2.794,0,0,0-.5,2.054,2.279,2.279,0,0,0,.5,1.14,2.566,2.566,0,0,0,1.262.736,3.617,3.617,0,0,0,.952.132h0a2.886,2.886,0,0,0,1.815-.6,2.289,2.289,0,0,0,.869-1.833,2.824,2.824,0,0,0-1.107-2.191" fill="#8ab0f3"/>
  </g>
</svg>
