<svg xmlns="http://www.w3.org/2000/svg" width="1000" height="130.13" viewBox="0 0 1000 130.13">
  <g id="WHAT-WE-DO" transform="translate(0 0)">
    <g id="HOME" transform="translate(-225.45 -135.27)">
      <g id="LOGO-Copy" transform="translate(225.45 135.27)">
        <g id="logo-copy-2" data-name="logo-copy" transform="translate(0 30.06)">
          <path id="Fill-1" d="M34.35,34.756c7.954,0,10.273-4.368,10.273-7.937,0-2.779-1.71-7.639-8.357-7.639H27.2V34.756ZM71.315,75.143H50.464L35.055,45.568H27.2V63.732h8.563V75.143H0V63.732H9.371V19.18H0V7.763H42.61c13.293,0,20.545,8.632,20.545,18.856,0,7.743-3.826,13.194-11.786,16.769L62.45,63.732h8.865Z" fill="#fff" fill-rule="evenodd"/>
          <path id="Fill-3" d="M141.825,53.71h12.991V75.142H94.681V63.731h8.057V19.179H94.681V7.763h60.135V29.1H141.825V19.179H120.568V34.651H137.69V46.074H120.568V63.731h21.257Z" fill="#fff" fill-rule="evenodd"/>
          <path id="Fill-5" d="M216.863,63.731c13.6,0,19.943-8.632,19.943-22.026,0-14.491-7.249-22.526-20.548-22.526h-6.144V63.731Zm-34.952,0h10.373V19.179H181.911V7.763h35.761c12.385,0,20.948,2.284,27.9,9.133,6.847,6.745,9.767,15.478,9.767,24.709,0,17.461-10.978,33.538-32.734,33.538H181.911Z" fill="#fff" fill-rule="evenodd"/>
          <path id="Fill-7" d="M314.962,19.18V7.764H348.81V19.18h-7.857l11.381,33.729L364.019,19.18h-7.555V7.764h28.808V19.18h-8.06L357.369,75.635h-13.8L323.025,19.18Z" fill="#fff" fill-rule="evenodd"/>
          <path id="Fill-9" d="M455.981,53.71h12.994V75.142H408.84V63.731H416.9V19.179H408.84V7.763h60.135V29.1H455.981V19.179H434.728V34.651H451.85V46.074H434.728V63.731h21.254Z" fill="#fff" fill-rule="evenodd"/>
          <path id="Fill-11" d="M516.416,25.626h-.2V63.731h8.563V75.142H494.862V63.731h9.162V19.179h-9.162V7.763h28.608L548.55,49.84h.2V19.179h-8.865V7.763H570.6V19.179h-9.664V75.142H545.623Z" fill="#fff" fill-rule="evenodd"/>
          <path id="Fill-13" d="M657.838,34.855H645.952V19.181H635.676V63.732h10.276V75.143H607.576V63.732h10.27V19.181h-10.27V34.855H595.685V7.764h62.153Z" fill="#fff" fill-rule="evenodd"/>
          <path id="Fill-15" d="M682.41,7.763h31.832V19.179H708.3V53.415c0,6.643,2.019,11.107,8.865,11.107,5.745,0,9.471-2.874,9.471-10.513V19.179h-5.642V7.763h26.39V19.179h-8.56v37.7c0,15.675-13.9,19.053-23.575,19.053-13.4,0-24.777-5.054-24.777-21.531V19.179h-8.06Z" fill="#fff" fill-rule="evenodd"/>
          <path id="Fill-17" d="M806,34.756c7.957,0,10.27-4.368,10.27-7.937,0-2.779-1.713-7.639-8.36-7.639h-9.065V34.756ZM842.97,75.143H822.119L806.707,45.568h-7.857V63.732h8.56V75.143H771.654V63.732h9.365V19.18h-9.365V7.763h42.61c13.293,0,20.545,8.632,20.545,18.856,0,7.743-3.829,13.194-11.786,16.769L834.1,63.732h8.865Z" fill="#fff" fill-rule="evenodd"/>
          <path id="Fill-19" d="M913.475,53.71h12.994V75.142H866.337V63.731h8.06V19.179h-8.06V7.763h60.132V29.1H913.475V19.179H892.224V34.651h17.122V46.074H892.224V63.731h21.251Z" fill="#fff" fill-rule="evenodd"/>
          <g id="Group-23" transform="translate(952.047 4.546)">
            <path id="Fill-21" d="M2.623,47.669H14.206c-.2,7.245,4.534,12.215,10.478,12.215a7.388,7.388,0,0,0,7.552-7.245c0-12.308-30.316-10.621-30.316-31.752,0-13.1,9.967-18.364,18.433-18.364,5.339,0,9.667,2.081,12.488,6.258h.206V3.218h11.48V23.663H33.047c-.908-6.154-4.637-9.926-9.873-9.926-3.929,0-6.75,2.287-6.75,5.459,0,10.91,31.529,8.432,31.529,32.244,0,16.08-12.588,20.051-19.843,20.051-6.047,0-10.675-2.188-13.7-6.545h-.2V70.6H2.623Z" fill="#fff" fill-rule="evenodd"/>
          </g>
        </g>
        <path id="Fill-24" d="M286.322,130.13V0h-3.964V130.13Z" fill="#fff" fill-rule="evenodd"/>
      </g>
    </g>
  </g>
</svg>
