<svg id="WHAT-WE-DO" xmlns="http://www.w3.org/2000/svg" width="598.799" height="77.91" viewBox="0 0 598.799 77.91">
  <g id="HOME" transform="translate(0 0)">
    <g id="LOGO-Copy">
      <g id="logo-copy-2" data-name="logo-copy" transform="translate(0 22.23)">
        <path id="Fill-1" d="M20.569,17.71c4.763,0,6.151-2.615,6.151-4.752,0-1.664-1.024-4.574-5-4.574h-5.43V17.71ZM42.7,41.89H30.218L20.991,24.183h-4.7V35.058h5.127V41.89H0V35.058H5.611V8.385H0V1.55H25.515c7.96,0,12.3,5.168,12.3,11.289,0,4.636-2.291,7.9-7.057,10.04L37.4,35.058H42.7V41.89Z" transform="translate(0 -1.134)" fill="#fff" fill-rule="evenodd"/>
        <path id="Fill-3" d="M18.9,35.058h4.825V8.385H18.9V1.549H54.907V14.322H47.128V8.385H34.4v9.263H44.652v6.839H34.4V35.058H47.128v-6h7.779V41.89H18.9Z" transform="translate(37.796 -1.134)" fill="#fff" fill-rule="evenodd"/>
        <path id="Fill-5" d="M57.239,35.058c8.143,0,11.942-5.168,11.942-13.187,0-8.676-4.341-13.487-12.3-13.487H53.2V35.058Zm-20.93,0h6.211V8.385H36.31V1.549H57.723c7.416,0,12.544,1.367,16.707,5.468a20.164,20.164,0,0,1,5.849,14.793c0,10.454-6.574,20.079-19.6,20.079H36.31Z" transform="translate(72.619 -1.134)" fill="#fff" fill-rule="evenodd"/>
        <path id="Fill-7" d="M67.695,8.385H62.867V1.55H83.135V8.385h-4.7l6.815,20.194,7-20.194H87.718V1.55h17.25V8.385h-4.826L88.26,42.185H80Z" transform="translate(125.732 -1.134)" fill="#fff" fill-rule="evenodd"/>
        <path id="Fill-9" d="M81.6,35.058h4.825V8.385H81.6V1.549h36.009V14.322h-7.781V8.385H97.106v9.263h10.253v6.839H97.106V35.058h12.727v-6h7.781V41.89H81.6Z" transform="translate(163.209 -1.134)" fill="#fff" fill-rule="evenodd"/>
        <path id="Fill-11" d="M98.775,35.058h5.486V8.385H98.775V1.549h17.131l15.018,25.192h.12V8.385h-5.308V1.549h18.394V8.385h-5.787V41.89h-9.171l-17.49-29.646h-.12V35.058h5.127V41.89H98.775Z" transform="translate(197.548 -1.134)" fill="#fff" fill-rule="evenodd"/>
        <path id="Fill-13" d="M156.117,17.769H149V8.385h-6.153V35.059H149V41.89H126.02V35.059h6.15V8.385h-6.15v9.385H118.9V1.55h37.217Z" transform="translate(237.797 -1.134)" fill="#fff" fill-rule="evenodd"/>
        <path id="Fill-15" d="M136.21,1.549H155.27V8.385h-3.56v20.5c0,3.977,1.209,6.65,5.308,6.65,3.44,0,5.671-1.721,5.671-6.294V8.385h-3.378V1.549h15.8V8.385h-5.125V30.958c0,9.385-8.324,11.407-14.117,11.407-8.022,0-14.836-3.026-14.836-12.891V8.385H136.21Z" transform="translate(272.417 -1.134)" fill="#fff" fill-rule="evenodd"/>
        <path id="Fill-17" d="M174.592,17.71c4.765,0,6.15-2.615,6.15-4.752,0-1.664-1.026-4.574-5.006-4.574h-5.428V17.71Zm22.135,24.18H184.241l-9.229-17.707h-4.7V35.058h5.125V41.89h-21.41V35.058h5.608V8.385h-5.608V1.55h25.515c7.96,0,12.3,5.168,12.3,11.289,0,4.636-2.293,7.9-7.057,10.04l6.635,12.18h5.308Z" transform="translate(308.043 -1.134)" fill="#fff" fill-rule="evenodd"/>
        <path id="Fill-19" d="M172.921,35.058h4.826V8.385h-4.826V1.549h36.007V14.322h-7.781V8.385H188.423v9.263h10.253v6.839H188.423V35.058h12.725v-6h7.781V41.89H172.921Z" transform="translate(345.84 -1.134)" fill="#fff" fill-rule="evenodd"/>
        <g id="Group-23" transform="translate(571.235)">
          <path id="Fill-21" d="M.8,27.533H7.74c-.12,4.338,2.715,7.314,6.274,7.314a4.423,4.423,0,0,0,4.522-4.338C18.536,23.139.383,24.15.383,11.5.383,3.654,6.352.5,11.421.5A8.553,8.553,0,0,1,18.9,4.251h.123V.92H25.9V13.16H19.022c-.544-3.684-2.777-5.943-5.912-5.943-2.352,0-4.042,1.369-4.042,3.269,0,6.532,18.88,5.048,18.88,19.3,0,9.627-7.538,12-11.882,12-3.621,0-6.392-1.31-8.2-3.918H7.74V41.26H.8Z" transform="translate(-0.383 -0.504)" fill="#fff" fill-rule="evenodd"/>
        </g>
      </g>
      <path id="Fill-24" d="M56.359,77.91h2.374V0H56.359Z" transform="translate(112.717 0)" fill="#fff" fill-rule="evenodd"/>
    </g>
  </g>
</svg>
