<svg xmlns="http://www.w3.org/2000/svg" width="1276.199" height="739.352" viewBox="0 0 1276.199 739.352">
  <g id="Group_58" data-name="Group 58" transform="translate(-0.381 -0.549)">
    <path id="Path_97" data-name="Path 97" d="M58.7,300.126c-21.54,0-40.985-2.37-58.32-19.7L22.715,258.1c11.29,11.295,26,12.87,36.5,12.87,11.825,0,24.17-3.94,24.17-14.18,0-6.83-3.675-11.555-14.445-12.615l-21.54-2.1c-24.685-2.365-39.92-13.13-39.92-38.344,0-28.369,24.955-43.6,52.79-43.6,21.275,0,39.14,3.675,52.27,16.015L91.53,197.429c-7.88-7.09-19.965-9.2-31.785-9.2-13.655,0-19.43,6.31-19.43,13.135,0,5,2.095,10.775,14.18,11.825l21.535,2.1c27.055,2.62,40.72,17.07,40.72,40.179,0,30.209-25.74,44.649-58.05,44.649Zm117.65-1.575c-27.835,0-39.655-19.7-39.655-39.139V191.649h-14.45v-26H136.7V125.2H170.84V165.65H195v26H170.84v65.668c0,7.875,3.675,12.34,11.82,12.34H195v28.894h-18.65Zm34.35,0h34.15V161.7H210.7Zm-.525-160.221h34.94V110.5h-34.94Zm111.84,161.8c-27.32,0-61.2-14.71-61.2-70.133s33.88-69.863,61.2-69.863c18.9,0,33.09,5.78,45.175,18.39l-23.115,23.114c-7.09-7.615-13.13-10.77-22.06-10.77-8.15,0-14.45,2.885-19.44,8.925-5.25,6.57-7.615,15.765-7.615,30.2s2.365,23.9,7.615,30.474c4.99,6.045,11.29,8.93,19.44,8.93,8.93,0,14.97-3.15,22.06-10.77l23.115,22.849c-12.085,12.6-26.27,18.649-45.175,18.649Zm139.375-1.575-33.62-57-14.44,16.285v40.714H379.18V111.546h34.15V217.653L458.77,161.7h41.24l-48.86,55.164,52.535,81.683h-42.3Zm70.8-57.784c0,17.6,10.765,30.464,29.95,30.464,14.965,0,22.32-4.2,30.99-12.865l20.75,20.224c-13.915,13.915-27.31,21.535-52,21.535-32.315,0-63.3-14.71-63.3-70.133,0-44.649,24.16-69.863,59.62-69.863,38.08,0,59.62,27.844,59.62,65.4v15.24H532.195Zm48.855-38.084c-3.67-8.145-11.285-14.19-22.85-14.19s-19.17,6.045-22.85,14.19a37.689,37.689,0,0,0-3.15,14.7h52.01A37.6,37.6,0,0,0,581.045,202.684ZM708.375,199c-5.25-5.255-9.715-8.14-18.125-8.14-10.51,0-22.075,7.885-22.075,25.219v82.468h-34.14V161.7H667.39v13.14c6.57-7.885,19.71-14.715,34.415-14.715,13.4,0,22.85,3.415,32.3,12.88l-25.735,26Z" transform="translate(0 439.773)" fill="#fff"/>
    <path id="Path_98" data-name="Path 98" d="M293.6,159.29c-17.08,0-29.42,5.255-40.975,17.34-8.67-11.82-21.015-17.34-36.24-17.34a47.875,47.875,0,0,0-34.15,14.185v-12.6h-33.36V297.711h34.14V214.973c0-18.65,12.085-24.954,22.855-24.954s22.59,6.3,22.59,24.949v82.738h34.15V214.183c0-17.865,12.34-24.164,22.84-24.164,10.775,0,22.6,6.3,22.6,24.949v82.738h34.15V210.244c0-14.975-3.94-27.849-14.98-38.874-7.615-7.615-19.96-12.085-33.615-12.085ZM442,243.608c0,18.645-12.08,24.949-22.85,24.949s-22.585-6.3-22.585-24.949V160.87h-34.15v87.468c0,14.96,2.9,27.834,13.925,38.869,7.61,7.615,18.65,12.08,32.3,12.08,12.61,0,25.215-4.725,34.14-14.18v12.6h33.365V160.875H442v82.738Zm90.035,12.87V110.706h-34.15V258.572c0,19.44,11.83,39.139,39.925,39.139h19.44V268.817H544.114C535.454,268.817,532.034,264.617,532.034,256.477ZM682.6,224.688c0-37.554-21.535-65.4-59.625-65.4-35.46,0-59.62,25.219-59.62,69.863,0,55.424,31,70.133,63.3,70.133,24.685,0,38.085-7.62,52-21.535l-20.745-20.224c-8.67,8.665-16.025,12.865-30.995,12.865-19.175,0-29.94-12.865-29.94-30.464H682.6v-15.24Zm-85.62-8.14a37.694,37.694,0,0,1,3.145-14.7c3.675-8.145,11.3-14.19,22.85-14.19s19.175,6.045,22.855,14.19a37.691,37.691,0,0,1,3.15,14.7h-52Z" transform="translate(593.976 440.613)" fill="#fff"/>
    <path id="Path_99" data-name="Path 99" d="M415.184,511.315c-4.81,2.31-11.38,1.795-18.175,2-5.85.155-14.035.28-17.435-2.73-1.85-1.63-2.385-5.175-2.5-7.24a36.682,36.682,0,0,1,.99-8.225c.62-3.255,1.27-7.42,0-9.215-1.465-2.075-6.7-1.2-9.465-2.75-2.95-1.63-3.77-5.565-4.715-9.955-.31-1.39-1.125-2.65-1.27-3.74-.82-6.73,1.44-15.76,2.985-22.674,1.65-7.31,3.785-14.155,4.99-20.939a137.956,137.956,0,0,0,1.75-32.384c-.36-5.51-1.1-9.845-.25-14.45.8-4.31,2.6-7.9,3.485-12.2.275-1.375.065-3,.25-4.495.185-1.315.94-2.4,1.005-3.48.15-2.885-.77-6.375-1-9.97-.61-9.61.125-23.154.755-31.4.205-2.855,1.55-6.135-.505-7.465-9.985-.15-19.1,1.8-28.41,2.985-25.05,3.2-56.565,3.62-80.735-1.245-2.285-.46-4.575-.515-6.715-1-17.145-3.94-32.9-11.31-45.1-20.929-1.88-1.48-4.115-3.095-6.225-4.725-2.07-1.6-4.285-3.835-6.235-4.735-9.76-4.53-22.7.69-26.65,6.975-1.59,2.51-2.715,5.745-4.24,8.715-1.455,2.85-2.73,5.865-3.985,8.735-6.44,14.73-13.7,28.784-20.18,43.6-3.74,8.54-7.915,18.06-10.72,27.649-5.935,20.359-.4,47.629,4.25,66.778.41,1.75,1.35,3.5,1.99,5.475,1.465,4.635,4.605,10.785,8.22,13.96,1.885,1.65,5.09,2.64,7.22,4.49,2.68,2.285,4.665,6.835,6.725,10.7.865,1.62,2.07,3.45,3.24,5.48,2.48,4.3,3.33,8.155-1.5,10.71-3.625,1.925-9.125,2.42-14.2,2.735-2.32.59-1.585,3.7-2.99,5.235-.79.87-4.21,2.24-5.98,2.75-6.685,1.935-17.975,1.8-23.18,0-2.6-.92-5.565-2.915-6.22-4.985-1.29-4.075,1.91-9.225-1-12.465-1.27-1.39-4.045-1.15-6.485-2.23a16.862,16.862,0,0,1-8.47-8.985c-3.98-10.035-1.51-25.8-1.985-38.114-.135-3.595-.62-7.45-.745-11.465-.24-7.3-1.96-14.47-2.74-21.679-.4-3.51-1.55-6.5-2.24-9.7-1.145-5.16-2.01-10.725-3.49-15.955-1.65-5.74-1.69-11.33.25-16.19.535-1.36,1.965-2.62,2.735-4.5a22.444,22.444,0,0,0,1.49-8.71c-.845-1.47-4.34-.315-5.235-1.735-2.08-15.75-4.45-31.609-5.725-48.089-.42-5.5-.44-11.25-1.005-16.945-1.08-11.265-.175-22.724-1.23-33.629-.53-5.32-1.83-10.315-2.5-15.46-1.9-14.45-5.93-33-2.985-48.079a55.606,55.606,0,0,1,10.965-24.664,127.707,127.707,0,0,1,27.41-26.414c3.365-2.43,6.935-5.255,10.71-6.975a84.8,84.8,0,0,1,30.64-7.735c11.48-.495,24.48-.56,35.885,1.5,10.88,1.97,21.7,3.88,32.385,5.98,10.47,2.05,20.735,4.9,30.65,7.47,1.275.335,2.375,1.125,3.735,1.5,3.155.86,6.735,1.045,10.22,1.985,9.225,2.515,21.38,3.75,32.64,3.75,12.24,0,23.285-.335,33.39-2.75a34.69,34.69,0,0,0,4.225-1.74c1.6-.615,3.515-.49,4.99-1,1-.35,2.08-1.44,3.24-1.99a105.972,105.972,0,0,0,15.94-9.215c4.11-2.885,7.48-5.35,12.95-7.48,2.425-.945,4.875-2.245,7.235-2.99,5.165-1.635,10.755-3.18,14.71-5.73,6.2-3.98,10.775-9.695,15.935-14.2q8.068-7.037,16.45-13.7c11.44-9.125,23.075-17.464,33.875-26.164a136.512,136.512,0,0,1,17.95-12.21c12.56-7.17,25.285-15.62,43.34-16.94a104.924,104.924,0,0,1,21.69.245c1.97.275,4.675,1.375,6.47.995,1.985-.42,3.43-3.415,4.73-5.725a108.756,108.756,0,0,0,6.985-13.71c1.46-3.565.85-7.1,4.48-6.975,3.7.14,3.075,9.615,3.24,13.21.2,4.35-.53,10.185.25,13.2.53,2.09,3.31,5.175,6.23,5.235,2,.035,3.34-1.62,5.23-2.75,1.95-1.135,3.755-1.8,4.98-2.73a92.4,92.4,0,0,0,9.465-8.975c2.47-2.535,6.33-8.48,10.485-7.965,7.075.85.05,11.285-1.515,14.69-3.7,8.165-7.27,14.25-11.445,21.929-1.735,3.175-5.73,7.445-5.75,10.725,0,2.3,1.99,3.84,3,6.225.485,1.135.76,2.355,1.255,3.475,2.43,5.65,4.28,13.57,6.23,20.184,1.63,5.575,2.97,11.455,4.98,16.95,1.965,5.365,4.8,10.41,6.98,15.685.565,1.385.68,3.08,1.25,4.495,4.555,11.635,8.95,24.909,14.42,36.134,2.24,4.545,5.28,10.215,5.26,16.945-.05,7.41-3.9,10.95-7.245,16.435-1.745,2.9-4.325,7.315-6.965,8.225-1.96.67-4.235-.035-6.22.24-2.8.39-4.75,2.2-7.235,2.5-6.78.78-12.85-4.5-14.71-9.47-.615-1.68-.34-3.97-.73-5.98-1.62-8.085-5.535-11.995-11.2-17.195-3.625-3.3-6.4-5.845-10.975-8.225-6.36-3.3-13.45-5.34-20.18-8.97-2.485-1.33-5.6-2.655-7.735-2.235-3.6.71-7.2,6.55-9.95,10.22-17.6,23.174-33.135,46.989-50.35,69.768-11.365,15.05-23.52,30.339-32.64,47.579-2.285,4.33-3.65,9.39-5.48,14.45-1.77,4.945-2.625,10.43-4.485,15.7-6.62,18.95-8.68,42-14.68,61.788-.64,2.075-.88,4.465-1.51,6.72-2.76,10.1-5.53,21.674-8.715,32.394-2.38,7.99-3.1,18.775-3.5,29.4-.365,9.845-.84,23.874,2.75,30.129,1.89,3.33,8.65,4.54,11.22,7.99,1.76,2.385,2.95,7.07,4.725,10.215,1.225,2.175,4.75,6.82,4.485,10.2-.2,2.54-2.355,4.325-4.245,5.24-2.09,1.03-5.19.4-7.21,1.5-2.25,1.225-1.18,3.97-3.505,5.475" transform="translate(286.721 0)" fill="#fff"/>
  </g>
</svg>
