<svg id="Symbols" xmlns="http://www.w3.org/2000/svg" width="464" height="100" viewBox="0 0 464 100">
  <g id="Group" transform="translate(0 0)">
    <g id="mark">
      <path id="Fill-1" d="M81.83,29.52A49.19,49.19,0,0,0,36.99,0,47.832,47.832,0,0,0,22.132,2.364l4.08,8.779A38.659,38.659,0,0,1,36.99,9.606a39.162,39.162,0,0,1,20.525,5.853L46.59,54.981,34.8,29.69,24.424,55.1l-7.587-18.1-4.7,10.177L23.82,75.145,34.849,50.3l13.885,30.24,18.578-56.6a40.325,40.325,0,0,1,5.907,9.514,40.792,40.792,0,0,1,.9,30.9A40.024,40.024,0,0,1,59.675,83.174l4.08,8.781A49.453,49.453,0,0,0,82.94,67.769,50.487,50.487,0,0,0,81.83,29.52" transform="translate(12.137 0)" fill="#fff" fill-rule="evenodd"/>
      <path id="Fill-4" d="M64.045,84.6a39.468,39.468,0,0,1-51.1-20.877,40.8,40.8,0,0,1-.9-30.9A39.87,39.87,0,0,1,30.467,11.55L26.46,2.835A49.368,49.368,0,0,0,3.23,29.413,50.483,50.483,0,0,0,4.341,67.662a49.141,49.141,0,0,0,44.885,29.5,48.057,48.057,0,0,0,18.817-3.86Z" transform="translate(0 2.835)" fill="#fff" fill-rule="evenodd"/>
    </g>
    <g id="willowtree" transform="translate(123.43 37.751)">
      <path id="Fill-6" d="M23.557,17.07,17.959.192H15.244L9.615,17.1,3.985.192H0l8.129,24.5h2.752L16.543,7.812l5.6,16.879h2.787L33.172.192H29.219Z" transform="translate(0 0.192)" fill="#fff" fill-rule="evenodd"/>
      <path id="Fill-8" d="M24.188,24.689h3.886V.193H24.188Z" transform="translate(24.188 0.193)" fill="#fff" fill-rule="evenodd"/>
      <path id="Fill-10" d="M38.561.191H34.68v24.5H49.8V21.366H38.561Z" transform="translate(34.68 0.191)" fill="#fff" fill-rule="evenodd"/>
      <path id="Fill-11" d="M53.74.191H49.86v24.5H64.981V21.366H53.74Z" transform="translate(49.86 0.191)" fill="#fff" fill-rule="evenodd"/>
      <path id="Fill-12" d="M86.711,12.571a9.286,9.286,0,0,1-.743,3.756,8.955,8.955,0,0,1-2.041,2.923,9.228,9.228,0,0,1-3,1.91,10.265,10.265,0,0,1-7.388-.015,9.488,9.488,0,0,1-3.027-1.926A9.006,9.006,0,0,1,67.734,12.6a9.339,9.339,0,0,1,.71-3.653A8.912,8.912,0,0,1,70.416,6.04,9.082,9.082,0,0,1,73.4,4.118a10.07,10.07,0,0,1,3.774-.695A10.319,10.319,0,0,1,81,4.118a9.28,9.28,0,0,1,3.019,1.926A8.8,8.8,0,0,1,86,8.933a9.211,9.211,0,0,1,.711,3.638m.059-8.929A13.142,13.142,0,0,0,82.527.973,14.52,14.52,0,0,0,77.173,0a14.056,14.056,0,0,0-5.238.976A13.112,13.112,0,0,0,67.71,3.643,12.366,12.366,0,0,0,64.9,7.629,12.217,12.217,0,0,0,63.885,12.6a12.114,12.114,0,0,0,1.038,5.018,12.6,12.6,0,0,0,2.838,4.021,13.1,13.1,0,0,0,4.244,2.67,14.352,14.352,0,0,0,5.235.953,14.011,14.011,0,0,0,5.2-.973,13.159,13.159,0,0,0,4.24-2.681,12.681,12.681,0,0,0,2.844-4.02A12.16,12.16,0,0,0,90.565,12.6a12.4,12.4,0,0,0-1-4.95A12.143,12.143,0,0,0,86.77,3.643" transform="translate(63.885)" fill="#fff" fill-rule="evenodd"/>
      <path id="Fill-13" d="M113.248.191h-1.431L106.156,17.07,100.558.191H97.843L92.213,17.1,86.583.191H82.6l8.129,24.5h2.75L99.14,7.812l5.6,16.88h2.787L114.65,3.52h16.821V24.691h3.916V3.52h7.687L144.62.191H113.248Z" transform="translate(82.599 0.191)" fill="#fff" fill-rule="evenodd"/>
      <path id="Fill-14" d="M131.935,5.872a3.063,3.063,0,0,1,.38,1.513,3.918,3.918,0,0,1-.4,1.831,3.643,3.643,0,0,1-1.126,1.278,5.817,5.817,0,0,1-1.792.82,8.565,8.565,0,0,1-2.272.292h-3.7V3.52h3.953a7.742,7.742,0,0,1,2.22.3,5.047,5.047,0,0,1,1.674.824,3.9,3.9,0,0,1,1.065,1.225m-1.2,8.358a9.222,9.222,0,0,0,2.838-1.464,7.5,7.5,0,0,0,1.98-2.3,6.182,6.182,0,0,0,.751-3.019,6.372,6.372,0,0,0-.706-2.973,7.051,7.051,0,0,0-1.948-2.31A9.108,9.108,0,0,0,130.785.7a11.809,11.809,0,0,0-3.517-.51h-8.126v24.5h3.881V14.654l10.154,10.038h5.178l-10.142-9.985a11.1,11.1,0,0,0,2.52-.477" transform="translate(119.142 0.191)" fill="#fff" fill-rule="evenodd"/>
      <path id="Fill-15" d="M139.862,13.882H150.7V10.554H139.862V3.52h11.568V.191H135.981v24.5h16.143V21.367H139.862Z" transform="translate(135.981 0.191)" fill="#fff" fill-rule="evenodd"/>
      <path id="Fill-16" d="M155.991,13.882h10.841V10.554H155.991V3.52h11.571V.191H152.11v24.5h16.143V21.367H155.991Z" transform="translate(152.11 0.191)" fill="#fff" fill-rule="evenodd"/>
      <path id="Fill-17" d="M170.939,4.13a.921.921,0,0,1-.615.2h-.713V2.951h.817a.744.744,0,0,1,.3.057.78.78,0,0,1,.243.155.528.528,0,0,1,.145.209.473.473,0,0,1,.049.21.672.672,0,0,1-.225.549M173.9,6.249a3.749,3.749,0,0,1-.846,1.175c-.011.012-.024.023-.036.035l-2.053-2.224a1.755,1.755,0,0,0,.308-.091,1.753,1.753,0,0,0,.95-.885,1.588,1.588,0,0,0,.138-.655,1.723,1.723,0,0,0-.132-.671,1.6,1.6,0,0,0-.387-.548,1.843,1.843,0,0,0-.6-.364,2.177,2.177,0,0,0-.762-.133h-2.039V7.482h1.174V5.356l1.874,2.068.051.057h1.456a4.066,4.066,0,0,1-5.477-.058,3.765,3.765,0,0,1-.845-1.175,3.511,3.511,0,0,1,0-2.886,3.8,3.8,0,0,1,.845-1.182,4.077,4.077,0,0,1,1.248-.8,4.118,4.118,0,0,1,3.045,0,4.058,4.058,0,0,1,1.247.8,3.8,3.8,0,0,1,.846,1.182,3.535,3.535,0,0,1,0,2.886m.954-3.282a4.8,4.8,0,0,0-1.063-1.492,5.181,5.181,0,0,0-1.58-1.011,5.232,5.232,0,0,0-3.855,0,5.094,5.094,0,0,0-1.574,1.009,4.682,4.682,0,0,0-1.067,1.493,4.466,4.466,0,0,0,0,3.651,4.734,4.734,0,0,0,1.067,1.5,5.017,5.017,0,0,0,1.575,1.007,5.144,5.144,0,0,0,5.435-1.007,4.851,4.851,0,0,0,1.062-1.5,4.478,4.478,0,0,0,0-3.651" transform="translate(165.326 0.096)" fill="#fff" fill-rule="evenodd"/>
    </g>
  </g>
</svg>
