<?xml version="1.0" encoding="utf-8"?>
<!-- Generator: Adobe Illustrator 24.1.1, SVG Export Plug-In . SVG Version: 6.00 Build 0)  -->
<svg version="1.1" id="Layer_1" xmlns="http://www.w3.org/2000/svg" xmlns:xlink="http://www.w3.org/1999/xlink" x="0px" y="0px"
	 viewBox="0 0 815.7 360" style="enable-background:new 0 0 815.7 360;" xml:space="preserve">
<style type="text/css">
	.st0{opacity:0.17;}
	.st1{fill:url(#SVGID_1_);}
	.st2{fill:url(#SVGID_2_);}
	.st3{fill:url(#SVGID_3_);}
	.st4{fill:url(#SVGID_4_);}
	.st5{opacity:0.25;}
	.st6{fill:#1A4530;}
	.st7{opacity:0.11;}
	.st8{fill:#121B11;}
	.st9{opacity:0.5;}
	.st10{fill:#092605;}
	.st11{fill:none;}
	.st12{fill:url(#SVGID_5_);}
	.st13{fill:url(#SVGID_6_);}
	.st14{fill:url(#SVGID_7_);}
	.st15{fill:url(#SVGID_8_);}
	.st16{opacity:0.31;}
	.st17{fill:url(#SVGID_9_);}
	.st18{fill:url(#SVGID_10_);}
	.st19{fill:url(#SVGID_11_);}
</style>
<g class="st0">
	
		<linearGradient id="SVGID_1_" gradientUnits="userSpaceOnUse" x1="-133.7834" y1="283.7" x2="330.7007" y2="283.7" gradientTransform="matrix(1 0 0 1 0 2)">
		<stop  offset="0" style="stop-color:#D45DA4;stop-opacity:0.2"/>
		<stop  offset="0.32" style="stop-color:#B36A96;stop-opacity:0.16"/>
		<stop  offset="0.86" style="stop-color:#618073;stop-opacity:4.000000e-02"/>
		<stop  offset="0.99" style="stop-color:#557D65;stop-opacity:0"/>
	</linearGradient>
	<path class="st1" d="M-172.9-5.7C-106.6,71.9-42.7,150.9,19,231.4S139.9,393.8,196.7,477c31.9,46.7,63,93.8,93.4,141.4
		c5.6,8.9,16.6,16.1,27.6,18.8s25.8,1.5,35.6-4.1c21.2-12.2,29.3-36.1,16.6-56c-54.1-84.7-110.6-168-169.6-250.1S79.9,164.2,16.2,85
		C-19.5,40.5-56-3.5-93.2-47c-7.6-8.9-15-15.8-27.6-18.8c-11-2.7-25.8-1.5-35.6,4.1s-18.5,14-21.2,24.5
		C-180.1-27.2-180.2-14.2-172.9-5.7L-172.9-5.7z"/>
	
		<linearGradient id="SVGID_2_" gradientUnits="userSpaceOnUse" x1="-87.2865" y1="238.1081" x2="699.6223" y2="238.1081" gradientTransform="matrix(1 0 0 1 0 2)">
		<stop  offset="0" style="stop-color:#D45DA4;stop-opacity:0.2"/>
		<stop  offset="0.32" style="stop-color:#B36A96;stop-opacity:0.16"/>
		<stop  offset="0.86" style="stop-color:#618073;stop-opacity:4.000000e-02"/>
		<stop  offset="0.99" style="stop-color:#557D65;stop-opacity:0"/>
	</linearGradient>
	<path class="st2" d="M-110.1-4.3c75.9,47.5,150.9,96.1,224.9,145.9c20.9,14.1,41.7,28.2,62.5,42.4l-9.3-6.4
		c67,46,133.2,92.9,198.6,140.7c65.1,47.6,129.4,96.1,192.8,145.5c36,28,71.6,56.3,107,84.9c9,7.3,20.3,12,32.7,12
		c11.3,0,24.8-4.5,32.7-12c8.1-7.8,14.1-18.1,13.5-29c-0.5-10.6-4.4-21.6-13.5-29C634.2,412,534.5,335.5,432.8,261
		C329,185.1,223.3,111.5,115.5,40.2C56.5,1.1-3.2-37.3-63.4-75c-9.3-5.8-25-6.7-35.6-4.1s-22.3,10-27.6,18.8
		c-5.6,9.5-8.5,21-4.7,31.6C-127.4-18.2-120.3-10.7-110.1-4.3L-110.1-4.3z"/>
	
		<linearGradient id="SVGID_3_" gradientUnits="userSpaceOnUse" x1="-140.1264" y1="79.5908" x2="930.1462" y2="79.5908" gradientTransform="matrix(1 0 0 1 0 2)">
		<stop  offset="0" style="stop-color:#D45DA4;stop-opacity:0.2"/>
		<stop  offset="0.32" style="stop-color:#B36A96;stop-opacity:0.16"/>
		<stop  offset="0.86" style="stop-color:#618073;stop-opacity:4.000000e-02"/>
		<stop  offset="0.99" style="stop-color:#557D65;stop-opacity:0"/>
	</linearGradient>
	<path class="st3" d="M-140.1-35.2c9,0,18.1,0.5,27,1.6l-12.3-1.5c35,4.5,68.4,15.9,101.7,26.2C10.6,1.8,44.7,12.6,78.8,23.5
		c67.6,21.6,134.9,43.6,202.3,65.6c134.7,43.9,269.5,87.6,405.8,127.4c76.4,22.3,153.2,43.3,230.7,62.5c12,2.8,24.8,1.3,35.6-4.1
		c9.6-5,18.7-14.7,21.2-24.5c5.6-21.7-7.3-44.2-32.2-50.4c-71.2-17.5-141.9-36.7-212.1-57c-69.9-20.2-139.4-41.5-208.8-63.4
		c-69.6-22-139.1-44.5-208.4-67.2S174-32.9,104.4-55.2C69.6-66.3,34.8-77.3-0.1-88.2c-17.2-5.3-34.3-10.8-51.6-15.6
		c-20.4-5.6-41.2-9.6-62.4-11.9c-8.6-1-17.3-1.5-26-1.5c-12.2,0.1-23.9,4.4-32.7,12c-8,7.1-14,18.8-13.5,29
		C-185.1-54.1-166-35.1-140.1-35.2L-140.1-35.2z"/>
</g>
<radialGradient id="SVGID_4_" cx="535.8278" cy="182.17" r="339.45" gradientTransform="matrix(1.1462 0 0 1 -203.7827 2)" gradientUnits="userSpaceOnUse">
	<stop  offset="0" style="stop-color:#758A80"/>
	<stop  offset="6.000000e-02" style="stop-color:#6E8672"/>
	<stop  offset="0.28" style="stop-color:#557D65"/>
	<stop  offset="1" style="stop-color:#091E05"/>
</radialGradient>
<rect x="-1.1" class="st4" width="819.4" height="361"/>
<g class="st5">
	<path class="st6" d="M235.9-55.1c-6.4,24.8-8,50.6-10.1,75.9c-2.1,24.9-3.6,49.8-4.9,74.7c-2.6,50.1-4.3,100.3-8.1,150.4
		c-2.1,28.1-4.8,56.2-8.7,84.2c-0.9,6.7,7.1,12.5,14.1,12.5c8.4,0,13.2-5.8,14.1-12.5c13.4-98.4,13.1-197.7,20.6-296.5
		c2.1-27.3,3.2-55.3,10.1-82c1.7-6.6-2.3-13.5-9.8-15.4C246.1-65.5,237.6-61.7,235.9-55.1L235.9-55.1z"/>
</g>
<g class="st5">
	<path class="st6" d="M535.8-72.7l35.6,273.1l10.1,77.2c1.1,8.8,8,17.4,19.2,17c9.4-0.4,20.4-7.5,19.2-17l-35.7-273l-10.1-77.2
		c-1.1-8.8-8-17.4-19.2-17C545.6-89.3,534.6-82.1,535.8-72.7L535.8-72.7z"/>
</g>
<g class="st5">
	<path class="st6" d="M354.4-71.7c-1.8,52.4-5.3,104.7-10.4,157c-2.5,25.5-5.3,50.9-8.6,76.3c-3.4,26.1-6.9,50.8-10.8,75.4
		c-4.7,29.2-9.9,58.3-15.6,87.4c-1.7,8.7,2.6,18.7,13.4,20.9c9.3,1.9,21.7-2.5,23.6-11.9c20.6-104.8,34.6-210.6,42.1-316.8
		c2.1-29.4,3.6-58.9,4.6-88.4c0.3-8.9-9-17.4-19.2-17C362.9-88.3,354.8-81.2,354.4-71.7z"/>
</g>
<g class="st7">
	<path class="st8" d="M305.8-56.2c1.5,101.3-3.4,202.6-14.8,303.5c-3.3,28.8-7,57.6-11.3,86.3c-0.6,3.8,4,7,7.9,7
		c4.7,0,7.3-3.3,7.9-7c15-100.4,23.7-201.6,25.8-302.9c0.6-28.9,0.7-57.9,0.3-86.8C321.4-65.2,305.7-65.2,305.8-56.2z"/>
</g>
<g class="st5">
	<path class="st6" d="M282.8-51.5c-1.3,98.8-5.2,197.6-11.8,296.3c-1.9,27.8-4,55.6-6.2,83.4c-0.7,9,15,8.9,15.8,0
		c8.1-98.6,13.5-197.3,16.3-296.1c0.8-27.9,1.3-55.7,1.7-83.6C298.7-60.6,282.9-60.6,282.8-51.5L282.8-51.5z"/>
</g>
<g class="st5">
	<path class="st6" d="M529.7-58.9c0,112.2,0.2,224.3,0.6,336.4c0.1,31.8,0.2,63.7,0.3,95.6c0.1,14.8,26,14.8,25.9,0
		c-0.4-112.2-0.7-224.3-0.9-336.4c0-31.8-0.1-63.7-0.1-95.6C555.6-73.7,529.7-73.7,529.7-58.9L529.7-58.9z"/>
</g>
<g class="st5">
	<path class="st6" d="M463.1-67.5c-7.8,113.6-18.5,227.1-32.3,340.3c-4,32.2-8.2,64.5-12.6,96.6c-0.9,6.2,6.6,11.5,13,11.5
		c7.7,0,12.1-5.3,13-11.5c15.7-113,28.2-226.3,37.6-339.9c2.7-32.3,5.1-64.7,7.3-97c0.4-6.2-6.3-11.5-13-11.5
		C468.6-79,463.5-73.7,463.1-67.5L463.1-67.5z"/>
</g>
<path class="st6" d="M535.9,439.2c-4.1,4.8-7.1,10.4-8.7,16.3c-3.7-57.9,10.7-115.4,25-172c8.3-32.7,16.6-65.4,31-96.4
	c10.7-23,24.8-45.7,25.6-70.6c4.1,33.7,6.7,70.3-14.1,98.8l5.7-4.5c-18,18.7-32.6,39.7-43.5,62.3c21.4-22.4,44.4-45.6,75.7-55.3
	c-22.3,17.1-27.7,45.9-45.8,66.6c-12.2,13.9-29.5,23.4-43.7,35.6c27.3-8.2,52.8-20.5,75.2-36.5c0.6,18.4-17.1,33.1-35,42.5
	s-38.2,17-49.7,32.3c22.2-9.3,45-17.2,68.5-23.6c5.2-1.4,13.4-0.9,13.1,3.9c-0.1,2-2,3.6-3.8,4.9c-12,8.6-26.4,14.1-39.3,21.5
	c-25.9,15-45.3,37.4-55.1,63.5L478.6,365c-5-8.3-10.1-16.7-12.1-25.9c-3.4-15.8,2.7-32,8.7-47.2c1.8,13.9,8.6,26.9,19.4,37.2
	c6.8,6.4,15.1,11.6,21.6,18.3c6.5,6.7,11.2,15.7,8.9,24.3c-4.1-18.2-10.9-35.9-20.1-52.5c-7.1-12.9-15.9-25.6-18-39.9
	c-3-19.3,6.6-38.3,15.9-56c-2.8,19.2,0.3,38.7,8.8,56.5c5,10.5,12,20.3,16.1,31.1s5.3,23.3-1.1,33.2c12.8-17.9,11.3-41,5.3-61.5
	s-16-40.1-19.2-61.1c-3.5-23.5,1.9-47.4,15.2-67.9c-10.5,42.9,11.3,86,23.8,128.4c2,6.7,2.5,15.7-4.5,18.6
	c2.4-26.5,4.8-53.7-2.7-79.5c-3-10.2-7.5-20.1-8.7-30.6c-3-27.6,17.7-52.3,25.9-79c4.5,37.9,9.1,76.6-0.4,113.9
	c-2.5,9.9-6,19.6-9.5,29.3"/>
<g class="st7">
	<path class="st8" d="M496.3-49.6c8,102.7,11.3,205.5,9.8,308.5c-0.4,29.2-1.2,58.4-2.4,87.6c-0.2,5.8,9.9,5.8,10.1,0
		c4.2-102.9,3.6-205.7-1.7-308.6c-1.5-29.2-3.4-58.3-5.7-87.5C506-55.4,495.9-55.4,496.3-49.6L496.3-49.6z"/>
</g>
<g class="st5">
	<path class="st6" d="M412-50.9c-2.4,122.7-1.2,245.3,3.6,368c1.4,34.4,3,68.8,4.9,103.1c0.4,6.5,11.8,6.5,11.4,0
		c-6.9-122.4-10.1-244.9-9.7-367.6c0.1-34.5,0.5-69,1.2-103.5C423.5-57.4,412.1-57.4,412-50.9L412-50.9z"/>
</g>
<g class="st7">
	<path class="st8" d="M379-52.2c-26.2,120.1-41.9,241.8-47.1,364c-1.4,34.5-2,69.1-1.8,103.7c0,7.9,13.8,7.9,13.8,0
		C343,294.2,352.6,173,372.6,53c5.7-34.1,12.3-68.1,19.7-102C393.9-56.7,380.7-60,379-52.2L379-52.2z"/>
</g>
<g class="st9">
	<path class="st10" d="M112.2-72.6c5,131.5,5.2,263,0.5,394.6c-1.4,37.2-3.1,74.4-5.2,111.5c-0.6,11.3,11.6,22,24.2,21.5
		c13.7-0.5,23.5-9.5,24.2-21.5c7.5-131.4,10.1-262.9,7.9-394.6c-0.6-37.2-1.7-74.4-3.1-111.6c-0.4-11.2-10.8-22-24.2-21.5
		C123.7-93.6,111.8-84.7,112.2-72.6L112.2-72.6z"/>
</g>
<g class="st9">
	<path class="st10" d="M598.1-67.2c-6.4,60.4-1.2,121,2.4,181.4c1.8,30.2,3.2,60.5,2.7,90.8s-2.5,60.5-5.4,90.6
		c-3.2,34.1-7.4,68.1-11.7,102.1c-1.4,11.2,12.1,22,24.2,21.5c14.3-0.6,22.7-9.5,24.2-21.5c7.5-60.1,15-120.4,16.8-180.9
		s-4.5-121.1-7-181.6C643,1,643-33.2,646.6-67.2c1.2-11.2-12-22-24.2-21.5C608.2-88.2,599.4-79.3,598.1-67.2z"/>
</g>
<g class="st9">
	<path class="st10" d="M617.6-98.5c0.8,4.9,1.5,9.7,2.3,14.6c0.1,1,0.3,2,0.5,2.9c0.7,4.8,0-0.3-0.2-1.1c0.4,2.6,0.8,5.2,1.1,7.8
		c1.4,9.7,2.8,19.4,4,29.2c2.6,19.8,4.9,39.6,6.9,59.5c3.9,39,6.6,78.2,8.1,117.4c3.1,78.7,1.4,157.5-5,236.1
		c-1.8,22.2-4,44.3-6.6,66.4c-1.3,10.7-2.6,21.4-4,32.1c-0.8,5.5-1.5,11-2.3,16.5c-0.4,2.6-0.8,5.2-1.1,7.8
		c-0.2,1.3-0.4,2.6-0.6,3.9c-0.2,1.6-1.1,7.7-0.1,0.9c-1.1,7.3-1.4,13.4,3,20c3.6,5.4,10.5,10.5,17.5,11.9
		c7.5,1.5,15.9,1.2,22.5-2.6c5.9-3.4,12.5-9,13.5-15.5c12.4-80.6,19.9-161.8,22.5-243.2c2.4-79.7-0.2-159.5-7.6-239
		c-4.3-46.6-10.5-93-18-139.3c-1-6-7.9-12.6-13.5-15.5c-6.3-3.3-15.5-4.6-22.5-2.6s-13.9,5.9-17.5,12
		C616.6-111.9,616.3-105.8,617.6-98.5L617.6-98.5z"/>
</g>
<g class="st9">
	<path class="st10" d="M688.6-109.4c-0.3,20.9,4.6,41.6,9,62c4.2,19.3,8.4,38.5,12.3,57.9s7.6,38.7,10.9,58.1
		c0.8,4.8,1.6,9.7,2.4,14.6c0.4,2.3,0.7,4.5,1.1,6.8c0.2,1.5,0.6,5.4-0.2-1.5c0.2,1.3,0.4,2.6,0.6,3.9c1.4,9.7,2.7,19.5,3.9,29.2
		c4.7,39,7,78.3,6.9,117.6c-0.1,39.4-2,78.7-2.9,118.1c-1,44.5-0.7,89.1,4.9,133.4c0.9,7.5,2.8,13.9,9.1,19.4
		c5.4,4.8,14.2,8.4,21.9,8.1c15.2-0.6,32.9-12.2,31-27.5c-9.9-78.3-3.2-157.2-2.1-235.7c0.7-39.3-1-78.6-5-117.7
		c-4.3-40.8-11-81.5-18.8-122c-4.2-21.9-8.8-43.8-13.5-65.7c-2.3-10.4-4.7-20.8-6.8-31.3c-0.5-2.7-0.7-5.8-1.5-8.4
		c0,0,0.8,5.8,0.4,2.6c-0.2-1.6-0.4-3.1-0.6-4.7c-0.6-5.6-0.9-11.3-0.9-17c0.2-14.4-14.4-28.2-31-27.5
		C702.7-136.3,688.8-124.9,688.6-109.4L688.6-109.4z"/>
</g>
<g class="st9">
	<path class="st10" d="M17.8-110.9c-1.3,75-4.2,150-8.7,225S-1.7,263.9-9.5,338.6c-4.4,42.1-9.4,84.2-14.9,126.3
		c-0.9,6.9,4.3,15.8,9.6,20.5c5.6,5,15,8.8,23.1,8.5c8.4-0.3,17.2-2.8,23.1-8.5c6.2-6,8.5-12.4,9.6-20.5
		c9.7-74.6,17.8-149.3,24.2-224.1S76.4,91,79.5,16c1.8-42.3,3-84.6,3.7-126.9c0.3-15.2-15.2-29.7-32.7-29
		C32.6-139.2,18.1-127.2,17.8-110.9z"/>
</g>
<path class="st11" d="M-12.2,339.9c-13.9-2.9-31.3-2.4-15-16.2c12.9-10.9,32-17.7,47.3-25.7c18.5-9.5,36.9-19.1,55.3-28.7
	c6.9-3.6,44.5-28.7,50.8-26.5c33.1,11.6,67,21.6,101.3,30.1l-78.7,2.6c10.8,11.8,24,21.7,38.9,29.2c-14.4,0-28.7-1.3-42.8-4
	c7.3,7.4,15.6,14,24.7,19.8c-38.6,1.6-77.4,1.5-116-0.2c-11.5-0.5-23.2-1.2-34.5,1S-3.4,328.8-9,337.7l9.1,0.7"/>
<path class="st6" d="M657.6,282.1l6.4,3.5c-10.8-6.8-22.4-12.6-34.8-17.6c-12.9-5.2-28.7-9.4-42.6-5.7c-9.7,2.7-16.3,8.7-21.8,14.6
	c-5.6,5.9-11,12.2-19.8,16.1s-22,4.2-28.6-1.2L496,308.5c-4.8-3.1-12.9-0.8-17.7,2.4c-4.7,3.2-9,7.3-15.6,7.9
	c-10.7,1-21.2-7.7-30.6-4.2c-4.4,1.6-6.1,5.3-10,7.4c-8.5,4.5-20.3-0.5-30.8-2.5c-12.1-2.2-26,0.3-34.6,6.5c-27-6-55.3-9.8-83.8-9.1
	c-8.7,0.2-18,0.7-25.5-2.1s-1.4-8-4.2-14.4c-7.2-16.4-40.8,2.7-60.5-1.6c-10.6-2.4-20.8-5.8-31.9-6.5c-14.6-0.9-31.8,2.7-42.5-3.9
	c-2.6-1.6-4.5-3.8-7.7-4.7c-9.2-3-22,5.2-29.5,0.5c-2.3-1.4-3-3.4-4-5.4c-6.9-14-30.2-23.6-52.2-21.5c-6.4,0.6-12.9,2.1-19.2,0.9
	c-9-1.7-13.8-7.9-20.4-11.8c-8.2-4.8-17.8-8.1-28.1-9.4c-16.3-1.9-28.8,3.1-37.3,12.2c-23.2,24.9-20.4,61.1-1.1,86.4
	c6.1,8,14.6,15.8,27,19.3c17,4.7,36.5,0.3,54.8,1.6c29.1,2.2,50.8,18.5,77.2,26.9c24.2,7.7,51.9,8.6,78.6,10.8
	c57.4,4.8,113.2,16.4,170.5,21.1c78.4,6.4,157.8,0,236.7,2.7c58.1,2,116.7,8.8,174,2.2c49.3-5.6,95-20.9,143.5-29.2
	c17.5-3,35.3-5.1,53.2-6.2c-20.5-36-31.6-74.6-32.8-113.8c-0.2-7.1-0.2-14.5-5.1-20.9s-16.7-10.9-26.5-8c-5.6,1.6-9.3,5.2-14.5,7.4
	c-13.4,5.5-30.4-0.4-46-2c-27.3-2.7-52.8,8.8-74.6,20.2c-19.4,10-40,20.9-64.5,22.3"/>
<path class="st10" d="M-38.9-1.4c-4.2-3.6-9.2-6.4-14.8-8c53.4-2.3,106,11.5,157.8,25.2c29.9,7.9,59.9,15.9,88.1,29.1
	c21,9.9,41.6,22.8,64.5,24c-31.1,3.1-64.9,4.7-90.7-14.2l4,5.1c-16.3-15.9-35.3-29.3-56.4-39.7c20.1,19.4,41.1,40.2,49.3,68.1
	c-15.3-20-41.7-25.3-60.3-41.8C90.2,35.4,81.8,19.8,70.8,7c6.7,23.8,17.5,46.6,32.1,67.4c-17,0.2-30.1-15.8-38.3-31.8
	S49.6,8.5,35.8-2C44,18,50.7,38.4,56,59.2c1.2,4.7,0.5,11.9-3.9,11.5c-1.9-0.2-3.3-1.8-4.4-3.4c-7.7-10.8-12.4-23.6-19-35.2
	C15.7,9-4.9-9-28.6-17.9l59.1-33.2c7.8-4.3,15.6-8.7,24.1-10.3c14.6-2.8,29.4,2.9,43.3,8.5c-12.7,1.3-25.1,7.2-34.6,16.5
	c-6.1,5.9-11,13.2-17.3,18.8S31.4-7.8,23.5-10c17.1-3.4,33.6-9.1,48.8-16.9c12-6.1,23.9-13.6,37.1-15.3c17.9-2.3,35.1,6.5,51.2,15
	c-17.8-2.7-36.1-0.3-52.2,6.8c-9.8,4.3-19,10.3-29,13.8S57.8-2.3,48.8-8.1C65,3.5,86.3,2.6,105.3-2.4s37.3-13.5,56.6-16
	c21.5-2.7,43.8,2.6,62.3,14.7C185-13.8,144.8,4.9,105.4,15.2c-6.2,1.6-14.5,2-17-4.4c24.4,2.6,49.3,5.2,73.2-1.1
	c9.4-2.5,18.6-6.4,28.3-7.2c25.4-2.1,47.7,16.6,72.2,24.4c-35,3.4-70.8,6.7-104.8-2.3c-9.1-2.6-18-5.5-26.8-8.9"/>
<radialGradient id="SVGID_5_" cx="763.6794" cy="24.72" r="134.97" gradientTransform="matrix(1.1267 0 0 1 -181.055 2)" gradientUnits="userSpaceOnUse">
	<stop  offset="0" style="stop-color:#758A80"/>
	<stop  offset="6.000000e-02" style="stop-color:#6E8672"/>
	<stop  offset="0.17" style="stop-color:#567661"/>
	<stop  offset="0.28" style="stop-color:#557D65"/>
	<stop  offset="1" style="stop-color:#092605"/>
</radialGradient>
<path class="st12" d="M863.3-63.6c-9.8,6.3-18.1,14-25.8,22.3S822.5-24.5,815-16S799.7,0.8,792,9.1s-15.5,16.6-23.6,24.7
	s-16.3,16-24.7,23.9c-4.2,3.9-8.5,7.8-12.8,11.7c-4.3,3.9-8.7,7.6-13.2,11.3s-9.2,7.3-14,10.7c-4.8,3.4-9.7,6.6-14.9,9.6
	c-5.1,3-10.5,5.8-16,8.2c-5.5,2.5-11.3,4.6-17.2,6.3c-12,3.6-24.6,5.1-37.3,4.5c-12.7-0.9-25.2-3.9-36.6-9
	c-11.4-5-21.9-11.5-31.1-19.3c-4.6-3.8-9-7.9-13-12.3c-4-4.3-7.7-8.9-11-13.7c-1.6-2.4-3.2-4.8-4.7-7.3s-2.8-5-4.1-7.5l-1-1.9
	l-0.9-1.9l-1.8-3.9c-1.1-2.6-2.2-5.2-3.2-7.8c-1.1-2.6-1.9-5.3-2.8-7.9s-1.6-5.3-2.4-8c-1.4-5.4-2.7-10.7-3.8-16.1
	c-4.1-21.6-5.1-43.4-5.3-65l3.5-0.5l1.5,7.8l1.4,7.8l-1.1,0.2l-2.7-7.5l-2.6-7.5l3.5-0.5c3.1,21.4,6,42.8,11.4,63.5
	c2.6,10.3,5.9,20.5,10.1,30.4c2.1,4.9,4.4,9.7,6.9,14.4s5.3,9.3,8.3,13.7c3.1,4.4,6.4,8.6,10,12.7s7.5,8,11.6,11.6
	c8.2,7.3,17.6,13.6,27.8,18.5c5.1,2.4,10.4,4.5,15.9,6.2c16.7,5.1,34.7,5.7,51.7,1.9c5.8-1.3,11.4-3,16.9-5.1
	c5.5-2.2,10.8-4.6,15.9-7.5c10.2-5.7,19.6-12.5,28-20.1c17-15.3,30.7-33.2,46-50C768.2,20,776,11.7,784,3.5
	c7.9-8.2,15.9-16.3,24-24.4c4-4,8.1-8,12.2-12s8.3-8,12.6-11.9c8.7-7.7,18.4-14.9,29.5-19.6L863.3-63.6z"/>
<radialGradient id="SVGID_6_" cx="370.8662" cy="26.42" r="233.9642" gradientTransform="matrix(1.1267 0 0 1 -181.055 2)" gradientUnits="userSpaceOnUse">
	<stop  offset="0" style="stop-color:#758A80"/>
	<stop  offset="6.000000e-02" style="stop-color:#6E8672"/>
	<stop  offset="0.17" style="stop-color:#567661"/>
	<stop  offset="0.28" style="stop-color:#557D65"/>
	<stop  offset="1" style="stop-color:#092605"/>
</radialGradient>
<path class="st13" d="M599.2-30.8c-10,13.5-15,29-22.9,43.8c-1,1.9-2.1,3.7-3.1,5.5s-2.3,3.6-3.4,5.4s-2.4,3.5-3.7,5.2
	c-0.6,0.9-1.2,1.7-1.9,2.6l-2,2.5c-5.4,6.7-11.5,13-18.2,18.8s-13.9,11-21.7,15.7c-7.8,4.6-16.1,8.6-24.7,11.8
	c-8.6,3.3-17.7,5.7-26.9,7.3c-9.2,1.5-18.6,2.2-28,2c-18.7-0.4-37.2-4.3-54.1-11.5c-8.4-3.6-16.3-7.9-23.6-13
	c-7.2-5.1-14-10.7-20.2-16.7c-12.6-11.8-24-24.4-36.9-35.6l-2.4-2.1l-2.5-2l-2.5-2l-2.6-2L295.3,3l-2.7-1.8l-2.7-1.8
	c-0.9-0.6-1.8-1.1-2.8-1.7c-3.6-2.2-7.5-3.9-11.6-5.1c-2-0.5-4.1-0.9-6.1-1c-2.1-0.1-4.2,0-6.3,0.2c-4.3,0.6-8.5,1.6-12.5,3
	c-2.1,0.7-4.1,1.5-6.1,2.3l-3.1,1.2c-1,0.4-2,0.9-3,1.3l-5.9,2.7c-2,0.9-3.9,2-5.8,3c-3.9,1.9-7.6,4.2-11.3,6.3
	c-15,9.2-28.9,19.4-43.2,29.4S143,61,126.5,68.8c-4.2,1.9-8.3,3.9-12.7,5.4l-3.3,1.2c-1.1,0.4-2.2,0.8-3.3,1.2l-6.8,2
	c-9,2.5-18.3,4.2-27.7,5.1c-18.7,1.7-37.5,0.9-55.9-2.6c-9.1-1.6-18-3.8-26.8-6.5c-8.7-2.7-17.3-5.9-25.6-9.4S-52,57.8-59.8,53.5
	c-7.9-4.2-15.5-8.7-23-13.4c-14.8-9.4-29.1-19.6-42.8-30.3l0.6-0.7c14.8,9.4,29.7,18.7,45.1,27.2c15.2,8.5,31.2,16,47.6,22.5
	c8.2,3.2,16.6,5.9,25.1,8.3s17.1,4.3,25.9,5.6c8.7,1.4,17.5,2.2,26.4,2.6c8.8,0.3,17.6,0,26.4-1c8.7-0.9,17.3-2.5,25.7-4.7l6.2-1.9
	c1-0.3,2-0.7,3.1-1.1l3-1.1c4.1-1.4,8-3.2,12-4.9l1.5-0.7l1.4-0.7l2.9-1.5l2.9-1.5c1-0.5,1.9-1,2.9-1.5c3.8-2.1,7.6-4.2,11.3-6.5
	c1.8-1.1,3.7-2.2,5.5-3.4l5.5-3.5c3.7-2.3,7.3-4.8,10.9-7.2l10.8-7.3c3.6-2.5,7.3-4.9,11-7.3s7.4-4.8,11.2-7.1
	c1.9-1.2,3.8-2.3,5.7-3.4s3.8-2.3,5.8-3.3c4-2.1,7.9-4.3,12-6.2c2.1-0.9,4.1-2,6.2-2.8l6.4-2.6c1.1-0.4,2.1-0.9,3.2-1.2l3.2-1.1
	c2.2-0.7,4.3-1.4,6.6-2.1c4.5-1.4,9.2-2.3,13.9-2.7c2.4-0.2,4.9-0.2,7.4,0.1s4.9,0.8,7.2,1.5c4.5,1.5,8.7,3.5,12.5,6
	c7.4,4.9,14.3,10.3,20.8,16.2c12.9,11.6,24.2,24.3,36.9,35.7c6.3,5.7,13,11,20.3,15.7c7.3,4.6,15.1,8.4,23.4,11.5
	c8.2,3,16.8,5.2,25.5,6.6s17.5,2,26.4,1.9c8.8-0.1,17.6-0.9,26.2-2.4c8.6-1.6,17.1-3.8,25.2-6.8c8.2-3,16-6.6,23.4-10.9
	c7.5-4.2,14.5-9,21-14.4s12.6-11.2,18.1-17.3c5.5-6.2,10.5-12.9,14.8-19.8c4.3-7,8.1-14.3,12.3-21.5c4-7.3,8.9-14.2,14.6-20.6
	L599.2-30.8z"/>
<radialGradient id="SVGID_7_" cx="932.4393" cy="-81.4939" r="107.5" gradientTransform="matrix(1.1267 0 0 1.84 -181.055 174.2)" gradientUnits="userSpaceOnUse">
	<stop  offset="0" style="stop-color:#758A80"/>
	<stop  offset="6.000000e-02" style="stop-color:#6E8672"/>
	<stop  offset="0.17" style="stop-color:#567661"/>
	<stop  offset="0.28" style="stop-color:#557D65"/>
	<stop  offset="1" style="stop-color:#092605"/>
</radialGradient>
<path class="st14" d="M987.1-46.3c-4.1,3.2-7.9,6.8-11.4,10.6c-3.5,3.8-6.8,7.8-9.9,11.8L947,0.6l-9.6,12.2l-9.7,12.1
	c-6.4,8.1-12.9,16.1-19.6,23.9s-13.6,15.6-20.6,23.4c-3.5,3.9-7.1,7.7-10.6,11.5c-1.8,1.9-3.6,3.8-5.4,5.7s-3.6,3.8-5.5,5.6
	c-7.5,7.4-15.1,14.7-23.9,21c-4.4,3.2-9,6.1-14,8.6c-2.5,1.3-5.1,2.4-7.8,3.3s-5.5,1.7-8.4,2.1c-1.5,0.2-2.9,0.4-4.4,0.5
	s-3,0.1-4.5,0c-0.7-0.1-1.5-0.1-2.3-0.2l-2.3-0.3c-1.5-0.3-3-0.7-4.4-1.1c-2.9-0.9-5.6-2.1-8.1-3.6s-4.8-3.2-6.9-5.1
	c-2.1-1.9-4-3.9-5.8-6c-0.9-1-1.7-2.1-2.5-3.2s-1.6-2.2-2.3-3.3c-2.9-4.5-5.4-9.1-7.4-13.9c-4-9.5-6.9-19.4-8.8-29.4
	c-0.9-5-1.7-10-2.2-15c-0.3-2.5-0.4-5-0.6-7.5s-0.3-5-0.3-7.5c-0.6-20.1,1.5-40,4.5-59.7s7.4-39.1,12.2-58.5l3.3,0.3
	c-0.4,2.9-0.8,5.8-1.3,8.7c-0.4,2.9-0.9,5.8-1.4,8.7l-0.9-0.1c0-2.9,0-5.8,0.1-8.7s0.1-5.8,0.2-8.7l3.3,0.3
	c-2.5,19.7-5.2,39.3-7.2,58.9c-2.2,19.5-3.1,39.1-2.7,58.7c0.1,9.7,0.9,19.4,2.4,29c1.5,9.5,3.9,18.9,7.4,28.1
	c1.7,4.5,3.8,8.9,6.3,13.1c2.4,4.2,5.3,8.1,8.7,11.6c3.3,3.5,7.4,6.3,12.1,8.2c2.3,0.9,4.8,1.6,7.3,1.8c1.3,0.2,2.6,0.2,3.8,0.3
	c1.3,0,2.6-0.1,3.9-0.2c5.3-0.6,10.5-2.1,15.2-4.3c4.9-2.2,9.5-4.9,13.8-7.9c8.6-6.2,16.4-13.2,23.2-20.9c1.7-1.9,3.4-3.8,5.1-5.8
	c1.7-2,3.3-4,4.9-6c3.2-4,6.3-8.1,9.5-12.2c6.2-8.2,12.3-16.5,18.7-24.6s12.9-16.1,19.5-24.1l10-11.9l10.1-11.8
	c3.4-3.9,6.8-7.8,10.2-11.8c3.5-3.9,6.9-7.8,10.5-11.6s7.4-7.5,11.4-11c2-1.8,4.1-3.4,6.3-5s4.4-3.1,6.8-4.4L987.1-46.3z"/>
<radialGradient id="SVGID_8_" cx="689.8065" cy="-92.1245" r="142.674" gradientTransform="matrix(1.1267 0 0 1.84 -181.055 174.2)" gradientUnits="userSpaceOnUse">
	<stop  offset="0" style="stop-color:#758A80"/>
	<stop  offset="6.000000e-02" style="stop-color:#6E8672"/>
	<stop  offset="0.17" style="stop-color:#567661"/>
	<stop  offset="0.28" style="stop-color:#557D65"/>
	<stop  offset="1" style="stop-color:#092605"/>
</radialGradient>
<path class="st15" d="M818.8-36.7c-7.1,11-12.4,22.8-18.1,34.5c-5.6,11.9-12.3,23.3-20.1,34.1c-4,5.4-8.3,10.7-12.9,15.6
	c-4.7,5-9.8,9.7-15.3,14c-5.5,4.4-11.7,8.2-18.2,11.4c-6.6,3.3-13.9,5.4-21.4,6.4c-7.6,0.9-15.4,0.2-22.6-2
	c-7.1-2.3-13.6-5.9-19.1-10.5c-5.3-4.6-9.8-9.8-13.3-15.6c-3.4-5.7-6.3-11.6-8.5-17.8c-4.7-12.1-7.9-24.6-11.6-36.8
	c-0.9-3.1-1.9-6.1-2.9-9.2l-1.6-4.5l-1.7-4.5c-2.2-5.9-5-11.7-8.2-17.3c-1.4-2.6-3.4-5-5.8-7c-1-0.8-2.3-1.4-3.6-1.7
	c-1.4-0.3-2.8-0.3-4.2,0c-3.2,0.7-6.3,1.7-9.2,3.1c-3.1,1.4-6.1,2.9-9,4.6c-11.6,6.8-22,15.4-32.2,24.1S539,2.1,527.9,10.5
	c-5.6,4.3-11.5,8.2-17.8,11.7c-6.4,3.6-13.4,6.4-20.8,8.1c-7.5,1.7-15.3,2.1-23,1.1c-7.6-1-14.9-3.2-21.6-6.5
	c-6.6-3.2-12.7-7.1-18.1-11.7c-5.3-4.5-10.2-9.4-14.6-14.7c-8.6-10.4-15.9-21.5-22-33.2c-3.1-5.8-6-11.6-8.7-17.5S376-64,373.5-70
	l0.8-0.3c3.1,5.7,6.3,11.4,9.5,17.1s6.6,11.3,10.1,16.8s7.1,11,11,16.2c3.8,5.3,8,10.3,12.4,15.2c4.4,4.8,9.2,9.3,14.4,13.4
	c5.1,4,10.8,7.5,16.9,10.2c6,2.7,12.4,4.5,19,5.3c6.6,0.7,13.2,0.3,19.6-1.3c3.2-0.8,6.3-1.8,9.4-3s6.1-2.7,9-4.3
	c5.8-3.3,11.4-6.9,16.7-10.8c10.8-7.9,21.1-16.8,31.6-25.5c10.6-8.6,21.5-17.3,34.1-24.1c3.2-1.7,6.5-3.2,9.9-4.6
	c3.5-1.4,7.2-2.4,11.1-3c2.2-0.3,4.3-0.1,6.4,0.4c2.1,0.6,4.1,1.6,5.6,3c2.7,2.5,4.9,5.4,6.4,8.6c6.1,11.9,9.5,24.4,13,36.7
	s6.6,24.8,11.4,36.7c2.3,5.9,5.3,11.6,8.9,17c3.6,5.3,8.1,10.1,13.4,14.1c5.2,3.9,11.2,6.8,17.8,8.5c6.4,1.6,13.2,2,19.8,0.9
	s13-3.2,18.9-6.1c6-3,11.7-6.5,16.9-10.5c5.3-4.1,10.2-8.5,14.8-13.2s9-9.7,13-14.8l3-3.9l2.9-4c1-1.3,1.9-2.6,2.8-4s1.8-2.7,2.7-4
	c3.5-5.4,6.8-11,10.1-16.7s6.5-11.3,10-17c1.7-2.8,3.5-5.6,5.4-8.3s3.9-5.4,6-8L818.8-36.7z"/>
<g class="st16">
	
		<linearGradient id="SVGID_9_" gradientUnits="userSpaceOnUse" x1="-100.8545" y1="140.6037" x2="259.9214" y2="140.6037" gradientTransform="matrix(1 0 0 1 0 2)">
		<stop  offset="0" style="stop-color:#EEDEE9;stop-opacity:0.2"/>
		<stop  offset="0.28" style="stop-color:#E1AFBF;stop-opacity:0.16"/>
		<stop  offset="0.75" style="stop-color:#5F756B;stop-opacity:6.000000e-02"/>
		<stop  offset="0.99" style="stop-color:#557D65;stop-opacity:0"/>
	</linearGradient>
	<path class="st17" d="M-120.8-8.5C-20.9,73.6,74,160.2,163.8,251c25.5,25.9,50.7,52.1,75.4,78.6c9.6,10.3,30.8,9.5,40.6,0
		c11.3-11,10.3-25,0-36.1C193.1,200.4,101.1,111.4,4,26.7C-23.6,2.6-51.7-21.1-80.1-44.5c-11-9.1-29.9-10.4-40.6,0
		C-130.9-34.7-132.6-18.1-120.8-8.5z"/>
	
		<linearGradient id="SVGID_10_" gradientUnits="userSpaceOnUse" x1="-73.9614" y1="92.5488" x2="476.5087" y2="92.5488" gradientTransform="matrix(1 0 0 1 0 2)">
		<stop  offset="0" style="stop-color:#EEDEE9;stop-opacity:0.2"/>
		<stop  offset="0.28" style="stop-color:#E1AFBF;stop-opacity:0.16"/>
		<stop  offset="0.75" style="stop-color:#5F756B;stop-opacity:6.000000e-02"/>
		<stop  offset="0.99" style="stop-color:#557D65;stop-opacity:0"/>
	</linearGradient>
	<path class="st18" d="M-88.2-17.1c74,30.8,147.1,63.3,219.3,97.2C203,114,273.9,149.3,343.9,186.2c39.6,20.9,78.9,42.2,117.8,64
		c12.7,7.1,32.2,2.8,39.3-9.1c7.5-12.6,3.3-27.3-10.3-34.9c-69.1-38.7-139.2-75.9-210.4-111.7C209.5,59,137.7,25,65-7.5
		C23.9-25.9-17.5-43.8-59.2-61.1c-7.1-3-14.3-4.5-22.1-2.6C-88-62.1-95.2-57.5-98.5-52C-105.3-40.7-102.7-23.2-88.2-17.1z"/>
	
		<linearGradient id="SVGID_11_" gradientUnits="userSpaceOnUse" x1="-110.9831" y1="-13.6582" x2="583.6193" y2="-13.6582" gradientTransform="matrix(1 0 0 1 0 2)">
		<stop  offset="0" style="stop-color:#EEDEE9;stop-opacity:0.2"/>
		<stop  offset="0.28" style="stop-color:#E1AFBF;stop-opacity:0.16"/>
		<stop  offset="0.75" style="stop-color:#5F756B;stop-opacity:6.000000e-02"/>
		<stop  offset="0.99" style="stop-color:#557D65;stop-opacity:0"/>
	</linearGradient>
	<path class="st19" d="M-103.2-31.8c1.4-0.3,2.8-0.5,4.2-0.6c-0.7,0-6.8,0.5-1.3,0.3c2.5-0.1,4.9-0.3,7.4-0.4c5.7-0.1,11.3,0,17,0.4
		c2.8,0.2,5.7,0.4,8.5,0.7l3.2,0.3c5.3,0.6-0.5-0.1-1.3-0.2c5.6,0.2,11.4,1.5,16.9,2.3c22.5,3.2,45.1,6.6,67.6,10
		c44.9,7,90,14.1,135,21.3c90,14.3,180,28.6,270.5,40.2c52.9,6.8,105.9,12.8,159,17.3c15,1.3,29.4-12.7,28.7-25.5
		c-0.8-14.9-12.7-24.1-28.7-25.5c-23.1-2-46.2-4.2-69.2-6.7c-11.3-1.2-22.6-2.5-33.9-3.8c-2.6-0.3-5.1-0.6-7.7-0.9
		c-4.2-0.5,5.3,0.6,1.1,0.1L469.4-3c-5.8-0.7-11.7-1.5-17.5-2.2c-45.6-5.7-91.1-12.1-136.5-18.9C224.8-37.7,134.5-52.7,44-66.6
		C18.6-70.5-6.9-74.3-32.4-78c-29-4.2-57-7.6-86.2-3c-14.8,2.3-24.5,19.1-20,31.3C-133.4-35.4-119.1-29.3-103.2-31.8L-103.2-31.8z"
		/>
</g>
<path class="st6" d="M286.8,366.8c-2,1.3-3.5,3.1-4.5,5.1c-1.9-18.2,5.5-36.2,12.9-53.9c4.2-10.2,8.5-20.5,15.9-30.2
	c5.5-7.2,12.8-14.3,13.2-22.1c2.1,10.6,3.4,22-7.2,31l3-1.4c-8.6,5.3-16.2,11.9-22.4,19.5c11-7,22.8-14.3,38.9-17.3
	c-11.4,5.4-14.2,14.4-23.5,20.9c-6.3,4.4-15.2,7.3-22.5,11.2c13.4-2.4,26.4-6.2,38.7-11.5c0.3,5.8-8.8,10.4-18,13.3
	s-19.6,5.3-25.5,10.1c11.4-2.9,23.2-5.4,35.2-7.4c2.7-0.5,6.9-0.3,6.8,1.2c-0.1,0.6-1,1.1-1.9,1.5c-6.2,2.7-13.5,4.4-20.2,6.7
	c-13.2,4.6-23.4,11.8-28.3,19.9l-19.9-19.9c-2.6-2.6-5.2-5.2-6.2-8.1c-1.8-5,1.4-10,4.5-14.8c0.9,4.3,4.4,8.5,9.9,11.6
	c3.5,2,7.8,3.6,11.1,5.7c3.3,2.1,5.8,4.9,4.5,7.6c-2.3-6-5.7-11.6-10.2-16.5c-3.7-4-8.2-8-9.3-12.5c-1.5-6.1,3.4-12,8.2-17.5
	c-1.4,6,0.2,12.2,4.5,17.7c2.6,3.3,6.1,6.4,8.3,9.8c2.1,3.4,2.7,7.3-0.6,10.4c6.6-5.6,5.8-12.9,2.7-19.3s-8.2-12.6-9.9-19.1
	c-1.8-7.3,1-14.9,7.8-21.3c-5.4,13.4,5.8,27,12.2,40.3c1,2.1,1.3,4.9-2.3,5.8c1.3-8.3,2.5-16.8-1.4-24.9c-1.5-3.2-3.9-6.3-4.5-9.6
	c-1.5-8.6,9.1-16.4,13.3-24.8c2.3,11.9,4.7,24-0.2,35.7c-1.4,3.1-3,6.2-4.9,9.2"/>
<path class="st10" d="M-37.7,384.9c-0.3-3.7-0.3-7.5,2.3-11s8.2-6.3,13.5-5.6c5.8,0.8,8.5,5.1,9.6,9c2.5,8.8,1.4,18,0.3,27.2
	l-3.6,29.4c2.4-21.8,7.6-43.3,15.5-64.1c4.3-11.4,9.3-23,7.8-34.3c-1-7.1-4.5-13.8-5.7-20.9c-1.7-9.8,1.2-20.2,8.2-29.4
	c2.2-2.9,5.4-6,10.1-6.4c7.3-0.8,10.9,5.3,11,10.2c0.4,20.1-18.6,39.2-24.4,59.3c6.3-22.9,18.3-45.5,35.4-66.4
	c4-4.9,8.2-9.7,10.4-14.9c2.2-5.3,2.2-10.5,2.2-15.8v-29.6c0-3.7,0-7.5,2.4-10.9c2.8-3.9,7.7-6.3,13-6.1c4.2,0.2,7.8,2.7,9.1,6.2
	c1,3.1,0.1,6.4-0.8,9.6c-6.2,19.4-16.1,37.7-29.3,54.2l69-96.1c2.8-3.9,5.6-7.8,10.5-10.7c6.9-4.1,16.3-5.1,25-5.9
	c2.7-0.3,5.8-0.4,7.7,0.8c1,0.7,1.7,1.8,1.8,3c1.4,8.3-7.4,16.7-17.8,22.1c-10.4,5.5-22.6,9-33.1,14.4
	c-12.2,6.1-21.9,14.5-27.7,23.8c7.5-6,16.5-10.4,26.3-12.7c6.8-1.6,15.6-1.8,18.5,2.2c3.6,4.9-5.4,10.8-13.7,12.3
	s-17.5,0.9-24.9,4.1c-4.4,1.9-7.5,4.8-10.5,7.6l-32.1,30.4c7-7.5,17.8-13.4,30-16.5c2.4-0.6,5.2-1,7.1-0.1c1.2,0.7,2.1,1.8,2.3,3.1
	c1.1,4.1-0.5,8.4-4.1,11.2c-8.7,6.7-25.6,4.1-35.1,10.3c-3.4,2.2-5.2,5.1-7,8l-15.2,24.6c4.5-5.3,6.3-11.5,11.9-16.3
	s17.6-7.4,22.5-2.8c3.1,2.9,1.6,7.4-1.8,10.6s-8.2,5.5-12.5,8.2c-18.3,11.2-26.4,27.7-33.7,43.2c1.9-7.4,7.2-14.7,15-20.4
	c3.1-2.3,7.9-4.5,11.6-3.1c1.2,0.5,2.1,1.2,2.7,2.2c3.3,4.9-0.8,11.2-6.5,15.6s-13.2,7.6-18.9,12c-18.3,14-19.7,34.3-29.9,50.5
	C-27.3,432.4-37,392.5-37.7,384.9z"/>
<path class="st6" d="M363.9,418.1c2.5,3.3,4.4,7.1,5.4,11.2c2.3-39.7-6.6-79.2-15.5-118c-5.1-22.4-10.3-44.9-19.2-66.1
	c-6.6-15.8-15.3-31.4-15.8-48.4c-2.5,23.1-4.1,48.2,8.7,67.8l-3.5-3.1c11.1,12.8,20.2,27.2,26.9,42.7
	c-13.2-15.4-27.5-31.3-46.9-37.9c13.8,11.7,17.1,31.5,28.3,45.7c7.6,9.5,18.3,16.1,27,24.4c-16.9-5.6-32.7-14.1-46.5-25
	c-0.4,12.6,10.6,22.7,21.7,29.2s23.6,11.7,30.8,22.2c-13.7-6.4-27.9-11.8-42.4-16.2c-3.2-1-8.3-0.6-8.1,2.7c0.1,1.4,1.2,2.5,2.4,3.4
	c7.4,5.9,16.3,9.7,24.3,14.7c16,10.3,28,25.7,34.1,43.6l23.8-43.6c3.1-5.7,6.3-11.5,7.5-17.8c2.1-10.8-1.7-22-5.4-32.4
	c-1.1,9.5-5.3,18.5-12,25.5c-4.2,4.4-9.3,8-13.4,12.6c-4,4.6-6.9,10.8-5.5,16.7c2.5-12.5,6.7-24.6,12.4-36
	c4.4-8.8,9.8-17.6,11.1-27.4c1.9-13.2-4.1-26.3-9.8-38.4c1.7,13.2-0.2,26.5-5.4,38.8c-3.1,7.2-7.4,13.9-10,21.3s-3.3,16,0.7,22.8
	c-7.9-12.3-7-28.1-3.3-42.2s9.9-27.5,11.9-41.9c2.2-16.1-1.2-32.5-9.4-46.6c6.5,29.4-7,59-14.7,88.1c-1.2,4.6-1.5,10.8,2.8,12.8
	c-1.5-18.2-3-36.8,1.7-54.5c1.9-7,4.6-13.8,5.4-21c1.9-18.9-11-35.9-16-54.2c-2.8,26-5.6,52.5,0.2,78.1c1.5,6.8,3.7,13.4,5.9,20.1"
	/>
<path class="st6" d="M611.4,414.6c0.1,3.1,0.9,6.2,2.1,9.1c-18.8-24.6-31.5-53.1-44-81.2c-7.2-16.2-14.4-32.4-19.1-49.2
	c-3.5-12.5-5.7-25.6-13-36.7c11.6,13.9,23.6,29.4,25.4,46.5l0.5-3.2c-0.2,12.5,1.3,24.9,4.6,37c0.3-14.5,0.8-29.8,8.2-41
	c-2.1,12.4,4.8,26.3,5.1,39.4c0.2,8.8-2.7,16.8-3.6,25.3c6.6-9.9,11.3-21,13.7-32.7c5.8,8,4.4,18.3,1.4,26.3
	c-3,8.1-7.4,15.9-6.6,25.2c4.4-8.9,9.6-17.4,15.4-25.5c1.3-1.8,4.1-3.4,5.5-1.2c0.4,0.9,0.6,2,0.2,2.9c-1.4,6.4-4.4,12-6.4,18.1
	c-4,12.2-3.6,26.5,1.1,40.1L570,394.7c-4.2-2.5-8.4-5.1-11.9-8.7c-5.9-6.2-8.8-14.6-11.4-22.6c4.6,5.6,10.8,9.7,17.6,12.1
	c4.2,1.3,8.5,1.8,12.7,3.3s8.5,4.5,10.3,8.7c-6.8-7-14.4-13.3-22.6-18.7c-6.3-4.1-13-7.8-18.1-13.6c-6.9-7.9-9.5-18.2-11.8-28.1
	c4.9,9,11.8,16.8,20.1,22.9c4.9,3.5,10.1,6.3,14.8,10.2s8.9,9.1,9.7,14.8c-1.2-10.6-8.7-20.5-17-28.2c-8.2-7.7-17.5-14.1-24.9-22.6
	c-8.2-9.5-13.6-20.9-15.6-33.2c9.5,21.2,29.8,35.3,46.9,51.2c2.7,2.5,5.6,6.4,4.1,9.2c-7.2-12.2-14.7-24.7-25-34.3
	c-4.1-3.8-8.6-7.2-12.1-11.5c-9.3-11.5-10-26.9-15.4-40.4c13,15.6,26.2,31.7,34.5,50.1c2.2,4.9,4,9.9,5.8,15"/>
<path class="st6" d="M481.4,366.6c0.2-2.5,0.2-5.1-1.4-7.5s-5.1-4.3-8.4-3.8c-3.6,0.5-5.3,3.5-5.9,6.2c-1.5,6-0.9,12.3-0.2,18.7
	l2.2,20.2c-1.5-15-4.7-29.7-9.6-44c-2.7-7.8-5.8-15.8-4.8-23.5c0.6-4.9,2.8-9.5,3.5-14.3c1.1-6.7-0.7-13.9-5.1-20.2
	c-1.4-2-3.3-4.1-6.3-4.4c-4.5-0.5-6.7,3.6-6.8,7c-0.2,13.8,11.5,26.9,15.1,40.7c-3.9-15.7-11.3-31.2-21.9-45.6
	c-2.5-3.4-5.1-6.7-6.4-10.2c-1.4-3.6-1.4-7.2-1.4-10.8v-20.3c0-2.5,0-5.1-1.5-7.5c-1.7-2.7-4.8-4.3-8-4.2c-2.6,0.1-4.8,1.9-5.6,4.3
	c-0.6,2.1-0.1,4.4,0.5,6.6c3.8,13.3,10,25.9,18.1,37.2l-42.7-65.9c-1.7-2.7-3.5-5.4-6.5-7.3c-4.3-2.8-10.1-3.5-15.5-4
	c-1.7-0.2-3.6-0.3-4.8,0.5c-0.6,0.5-1.1,1.2-1.1,2.1c-0.9,5.7,4.6,11.5,11,15.2c6.4,3.8,14,6.2,20.5,9.9c7.6,4.2,13.6,9.9,17.1,16.3
	c-4.6-4.1-10.2-7.1-16.3-8.7c-4.2-1.1-9.7-1.2-11.4,1.5c-2.2,3.4,3.3,7.4,8.5,8.4c5.1,1,10.8,0.6,15.4,2.8c2.7,1.3,4.6,3.3,6.5,5.2
	l19.9,20.9c-4.3-5.1-11-9.2-18.6-11.3c-1.5-0.4-3.2-0.7-4.4-0.1c-0.7,0.5-1.3,1.2-1.4,2.1c-0.7,2.8,0.3,5.8,2.5,7.7
	c5.4,4.6,15.8,2.8,21.7,7.1c2.1,1.5,3.2,3.5,4.3,5.5l9.4,16.9c-2.8-3.6-3.9-7.9-7.4-11.2s-10.9-5.1-13.9-1.9c-1.9,2-1,5.1,1.1,7.3
	s5.1,3.8,7.7,5.6c11.3,7.7,16.3,19,20.9,29.6c-1.2-5.1-4.5-10.1-9.3-14c-1.9-1.6-4.9-3.1-7.2-2.1c-0.7,0.3-1.3,0.8-1.7,1.5
	c-2,3.4,0.5,7.7,4,10.7s8.2,5.2,11.7,8.2c11.3,9.6,12.2,23.5,18.5,34.6C474.9,399.2,480.9,371.8,481.4,366.6z"/>
<g>
	<path class="st10" d="M920.4,414.4c-0.3,6.1,0.8,12.1,3.2,17.8c-40-45.9-64.8-100.5-89.1-154.3c-14-31.1-28.1-62.3-36.1-95
		c-5.9-24.3-8.7-50.2-23.9-71.1c24.9,25.7,50.4,54.6,51.4,88.5l1.8-6.6c-2.9,24.4-1.6,49.1,3.9,73.2c3.4-29.2,7.5-60,27.1-83.6
		c-7.4,25.3,6.5,51.8,4.7,77.9c-1.2,17.6-9.4,34.1-13.3,51.4c17.3-20.5,30.4-43.5,38.7-67.9c12.2,14.9,7,35.9-1.7,52.6
		s-20.6,33.2-20.3,51.6c12.3-18.8,26.1-36.9,41.4-53.9c3.4-3.8,10.5-7.5,13.3-3.3c1.2,1.7,0.7,4,0,5.9
		c-4.4,13.1-12.7,24.9-18.6,37.5c-11.8,25.4-13.5,53.6-4.9,80l-72.3-32.8c-9.4-4.3-19-8.6-26.5-15.3c-12.9-11.3-18.2-27.7-22.9-43.2
		c10.4,10.6,24.3,17.9,39.7,20.9c9.7,1.9,19.8,2,29.5,4.2c9.6,2.2,19.2,7.3,22.8,15.5c-15-12.9-31.9-24.1-50.1-33.2
		c-14.1-7.1-29.4-13.1-40.3-23.8c-14.8-14.5-19-34.8-22.6-54.1c10,17.2,24.9,31.7,43.3,42.1c10.9,6.1,22.8,10.7,33.1,17.5
		s19.2,16.5,20.3,27.9c-0.9-21.1-16.9-39.5-34.9-53.3s-38.8-25-54.8-40.7c-17.9-17.6-28.7-40-30.8-63.6
		c18.7,40.6,64.2,65.2,101.6,93.9c5.9,4.5,12.1,11.7,8.1,17.6c-14.9-23.1-30.3-46.7-53-64.1c-9-6.9-19.1-12.8-26.7-20.9
		c-20-21.2-18.7-52-29-78.1c28,29,56.4,58.6,72.4,94c4.2,9.4,7.6,19.2,10.9,28.9"/>
	<path class="st10" d="M764,449.8c-1.5,4.4-1.7,9-0.8,13.7c-24.8-42.7-34.9-88.2-44.9-133c-5.7-25.9-11.4-51.9-11.7-77.6
		c-0.2-19.1,2.6-38.6-6.1-57.3c16,24.5,31.9,51.4,26,76.4l2.8-4.4c-7.3,17.1-11.1,35.4-11.2,54.2c8.7-20.5,18.3-42,39.6-54.7
		c-11.3,16.7-4.8,39.2-11.5,57.9c-4.5,12.5-14.7,22.7-21.5,34.4c18.7-10.9,34.4-24.7,46.3-40.5c7.4,13.7-1.2,27.8-11.9,37.9
		c-10.7,10.2-24,19.4-27.4,32.9c14.2-10.9,29.4-20.9,45.8-29.7c3.6-2,10.4-3,11.9,0.7c0.7,1.5-0.2,3.1-1.2,4.3
		c-6.3,8.5-15.7,15.2-23.2,23c-15,15.8-22.1,35.9-20,57.2l-54.7-40.6c-7.1-5.3-14.4-10.7-19.4-17.3c-8.7-11.2-9.9-24.4-10.8-36.8
		c6.7,10.1,17,18.7,29.5,24.4c7.8,3.6,16.4,6,24.2,9.9c7.7,3.8,14.8,9.8,16.2,16.6c-10.1-12.9-22.2-24.9-35.9-35.8
		c-10.5-8.4-22.3-16.3-29.4-26.6c-9.7-14-9.2-29.7-8.4-44.6c5.1,14.8,14.8,28.8,28.3,40.7c8,7,17.2,13.1,24.6,20.4
		c7.4,7.3,13,16.5,11.7,25c3.4-15.6-6.5-32.7-19-46.9c-12.5-14.2-27.9-27.2-38.4-42.3c-11.7-17-16.4-35.8-13.5-53.5
		c7.8,33.9,41.5,62.3,67.4,91.9c4.1,4.6,7.9,11.3,3.4,14.7c-8-20.3-16.4-41-32.2-58.9c-6.3-7.1-13.6-13.7-18.5-21.4
		c-12.7-20.1-5.5-42.2-9.1-63.6c18,27.6,36.2,55.7,42.7,85.2c1.7,7.8,2.6,15.7,3.5,23.6"/>
	<path class="st10" d="M-143.2,187.5c-5.4-4.7-12-8.2-19.2-10.3c69.1-3,137.2,14.8,204.2,32.5c38.7,10.3,77.5,20.5,114,37.6
		c27.1,12.8,53.8,29.5,83.4,31c-40.2,4-84,6.1-117.3-18.4l5.2,6.7c-21-20.5-45.7-37.9-73-51.4c26,25.1,53.2,52,63.7,88.1
		c-19.8-25.9-53.9-32.8-78-54c-16.2-14.3-27-34.4-41.3-51c8.6,30.8,22.6,60.2,41.5,87.2c-21.9,0.3-38.9-20.4-49.6-41.1
		s-19.2-44.2-37.2-57.8c10.6,25.9,19.4,52.3,26.3,79.1c1.5,6,0.7,15.4-5,14.9c-2.4-0.2-4.2-2.3-5.7-4.4
		c-9.9-13.9-16.1-30.6-24.6-45.6c-16.9-29.9-43.6-53.1-74.1-64.6l76.5-42.9c10-5.6,20.2-11.3,31.2-13.3c19-3.6,38,3.8,55.9,11
		c-16.5,1.7-32.5,9.3-44.8,21.4c-7.9,7.7-14.2,17.1-22.4,24.4s-19,12.5-29.1,9.6c22.1-4.4,43.4-11.8,63.1-21.8
		c15.6-7.9,30.9-17.6,48-19.8c23.1-2.9,45.4,8.4,66.2,19.5c-23-3.6-46.7-0.5-67.5,8.8c-12.7,5.6-24.5,13.3-37.5,17.8
		s-27.9,5.5-39.5-2c20.9,15.1,48.5,13.9,73.1,7.4s48.2-17.5,73.2-20.7c27.8-3.5,56.6,3.3,80.5,19C146.3,171.5,94.4,195.6,43.4,209
		c-8,2.1-18.8,2.6-22-5.6c31.5,3.4,63.8,6.8,94.7-1.4c12.2-3.2,24.2-8.2,36.7-9.3c32.9-2.8,61.8,21.5,93.4,31.5
		c-45.3,4.4-91.5,8.7-135.6-2.9c-11.7-3.1-23.2-7.3-34.6-11.5"/>
	<path class="st10" d="M-139.9,351.2c-4.7-5.4-10.8-9.7-17.7-12.7c68.9,6.1,134.1,32.6,198.2,58.9c37,15.3,74.2,30.5,108.1,52.2
		c25.2,16.2,49.5,36.3,78.6,41.6c-40.4-1.3-84.1-4.9-113.9-33.6l4.3,7.3c-18.1-23.1-40.3-43.6-65.6-60.5
		c22.5,28.3,45.9,58.5,51.6,95.7c-16.2-28.3-49.1-39.6-70.3-63.7c-14.2-16.3-22.3-37.6-34.3-56c4.5,31.7,14.5,62.6,29.7,91.9
		C7.2,469.8-7,447-14.9,425.1s-13.3-46.3-29.3-62.2c7.1,27.1,12.4,54.4,15.7,81.9c0.7,6.1-1.3,15.4-6.9,14.1
		c-2.4-0.5-3.9-2.8-5.1-5.1c-8-15.1-12-32.4-18.4-48.4c-12.8-31.9-36.3-58.3-65-73.7l81.5-32.5c10.6-4.2,21.5-8.6,32.7-9.1
		c19.3-1.1,37.2,8.7,54,18.2c-16.6-0.5-33.4,5-47.2,15.4c-8.8,6.6-16.3,15.1-25.4,21.3s-20.5,9.9-30.1,5.7
		c22.5-1.5,44.6-6,65.4-13.4c16.5-5.8,32.9-13.4,50.2-13.3c23.3,0.1,43.9,14.3,63.1,28c-22.3-6.6-46.2-6.6-68.1-0.1
		c-13.3,3.9-26,10-39.5,12.7s-28.4,1.8-38.9-7.2c18.7,17.7,46.3,20.1,71.5,16.9s50.1-11,75.3-10.9c28,0.2,55.7,10.7,77.3,29.4
		c-48.6-19.4-103.2-2.3-155.5,4.3c-8.2,1-19,0.1-21.1-8.4c30.8,7.5,62.4,15.1,94.1,11c12.5-1.6,25.1-5,37.6-4.4
		c33,1.5,58.5,29.4,88.5,43.5c-45.5-1.6-91.9-3.3-134.1-20.6c-11.2-4.6-22-10.3-32.8-15.9"/>
	<path class="st10" d="M252.6,418.4c2.3-1.2,4.6-2.9,5.5-5.3c1.4-3.8-1.4-7.8-5-8.9s-7.7,0.1-11.4,1.8c-5.3,2.5-10.2,5.8-14.2,9.9
		c11.3-7.6,21.5-16.6,30.5-26.7c1.9-2.1,3.9-4.9,3-7.5c-0.9-2.5-4.4-3.1-6.9-1.8c-2.5,1.3-4.3,3.7-5.9,6l-19,27.4l25.2-46.6
		c6.3-11.7,14.7-24.9,27.4-27c1.2-0.3,2.4-0.2,3.5,0.3c3,1.9,0.5,6.9-2.4,9.5c-8.7,8.2-18.9,14.6-30.1,19.1
		c7.1-6.6,7.4-17.2,8.8-26.6c1.2-8.4,3.6-16.6,7.2-24.4c6.1-13.4,17.8-26.6,31.9-27c1.7-0.1,3.4,0.1,4.6,1.2
		c3.3,2.8,0.1,8.8-3.7,11.6c-6.4,4.8-14.1,7-21.2,10.6c-6.9,3.6-13,8.3-18.1,14.1c0.1-6.1-0.2-12.3-1.1-18.3
		c-0.2-1.9-0.6-3.8-1.9-5.1c-2.7-2.8-8.3-0.5-9.9,3.4s-0.2,8.2,1.9,11.5s5.1,6,7.1,9.5c2,3.4,2.8,8,0.6,11.7
		c-1.7-6.7-6.5-12.3-13-15c-2.5,1.6-2.2,5.6-0.4,7.6c1.9,2.1,4.6,3,6.9,4.6c6.6,4.7,7.5,15.5,1.9,22.2c-3-7.5-7.6-14.3-13.4-19.8
		c-3.5,2.3-1.9,7.8,1.2,9.9c3.2,2.1,7.4,2.6,10.3,5.1c4.1,3.4,4.5,9.9,2.5,15.3s-5.9,9.8-9.8,14.1c0.7-4.9,1.5-10.1,0.5-14.8
		c-1-4.8-4-9.3-8.7-10.5c-1.3-0.3-2.9-0.3-3.8,0.8c-0.6,0.8-0.9,1.8-0.8,2.7c-0.1,5.2,2,10.2,5.8,13.8c1.2,1.2,2.8,2.3,3.2,4
		s-0.4,3.7-1.2,5.4c-3.3,7.1-13.7,22.2-11.5,30.3C231.3,425.2,246.4,421.6,252.6,418.4z"/>
	<path class="st10" d="M499.5,404.8c-2.4-1-4.7-2.4-5.7-4.7c-1.5-3.6,1.2-7.8,4.9-9.3c3.7-1.4,7.9-0.7,11.6,0.6
		c5.4,1.9,10.3,4.7,14.5,8.4c-11.4-6.4-22-14.2-31.3-23.3c-2-1.9-4-4.5-3.2-7.1s4.4-3.4,7-2.5s4.4,3.2,6.1,5.4l19.8,25.1L496.8,354
		c-6.6-10.9-15.3-23.1-28.2-23.9c-1.2-0.2-2.5,0.1-3.5,0.7c-3,2.1-0.3,6.8,2.6,9.1c9.1,7.2,19.6,12.6,30.8,15.8
		c-7.3-5.8-7.9-16.3-9.4-25.4c-1.4-8.1-4-15.9-7.7-23.3c-6.4-12.6-18.5-24.5-32.8-23.4c-1.7,0.1-3.5,0.5-4.6,1.6
		c-3.3,3.2,0.1,8.6,4,11c6.6,4.1,14.4,5.5,21.6,8.4c6.9,2.7,13.2,6.9,18.6,12.1c-0.2-6,0-12.1,0.7-18.2c0.2-1.9,0.5-3.8,1.7-5.2
		c2.7-3.1,8.4-1.3,10.1,2.3c1.7,3.6,0.4,8.1-1.7,11.5s-5,6.4-7,10s-2.7,8.2-0.4,11.5c1.7-6.9,6.4-12.8,12.8-16
		c2.6,1.3,2.4,5.3,0.6,7.5s-4.6,3.4-6.9,5.2c-6.5,5.2-7.2,16.1-1.5,22c2.9-7.8,7.4-14.9,13.1-20.9c3.5,1.9,2.1,7.5-1.1,9.9
		s-7.4,3.3-10.3,6c-4,3.8-4.3,10.3-2.2,15.4c2.2,5.1,6.3,9.1,10.2,12.9c-0.9-4.8-1.7-9.7-0.8-14.6s3.8-9.6,8.5-11.3
		c1.3-0.5,2.9-0.6,3.9,0.4c0.6,0.8,0.9,1.7,0.9,2.7c0.2,5.3-1.9,10.4-5.5,14.2c-1.2,1.3-2.8,2.5-3.2,4.3c-0.4,1.7,0.4,3.6,1.3,5.2
		c3.5,6.7,14.4,20.6,12.3,28.7C521.3,409.4,505.9,407.3,499.5,404.8z"/>
	<g>
		<path class="st10" d="M411.4,349.7c0,24.3,0,48.6,0,72.9c0,0.2,0,0.5,0,0.7s-0.1,0.2-0.3,0.2c-0.4,0-0.8,0-1.1,0
			c-141.4,0-282.8,0-424.2,0c-0.5,0-1.2,0.1-1.4,0c-0.2-0.2-0.1-0.6-0.1-0.9c0-24.3,0-48.6,0-72.9c0.5-0.3,1.2-0.3,1.9-0.2
			c5.9,0.5,11.8,1,17.8,1.2c4.1,0.2,8.3,0.3,12.5,0.3c6.5,0,12.9,0.1,19.4-0.3c11.3-0.7,22.6-1.5,33.7-3.3c8.7-1.4,17.2-3,26-4.1
			c6.2-0.8,12.4-1.4,18.7-1.3c9.7,0.1,18.9,1.6,27.9,3.9c6.3,1.6,12.5,3.4,18.6,5.4c5,1.6,10.3,2.6,16,2.4c6-0.3,11.8-1.3,17.4-2.9
			c6-1.7,11.6-3.8,17.3-5.9c7.6-2.8,15.8-4.5,24.7-4.3c5.6,0.1,11.2,0.8,16.7,1.6c5.8,0.8,11.6,1.5,17.5,2c1.6,0.1,3.2,0.2,4.7,0.2
			c2.7,0.1,5.4,0.2,8,0.2c3.8,0,7.5-0.2,11.3-0.3c9.7-0.4,19.1-1.7,28.5-3c3.1-0.4,6.3-1,9.4-1.6c5.3-1,10.7-1.8,16.3-1.8
			c8.3,0,16.1,1.3,23.8,3.3c6.3,1.6,12.5,3.5,18.8,5c5.1,1.2,10.4,1.9,15.7,2.6C408.3,348.9,410.1,348.8,411.4,349.7z"/>
		<path class="st10" d="M838.2,349.7c0,24.3,0,48.6,0,72.9c0,0.2,0,0.5,0,0.7s-0.1,0.2-0.3,0.2c-0.4,0-0.8,0-1.1,0
			c-141.4,0-282.8,0-424.2,0c-0.5,0-1.2,0.1-1.4,0c-0.2-0.2-0.1-0.6-0.1-0.9c0-24.3,0-48.6,0-72.9c0.5-0.3,1.2-0.3,1.9-0.2
			c5.9,0.5,11.8,1,17.8,1.2c4.1,0.2,8.3,0.3,12.5,0.3c6.5,0,12.9,0.1,19.4-0.3c11.3-0.7,22.6-1.5,33.7-3.3c8.7-1.4,17.2-3,26-4.1
			c6.2-0.8,12.4-1.4,18.7-1.3c9.7,0.1,18.9,1.6,27.9,3.9c6.3,1.6,12.5,3.4,18.6,5.4c5,1.6,10.3,2.6,16,2.4c6-0.3,11.8-1.3,17.4-2.9
			c6-1.7,11.6-3.8,17.3-5.9c7.6-2.8,15.8-4.5,24.7-4.3c5.6,0.1,11.2,0.8,16.7,1.6c5.8,0.8,11.6,1.5,17.5,2c1.6,0.1,3.2,0.2,4.7,0.2
			c2.7,0.1,5.4,0.2,8,0.2c3.8,0,7.5-0.2,11.3-0.3c9.7-0.4,19.1-1.7,28.5-3c3.1-0.4,6.3-1,9.4-1.6c5.3-1,10.7-1.8,16.3-1.8
			c8.3,0,16.1,1.3,23.8,3.3c6.3,1.6,12.5,3.5,18.8,5c5.1,1.2,10.4,1.9,15.7,2.6C835.1,348.9,836.9,348.8,838.2,349.7z"/>
	</g>
	<path class="st10" d="M125.9,401c0.2,4.2-0.5,8.3-2,12.2c24.8-31.5,40.1-68.9,55.1-105.8c8.7-21.3,17.4-42.7,22.3-65.2
		c3.7-16.7,5.4-34.4,14.8-48.8c-15.4,17.6-31.2,37.5-31.8,60.7l-1.1-4.5c1.8,16.7,1,33.7-2.4,50.2c-2.1-20-4.6-41.2-16.8-57.3
		c4.6,17.4-4,35.5-2.9,53.4c0.7,12.1,5.8,23.4,8.2,35.3c-10.7-14.1-18.8-29.8-24-46.6c-7.6,10.2-4.3,24.6,1.1,36.1
		s12.7,22.8,12.6,35.4c-7.6-12.9-16.2-25.3-25.6-37c-2.1-2.6-6.5-5.1-8.2-2.3c-0.7,1.2-0.4,2.7,0,4c2.7,9,7.9,17.1,11.5,25.7
		c7.3,17.4,8.4,36.8,3,54.9l44.7-22.5c5.8-2.9,11.8-5.9,16.4-10.5c8-7.8,11.3-19,14.2-29.6c-6.4,7.3-15,12.3-24.6,14.3
		c-6,1.3-12.3,1.4-18.3,2.9c-5.9,1.5-11.9,5-14.1,10.6c9.3-8.8,19.7-16.5,31-22.8c8.7-4.9,18.2-9,24.9-16.3
		c9.2-9.9,11.8-23.9,14-37.1c-6.2,11.8-15.4,21.7-26.8,28.9c-6.7,4.2-14.1,7.3-20.5,12s-11.9,11.3-12.6,19.1
		c0.6-14.5,10.5-27.1,21.6-36.6s24-17.1,33.9-27.9c11.1-12.1,17.8-27.4,19.1-43.6c-11.6,27.9-39.7,44.7-62.9,64.4
		c-3.7,3.1-7.5,8-5,12.1c9.2-15.8,18.8-32,32.8-44c5.6-4.7,11.8-8.8,16.5-14.3c12.4-14.5,11.6-35.7,17.9-53.6
		c-17.3,19.9-34.9,40.2-44.8,64.5c-2.6,6.4-4.7,13.2-6.7,19.8"/>
	<path class="st10" d="M575.9,404.6c-0.4-2.5-0.6-5.1,0.5-7.4c1.1-2.4,4-4.4,6.9-4.1c3.2,0.3,4.9,3.2,5.7,5.8
		c1.9,5.8,1.9,12.1,1.8,18.2l-0.2,19.8c-0.1-14.5,1.5-29.1,4.5-43.4c1.6-7.8,3.7-15.6,2.1-23.2c-0.9-4.7-3.3-9.1-4.3-13.9
		c-1.5-6.7-0.6-13.8,2.7-20c1-2,2.5-4.1,5-4.6c3.9-0.7,6.2,3.2,6.6,6.5c1.4,13.4-7.7,26.8-9.5,40.4c2.2-15.9,7.2-31.3,15-45.4
		c1.9-3.4,3.8-6.7,4.7-10.3c0.9-3.6,0.6-7.1,0.2-10.6l-1.8-19.9c-0.2-2.5-0.4-5,0.6-7.4c1.1-2.4,3.7-4.5,6.6-4.4
		c2.4,0.1,4.5,1.6,5.3,3.9c0.7,2.1,0.5,4.3,0.1,6.4c-2,13-6.3,25.5-12.4,37.1l31.3-66.2c1.2-2.7,2.6-5.4,5-7.5
		c3.5-2.9,8.4-3.8,13.1-4.7c1.4-0.3,3.1-0.5,4.2,0.3c0.6,0.5,1,1.2,1.1,2c1.3,5.6-3,11.4-8.2,15.3c-5.3,3.9-11.6,6.7-17,10.5
		c-6,4.2-10.6,10-13.4,16.7c3.5-4.2,8.2-7.3,13.4-9.2c3.5-1.3,8.3-1.6,10.1,1c2.2,3.2-2.2,7.4-6.6,8.6s-9.3,1-13.1,3.4
		c-2.2,1.4-3.7,3.4-5.2,5.4l-15.4,21.2c3.6-5.4,8.9-9.6,15.1-11.8c1.2-0.5,2.7-0.8,3.8-0.3c0.7,0.5,1.2,1.2,1.4,2.1
		c0.9,2.6,0.3,5.5-1.5,7.6c-4.3,4.7-13.6,3.4-18.3,7.8c-1.7,1.6-2.5,3.6-3.3,5.6l-6.7,16.9c2.1-3.7,2.7-7.9,5.4-11.3s9-5.4,11.9-2.5
		c1.9,1.9,1.3,4.9-0.3,7.1c-1.6,2.3-4.1,3.9-6.3,5.8c-9.2,8-12.6,19.3-15.5,29.8c0.7-5.3,3.1-10.2,6.9-14.1c1.5-1.6,4-3.2,6.1-2.4
		c0.7,0.3,1.2,0.8,1.6,1.4c2.1,3.2,0.3,7.5-2.5,10.6s-6.6,5.5-9.5,8.6c-9,9.9-8.5,23.5-13.1,34.6
		C584.3,436.2,576.7,409.7,575.9,404.6z"/>
	<path class="st10" d="M349.6,424.8c-0.3-3.7-0.3-7.5,2.3-11c2.6-3.5,8.2-6.3,13.5-5.6c5.8,0.8,8.5,5.1,9.6,9
		c2.5,8.8,1.4,18,0.3,27.2l-3.6,29.4c2.4-21.8,7.6-43.3,15.5-64.1c4.3-11.4,9.3-23,7.8-34.3c-1-7.1-4.5-13.8-5.7-20.9
		c-1.7-9.8,1.2-20.2,8.2-29.4c2.2-2.9,5.4-6,10.1-6.4c7.3-0.8,10.9,5.3,11,10.2c0.4,20.1-18.6,39.2-24.4,59.3
		c6.3-22.9,18.3-45.5,35.4-66.4c4-4.9,8.2-9.7,10.4-14.9c2.2-5.3,2.2-10.5,2.2-15.8v-29.6c0-3.7,0-7.5,2.4-10.9
		c2.8-3.9,7.7-6.3,13-6.1c4.2,0.2,7.8,2.7,9.1,6.2c1,3.1,0.1,6.4-0.8,9.6c-6.2,19.4-16.1,37.7-29.3,54.2l69-96.1
		c2.8-3.9,5.6-7.8,10.5-10.7c6.9-4.1,16.3-5.1,25-5.9c2.7-0.3,5.8-0.4,7.7,0.8c1,0.7,1.7,1.8,1.8,3c1.4,8.3-7.4,16.7-17.8,22.1
		c-10.4,5.5-22.6,9-33.1,14.4c-12.2,6.1-21.9,14.5-27.7,23.8c7.5-6,16.5-10.4,26.3-12.7c6.8-1.6,15.6-1.8,18.5,2.2
		c3.6,4.9-5.4,10.8-13.7,12.3s-17.5,0.9-24.9,4.1c-4.4,1.9-7.5,4.8-10.5,7.6l-32.1,30.4c7-7.5,17.8-13.4,30-16.5
		c2.4-0.6,5.2-1,7.1-0.1c1.2,0.7,2.1,1.8,2.3,3.1c1.1,4.1-0.5,8.4-4.1,11.2c-8.7,6.7-25.6,4.1-35.1,10.3c-3.4,2.2-5.2,5.1-7,8
		l-15.2,24.6c4.5-5.3,6.3-11.5,11.9-16.3s17.6-7.4,22.5-2.8c3.1,2.9,1.6,7.4-1.8,10.6s-8.2,5.5-12.5,8.2
		c-18.3,11.2-26.4,27.7-33.7,43.2c1.9-7.4,7.2-14.7,15-20.4c3.1-2.3,7.9-4.5,11.6-3.1c1.2,0.5,2.1,1.2,2.7,2.2
		c3.3,4.9-0.8,11.2-6.5,15.6s-13.2,7.6-18.9,12c-18.3,14-19.7,34.3-29.9,50.5C360,472.3,350.3,432.4,349.6,424.8z"/>
</g>
</svg>
