<svg xmlns="http://www.w3.org/2000/svg" xmlns:xlink="http://www.w3.org/1999/xlink" viewBox="0 0 1750 800"><defs><style>.cls-1{fill:none;}.cls-2,.cls-8{fill:#ffeae1;}.cls-2{stroke:#ffeae1;stroke-width:2px;}.cls-10,.cls-2{stroke-linecap:round;stroke-linejoin:round;}.cls-3{clip-path:url(#clip-path);}.cls-4{fill:url(#linear-gradient);}.cls-5{fill:#fcc2a6;}.cls-6{fill:#fac29b;}.cls-7{fill:#fdd4c0;}.cls-10,.cls-9{fill:#7fb3b5;}.cls-10{stroke:#7fb3b5;stroke-width:5px;}.cls-11{fill:#a2ece3;}.cls-12{fill:#5f8d95;}</style><clipPath id="clip-path"><rect class="cls-1" width="1750" height="800"/></clipPath><linearGradient id="linear-gradient" x1="779.92" y1="-138.7" x2="970.08" y2="939.7" gradientUnits="userSpaceOnUse"><stop offset="0.53" stop-color="#d4d5c4"/><stop offset="0.72" stop-color="#bedfd2"/><stop offset="0.92" stop-color="#a2ece3"/></linearGradient></defs><g id="stars"><circle class="cls-2" cx="1085.5" cy="624.5" r="4.5"/><path class="cls-2" d="M1402.8,565.94a24.55,24.55,0,0,0,2.72,2.13,25.45,25.45,0,0,0,8.82,3.75,22.74,22.74,0,0,0-8.55,4.06,21.49,21.49,0,0,0-2.83,2.6,18.5,18.5,0,0,0-2.55,2.78,19.32,19.32,0,0,0-3.58,8.91,23.51,23.51,0,0,0-4.22-8.83,22.19,22.19,0,0,0-2.19-2.43,21.85,21.85,0,0,0-3.08-2.48,22.62,22.62,0,0,0-8.47-3.41,29.22,29.22,0,0,0,8.2-4,28.83,28.83,0,0,0,3.19-2.61,22.74,22.74,0,0,0,3.26-4.2,22.42,22.42,0,0,0,2.86-7.48,24.87,24.87,0,0,0,2.83,6.71A24.43,24.43,0,0,0,1402.8,565.94Z"/><path class="cls-2" d="M1706.23,461a32.48,32.48,0,0,0,3.41,2.7,33.11,33.11,0,0,0,10.95,4.87,26.28,26.28,0,0,0-10.37,4.7,25.06,25.06,0,0,0-3.4,3.11,20.86,20.86,0,0,0-3,3.32,22.51,22.51,0,0,0-4.12,10.8,30.34,30.34,0,0,0-5.46-10.95,31.28,31.28,0,0,0-2.77-3.05,28.39,28.39,0,0,0-3.85-3.13,29.41,29.41,0,0,0-10.51-4.44,34,34,0,0,0,9.94-4.7,32.13,32.13,0,0,0,3.83-3.1,25.17,25.17,0,0,0,3.88-5.05A26.44,26.44,0,0,0,1698,447a31.75,31.75,0,0,0,8.23,14Z"/><path class="cls-2" d="M1715.23,420a17.65,17.65,0,0,0,7.18,3.9,12.44,12.44,0,0,0-5.07,2.19,11.08,11.08,0,0,0-1.64,1.5,8.89,8.89,0,0,0-1.46,1.6,10.51,10.51,0,0,0-1.91,5.28,15.9,15.9,0,0,0-2.83-5.47,16.44,16.44,0,0,0-1.4-1.53,15.9,15.9,0,0,0-1.94-1.59,15.18,15.18,0,0,0-5.25-2.31,16,16,0,0,0,4.86-2.21,14.93,14.93,0,0,0,1.86-1.48A12,12,0,0,0,1711,413a16.65,16.65,0,0,0,1.91,4.14A17.44,17.44,0,0,0,1715.23,420Z"/><path class="cls-2" d="M1356.86,622.5a16.78,16.78,0,0,0,1.71,1.37,17.23,17.23,0,0,0,5.47,2.53,12.43,12.43,0,0,0-5.07,2.2,11.06,11.06,0,0,0-1.64,1.49,9.63,9.63,0,0,0-1.46,1.6A10.7,10.7,0,0,0,1354,637a15.72,15.72,0,0,0-2.82-5.46,15.21,15.21,0,0,0-1.41-1.53,13.77,13.77,0,0,0-1.94-1.59,15.15,15.15,0,0,0-5.24-2.31,16.2,16.2,0,0,0,4.86-2.21,16.79,16.79,0,0,0,1.86-1.48,12.32,12.32,0,0,0,3.37-6.88,16.81,16.81,0,0,0,1.91,4.14A17.31,17.31,0,0,0,1356.86,622.5Z"/><circle class="cls-2" cx="1075.5" cy="477.5" r="4.5"/><circle class="cls-2" cx="1208.5" cy="504.5" r="4.5"/><circle class="cls-2" cx="1348.5" cy="562.5" r="4.5"/><circle class="cls-2" cx="998.97" cy="640.69" r="1.5"/></g><g id="mask"><g class="cls-3"><g id="bkg"><path class="cls-4" d="M1751,802H-1V-1H1751c.07,0,0,275,0,297.48V802Z"/><path class="cls-5" d="M1415.38,456.83c-3.3,6.9-7.06,13.84-7.7,21.38s2.79,16,10.15,18.78c6.49,2.46,14-.13,19.72-4,6.27-4.29,11.46-10.47,12.9-17.67s-1.5-15.39-8.13-19.07a19.64,19.64,0,0,0,13.63.49c4.35-1.61,7.88-5.56,8.06-10a15,15,0,0,0-2.43-7.88c-4.13-7.2-21.68-24.45-31.95-18.85-4.34,2.37-4.1,10.41-5.24,14.41C1422.21,442.06,1418.82,449.6,1415.38,456.83Z"/><circle class="cls-2" cx="1571.5" cy="366.5" r="4.5"/><circle class="cls-2" cx="1482.5" cy="484.5" r="4.5"/><circle class="cls-2" cx="1730.5" cy="518.5" r="4.5"/><circle class="cls-2" cx="980.97" cy="596.69" r="1.5"/></g><g id="clouds_3" data-name="clouds 3"><path class="cls-5" d="M731.62,682c32.24,5.84,67-4.67,90.63-27.4s33.46-60.58,28.84-93c10.44,11.74,26,17.69,41.5,20.4,41.32,7.23,85.8-7.05,115.18-37s40.28-76.44,32.28-117.61a117.16,117.16,0,0,1,154.17,20.27c7.5,8.65,13.76,18.41,22.13,26.21a68.84,68.84,0,0,0,53.09,17.87c11.25-1.14,23.5-6.42,27.1-17.13,12.75,18.26,38.94,24,60,16.6s36.87-25.63,45.93-46,10.22-43.84,12.21-66c10.4,17.88,31.87,28,52.52,26.79s40-13.06,52.3-29.66c8.4-11.3,13.83-26.63,8-39.42,18.88,4.71,36.65-10.34,38.61-29.71a92.25,92.25,0,0,1,60.5,16.68c8.86,6.31,17,15,18.62,25.71,2.26,14.6-7.81,28.15-18.48,38.37s-23.07,19.9-27.77,33.91c-1.38,4.1-.21,10.54,4.08,10-1.75-5.84-.07-10.61,2.84-16a36.74,36.74,0,0,1,15-14.83c10.4-5.48,22.74-5.64,34-9.05s22.71-12.58,21.69-24.3c-1.83-.06-.72-2.66-2.55-2.73,6.68-4.44,13.5-9,18.25-15.49s7.07-15.32,3.8-22.65c-2.36-5.29-7.18-9-11.8-12.48-2.83-2.12-6.72-4.3-9.62-2.28,6.72-8.1,19.59-16.54,29.11-12,4,1.92,7,5.53,9.7,9.1,7.12,9.35,13.78,19.37,23.29,26.28s22.88,10,33.06,4.17c10.53-85.09,3.64-173.3-12.2-257.56-2.09-11.12-4.7-22.8-12.39-31.1-12.36-13.34-33-13.48-51.2-12.6C1204.64,62,712.92,123.84,226.72,63.73,148.68,54.08,70.3,41.28-8.16,46.6L-19.61,368.79c-2.25,63.3-4.46,127.22,7.23,189.47,6.59,35.08,18.2,70.44,42.06,97,19,21.2,44.62,35.36,70.53,47.24C277.58,783.85,481.62,773.21,676.38,761c7.63-.48,15.73-1.12,21.88-5.67C716.92,741.5,712.49,695.11,731.62,682Z"/><path class="cls-5" d="M1622.53,359c2.32-5.06,3.8-11,1.78-16.14a13.07,13.07,0,0,0-24.8,1.33c-.88,3.27-.46,6.73.14,10.06.77,4.23,3,20.33,8.15,21.62C1613.64,377.29,1620.76,362.84,1622.53,359Z"/><path class="cls-5" d="M1647.92,406.42a6.67,6.67,0,0,1,3.22.61,5.27,5.27,0,0,1,2.39,4.68c0,4.89-5.17,9.08-9.94,8l4.65,3.72c-.4,2.26-3.41,2.69-5.7,2.59-7.89-.37-24.28,2.75-17.64-8.71C1629,410.26,1640.28,406.38,1647.92,406.42Z"/><path class="cls-5" d="M1761.23,361.87c-.5,2.73-3.79,3.85-6.56,4.07-14.43,1.14-28.14-8.19-36-20.38-.86-1.34-1.79-2.83-3.31-3.34-2.89-1-5.47,2.15-6.64,5-3.71,8.94-3.54,19.22-.54,28.42s8.71,17.36,15.58,24.17c5.93,5.89,12.89,10.92,20.8,13.59s16.88,2.82,24.47-.67"/><path class="cls-6" d="M839.1,666.06A79.16,79.16,0,0,0,881.49,604c8.86,6.77,22.54,8.16,33.6,6.78s21.78-4.9,32.84-6.34c2.14-.28,4.65-.35,6.07,1.28a6.25,6.25,0,0,1,1.11,4.1c.07,10.39-5.35,20.09-12.06,28-16.66,19.69-41.75,31.07-67.32,34.46-15.82,2.11-32.83,1.11-46.29-7.47"/></g><g id="clouds_2" data-name="clouds 2"><path class="cls-7" d="M1747.3,253.89a39.89,39.89,0,0,1-31.62,28.31c-14.78,2.3-31.27-.6-39.39-13.17,4.37,3.93,4.14,10.84,2.59,16.51C1675.46,298,1668,310.27,1656.94,317c5.72-1.21,10.77,5.22,10.3,11s-4.6,10.66-8.87,14.65c-1,.9-3.38,3.62-3.46,2.3-18.86-12.8-26.27-40-16.52-60.58-2.76,7.34-11.91,9.54-19.68,10.53-14.74,1.88-29.76,3.22-44.39.64s-29-9.49-37.85-21.42c-22.51,34.11-68.52,46.93-108,36.24,4.25,2.18,3.53,8.48,1.58,12.83-11.78,26.35-47.77,38.41-73,24.48-2.72,7.89-4.6,13.15-10.35,19.2s-13.67,10.37-22,10.51c-12.32.22-23.17-8.42-30.42-18.38a78.61,78.61,0,0,1-11.49-67.82c-13.26-.49-22.93,11.48-30.33,22.49a148.1,148.1,0,0,1-72.83,56.54c-15.42,5.47-32.15,8.34-48.23,5.32s-31.42-12.54-38.91-27.09c-10.43,13.36-33.4,15.68-48.9,8.81-3.46-1.53-7.15-4.5-6.52-8.23a197.46,197.46,0,0,1-147.7,59.22c-55.21-1.84-109.73-31.8-137.11-79.78-89.47,13.94-163.53,72.29-244,113.82a588.9,588.9,0,0,1-144.28,51.95c-30.2,6.58-64.73,9.88-89.27-8.92-16.07-12.3-24.64-31.88-31.32-51-20.72,10.21-49.73,5.47-68.63-7.8S147,385.92,157.66,365.41c-5.23-12-22.87-18.17-34.53-12.2-11.36,5.81-14.48,12.45-30.52,24.59C71.89,393.47,49.38,396.48,38,398c-15.92,2.13-35.06,4.68-48-3-29.84-17.7-19.74-85.63-15.34-118.67C-17.13,214.64-9,125.23-10,5.54c671.15-79,915.56-67,987-28.54a492.56,492.56,0,0,0,183.43,60.17c24.9,2.94,47.75,2.57,92.44,2.25,86.7-.63,173.05-10.56,259.68-14.25q86.33-3.68,172.74.91c8.8.47,18.22,1.22,25.13,6.69,7.38,5.84,10.15,15.61,12.37,24.75C1738,120.15,1764.14,191.68,1747.3,253.89Z"/><path class="cls-8" d="M1761,170c3,7.14,2.13,11.49,1,14-6,13.24-37.72,16.34-58,3a49.09,49.09,0,0,1-17-20,70.73,70.73,0,0,0-17,29c-5.3,18.58,1.14,28.25-7,42-8,13.58-22.22,17.53-24,18s-22.21,5.47-35.5-8.33a33.55,33.55,0,0,1-8.74-18.53c-15.23,9.9-39.31,11.19-56.7,6-19-5.7-38-16.23-46.51-34.09-31,47.24-85.28,83.15-140.11,96.76-29.21,7.25-63.59,7.33-85.45-13.34-23.72-22.43-23.58-59.61-21.1-92.16-13.93,17-29.89,29.82-50.29,38.05-27.66,11.15-60.67,4.28-84.45-13.72s-38.88-45.83-45.65-74.88c-23,12-42.35,31-60.35,49.62-21.75,22.53-46.85,42.87-76.47,53.06s-64.4,8.93-90.07-9c-20.35-14.24-33.18-37.72-37.52-62.17s-.78-49.82,6.84-73.47c-19.46,19.12-52.39,24-75.34,9.29-5.44-3.5-10.5-8.12-12.73-14.19-17.39-4.16-29.42,7.72-38.38,23.18-21.81,37.63-38.9,77.87-61.19,115.22s-50.74,72.51-88.92,93.32c-29.91,16.31-64.41,23-98.48,23.17-45.11.28-93.21-12.27-122.49-46.58C283.65,273,276.5,230.47,281,191.06c6.6-58.31,36.21-112.35,75.74-155.72S445.31-41.61,496.07-71c-32.17-14.84-70.68-7.47-105.92-3.83a378,378,0,0,1-99.72-2.94C287.22-31.38,261.29,14.45,228,47s-76.29,54.14-121.29,66.06c-42.13,11.16-87.32,14-129.09,1.64s-79.7-41.39-96.93-81.43C-92.46-32.61-21.7-62.41,47.24-80c161.36-41.1,330.74-31.47,497-21.56,202.13,12,404.28,24.11,606.19,39.45C1340.3-47.65,1530-30.31,1719.66-13c9.35.86,19.06,1.83,27.09,6.69,17.07,10.33,18.35,35.17,19.17,60.36A790.07,790.07,0,0,1,1761,170Z"/><path class="cls-8" d="M97.2-.86a173.63,173.63,0,0,1,5.73,97.43C97.66,119.28,84.87,143.41,62.24,149c17.37,25.38,2.8,63.11-23.64,78.8s-59.84,14-89.62,6.29c-11.51-43.84-25.79-89.1-14.53-133,2.62-10.18,6.59-20.34,13.82-28,8-8.45,19.16-13,29.81-17.72C15.21,38.94,65.28,24.23,97.2-.86Z"/><path class="cls-7" d="M345.6,514.77c-12.93,10.77-31.62,12.15-48,8.18-27.72-6.73-51.46-28-61.14-54.86-5.36,8.43-22.37,4.5-31.44.32s-19-10-28.37-6.37c-6.27,2.41-10.42,8.79-11.57,15.4s.27,13.44,2.5,19.77c11.79,33.57,45.82,56.1,81,61.14s71.16-5.11,103-21"/><path class="cls-5" d="M1456.1,335.43c-2.66-.17-5.48-.41-7.87.77-3.87,1.92-5.17,6.76-5.61,11.07-.48,4.84-.39,9.85,1.31,14.42s5.21,8.63,9.85,10.1c6.15,1.95,12.74-.89,18.24-4.25,6.37-3.9,35.13-24.85,32.14-34.48C1502.34,327.21,1463,335.86,1456.1,335.43Z"/><path class="cls-5" d="M226.91,333.09c3.79-13.74,9.59-27.13,10.35-41.36S232.13,261.59,219,256c-15.11-6.4-33.31,4.42-39.85,19.46s-4.07,32.48.73,48.17c5.19,16.93,14.22,36,29.05,46.63C228.7,384.45,223.94,343.87,226.91,333.09Z"/><path class="cls-5" d="M802.09,316.12a103.8,103.8,0,0,1,59.8-32.61c9.68-1.58,20.05-1.67,28.79,2.78,17.37,8.84,22,31.28,34.26,46.4,11.31,13.88,28.77,21,45.77,26.67-1.16,6.38-8,9.88-14.09,12-45.25,15.47-98.52,4.51-134-27.56"/></g><g id="clouds_1" data-name="clouds 1"><path class="cls-8" d="M1688.85,223.34c.93,4.68,2.45,9.46,5.78,12.88,5.91,6.05,17.09,5.58,22.47-.94a11,11,0,0,0,2.65-6.27c.27-5-3.81-9.13-7.57-12.49-3.53-3.17-16.73-18.89-21.37-18.29C1684.61,199,1687.89,218.49,1688.85,223.34Z"/><path class="cls-8" d="M716.12,119.62c-2.47-2.61-4.83-5.5-8.08-7.05-3.17,8.12-2.14,17.25-.37,25.79,2,9.6,5.64,20,14.33,24.54,5.7,3,12.64,2.76,18.78.85s11.66-5.38,17.1-8.82c-5.85,3.35,11.43,11.16,17.67,1.39,4.29-6.69-.82-9.83-7-12.67C749.78,135,731.59,136,716.12,119.62Z"/><path class="cls-8" d="M310.83,27.87c-3.2,15.34,1.54,16.69-1.76,26.94C302.67,74.68,279.7,85.64,263.36,88c-5.11.73-13.59,2.2-17.08-2.56-3.63-4.94-2.13-12.22-.1-18.15,4-11.76,10.94-24.16,22.14-26.41-2.7-2.14-2.15-6.74-.86-10.1C271,21.53,278,14.29,285.79,9.25c5-3.2,30.27-17.33,35.2-12C324.42.94,314.86,8.58,310.83,27.87Z"/><path class="cls-8" d="M128,165.5c-5.08,1.36-10.53,1.51-15.17-1.76a12.49,12.49,0,0,1-5.09-7.79c-1.18-6.06,2.16-12,5.81-15.5,11.84-11.22,26.14-7.73,39.41-10.5,5.82-1.21,12.49-5.84,6.89,5.63a68.29,68.29,0,0,1-13.09,18.6A43,43,0,0,1,128,165.5Z"/><path class="cls-7" d="M464.41,316.88c-6,8.56-18.14,11.05-28.23,8.3s-18.47-9.69-25.94-17a209.69,209.69,0,0,1-51.06-80.35c-4.83-13.85-8.22-28.46-7.24-43.09s6.75-29.36,17.82-39,27.8-13.18,41-6.72,20.6,23.75,14.33,37c1.6-8.1,8-14.64,15.37-18.32,22.76-11.33,52.07,3.57,63.39,26.33s8.43,50.13.84,74.39c-2.54,8.12-6.28,16.88-14,20.37"/><path class="cls-7" d="M1481.6,137.6c-5-8.5-9.26-17.79-9.72-27.65s3.55-20.4,12-25.55c12.2-7.46,29.44-.48,36.6,11.9s6.11,28,1.61,41.59c2.51-3.72,5.1-7.52,8.74-10.14s8.62-3.88,12.69-2c10.3,4.77,12.33,29,12.35,38.64,0,10.54-5.75,19.58-16.75,21.22C1515.8,189.1,1491.63,154.65,1481.6,137.6Z"/><path class="cls-7" d="M1577.31,151.25c-.79-3.34-1.65-7.21.47-9.92a8.2,8.2,0,0,1,5.8-2.68c6.89-.64,13.7,3.6,17.17,9.59s3.94,13.39,2.4,20.14c-1.28,5.6-13.68,29.67-22.46,24.24-3.23-2-.63-13.58-.6-16.55A103.71,103.71,0,0,0,1577.31,151.25Z"/></g><g id="grass_2" data-name="grass 2"><path class="cls-9" d="M361.4,709.78a566.74,566.74,0,0,1,83.34-35.61c10.35-3.48,22.68-6.37,31.41.17,2.49,1.87,4.52,4.43,7.38,5.67,4.6,2,9.85.09,14.72-1.16,15.55-4,31.93-.79,47.66,2.43a154.82,154.82,0,0,1,19.5,4.87c7.57,2.6,14.7,6.34,22.18,9.19,31.11,11.82,115.68-10.42,115.68-10.42C782.06,661.61,821.46,650,838,655c39.48,12,45.27,45,112,70,17.9,6.71,26.85,10.07,35.67,10.26,45.65,1,66.91-44.34,140.76-70.46,7.89-2.79,14.46-4.68,18.57-5.8a203.7,203.7,0,0,1,56-5c60.48,3.1,80.89,32.12,125.73,23.27,25.72-5.07,45.68-18.66,55.73-28.09,15.46-14.51,28-31.77,42.34-47.44,36.31-39.83,85.76-69.82,139.5-73.84,45.9-3.43,91.15,12,133,31.2S1779.19,601.72,1823,616c-37.09,46.32-56.35,103.77-49.45,162.72.94,8,1.74,17.57-4.5,22.69-3.51,2.88-8.32,3.42-12.84,3.84l-117.88,11.08c-33.64,3.16-67.44,6.33-101.19,4.53-30.8-1.64-61.22-7.39-91.9-10.49-57.42-5.81-115.3-2.31-173-.4-77.85,2.58-155.77,2.25-233.67,1.92l-616-2.6c-21.75-.09-45.94-1.15-61.3-16.54C339.08,770.46,350.74,739.36,361.4,709.78Z"/><path class="cls-10" d="M1516,554.19c-.88-17.45-1.49-34.6-1.59-52.07-1.2,0-2.39.26-3.58.22a4.39,4.39,0,0,1-3.25-1.29,1.87,1.87,0,0,1,0-2.82A116.9,116.9,0,0,1,1549.11,436c-.39.21.79.55,1.17.77a54.23,54.23,0,0,1,20.54,20.91c17.09,1.38,33.89.9,51-.17,3,2.19,4.3,5.39,5.12,9s1,7.29,1.67,10.91a37.42,37.42,0,0,0,9.39,18.48c-.34.18-.24.93-.46,1.24a6,6,0,0,1-3.71,2.28,18.23,18.23,0,0,1-4.43.21c.41,16.71.73,33.79,1.84,50.47l-10.78,1.39c-5.13.66-10.27,1.32-15.43,1.74-8.25.67-16.54.72-24.83.76C1559,554.08,1537.27,554.08,1516,554.19Z"/><rect class="cls-9" x="1594.05" y="443.56" width="19.36" height="19.98" rx="4.08"/><path class="cls-11" d="M1234.56,663.68a2.84,2.84,0,0,1,1.71-.53,17.48,17.48,0,0,1,9.15,1.91c.67.34,1.39.85,1.4,1.59s-.8,1.35-1.54,1.66a11.18,11.18,0,0,1-8,.15C1235.94,668,1232.71,665.3,1234.56,663.68Z"/><path class="cls-11" d="M1227.36,667.91a5.16,5.16,0,0,1,3.38,2.27c1,2-.67,4.32-2.61,5.35-3.33,1.76-15.38,1.6-15.64-3.8C1212.17,665.09,1224.05,666.93,1227.36,667.91Z"/><path class="cls-11" d="M1223.63,684.38a6.1,6.1,0,0,1,2.75.58,9.07,9.07,0,0,1,4.37,3.48,6.57,6.57,0,0,1-1.18,7.95,8.34,8.34,0,0,1-3.52,1.84,10.11,10.11,0,0,1-8.39-1.25c-2.41-1.69-4.29-5-2.28-7.6C1216.74,687.65,1221.47,684.54,1223.63,684.38Z"/><path class="cls-11" d="M1204.66,705a9.93,9.93,0,0,1,3.92-.59,4.26,4.26,0,0,1,3.31,1.93,7.62,7.62,0,0,1,.58,3.89,24.46,24.46,0,0,0,.66,5.66c.52,2.19,1.34,4.5.58,6.62a6.34,6.34,0,0,1-1.7,2.43,10.59,10.59,0,0,1-10.82,1.9c-3.73-1.44-8.85-6.49-8.45-10.83C1193.25,710.36,1200,706.45,1204.66,705Z"/><path class="cls-11" d="M1217,740.67a5.76,5.76,0,0,0,2.81,3.46c2.42,1.12,5.24-.23,7.4-1.78s4.23-3.54,4.55-6.15c.53-4.23-3.74-12.71-8.88-10.22C1218.24,728.21,1215.39,736,1217,740.67Z"/><path class="cls-11" d="M1215.28,751.27a5.29,5.29,0,0,1,.82,4.41,4.05,4.05,0,0,1-3.47,2.43,7.4,7.4,0,0,1-4.25-1.12,13,13,0,0,1-6.17-8.29c-.74-3.28,0-8.45,4.39-7.05C1210,742.73,1213.58,748.4,1215.28,751.27Z"/><path class="cls-11" d="M1174.43,750c-.61-1.83.89-3.69,2.46-4.83,3.84-2.76,9.1-3.81,13.41-1.87s7.1,7.21,5.52,11.66a6.86,6.86,0,0,1-2.49,3.38c-2.15,1.48-5,1.35-7.57.82a16.11,16.11,0,0,1-8.6-4.23c-2.23-2.36-3.29-6-1.91-9"/><path class="cls-11" d="M1157.72,743.05c5.38,1.26,10.79,6.34,12.94,13.3a11.91,11.91,0,0,1,.57,5.6,6.64,6.64,0,0,1-4.83,5.07c-4.19,1.33-8.92.32-13.22-2.17-3.22-1.86-13.52-8.78-12.08-14.66C1142.71,743.64,1153.19,742,1157.72,743.05Z"/><path class="cls-11" d="M1122.7,772.08c4.74,6,13.22,7.74,20.8,6.9s14.75-3.81,22.17-5.61a18.12,18.12,0,0,1,7.52-.62c5.81,1,9.84,7.79,8,13.4"/><circle class="cls-2" cx="1085.65" cy="654.12" r="1.5"/><circle class="cls-2" cx="1068.73" cy="632.12" r="1.5"/><circle class="cls-2" cx="1250.22" cy="608.04" r="1.5"/><circle class="cls-2" cx="1250.22" cy="502.71" r="1.5"/><circle class="cls-2" cx="1079.06" cy="502.71" r="1.5"/><circle class="cls-2" cx="1111.98" cy="464.05" r="1.5"/><circle class="cls-2" cx="1289.71" cy="541.79" r="1.5"/><circle class="cls-2" cx="1375.29" cy="548.79" r="1.5"/><circle class="cls-2" cx="1390.29" cy="489.55" r="1.5"/><circle class="cls-2" cx="1467.7" cy="469.8" r="1.5"/><circle class="cls-2" cx="1447.7" cy="502.71" r="1.5"/><circle class="cls-2" cx="1572.78" cy="386.64" r="1.5"/><circle class="cls-2" cx="1675.5" cy="396.5" r="1.5"/><circle class="cls-2" cx="1659.52" cy="476.38" r="1.5"/><circle class="cls-2" cx="1674.81" cy="501.51" r="1.5"/><circle class="cls-2" cx="1146.26" cy="634.5" r="1.5"/></g><g id="grass_1" data-name="grass 1"><path class="cls-12" d="M1.85,531.63c23.36-17,67.84,5.34,71.68,7.8,21.26,13.57,37.52,33.47,55.35,51.31s38.8,34.45,63.71,38.39c20.66,3.27,41.52-2.54,62.15-6s43.48-4.14,60.67,7.79c13.33,9.25,21.74,25.16,36.6,31.69,6.37,2.8,13.43,3.61,20,6,30.39,11.23,41.94,53.37,73.32,61.45,7.76,12.07,20,25.91,33.84,29.91,10.8,3.14,22.41.07,32.88-4.06,50.37-19.86,89-63.29,140.12-81.23a156,156,0,0,1,97.72-1.58c33.9,10.67,66,22.79,101.5,24.82l90.81,5.2c5.48.31,12.07,1.36,14.19,6.43,3.34,8,14,12.71,22.57,11.58s16.63-5.45,25.28-5.54c9.85-.1,18.81,5.25,27.33,10.21a540.13,540.13,0,0,0,207,69.22c35.27,4.21,71.25,4.89,106.11-2,127-24.93,219.32-143.9,346-170.24-1.1,3.26,4.88,6.23,8.13,7.38a16.41,16.41,0,0,0,10.21-.12c10.76-3.11,29.79-8.65,54.07-16.08,2.37,92.41,4.61,156.67,7,171,.46,2.75,2.56,13.48-2,25a46,46,0,0,1-5,9c-17.29,23.65-1112-8.67-1293-8-218.18.81-327.27,1.22-331,2C83.93,824.52,20,844.22-6,814c-19-22,1.62-48.13,4-131C.63,591.43-22.37,549.23,1.85,531.63Z"/><path class="cls-12" d="M25.55,544.92A584.37,584.37,0,0,0-39.17,437.56C-21.83,454.19-4.32,471,8.71,491.19s21.39,44.32,18.41,68.16"/><path class="cls-12" d="M46.85,555.25a112.53,112.53,0,0,1,10.08-71.57C62.74,472.23,72,460.9,84.77,459.39c-7.52,5.14-12.08,16.38-15.73,24.72a190,190,0,0,0-15.21,91.75c1-32.93,15.16-61.88,33.92-89,14.48-20.9,31.21-42.48,55.36-50.42"/><path class="cls-1" d="M73.33,556.08c-15.6-27.74-25.74-59.32-24-91.11s16.53-63.63,42.73-81.72"/><path class="cls-12" d="M78.87,563.93c-23.33-53.28-20.54-117.37,7.51-168.35-19.83,24.54-33.22,54-34.88,85.51-1.65,31,11.83,60.14,28.5,85.48-2.81-9.93-4.81-18.12-3.29-28.6a114.28,114.28,0,0,1,16.57-44.72c2.12-3.33,4.84-6.83,8.75-7.39"/><path class="cls-1" d="M100.51,495.06c-10,11.25-15.7,25.84-18.35,40.67s-2.43,30-1.89,45.07"/><path class="cls-12" d="M129.74,473.18a8.1,8.1,0,0,1,5.41-1.67,6,6,0,0,1,4.74,4.31,8.89,8.89,0,0,1-1,5.95c-2.1,4.56-15,25.31-20.45,18.34C111.77,491.62,125.76,475.77,129.74,473.18Z"/><path class="cls-12" d="M92,356.32c3-4,7.69-7.83,12.47-6.44,5.47,1.58,6.9,8.71,6.23,14.36-1.1,9.27-11.22,34.77-24.06,32.49C71.35,394,87.23,362.55,92,356.32Z"/><path class="cls-12" d="M238.67,651.56c1.16-15.52-7.75-30.43-19.69-40.42s-26.66-15.92-41.12-21.69c15.86,8.8,28.14,18.86,42,30.53,5.62,4.73,11.12,9.74,15.28,15.79S239,644.22,238.67,651.56Z"/><path class="cls-1" d="M246,634.24c-5.21-31-27.95-58.52-57.46-69.45"/><path class="cls-12" d="M251.59,649.09c-.77-18.66-9.71-36.24-21.68-50.58-7.57-9.06-16.34-17-25.44-24.48-6.46-5.32-14-14.17-22.57-15,22.17,2.58,43.15,11.64,56.76,29.32S254.76,627,251.59,649.09Z"/><path class="cls-12" d="M241.92,639.36A102.83,102.83,0,0,1,199,624.46c-10.2-6.36-12.61-14.7-19-23.81-.94,1.1.26.76,1.32,1.74a119.71,119.71,0,0,0,74.59,31.29"/><path class="cls-12" d="M236.52,664a106,106,0,0,1,25.12-89c-18.14,28.84-23.4,70.48-11.5,102.4"/><path class="cls-12" d="M311.69,650.05c-9.14-13.39-16.59-28.15-19.95-44s-2.41-32.89,4.5-47.55c-2.28,4.84-1.46,13.62-1.46,18.9a125.28,125.28,0,0,0,1.65,20.09A126.64,126.64,0,0,0,301.24,617a119.59,119.59,0,0,0,30.36,48.5"/><path class="cls-12" d="M351.87,670.14A17,17,0,0,0,349,657.42c-3.11-4.33-8-6.9-12.32-10A50.75,50.75,0,0,1,318.44,622c-1.7-5.35-2.43-11.41.11-16.42a41.46,41.46,0,0,0-4.7,26.77,45.39,45.39,0,0,0,12.93,25.37"/><path class="cls-12" d="M302.87,635a106.93,106.93,0,0,1-27.42-60.84c3.13,27.88,16.59,58.47,38.06,76.53"/><path class="cls-12" d="M474,763.38a72.88,72.88,0,0,1-20.56-66.27c-1.24,26.7,13.94,56.16,35.91,71.38"/><path class="cls-12" d="M506.24,766.31c0-15.5-5.29-30.73-13.6-43.82S473.16,698.33,461,688.71c-12-9.48-25.58-17.87-40.75-19.7-8.71-1-19.41,1.48-22.2,9.8,18.65-11.32,43.08-7.13,62.65,2.51,12.76,6.28,24.77,15,32.17,27.15,12.14,19.91,10,45,7.46,68.21"/><path class="cls-12" d="M515.82,761.32a123.75,123.75,0,0,0-12.39-72.9c8.2,15.2,16,29.84,18.75,46.88C524,746.21,518.73,750.66,515.82,761.32Z"/><path class="cls-1" d="M534.18,773.72c-.73-29.42,6.37-58.56,16.26-86.28,3.92-11,8.62-22.27,17.56-29.75"/><path class="cls-12" d="M533.9,784.89c-10.1-23.32-3.52-50.35,5.71-74a358.25,358.25,0,0,1,29.71-59.29c-9.57,22.51-20,44.37-25.67,68.16s-7.77,48.75-3,72.74"/><path class="cls-12" d="M544.42,758.57c-2.46-.05-2.7-3.65-2-6,10.14-35.49,38.56-65.22,73.55-77-25.71,19.06-49.64,39.21-68.94,64.73-8.89,11.74-17.16,24.43-20.43,38.79"/><path class="cls-12" d="M528,756.3c11.69-51,51-94.78,100.41-111.91-25.16,4.71-47.25,15.94-64,35.31s-27.81,43.18-34.56,67.88c-2.56,9.38-4.49,19.6-.85,28.62"/><path class="cls-12" d="M663.21,713.13c4.08-16,15.72-29.26,29-39.1s28.45-16.88,42.87-25c15.83-8.92,31-19.3,43.53-32.46s22.31-29.28,26.13-47c-1.58,14.48-6.33,28.22-14.89,40-11.14,15.32-28.43,24.68-44.57,34.6-13.37,8.21-26.51,17.29-36.46,29.43s-16.47,27.8-14.81,43.41"/><path class="cls-1" d="M646.06,704.14a123.09,123.09,0,0,1,107-63c11.86-.07,31.89-.24,41,8.33"/><path class="cls-12" d="M663.38,695.75A119.83,119.83,0,0,1,802.44,653c-29.56-9.93-65.62-13.13-95.69-4.87-18.85,5.18-37,14.07-51,27.65s-23.8,32.13-24.7,51.66"/><path class="cls-12" d="M504.38,781.12c-.7-22.45-12.26-48.35-33.88-56.82,14.3,1.61,25.72,6.63,36.18,16.51s17,24.11,16.44,38.48"/><path class="cls-12" d="M532.36,763.81a94.82,94.82,0,0,0-33.82-59.56c6.89,10.5,12.8,20.65,17.08,32.46s6.43,24.56,4.85,37"/><path class="cls-12" d="M696.31,686.63c38-30.5,91.35-45.27,139.59-38.47-22.32-.87-44.93-1-66.67,4.15s-42.77,16-56.47,33.62"/><path class="cls-12" d="M655.19,691.74c10-15.6,9.42-34.34,8-52a68.54,68.54,0,0,1,4.24,23.93C667.47,672.3,660.67,685.12,655.19,691.74Z"/><path class="cls-12" d="M841.94,638.12a33.56,33.56,0,0,1,16.75,1.94c2.28.88,4.86,3,3.84,5.25a4.69,4.69,0,0,1-2.7,2c-5.17,2.06-19.81,6.29-24.68,1.85C829.6,644.11,836.87,638.82,841.94,638.12Z"/><path class="cls-1" d="M713.45,681.81a31.91,31.91,0,0,1,12-10.07c15.86-7.66,34.61-1.34,51,5.09s35,12.92,51,5.53a194.54,194.54,0,0,1-50.89,11.71"/><path class="cls-1" d="M736.07,707.06l.41-.41"/><path class="cls-12" d="M695,674.05a84.26,84.26,0,0,1,50.34-14c12.72.59,25.1,4.07,37.61,6.42s25.67,3.55,37.8-.33C785.67,677.4,747,657,711.56,667c-8.66,2.43-17.31,7-21.59,15"/><path class="cls-1" d="M969.09,737.27a49,49,0,0,1,3.71-59.69"/><path class="cls-12" d="M981.56,741c-9.45-7.41-13.9-19.84-14.13-31.85s3.24-23.75,7.17-35.09a65.86,65.86,0,0,0-10,34.48C964.62,720.49,973.07,732.64,981.56,741Z"/><path class="cls-12" d="M814.12,693.34c8.94,3.64,18.72,4.7,28.37,5.09a218,218,0,0,0,60.86-6.18c5.54-1.36,11.24-3.07,15.44-6.91C907.14,699.55,887,706.56,869,702.82"/><path class="cls-12" d="M974.83,661.87a9.31,9.31,0,0,1,2.39-3.49,4.08,4.08,0,0,1,4-.81c1.48.6,2.27,2.23,2.62,3.78a12.78,12.78,0,0,1-2.22,10.38c-1.85,2.47-6,6-8.6,2.73C970.91,671.77,973.66,664.51,974.83,661.87Z"/><path class="cls-12" d="M984.23,738.38c-.06-11.62-6-22.4-13-31.66s-15.25-17.65-21.08-27.7-9.06-22.46-5-33.33c-6.46,19.34-.45,43.36,14.19,57.57,4.58,4.44,9.92,8.06,14.32,12.69S984.63,732,984.23,738.38Z"/><path class="cls-12" d="M996.46,744.11a90.44,90.44,0,0,1-4.2-59.72C984.85,705.93,986.47,723.64,996.46,744.11Z"/><path class="cls-12" d="M1002.76,739.69c-2.4-9.26-2.89-19.16-.26-28.36s8.56-17.62,16.93-22.25c-15.5,16.24-17.87,41.79-8.31,62.09"/><path class="cls-1" d="M992.36,745c-2.44-14.15,1.07-28.89,7.78-41.58s16.48-23.54,27-33.32"/><path class="cls-12" d="M989.24,752.21c-3.76-5.94-4.82-13.3-4-20.28s3.4-13.63,6.48-19.94a129.63,129.63,0,0,1,36.9-45.45c-16.59,18-30.63,38.24-33.25,62.59-.77,7.13-.36,14.72,3.35,20.86"/><path class="cls-12" d="M977,725.93a36.75,36.75,0,0,0-5.21-37.4c4.87,15.3,3.89,34.65-4.14,48.55"/><path class="cls-12" d="M1028.2,664.72a25,25,0,0,0,6.13-14.82c.13-2,.26-4.39,2-5.3-.21-1,.52-1.13,1.54-1.14a4,4,0,0,1,2.65,1.36,10.27,10.27,0,0,1,1.33,12.36c-1.73,2.73-4.66,4.45-7.6,5.78C1031.83,664.07,1030.9,664.76,1028.2,664.72Z"/><path class="cls-12" d="M1258.2,802.87a96.32,96.32,0,0,1-49.63-61.67c-1.42-5.6-2.24-11.86.63-16.87-3,6.14-2.8,13-2.4,19.85,1.46,25.14,17.32,48.94,40,60"/><path class="cls-1" d="M1275.4,802.88c-5-12.52-18.78-18.91-31.72-22.66-16-4.63-32.46-7.1-48.43-11.64-10.61-3-21.25-7.1-29.37-14.56s-13.31-18.91-10.8-29.65"/><path class="cls-12" d="M1282.59,807.7c-6.25-10.23-14.14-19.78-24.5-25.82-13.92-8.1-30.67-9.08-46.43-12.38-12.24-2.57-24.38-6.77-34.36-14.32s-17.59-18.82-18.72-31.28c-.58,18.65,13.81,33.83,31.43,40,15.62,5.45,33.18,1.85,49,6.64C1260.27,776.93,1270.42,789.13,1282.59,807.7Z"/><path class="cls-1" d="M1298.75,821.22c-1.59-12.54-7.59-24.2-15.29-34.23-8.11-10.55-20-25.36-31.64-31.84"/><path class="cls-12" d="M1302.53,833c1.63-15.89-4.75-31.93-15-44.14s-24.22-20.92-38.84-27.36C1273.81,780.16,1292.8,803.19,1302.53,833Z"/><path class="cls-12" d="M1435.22,776.67c1.24-4.06,4.12-7.35,6.62-10.77,6.84-9.36,11.22-20.64,11.6-32.21s-3.4-23.4-11.1-32.06c8.69,10.39,17.75,23.13,19.51,36.56s-2.77,28.21-13.69,36.22"/><path class="cls-12" d="M1473.42,760.21a334.89,334.89,0,0,1,8-75.54c1.78-8,4-16.15,9-22.59s13.64-10.75,21.49-8.48c-7.67.57-15.7,7.37-20.29,13.55-10.27,13.83-13.94,31.54-14.52,48.76S1473.2,743,1473.42,760.21Z"/><path class="cls-12" d="M1480,748.11c-2.52-7.78-.25-16.33,3.21-23.74,7.8-16.71,21.28-29.94,33.11-44.09s22.61-30.66,23.13-49.1c1.26,11.28,1.51,21.68-1.38,32.65-2.95,11.21-9.94,20.82-16,30.71a203.73,203.73,0,0,0-21.37,48.05c-2,6.58-3.49,14-.32,20"/><path class="cls-12" d="M1537.26,724.58c6.32-12,9.06-25.65,9.78-39.2.78-14.71.25-30.52-2.49-45,5.93,13.19,9.14,25.56,9.43,40S1546.2,713.22,1537.26,724.58Z"/><path class="cls-12" d="M1493.59,731.13c-.53-9.68,5.08-18.61,11.39-26,18-20.91,42.86-34.88,61-55.6,5.31-6.06,10.25-13.53,9.28-21.52-6.73,15.36-23.65,24.31-36.58,35a121.84,121.84,0,0,0-35.81,49.55"/><path class="cls-1" d="M1702.55,643.8a85.39,85.39,0,0,0,26.26-37c5.38-14.67,3.14-27.57,4.58-42.28"/><path class="cls-12" d="M1689.54,655.59c14.42-10.3,24.17-26.13,30-42.86s8.07-34.47,9.93-52.09c-2.11,12.27-.19,21.86.55,34.28s-.11,25.69-7.16,36c-3.85,5.59-10.19,10.21-16.92,9.36"/><path class="cls-12" d="M1723.08,638.51c5.34-16.58,10.75-33.3,19.31-48.47s20.61-28.89,36.29-36.5c-28.79,28.39-50.2,69.29-52.61,109.65"/><path class="cls-12" d="M1701.32,643c9.07-17.43,6.5-40.24-6.21-55.23,6.54,9.06,15,21.41,15.9,32.55C1711.84,630.49,1705.43,633.66,1701.32,643Z"/><path class="cls-12" d="M1529.68,722.45c3.17-40.48,33-77.56,71.89-89.3-34.54,21.1-61.31,59-66,99.2"/><path class="cls-12" d="M1572.67,700.29c-4.06-4.79-3.51-12-1.22-17.89,5.6-14.3,19.18-23.54,31.51-32.7,9.62-7.15,19-14.85,26.28-24.37s12.4-21.07,12.5-33.06c-3.72,20-18.31,34.55-31.81,49.77s-27.9,30.61-34.3,49.92c-2.06,6.21-3.23,12.91-1.86,19.31"/><path class="cls-12" d="M1619,654.57c2.62-.72,4.66-2.73,6.5-4.72a110.11,110.11,0,0,0,12.17-15.94c3.84-6.11,7.17-13.12,6.18-20.27,1.28,18-7.31,37.65-22,48.14"/><path class="cls-12" d="M1226.87,802.17c-5.7-9.15-12.41-17.77-20.65-24.73s-18.09-12.21-28.7-14.12c2.59-.55,5.5-.94,7.89.19a161.83,161.83,0,0,1,35.9,23.35c5.85,5,11.8,11.72,10.75,19.36"/><path class="cls-12" d="M1639.91,593.51a22.09,22.09,0,0,1,.25-14.77c.36-1,1.16-2.1,2.16-1.81a2.06,2.06,0,0,1,1,.87,13.47,13.47,0,0,1-2.28,17.44"/><path class="cls-12" d="M1643.49,611.47a7.66,7.66,0,0,1,.73-6.79,1.85,1.85,0,0,1,3.16-.45,7.57,7.57,0,0,1-3.6,13.23"/><path class="cls-12" d="M1513.41,650.13c3-1.32,6.42,0,9.39,1.39a9.18,9.18,0,0,1,3.46,2.25,3.15,3.15,0,0,1,.36,3.82,3.94,3.94,0,0,1-2.32,1.23,13.1,13.1,0,0,1-13.71-5.8"/><path class="cls-12" d="M722.17,686.85c24.76,0,47.65-14.81,63.26-34s25.13-42.55,34.44-65.49c-7.9,12.6-11,27.87-15.09,42.17s-8.76,28.85-18,40.53-24,20.07-38.67,17.77"/><path class="cls-12" d="M1303.28,802.69a134.9,134.9,0,0,0-8.34-37c7.42,13.48,13.86,31.63,11.79,46.88"/><path class="cls-12" d="M1318.43,819.49c34.83-11,61.1-45,63-81.52-.8,14.81-3.26,33.13-9.73,46.48s-16.64,25.14-29.75,32.09"/><path class="cls-12" d="M1353.7,807.9c5.4-.51,8.93-5.75,11.43-10.56C1373.64,781,1379.6,763.25,1390,748s26.69-28.12,45.12-27.89c-7.77-.07-17,3.81-23,8.69-11,8.89-18.78,21.3-24.12,34.41s-8.45,27-11.52,40.82"/><path class="cls-12" d="M1399.06,795.48c13-29.65,7.84-66.49-12.92-91.35,6.75,17.7,13.58,36.18,15.31,55s-2.22,39.06-14.79,53.23"/><path class="cls-12" d="M1407.3,783.35c11.86-13,15-31.59,16.68-49.11-2.86,22.54-18,44.4-38.59,54.12"/><path class="cls-12" d="M1446.07,779.81c4-7.57,4.59-16.61,3.1-25s-4.9-16.42-8.57-24.16c-5.29-11.16-14.62-31.16-27.66-34.89,18.86,7.32,32.15,28.72,40.74,47,5.74,12.26,11,25.79,8.18,39"/><path class="cls-12" d="M1066,754.52c-3.52-.7-5.77-4.07-7.58-7.18-5.9-10.16-11.3-20.73-14.55-32s-4.28-23.44-1.42-34.84c-9.14,25.06-3.94,56,13.12,76.55"/><path class="cls-12" d="M1080.7,756.81A101.49,101.49,0,0,0,1016.57,705c33.21,6,61.16,31.54,71.49,63.68"/><path class="cls-12" d="M42.88,555.1C35.33,550.23,30.5,541.81,28.71,533s-.79-18,1.45-26.69C39.25,471,70.06,442.16,106,435.48c-28.24,8-58.37,19.91-75.47,43.79-14.68,20.49-16.21,48.91-6.22,72.05"/><path class="cls-12" d="M127.38,599.93C115,587,108.1,569.34,106.83,551.49s2.88-35.86,10.44-52.07c-10.1,13.94-17,30.92-15.79,48.1S115.5,587.47,127.38,599.93Z"/><path class="cls-12" d="M123.6,610a87.21,87.21,0,0,1-4.48-78.87c-13.79,18.91-17.69,45.6-9.27,67.45"/><path class="cls-2" d="M1188.86,481a16.78,16.78,0,0,0,1.71,1.37,17.51,17.51,0,0,0,5.47,2.54,12.39,12.39,0,0,0-5.07,2.19,11.63,11.63,0,0,0-1.64,1.49,9.34,9.34,0,0,0-1.46,1.61,10.64,10.64,0,0,0-1.92,5.27,15.72,15.72,0,0,0-2.82-5.46,15.21,15.21,0,0,0-1.41-1.53,13.77,13.77,0,0,0-1.94-1.59,15.15,15.15,0,0,0-5.24-2.31,16.2,16.2,0,0,0,4.86-2.21,15.7,15.7,0,0,0,1.86-1.48,12.16,12.16,0,0,0,1.85-2.44,12.39,12.39,0,0,0,1.52-4.44,16.65,16.65,0,0,0,1.91,4.14A16.9,16.9,0,0,0,1188.86,481Z"/><path class="cls-2" d="M1026.86,610.37a18.27,18.27,0,0,0,1.71,1.37,17.23,17.23,0,0,0,5.47,2.53,12.43,12.43,0,0,0-5.07,2.2,11.06,11.06,0,0,0-1.64,1.49,9.63,9.63,0,0,0-1.46,1.6,10.7,10.7,0,0,0-1.92,5.28,15.72,15.72,0,0,0-2.82-5.46,15.21,15.21,0,0,0-1.41-1.53,14.52,14.52,0,0,0-1.94-1.6,15.34,15.34,0,0,0-5.24-2.31,15.9,15.9,0,0,0,4.86-2.2,16.79,16.79,0,0,0,1.86-1.48,12.32,12.32,0,0,0,3.37-6.88,16.81,16.81,0,0,0,1.91,4.14A17.31,17.31,0,0,0,1026.86,610.37Z"/></g></g></g><g id="cottage_details" data-name="cottage details"><path class="cls-11" d="M1557,534a56,56,0,0,0,.43-18.22c-.78-5.4-1.78-11.78-6.43-14.78a7.5,7.5,0,0,0-5.34-1.38c-1.77.32-3.19,1.46-4.66,3.38-3.35,4.38-4.49,9.62-5,14a57.54,57.54,0,0,0,.71,17.66c3.56-.33,7.33-.56,11.29-.66C1551.12,533.92,1554.13,533.93,1557,534Z"/><path class="cls-11" d="M1555.93,470.82a15.21,15.21,0,0,0-1.81-11.28,8.42,8.42,0,0,0-3.87-3.84,7.7,7.7,0,0,0-6.25.3,8.33,8.33,0,0,0-3.52,4.27,16.42,16.42,0,0,0-.63,11.14C1545.4,471,1550.46,471.84,1555.93,470.82Z"/><path class="cls-11" d="M1531,535h-.86a7.37,7.37,0,0,0-1.75.23,8.12,8.12,0,0,0-1.68.77c-.44.24-1,.57-1.71,1V509a3,3,0,0,1,.75-1,3.65,3.65,0,0,1,4.48,0,3,3,0,0,1,.77,1v26Z"/><path class="cls-11" d="M1568,535a13.68,13.68,0,0,0-4.29-1,13.92,13.92,0,0,0-1.71,0V509a2.7,2.7,0,0,1,.65-1,3.25,3.25,0,0,1,2.58-1,3.67,3.67,0,0,1,1.77,1,7.16,7.16,0,0,1,1,1v26Z"/><rect class="cls-11" x="1586" y="521" width="37" height="13" rx="4"/><path class="cls-11" d="M1621.51,516.89c1.56-3.69-.94-6.15-2.75-7.43-1-.68-2.3-1.45-5.68-2a64,64,0,0,0-16.19,0,14.19,14.19,0,0,0-6.16,2c-2,1.3-4.77,3.72-3.33,7.28q7.69.06,15.64.08Z"/><path class="cls-11" d="M1531.14,545.85a2.05,2.05,0,0,1,.74-2.79,4.23,4.23,0,0,1,3.15-.29,9.28,9.28,0,0,1,4.19,2.2,1.62,1.62,0,0,1,.58.86c.15.86-.91,1.4-1.77,1.56a14.51,14.51,0,0,1-7.5-.62"/><path class="cls-11" d="M1535.24,556a1.09,1.09,0,0,1,.58-1.32,2.68,2.68,0,0,1,1.56-.14,9.69,9.69,0,0,1,5.82,3.13,2.73,2.73,0,0,1,.81,1.54c.08,1.16-1.1,2-2.23,2.34a7.14,7.14,0,0,1-8-3.53"/><path class="cls-11" d="M1517.75,558.35a7.31,7.31,0,0,1,7.06-.94,3.35,3.35,0,0,1,1.73,1.36,1.66,1.66,0,0,1-.29,2.05c1.09.78,2.88.55,3.56,1.72a2,2,0,0,1-.44,2.32,5.26,5.26,0,0,1-2.2,1.2,11.71,11.71,0,0,1-5.38.78C1518,566.3,1513.68,561.46,1517.75,558.35Z"/><path class="cls-11" d="M1499.68,566.75a5.05,5.05,0,0,0-2,3.52,5.27,5.27,0,0,0,1.33,3.49,7.28,7.28,0,0,0,7.06,2.73C1514.4,574.52,1508.24,560,1499.68,566.75Z"/><path class="cls-11" d="M1503.26,584.34a8.76,8.76,0,0,1,5.77,1,4.84,4.84,0,0,1,2.3,5.09c-.52,2-2.6,3.26-4.64,3.66a7.15,7.15,0,0,1-4.61-.52C1497.55,591.19,1497.94,585,1503.26,584.34Z"/><path class="cls-11" d="M1491,600a1.67,1.67,0,0,1,.07-2.28,3.8,3.8,0,0,1,2.28-1,6,6,0,0,1,3.78.49,3.13,3.13,0,0,1,1.7,3.2,3.28,3.28,0,0,1-1.31,1.91,4.29,4.29,0,0,1-3.93.71,3.42,3.42,0,0,1-2.31-3.13"/><path class="cls-11" d="M1501.59,611.22a9.49,9.49,0,0,1,4.5,6.59,3.41,3.41,0,0,1-.06,1.59,3.21,3.21,0,0,1-1.28,1.5,7.79,7.79,0,0,1-9.52-.67c-2-1.9-3.22-5.84-1.79-8.42C1495,609,1499,609.72,1501.59,611.22Z"/><path class="cls-11" d="M1486.79,621.33c0-.38-.69-.35-.85,0a1.34,1.34,0,0,0,.17,1.09q1.16,2.39,2.53,4.64c.62,1,1.29,2.26.82,3.37a2.66,2.66,0,0,1-1.33,1.27,4.79,4.79,0,0,1-6.91-4c-.15-3,2.45-5.4,5.19-6.54"/><path class="cls-11" d="M1473.67,619a4.29,4.29,0,0,1,3,2.38c.55,1.62-.59,3.33-1.89,4.45-3.3,2.86-11.42,5.64-12.61-.76C1461.11,619.16,1469.54,617.75,1473.67,619Z"/><path class="cls-11" d="M1449.61,614.75a6.14,6.14,0,0,1,2.54,2.75,4.08,4.08,0,0,1,.28,2,3.2,3.2,0,0,1-.64,1.57,4.69,4.69,0,0,1-2.66,1.51C1438.21,625.38,1441.26,609.7,1449.61,614.75Z"/><path class="cls-11" d="M1431.07,611.92a4.56,4.56,0,0,1,3.57-2.14,2.77,2.77,0,0,1,2.91,1.76,2.4,2.4,0,0,1-.94,2.37,4.29,4.29,0,0,1-2.52.79,4.34,4.34,0,0,1-2.59-.64,2.4,2.4,0,0,1-1.07-2.32"/><path class="cls-11" d="M1414,620.3c.54-2.32,3-3.44,5.21-3.69,2.48-.28,5.54.54,6.25,3.12.67,2.43-1.21,4.86-3.28,6.06s-4.6,1.71-6.68.59-3.24-4.25-1.89-6.29"/></g></svg>