<svg xmlns="http://www.w3.org/2000/svg" xmlns:xlink="http://www.w3.org/1999/xlink" viewBox="0 0 1750 800"><defs><style>.cls-1{fill:none;}.cls-2{clip-path:url(#clip-path);}.cls-3{fill:url(#linear-gradient);}.cls-4{fill:#fcc2a6;}.cls-5,.cls-7{fill:#ffeae1;}.cls-5{stroke:#ffeae1;stroke-width:2px;}.cls-5,.cls-9{stroke-linecap:round;stroke-linejoin:round;}.cls-6{fill:#fdd4c0;}.cls-8,.cls-9{fill:#7fb3b5;}.cls-9{stroke:#7fb3b5;stroke-width:5px;}.cls-10{fill:#a2ece3;}.cls-11{fill:#5f8d95;}</style><clipPath id="clip-path"><rect class="cls-1" width="1750" height="800"/></clipPath><linearGradient id="linear-gradient" x1="779.92" y1="-138.7" x2="970.08" y2="939.7" gradientUnits="userSpaceOnUse"><stop offset="0.53" stop-color="#d4d5c4"/><stop offset="0.72" stop-color="#bedfd2"/><stop offset="0.92" stop-color="#a2ece3"/></linearGradient></defs><g id="mask"><g class="cls-2"><g id="bkg"><path class="cls-3" d="M1751,802H-1V-1H1751c.07,0,0,275,0,297.48V802Z"/><path class="cls-4" d="M1259.16,456.83c-3,6.9-6.34,13.84-6.91,21.38s2.51,16,9.12,18.78c5.83,2.46,12.58-.13,17.71-4,5.63-4.29,10.29-10.47,11.59-17.67s-1.35-15.39-7.3-19.07a16,16,0,0,0,12.24.49,11.73,11.73,0,0,0,7.24-10,16.27,16.27,0,0,0-2.18-7.88c-3.71-7.2-19.48-24.45-28.71-18.85-3.89,2.37-3.68,10.41-4.7,14.41A154.34,154.34,0,0,1,1259.16,456.83Z"/><circle class="cls-5" cx="1506.5" cy="444.5" r="4.5"/><circle class="cls-5" cx="1307.5" cy="541.5" r="4.5"/><circle class="cls-5" cx="1730.5" cy="518.5" r="4.5"/><circle class="cls-5" cx="962.97" cy="596.69" r="1.5"/></g><g id="clouds_3" data-name="clouds 3"><path class="cls-4" d="M1767,462c18-24.86,3.34-49,6-133,.46-14.63,1.32-26.73,2-35a404.84,404.84,0,0,1-10-56c-2-18.25-3.73-46.8,0-87,7.39-79.6,26.14-94,18-112-26-57.26-259.11-4-273.6-.69-368.36,83.9-722,107.44-1317.9,25.42C121.4,54.08,51,41.28-19.47,46.6L-29.76,368.79c-2,63.3-4,127.22,6.5,189.47,5.92,35.08,16.35,70.44,37.77,97,17.11,21.2,40.08,35.36,63.35,47.24,159.32,81.36,342.6,70.72,517.53,58.47,6.85-.48,14.13-1.12,19.65-5.67,16.77-13.79,12.78-60.18,30-73.32,29,5.84,60.21-4.67,81.41-27.4s30.05-60.58,25.91-93c9.37,11.74,23.37,17.69,37.27,20.4,37.11,7.23,77.07-7.05,103.46-37s36.18-76.44,29-117.61c21.08-15.89,47.46-22.83,72.7-19.13s49.11,18,65.78,39.4c6.74,8.65,12.35,18.41,19.88,26.21,12.65,13.12,30.48,19.8,47.68,17.87,10.11-1.14,21.11-6.42,24.34-17.13,11.45,18.26,35,24,53.86,16.6s33.11-25.63,41.24-46,9.18-43.84,11-66c9.35,17.88,28.63,28,47.18,26.79s35.89-13.06,47-29.66c7.54-11.3,12.42-26.63,7.14-39.42,17,4.71,32.93-10.34,34.68-29.71a76.79,76.79,0,0,1,54.35,16.68c8,6.31,15.23,15,16.72,25.71,2,14.6-7,28.15-16.6,38.37s-20.72,19.9-24.94,33.91c-1.24,4.1-.19,10.54,3.66,10-1.56-5.84-.06-10.61,2.56-16A35,35,0,0,1,1443.7,401c9.35-5.48,20.43-5.64,30.54-9.05s20.4-12.58,19.49-24.3c-1.65-.06-.65-2.66-2.3-2.73,6-4.44,12.13-9,16.4-15.49s6.35-15.32,3.41-22.65c-2.12-5.29-6.44-9-10.6-12.48-2.54-2.12-6-4.3-8.64-2.28,6-8.1,17.6-16.54,26.14-12,3.64,1.92,6.29,5.53,8.72,9.1,6.4,9.35,12.38,19.37,20.92,26.28,23.47,19,52.35-9.17,78.89-5.81,9.36,1.19,19,5.6,23.46,13.9,3.77,6.93,3.39,15.48,1,23s-6.5,14.35-10.15,21.35c-7.15,13.72-12.53,28.66-13.14,44.12-.18,4.42-.46,26.51,14.56,42.8,19.88,21.56,52.5,17.49,65.23,15.9C1718.88,489.28,1750.1,485.38,1767,462Z"/><path class="cls-4" d="M1431.25,359.46c2.08-5.06,3.41-11,1.6-16.14s-6.68-8.61-11.58-8.32-9.42,4.38-10.7,9.65a25.63,25.63,0,0,0,.12,10.06c.69,4.23,2.69,20.33,7.33,21.62C1423.26,377.79,1429.65,363.34,1431.25,359.46Z"/><path class="cls-4" d="M1468,406.42a5.45,5.45,0,0,1,2.89.61c1.45.88,2.14,2.84,2.15,4.68,0,4.89-4.65,9.08-8.93,8l4.18,3.72c-.37,2.26-3.07,2.69-5.13,2.59-7.08-.37-21.8,2.75-15.84-8.71C1451,410.26,1461.18,406.38,1468,406.42Z"/><path class="cls-4" d="M1603,386.93a27.23,27.23,0,0,0,15.76-17.43c.83-2.87,1.15-6,0-8.78s-3.89-5.17-10.74-7.35c-11.11-3.53-31.84-6.05-37,3.63a10.42,10.42,0,0,0-1.18,4.87c-2.32,2.72-4.46,3.95-5.9,4.07-13,1.14-25.28-8.19-32.29-20.38-.78-1.34-1.62-2.83-3-3.34-2.6-1-4.91,2.15-6,5-3.34,8.94-3.19,19.22-.49,28.42a62.67,62.67,0,0,0,14,24.17c4.79,5.29,9.9,10.68,18.69,13.59,12.89,4.27,24.18-.11,27.12-1.36a37.27,37.27,0,0,0,12.06-8.19A35.82,35.82,0,0,0,1603,386.93Z"/><path class="cls-4" d="M741.55,666.06c21-11.77,35.86-36,38.07-62.07,8,6.77,20.24,8.16,30.18,6.78s19.56-4.9,29.5-6.34c1.92-.28,4.18-.35,5.45,1.28a6.75,6.75,0,0,1,1,4.1c.06,10.39-4.81,20.09-10.83,28-15,19.69-37.51,31.07-60.47,34.46-14.21,2.11-29.49,1.11-41.58-7.47"/></g><g id="clouds_2" data-name="clouds 2"><path class="cls-6" d="M1786.62,288.46c-9.1-17.51-30.91-24.94-50.62-24s-38.44,8.37-57.56,13.27c-6.23,1.6-13.27,2.82-18.76-.54-6.23-3.81-8-12.18-7.18-19.43,1.29-11,7.17-21,14.06-29.64s14.89-16.44,21.48-25.34c4.86-6.55,9.09-14.61,7.24-22.55-1.54-6.61-7.16-11.71-13.48-14.19s-13.28-2.68-20.06-2.37c-25.48,1.17-47.93,6.12-71.83,23.81-10,7.43-19.18,14.37-23.91,26.54-2,5.29-3.51,12.17-5.14,19.91-2.9,13.75-2.29,14.76-3.56,20-3.51,14.44-15.12,26-28.4,28.31s-28.09-.6-35.38-13.17c3.92,3.93,3.72,10.84,2.33,16.51-3.07,12.46-9.79,24.73-19.71,31.43,5.14-1.21,9.67,5.22,9.25,11s-4.13,10.66-8,14.65c-.87.9-3,3.62-3.12,2.3-16.93-12.8-23.59-40-14.84-60.58-2.47,7.34-10.69,9.54-17.67,10.53-13.24,1.88-26.73,3.22-39.87.64s-26-9.49-34-21.42c-20.22,34.11-61.55,46.93-97,36.24,3.81,2.18,3.16,8.48,1.42,12.83-10.58,26.35-42.92,38.41-65.62,24.48-2.45,7.89-4.14,13.15-9.3,19.2s-12.27,10.37-19.77,10.51c-11.07.22-20.82-8.42-27.33-18.38C1137.8,339.8,1133.86,314,1140,291.2c-11.91-.49-20.6,11.48-27.24,22.49-15.66,25.95-39,46.09-65.42,56.54-13.86,5.47-28.88,8.34-43.32,5.32S975.82,363,969.1,348.46c-9.37,13.36-30,15.68-43.92,8.81-3.11-1.53-6.42-4.5-5.86-8.23-34.61,39.57-83.08,61.06-132.67,59.22s-98.56-31.8-123.15-79.78c-80.36,13.94-146.89,72.29-219.16,113.82a494.89,494.89,0,0,1-129.59,51.95c-27.12,6.58-58.14,9.88-80.18-8.92-14.43-12.3-22.13-31.88-28.14-51-18.6,10.21-44.66,5.47-61.64-7.8s-24.86-40.63-15.32-61.14c-4.7-12-20.54-18.17-31-12.2C88.25,359,85.45,365.66,71,377.8,52.43,393.47,32.21,396.48,22,398c-14.3,2.13-31.49,4.68-43.12-3-26.8-17.7-17.72-85.63-13.77-118.67,7.37-61.69,14.71-151.1,13.78-270.79,602.84-79,822.37-67,886.53-28.54,11.5,6.89,74,48.19,164.76,60.17,22.36,2.94,42.89,2.57,83,2.25,77.87-.63,155.44-10.56,233.25-14.25a1457.31,1457.31,0,0,1,155.15.91c7.91.47,16.37,1.22,22.58,6.69,9.38,8.27,9.41,20.36,11.1,24.75,5.4,14,55.85,16.21,234.72-25.52"/><path class="cls-7" d="M1799,177a292.85,292.85,0,0,0-7-95c-8.68-35.8-13.69-59.57-34-76-43.37-35.1-113.71-20.88-123-19-20.44,4.13-44.39,12.8-78.19,6.72-13-2.34-22.19-6.47-24.34-6.69-170.36-17.34-340.74-34.68-511.32-49.11-181.36-15.34-362.93-27.4-544.48-39.45C327.37-111.44,175.23-121.07,30.29-80-31.64-62.41-95.19-32.61-119.31,33.27c15.47,40,49.53,69,87.06,81.43s78.11,9.52,116-1.64c40.42-11.92,79.05-33.52,109-66.06s53.19-78.38,56.07-124.82a305.43,305.43,0,0,0,89.57,2.94c31.66-3.64,66.24-11,95.14,3.83C387.84-41.61,343.74-8,308.24,35.34s-62.11,97.41-68,155.72c-4,39.41,2.42,81.93,25.55,112.1,26.31,34.31,69.51,46.86,110,46.58,30.6-.21,61.58-6.86,88.45-23.17,34.3-20.81,59.85-56,79.87-93.32s35.37-77.59,55-115.22c8-15.46,18.85-27.34,34.47-23.18,2,6.07,6.55,10.69,11.44,14.19,20.61,14.75,50.19,9.83,67.67-9.29-6.84,23.65-10,49-6.15,73.47s15.43,47.93,33.71,62.17c23,18,54.29,19.21,80.9,9s49.15-30.53,68.69-53.06C906,172.7,923.36,153.68,944,141.73c6.09,29.05,19.65,56.87,41,74.88s51,24.87,75.85,13.72c18.32-8.23,32.66-21,45.17-38.05-2.23,32.55-2.35,69.73,19,92.16,19.64,20.67,50.52,20.59,76.75,13.34,49.26-13.61,98-49.52,125.85-96.76,7.67,17.86,24.75,28.39,41.78,34.09,15.62,5.22,37.25,3.93,50.93-6,.47,3.69,2,11.76,7.85,18.53,11.94,13.8,30.34,8.78,31.89,8.33a37.51,37.51,0,0,0,21.55-18c7.31-13.75,1.53-23.42,6.29-42a72.86,72.86,0,0,1,15.27-29c.89,3.07,4.53,14.18,15.27,20,14,7.58,30.72,1.12,39.59-7,9.25-8.46,11.45-20.06,13.52-31a83.79,83.79,0,0,0,1.37-19.77c2.86,6.1,8,9.33,14.4,11.54s13.31,2.35,20,1.47a69.19,69.19,0,0,0,51-35.11c2.92-5.42,5.15-11.62,4-17.66,1.36,4.33,4,7,6.3,11a21.08,21.08,0,0,0,9.89,9c10,4,21.88-6.8,22.6-7.47,7.93,0,39.75.57,54,22,3.85,5.8,7,14.07,6,44a395.67,395.67,0,0,1-8.91,70.36"/><path class="cls-7" d="M75.16-.86a192.3,192.3,0,0,1,5.15,97.43C75.58,119.28,64.09,143.41,43.76,149c15.6,25.38,2.52,63.11-21.23,78.8s-53.76,14-80.5,6.29c-10.34-43.84-23.17-89.1-13-133,2.35-10.18,5.92-20.34,12.41-28,7.19-8.45,17.21-13,26.78-17.72C1.52,38.94,46.49,24.23,75.16-.86Z"/><path class="cls-6" d="M303.69,537.33c-28.59,15.91-60.86,26.06-92.5,21s-62.2-27.57-72.8-61.14c-2-6.33-3.28-13.15-2.24-19.77s4.76-13,10.39-15.4c8.37-3.59,17.33,2.18,25.48,6.37s23.43,8.11,28.25-.32c8.69,26.83,30,48.13,54.91,54.86,17.59,4.75,29.86-.59,45.16-8.26a88.34,88.34,0,0,1,52.5-8.38l-2.28.38C332.87,509.67,319.37,528.61,303.69,537.33Z"/><path class="cls-4" d="M191.67,333.09c3.41-13.74,8.61-27.13,9.29-41.36s-4.61-30.14-16.39-35.7c-13.57-6.4-29.92,4.42-35.79,19.46s-3.66,32.48.66,48.17c4.65,16.93,12.77,36,26.09,46.63C193.28,384.45,189,343.87,191.67,333.09Z"/><path class="cls-4" d="M708.3,316.12c13.92-17.18,33.2-28.88,53.71-32.61,8.7-1.58,18-1.67,25.86,2.78,15.61,8.84,19.73,31.28,30.78,46.4,10.16,13.88,25.84,21,41.11,26.67-1,6.38-7.15,9.88-12.65,12-40.65,15.47-88.5,4.51-120.37-27.56"/></g><g id="clouds_1" data-name="clouds 1"><path class="cls-7" d="M1504.8,223.34c.84,4.68,2.2,9.46,5.2,12.88a13.17,13.17,0,0,0,20.18-.94,11.72,11.72,0,0,0,2.38-6.27c.24-5-3.43-9.13-6.8-12.49-3.17-3.17-15-18.89-19.19-18.29C1501,199,1503.94,218.49,1504.8,223.34Z"/><path class="cls-7" d="M631.09,119.62c-2.22-2.61-4.35-5.5-7.26-7.05-2.85,8.12-1.92,17.25-.33,25.79,1.79,9.6,5.06,20,12.86,24.54,5.12,3,11.36,2.76,16.87.85s10.48-5.38,15.36-8.82c-5.25,3.35,10.27,11.16,15.88,1.39,3.85-6.69-.74-9.83-6.29-12.67C661.32,135,645,136,631.09,119.62Z"/><path class="cls-7" d="M267.05,27.87c-2.88,15.34,1.38,16.69-1.59,26.94-5.74,19.87-26.37,30.83-41,33.16-4.59.73-12.21,2.2-15.34-2.56-3.26-4.94-1.92-12.22-.09-18.15,3.62-11.76,9.82-24.16,19.88-26.41-2.42-2.14-1.93-6.74-.77-10.1a44.8,44.8,0,0,1,16.46-21.5c4.47-3.2,27.2-17.33,31.63-12C279.26.94,270.66,8.58,267.05,27.87Z"/><path class="cls-7" d="M102.86,165.5c-4.56,1.36-9.46,1.51-13.62-1.76A12.59,12.59,0,0,1,84.67,156c-1.06-6.06,1.94-12,5.21-15.5,10.64-11.22,23.48-7.73,35.4-10.5,5.23-1.21,11.22-5.84,6.19,5.63a68.86,68.86,0,0,1-11.75,18.6C114.65,159.74,108.89,163.7,102.86,165.5Z"/><path class="cls-6" d="M441.14,258.44c6.86-28.71,9.53-51.36-.76-74.39-10.17-22.76-36.49-37.66-56.93-26.33-6.64,3.68-12.37,10.22-13.81,18.32,5.64-13.25-1.05-30.54-12.87-37s-26.86-2.9-36.79,6.72-15.12,24.35-16,39,2.16,29.24,6.5,43.09a213.92,213.92,0,0,0,45.86,80.35c7,7.65,13.22,15.75,23.3,17,10.52,1.31,20.22-4.89,25.36-8.18a62.76,62.76,0,0,0,16-15C433.47,286,438.64,268.9,441.14,258.44Z"/><path class="cls-6" d="M1318.65,137.6c-4.5-8.5-8.32-17.79-8.73-27.65s3.19-20.4,10.75-25.55c11-7.46,26.44-.48,32.87,11.9s5.49,28,1.45,41.59c2.26-3.72,4.58-7.52,7.85-10.14s7.74-3.88,11.4-2c9.25,4.77,11.07,29,11.09,38.64,0,10.54-5.16,19.58-15,21.22C1349.37,189.1,1327.66,154.65,1318.65,137.6Z"/><path class="cls-6" d="M1404.61,151.25c-.71-3.34-1.47-7.21.42-9.92a7.09,7.09,0,0,1,5.22-2.68c6.19-.64,12.3,3.6,15.42,9.59s3.54,13.39,2.15,20.14c-1.15,5.6-12.28,29.67-20.17,24.24-2.9-2-.57-13.58-.54-16.55A114.75,114.75,0,0,0,1404.61,151.25Z"/></g><g id="grass_2" data-name="grass 2"><path class="cls-8" d="M359.55,708.11A447.91,447.91,0,0,1,430.79,672c8.85-3.52,19.39-6.46,26.86.18,2.13,1.9,3.86,4.49,6.3,5.76,3.94,2,8.42.09,12.59-1.18,13.29-4.06,27.3-.8,40.74,2.47A115.75,115.75,0,0,1,534,684.12c6.47,2.63,12.57,6.44,19,9.32,26.59,12,98.88-10.57,98.88-10.57,67.36-23.66,101-35.49,115.18-30.37,33.76,12.21,38.7,45.66,95.75,71,15.3,6.81,23,10.22,30.5,10.42,39,1,57.19-45,120.33-71.53,6.75-2.83,12.36-4.75,15.87-5.88a147.81,147.81,0,0,1,47.87-5.08c51.71,3.15,69.15,32.61,107.49,23.63,22-5.15,39-19,47.64-28.52,13.22-14.73,24-32.24,36.19-48.15,42.34-55.15,113.87-73.94,119.27-75,46.34-8.71,50.24,16.9,128.11,30.51,79.94,14,102.09-7.73,184,7a420.15,420.15,0,0,1,97,30c-182.2,124.86-232.66,172.68-230.27,187,.29,1.77,3.44,16-3.85,23-3,2.92-7.12,3.47-11,3.9l-100.77,11.24c-28.77,3.21-57.66,6.43-86.51,4.6-26.33-1.66-52.33-7.5-78.57-10.65-49.08-5.89-98.56-2.34-147.86-.4-66.56,2.61-133.17,2.28-199.76,2l-526.57-2.64c-18.6-.1-39.27-1.17-52.41-16.79C340.47,769.69,350.43,738.13,359.55,708.11Z"/><path class="cls-9" d="M1340,551.19c-.88-17.45-1.49-34.6-1.59-52.07-1.2,0-2.39.26-3.58.22a4.39,4.39,0,0,1-3.25-1.29,1.87,1.87,0,0,1,0-2.82A116.9,116.9,0,0,1,1373.11,433c-.39.21.79.55,1.17.77a54.23,54.23,0,0,1,20.54,20.91c17.09,1.38,33.89.9,51-.17,3,2.19,4.3,5.39,5.12,9s1,7.29,1.67,10.91a37.42,37.42,0,0,0,9.39,18.48c-.34.18-.24.93-.46,1.24a6,6,0,0,1-3.71,2.28,18.23,18.23,0,0,1-4.43.21c.41,16.71.73,33.79,1.84,50.47l-10.78,1.39c-5.13.66-10.27,1.32-15.43,1.74-8.25.67-16.54.72-24.83.76C1383,551.08,1361.27,551.08,1340,551.19Z"/><rect class="cls-8" x="1418.05" y="440.56" width="19.36" height="19.98" rx="4.08"/><path class="cls-10" d="M1128.56,668.68a2.84,2.84,0,0,1,1.71-.53,17.48,17.48,0,0,1,9.15,1.91c.67.34,1.39.85,1.4,1.59s-.8,1.35-1.54,1.66a11.18,11.18,0,0,1-8,.15C1129.94,673,1126.71,670.3,1128.56,668.68Z"/><path class="cls-10" d="M1121.36,672.91a5.16,5.16,0,0,1,3.38,2.27c1,2-.67,4.32-2.61,5.35-3.33,1.76-15.38,1.6-15.64-3.8C1106.17,670.09,1118.05,671.93,1121.36,672.91Z"/><path class="cls-10" d="M1117.63,689.38a6.1,6.1,0,0,1,2.75.58,9.07,9.07,0,0,1,4.37,3.48,6.57,6.57,0,0,1-1.18,7.95,8.34,8.34,0,0,1-3.52,1.84,10.11,10.11,0,0,1-8.39-1.25c-2.41-1.69-4.29-5-2.28-7.6C1110.74,692.65,1115.47,689.54,1117.63,689.38Z"/><path class="cls-10" d="M1098.66,710a9.93,9.93,0,0,1,3.92-.59,4.26,4.26,0,0,1,3.31,1.93,7.62,7.62,0,0,1,.58,3.89,24.46,24.46,0,0,0,.66,5.66c.52,2.19,1.34,4.5.58,6.62a6.34,6.34,0,0,1-1.7,2.43,10.59,10.59,0,0,1-10.82,1.9c-3.73-1.44-8.85-6.49-8.45-10.83C1087.25,715.36,1094,711.45,1098.66,710Z"/><path class="cls-10" d="M1111,745.67a5.76,5.76,0,0,0,2.81,3.46c2.42,1.12,5.24-.23,7.4-1.78s4.23-3.54,4.55-6.15c.53-4.23-3.74-12.71-8.88-10.22C1112.24,733.21,1109.39,741,1111,745.67Z"/><path class="cls-10" d="M1109.28,756.27a5.29,5.29,0,0,1,.82,4.41,4.05,4.05,0,0,1-3.47,2.43,7.4,7.4,0,0,1-4.25-1.12,13,13,0,0,1-6.17-8.29c-.74-3.28,0-8.45,4.39-7.05C1104,747.73,1107.58,753.4,1109.28,756.27Z"/><path class="cls-10" d="M1068.43,755c-.61-1.83.89-3.69,2.46-4.83,3.84-2.76,9.1-3.81,13.41-1.87s7.1,7.21,5.52,11.66a6.86,6.86,0,0,1-2.49,3.38c-2.15,1.48-5,1.35-7.57.82a16.11,16.11,0,0,1-8.6-4.23c-2.23-2.36-3.29-6-1.91-9"/><path class="cls-10" d="M1051.72,748.05c5.38,1.26,10.79,6.34,12.94,13.3a11.91,11.91,0,0,1,.57,5.6,6.64,6.64,0,0,1-4.83,5.07c-4.19,1.33-8.92.32-13.22-2.17-3.22-1.86-13.52-8.78-12.08-14.66C1036.71,748.64,1047.19,747,1051.72,748.05Z"/><path class="cls-10" d="M1016.7,777.08c4.74,6,13.22,7.74,20.8,6.9s14.75-3.81,22.17-5.61a18.12,18.12,0,0,1,7.52-.62c5.81,1,9.84,7.79,8,13.4"/><circle class="cls-5" cx="1157.5" cy="624.5" r="1.5"/><circle class="cls-5" cx="1033.5" cy="477.5" r="1.5"/><circle class="cls-5" cx="1104.5" cy="569.5" r="1.5"/><circle class="cls-5" cx="1342.5" cy="424.5" r="1.5"/><circle class="cls-5" cx="896.5" cy="662.5" r="1.5"/><circle class="cls-5" cx="921.5" cy="554.5" r="1.5"/><circle class="cls-5" cx="1202.5" cy="537.5" r="1.5"/><circle class="cls-5" cx="1189.5" cy="555.5" r="1.5"/><circle class="cls-5" cx="953.5" cy="459.5" r="1.5"/><circle class="cls-5" cx="1292.7" cy="526.8" r="1.5"/><circle class="cls-5" cx="1272.7" cy="559.71" r="1.5"/><circle class="cls-5" cx="1507.78" cy="464.64" r="1.5"/><circle class="cls-5" cx="1567.5" cy="518.5" r="1.5"/><circle class="cls-5" cx="1602.5" cy="450.5" r="1.5"/><circle class="cls-5" cx="1620.5" cy="470.5" r="1.5"/><circle class="cls-5" cx="1211.5" cy="563.5" r="1.5"/></g><g id="grass_1" data-name="grass 1"><path class="cls-11" d="M1.85,531.63c23.36-17,67.84,5.34,71.68,7.8,21.26,13.57,37.52,33.47,55.35,51.31s38.8,34.45,63.71,38.39c20.66,3.27,41.52-2.54,62.15-6s43.48-4.14,60.67,7.79c13.33,9.25,21.74,25.16,36.6,31.69,6.37,2.8,13.43,3.61,20,6,30.39,11.23,41.94,53.37,73.32,61.45,7.76,12.07,20,25.91,33.84,29.91,10.8,3.14,22.41.07,32.88-4.06,50.37-19.86,89-63.29,140.12-81.23a156,156,0,0,1,97.72-1.58c33.9,10.67,66,22.79,101.5,24.82l90.81,5.2c5.48.31,12.07,1.36,14.19,6.43,3.34,8,14,12.71,22.57,11.58s16.63-5.45,25.28-5.54c9.85-.1,18.81,5.25,27.33,10.21a540.13,540.13,0,0,0,207,69.22c35.27,4.21,71.25,4.89,106.11-2,127-24.93,219.32-143.9,346-170.24-1.1,3.26,4.88,6.23,8.13,7.38a16.41,16.41,0,0,0,10.21-.12c10.76-3.11,29.79-8.65,54.07-16.08,2.37,92.41,4.61,156.67,7,171,.46,2.75,2.56,13.48-2,25a46,46,0,0,1-5,9c-17.29,23.65-1112-8.67-1293-8-218.18.81-327.27,1.22-331,2C83.93,824.52,20,844.22-6,814c-19-22,1.62-48.13,4-131C.63,591.43-22.37,549.23,1.85,531.63Z"/><path class="cls-11" d="M25.55,544.92A584.37,584.37,0,0,0-39.17,437.56C-21.83,454.19-4.32,471,8.71,491.19s21.39,44.32,18.41,68.16"/><path class="cls-11" d="M46.85,555.25a112.53,112.53,0,0,1,10.08-71.57C62.74,472.23,72,460.9,84.77,459.39c-7.52,5.14-12.08,16.38-15.73,24.72a190,190,0,0,0-15.21,91.75c1-32.93,15.16-61.88,33.92-89,14.48-20.9,31.21-42.48,55.36-50.42"/><path class="cls-1" d="M73.33,556.08c-15.6-27.74-25.74-59.32-24-91.11s16.53-63.63,42.73-81.72"/><path class="cls-11" d="M78.87,563.93c-23.33-53.28-20.54-117.37,7.51-168.35-19.83,24.54-33.22,54-34.88,85.51-1.65,31,11.83,60.14,28.5,85.48-2.81-9.93-4.81-18.12-3.29-28.6a114.28,114.28,0,0,1,16.57-44.72c2.12-3.33,4.84-6.83,8.75-7.39"/><path class="cls-1" d="M100.51,495.06c-10,11.25-15.7,25.84-18.35,40.67s-2.43,30-1.89,45.07"/><path class="cls-11" d="M129.74,473.18a8.1,8.1,0,0,1,5.41-1.67,6,6,0,0,1,4.74,4.31,8.89,8.89,0,0,1-1,5.95c-2.1,4.56-15,25.31-20.45,18.34C111.77,491.62,125.76,475.77,129.74,473.18Z"/><path class="cls-11" d="M92,356.32c3-4,7.69-7.83,12.47-6.44,5.47,1.58,6.9,8.71,6.23,14.36-1.1,9.27-11.22,34.77-24.06,32.49C71.35,394,87.23,362.55,92,356.32Z"/><path class="cls-11" d="M238.67,651.56c1.16-15.52-7.75-30.43-19.69-40.42s-26.66-15.92-41.12-21.69c15.86,8.8,28.14,18.86,42,30.53,5.62,4.73,11.12,9.74,15.28,15.79S239,644.22,238.67,651.56Z"/><path class="cls-1" d="M246,634.24c-5.21-31-27.95-58.52-57.46-69.45"/><path class="cls-11" d="M251.59,649.09c-.77-18.66-9.71-36.24-21.68-50.58-7.57-9.06-16.34-17-25.44-24.48-6.46-5.32-14-14.17-22.57-15,22.17,2.58,43.15,11.64,56.76,29.32S254.76,627,251.59,649.09Z"/><path class="cls-11" d="M241.92,639.36A102.83,102.83,0,0,1,199,624.46c-10.2-6.36-12.61-14.7-19-23.81-.94,1.1.26.76,1.32,1.74a119.71,119.71,0,0,0,74.59,31.29"/><path class="cls-11" d="M236.52,664a106,106,0,0,1,25.12-89c-18.14,28.84-23.4,70.48-11.5,102.4"/><path class="cls-11" d="M311.69,650.05c-9.14-13.39-16.59-28.15-19.95-44s-2.41-32.89,4.5-47.55c-2.28,4.84-1.46,13.62-1.46,18.9a125.28,125.28,0,0,0,1.65,20.09A126.64,126.64,0,0,0,301.24,617a119.59,119.59,0,0,0,30.36,48.5"/><path class="cls-11" d="M351.87,670.14A17,17,0,0,0,349,657.42c-3.11-4.33-8-6.9-12.32-10A50.75,50.75,0,0,1,318.44,622c-1.7-5.35-2.43-11.41.11-16.42a41.46,41.46,0,0,0-4.7,26.77,45.39,45.39,0,0,0,12.93,25.37"/><path class="cls-11" d="M302.87,635a106.93,106.93,0,0,1-27.42-60.84c3.13,27.88,16.59,58.47,38.06,76.53"/><path class="cls-11" d="M474,763.38a72.88,72.88,0,0,1-20.56-66.27c-1.24,26.7,13.94,56.16,35.91,71.38"/><path class="cls-11" d="M506.24,766.31c0-15.5-5.29-30.73-13.6-43.82S473.16,698.33,461,688.71c-12-9.48-25.58-17.87-40.75-19.7-8.71-1-19.41,1.48-22.2,9.8,18.65-11.32,43.08-7.13,62.65,2.51,12.76,6.28,24.77,15,32.17,27.15,12.14,19.91,10,45,7.46,68.21"/><path class="cls-11" d="M515.82,761.32a123.75,123.75,0,0,0-12.39-72.9c8.2,15.2,16,29.84,18.75,46.88C524,746.21,518.73,750.66,515.82,761.32Z"/><path class="cls-1" d="M534.18,773.72c-.73-29.42,6.37-58.56,16.26-86.28,3.92-11,8.62-22.27,17.56-29.75"/><path class="cls-11" d="M533.9,784.89c-10.1-23.32-3.52-50.35,5.71-74a358.25,358.25,0,0,1,29.71-59.29c-9.57,22.51-20,44.37-25.67,68.16s-7.77,48.75-3,72.74"/><path class="cls-11" d="M544.42,758.57c-2.46-.05-2.7-3.65-2-6,10.14-35.49,38.56-65.22,73.55-77-25.71,19.06-49.64,39.21-68.94,64.73-8.89,11.74-17.16,24.43-20.43,38.79"/><path class="cls-11" d="M528,756.3c11.69-51,51-94.78,100.41-111.91-25.16,4.71-47.25,15.94-64,35.31s-27.81,43.18-34.56,67.88c-2.56,9.38-4.49,19.6-.85,28.62"/><path class="cls-11" d="M663.21,713.13c4.08-16,15.72-29.26,29-39.1s28.45-16.88,42.87-25c15.83-8.92,31-19.3,43.53-32.46s22.31-29.28,26.13-47c-1.58,14.48-6.33,28.22-14.89,40-11.14,15.32-28.43,24.68-44.57,34.6-13.37,8.21-26.51,17.29-36.46,29.43s-16.47,27.8-14.81,43.41"/><path class="cls-1" d="M646.06,704.14a123.09,123.09,0,0,1,107-63c11.86-.07,31.89-.24,41,8.33"/><path class="cls-11" d="M663.38,695.75A119.83,119.83,0,0,1,802.44,653c-29.56-9.93-65.62-13.13-95.69-4.87-18.85,5.18-37,14.07-51,27.65s-23.8,32.13-24.7,51.66"/><path class="cls-11" d="M504.38,781.12c-.7-22.45-12.26-48.35-33.88-56.82,14.3,1.61,25.72,6.63,36.18,16.51s17,24.11,16.44,38.48"/><path class="cls-11" d="M532.36,763.81a94.82,94.82,0,0,0-33.82-59.56c6.89,10.5,12.8,20.65,17.08,32.46s6.43,24.56,4.85,37"/><path class="cls-11" d="M696.31,686.63c38-30.5,91.35-45.27,139.59-38.47-22.32-.87-44.93-1-66.67,4.15s-42.77,16-56.47,33.62"/><path class="cls-11" d="M655.19,691.74c10-15.6,9.42-34.34,8-52a68.54,68.54,0,0,1,4.24,23.93C667.47,672.3,660.67,685.12,655.19,691.74Z"/><path class="cls-11" d="M841.94,638.12a33.56,33.56,0,0,1,16.75,1.94c2.28.88,4.86,3,3.84,5.25a4.69,4.69,0,0,1-2.7,2c-5.17,2.06-19.81,6.29-24.68,1.85C829.6,644.11,836.87,638.82,841.94,638.12Z"/><path class="cls-1" d="M713.45,681.81a31.91,31.91,0,0,1,12-10.07c15.86-7.66,34.61-1.34,51,5.09s35,12.92,51,5.53a194.54,194.54,0,0,1-50.89,11.71"/><path class="cls-1" d="M736.07,707.06l.41-.41"/><path class="cls-11" d="M695,674.05a84.26,84.26,0,0,1,50.34-14c12.72.59,25.1,4.07,37.61,6.42s25.67,3.55,37.8-.33C785.67,677.4,747,657,711.56,667c-8.66,2.43-17.31,7-21.59,15"/><path class="cls-1" d="M969.09,737.27a49,49,0,0,1,3.71-59.69"/><path class="cls-11" d="M981.56,741c-9.45-7.41-13.9-19.84-14.13-31.85s3.24-23.75,7.17-35.09a65.86,65.86,0,0,0-10,34.48C964.62,720.49,973.07,732.64,981.56,741Z"/><path class="cls-11" d="M814.12,693.34c8.94,3.64,18.72,4.7,28.37,5.09a218,218,0,0,0,60.86-6.18c5.54-1.36,11.24-3.07,15.44-6.91C907.14,699.55,887,706.56,869,702.82"/><path class="cls-11" d="M974.83,661.87a9.31,9.31,0,0,1,2.39-3.49,4.08,4.08,0,0,1,4-.81c1.48.6,2.27,2.23,2.62,3.78a12.78,12.78,0,0,1-2.22,10.38c-1.85,2.47-6,6-8.6,2.73C970.91,671.77,973.66,664.51,974.83,661.87Z"/><path class="cls-11" d="M984.23,738.38c-.06-11.62-6-22.4-13-31.66s-15.25-17.65-21.08-27.7-9.06-22.46-5-33.33c-6.46,19.34-.45,43.36,14.19,57.57,4.58,4.44,9.92,8.06,14.32,12.69S984.63,732,984.23,738.38Z"/><path class="cls-11" d="M996.46,744.11a90.44,90.44,0,0,1-4.2-59.72C984.85,705.93,986.47,723.64,996.46,744.11Z"/><path class="cls-11" d="M1002.76,739.69c-2.4-9.26-2.89-19.16-.26-28.36s8.56-17.62,16.93-22.25c-15.5,16.24-17.87,41.79-8.31,62.09"/><path class="cls-1" d="M992.36,745c-2.44-14.15,1.07-28.89,7.78-41.58s16.48-23.54,27-33.32"/><path class="cls-11" d="M989.24,752.21c-3.76-5.94-4.82-13.3-4-20.28s3.4-13.63,6.48-19.94a129.63,129.63,0,0,1,36.9-45.45c-16.59,18-30.63,38.24-33.25,62.59-.77,7.13-.36,14.72,3.35,20.86"/><path class="cls-11" d="M977,725.93a36.75,36.75,0,0,0-5.21-37.4c4.87,15.3,3.89,34.65-4.14,48.55"/><path class="cls-11" d="M1028.2,664.72a25,25,0,0,0,6.13-14.82c.13-2,.26-4.39,2-5.3-.21-1,.52-1.13,1.54-1.14a4,4,0,0,1,2.65,1.36,10.27,10.27,0,0,1,1.33,12.36c-1.73,2.73-4.66,4.45-7.6,5.78C1031.83,664.07,1030.9,664.76,1028.2,664.72Z"/><path class="cls-11" d="M1258.2,802.87a96.32,96.32,0,0,1-49.63-61.67c-1.42-5.6-2.24-11.86.63-16.87-3,6.14-2.8,13-2.4,19.85,1.46,25.14,17.32,48.94,40,60"/><path class="cls-1" d="M1275.4,802.88c-5-12.52-18.78-18.91-31.72-22.66-16-4.63-32.46-7.1-48.43-11.64-10.61-3-21.25-7.1-29.37-14.56s-13.31-18.91-10.8-29.65"/><path class="cls-11" d="M1282.59,807.7c-6.25-10.23-14.14-19.78-24.5-25.82-13.92-8.1-30.67-9.08-46.43-12.38-12.24-2.57-24.38-6.77-34.36-14.32s-17.59-18.82-18.72-31.28c-.58,18.65,13.81,33.83,31.43,40,15.62,5.45,33.18,1.85,49,6.64C1260.27,776.93,1270.42,789.13,1282.59,807.7Z"/><path class="cls-1" d="M1298.75,821.22c-1.59-12.54-7.59-24.2-15.29-34.23-8.11-10.55-20-25.36-31.64-31.84"/><path class="cls-11" d="M1302.53,833c1.63-15.89-4.75-31.93-15-44.14s-24.22-20.92-38.84-27.36C1273.81,780.16,1292.8,803.19,1302.53,833Z"/><path class="cls-11" d="M1435.22,776.67c1.24-4.06,4.12-7.35,6.62-10.77,6.84-9.36,11.22-20.64,11.6-32.21s-3.4-23.4-11.1-32.06c8.69,10.39,17.75,23.13,19.51,36.56s-2.77,28.21-13.69,36.22"/><path class="cls-11" d="M1473.42,760.21a334.89,334.89,0,0,1,8-75.54c1.78-8,4-16.15,9-22.59s13.64-10.75,21.49-8.48c-7.67.57-15.7,7.37-20.29,13.55-10.27,13.83-13.94,31.54-14.52,48.76S1473.2,743,1473.42,760.21Z"/><path class="cls-11" d="M1480,748.11c-2.52-7.78-.25-16.33,3.21-23.74,7.8-16.71,21.28-29.94,33.11-44.09s22.61-30.66,23.13-49.1c1.26,11.28,1.51,21.68-1.38,32.65-2.95,11.21-9.94,20.82-16,30.71a203.73,203.73,0,0,0-21.37,48.05c-2,6.58-3.49,14-.32,20"/><path class="cls-11" d="M1537.26,724.58c6.32-12,9.06-25.65,9.78-39.2.78-14.71.25-30.52-2.49-45,5.93,13.19,9.14,25.56,9.43,40S1546.2,713.22,1537.26,724.58Z"/><path class="cls-11" d="M1493.59,731.13c-.53-9.68,5.08-18.61,11.39-26,18-20.91,42.86-34.88,61-55.6,5.31-6.06,10.25-13.53,9.28-21.52-6.73,15.36-23.65,24.31-36.58,35a121.84,121.84,0,0,0-35.81,49.55"/><path class="cls-1" d="M1702.55,643.8a85.39,85.39,0,0,0,26.26-37c5.38-14.67,3.14-27.57,4.58-42.28"/><path class="cls-11" d="M1689.54,655.59c14.42-10.3,24.17-26.13,30-42.86s8.07-34.47,9.93-52.09c-2.11,12.27-.19,21.86.55,34.28s-.11,25.69-7.16,36c-3.85,5.59-10.19,10.21-16.92,9.36"/><path class="cls-11" d="M1723.08,638.51c5.34-16.58,10.75-33.3,19.31-48.47s20.61-28.89,36.29-36.5c-28.79,28.39-50.2,69.29-52.61,109.65"/><path class="cls-11" d="M1701.32,643c9.07-17.43,6.5-40.24-6.21-55.23,6.54,9.06,15,21.41,15.9,32.55C1711.84,630.49,1705.43,633.66,1701.32,643Z"/><path class="cls-11" d="M1529.68,722.45c3.17-40.48,33-77.56,71.89-89.3-34.54,21.1-61.31,59-66,99.2"/><path class="cls-11" d="M1572.67,700.29c-4.06-4.79-3.51-12-1.22-17.89,5.6-14.3,19.18-23.54,31.51-32.7,9.62-7.15,19-14.85,26.28-24.37s12.4-21.07,12.5-33.06c-3.72,20-18.31,34.55-31.81,49.77s-27.9,30.61-34.3,49.92c-2.06,6.21-3.23,12.91-1.86,19.31"/><path class="cls-11" d="M1619,654.57c2.62-.72,4.66-2.73,6.5-4.72a110.11,110.11,0,0,0,12.17-15.94c3.84-6.11,7.17-13.12,6.18-20.27,1.28,18-7.31,37.65-22,48.14"/><path class="cls-11" d="M1226.87,802.17c-5.7-9.15-12.41-17.77-20.65-24.73s-18.09-12.21-28.7-14.12c2.59-.55,5.5-.94,7.89.19a161.83,161.83,0,0,1,35.9,23.35c5.85,5,11.8,11.72,10.75,19.36"/><path class="cls-11" d="M1639.91,593.51a22.09,22.09,0,0,1,.25-14.77c.36-1,1.16-2.1,2.16-1.81a2.06,2.06,0,0,1,1,.87,13.47,13.47,0,0,1-2.28,17.44"/><path class="cls-11" d="M1643.49,611.47a7.66,7.66,0,0,1,.73-6.79,1.85,1.85,0,0,1,3.16-.45,7.57,7.57,0,0,1-3.6,13.23"/><path class="cls-11" d="M1513.41,650.13c3-1.32,6.42,0,9.39,1.39a9.18,9.18,0,0,1,3.46,2.25,3.15,3.15,0,0,1,.36,3.82,3.94,3.94,0,0,1-2.32,1.23,13.1,13.1,0,0,1-13.71-5.8"/><path class="cls-11" d="M722.17,686.85c24.76,0,47.65-14.81,63.26-34s25.13-42.55,34.44-65.49c-7.9,12.6-11,27.87-15.09,42.17s-8.76,28.85-18,40.53-24,20.07-38.67,17.77"/><path class="cls-11" d="M1303.28,802.69a134.9,134.9,0,0,0-8.34-37c7.42,13.48,13.86,31.63,11.79,46.88"/><path class="cls-11" d="M1318.43,819.49c34.83-11,61.1-45,63-81.52-.8,14.81-3.26,33.13-9.73,46.48s-16.64,25.14-29.75,32.09"/><path class="cls-11" d="M1353.7,807.9c5.4-.51,8.93-5.75,11.43-10.56C1373.64,781,1379.6,763.25,1390,748s26.69-28.12,45.12-27.89c-7.77-.07-17,3.81-23,8.69-11,8.89-18.78,21.3-24.12,34.41s-8.45,27-11.52,40.82"/><path class="cls-11" d="M1399.06,795.48c13-29.65,7.84-66.49-12.92-91.35,6.75,17.7,13.58,36.18,15.31,55s-2.22,39.06-14.79,53.23"/><path class="cls-11" d="M1407.3,783.35c11.86-13,15-31.59,16.68-49.11-2.86,22.54-18,44.4-38.59,54.12"/><path class="cls-11" d="M1446.07,779.81c4-7.57,4.59-16.61,3.1-25s-4.9-16.42-8.57-24.16c-5.29-11.16-14.62-31.16-27.66-34.89,18.86,7.32,32.15,28.72,40.74,47,5.74,12.26,11,25.79,8.18,39"/><path class="cls-11" d="M1066,754.52c-3.52-.7-5.77-4.07-7.58-7.18-5.9-10.16-11.3-20.73-14.55-32s-4.28-23.44-1.42-34.84c-9.14,25.06-3.94,56,13.12,76.55"/><path class="cls-11" d="M1080.7,756.81A101.49,101.49,0,0,0,1016.57,705c33.21,6,61.16,31.54,71.49,63.68"/><path class="cls-11" d="M42.88,555.1C35.33,550.23,30.5,541.81,28.71,533s-.79-18,1.45-26.69C39.25,471,70.06,442.16,106,435.48c-28.24,8-58.37,19.91-75.47,43.79-14.68,20.49-16.21,48.91-6.22,72.05"/><path class="cls-11" d="M127.38,599.93C115,587,108.1,569.34,106.83,551.49s2.88-35.86,10.44-52.07c-10.1,13.94-17,30.92-15.79,48.1S115.5,587.47,127.38,599.93Z"/><path class="cls-11" d="M123.6,610a87.21,87.21,0,0,1-4.48-78.87c-13.79,18.91-17.69,45.6-9.27,67.45"/><path class="cls-5" d="M970.86,444a16.78,16.78,0,0,0,1.71,1.37A17.51,17.51,0,0,0,978,447.9a12.39,12.39,0,0,0-5.07,2.19,11.63,11.63,0,0,0-1.64,1.49,9.34,9.34,0,0,0-1.46,1.61,10.64,10.64,0,0,0-1.92,5.27,15.72,15.72,0,0,0-2.82-5.46,15.21,15.21,0,0,0-1.41-1.53,13.77,13.77,0,0,0-1.94-1.59,15.15,15.15,0,0,0-5.24-2.31,16.2,16.2,0,0,0,4.86-2.21,15.7,15.7,0,0,0,1.86-1.48,12.16,12.16,0,0,0,1.85-2.44,12.39,12.39,0,0,0,1.52-4.44,16.65,16.65,0,0,0,1.91,4.14A16.9,16.9,0,0,0,970.86,444Z"/><path class="cls-5" d="M1008.86,610.37a18.27,18.27,0,0,0,1.71,1.37,17.23,17.23,0,0,0,5.47,2.53,12.43,12.43,0,0,0-5.07,2.2,11.06,11.06,0,0,0-1.64,1.49,9.63,9.63,0,0,0-1.46,1.6,10.7,10.7,0,0,0-1.92,5.28,15.72,15.72,0,0,0-2.82-5.46,15.21,15.21,0,0,0-1.41-1.53,14.52,14.52,0,0,0-1.94-1.6,15.34,15.34,0,0,0-5.24-2.31,15.9,15.9,0,0,0,4.86-2.2,16.79,16.79,0,0,0,1.86-1.48,12.32,12.32,0,0,0,3.37-6.88,16.81,16.81,0,0,0,1.91,4.14A17.31,17.31,0,0,0,1008.86,610.37Z"/></g></g></g><g id="cottage_details" data-name="cottage details"><path class="cls-10" d="M1381,532a56,56,0,0,0,.43-18.22c-.78-5.4-1.78-11.78-6.43-14.78a7.5,7.5,0,0,0-5.34-1.38c-1.77.32-3.19,1.46-4.66,3.38-3.35,4.38-4.49,9.62-5,14a57.54,57.54,0,0,0,.71,17.66c3.56-.33,7.33-.56,11.29-.66C1375.12,531.92,1378.13,531.93,1381,532Z"/><path class="cls-10" d="M1379.93,468.82a15.21,15.21,0,0,0-1.81-11.28,8.42,8.42,0,0,0-3.87-3.84,7.7,7.7,0,0,0-6.25.3,8.33,8.33,0,0,0-3.52,4.27,16.42,16.42,0,0,0-.63,11.14C1369.4,469,1374.46,469.84,1379.93,468.82Z"/><path class="cls-10" d="M1355,533h-.86a7.37,7.37,0,0,0-1.75.23,8.12,8.12,0,0,0-1.68.77c-.44.24-1,.57-1.71,1V507a3,3,0,0,1,.75-1,3.65,3.65,0,0,1,4.48,0,3,3,0,0,1,.77,1v26Z"/><path class="cls-10" d="M1392,533a13.68,13.68,0,0,0-4.29-1,13.92,13.92,0,0,0-1.71,0V507a2.7,2.7,0,0,1,.65-1,3.25,3.25,0,0,1,2.58-1,3.67,3.67,0,0,1,1.77,1,7.16,7.16,0,0,1,1,1v26Z"/><rect class="cls-10" x="1410" y="519" width="37" height="13" rx="4"/><path class="cls-10" d="M1445.51,514.89c1.56-3.69-.94-6.15-2.75-7.43-1-.68-2.3-1.45-5.68-2a64,64,0,0,0-16.19,0,14.19,14.19,0,0,0-6.16,2c-2,1.3-4.77,3.72-3.33,7.28q7.69.06,15.64.08Z"/><path class="cls-10" d="M1355.14,543.85a2.05,2.05,0,0,1,.74-2.79,4.23,4.23,0,0,1,3.15-.29,9.28,9.28,0,0,1,4.19,2.2,1.62,1.62,0,0,1,.58.86c.15.86-.91,1.4-1.77,1.56a14.51,14.51,0,0,1-7.5-.62"/><path class="cls-10" d="M1359.24,554a1.09,1.09,0,0,1,.58-1.32,2.68,2.68,0,0,1,1.56-.14,9.69,9.69,0,0,1,5.82,3.13,2.73,2.73,0,0,1,.81,1.54c.08,1.16-1.1,2-2.23,2.34a7.14,7.14,0,0,1-8-3.53"/><path class="cls-10" d="M1341.75,556.35a7.31,7.31,0,0,1,7.06-.94,3.35,3.35,0,0,1,1.73,1.36,1.66,1.66,0,0,1-.29,2.05c1.09.78,2.88.55,3.56,1.72a2,2,0,0,1-.44,2.32,5.26,5.26,0,0,1-2.2,1.2,11.71,11.71,0,0,1-5.38.78C1342,564.3,1337.68,559.46,1341.75,556.35Z"/><path class="cls-10" d="M1323.68,564.75a5.05,5.05,0,0,0-2,3.52,5.27,5.27,0,0,0,1.33,3.49,7.28,7.28,0,0,0,7.06,2.73C1338.4,572.52,1332.24,558,1323.68,564.75Z"/><path class="cls-10" d="M1327.26,582.34a8.76,8.76,0,0,1,5.77,1,4.84,4.84,0,0,1,2.3,5.09c-.52,2-2.6,3.26-4.64,3.66a7.15,7.15,0,0,1-4.61-.52C1321.55,589.19,1321.94,583,1327.26,582.34Z"/><path class="cls-10" d="M1315,598a1.67,1.67,0,0,1,.07-2.28,3.8,3.8,0,0,1,2.28-1,6,6,0,0,1,3.78.49,3.13,3.13,0,0,1,1.7,3.2,3.28,3.28,0,0,1-1.31,1.91,4.29,4.29,0,0,1-3.93.71,3.42,3.42,0,0,1-2.31-3.13"/><path class="cls-10" d="M1325.59,609.22a9.49,9.49,0,0,1,4.5,6.59,3.41,3.41,0,0,1-.06,1.59,3.21,3.21,0,0,1-1.28,1.5,7.79,7.79,0,0,1-9.52-.67c-2-1.9-3.22-5.84-1.79-8.42C1319,607,1323,607.72,1325.59,609.22Z"/><path class="cls-10" d="M1310.79,619.33c0-.38-.69-.35-.85,0a1.34,1.34,0,0,0,.17,1.09q1.16,2.39,2.53,4.64c.62,1,1.29,2.26.82,3.37a2.66,2.66,0,0,1-1.33,1.27,4.79,4.79,0,0,1-6.91-4c-.15-3,2.45-5.4,5.19-6.54"/><path class="cls-10" d="M1297.67,617a4.29,4.29,0,0,1,3,2.38c.55,1.62-.59,3.33-1.89,4.45-3.3,2.86-11.42,5.64-12.61-.76C1285.11,617.16,1293.54,615.75,1297.67,617Z"/><path class="cls-10" d="M1273.07,614.92a4.56,4.56,0,0,1,3.57-2.14,2.77,2.77,0,0,1,2.91,1.76,2.4,2.4,0,0,1-.94,2.37,4.29,4.29,0,0,1-2.52.79,4.34,4.34,0,0,1-2.59-.64,2.4,2.4,0,0,1-1.07-2.32"/><path class="cls-10" d="M1256,623.3c.54-2.32,3-3.44,5.21-3.69,2.48-.28,5.54.54,6.25,3.12.67,2.43-1.21,4.86-3.28,6.06s-4.6,1.71-6.68.59-3.24-4.25-1.89-6.29"/></g></svg>