<svg xmlns="http://www.w3.org/2000/svg" xmlns:xlink="http://www.w3.org/1999/xlink" width="500" height="722" viewBox="0 0 500 722">
  <defs>
    <clipPath id="clip-path">
      <rect x="553" width="500" height="722" fill="none"/>
    </clipPath>
    <linearGradient id="linear-gradient" x1="0.447" y1="-0.179" x2="0.553" y2="1.179" gradientUnits="objectBoundingBox">
      <stop offset="0" stop-color="#556b9c"/>
      <stop offset="0.19" stop-color="#586c9c"/>
      <stop offset="0.35" stop-color="#63719b"/>
      <stop offset="0.49" stop-color="#74799a"/>
      <stop offset="0.63" stop-color="#8c8399"/>
      <stop offset="0.76" stop-color="#ac9198"/>
      <stop offset="0.89" stop-color="#d2a296"/>
      <stop offset="1" stop-color="#f8b394"/>
    </linearGradient>
    <clipPath id="clip-path-2">
      <rect id="Rectangle_2" data-name="Rectangle 2" width="1638" height="722" transform="translate(141.46 150.17)" fill="none"/>
    </clipPath>
  </defs>
  <g id="Scroll_Group_2" data-name="Scroll Group 2" transform="translate(-553)" clip-path="url(#clip-path)" style="isolation: isolate">
    <g id="background" transform="translate(-141.46 -150.17)">
      <g id="bkg">
        <rect id="Rectangle_1" data-name="Rectangle 1" width="1638" height="722" transform="translate(141.46 150.17)" fill="url(#linear-gradient)"/>
        <circle id="Ellipse_1" data-name="Ellipse 1" cx="6" cy="6" r="6" transform="translate(1389.96 245.67)" fill="#f8b394"/>
        <path id="Path_1" data-name="Path 1" d="M1254.9,96a5.5,5.5,0,1,1-5.5,5.5,5.5,5.5,0,0,1,5.5-5.5m0-1a6.5,6.5,0,1,0,6.5,6.5,6.5,6.5,0,0,0-6.5-6.5Z" transform="translate(141.06 150.17)" fill="#f8b394"/>
        <circle id="Ellipse_2" data-name="Ellipse 2" cx="6" cy="6" r="6" transform="translate(1589.96 495.67)" fill="#f8b394"/>
        <path id="Path_2" data-name="Path 2" d="M1454.9,346a5.5,5.5,0,1,1-5.5,5.5,5.5,5.5,0,0,1,5.5-5.5m0-1a6.5,6.5,0,1,0,6.5,6.5A6.5,6.5,0,0,0,1454.9,345Z" transform="translate(141.06 150.17)" fill="#f8b394"/>
        <circle id="Ellipse_3" data-name="Ellipse 3" cx="6" cy="6" r="6" transform="translate(1063.96 680.67)" fill="#f8b394"/>
        <path id="Path_3" data-name="Path 3" d="M928.9,531a5.5,5.5,0,1,1-5.5,5.5,5.5,5.5,0,0,1,5.5-5.5m0-1a6.5,6.5,0,1,0,6.5,6.5,6.5,6.5,0,0,0-6.5-6.5Z" transform="translate(141.06 150.17)" fill="#f8b394"/>
        <circle id="Ellipse_4" data-name="Ellipse 4" cx="6" cy="6" r="6" transform="translate(896.96 665.67)" fill="#f8b394"/>
        <path id="Path_4" data-name="Path 4" d="M761.9,516a5.5,5.5,0,1,1-5.5,5.5,5.5,5.5,0,0,1,5.5-5.5m0-1a6.5,6.5,0,1,0,6.5,6.5A6.5,6.5,0,0,0,761.9,515Z" transform="translate(141.06 150.17)" fill="#f8b394"/>
        <circle id="Ellipse_5" data-name="Ellipse 5" cx="4.5" cy="4.5" r="4.5" transform="translate(766.96 310.67)" fill="#b9cdff" stroke="#b9cdff" stroke-miterlimit="10" stroke-width="1"/>
        <circle id="Ellipse_6" data-name="Ellipse 6" cx="4.5" cy="4.5" r="4.5" transform="translate(1054.96 602.67)" fill="#b9cdff" stroke="#b9cdff" stroke-miterlimit="10" stroke-width="1"/>
        <circle id="Ellipse_7" data-name="Ellipse 7" cx="4.5" cy="4.5" r="4.5" transform="translate(739.96 164.67)" fill="#b9cdff" stroke="#b9cdff" stroke-miterlimit="10" stroke-width="1"/>
        <circle id="Ellipse_8" data-name="Ellipse 8" cx="4.5" cy="4.5" r="4.5" transform="translate(1644.96 263.67)" fill="#b9cdff" stroke="#b9cdff" stroke-miterlimit="10" stroke-width="1"/>
        <circle id="Ellipse_9" data-name="Ellipse 9" cx="4.5" cy="4.5" r="4.5" transform="translate(1563.96 302.67)" fill="#b9cdff" stroke="#b9cdff" stroke-miterlimit="10" stroke-width="1"/>
        <circle id="Ellipse_10" data-name="Ellipse 10" cx="4.5" cy="4.5" r="4.5" transform="translate(1486.96 186.67)" fill="#b9cdff" stroke="#b9cdff" stroke-miterlimit="10" stroke-width="1"/>
        <circle id="Ellipse_11" data-name="Ellipse 11" cx="4.5" cy="4.5" r="4.5" transform="translate(1400.64 681.04)" fill="#b9cdff" stroke="#b9cdff" stroke-miterlimit="10" stroke-width="1"/>
        <circle id="Ellipse_12" data-name="Ellipse 12" cx="4.5" cy="4.5" r="4.5" transform="translate(1468.96 654.67)" fill="#b9cdff" stroke="#b9cdff" stroke-miterlimit="10" stroke-width="1"/>
        <circle id="Ellipse_13" data-name="Ellipse 13" cx="4.5" cy="4.5" r="4.5" transform="translate(1525.96 766.67)" fill="#b9cdff" stroke="#b9cdff" stroke-miterlimit="10" stroke-width="1"/>
        <circle id="Ellipse_14" data-name="Ellipse 14" cx="4.5" cy="4.5" r="4.5" transform="translate(1272.96 776.67)" fill="#b9cdff" stroke="#b9cdff" stroke-miterlimit="10" stroke-width="1"/>
        <circle id="Ellipse_15" data-name="Ellipse 15" cx="4.5" cy="4.5" r="4.5" transform="translate(1750.96 271.67)" fill="#b9cdff" stroke="#b9cdff" stroke-miterlimit="10" stroke-width="1"/>
        <circle id="Ellipse_16" data-name="Ellipse 16" cx="4.5" cy="4.5" r="4.5" transform="translate(1604.96 227.67)" fill="#b9cdff" stroke="#b9cdff" stroke-miterlimit="10" stroke-width="1"/>
        <path id="Path_5" data-name="Path 5" d="M1437.81,411.26a24.711,24.711,0,0,0,2.73,2.13,25.45,25.45,0,0,0,8.82,3.75,22.669,22.669,0,0,0-8.55,4.06,21.005,21.005,0,0,0-2.84,2.61,18.4,18.4,0,0,0-2.54,2.77,19.211,19.211,0,0,0-3.58,8.91,23.507,23.507,0,0,0-4.22-8.83,22.24,22.24,0,0,0-2.2-2.43,21.724,21.724,0,0,0-3.07-2.48,22.53,22.53,0,0,0-8.47-3.4,29.737,29.737,0,0,0,8.19-4.05,28.118,28.118,0,0,0,3.19-2.62,22.409,22.409,0,0,0,3.27-4.2,22.87,22.87,0,0,0,2.86-7.48,24.35,24.35,0,0,0,2.82,6.71,24.856,24.856,0,0,0,3.59,4.55Z" transform="translate(141.06 150.17)" fill="#afe6ff" stroke="#afe6ff" stroke-miterlimit="10" stroke-width="1"/>
        <circle id="Ellipse_17" data-name="Ellipse 17" cx="4.5" cy="4.5" r="4.5" transform="translate(1619.96 457.67)" fill="#b9cdff" stroke="#b9cdff" stroke-miterlimit="10" stroke-width="1"/>
      </g>
      <g id="Layer_12" data-name="Layer 12">
        <g id="Group_1" data-name="Group 1" clip-path="url(#clip-path-2)">
          <g id="lines">
            <path id="Path_6" data-name="Path 6" d="M291.37,138.22,285,134.34c59.28,52.38,147.44,61.64,224.08,42C573.79,159.81,637,120.48,662,58.53c24.89-61.78,6.45-134.46-31.8-189" transform="translate(141.06 150.17)" fill="none" stroke="#f8b394" stroke-miterlimit="10" stroke-width="2"/>
            <path id="Path_7" data-name="Path 7" d="M501,268.37l-2.45-.23c48.82,12.91,101.85,2.74,146.31-21.22A203.48,203.48,0,0,0,740.2,133.78c15.15-45.19,13.8-94.3,7.31-141.52C740.59-58,727.35-108.94,697-149.57" transform="translate(141.06 150.17)" fill="none" stroke="#f8b394" stroke-miterlimit="10" stroke-width="2"/>
            <path id="Path_8" data-name="Path 8" d="M347.17,115.42c31.63,9.91,63.77,19.91,96.9,20.73,28,.7,55.9-5.23,82.08-15.15,39.38-14.92,76.56-40.4,96-77.76C635.78,17,639.81-13.61,636.59-43s-13.38-57.71-26.71-84.11" transform="translate(141.06 150.17)" fill="none" stroke="#f8b394" stroke-miterlimit="10" stroke-width="2"/>
            <path id="Path_9" data-name="Path 9" d="M1117.14-40.39c6.31,15.82,1,34.4-9.33,47.93s-25,23-39.6,31.77c-45.32,27.4-92.68,51.63-135.59,82.67s-81.82,69.9-103,118.42c-9,20.64-14.57,44.82-5.39,65.39,12.86,28.8,48.29,38.84,79.59,42.7,73.14,9,147.22,2.86,220.87,5.27,103.15,3.38,212.71,27.46,283.84,102.23,29.49,31,51.3,71.11,53,113.86s-19.75,87.55-58,106.67c-48,24-105.89,3.56-153.41-21.44-62.89-33.09-121.45-74-184.67-106.44s-133-56.65-204-52.57c-106.66,6.13-206,82.13-239.72,183.49" transform="translate(141.06 150.17)" fill="none" stroke="#f8b394" stroke-miterlimit="10" stroke-width="2"/>
            <path id="Path_10" data-name="Path 10" d="M1181.88-12.22c-87.68,67-193.08,112.76-265.81,195.79-12.38,14.13-23.87,29.59-29.63,47.48s-5.09,38.64,5.57,54.12c14,20.38,40.88,26.83,65.43,30,117.15,15.06,236.08-9.36,353.92-1.32,79.19,5.41,164.7,30.66,207.82,97.29,35.89,55.45,33.79,129.62,6.89,190s-75.51,108.5-128.33,148.16" transform="translate(141.06 150.17)" fill="none" stroke="#f8b394" stroke-miterlimit="10" stroke-width="2"/>
            <path id="Path_11" data-name="Path 11" d="M1232.74,664.86c-18.81-12.75-37.63-25.49-56.91-37.51C1114.14,588.94,1047,557.91,975.71,544s-147.2-10.09-213.94,18.67S638.44,646.44,615.06,715.25" transform="translate(141.06 150.17)" fill="none" stroke="#f8b394" stroke-miterlimit="10" stroke-width="2"/>
            <path id="Path_12" data-name="Path 12" d="M1249.32-23.7C1182.9,16.46,1135,85.92,1121,162.27c-6.12,33.4-4.3,72.16,20.39,95.48,22.84,21.56,57.91,23.06,89.08,19.17,64.62-8.06,125.56-33.46,187.25-54.33s127.16-37.53,191.48-27.29c34.55,5.51,69.09,19.7,91.63,46.47,29,34.41,33.35,84.88,19.85,127.8S1678.1,448.85,1646,480.34" transform="translate(141.06 150.17)" fill="none" stroke="#f8b394" stroke-miterlimit="10" stroke-width="2"/>
            <path id="Path_13" data-name="Path 13" d="M1165.57,697.4c-12.74-36.09-44.94-62-79.09-79.29-75-37.94-165.47-42.05-245.19-15.36s-148.36,83-194.16,153.46" transform="translate(141.06 150.17)" fill="none" stroke="#f8b394" stroke-miterlimit="10" stroke-width="2"/>
            <path id="Path_14" data-name="Path 14" d="M1353.45-55.45c-46.62,19.93-90.64,55.06-103.68,104.06-5.55,20.88-4,45.77,11.66,60.62,15.29,14.46,38.94,15,59.76,11.92,28.46-4.25,55.91-13.72,82.5-24.73A719.518,719.518,0,0,0,1605.25-29.74c31.65-28.07,61.52-60,76.84-99.48" transform="translate(141.06 150.17)" fill="none" stroke="#f8b394" stroke-miterlimit="10" stroke-width="2"/>
            <circle id="Ellipse_18" data-name="Ellipse 18" cx="6" cy="6" r="6" transform="translate(886.96 203.67)" fill="#f8b394"/>
            <path id="Path_15" data-name="Path 15" d="M751.9,54a5.5,5.5,0,1,1-5.5,5.5,5.5,5.5,0,0,1,5.5-5.5m0-1a6.5,6.5,0,1,0,6.5,6.5,6.5,6.5,0,0,0-6.5-6.5Z" transform="translate(141.06 150.17)" fill="#f8b394"/>
            <circle id="Ellipse_19" data-name="Ellipse 19" cx="6" cy="6" r="6" transform="translate(694.96 249.67)" fill="#f8b394"/>
            <path id="Path_16" data-name="Path 16" d="M559.9,100a5.5,5.5,0,1,1-5.5,5.5,5.5,5.5,0,0,1,5.5-5.5m0-1a6.5,6.5,0,1,0,6.5,6.5,6.5,6.5,0,0,0-6.5-6.5Z" transform="translate(141.06 150.17)" fill="#f8b394"/>
            <circle id="Ellipse_20" data-name="Ellipse 20" cx="6" cy="6" r="6" transform="translate(1021.96 422.67)" fill="#f8b394"/>
            <path id="Path_17" data-name="Path 17" d="M886.9,273a5.5,5.5,0,1,1-5.5,5.5,5.5,5.5,0,0,1,5.5-5.5m0-1a6.5,6.5,0,1,0,6.5,6.5,6.5,6.5,0,0,0-6.5-6.5Z" transform="translate(141.06 150.17)" fill="#f8b394"/>
            <circle id="Ellipse_21" data-name="Ellipse 21" cx="6" cy="6" r="6" transform="translate(1287.96 220.67)" fill="#f8b394"/>
            <path id="Path_18" data-name="Path 18" d="M1152.9,71a5.5,5.5,0,1,1-5.5,5.5,5.5,5.5,0,0,1,5.5-5.5m0-1a6.5,6.5,0,1,0,6.5,6.5A6.5,6.5,0,0,0,1152.9,70Z" transform="translate(141.06 150.17)" fill="#f8b394"/>
            <path id="Path_19" data-name="Path 19" d="M-22.57,58.49a80,80,0,0,1,72.38-6.23A80,80,0,0,1,96.39,108c44.76-19.68,99.91-13.3,139,16.08s60.53,80.59,54.06,129.06-40.62,92.24-86,110.34c36.77,19.13,49.4,73.21,24.89,106.65,17.45,5,27.52,27.2,19.76,43.61,40.2-9.49,84.68-7.62,120,13.77s58.57,65,48.45,105C456,618,504.26,632.4,529.34,666.18c18,24.29,23.95,55.89,22.32,86.09S541.48,811.83,533,840.86" transform="translate(141.06 150.17)" fill="none" stroke="#5d5f7b" stroke-miterlimit="10" stroke-width="1"/>
            <circle id="Ellipse_22" data-name="Ellipse 22" cx="4.5" cy="4.5" r="4.5" transform="translate(951.46 276.17)" fill="#b9cdff" stroke="#b9cdff" stroke-miterlimit="10" stroke-width="1"/>
            <circle id="Ellipse_23" data-name="Ellipse 23" cx="4.5" cy="4.5" r="4.5" transform="translate(956.5 368.97)" fill="#b9cdff" stroke="#b9cdff" stroke-miterlimit="10" stroke-width="1"/>
            <circle id="Ellipse_24" data-name="Ellipse 24" cx="4.5" cy="4.5" r="4.5" transform="translate(862.96 403.67)" fill="#b9cdff" stroke="#b9cdff" stroke-miterlimit="10" stroke-width="1"/>
          </g>
          <g id="clouds_2" data-name="clouds 2">
            <path id="Path_20" data-name="Path 20" d="M637.4-75c-7.57,34-29.9,63.49-57.8,84.28s-61.1,33.49-94.88,41.85c-35,8.65-72.18,12.82-106.73,2.68,8.17,8.39,7.74,22.43,2.18,32.74S365,104.26,355.75,111.39c34.58-9.14,73.28,8.15,97.11,34.82,16.29,18.23,26.12,44.17,18.93,67.54,7.65-7.73,14.56-10.27,25.42-9.8s21.6,7.19,25.42,17.37S522,244.51,512.12,249c54.9,16.33,100.18,61,119,115.09S641,481.16,608,528c1.26.08-2.23-2-1-1.93a47.825,47.825,0,0,1,10.68,1.48c9.68,2.85,16.57,11.37,21.55,20.15a107,107,0,0,1,11.94,72.15c8.42-11.15,20.85-14.36,34.81-14.7a47.28,47.28,0,0,1,36.9,16.7c9.8-24,34.24-40.91,60.09-43.2s52.15,9.38,69.12,29c11.17,12.92,18.44,32.16,9.9,47,8.44-2.57,18.06-3.43,26.6-1.18A66.15,66.15,0,0,1,933.21,742c-11.31,28.29-36.11,46.66-64.9,56.65C744.4,841.6,607.38,845.93,481,810.85S239.43,701.43,155.41,600.72C70.66,499.12,18.73,373.77-15.53,246-28,199.6-38.3,152.1-37.45,104.1S-23.76,7.1,6.06-30.54c44.55-56.23,118.83-78.84,189.42-91.65C286.36-138.68,380.15-144,471-127.46c55.65,10.14,111.2,28.47,167.46,22.53C632-93.73,640.22-87.66,637.4-75Z" transform="translate(141.06 150.17)" fill="#485f94"/>
            <path id="Path_21" data-name="Path 21" d="M1015.29,682.6c35.7,14.55,76.82,4,111.43-13s66.3-40.2,102.74-52.78c14.76-5.1,30.49-8.39,46-6.42s30.74,9.79,39,23c11-16.42,34.1-23.5,52.46-16.11s30.06,28.49,26.63,48c22,5.72,43.9,6.68,66.07,1.51,17.81-4.16,35.75-12.63,45.44-28.13,10.09-16.14,9.37-37,3.7-55.21S1493,548.91,1485,531.65c-14.55-31.34-22.33-67.76-11.36-100.52,3.8-11.34,12.52-23.54,24.44-22.45a218.6,218.6,0,0,1,30.51-127.09c19.78-32.88,50.45-61.4,88.12-68.68s81.55,12.29,93.15,48.86c29.89,94.26,12,198.2-11.71,294.22-17.1,69.28-55.83,132.32-106.16,182.92s-112,89.15-177.44,117.5c-39.46,17.08-81.51,30.76-124.5,29.56-47.59-1.34-92.68-20.75-135.35-41.89-23.71-11.74-47.26-24.22-68-40.67C1049.42,773.78,1026.43,728.93,1015.29,682.6Z" transform="translate(141.06 150.17)" fill="#485f94"/>
            <circle id="Ellipse_25" data-name="Ellipse 25" cx="1.5" cy="1.5" r="1.5" transform="translate(936.46 230.17)" fill="#b9cdff" stroke="#b9cdff" stroke-miterlimit="10" stroke-width="1"/>
            <circle id="Ellipse_26" data-name="Ellipse 26" cx="1.5" cy="1.5" r="1.5" transform="translate(837.96 293.67)" fill="#b9cdff" stroke="#b9cdff" stroke-miterlimit="10" stroke-width="1"/>
            <circle id="Ellipse_27" data-name="Ellipse 27" cx="1.5" cy="1.5" r="1.5" transform="translate(804.96 344.67)" fill="#b9cdff" stroke="#b9cdff" stroke-miterlimit="10" stroke-width="1"/>
            <circle id="Ellipse_28" data-name="Ellipse 28" cx="1.5" cy="1.5" r="1.5" transform="translate(672.96 241.67)" fill="#b9cdff" stroke="#b9cdff" stroke-miterlimit="10" stroke-width="1"/>
            <circle id="Ellipse_29" data-name="Ellipse 29" cx="1.5" cy="1.5" r="1.5" transform="translate(727.96 391.67)" fill="#b9cdff" stroke="#b9cdff" stroke-miterlimit="10" stroke-width="1"/>
            <circle id="Ellipse_30" data-name="Ellipse 30" cx="1.5" cy="1.5" r="1.5" transform="translate(595.96 229.67)" fill="#b9cdff" stroke="#b9cdff" stroke-miterlimit="10" stroke-width="1"/>
            <circle id="Ellipse_31" data-name="Ellipse 31" cx="1.5" cy="1.5" r="1.5" transform="translate(1051.96 471.67)" fill="#b9cdff" stroke="#b9cdff" stroke-miterlimit="10" stroke-width="1"/>
            <circle id="Ellipse_32" data-name="Ellipse 32" cx="1.5" cy="1.5" r="1.5" transform="translate(1078.96 439.67)" fill="#b9cdff" stroke="#b9cdff" stroke-miterlimit="10" stroke-width="1"/>
            <circle id="Ellipse_33" data-name="Ellipse 33" cx="1.5" cy="1.5" r="1.5" transform="translate(1116.96 618.67)" fill="#b9cdff" stroke="#b9cdff" stroke-miterlimit="10" stroke-width="1"/>
            <circle id="Ellipse_34" data-name="Ellipse 34" cx="1.5" cy="1.5" r="1.5" transform="translate(1088.96 630.67)" fill="#b9cdff" stroke="#b9cdff" stroke-miterlimit="10" stroke-width="1"/>
            <circle id="Ellipse_35" data-name="Ellipse 35" cx="1.5" cy="1.5" r="1.5" transform="translate(1075.96 578.67)" fill="#b9cdff" stroke="#b9cdff" stroke-miterlimit="10" stroke-width="1"/>
            <circle id="Ellipse_36" data-name="Ellipse 36" cx="1.5" cy="1.5" r="1.5" transform="translate(998.96 630.67)" fill="#b9cdff" stroke="#b9cdff" stroke-miterlimit="10" stroke-width="1"/>
            <circle id="Ellipse_37" data-name="Ellipse 37" cx="1.5" cy="1.5" r="1.5" transform="translate(969.96 716.67)" fill="#b9cdff" stroke="#b9cdff" stroke-miterlimit="10" stroke-width="1"/>
            <circle id="Ellipse_38" data-name="Ellipse 38" cx="1.5" cy="1.5" r="1.5" transform="translate(827.96 689.67)" fill="#b9cdff" stroke="#b9cdff" stroke-miterlimit="10" stroke-width="1"/>
            <circle id="Ellipse_39" data-name="Ellipse 39" cx="1.5" cy="1.5" r="1.5" transform="translate(1234.96 800.67)" fill="#b9cdff" stroke="#b9cdff" stroke-miterlimit="10" stroke-width="1"/>
            <circle id="Ellipse_40" data-name="Ellipse 40" cx="1.5" cy="1.5" r="1.5" transform="translate(1444.96 709.67)" fill="#b9cdff" stroke="#b9cdff" stroke-miterlimit="10" stroke-width="1"/>
            <circle id="Ellipse_41" data-name="Ellipse 41" cx="1.5" cy="1.5" r="1.5" transform="translate(1462.96 602.67)" fill="#b9cdff" stroke="#b9cdff" stroke-miterlimit="10" stroke-width="1"/>
            <circle id="Ellipse_42" data-name="Ellipse 42" cx="1.5" cy="1.5" r="1.5" transform="translate(1518.96 669.67)" fill="#b9cdff" stroke="#b9cdff" stroke-miterlimit="10" stroke-width="1"/>
            <circle id="Ellipse_43" data-name="Ellipse 43" cx="1.5" cy="1.5" r="1.5" transform="translate(1572.96 735.67)" fill="#b9cdff" stroke="#b9cdff" stroke-miterlimit="10" stroke-width="1"/>
            <circle id="Ellipse_44" data-name="Ellipse 44" cx="1.5" cy="1.5" r="1.5" transform="translate(1376.96 554.67)" fill="#b9cdff" stroke="#b9cdff" stroke-miterlimit="10" stroke-width="1"/>
            <circle id="Ellipse_45" data-name="Ellipse 45" cx="1.5" cy="1.5" r="1.5" transform="translate(1502.96 207.67)" fill="#b9cdff" stroke="#b9cdff" stroke-miterlimit="10" stroke-width="1"/>
            <circle id="Ellipse_46" data-name="Ellipse 46" cx="1.5" cy="1.5" r="1.5" transform="translate(1536.96 186.67)" fill="#b9cdff" stroke="#b9cdff" stroke-miterlimit="10" stroke-width="1"/>
            <circle id="Ellipse_47" data-name="Ellipse 47" cx="1.5" cy="1.5" r="1.5" transform="translate(1616.96 318.67)" fill="#b9cdff" stroke="#b9cdff" stroke-miterlimit="10" stroke-width="1"/>
            <circle id="Ellipse_48" data-name="Ellipse 48" cx="1.5" cy="1.5" r="1.5" transform="translate(1581.96 272.67)" fill="#b9cdff" stroke="#b9cdff" stroke-miterlimit="10" stroke-width="1"/>
            <circle id="Ellipse_49" data-name="Ellipse 49" cx="1.5" cy="1.5" r="1.5" transform="translate(1491.96 287.67)" fill="#b9cdff" stroke="#b9cdff" stroke-miterlimit="10" stroke-width="1"/>
            <circle id="Ellipse_50" data-name="Ellipse 50" cx="1.5" cy="1.5" r="1.5" transform="translate(1712.96 284.67)" fill="#b9cdff" stroke="#b9cdff" stroke-miterlimit="10" stroke-width="1"/>
            <circle id="Ellipse_51" data-name="Ellipse 51" cx="1.5" cy="1.5" r="1.5" transform="translate(1737.96 268.67)" fill="#b9cdff" stroke="#b9cdff" stroke-miterlimit="10" stroke-width="1"/>
            <circle id="Ellipse_52" data-name="Ellipse 52" cx="1.5" cy="1.5" r="1.5" transform="translate(1384.96 163.67)" fill="#b9cdff" stroke="#b9cdff" stroke-miterlimit="10" stroke-width="1"/>
            <circle id="Ellipse_53" data-name="Ellipse 53" cx="1.5" cy="1.5" r="1.5" transform="translate(1305.96 186.67)" fill="#b9cdff" stroke="#b9cdff" stroke-miterlimit="10" stroke-width="1"/>
            <circle id="Ellipse_54" data-name="Ellipse 54" cx="1.5" cy="1.5" r="1.5" transform="translate(1520.96 157.67)" fill="#b9cdff" stroke="#b9cdff" stroke-miterlimit="10" stroke-width="1"/>
            <path id="Path_22" data-name="Path 22" d="M857.63,58a32.484,32.484,0,0,0,3.41,2.7,33.11,33.11,0,0,0,11,4.87,26.28,26.28,0,0,0-10.37,4.7,25.053,25.053,0,0,0-3.4,3.11,20.862,20.862,0,0,0-3,3.32,22.51,22.51,0,0,0-4.12,10.8,30.338,30.338,0,0,0-5.46-10.95,31.283,31.283,0,0,0-2.77-3.05A28.39,28.39,0,0,0,839,70.36a29.411,29.411,0,0,0-10.51-4.44,34,34,0,0,0,9.94-4.7,32.131,32.131,0,0,0,3.83-3.1,25.171,25.171,0,0,0,3.88-5A26.439,26.439,0,0,0,849.4,44a31.749,31.749,0,0,0,8.23,14Z" transform="translate(141.06 150.17)" fill="#afe6ff" stroke="#afe6ff" stroke-miterlimit="10" stroke-width="1"/>
            <path id="Path_23" data-name="Path 23" d="M570.63,215a17.65,17.65,0,0,0,7.18,3.9,12.44,12.44,0,0,0-5.07,2.19,11.078,11.078,0,0,0-1.64,1.5,8.888,8.888,0,0,0-1.46,1.6,10.51,10.51,0,0,0-1.91,5.28A15.9,15.9,0,0,0,564.9,224a16.439,16.439,0,0,0-1.4-1.53,15.889,15.889,0,0,0-1.94-1.59,15.179,15.179,0,0,0-5.25-2.31,16,16,0,0,0,4.86-2.21,14.93,14.93,0,0,0,1.86-1.48A12,12,0,0,0,566.4,208a16.649,16.649,0,0,0,1.91,4.14,17.445,17.445,0,0,0,2.32,2.86Z" transform="translate(141.06 150.17)" fill="#afe6ff" stroke="#afe6ff" stroke-miterlimit="10" stroke-width="1"/>
            <circle id="Ellipse_55" data-name="Ellipse 55" cx="1.5" cy="1.5" r="1.5" transform="translate(1600.96 441.67)" fill="#b9cdff" stroke="#b9cdff" stroke-miterlimit="10" stroke-width="1"/>
          </g>
          <g id="clouds_1.5" data-name="clouds 1.5">
            <path id="Path_24" data-name="Path 24" d="M-140.25,187.53a2.24,2.24,0,0,0,.584-2.049,2.24,2.24,0,0,0-1.394-1.611" transform="translate(141.06 150.17)" fill="none"/>
            <path id="Path_25" data-name="Path 25" d="M653.27,851.84c20.72-66.12,12.84-140.67-21.24-201C606.14,605,559.74,565.38,507.18,568c10.59-8.47,18.58-21.6,16.94-35.07s-15.72-25.29-28.66-21.22c11.27-21.87-4.53-50.24-27.19-59.82s-48.82-4.87-72,3.34c34.51-8.14,59.25-39.66,71.14-73.07,15.61-43.89,12.39-96-15.72-133.17s-83.14-54.1-124.32-32.32c12.83-13.27,10.46-37.92-4.67-48.49s-39.09-4.34-47.15,12.26c18.72-38.6,31.17-80.86,30.94-123.76S292.59-29.84,264.2-62C177.91-30,81-25.94-11-24.58A2204.329,2204.329,0,0,0-43.3,705.849c1.24,10.061,2.71,20.541,8.44,28.911,9.6,14,28.07,18.16,44.77,21.22C141.06,780,273,804.07,406.34,804.83c37.25.21,74.74-1.38,111.54,4.38C563.57,816.37,610.71,833.74,653.27,851.84Z" transform="translate(141.06 150.17)" fill="#35476d"/>
            <path id="Path_26" data-name="Path 26" d="M746.17,701.41c11.4-33,39.14-58.37,70.1-74.58,18.82-9.87,40-17,61.11-14.29,24.09,3.07,46,19.76,55.31,42.18s5.76,49.71-9,69c17.15-22.12,36.71-41.4,61.44-54.5,17.14-9.08,35.85-16,55.24-16.61s39.58,5.88,52.69,20.17c3.89,4.23,6.35,12.32,1.09,14.63,7.56-6.56,19.22-7.17,28.2-2.73s15.3,13.21,18.31,22.75c6,18.93-1.22,41.26-17.12,53.14-41.27,30.83-100.34,23.36-151.72,19.71s-101.91-14.69-152.24-25.69c-11.68-2.56-23.55-5.18-34-10.91C766.52,733.3,757.62,719.73,746.17,701.41Z" transform="translate(141.06 150.17)" fill="#35476d"/>
            <path id="Path_27" data-name="Path 27" d="M1704.35,277.15c-10.65-10.1-26.41-13.82-40.9-11.52s-27.72,10.11-38.32,20.26-19.1,23.4-20.34,38.05,6.18,30.53,19.76,36.18c-21.74,9.69-34.43,33.55-37.32,57.18s2.39,47.4,7.63,70.62c-18.47-9-42,0-54.47,16.38s-15.61,38-14.71,58.57,5.42,40.75,6.61,61.26-1.35,42.2-13.1,59c-6.4,9.19-15.19,16.44-24.4,22.81-19.87,13.73-38.71,17.43-62.15,23.28,9.85-7.07,19.83-14.27,27.36-23.76s12.45-21.75,10.52-33.72c-2-12.62-11.49-23.19-22.85-29s-24.44-7.53-37.23-7.6a162.788,162.788,0,0,0-113.376,45.987c-8.4,8.243-16.384,19.013-14.5,30.643a64.68,64.68,0,0,0-61.14,15.15c-7.05,6.73-12.62,15.4-14,25.06s2.1,20.25,10,26c108.6,3.16,211.24-15.34,317.53-37.78,34.22-7.22,71-16.15,93.55-42.86,10.82-12.81,17.34-28.65,23-44.45a556.475,556.475,0,0,0,28.11-119.06c2.84-23.22,4.21-46.59,5.58-69.94l3.91-66.9,4.59-78.29C1694.33,307.46,1703.7,288.34,1704.35,277.15Z" transform="translate(141.06 150.17)" fill="#35476d"/>
            <path id="Path_28" data-name="Path 28" d="M1629.28,619.94c-.43-30.61-27.34-54-54.16-68.74-50.76-27.93-113.57-40.16-167-17.86-22.56,9.41-43.39,25.65-52.7,48.25s-4.35,51.88,15.44,66.22c13.78-4.59,28.06,4.94,40.12,13s22.6,18.56,35.61,25c27.46,13.6,60.18,6.95,90-.3,27-6.57,57-15.78,69.77-40.47C1611.59,634.77,1617.68,620,1629.28,619.94Z" transform="translate(141.06 150.17)" fill="#35476d"/>
          </g>
          <g id="clouds_1" data-name="clouds 1">
            <path id="Path_29" data-name="Path 29" d="M522.88,789c10.55-6,9.77-20.22,5.84-31-9.69-26.45-31.11-49.19-58.38-61.95s-58.43-18-87.74-9.76c18.49-42.25-5.73-93.72-48.18-117.78s-94.28-23.53-140.63-6.4c9.65-7.3,15.32-18.75,14.93-30.16s-6.82-22.51-16.95-29.26c-1.47-1-2.32.14-1.07,1.34,13.86-10.16,22.38-26.09,22.61-42.28.27-18.74-10.16-36.67-24.8-49.88-14.86-13.43-29.84-22.45-50.43-26,18.62-4.08,35.11-14.27,48.4-26.81,40.7-38.39,50.71-100.92,23.74-148.27s-88.94-76-146.93-67.94c1.07-20.18-4.5-41.61-19.82-56.23C32.31,76,22.4,70,.4,71V737c0,49.51,71-2.22,125.43,0,92.57,3.78,174.78-3.78,267.35,0,21.51.88,9.94,4.8,30.81,0S513.61,806.66,522.88,789Z" transform="translate(141.06 150.17)" fill="#34375a"/>
            <path id="Path_30" data-name="Path 30" d="M1091.66,786.44c9-23.17.48-50.57-12.67-71.08-19.16-29.87-48.19-51.5-80.09-59.65S932.53,653,903.82,670.6c-11.62,7.14-22.5,16.4-29.82,28.85,1.54-9.6-5.39-19.06-13.7-21.8s-17.33-.11-25.1,4.21A72.44,72.44,0,0,0,807,711.05c-.84-18-13.28-33.64-28.28-39.9s-31.92-4.29-47,1.78-28.62,16-42,25.82l-76.1,55.77c34.09,2.42,64.56,4.49,98.12,11.69,21.94,4.7,43.51,11.42,65.34,16.72C878.53,807.55,988.79,801.56,1091.66,786.44Z" transform="translate(141.06 150.17)" fill="#34375a"/>
            <path id="Path_31" data-name="Path 31" d="M1670.72,618.48c-2.36-26.29-23-48.68-47.7-58s-52.54-7.12-77.71.82c-53.83,17-98.47,60.77-116.5,114.26-16.6-13.1-40.77-13.34-60.23-5.06s-34.91,23.81-48.12,40.32c-9.66,12.06-18.58,25-30.81,34.49s-28.86,14.94-43.36,9.57c84.87,32.38,179.2,43.13,269.6,34.29,26.61-2.61,53.41-7.13,77.73-18.25s46.13-29.48,57-53.89c7-15.61,9.2-32.85,11.36-49.8S1672.24,635.41,1670.72,618.48Z" transform="translate(141.06 150.17)" fill="#34375a"/>
          </g>
        </g>
      </g>
    </g>
  </g>
</svg>
