<svg xmlns="http://www.w3.org/2000/svg" viewBox="0 0 285 285"><defs><style>.cls-1{opacity:.3;}.cls-2{fill:#c7f0c3;}</style></defs><g id="Layer_2" data-name="Layer 2"><g id="Layer_1-2" data-name="Layer 1"><g class="cls-1"><path class="cls-2" d="M285,68.4H266.3l-5.68,5.68H241.09l-8.52-8.52H158.45L144.22,51.33H50.74c-.51.51-1.12,1.06-1.67,1.68a3.57,3.57,0,0,1-2.74,1.13,5.48,5.48,0,0,1-3-.36,7,7,0,0,1-3-3.16,6.41,6.41,0,0,0-.35-.68V47c1.46-3.27,3.79-4.83,7.13-4.2,1.68.48,2.6,1.7,3.71,2.77h95.62L160.6,59.82h74.31c2.87,2.87,5.69,5.68,8.54,8.54h14.71l5.65-5.66H285ZM44.19,49.63a1.85,1.85,0,0,0,3-2.12,2.11,2.11,0,0,0-2.93-.4A2.09,2.09,0,0,0,44.19,49.63Z"/><path class="cls-2" d="M114,285V243.5l-5.68-5.68V183.65c-1-.92-1.95-1.87-2.86-2.75V149.8c.5-.51,1-1,1.51-1.52s.77-.88,1.28-1.47v-8.55c-9-9-18-18-27.09-27.09H76.42l-2.2,2.28a10,10,0,0,1-4.43.54c-3.29-1.46-4.82-3.79-4.16-7.29,1.39-3.06,3.62-4.67,7.06-4,1.62.4,2.58,1.67,3.71,2.76h7.38c10.07,10.08,20.1,20.11,30.2,30.2v13.94a6.51,6.51,0,0,0-1.41,1.37c-.36.63-1,.86-1.41,1.35v26l2.81,2.78v54.19L119.7,241v44ZM69.82,109.55a2.18,2.18,0,0,0,2.3.42c1.22-1.29,1-2.2.54-2.84a2.11,2.11,0,0,0-2.81-.1A2.45,2.45,0,0,0,69.82,109.55Z"/><path class="cls-2" d="M99.75,285V252.05L85.51,237.81V223.62l-9.87-9.87H0v-5.7H78.09c4.35,4.34,8.66,8.66,13.09,13.09v14.15l14.27,14.26V285Z"/><path class="cls-2" d="M119.7,0V15.85l7,6.94h34.09L172.1,34.15h17.65q9.09-9.07,18.26-18.26V12.81c1.53-2.78,1.78-2.88,4.18-4.26.6,0,1.31,0,2,0a4.23,4.23,0,0,1,3.06,1.22c.63.54,1.18,1.17,1.72,1.7A8,8,0,0,1,219,17l-2.8,2.73-4.05.3L192.32,39.86H169.71L158.37,28.52H124.29c-3.4-3.4-6.75-6.76-10.29-10.29V0Zm95.46,15.51c.47-1.26.47-1.26-.08-2.56a2.12,2.12,0,0,0-2.65,0,2,2,0,0,0,.1,2.69C213.38,16.3,214.21,16.07,215.16,15.51Z"/><path class="cls-2" d="M105.45,0V18.33L95.32,28.46H35.79L28.5,21.17V13.62a6.14,6.14,0,0,1-2.69-6.89A7,7,0,0,1,30,2.85a13.28,13.28,0,0,0,1.4,0,4.6,4.6,0,0,1,3.8,1.58c.46.47.92.93,1.35,1.35a7.42,7.42,0,0,1-.16,5.69L34.2,13.62V18.7l4.08,4.06H92.82l6.93-6.92V0ZM29.78,7.58a1.83,1.83,0,0,0,0,2,2.15,2.15,0,0,0,3,.24c.47-1.26.47-1.26-.09-2.58A2.1,2.1,0,0,0,29.78,7.58Z"/><path class="cls-2" d="M233.7,285v-6.94l14.24-14.24v-17.1a44.16,44.16,0,0,1,5-4.28c.77-.59,1.42-1.32,2.23-1.9,1.22-.88,2.25-2,3.41-3,.86-.73,1.79-1.39,2.7-2.08.09-.07.18-.12.27-.2,1.17-1.05,2.34-2.09,3.52-3.16v-24.6c-1-1.12-2.38-2-2.83-3.57v-3.06a8.36,8.36,0,0,1,3-3.57c1.41-1,2.9-.5,4.06-.66,1.89.57,2.86,1.91,4,3,.89,4.69.33,5.28-2.45,7.8V234.9a30.76,30.76,0,0,1-4.18,3.5c-.88.63-1.68,1.4-2.5,2.12-2,1.76-4,3.55-6,5.28-1.48,1.27-3,2.46-4.46,3.63v16.88q-6.37,6.38-12.73,12.73c-.56.57-1,1.2-1.51,1.72V285Zm35.39-81.25a2,2,0,0,0,.18-2.64,2.11,2.11,0,0,0-2.67-.12,2.13,2.13,0,0,0-.13,2.55A2,2,0,0,0,269.09,203.75Z"/><path class="cls-2" d="M0,119.7H15.86l8.54-8.55H38.33l8.54,8.55H66.18A6.14,6.14,0,0,1,73.05,117c1.33.34,2.3,1.68,3.42,2.74a7.7,7.7,0,0,1,.06,5.41l-2.66,2.66a6.05,6.05,0,0,1-7.69-2.42H44.38l-8.54-8.55h-9l-8.54,8.55H0Zm72.63,1.64a2,2,0,0,0-2.66-.15,2.15,2.15,0,0,0-.06,2.68,2,2,0,0,0,2.69-.09A2,2,0,0,0,72.63,121.34Z"/><path class="cls-2" d="M285,139.65H240.64c-1.21,1.21-2.43,2.42-3.64,3.65s-2.26,2.35-3.29,3.41v7.73l2.4,2.33c.54,2.13,1.06,4.23-.38,5.89-1.94,2.22-1.85,2.87-6.35,2.63-3.16-1.45-4.81-3.67-4.13-7.27.36-1.47,1.63-2.43,2.73-3.57V144.26L238.28,134H285ZM229.46,160.8a1.83,1.83,0,1,0,2.72-2.46,1.83,1.83,0,0,0-2.41-.2A2,2,0,0,0,229.46,160.8Z"/><path class="cls-2" d="M0,134H66.17a6.19,6.19,0,0,1,6.89-2.69c3.88,2,4.49,4.22,3.55,8.08l-2.89,2.89L71,142.5A4.34,4.34,0,0,1,67.47,141c-.47-.45-.92-.92-1.39-1.38H0Zm72.68,1.6a2.18,2.18,0,0,0-2.3-.42c-1.22,1.29-1,2.2-.54,2.84a2.11,2.11,0,0,0,2.81.1A2.45,2.45,0,0,0,72.68,135.55Z"/><path class="cls-2" d="M71.25,285V254.92l-8.55-8.53v-8.58l-4.08-4.07H56.36c-.26.37-.51,1.14-1,1.31-.68.24-.91.88-1.49,1.11a7.88,7.88,0,0,1-5.39-.09c-.95-1-2.32-2-2.91-4-.57-3.06.93-5.41,4.29-6.89.48,0,1.19,0,1.9,0a4.21,4.21,0,0,1,3.05,1.25c.58.5,1.09,1.08,1.63,1.62h4.61l7.32,7.31v8.54L77,252.4V285ZM49.88,232.1a2.18,2.18,0,0,0,2.76.08,2.07,2.07,0,0,0,.14-2.44,2.15,2.15,0,0,0-2.88-.16A2.43,2.43,0,0,0,49.88,232.1Z"/><path class="cls-2" d="M82.65,285V252.05l-8.5-8.49V229.3l-1.3-1.3c-.71,0-1.53,0-2.34,0a3.53,3.53,0,0,1-2.73-1.14,17.16,17.16,0,0,1-1.5-1.71,3.6,3.6,0,0,1-.75-2.54,11.51,11.51,0,0,0,0-1.76c1.4-3.12,3.63-4.83,7.42-4.12a6.94,6.94,0,0,1,4,4.19v2.8l2.87,2.88V241l8.56,8.54V285ZM69.84,221a2.32,2.32,0,0,0,.08,2.55,2.11,2.11,0,0,0,2.65,0,2,2,0,0,0-.11-2.69C71.62,220.25,70.78,220.47,69.84,221Z"/><path class="cls-2" d="M239.4,0c0,4.74,0,9.48,0,14.22a14.84,14.84,0,0,0,.25,1.9l6.66,6.65h14.45l7.13-7.12V0h5.7V18.3L263.44,28.44H243.82L233.7,18.31V0Z"/><path class="cls-2" d="M0,62.7H24c3.35,3.36,6.71,6.72,10.14,10.14V97.41l2.43,2.44a7.28,7.28,0,0,1,.45,2.69c-.14.9-.21,1.8-.3,2.65-1.19,1.2-2.2,2.48-4.14,3.11-.35,0-1.06,0-1.76,0a4.21,4.21,0,0,1-3.05-1.25c-.62-.54-1.18-1.16-1.64-1.62a7.64,7.64,0,0,1-.54-3,4.62,4.62,0,0,1,1.51-3.65c.43-.42.84-.84,1.31-1.31V75.31L21.54,68.4H0Zm30,41.17a2.1,2.1,0,0,0,2.7,0c.51-1.29.51-1.29,0-2.64a2.08,2.08,0,0,0-2.48-.11A2.05,2.05,0,0,0,30,103.87Z"/><path class="cls-2" d="M59.85,285V263.46c-1.34-1.35-2.69-2.69-4.08-4.07H33.56c-.26.37-.5,1.13-1,1.31-.67.25-.92.87-1.49,1.11a7.88,7.88,0,0,1-5.39-.09c-.95-1-2.32-2-2.92-4.05-.56-3,.94-5.39,4.3-6.87.43,0,1.08,0,1.72,0a4.33,4.33,0,0,1,3.36,1.37c.47.44.92.92,1.44,1.44H58.18L65.55,261v24ZM30,257.56a2,2,0,0,0-.29-2.48c-1.23-.48-1.23-.48-2.46.09a2,2,0,0,0-.09,2.63A2.09,2.09,0,0,0,30,257.56Z"/><path class="cls-2" d="M285,245.1h-6.29a12.87,12.87,0,0,1-.84,1.05c-.29.3-.65.54-1,.82a5.62,5.62,0,0,1-2.44,1c-.83,0-1.66,0-2.46,0-1.24,1.24-2.48,2.43-3.67,3.68a19.4,19.4,0,0,0-3.28,3.61v19.61c-2.46,2.47-4.93,4.95-7.43,7.41A3.12,3.12,0,0,0,256.5,285h-5.7v-4.09l8.55-8.54V252.5l8.62-8.63c-.62-3.47.84-5.86,4.22-7.32.49,0,1.2,0,1.9,0a4.22,4.22,0,0,1,3,1.24c.58.5,1.09,1.09,1.61,1.62H285Zm-13-3.82a1.83,1.83,0,0,0,0,2,1.86,1.86,0,1,0,2.89-2.33A2.11,2.11,0,0,0,272,241.28Z"/><path class="cls-2" d="M285,125.4H263.83l-14.22-14.23h-2.18c-.69.48-1.11,1.27-1.81,1.83a4.21,4.21,0,0,1-2.63,1,5.67,5.67,0,0,1-3.05-.35,7.79,7.79,0,0,1-3-3c-.13-.23-.21-.5-.39-.93,0-.51,0-1.22,0-1.93a4.26,4.26,0,0,1,1.26-3,7.74,7.74,0,0,1,3-2.14c1.28.09,2.76-.3,4.14.38l2.45,2.45h4.67l14.26,14.27H285Zm-43.81-15.6a1.86,1.86,0,0,0,2.2,0,2,2,0,0,0,.26-2.65,1.84,1.84,0,1,0-2.46,2.7Z"/><path class="cls-2" d="M285,179.55H261a45.82,45.82,0,0,0-7.3,7.3v1.79l2.4,2.34c.54,2.12,1.06,4.22-.38,5.88-1.94,2.22-1.85,2.87-6.5,2.62-3.75-2.16-4.32-3.54-4.11-6.73.49-2,1.76-3,2.86-4.1V184c1.7-1.71,3.42-3.43,5.14-5.14l5-5H285Zm-35.39,12.82a2.12,2.12,0,0,0-.17,2.72,1.88,1.88,0,1,0,2.6-2.71A2.33,2.33,0,0,0,249.61,192.37Z"/><path class="cls-2" d="M208.05,0V6.94L189.36,25.63h-7.47l-2.46,2.45c-4.27,1.18-6.32.14-8.4-3.65-.31-3.64.22-5.12,4.08-7.33.62,0,1.27,0,1.92,0a4.28,4.28,0,0,1,3.35,1.37c.47.45.92.93,1.43,1.44h5.09L202.35,4.45V0Zm-30,21.6a2.12,2.12,0,0,0-2.78-.09c-.49,1.28-.49,1.28.06,2.62a2,2,0,0,0,2.68-.12A1.91,1.91,0,0,0,178.09,21.6Z"/><path class="cls-2" d="M228,0V24l-8.24,8.22a5.05,5.05,0,0,1,2.46,3.19,7.26,7.26,0,0,1-.3,4.16c-.44.62-.72,1.45-1.25,1.67s-.89.9-1.49,1.13c-4,1-6.07.27-8.28-3.76,0-.65,0-1.36,0-2.07a4.22,4.22,0,0,1,1.24-3c.5-.58,1.09-1.09,1.62-1.61V30.1l8.55-8.55V0ZM218,35.87a2,2,0,0,0-2.65-.2,2.11,2.11,0,0,0-.12,2.67,2.18,2.18,0,0,0,2.7,0A2.09,2.09,0,0,0,218,35.87Z"/><path class="cls-2" d="M222.3,285V272.32l8.54-8.53v-7.92a6.17,6.17,0,0,1-2.69-6.86c1.33-2.42,1.57-2.52,4-3.91.61,0,1.32,0,2,0a4.37,4.37,0,0,1,3.06,1.22c.41.34.74.78,1.14,1.13a3.16,3.16,0,0,1,1,2.42,31.1,31.1,0,0,1-.17,3.21,15.19,15.19,0,0,1-1.29,1.86,7.55,7.55,0,0,1-1.35.9V266.3c-2.35,2.34-4.71,4.68-7,7-.57.57-1.06,1.2-1.52,1.72V285Zm10.2-35.59a1.83,1.83,0,1,0,2.46,2.72,1.83,1.83,0,0,0,.2-2.41A2,2,0,0,0,232.5,249.41Z"/><path class="cls-2" d="M285,162.45H263.89l-7.37-7.37v-1.66c-1-1.17-2.42-2-2.87-3.61,0-.54,0-1.07,0-1.6-.14-2.42,1.18-3.94,3.11-5.08l1.07-.63h2.81c1.85.53,2.8,1.81,3.92,2.89a9.18,9.18,0,0,1,.46,4.41,2.69,2.69,0,0,1-.61,1.33c-.53.7-1.14,1.33-1.73,2l3.64,3.62H285Zm-24.38-12.84a2.14,2.14,0,0,0-.06-2.84c-1.23-.47-1.23-.47-2.46.1a2.08,2.08,0,0,0,0,2.72A2.4,2.4,0,0,0,260.62,149.61Z"/><path class="cls-2" d="M0,77H12.63l7.31,7.32v10.4c2.75,1.92,3.6,4.55,2.36,7.9l-2.36,2.35c-1.47.76-3,.46-4.26.53-3.23-1.47-4.86-3.7-4.22-7.09.41-1.66,1.67-2.63,2.77-3.76V86.86L10,82.65H0Zm18.49,21.6a2.1,2.1,0,0,0-2.77-.09c-.5,1.28-.5,1.28-.05,2.38a1.83,1.83,0,0,0,2.52.36A2,2,0,0,0,18.49,98.55Z"/><path class="cls-2" d="M185.25,285V269.52l7.32-7.31h4.59c3.09-3.2,3.39-2.94,6.53-2.84a9.44,9.44,0,0,1,3.91,2.94,7.76,7.76,0,0,1,0,5.31,12.46,12.46,0,0,1-1.16,1.64,11.92,11.92,0,0,1-1.69,1.17c-4.54.84-4.87.35-7.53-2.46a3.5,3.5,0,0,0-3.68,1.38c-.88,1-1.82,1.95-2.63,2.81V285Zm15.9-21.34a1.83,1.83,0,1,0,2.46,2.72,1.83,1.83,0,0,0,.2-2.41A2,2,0,0,0,201.15,263.66Z"/><path class="cls-2" d="M0,239.4H23.42a6.13,6.13,0,0,1,6.79-2.73,10.86,10.86,0,0,1,2.39,1.62c2,1.88,1.89,4.38,1.21,6.48a3.62,3.62,0,0,1-1.29,1.72c-.88.64-1.74,1.49-2.94,1.45s-2.21.28-3.24-.34c-.13-.07-.35,0-.51,0l-2.5-2.49H0ZM29.88,241a2,2,0,0,0-2.66-.15,2.15,2.15,0,0,0-.06,2.68,2,2,0,0,0,2.69-.09A2,2,0,0,0,29.88,241Z"/><path class="cls-2" d="M153.9,285v-6.93l4.47-4.43h8.21l2.79,2.78h2.18c1.06-1,2-2.29,3.94-2.82.29,0,1,0,1.71,0a4.2,4.2,0,0,1,3,1.24c.63.54,1.18,1.17,1.77,1.75a8.3,8.3,0,0,1,0,5.26c-.43.62-.72,1.45-1.24,1.66s-.9.9-1.49,1.14c-.28.1-.74-.23-.81.36h-3.56c-.08-.68-.7-.17-1-.43l-2.45-2.45h-4.64l-2.82-2.82h-3.17l-1.28,1.24V285Zm21.6-7.09a2,2,0,0,0-.16,2.66,2,2,0,0,0,2.62.05,1.81,1.81,0,0,0,.19-2.41A2,2,0,0,0,175.5,277.91Z"/><path class="cls-2" d="M191,0V6.94l-7.31,7.3H173.23A6.12,6.12,0,0,1,166.49,17c-3.09-1.37-4.62-3.71-3.93-7.37,2-3.44,3.33-4.19,6.73-4a8.5,8.5,0,0,1,4,2.85H181l4.22-4.22V0ZM169.32,12.83a2.07,2.07,0,0,0,.2-2.69,2.16,2.16,0,0,0-2.73-.06c-.54,1.37-.54,1.37.15,2.74A2.2,2.2,0,0,0,169.32,12.83Z"/><path class="cls-2" d="M285,82.65H274.85L268,89.51c-.12,1.5-.22,2.93-.32,4.3-.91.61-1.33,1.49-2.1,2.08a4.88,4.88,0,0,1-2.8,1,5.29,5.29,0,0,1-3.59-.78,7,7,0,0,1-2.29-2.58c-.12-.25-.21-.51-.4-1-.24-3.46.17-4.79,4.1-7.11h3.2L272.34,77H285Zm-21.23,9.52a2,2,0,0,0-.34-2.4c-1.25-.46-1.25-.46-2.64.17-.47,1.26-.47,1.26.09,2.58A2.1,2.1,0,0,0,263.77,92.17Z"/><path class="cls-2" d="M267.9,285v-6.94l2.81-2.79v-10.8a20.66,20.66,0,0,1-1.61-1.63,16.28,16.28,0,0,1-1.11-1.78c-.63-3.54.79-5.93,4.23-7.41.37,0,1,0,1.66,0a4.43,4.43,0,0,1,3.49,1.47c.51.49,1,1,1.46,1.45a7.82,7.82,0,0,1,.09,5.33,11.54,11.54,0,0,1-1.1,1.58,7.87,7.87,0,0,1-1.36.91V277.6l-2.86,3.13V285Zm6.91-27a1.85,1.85,0,1,0,0,2.75A2.07,2.07,0,0,0,274.81,258Z"/><path class="cls-2" d="M0,45.6H20.48c2.92-3.05,3.22-2.92,6.66-2.85C31.34,44.89,32,47.13,31,51l-2.77,2.77c-4.06,1-5,.46-7.76-2.46H0Zm24.15,1.79a1.86,1.86,0,0,0,.05,2.2,2,2,0,0,0,2.65.26,2.08,2.08,0,0,0,.14-2.7A2.09,2.09,0,0,0,24.15,47.39Z"/><path class="cls-2" d="M285,51.3h-6.94L270.76,44V36.43A6.12,6.12,0,0,1,268,29.69c1.37-3.09,3.71-4.62,6.8-4,2,.57,2.92,1.85,4,2.92a8,8,0,0,1,0,5.55l-2.38,2.37v4.89l4.22,4.22H285ZM275,30.18a2,2,0,0,0-2.66-.2,2.11,2.11,0,0,0-.12,2.67,2.19,2.19,0,0,0,2.7,0C275.48,31.34,275.48,31.34,275,30.18Z"/><path class="cls-2" d="M42.75,285v-7.29l-4.11-4.09c-1.37-.12-2.91.24-4.39-.57-2.13-1.59-3.49-3.69-2.71-7,1.22-2.7,3.44-4.4,7.24-3.69,2.87,1.29,4.55,3.52,3.91,7L48.45,275v10Zm-4.41-15.7a2.1,2.1,0,0,0,.26-2.42,2.06,2.06,0,0,0-2.75-.37,2.1,2.1,0,0,0-.09,2.77A2.41,2.41,0,0,0,38.34,269.3Z"/><path class="cls-2" d="M0,156.75H4.44l4.07-4.08v-3c1.46-3.17,3.64-4.95,7.69-4.12,1.17.3,2.15,1.63,3.27,2.7a7.78,7.78,0,0,1,0,5.6l-2.52,2.52c-.63.12-1.34.3-2.06.37s-1.52,0-2.23,0L7,162.45H0Zm15.31-7.2a1.86,1.86,0,0,0-2.2,0,2,2,0,0,0-.26,2.65,2.08,2.08,0,0,0,2.7.14A2.09,2.09,0,0,0,15.31,149.55Z"/><path class="cls-2" d="M159.6,0V6.93L154,12.51c-.13,1.51-.24,2.94-.35,4.33C152.38,18,151.49,19.39,149,20c-2.6.47-5-1-6.41-4.26-.61-3.37.86-5.74,4.21-7.2h2.89l4.25-4.25V0ZM149.41,12.86a2.07,2.07,0,0,0-2.55.06,2.07,2.07,0,0,0-.14,2.44,2.07,2.07,0,0,0,2.73.25A2.05,2.05,0,0,0,149.41,12.86Z"/><path class="cls-2" d="M202.35,285v-6.94l4.44-4.43h1.76c1.12-1,2-2.35,3.95-2.88a15,15,0,0,0,1.77,0,4,4,0,0,1,2.77,1,10.1,10.1,0,0,1,1.77,1.75c.19.23.11.69.3.93.73,1,.28,2.05.31,3.07a3.58,3.58,0,0,1-1.21,2.52,5.64,5.64,0,0,1-2.73,2,6.63,6.63,0,0,1-4.38-.28c-.86-.38-1.45-1.35-2.16-2.06l-.89.88V285Zm10.13-10a2.07,2.07,0,0,0-.18,2.55,2.14,2.14,0,0,0,2.87.11c.46-1.26.46-1.26-.14-2.64A2.4,2.4,0,0,0,212.48,275Z"/><path class="cls-2" d="M0,173.85H9.17a6.18,6.18,0,0,1,6.88-2.69c1.32.34,2.3,1.68,3.43,2.75a7.42,7.42,0,0,1,0,5.5L16.87,182a7.72,7.72,0,0,1-5.38,0l-2.32-2.39H0Zm15.67,1.6a2.18,2.18,0,0,0-2.76-.08,2.17,2.17,0,0,0,.11,2.76c1.25.46,1.25.46,2.63-.16A2.43,2.43,0,0,0,15.67,175.45Z"/><path class="cls-2" d="M65.55,0V9.08l2.39,2.39a7.88,7.88,0,0,1,0,5.54c-3.49,4.8-8.68,3.63-10.92-1.21,0-.55,0-1.2,0-1.84a4.43,4.43,0,0,1,1.48-3.49c.45-.47.92-.92,1.38-1.39V0ZM63.88,15.66a2,2,0,0,0,.2-2.65,2,2,0,0,0-2.32-.36,2.11,2.11,0,0,0-.4,2.93A2.09,2.09,0,0,0,63.88,15.66Z"/><path class="cls-2" d="M48.45,0V9.08l2.39,2.39a7.88,7.88,0,0,1,0,5.54c-3.49,4.8-8.68,3.63-10.92-1.21,0-.55,0-1.2,0-1.84a4.43,4.43,0,0,1,1.48-3.49c.45-.47.92-.92,1.38-1.39V0ZM44.19,15.43a2,2,0,0,0,2.65.2A2.11,2.11,0,0,0,47,13a2.18,2.18,0,0,0-2.7,0A2.09,2.09,0,0,0,44.19,15.43Z"/><path class="cls-2" d="M88.35,0V9.08l2.39,2.39a7.88,7.88,0,0,1,0,5.54C87.23,21.81,82,20.64,79.8,15.8c0-.55,0-1.2,0-1.84a4.43,4.43,0,0,1,1.48-3.49c.45-.47.92-.92,1.38-1.39V0Zm-4,12.86a2,2,0,0,0-.16,2.66,2.13,2.13,0,0,0,2.68.07,2,2,0,0,0-.1-2.69A1.94,1.94,0,0,0,84.3,12.86Z"/><path class="cls-2" d="M256.5,0V6.23l2.38,2.33a16.32,16.32,0,0,1,.45,1.8,13.05,13.05,0,0,1,0,1.77,4.38,4.38,0,0,1-1.86,3.52,4,4,0,0,1-2,1.24c-2.21.37-3.79.42-5.56-1.14a8.58,8.58,0,0,1-2-2.91c0-.47,0-1.12,0-1.77a4.27,4.27,0,0,1,1.37-3.34c.45-.47.92-.92,1.49-1.5V0Zm-4.06,10a2,2,0,0,0-.15,2.66,2.15,2.15,0,0,0,2.68.06,2,2,0,0,0-.09-2.69A2,2,0,0,0,252.44,10Z"/><path class="cls-2" d="M0,102.6H4.09l2.78,2.81h3.2c4.07,2.33,4.83,4.15,3.79,8.44-.83.84-1.67,1.67-2.6,2.6a17.56,17.56,0,0,1-2,.38c-.76.07-1.54,0-2.3,0-2.62-1.64-2.4-1.32-4.1-4.1v-3.2L1.6,108.3H0ZM10,110a2,2,0,0,0-2.65-.2,2.11,2.11,0,0,0-.12,2.67,2.18,2.18,0,0,0,2.7,0A2.09,2.09,0,0,0,10,110Z"/><path class="cls-2" d="M77,0V3.38l2.38,2.39a7.81,7.81,0,0,1,0,5.61c-3.81,4.86-8.77,3.33-10.9-1.28,0-.55,0-1.2,0-1.84a4.43,4.43,0,0,1,1.48-3.49c.45-.47.92-.92,1.38-1.39V0ZM72.89,9.94a2.07,2.07,0,0,0,2.55-.06,2.07,2.07,0,0,0,.14-2.44,2.07,2.07,0,0,0-2.73-.25A2.05,2.05,0,0,0,72.89,9.94Z"/><path class="cls-2" d="M285,94.05a.87.87,0,0,0-1,.51c-.36.65-1,1-1.5,1.47a3,3,0,0,1-2.12.86c-.88.06-1.77,0-2.45,0a7.2,7.2,0,0,1-4.23-4.1c-.65-3.5.88-5.84,4.2-7.3.5,0,1.21,0,1.92,0a4.26,4.26,0,0,1,3,1.24c.5.41.9.94,1.4,1.36a2.26,2.26,0,0,0,.77.26Zm-7.12-1.68a2,2,0,0,0,2.66.21,2.15,2.15,0,0,0,.07-2.75,2.41,2.41,0,0,0-2.64,0C277.42,91.21,277.42,91.21,277.88,92.37Z"/><path class="cls-2" d="M285,213.75a.87.87,0,0,0-1,.51c-.36.65-1,1-1.5,1.47a3,3,0,0,1-2.12.86c-.88.06-1.77,0-2.45,0a7.2,7.2,0,0,1-4.23-4.1c-.65-3.5.88-5.84,4.2-7.3.5,0,1.21,0,1.92,0a4.26,4.26,0,0,1,3,1.24c.5.42.9.94,1.4,1.36a2.26,2.26,0,0,0,.77.26Zm-4.13-1.88a1.83,1.83,0,0,0,0-2,1.86,1.86,0,1,0-2.89,2.33A2.11,2.11,0,0,0,280.87,211.87Z"/><path class="cls-2" d="M0,88.35c.49.13.74-.21,1-.5a15.59,15.59,0,0,1,1.83-1.62,3.5,3.5,0,0,1,2.54-.74,8.26,8.26,0,0,0,1.41,0c2,.48,3,1.85,4.09,2.89a7.83,7.83,0,0,1,0,5.6c-1,1-1.95,2.32-3.57,2.91-.65,0-1.3,0-1.94,0a4.43,4.43,0,0,1-3.49-1.48C1.49,95,1.1,94.57.65,94.19c-.15-.13-.43-.1-.65-.14ZM7.1,90a2,2,0,0,0-2.64-.18,2.11,2.11,0,0,0-.12,2.67,2.13,2.13,0,0,0,2.55.13A2,2,0,0,0,7.1,90Z"/><path class="cls-2" d="M285,108.3a.87.87,0,0,0-1,.51c-.36.65-1,1-1.5,1.47a3,3,0,0,1-2.12.86c-.88.06-1.77,0-2.45,0a7.2,7.2,0,0,1-4.23-4.1c-.65-3.5.88-5.84,4.2-7.3.5,0,1.21,0,1.92,0a4.26,4.26,0,0,1,3,1.24c.5.42.9.94,1.4,1.36a2.26,2.26,0,0,0,.77.26Zm-7.09-1.65a2,2,0,0,0,2.65.17,2,2,0,0,0,.06-2.63,1.79,1.79,0,0,0-2.41-.18A2,2,0,0,0,277.91,106.65Z"/><path class="cls-2" d="M22.8,12.8v2.77c-.5,1.77-1.73,2.69-2.81,3.81V30.15l4,4h77.23l5.65-5.65h5.52l5.62,5.61H155.1l11.42,11.42h7.88c1.07-1,2-2.3,3.88-2.82h2.57c1.9.55,2.86,1.92,4,3a7.78,7.78,0,0,1-.16,5.63l-2.31,2.31a9.4,9.4,0,0,1-4.07.5c-1.86-.53-2.77-1.76-3.88-2.82H164.24q-5.82-5.82-11.43-11.43H115.36l-5.52-5.53-5.5,5.49H21.75l-7.46-7.45V19.46c-1-1.1-2.35-2-2.91-4.2-.28-3,.3-4.52,3.94-6.6C19,8,21.34,9.52,22.8,12.8Zm-7.09,2.65a2.12,2.12,0,0,0,2.78.09c.49-1.28.49-1.28,0-2.37A1.8,1.8,0,0,0,16,12.81,2,2,0,0,0,15.71,15.45ZM178.35,47.06a2.1,2.1,0,0,0-.09,2.77c1.28.5,1.28.5,2.62,0a2,2,0,0,0-.11-2.68A1.94,1.94,0,0,0,178.35,47.06Z"/><path class="cls-2" d="M148.2,186.86l19.92-19.92V156.18c-.51-.5-1.06-1.11-1.68-1.66a3.57,3.57,0,0,1-1.13-2.74,5.58,5.58,0,0,1,.36-3.05,8,8,0,0,1,3-3,6.57,6.57,0,0,1,.61-.26s.08-.08.13-.12h2.83a6.48,6.48,0,0,1,4.47,4.48c.06,3.8.09,3.57-2.86,6.41V169.4l-18.51,18.52c-.52.53-1,1.12-1.41,1.64v19.71l-8.41,8.41-13.09,13.1c-.47.49-.87,1.05-1.29,1.56v11.37l9.92,9.92h19.08c1.12-1,2-2.38,3.57-2.83h2.9c1.86.53,2.79,1.84,3.91,2.88a6.32,6.32,0,0,1,.49,2.49c-.13.78.31,1.64-.36,2.34.24,1.07-1.12,1.28-1.17,2.19-.89,0-1.1,1-2,1.23s-1.69.17-2.54.28a8.13,8.13,0,0,1-2.39-.45l-2.39-2.4H138.46l-13.05-13V229.6l22.79-22.8Zm18.53,68.45a2.15,2.15,0,0,0-2.8-.11c-.51,1.29-.51,1.29,0,2.64a2.19,2.19,0,0,0,2.76-.1A2.35,2.35,0,0,0,166.73,255.31Zm5.68-105.44a1.85,1.85,0,0,0-3,2.12,2.11,2.11,0,0,0,2.93.4A2.09,2.09,0,0,0,172.41,149.87Z"/><path class="cls-2" d="M69.83,54.17H98.17l17,17h71.12l11.43,11.43h3c1.89.58,2.86,1.92,4,3,.52,2,1,4.14-.4,5.8-1.94,2.22-1.85,2.87-6.32,2.63-3.33-1.45-4.82-3.82-4.2-7.23L184,77H113L95.85,59.87H72.57l-4.18,4.18c0,1.88.22,3.77-1.48,5.4a6.52,6.52,0,0,1-5.82,1.73c-3-1.33-4.67-3.57-4-7.33a6.88,6.88,0,0,1,4.19-4h2.82ZM198.32,86.94a2.12,2.12,0,0,0-.1,2.81c1.27.48,1.27.48,2.59-.07a2.1,2.1,0,0,0,.13-2.51A2,2,0,0,0,198.32,86.94Zm-137-20.2a2,2,0,0,0,2.64.18,2.11,2.11,0,0,0,.12-2.67,2.13,2.13,0,0,0-2.55-.13A2,2,0,0,0,61.3,66.74Z"/><path class="cls-2" d="M118,108.29H152.2l7.39,7.38V146a13.71,13.71,0,0,0,1.88,1.75c.7.45.45,1.29,1,1.75-.17,1.19.39,2.46-.36,3.59.16,1.1-1.11,1.38-1.3,2.27a5.54,5.54,0,0,1-4.22,1.43H155.3c-3.27-1.46-4.84-3.79-4.2-7.12.48-1.69,1.7-2.61,2.77-3.72V118.26L149.61,114h-34L84.31,82.66H76.4L74.15,85a9.9,9.9,0,0,1-4.34.54C66.6,84,65,81.8,65.68,78.08c1.91-3.61,3.45-4.23,6.35-4,2.32.5,3.25,1.81,4.38,2.89H86.66ZM69.86,81a1.83,1.83,0,1,0,2.72-2.46,1.83,1.83,0,0,0-2.41-.2A2,2,0,0,0,69.86,81Zm88.28,68.85a2.14,2.14,0,0,0-2.83,0l-.33,1.44,1.35,1.71,1.52-.47A2,2,0,0,0,158.14,149.85Z"/><path class="cls-2" d="M204,250.8l7-7c0-.68,0-1.39,0-2.1a4.17,4.17,0,0,1,1.25-3c.51-.58,1.1-1.08,1.62-1.58V226.79l7.33-7.35h1.84a6.19,6.19,0,0,1,6.9-2.68c1.3.36,2.28,1.68,3.38,2.74a7.65,7.65,0,0,1,.1,5.35,12.78,12.78,0,0,1-1.21,1.69,11.59,11.59,0,0,1-1.66,1.14c-3.58.77-4.83.48-7.27-2.2l-3.72,3.9v7.76l2.4,2.34a7.84,7.84,0,0,1,0,5.34,10.21,10.21,0,0,1-1.15,1.63,12.8,12.8,0,0,1-1.86,1.3l-4,.3-8.41,8.41H189.61l-14.29,14.29H141.24c-1.74,1-2.88,2.72-4.34,4-.12,1.49-.23,2.91-.32,4a15.82,15.82,0,0,1-1.37,1.92,10.32,10.32,0,0,1-1.57,1.1,7.68,7.68,0,0,1-5.2-.06c-2.21-1.64-3.67-3.73-2.84-7.15a6.8,6.8,0,0,1,4.11-3.78h2.82l5.7-5.7h34.35l14.28-14.28Zm13.91-9.91a2.1,2.1,0,0,0-2.6,0,2.16,2.16,0,0,0,.11,2.75,3.29,3.29,0,0,0,2.29.22A2.19,2.19,0,0,0,217.86,240.89Zm11.34-17.2a2,2,0,0,0,.17-2.65,2,2,0,0,0-2.63-.06,1.79,1.79,0,0,0-.18,2.41A2,2,0,0,0,229.2,223.69Zm-96.91,54.16a2,2,0,0,0,.18-2.64,2.11,2.11,0,0,0-2.67-.12,2.13,2.13,0,0,0-.13,2.55A2,2,0,0,0,132.29,277.85Z"/><path class="cls-2" d="M72.56,88.35c1.78.51,2.7,1.74,3.84,2.83h7.48l28.51,28.52H138l7.32,7.34V163c.85.82,1.7,1.64,2.47,2.4.84,3.68.41,4.95-.41,5.85-2,2.18-1.89,2.84-6.34,2.64-3.29-1.46-4.84-3.79-4.24-7,.5-1.8,1.75-2.7,2.8-3.83V129.67l-4.26-4.26H110L81.5,96.94H76.38c-.49.49-1.1,1-1.65,1.66A3.56,3.56,0,0,1,72,99.74a5.67,5.67,0,0,1-3-.35,7.83,7.83,0,0,1-3-3,8.52,8.52,0,0,1-.4-1c0-.49,0-1.21,0-1.91a4.13,4.13,0,0,1,1.26-3,6.54,6.54,0,0,1,2.85-2.15Zm68.76,78.39a1.85,1.85,0,0,0,2.12,3,2.11,2.11,0,0,0,.4-2.93A2.09,2.09,0,0,0,141.32,166.74Zm-68.67-74a2.1,2.1,0,0,0-2.42-.26,2.15,2.15,0,0,0-.24,3c1.26.47,1.26.47,2.64-.12A2.41,2.41,0,0,0,72.65,92.76Z"/><path class="cls-2" d="M90,71.25H87.81c-.52.53-1.13,1.08-1.68,1.7a3.56,3.56,0,0,1-2.73,1.14,5.67,5.67,0,0,1-3.05-.35A6.87,6.87,0,0,1,77,69.8c0-.49,0-1.2,0-1.91a4.09,4.09,0,0,1,1.26-3A6.57,6.57,0,0,1,81,62.7h2.9c1.81.5,2.71,1.74,3.87,2.83h4.61l20,20h67.68c1.13-1,2-2.4,3.57-2.84h2.88c3.46,1.26,4.9,3.57,4.41,6.92a4.88,4.88,0,0,1-3.32,4.05c-3.07.95-4.42,1-7.55-2.42H109.93Zm96.65,15.89a2.09,2.09,0,0,0-2.76-.08c-.5,1.28-.5,1.28,0,2.62a2,2,0,0,0,2.68-.1A2,2,0,0,0,186.63,87.14ZM83.92,69.81A1.87,1.87,0,0,0,81.45,67a2.12,2.12,0,0,0-.08,2.79A2.4,2.4,0,0,0,83.92,69.81Z"/><path class="cls-2" d="M14.25,197.91c0,.74.05,1.51,0,2.28s-.24,1.32-.36,2l-2.51,2.5c-2.89.76-2.63.66-5.34.17-2.46-1.79-3.78-4-3.05-7.1,1.34-3,3.65-4.58,7.09-3.87l48.49-48.5H88.9a6.12,6.12,0,0,1,6.75-2.79c1.53.41,2.51,1.74,3.62,2.8a7.26,7.26,0,0,1-.09,5.6l-2.47,2.45c-3.17,1.21-5.79.34-7.74-2.4H61.11Q37.68,174.46,14.25,197.91ZM7.63,198c-1.22,1.17-.91,2.07-.51,2.67a2,2,0,0,0,2.63.26,2.1,2.1,0,0,0,.09-2.77C8.55,197.61,8.55,197.61,7.63,198Zm87.83-48.39.42-1.74c-.52-.57-.91-1-1.39-1.52l-1.85.55-.42,1.71,1.37,1.51Z"/><path class="cls-2" d="M95.27,156.75c1.7.42,2.48,1.56,3.51,2.35.65.5.43,1.31,1,1.76-.17,1.2.39,2.46-.36,3.59.16,1.1-1.12,1.37-1.3,2.28a5.57,5.57,0,0,1-4.22,1.42H92.74c-1.78-.51-2.7-1.74-3.82-2.81H61.06L28.6,197.8,28.29,202l-2.71,2.71a8,8,0,0,1-5.57,0l-2.64-2.64L17,198.23c1.51-3.32,3.73-5,7.15-4.36l34.25-34.26H88.86c1.11-1,2-2.33,3.9-2.86Zm-2.65,6.87a2.07,2.07,0,0,0,2.69.2,2.16,2.16,0,0,0,.06-2.73c-1.37-.54-1.37-.54-2.74.15A2.2,2.2,0,0,0,92.62,163.62ZM24,200.9a2,2,0,0,0,.18-2.64,2.11,2.11,0,0,0-2.67-.12,2.19,2.19,0,0,0,0,2.7A2.09,2.09,0,0,0,24,200.9Z"/><path class="cls-2" d="M171.12,220.74c.42-1.61,1.68-2.5,2.72-3.6V203.58l-1.32-1.23c-.44,0-1,0-1.5,0-2.43.14-4-1.17-5.09-3.11l-.63-1.07v-3c1.46-3.27,3.79-4.84,7.24-4.18l9.82-9.83v-25c-1-1.08-2.27-2-2.83-4.09-.27-3,.28-4.54,4.1-6.72,4.62-.27,4.55.64,6,2.08,1.91,1.85,1.31,4.07.91,6.35l-2.49,2.42v27.44L176.72,195v3.12c1,1,1.93,1.94,2.83,2.83v16.24l2.39,2.33a7.73,7.73,0,0,1,.05,5.32,12.85,12.85,0,0,1-1.16,1.65,10.33,10.33,0,0,1-1.61,1.12,7.66,7.66,0,0,1-5.21-.09C171.84,225.93,170.38,223.84,171.12,220.74Zm12.8-68.35c1.63.66,1.71.65,3.09-.46a3,3,0,0,0-.36-2.1,2.13,2.13,0,0,0-2.7-.14A2.19,2.19,0,0,0,183.92,152.39Zm-11.63,45.66a2.1,2.1,0,0,0,.26-2.42,2.06,2.06,0,0,0-2.75-.37,2.1,2.1,0,0,0-.09,2.77A2.41,2.41,0,0,0,172.29,198.05Zm5.61,25.64a2,2,0,0,0,.16-2.66,2,2,0,0,0-2.62-.05,1.81,1.81,0,0,0-.19,2.41A2,2,0,0,0,177.9,223.69Z"/><path class="cls-2" d="M193.8,169.75q2.83-2.82,5.68-5.68v-7.95a6.11,6.11,0,0,1-2.71-6.77c1.35-3,3.68-4.59,7-3.95a9.57,9.57,0,0,1,3.79,2.92,7.79,7.79,0,0,1,0,5.26c-.84.83-1.67,1.67-2.43,2.43v10.52c-1.45,1.45-2.89,2.94-4.39,4.37a4.07,4.07,0,0,0-1.36,3.2q.06,27.15,0,54.36l2.3,2.3a7.89,7.89,0,0,1,.17,5.48c-.43.61-.71,1.45-1.24,1.66s-.88.92-1.49,1.11a8,8,0,0,1-5.38-.08c-.94-1.05-2.36-2-2.91-3.59,0-.71,0-1.42,0-2.12a4.23,4.23,0,0,1,1.24-3.05c.5-.58,1.09-1.09,1.62-1.6Zm7-19.67a1.83,1.83,0,0,0,0,2,1.86,1.86,0,1,0,2.89-2.33A2.11,2.11,0,0,0,200.78,150.08Zm-3,85a2,2,0,0,0,.2-2.66,2.11,2.11,0,0,0-2.67-.12,2.19,2.19,0,0,0,0,2.7C196.66,235.58,196.66,235.58,197.82,235.12Z"/><path class="cls-2" d="M70.72,179.55l-2.37,2.38c-2.81.63-2.58.7-5.53,0-3.21-3.07-3-3.3-3-6.78,2-4.74,7.18-6.09,10.85-1.36H89.5l13.08,13.08v35.9l2.4,2.39a7.85,7.85,0,0,1,.09,5.34c-.43.6-.71,1.42-1.24,1.64s-.9.9-1.48,1.12a7.94,7.94,0,0,1-5.39-.09c-.95-1-2.32-2-2.91-3.57,0-.71,0-1.42,0-2.12a4.25,4.25,0,0,1,1.23-3.05c.5-.59,1.09-1.1,1.63-1.65V189.38l-9.85-9.83Zm-6.46-4.25a2.1,2.1,0,0,0-.26,2.42,2.06,2.06,0,0,0,2.75.37,2.1,2.1,0,0,0,.09-2.77A2.41,2.41,0,0,0,64.26,175.3Zm34.08,53.88a1.85,1.85,0,0,0,3-2.12,2.11,2.11,0,0,0-2.93-.4A2.09,2.09,0,0,0,98.34,229.18Z"/><path class="cls-2" d="M262.79,51.24c2.87-3,3.17-2.86,6.68-2.79a18.09,18.09,0,0,1,1.91,1.19,24,24,0,0,1,1.76,1.73,7.49,7.49,0,0,1,0,5.45c-.78.77-1.65,1.65-2.62,2.62A6,6,0,0,1,262.87,57h-19l-5.66-5.68H204.82l-2.34,2.34a15.76,15.76,0,0,1-2.95.51A5.47,5.47,0,0,1,194.44,51L193.8,50V47a7,7,0,0,1,4.52-4.23h2.48c1.8.52,2.72,1.74,3.85,2.83h36l5.66,5.66ZM269.31,53a1.85,1.85,0,0,0-3,2.12,2.11,2.11,0,0,0,2.93.4A2.09,2.09,0,0,0,269.31,53ZM200.9,47.16a2.1,2.1,0,0,0-2.42-.26,2.06,2.06,0,0,0-.37,2.75,2.1,2.1,0,0,0,2.77.09A2.41,2.41,0,0,0,200.9,47.16Z"/><path class="cls-2" d="M240.67,179.53H221l-7.25-7.25V164.8c-1.09-1.14-2.34-2-2.93-4.23-.51-2.82,1-5.19,4.35-6.67.47,0,1.17,0,1.88,0a4.22,4.22,0,0,1,3,1.24c.63.54,1.18,1.16,1.76,1.74a8.29,8.29,0,0,1,.05,5.23,12,12,0,0,1-1.14,1.64,7.55,7.55,0,0,1-1.35.9v4.76c1,1.75,2.72,2.88,4,4.41h14.72l4.05-4V156.25c-2.86-2.94-3-3-2.84-6.65,1.47-3.29,3.8-4.83,6.92-4.24,2,.54,2.89,1.85,4,2.9,1,3.16.68,5.92-2.38,7.84v16.14Zm5.82-29.68a2,2,0,0,0-2.65-.17,2,2,0,0,0-.06,2.63,1.79,1.79,0,0,0,2.41.18A2,2,0,0,0,246.49,149.85Zm-31.28,11a1.83,1.83,0,1,0,2.72-2.46,1.83,1.83,0,0,0-2.41-.2A2,2,0,0,0,215.21,160.8Z"/><path class="cls-2" d="M169.57,125.4c-3.33-1.47-4.84-3.82-4.16-7.47,2-3.44,3.34-4.19,6.56-4,2.08.51,3.05,1.77,4.18,2.87h46.7c1.05-1,2-2.29,3.52-2.83.7,0,1.41,0,2.12,0a4.22,4.22,0,0,1,3,1.24c.63.54,1.18,1.17,1.76,1.75a8.47,8.47,0,0,1,0,5.49c-.53.53-1.19,1.13-1.78,1.79a3.69,3.69,0,0,1-2.74,1.14c-1.26,0-2.55.15-3.61-.72-.77-.63-1.48-1.33-2.31-2.08H176.07a11.64,11.64,0,0,1-.8,1c-.29.3-.65.54-1,.82a5.62,5.62,0,0,1-2.44,1Zm59.83-7a2.1,2.1,0,0,0-2.42-.26,2.06,2.06,0,0,0-.37,2.75,2.1,2.1,0,0,0,2.77.09A2.41,2.41,0,0,0,229.4,118.41Zm-59.6-.1a2,2,0,0,0-.16,2.66,2.14,2.14,0,0,0,2.68.07,2,2,0,0,0-.1-2.69A1.94,1.94,0,0,0,169.8,118.31Z"/><path class="cls-2" d="M46.85,193.8l-4.08,4.07c-.12,1.42.24,2.95-.64,4.56l-2.28,2.29a7.83,7.83,0,0,1-5.6,0c-.92-1-2.31-1.93-2.94-4.22-.51-2.83.94-5.21,4.3-6.67h2.9l5.7-5.7H77.46c1.13-1.08,2-2.33,3.54-2.87.65,0,1.3,0,1.94,0a4.46,4.46,0,0,1,3.49,1.47l1.49,1.49a8.07,8.07,0,0,1,0,5.29c-.44.62-.72,1.45-1.25,1.66s-.88.93-1.49,1.11a8,8,0,0,1-5.34-.06l-2.33-2.4Zm34.62-4.26a1.85,1.85,0,0,0,2.12,3,2.11,2.11,0,0,0,.4-2.93A2.09,2.09,0,0,0,81.47,189.54ZM38.23,200.91a2,2,0,0,0,.2-2.65,2.11,2.11,0,0,0-2.67-.12,2.18,2.18,0,0,0,0,2.7A2.09,2.09,0,0,0,38.23,200.91Z"/><path class="cls-2" d="M122.94,213.41c-2.64-1.88-3.79-4.07-3.12-7.06a8.08,8.08,0,0,1,.79-1.5c.56-.68,1.25-1.27,1.91-1.93v-9.65c-.92-1.12-2.37-1.93-2.82-3.55,0-.65,0-1.3,0-1.95a4.25,4.25,0,0,1,1.38-3.35c.45-.47.92-.92,1.43-1.44v-9.71a20.57,20.57,0,0,1-1.6-1.63,17.18,17.18,0,0,1-1.11-1.77c-.64-3.56.81-5.94,4.22-7.42.45,0,1.16,0,1.87,0a4.35,4.35,0,0,1,3.05,1.23,12,12,0,0,0,1.15,1.11,2.34,2.34,0,0,1,.95,1.91c.1,1.18.38,2.44-.28,3.6-.07.13,0,.35,0,.59l-2.48,2.42v9.64l2.36,2.36a7.67,7.67,0,0,1,.08,5.36,10.25,10.25,0,0,1-1.07,1.54,6.78,6.78,0,0,1-1.36.92v9.69l2.38,2.36a8,8,0,0,1,.11,5.06,6.49,6.49,0,0,1-3.19,3.18A7.39,7.39,0,0,1,122.94,213.41Zm1.2-43.85c1.26.47,1.26.47,2.56-.08a2.13,2.13,0,0,0,0-2.65,2,2,0,0,0-2.69.09C123.36,167.77,123.57,168.61,124.14,169.56Zm2.52,17.13a2.32,2.32,0,0,0-2.55.08,2.12,2.12,0,0,0,0,2.65,2,2,0,0,0,2.69-.1C127.45,188.47,127.22,187.64,126.66,186.69Zm-2.52,22.77c1.26.47,1.26.47,2.56-.08a2.13,2.13,0,0,0,0-2.65,2,2,0,0,0-2.69.09C123.36,207.67,123.57,208.51,124.14,209.46Z"/><path class="cls-2" d="M56.52,105.39,54,107.88c-4.25,1.16-6.29.17-8.43-3.7,0-.66,0-1.37,0-2.08a4.19,4.19,0,0,1,1.25-3c.5-.58,1.1-1.08,1.6-1.57V90.58c-2.16-1.64-3.46-3.7-2.75-6.4l-2.93-2.93V70.76c-2.94-3-3-3.09-2.84-6.83,2.19-3.83,3.68-4.37,6.87-4.09,2,.62,3,1.94,4.05,2.94a7.73,7.73,0,0,1,0,5.32l-2.44,2.45v8l1.44,1.23c.49,0,1.2,0,1.91,0a4.26,4.26,0,0,1,3,1.25c.41.34.7.86,1.15,1.1.76.39.44,1.3,1,1.74A10.6,10.6,0,0,1,56.63,88a2.18,2.18,0,0,1-.5.68c-.67.66-1.36,1.31-2,1.9v6.87l2.35,2.35A7.8,7.8,0,0,1,56.52,105.39Zm-6.62-1.6a2,2,0,0,0,2.64.18,2.11,2.11,0,0,0,.12-2.67,2.13,2.13,0,0,0-2.55-.13A2,2,0,0,0,49.9,103.79Zm2.6-16.9A1.83,1.83,0,1,0,50,84.17a1.83,1.83,0,0,0-.2,2.41A2,2,0,0,0,52.5,86.89ZM46.87,67a1.87,1.87,0,0,0-2.47-2.81,2.12,2.12,0,0,0-.08,2.79A2.4,2.4,0,0,0,46.87,67Z"/><path class="cls-2" d="M236.19,188.26c.85,4.69.5,5.13-2.51,7.88a9.39,9.39,0,0,1-4.09.51c-1.85-.53-2.77-1.76-3.88-2.82h-6.9a6.45,6.45,0,0,1-.85,1.25,8.13,8.13,0,0,1-1.35.9v6.9L219,205.2a15.79,15.79,0,0,1,.45,1.81c.06.52,0,1.07,0,1.6a4.34,4.34,0,0,1-1.72,3.67c-2,1.79-3.48,1.82-6.33,1.12-.11,0-.29,0-.34,0-.74-.9-1.77-1.5-2.34-2.58a4.2,4.2,0,0,1-.69-2.4,15,15,0,0,0,0-1.63c.51-1.81,1.74-2.72,2.81-3.84v-6.84c-.94-1-2.26-1.94-2.87-4.27-.5-2.72,1-5.08,4.36-6.56.47,0,1.17,0,1.88,0a4.27,4.27,0,0,1,3,1.23c.59.5,1.1,1.09,1.65,1.63h6.86c1.6-2.29,3.82-3.37,6.21-2.86C234.09,185.84,235,187.19,236.19,188.26Zm-20.87,3.66a1.83,1.83,0,0,0,0-2,1.86,1.86,0,1,0-2.89,2.33A2.11,2.11,0,0,0,215.32,191.92Zm14.26-2.38a2.07,2.07,0,0,0-.18,2.55,2.14,2.14,0,0,0,2.87.11c.46-1.26.46-1.26-.14-2.64A2.4,2.4,0,0,0,229.58,189.54Zm-17.22,17.3a1.85,1.85,0,1,0,2.75,0A2.07,2.07,0,0,0,212.36,206.84Z"/><path class="cls-2" d="M150.54,245.1c-.71.53-1.12,1.34-1.85,1.88a4.1,4.1,0,0,1-2.63,1c-1.14,0-2.28-.15-3.05-.21-2.65-1.91-4-4.09-3.23-7.21,1.34-3,3.67-4.55,6.94-3.94,1.74.5,2.66,1.73,3.77,2.79h21.07c1.1-1.05,2-2.28,3.5-2.82.71,0,1.42,0,2.12,0a4.22,4.22,0,0,1,3,1.24c.63.54,1.18,1.16,1.76,1.75a8.21,8.21,0,0,1,0,5.25c-.45.64-.73,1.46-1.26,1.68s-.89.91-1.49,1.1a7.94,7.94,0,0,1-5.33-.06l-2.35-2.4Zm-6.39-4.24a2,2,0,0,0-.17,2.65,2,2,0,0,0,2.63.06,1.79,1.79,0,0,0,.18-2.41A2,2,0,0,0,144.15,240.86Zm31.12,2.56a2.07,2.07,0,0,0,2.69.2,2.16,2.16,0,0,0,.06-2.73c-1.37-.54-1.37-.54-2.75.15A2.22,2.22,0,0,0,175.27,243.42Z"/><path class="cls-2" d="M151.67,96.9a6.2,6.2,0,0,1,6.93-2.68,19.86,19.86,0,0,1,1.76,1.15c.65.5,1.22,1.12,1.56,1.43a7.94,7.94,0,0,1,.11,5.57L159.38,105a6.06,6.06,0,0,1-7.7-2.42H130.49L128,105.21l-3.9.32c-2.46-1.27-4.34-2.7-4.38-5.69s1.76-4.51,4.2-5.79c.53,0,1.18,0,1.82,0a4.43,4.43,0,0,1,3.49,1.48c.47.45.92.92,1.39,1.38Zm3.89,1.45a2,2,0,0,0-.18,2.64,2.11,2.11,0,0,0,2.67.12,2.13,2.13,0,0,0,.13-2.55A2,2,0,0,0,155.56,98.35ZM124,100.94a2,2,0,0,0,2.64.18,2.11,2.11,0,0,0,.12-2.67,2.13,2.13,0,0,0-2.55-.13A2,2,0,0,0,124,100.94Z"/><path class="cls-2" d="M245.09,218.1v10.41l2.48,2.42c.85,3.69.37,5-.43,5.83-2,2.17-1.86,2.86-6.33,2.64-3.32-1.46-4.83-3.81-4.28-6.78.55-2,1.79-3,2.84-4.06v-7.74l-7-7h-2.92C227,212.54,225,211,225.13,208c.09-2.46,1-3.84,4.15-5.61.62,0,1.33,0,2,0a4.35,4.35,0,0,1,3.05,1.23c.37.3.66.68,1,1a3.56,3.56,0,0,1,1.15,2.73c0,.77,0,1.54,0,2.27Zm-15.42-11.46a2,2,0,0,0-.2,2.65,2.11,2.11,0,0,0,2.67.12,2.18,2.18,0,0,0,0-2.7A2.09,2.09,0,0,0,229.67,206.64ZM241,232.32a2.09,2.09,0,0,0-.08,2.76c1.28.5,1.28.5,2.62-.05a2,2,0,0,0-.1-2.68A2,2,0,0,0,241,232.32Z"/><path class="cls-2" d="M229.4,105.45c-3.27-1.46-4.83-3.78-4.17-7.33,1.39-3.1,3.72-4.66,7.16-4L236.52,90V87.8c-1-1.07-2.29-2-2.82-3.89,0-.36,0-1.07,0-1.78a4.14,4.14,0,0,1,1.26-3A6.72,6.72,0,0,1,237.8,77h2.91c1.9.56,2.86,1.92,4,3,.88,4.83.44,5.06-2.49,7.92v4.58l-5.68,5.68c-.1,1.43.3,2.91-.38,4.29L233.67,105C232.26,105.67,230.73,105.4,229.4,105.45Zm2.64-4.3a2,2,0,0,0,.18-2.64,2.11,2.11,0,0,0-2.67-.12,2.13,2.13,0,0,0-.13,2.55A2,2,0,0,0,232,101.15Zm6-17.3a2,2,0,0,0,2.66.16,2,2,0,0,0,.05-2.62,1.81,1.81,0,0,0-2.41-.19A2,2,0,0,0,238,83.85Z"/><path class="cls-2" d="M134.49,62.7H124.8l-2.53,2.61-3.85.32c-3.32-1.48-5-3.72-4.3-7.48a7,7,0,0,1,4.26-4c.31,0,1,0,1.6,0a4.42,4.42,0,0,1,3.49,1.47c.47.45.93.92,1.39,1.39h9.71a6.2,6.2,0,0,1,6.94-2.67,15.36,15.36,0,0,1,1.74,1.14,17.62,17.62,0,0,1,1.62,1.59,7.76,7.76,0,0,1,.07,5.39l-2.72,2.71C138.18,66.13,137.2,65.61,134.49,62.7ZM141,58.58a2.1,2.1,0,0,0-2.7,0c-.51,1.29-.51,1.29-.05,2.43a1.91,1.91,0,0,0,2.6.28A2,2,0,0,0,141,58.58Zm-19.89,2.61a2.41,2.41,0,0,0-.06-2.63,2.14,2.14,0,0,0-2.69,0c-.54,1.37-.54,1.37.15,2.74C119.7,61.74,119.7,61.74,121.09,61.19Z"/><path class="cls-2" d="M122.55,143v-3.92c-3.15-3-2.94-3.35-2.83-6.64,1.46-3.29,3.8-4.8,6.81-4.24,2.11.6,3.06,1.95,4.21,3,.85,4.68.47,5.08-2.46,7.83v4c.51.51,1.06,1.12,1.68,1.67a3.57,3.57,0,0,1,1.13,2.73,5.68,5.68,0,0,1-.66,3.46c-1.16,1.83-2.51,3.09-4.8,3a6.65,6.65,0,0,1-2.92-.31c-.57-.59-1.19-1.15-1.71-1.79s-.85-1.3-1.3-2c0-.68,0-1.39,0-2.09a4.27,4.27,0,0,1,1.23-3C121.42,144.09,122,143.58,122.55,143Zm1.35-10.15a2,2,0,0,0,.29,2.49c1.23.47,1.23.47,2.46-.1a2,2,0,0,0,.09-2.63A2.09,2.09,0,0,0,123.9,132.89Zm.1,16.6a2.1,2.1,0,0,0,2.42.26,2.06,2.06,0,0,0,.37-2.75,2.1,2.1,0,0,0-2.77-.09A2.41,2.41,0,0,0,124,149.49Z"/><path class="cls-2" d="M208.17,75.67c-.68-3.53.88-5.8,4.16-7.27.35,0,.94,0,1.52,0A4.56,4.56,0,0,1,217.64,70L219,71.3a7.65,7.65,0,0,1,.1,5.35A10.74,10.74,0,0,1,218,78.21a7.87,7.87,0,0,1-1.36.91v4L219,85.43A8.68,8.68,0,0,1,219,91.1l-2.45,2.45c-1.41.71-2.93.45-4.27.5a7.08,7.08,0,0,1-4.25-4.51V87c.5-1.78,1.73-2.69,2.81-3.82v-4C209.85,78.15,208.57,77.28,208.17,75.67ZM212.38,87c-.51,1.35-.51,1.35.07,2.73,1.29.51,1.29.51,2.64,0a2.17,2.17,0,0,0-.1-2.75C213.74,86.47,213.74,86.47,212.38,87Zm0-11.69a1.83,1.83,0,1,0,2.72-2.46,1.83,1.83,0,0,0-2.41-.2A2,2,0,0,0,212.36,75.3Z"/><path class="cls-2" d="M165.3,132.5c1.46-3.26,3.78-4.83,7.2-4.19,1.71.52,2.68,1.86,3.76,2.88a8.51,8.51,0,0,1,.29,4.51,11,11,0,0,1-1.28,2.31,7.23,7.23,0,0,1-1.77,1.25,5.86,5.86,0,0,1-8.2-3.95Zm4.41.05a2.1,2.1,0,0,0-.26,2.42,2.06,2.06,0,0,0,2.75.37,2.1,2.1,0,0,0,.09-2.77A2.41,2.41,0,0,0,169.71,132.55Z"/><path class="cls-2" d="M153.9,220.7c1.66-2.67,1.35-2.41,4.11-4.1h2.89c1.85.54,2.8,1.82,3.91,2.89.65,2.74.66,3.23.13,4.81a6,6,0,0,1-3.16,3.36,7.78,7.78,0,0,1-4.91-.07c-1-1.14-2.47-2-3-3.69Zm7.2,2.66a1.86,1.86,0,0,0,0-2.2,2,2,0,0,0-2.65-.26,1.84,1.84,0,1,0,2.7,2.46Z"/><path class="cls-2" d="M250.94,224.12c-.71-3.8.88-6.05,4.15-7.52.47,0,1.18,0,1.88,0a4.31,4.31,0,0,1,3,1.23c.41.34.74.77,1.14,1.12a3.12,3.12,0,0,1,1,2.42,29.07,29.07,0,0,1-.18,3.23c-.6.86-.88,1.69-1.41,1.91s-.9.9-1.48,1.14C255.1,228.62,253,227.93,250.94,224.12Zm7.13-.85a1.83,1.83,0,0,0,0-2,1.86,1.86,0,1,0-2.89,2.33A2.11,2.11,0,0,0,258.07,223.27Z"/><path class="cls-2" d="M215.19,131.1c.48,0,1.19,0,1.9,0a4.3,4.3,0,0,1,3,1.24c.41.34.73.78,1.14,1.12a3,3,0,0,1,1,2.25,6.52,6.52,0,0,1-.32,3.41.25.25,0,0,0,0,.2c-.46.65-.74,1.49-1.27,1.7s-.88.92-1.71,1.19c-3.75.94-5.87.19-8-3.64C210.33,134.93,211.83,132.58,215.19,131.1Zm.21,4.31a2,2,0,0,0-.16,2.66,2.13,2.13,0,0,0,2.68.07,2,2,0,0,0-.1-2.69A1.94,1.94,0,0,0,215.4,135.41Z"/><path class="cls-2" d="M36.58,148.26a7.94,7.94,0,0,1,0,5.54L34,156.3c-3.26,1.25-5.88.24-8-2.72-1.14-4.11,0-6.16,3.77-8.23.57,0,1.22,0,1.86,0a4.41,4.41,0,0,1,3.48,1.47C35.63,147.3,36.13,147.81,36.58,148.26Zm-6.29,4.29a1.86,1.86,0,0,0,2.2-.05,2,2,0,0,0,.26-2.65,2.08,2.08,0,0,0-2.7-.14A2.09,2.09,0,0,0,30.29,152.55Z"/><path class="cls-2" d="M208.19,104.41c-.7-3.78.86-6,4.15-7.51.41,0,1,0,1.7,0a4.41,4.41,0,0,1,3.48,1.47c.51.49,1,1,1.48,1.48a7.17,7.17,0,0,1,.46,2.7c-.14.9-.21,1.8-.28,2.44-.54.77-.82,1.58-1.35,1.81s-.9.89-1.48,1.15C212.28,108.94,210.24,108.16,208.19,104.41Zm4.38-3.22a1.85,1.85,0,0,0,2.12,3,2.11,2.11,0,0,0,.4-2.93A2.09,2.09,0,0,0,212.57,101.19Z"/><path class="cls-2" d="M190.4,105.46c-.7.71-1.58,1.59-2.36,2.36-1.49.68-3,.44-4.38.49-2.7-1.68-2.43-1.38-4.11-4.11V101c1.67-2.69,1.37-2.42,4.1-4.1h2.9c1.84.54,2.79,1.82,3.93,2.91A7.52,7.52,0,0,1,190.4,105.46Zm-3.76-4.06a2,2,0,0,0-2.65-.17,2,2,0,0,0-.06,2.63,1.79,1.79,0,0,0,2.41.18A2,2,0,0,0,186.64,101.4Z"/><path class="cls-2" d="M25.8,127.25c-.73-3.85.9-6.08,4.13-7.55.49,0,1.2,0,1.9,0a4.21,4.21,0,0,1,3,1.23c.63.54,1.18,1.17,1.75,1.73a8.15,8.15,0,0,1,0,5.51L34,130.71C29.88,131.78,27.87,131,25.8,127.25Zm4.17-.64a2,2,0,0,0,2.66.15,2.15,2.15,0,0,0,.06-2.68,2,2,0,0,0-2.69.09A2,2,0,0,0,30,126.61Z"/><path class="cls-2" d="M201.23,97.06c1.47.41,2.4,1.71,3.49,2.74a7.83,7.83,0,0,1,0,5.6L202.09,108l-3.85.37c-3.32-1.5-5-3.71-4.31-7.54C195.22,98.05,197.4,96.27,201.23,97.06Zm-3.13,6.83a2.1,2.1,0,0,0,2.42.26,2.06,2.06,0,0,0,.37-2.75,2.1,2.1,0,0,0-2.77-.09A2.41,2.41,0,0,0,198.1,103.89Z"/><path class="cls-2" d="M11.4,272.33l1.24,1.27h5.09a6.14,6.14,0,0,1,6.91-2.68,13.08,13.08,0,0,1,1.65,1,23.22,23.22,0,0,1,1.73,1.7A7.65,7.65,0,0,1,28.1,279a12.31,12.31,0,0,1-1.19,1.68,10.22,10.22,0,0,1-1.56,1.08,7.6,7.6,0,0,1-5.13,0l-2.42-2.43H10.26c-1.5-1.5-3-3-4.54-4.54V261.69c-1.09-1.13-2.33-2.05-2.89-4.09-.55-3,.95-5.32,4.15-6.73,3.46-.65,5.8.88,7.26,4.17.12,4.12,0,3.92-2.84,6.63ZM7.24,257.66c1,1.08,1.85.58,2.56.16A2,2,0,0,0,10,255.3a2.08,2.08,0,0,0-2.7-.14C6.72,256.05,6.51,256.88,7.24,257.66Zm14.37,17.39a2,2,0,0,0-.18,2.64,2.11,2.11,0,0,0,2.67.12,2.19,2.19,0,0,0,0-2.7A2.1,2.1,0,0,0,21.61,275.05Z"/><path class="cls-2" d="M6,236.18c-2.32-1.77-3.73-3.84-2.91-7.25,1.19-2.66,3.42-4.37,6.31-3.83,2.28.5,3.2,1.81,4.34,2.89H32a6.18,6.18,0,0,1,6.92-2.69c3.65,2,4.58,4.06,3.43,8.28l-2.49,2.5a7.78,7.78,0,0,1-5.38.06L32,233.71H13.72L11.45,236C8.5,236.71,8.82,236.79,6,236.18Zm4-4.07c.47-1.26.47-1.26-.08-2.56a2.1,2.1,0,0,0-2.25-.33c-1.18,1.26-.93,2.16-.54,2.72A2.1,2.1,0,0,0,10,232.11ZM35.64,232a2,2,0,0,0,2.65.2,2.11,2.11,0,0,0,.12-2.67,2.18,2.18,0,0,0-2.7,0A2.09,2.09,0,0,0,35.64,232Z"/></g></g></g></svg>