<svg xmlns="http://www.w3.org/2000/svg" xmlns:xlink="http://www.w3.org/1999/xlink" width="3652.589" height="1702.422" viewBox="0 0 3652.589 1702.422">
  <defs>
    <linearGradient id="linear-gradient" y1="0.5" x2="1" y2="0.5" gradientUnits="objectBoundingBox">
      <stop offset="0" stop-color="#7474ec" stop-opacity="0.553"/>
      <stop offset="0.059" stop-color="#7b81ee" stop-opacity="0.494"/>
      <stop offset="0.249" stop-color="#8da6f4" stop-opacity="0.553"/>
      <stop offset="0.44" stop-color="#9cc2f9" stop-opacity="0.345"/>
      <stop offset="0.629" stop-color="#a7d7fc" stop-opacity="0.078"/>
      <stop offset="0.817" stop-color="#ade3fe" stop-opacity="0.435"/>
      <stop offset="1" stop-color="#afe7ff" stop-opacity="0.467"/>
    </linearGradient>
    <linearGradient id="linear-gradient-3" x1="0.5" x2="0.5" y2="1" gradientUnits="objectBoundingBox">
      <stop offset="0" stop-color="#7474ec" stop-opacity="0.059"/>
      <stop offset="0.182" stop-color="#a1a1e6" stop-opacity="0.063"/>
      <stop offset="0.384" stop-color="#9d9dde" stop-opacity="0.102"/>
      <stop offset="1" stop-color="#afe7ff" stop-opacity="0.161"/>
    </linearGradient>
  </defs>
  <g id="clouds" transform="translate(-325.76 -1166.219)">
    <path id="Path_285" data-name="Path 285" d="M2488,1360.5" transform="translate(35 -15)" fill="url(#linear-gradient)"/>
    <path id="Path_287" data-name="Path 287" d="M3510.87,1181.37c.28-1.61-3.08-1.49-2.69.1" transform="translate(35 -14)" fill="url(#linear-gradient)"/>
    <g id="_1295100" data-name="1295100" transform="translate(325.629 2341.142)">
      <path id="Path_430" data-name="Path 430" d="M1146.192-854.3c-2.679.1-11.843.8-20.443,1.3-123.084,8.3-243.912,71.1-318.777,165.4-5.922,7.6-14.945,20.1-19.88,27.9s-9.728,14.1-10.715,14.1c-.846-.1-12.266-3.2-25.237-6.8-42.156-11.8-66.688-14.8-103.768-12.8-60.2,3.3-113.638,16.3-164.535,40-45.117,20.9-86.85,51.3-115.611,84.2-13.253,15.2-28.339,38.3-36.657,56.4-4.23,9.1-7.754,17.2-7.754,18.1,0,1.9-1.128,1.9-17.765-.6-48.782-7.2-116.6.7-166.509,19.6-39.759,15-74.443,38-97.424,64.7C-2.733-332-12.038-264,16.3-204,43.653-146.3,104.138-99.8,179.99-78.1c36.093,10.4,59.5,13.5,99.116,13.5,26.083,0,30.595-.2,46.95-2.7a554.06,554.06,0,0,0,73.033-16.8l16.778-5.1,12.266,8A450.911,450.911,0,0,0,566.442-21.9C599.857-13.8,628.478-9.8,666.686-8c83.043,4,165.1-12.3,245.181-48.7l11.7-5.3,13.676,8.6c42.72,26.8,96.3,44.2,157.485,51.1C1116.3.1,1164.1.1,1182.849-2.3c66.406-8.6,122.943-31.1,174.4-69,14.8-11,35.529-29.4,44.694-39.8l4.089-4.6,24.109,8.2c43.284,14.8,64.15,19.4,91.361,20.2,81.21,2.4,161.856-27.7,214.727-80.2,63.163-62.7,84.594-154.7,55.55-238-29.749-85.4-109.831-149.1-210.638-167.5-9.023-1.7-17.906-3-19.739-3s-3.666-.4-4.089-.9c-.564-.5-2.115-6-3.666-12.3C1522.493-716.1,1400.819-818.1,1247-846.5,1210.765-853.2,1172.7-856.1,1146.192-854.3Z" transform="translate(0)" fill="url(#linear-gradient-3)"/>
    </g>
    <g id="_1295100-2" data-name="1295100" transform="translate(2357.877 2528.709)">
      <path id="Path_430-2" data-name="Path 430" d="M1029.286-854.091c-2.406.14-10.635,1.119-18.358,1.818C900.4-840.666,791.9-752.841,724.668-620.965c-5.318,10.629-13.42,28.109-17.852,39.018s-8.736,19.719-9.622,19.719c-.76-.14-11.015-4.475-22.663-9.51-37.856-16.5-59.885-20.7-93.183-17.9C527.286-585.024,479.3-566.844,433.6-533.7c-40.514,29.228-77.99,71.742-103.818,117.752-11.9,21.257-25.448,53.562-32.918,78.874-3.8,12.726-6.963,24.054-6.963,25.313,0,2.657-1.013,2.657-15.953-.839-43.806-10.069-104.7.979-149.524,27.41-35.7,20.977-66.849,53.142-87.486,90.482C-2.44-123.665-10.8-28.568,14.652,55.341c24.562,80.692,78.877,145.722,146.992,176.069,32.412,14.544,53.428,18.879,89.005,18.879,23.422,0,27.474-.28,42.16-3.776,19.624-4.615,45.452-13.845,65.583-23.494l15.066-7.132,11.015,11.188c38.236,38.318,79.383,65.868,124.2,82.93,30.006,11.328,55.707,16.922,90.018,19.439,74.572,5.594,148.258-17.2,220.171-68.106l10.508-7.412,12.281,12.027c38.362,37.479,86.473,61.813,141.421,71.462,19.371,3.356,62.291,3.356,79.13,0,59.632-12.027,110.4-43.493,156.614-96.5,13.294-15.383,31.905-41.115,40.135-55.66l3.672-6.433,21.65,11.468c38.868,20.7,57.606,27.131,82.042,28.249,72.926,3.356,145.345-38.738,192.823-112.158,56.72-87.685,75.965-216.345,49.883-332.838-26.714-119.43-98.627-208.513-189.152-234.245-8.1-2.377-16.079-4.2-17.725-4.2s-3.292-.559-3.672-1.259c-.506-.7-1.9-8.391-3.292-17.2-27.98-177.467-137.243-320.112-275.372-359.829C1087.272-852.553,1053.088-856.609,1029.286-854.091Z" transform="translate(0 0)" fill="url(#linear-gradient-3)"/>
    </g>
  </g>
</svg>
