<?xml version="1.0" encoding="utf-8"?>
<!-- Generator: Adobe Illustrator 25.4.1, SVG Export Plug-In . SVG Version: 6.00 Build 0)  -->
<svg version="1.1" id="Layer_3" xmlns="http://www.w3.org/2000/svg" xmlns:xlink="http://www.w3.org/1999/xlink" x="0px" y="0px"
	 viewBox="0 0 1735 4000" style="enable-background:new 0 0 1735 4000;" xml:space="preserve">
<style type="text/css">
	.st0{clip-path:url(#SVGID_00000005947079219143699880000004968269251939829644_);}
	.st1{fill:none;stroke:#FFEAE1;stroke-width:5;stroke-linecap:round;stroke-miterlimit:10;}
</style>
<g>
	<defs>
		<rect id="SVGID_1_" x="2.5" y="4.5" width="1738" height="3989"/>
	</defs>
	<clipPath id="SVGID_00000028325986827627950780000017743063108195437478_">
		<use xlink:href="#SVGID_1_"  style="overflow:visible;"/>
	</clipPath>
	<g style="clip-path:url(#SVGID_00000028325986827627950780000017743063108195437478_);">
		<g id="lines_1">
			<path class="st1" d="M-14.6,1904.7c-29.2,117.6,2.2,242.5,53.4,352.3s121.5,209.6,176.2,317.7s94.2,229.4,76.7,349.3
				c-25.3,172.8-170.8,313.2-338.2,363c-67.7,20.1-147.3,25.4-203.2-17.8"/>
			<path class="st1" d="M1.7,2360.9c43.2,144.1,181.8,244.8,222.8,389.5c22.5,79.6,12.5,166.5-20,242.5S118,3134.5,54.9,3187.9
				c-43.4,36.7-102,69.4-154.6,47.9"/>
			<path class="st1" d="M-31.5,2626.3c58.4,56,100.1,130.4,112.1,210.5s-7.3,165.3-56.8,229.4c-33.5,43.4-85.5,77.8-139.9,71.8"/>
			<path class="st1" d="M1853.3,3186.4c-73.2,49.6-131.1,118.6-167.3,199.3c-29.3,65.4-43.3,140.3-23.8,209.2
				c27.1,95.4,111.4,161.6,190.9,221"/>
			<path class="st1" d="M1800.1,3286.1c-36,39.9-66.4,85.8-82.3,137.1s-16.4,108.5,5,157.8s66.3,89.3,119.2,98.7"/>
			<path class="st1" d="M1833.5,3102.8c-36.7,24.9-77.9,42.3-118.2,60.7c-48.6,22.2-96.9,46.4-137.5,81s-73.4,80.8-82.9,133.3
				c-11.6,64.4,13,130.6,49.3,184.9s84.1,100,126.4,149.9s80.2,106.7,90.8,171.2c2.8,17.4,3.7,35,2.4,52.6"/>
		</g>
		<g id="lines_2">
			<path class="st1" d="M1853.7,19.2c4.6,32-13.9,62.5-33.8,88c-102.5,131.7-262.5,218.9-333.1,370.1
				c-16.7,35.7-27.6,77.8-12.3,114.1c9,21.3,26,38.2,43.9,53c104.2,85.8,248.9,118.2,337.9,219.7c52.3,59.5,80.1,139.9,75.8,219.1
				s-40.6,156-99,209.6c-87.8,80.6-213.7,103.5-314.3,167.4c-96.8,61.4-168.3,162.8-190.2,275.4c-31.4,161.2,58.2,291.5,80,323.3
				c143.1,209.9,401.4,224.2,435.7,225.6"/>
			<path class="st1" d="M1860,194.1c-54.7,78.2-156.5,107-227.5,170.7c-30.8,27.7-56,62.9-66.7,103s-5.5,85.2,18.7,118.9
				c27.7,38.6,76.3,57.6,123.7,60.5s94.3-8.2,140.5-19.2"/>
			<path class="st1" d="M1877.8,1331c-45.5,45-109.5,64.7-164.9,96.7c-85.4,49.2-151.5,130.2-184.8,222.9s-33.8,196.6-3.6,290.3
				c11.3,35.2,33.5,90,88.1,137.3c75.9,65.7,164.8,70.8,194.8,71.2"/>
			<path class="st1" d="M1808.5,1456.5c-12.3-2.9-25.1,1.7-36.6,6.9c-107.5,48.1-182.5,158.2-195.6,275.3
				c-1,8.9-22.8,194.9,115.9,321.6c56.2,51.3,116.7,72.8,152.2,82.2"/>
			<path class="st1" d="M-172.7,1413.6c-6.6-52.4,33.5-98.5,74.3-131.9c116.6-95.4,266.7-157.1,347-284.5
				c10.6-16.9,19.9-38.7,9.8-55.9c-7.7-13.1-23.6-18.2-37.6-24.1c-73-31-118-116.9-102-194.6c12.7-61.8,57.6-111.9,79-171.2
				c16.4-45.4,18.1-96.9-0.1-141.7c-19.1-47-59.4-84-106.2-103.8s-99.6-23-149.6-14.2"/>
			<path class="st1" d="M-125.1,445.2c29.6-9.1,60.6-15.9,91.5-13.4s62,15.5,81.1,39.9c25,31.9,25.4,76.3,20.9,116.6
				c-8.4,75.3-29.7,149-33.3,224.7c-1.7,35.7,1.5,74.3,24.2,101.9c28.9,35.2,85.4,48,97.8,91.8c8.9,31.6-10.7,64.1-33.1,88.1
				c-58,62.1-141.9,99.1-226.8,100.2"/>
			<path class="st1" d="M1808.8,290.4c-2.7-6.2-11.7-5.5-18.2-3.4c-85.9,27.9-139.3,113.5-126.7,202.9c3.9,27.6,14.5,54.9,33.8,74.9
				s48.1,32,75.5,27.1"/>
			<path class="st1" d="M-154.4,205.8c92.4-15.2,187.2-24.6,279.7-10.1S309,250.7,370.2,321.6c28,32.4,49.7,72.4,50.9,115.2
				c1.6,58.3-34.6,111.1-76.8,151.4s-91.7,73-129.3,117.6c-14.4,17.1-27.6,39.4-20.7,60.6c7.5,23.3,34.6,33,58.4,38.7
				c54.7,13.1,110.8,21.9,163,42.8S517.3,904,541,955c31.9,68.8,7.9,156.6-49.5,206.3c-127.8,110.9-352,31.3-476.3,146.1
				c-50.7,46.8-72.9,118.4-72.7,187.4s20.8,136.2,44.7,200.9"/>
		</g>
	</g>
</g>
</svg>
