<svg xmlns="http://www.w3.org/2000/svg" viewBox="0 0 1400 1600"><defs><style>.cls-1,.cls-10,.cls-7{fill:#2b5a6d;}.cls-2{fill:#c34e4c;}.cls-15,.cls-16,.cls-3{fill:#fbaa82;}.cls-13,.cls-14,.cls-3{stroke:#c34e4c;}.cls-12,.cls-14,.cls-3,.cls-7,.cls-9{stroke-linecap:round;}.cls-11,.cls-12,.cls-14,.cls-3,.cls-7,.cls-8,.cls-9{stroke-linejoin:round;}.cls-3{stroke-width:10px;}.cls-4{fill:#ffeae1;}.cls-13,.cls-14,.cls-5{fill:#fff;}.cls-12,.cls-6{fill:#a6e8e2;}.cls-10,.cls-11,.cls-12,.cls-7,.cls-8,.cls-9{stroke:#2b5a6d;}.cls-10,.cls-11,.cls-12,.cls-13,.cls-14,.cls-7,.cls-8,.cls-9{stroke-width:5px;}.cls-8{fill:#4d6c7f;}.cls-9{fill:#699;}.cls-10,.cls-13,.cls-16{stroke-miterlimit:10;}.cls-11{fill:#8cc0bd;}.cls-16{stroke:#fbaa82;}</style></defs><g id="base"><path class="cls-1" d="M627.62,1521a339.06,339.06,0,0,1-186.89-56.11c-45-29.76-67.93-60.77-69-67.53a81.6,81.6,0,0,1-.84-15.09,85.61,85.61,0,0,1,8.4-30c3.53-7,25.75-33.8,66.13-58.88,36.29-22.53,97.19-49.38,181.22-49.38H628c85.59.31,147.46,28.22,184.3,51.59,41.38,26.25,63.3,53.8,66.19,60.34a97.44,97.44,0,0,1,7.16,26.83,87.75,87.75,0,0,1-.4,15.63c-.89,6.92-22.94,37.14-69.75,67.43A344,344,0,0,1,628.31,1521Z"/><path class="cls-2" d="M626.6,1249H628a359.19,359.19,0,0,1,105.53,15.75,319.23,319.23,0,0,1,76.08,35,273.7,273.7,0,0,1,47,37.3C867.52,1348,873.08,1356,874,1358a92.18,92.18,0,0,1,6.74,25.2,82.35,82.35,0,0,1-.36,14.5c-.44,1.88-4.65,10.13-18.11,24-9.61,10-26.26,25.12-50.94,40.9a339.14,339.14,0,0,1-183,53.39h-.68A334.25,334.25,0,0,1,445,1461.68c-46.56-30.43-66.95-59.89-68.34-65.21a76.46,76.46,0,0,1-.77-13.92,80.71,80.71,0,0,1,7.87-28c2-3.85,22.11-30.69,64.31-56.89a316.08,316.08,0,0,1,74.9-33.73A356.86,356.86,0,0,1,626.6,1249m0-10c-161.8,0-244.55,96.7-251.81,111a89.71,89.71,0,0,0-8.93,32,85.12,85.12,0,0,0,.89,16.17c3.11,18.92,99.87,127.52,260.86,127.83h.7c159.85,0,259.37-107,261.94-127a92.25,92.25,0,0,0,.42-16.72,101.81,101.81,0,0,0-7.57-28.39c-6.26-14.16-90.27-114.32-255-114.91Z"/><ellipse class="cls-1" cx="628.33" cy="1276" rx="216.1" ry="130"/><path class="cls-2" d="M628.33,1151c57.25,0,110.92,13.52,151.13,38.08,38.67,23.61,60,54.48,60,86.92s-21.3,63.31-60,86.92c-40.21,24.56-93.88,38.08-151.13,38.08s-110.92-13.52-151.13-38.08c-38.67-23.61-60-54.48-60-86.92s21.3-63.31,60-86.92c40.21-24.56,93.88-38.08,151.13-38.08m0-10c-122.11,0-221.1,60.44-221.1,135s99,135,221.1,135,221.1-60.44,221.1-135-99-135-221.1-135Z"/></g><g id="flame"><path class="cls-3" d="M932,1193.6a559.52,559.52,0,0,1-122.22,87.16c-37.51,19.74-77.54,35.27-119.32,42.37-115.07,19.53-233.5-27.3-324.84-100-76.41-60.8-139.21-142.07-164.61-236.36s-9.51-201.94,53.37-276.65c26.31-31.25,60.09-56.48,81.18-91.47s25-86-6.28-112.31c-9.8-8.26-.95-27.85,6.67-38.15,9.32-12.62,24.1-20.81,39.62-23s31.66,1.33,45.34,9c26.64,14.93,43.31,46,41,76.48-1.28.88-2,2.62-.83,1.57,11-10.06,28.58-6.57,42.12-.34,5.71,2.63,11.41,5.77,15.27,10.72S524,554.72,521,560.22c12.08-48.23,46-94.34,94.61-105,23.79-5.21,48.54-1.45,72.58,2.48s48.67,8,72.61,3.5,47.45-19.67,54.79-42.9c6.91-21.89-1.54-45.24-6.12-67.74-8.65-42.47-.7-91.95,33.15-119,30.14-24.11,71-16,77.93-14.59,12.38,2.42,31.76,6.2,42.49,23,6.2,9.72,7,19.93,7,26a35.45,35.45,0,0,1-2.3,11c-2.69,7-7.49,12.55-19,21.07-18.6,13.71-22,11.2-27.07,18.49-6.38,9.1-8,22.1-1.74,31.27,5.83,8.51,16.56,11.81,26.09,15.78,19.73,8.23,37.66,22.2,47.32,41.27s9.87,43.49-2.38,61c15.85-15.59,36.21-16.14,57.78-10.75a66.53,66.53,0,0,1,46.44,43.79c5.29,16.87,3.49,35.35-2.1,52.12-11.15,33.49-40,62.62-75.16,66.22,8.61,19.31,10.15,45.58,6.91,66.47s-7.68,42.2-3.67,63,19.1,41.15,40.1,43.63c28.76,3.4,49.72-25.57,75.38-39,30.29-15.84,71.2-7.44,92.8,19.06s21.58,68.25,0,94.73c-14.62,17.9-37,28.18-59.67,32.43s-46.07,3-69.13,1.46c-8.72-.59-18.25-1-25.31,4.14-12.24,8.93-9.34,27.67-4.89,42.15,7.78,25.24,13,42.93,19.12,68.63s5.48,56-13.27,74.6c-10.17,10.09-24.3,15.22-38.35,18-18.16,3.59-38.53,3.27-53.3-7.89,11.42,19.55,22.24,37.21,22.63,59.85.16,8.89-1.5,18.16-6.84,25.28-9.17,12.23-26.38,14.92-41.66,14.28C949,1197.66,939.3,1200,932,1193.6Z"/><path class="cls-4" d="M914.21,1179.09c8.81,1.41,17.74,2.83,26.61,1.9s17.83-4.51,23.4-11.47c4.95-6.18,6.73-14.33,7.24-22.23a84.34,84.34,0,0,0-11-47.21c-2-3.54-8.88-.65-5.5-2.94a41.44,41.44,0,0,0,34.49-8.05c9.51-7.65,18.19-14.37,18.14-26.58,13.9,5.16,30,6.92,43.17,0,17.22-9,24.48-31,21.54-50.28s-14-36.19-25.88-51.63S1023,934.15,1012,918.05c-8.4-12.37,1.71-30.26,15.57-35.87,13.27-5.38,24-3.6,44.34-1.64,19.81,1.91,68.4,6.61,91.06-17.54,14.82-15.8,19.59-45.06,7-62-9-12.08-24.29-14.52-28-15-25.65-3.32-33.37,17.51-74.34,26.87-23.77,5.43-36.71,1.79-40.64.82-13.27-3.25-24-8-30.79-19.85-24-42.27-26.13-96.25-5.5-140.28,16-34.08,44.92-63.59,48.17-101.1,1-12.08-3.64-27.45-15.71-28.75-4.64-.5-9.2,1.36-13.37,3.48-26.8,13.58-48.55,44.82-55,74.17-14.37-16.71-13.48-42-6.32-62.82S968.1,498.94,975,478s7.1-46.35-7.91-62.5c-6.48-7-15.26-11.56-24.42-14.2-15.33-4.42-33.47-9.85-48.3-4,4.76-11.94,9.6-24.35,8.89-37.19s-8.74-27.33-21.31-30c9.54-8.29,19.27-16.82,25.3-27.93s7.64-25.49.74-36.07C900.91,255.26,886.2,251,873.59,254s-23.1,12-30.44,22.7c-17.63,25.58-18.6,60.09-8.29,89.41,10.83,30.81,14.1,34.62,21.73,62.17,1.17,4.21,24.95,93-8.59,119.74-25.42,20.23-58.26-15.51-162.45-25.75-68.89-6.77-99.47,4.76-110.19,8.74-31.34,11.62-61.22,30.54-76.21,60.42.12-9.93-1-20.67-7.69-28-5.9-6.56-15.21-9.19-24-9s-20.84-2-29.23.74c.61-10.11,1-20.55-2.53-30s-11.93-17.88-22.05-18.28c-10.76-.42-20.14,8.29-24.21,18.26s-4.06,21.06-4.43,31.82c-1.82,52.61-15.11,106.67-48.63,147.26-35.29,42.73-91.51,69.35-112.3,120.73-16.85,41.63-5.62,101.21,29.29,129.44-8.45,7.36-12.87,18.59-13.77,29.77s1.41,22.38,4.61,33.13c24.3,81.41,100.39,160.11,165.21,212,55.49,44.42,122.68,76.7,193.63,81C719.1,1317.15,840.57,1269.08,914.21,1179.09Z"/><path class="cls-3" d="M166.68,866.77c-5.61-38.41,3.56-78.1,21.45-112.56s44.14-64,73.26-89.68c2.2-18.58,4.8-40.95-2.66-58.11S230.62,576.34,213.57,584c-12.25,5.51-18.38,19.05-23.48,31.48-8.48-7.78-22-6.13-32.62-1.76C114,631.61,93.25,683.08,93.25,730.09,93.25,783,130.2,828.46,166.68,866.77Z"/><path class="cls-3" d="M458.14,399.83c1.74-19.16,12.4-37,27.36-49.07s33.91-18.72,53.06-20.53c14.88-1.41,30.64.19,43.22,8.25s21,23.74,17.31,38.22c-1.87,7.33-6.49,13.6-11,19.66-15.78,21.17-49,88-78.77,86.7C476.48,481.62,456,426.53,458.14,399.83Z"/><path class="cls-3" d="M1010.7,341.92c25.76-7.34,44.25-34.61,41.52-61.27-3-29.78-27.78-51.79-48.37-73.54s-39.45-52.35-28-80c4.77-11.5,14.3-20.5,25-26.93,27.34-16.52,62.45-17.25,92.45-6.26,30.32,11.11,56.84,34.71,67.19,65.3s2.27,67.74-22.73,88.2c14,3.53,24.67,22.05,24.49,36.47s-8.5,27.89-19.68,37-25,14.41-38.88,18.29a240.09,240.09,0,0,1-72.39,8.7C1021.14,347.55,1018.39,348.54,1010.7,341.92Z"/><path class="cls-3" d="M1055.3,699a69.09,69.09,0,0,1,33.31-44.63c5.81-3.23,12.26-5.65,18.91-5.59s13.5,2.9,17.23,8.4c6.17,9.09,2.08,21.66-4.23,30.65-10.1,14.38-30,35.66-44.77,45C1053.34,746.92,1051.1,717.77,1055.3,699Z"/><path class="cls-3" d="M1168.17,627.13c-4.25-13.27-11.79-27.81-5.38-40.18,4.07-7.86,12.79-12.16,21.34-14.45,13.24-3.53,27.7-3.39,40.33,1.93s23.16,16.15,26.69,29.39c3.64,13.66-.29,28.35-6.93,40.83-12.29,23.12-38.18,45.8-64.93,49.73-22.21,3.27-14-4.33-9.7-21.87A84.4,84.4,0,0,0,1168.17,627.13Z"/><path class="cls-4" d="M1017.75,144c6.51-9.9,19.32-14.56,31.09-13.15s22.42,8.13,30.52,16.78c14.2,15.16,39.55,100.1-.34,86.72-15.15-5.09-37-26.85-48.25-38.15C1017.66,183.08,1005.93,162,1017.75,144Z"/><path class="cls-4" d="M521.3,368.06c4.8-4.37,12.25-8.12,17.37-4.13,4.83,3.75,3.47,11.63-.17,16.55s-9,8.51-12,13.87c5.41-2.76,11.08-5.59,17.16-5.58s12.61,3.83,13.52,9.84c.55,3.6-1,7.18-2.62,10.44-7.67,15.14-37.52,58.78-53.53,34.42C486.92,422,505.09,382.8,521.3,368.06Z"/><path class="cls-4" d="M129.85,747.76a105.94,105.94,0,0,1,6-76.85c3.39-6.94,7.67-13.64,13.79-18.35s14.34-7.18,21.75-5c9.61,2.8,15.79,12.77,16.92,22.72s-1.88,19.87-5.4,29.24C175.88,718.17,144.7,795.93,129.85,747.76Z"/><path class="cls-4" d="M1224,601.5c-2.25-4.14-5.88-7.35-9.65-10.16-4.5-3.35-10.08-6.38-15.48-4.89-7.6,2.1-10.22,11.58-10.11,19.46.17,11.82,4.06,40.44,20.82,36C1223.8,638.07,1230.19,612.88,1224,601.5Z"/></g><g id="ball"><path class="cls-5" d="M628.33,1286a345,345,0,1,1,243.95-101A342.75,342.75,0,0,1,628.33,1286Z"/><path class="cls-1" d="M628.33,601A338.89,338.89,0,1,1,496,627.71,338,338,0,0,1,628.33,601m0-10c-193.3,0-350,156.7-350,350s156.7,350,350,350,350-156.7,350-350-156.7-350-350-350Z"/><path class="cls-6" d="M444,727.93c38.88-35.35,89.09-59.88,141.61-61.38,17.58-.51,36,1.83,50.5,11.84s23.53,29.35,17.32,45.81c-4.23,11.2-14.54,19.13-25.56,23.81s-23,6.63-34.57,9.6c-34.72,8.9-67.44,27.75-89.6,55.93-16.61,21.14-26.93,46.81-44.54,67.12-14.87,17.16-39.38,31.71-62.84,26.14-20.21-4.8-37.93-29.07-37.17-49.92.82-22.39,19-46.46,30.77-64.49C405.27,768.86,423.15,746.87,444,727.93Z"/><path class="cls-6" d="M403.93,952.67c4.77,4.12,8.26,9.52,11.14,15.13,5.87,11.46,9.44,24.59,7.17,37.27a43.51,43.51,0,0,1-22.3,30.4c-4.37,2.3-9.31,3.84-14.23,3.32a28.92,28.92,0,0,1-10.51-3.7c-21.62-11.58-40.44-39.81-30.1-65.08C354,948.36,385.34,936.65,403.93,952.67Z"/><path class="cls-6" d="M713.21,788.91c-.89-10.43-1.15-22.54,6.71-29.44,3.71-3.25,8.69-4.73,13.59-5.18,21.23-1.95,40.36,13.52,52.4,31.11a129.82,129.82,0,0,1,22.41,76.85c-.4,12.51-3.32,26.16-13.2,33.83-8,6.26-18.93,7.16-29.11,7.27-20.23.23-41.52-4.24-45.25-26C715.82,848.57,715.69,818,713.21,788.91Z"/><path class="cls-6" d="M853.77,989.39c14.62,11.42,15.31,33.62,9.8,51.33a104.5,104.5,0,0,1-50.68,60.84c-12.42,6.52-28.82,10-39.63,1.07-9.68-8-10.58-22.93-6.36-34.75s12.45-21.7,18.93-32.45c7.9-13.1,9.37-36.54,20.1-47C817.07,977.62,842.48,980.57,853.77,989.39Z"/><path class="cls-4" d="M689.91,701.73c.64,3.19,1.32,6.48,3.15,9.17,5.05,7.47,15.81,7.2,24.81,7.73,20,1.18,38.77,10.25,54.91,22.06s30,26.38,44.4,40.27c5.29,5.12,11.37,10.45,18.72,10.67,9.63.28,17.5-9,18.77-18.53s-2.45-19.05-6.87-27.61c-25.55-49.47-78.37-83.7-133.95-86.81C680.2,656.79,684.9,676.93,689.91,701.73Z"/><path class="cls-4" d="M857.71,944.83a9.94,9.94,0,0,0-4.13,2.65c-1.51,1.83-1.78,4.36-2,6.73l-.89,10.67a7.58,7.58,0,0,0,.45,4.23c1.49,2.79,5.43,2.61,8.6,2.63,14.08.08,65.93,22.42,57.86-16C913.24,934.85,871.7,939.29,857.71,944.83Z"/><path class="cls-4" d="M492.94,958.14c21.51,6.25,29.24,31.75,39.29,51.77,16.13,32.12,44.84,55.81,66.84,84.23,7.08,9.16,13.6,19.08,16.51,30.28s1.7,24-5.47,33.06c-11.59,14.7-33.67,15.07-52,11.42-12.92-2.56-25.66-6.49-37.23-12.78-41.66-22.65-61.35-71-75.37-116.3-3.44-11.08-6.75-22.42-6.6-34C439.23,979.21,463.84,949.69,492.94,958.14Z"/><path class="cls-6" d="M823,915.31a12.11,12.11,0,0,0,.62,6c1.79,3.85,6.74,4.79,11,5.18,11.87,1.09,24,1.77,35.61-.79,4.23-.93,8.55-2.39,11.56-5.52,4.89-5.07,5-13,4.56-20a276.29,276.29,0,0,0-16.67-78.3c-.78-2.11-1.8-4.43-3.89-5.26s-4.36.15-6.38,1.09c-14.57,6.86-33.07,10.72-34.63,28.75C822.83,868.76,824.58,892.59,823,915.31Z"/><path class="cls-4" d="M342.61,888.65c-12.29-23.14-6-51.85,5.08-75.6,27.43-58.91,80.43-102,136.09-135.52,17.66-10.64,36.34-21,48.36-37.81-3.32-5.55-11.18-5.94-17.56-4.89-23.88,3.94-44.55,18.47-63.43,33.61A668.87,668.87,0,0,0,375,739.94c-15,16.41-29.26,33.81-38.74,53.9-7.85,16.61-12.21,34.66-15.17,52.8-3.36,20.52-14,73.8,7,87.76,8.05,5.34,18.06,4.07,23.7-3.75C362.09,916.34,349.07,900.83,342.61,888.65Z"/><path class="cls-1" d="M689.72,796.68a14.9,14.9,0,0,0-7.59-7.41,11.93,11.93,0,0,0,7.41-7.59,16.33,16.33,0,0,0,7.59,7.41A16.56,16.56,0,0,0,693,792,16.33,16.33,0,0,0,689.72,796.68Z"/></g><g id="clouds_1" data-name="clouds 1"><path class="cls-7" d="M719.6,981.33a50.67,50.67,0,0,1,66.88,57.47c2.65-6.12,11.16-8.09,17.1-5.08s9.33,9.67,10.2,16.28a31.11,31.11,0,0,1-7.8,24.81c7-5.4,17.35-3.37,23.16,3.34s7.47,16.09,7.55,25c0,4-.49,8.57-3.71,10.94-2.78,2-6.6,1.73-10,1.12-6.73-1.21-9.42-2.59-11.46-2.72-11.89-.77-13.48,57.59-33.77,65.16-15.54,5.79-33.54-21.38-99.32-74.87-11-8.94-20.29-16.15-26.73-21.07"/><path class="cls-8" d="M730,1085.94c.58-21.53-11.14-41.63-25.49-57.69-7.67-8.56-16.67-16.65-27.78-19.58s-24.68.79-29.94,11c-5-11.53-24.47-16.41-35.87-11.07s-18.52,17.11-22.24,29.13c-2.9-9-10.4-17.71-18.61-22.36s-19.93-3.88-25.73,3.56c.26-5.36-1.46-10.4-2.77-15.61-2.77-11-8.88-20.85-15.77-29.86-10.05-13.14-22.61-25.29-38.44-30.09s-35.36-.31-44,13.79c-.77,1.26-.22,3.81,1,3A13.35,13.35,0,0,0,430.55,957c-5.05,1.7-9.21,5.4-12.55,9.55-4.74,5.88-8.15,13-8.59,20.57s2.37,15.44,8.23,20.21c-5.44-1.57-8.32,5.11-10.59,10.29s-1.81,11.12-1,16.72c1.85,12.5,6.1,25.81,16.61,32.84,9.31,6.22,21.47,6.07,32.51,4.18s22-5.3,33.16-4.83c-9.52,5-22.55,17.83-26.3,27.92s-4.55,21-4,31.8c.65,11.91,3.9,25.16,14.13,31.31,9.13-11.47,23.95-8.34,38.6-7.75,28.23,1.14,56.24,5.67,84.46,6.83s57.31-1.27,82.88-13.28S729.26,1114.18,730,1085.94Z"/><path class="cls-9" d="M649.48,1133.37c-1.54-3-1.09-6.66-.17-9.93a38.15,38.15,0,0,1,55.6-22.73c.6-18.42,15.51-32.11,33.91-33.32,4.68-.31,9.69.38,13.34,3.32s5.33,8.64,2.7,12.52c4-3.73,6.24-2.08,11.25.16a14.17,14.17,0,0,1,4.69,4.14c3.21,3.8,6.5,7.77,7.87,12.55s.26,10.66-3.9,13.4c2.74,6.84,17.39,5.68,23.56,1.66a24,24,0,0,0,10.42-15.66c1.56-8.64-1.72-17.6-.17-26.23A23.8,23.8,0,0,1,847,1059c2.7-12.24,7.81-17.27,18.64-23.57a46,46,0,0,1,36.31-4.15c-4.56-8.32-6-18.17-.88-26.13,4.84-7.48,12.07-13.79,20.77-15.74s18.79,1.3,23.34,9c-10.47,34.29-23.72,71.11-42.52,101.63s-44.95,57.44-77.73,72c-49.25,21.79-111,11.45-150.5-25.2"/></g><g id="shadow"><path class="cls-10" d="M579.29,1120.81c64.8-6.51,133,.56,191.5,26,20.45,8.88,41.72,22.91,42.43,41.84.4,10.66-6.09,20.63-14.39,28.63-19.36,18.62-48.17,28.64-76.92,35.3C636.33,1272.37,537.52,1265.66,465,1221c-9.85-6.07-19.29-12.93-25.67-21.59-22.47-30.52,14.06-44.66,42.63-56C512.39,1131.26,545.66,1124.19,579.29,1120.81Z"/></g><g id="sparkles"><path class="cls-5" d="M755.13,1106.25a45.69,45.69,0,0,0-23.29-22.75,36.7,36.7,0,0,0,22.74-23.29,50.16,50.16,0,0,0,23.3,22.75,49.92,49.92,0,0,0-22.75,23.29Z"/><path class="cls-5" d="M796.1,1064.69a15,15,0,0,0-7.59-7.41,12,12,0,0,0,7.41-7.59,16.33,16.33,0,0,0,7.59,7.41,16.36,16.36,0,0,0-7.41,7.59Z"/><path class="cls-5" d="M772.42,1039.05a22.85,22.85,0,0,0-11.65-11.37A18.36,18.36,0,0,0,772.15,1016a25,25,0,0,0,5,6.75,25.33,25.33,0,0,0,6.67,4.63,25,25,0,0,0-11.37,11.64Z"/><path class="cls-5" d="M600.87,1161.37a45.69,45.69,0,0,0-23.29-22.75,36.75,36.75,0,0,0,22.75-23.29,50.08,50.08,0,0,0,23.29,22.75,50,50,0,0,0-22.75,23.29Z"/><path class="cls-5" d="M566.76,1108.78a14.9,14.9,0,0,0-7.59-7.41,12,12,0,0,0,7.41-7.59,16.18,16.18,0,0,0,3.24,4.4,16.37,16.37,0,0,0,4.35,3,16.36,16.36,0,0,0-7.41,7.59Z"/><path class="cls-5" d="M744.66,1122.6a14.9,14.9,0,0,0-7.59-7.41,12,12,0,0,0,7.41-7.59,16.18,16.18,0,0,0,3.24,4.4,16.37,16.37,0,0,0,4.35,3,16.22,16.22,0,0,0-4.09,2.92A16,16,0,0,0,744.66,1122.6Z"/><path class="cls-5" d="M464.55,984.72a22.72,22.72,0,0,0-4.39-6.38,23,23,0,0,0-7.25-5,18.39,18.39,0,0,0,11.37-11.64,25.13,25.13,0,0,0,5,6.75,24.87,24.87,0,0,0,6.68,4.62,25,25,0,0,0-11.38,11.65Z"/><path class="cls-5" d="M544.72,1099.62a14.9,14.9,0,0,0-7.59-7.41,12,12,0,0,0,7.42-7.59,16.37,16.37,0,0,0,7.58,7.41A16.22,16.22,0,0,0,548,1095,16.54,16.54,0,0,0,544.72,1099.62Z"/><path class="cls-5" d="M668.25,1130.14a14.9,14.9,0,0,0-7.59-7.41,12.27,12.27,0,0,0,4.53-2.87,12,12,0,0,0,2.88-4.72,16.33,16.33,0,0,0,7.59,7.41,16.22,16.22,0,0,0-4.09,2.92A16,16,0,0,0,668.25,1130.14Z"/><path class="cls-1" d="M729.6,829.46a45.79,45.79,0,0,0-23.29-22.75,36.76,36.76,0,0,0,22.74-23.29,50.29,50.29,0,0,0,23.3,22.75,49.92,49.92,0,0,0-22.75,23.29Z"/><path class="cls-1" d="M561.46,776.77a22.87,22.87,0,0,0-11.64-11.37,18.37,18.37,0,0,0,11.37-11.65,25.13,25.13,0,0,0,11.65,11.38,24.82,24.82,0,0,0-6.28,4.48A25.16,25.16,0,0,0,561.46,776.77Z"/><path class="cls-1" d="M595.21,797.7a14.9,14.9,0,0,0-7.59-7.41A12,12,0,0,0,595,782.7a16.18,16.18,0,0,0,3.24,4.4,16.37,16.37,0,0,0,4.35,3,16,16,0,0,0-4.09,2.93A16.26,16.26,0,0,0,595.21,797.7Z"/><path class="cls-1" d="M608.31,740.54a15,15,0,0,0-7.59-7.41,12,12,0,0,0,7.41-7.59,16.18,16.18,0,0,0,3.24,4.4,16.37,16.37,0,0,0,4.35,3,16,16,0,0,0-4.09,2.93A15.87,15.87,0,0,0,608.31,740.54Z"/><path class="cls-1" d="M692.49,732.56a45.79,45.79,0,0,0-23.29-22.75,36.76,36.76,0,0,0,22.74-23.29,50.39,50.39,0,0,0,9.95,13.5,49.88,49.88,0,0,0,13.35,9.24,50,50,0,0,0-22.75,23.3Z"/><path class="cls-1" d="M747.72,727.69a14.8,14.8,0,0,0-7.59-7.41,12,12,0,0,0,7.41-7.59,16.18,16.18,0,0,0,3.24,4.4,16.37,16.37,0,0,0,4.35,3,16.24,16.24,0,0,0-7.41,7.59Z"/><path class="cls-1" d="M490.35,865.79a22.78,22.78,0,0,0-11.64-11.37,18.37,18.37,0,0,0,11.37-11.65,25,25,0,0,0,11.65,11.37,25,25,0,0,0-11.38,11.65Z"/><path class="cls-1" d="M619.63,645.77a14.8,14.8,0,0,0-7.59-7.41,12,12,0,0,0,7.41-7.59,16.33,16.33,0,0,0,7.59,7.41,16.24,16.24,0,0,0-7.41,7.59Z"/></g><g id="clouds_2" data-name="clouds 2"><path class="cls-11" d="M857.2,1161c.44-1.7,4.08-14.85-4.83-21.5-6.4-4.79-16-7-21.67-1.36a39.73,39.73,0,0,0-19.39-19.8c-8.62-3.88-18.95-4.08-27.43.06-7.35,3.59-12.91,10.06-17.3,17-6.88,10.83-10.18,26.37-11.93,39.09-.83-12.49-11.48-23.6-23.93-25-6.58-.72-16.63-.51-19.53,5.44-.44-10.17-7.36-19.61-16.67-23.73s-20.57-3-29.32,2.15-16.44,13.85-18.89,23.73c-7.47-3.66-17-.06-22.19,6.41s-7,15.08-7.5,23.38c-.43,6.75,2.3,10.78,6.18,16.32a14.85,14.85,0,0,0-17.26,7.24c-3.21,6.44-1.58,15.12-6.61,20.26-4,4.07-10.58,4.08-16.06,2.53s-10.63-4.37-16.28-5.07a22.38,22.38,0,0,0-25.15,23.07c-1.44,1.51,3.52,2.84,5.55,3.32,77.13,18.22,169.6-3.67,169.6-3.67,17.08-4.26,25.87-6.49,37.91-11.35,19.89-8,37.59-20.68,73-46a147.49,147.49,0,0,0,18-16C855.08,1167.59,856.57,1163.44,857.2,1161Z"/><path class="cls-9" d="M391,1152.46c-51-48.33-79.39-119.54-75.68-189.69.36-6.81,8.82-10.5,15.1-13.15s13.41-2.67,20.1-1.35,13.48,4.11,18.58,8.84a29.11,29.11,0,0,1,0,42.61c2.62-3.53,6.14-2.49,10-.36a22.47,22.47,0,0,1,11.33,19c6.61-4.8,17.86,0,23.6,5.8s7.52,14.78,6,22.81c4.93-15.42,19.63-25.14,35.48-28.46,8.42-1.76,17.39-1.86,25.45,1.17a34.54,34.54,0,0,1,18,49.21c1.65-4,9.22-6.71,13.57-6.21s8.17,3.24,10.89,6.66c2.08,2.61,3.66,5.84,3.4,9.17-.43,5.45-5.75,9.46-11.14,10.38s-10.87-.49-16.21-1.68c-8.39-1.88-17-3.23-25.57-2.46s-17.14,3.82-23.34,9.77c5.2,1.12,8,3.87,10.47,8.56a8.3,8.3,0,0,1,1.19,4.42c-.29,3.86-4.45,6.1-8.14,7.3-13.48,4.37-28.5,4.87-40.44,12.51C406.11,1132.2,397.84,1146.6,391,1152.46Z"/><path class="cls-12" d="M439.29,1190.57c15.46,5.82,31.74,10.13,48.25,9.87s32.27-5.16,44.41-16.35a131,131,0,0,0,29.82,9c3.88.68,8,1.17,11.68-.16,4.15-1.49,9-4.72,9.77-9.07,7.06,5.64,16.65,7.56,25.6,6.34s17.32-5.33,24.65-10.62c3.53-2.54,6.94-5.41,11-6.85s11-1.2,13.89,2.06c6.07-3,13.13-7.66,12.34-14.38-.44-3.77-3.39-6.75-6.44-9-15.83-11.81-39-12.24-55.74-1.82-6.23,3.88-11.6,9-18,12.65s-17.63,3.16-24.21-.09a18.43,18.43,0,0,0-18.92-23.24,7.23,7.23,0,0,0-4.21,1.35c-1.16,1-1.43-.13-.71,1.19a30.47,30.47,0,0,0-30.16-35.83c-3.81,0-8.73-2.58-10.1,1a25.76,25.76,0,0,0-34-27.61c-8.72,3-15.28,10.54-23.91,13.79a10.53,10.53,0,0,1-6.48.7,11.08,11.08,0,0,1-4.32-2.72c-4.14-3.77-10.68-10.42-10.19-16,.81-9.29-5.7-18.52-14.53-21.52s-19.2,0-25.56,6.85-8.71,16.94-6.71,26a18.38,18.38,0,0,0-22.43,17.35C378.15,1138.46,399.55,1175.63,439.29,1190.57Z"/><path class="cls-12" d="M952,953.1c-4.87-2.54-11.12-1.38-15.51,1.92s-7.14,8.41-8.7,13.68A41.8,41.8,0,0,0,929.57,997c5.73,13.08-.54,27.58-8,39.76-2.2,3.59-4.9,7-8.58,9.07-8.29,4.59-19.08.93-27.77,4.71-9.52,4.15-13.16,17.9-6.93,26.21-8.23-4.63-18.53-1.22-25.19,5.47s-9.06,16.93-7.45,26.24c.32,1.83.94,3.86,2.61,4.69-3.62-.1-6.4,5-6.87,8.58s.84,7.14,2.12,10.53a63.29,63.29,0,0,0-47.27,4.87c-13,7-23.64,19.26-26.43,33.77-1.61,8.37-.12,18.07,6.46,23.49-2.46-1.19-3.74,2.09-4.2,4.78s1,5.38,2.93,7.32,4.3,3.36,6.33,5.19c-3.89-.64-7.58,2.9-8.15,6.79-.5,3.42,0,8.61,3.86,10.79a8.4,8.4,0,0,0,5.36.84c38.3-28.49,63.61-52.32,78.63-67.61a295.91,295.91,0,0,0,21.47-24,306.79,306.79,0,0,0,33-52c1.18-2.32,7.33-14.55,13.19-29.67C943.48,1018.69,949.44,980.16,952,953.1Z"/></g><g id="highlights"><path class="cls-13" d="M834.05,790.82c7.79,21.38,12,43.88,19.08,65.52,1.4,4.29,3.15,8.86,6.94,11.3,9.08,5.83,19.77-4.59,25.16-13.93,9.78-17,18.44-35.49,18.18-55.05-.34-25.78-16-48.69-32.66-68.36-27.09-31.94-63.42-62-105.27-60.1-14.31.64-20.63,8.52-11.72,18.74,8.75,10,23.51,17.26,33.21,27.2A210.74,210.74,0,0,1,834.05,790.82Z"/><path class="cls-13" d="M889.52,888.57c5.61-3.67,11.86-7.49,18.52-6.67,10.2,1.26,15.89,12.63,17.24,22.81a64.13,64.13,0,0,1-5.1,34.62c-2.31,5.1-5.44,10-10.12,13.12a26.54,26.54,0,0,1-13,3.89c-13.52.83-27.45-5.67-34.86-17C843.41,910.57,870,901.31,889.52,888.57Z"/><path class="cls-14" d="M454.91,762.72c-33.84,28.69-52,70.85-52.28,115.22-18.78,1.49-45.27.28-53.66-16.59-5.08-10.2-1.93-22.46,2-33.14a245.88,245.88,0,0,1,45.84-76.56C419,750.32,433.72,756.31,454.91,762.72Z"/><path class="cls-13" d="M393.22,1052.87c6.46,8.42,9.95,18.7,15.24,27.91,21.28,37.08,69.41,53.71,87.3,92.54,1.09,2.37,2.07,5,1.52,7.53-1.57,7.32-12.29,6.67-19.17,3.72-44.95-19.26-78.37-58.46-104.11-100-5.73-9.26-16.45-27.08-8.82-38C373.17,1035,386.67,1044.32,393.22,1052.87Z"/></g><g id="Layer_8" data-name="Layer 8"><ellipse class="cls-5" cx="628" cy="949.5" rx="140" ry="134.35"/></g><g id="logo"><g id="Artboard_1" data-name="Artboard 1"><g id="logo-2" data-name="logo"><path id="_4" data-name=" 4" class="cls-2" d="M671.46,1062.6a73,73,0,0,1-16.33-1.82c-23.58-5.36-43.1-22.5-58-50.92-13.57-26.83-28.88-41.05-45.52-42.29-24-1.87-43.94,24-45.56,26.16,18.64,47,66.2,80.38,122,80.38a134.77,134.77,0,0,0,57.54-12.78A81.66,81.66,0,0,1,671.46,1062.6Z"/><path id="_3" data-name=" 3" class="cls-2" d="M552.16,959.91c19.7,1.45,37.23,17.11,52.11,46.51,13.79,26.28,31.54,42.06,52.71,46.88,24.77,5.65,48.1-5.3,57.56-10.68a124,124,0,0,0,38.35-57.3c-10.42,6.51-28.08,15.21-48.22,15.21a66.55,66.55,0,0,1-13.79-1.42c-23.65-5-43.66-22.79-59.45-52.84-16.51-27.08-36.8-42.93-60.23-46.65-32.65-5.27-62.27,14.38-69.75,19.82A118.9,118.9,0,0,0,503,985C510.54,976.42,529.22,958.26,552.16,959.91Z"/><path id="_2" data-name=" 2" class="cls-15" d="M614.84,842.89c26.85,5.92,49.27,22.63,66.69,49.68,24.1,37.84,42.64,46,54,46.23h.4c12,0,19.27-8.7,20.64-10.48-10.44-58.76-64-103.51-128.52-103.51a134.13,134.13,0,0,0-73.48,21.55C570.9,841.41,592.37,837.94,614.84,842.89Z"/><path id="_1" data-name=" 1" class="cls-16" d="M757.89,939.74a34.34,34.34,0,0,1-22,8.14h-.54c-19.7-.29-40.33-17.19-61.35-50.2-16.1-25-36.66-40.47-61.1-45.85-36.21-8-70.82,8.37-80.51,13.51A123.58,123.58,0,0,0,505.18,908c13.75-8.26,39.08-20.12,67.29-15.56,25.89,4.18,48.1,21.17,66,50.53,14.86,28.07,33,44.58,54.16,49,28.87,6.11,55.43-11.85,62.88-17.5l.36-.27a118.82,118.82,0,0,0,2.51-24.3C758.37,946.48,758.17,943.09,757.89,939.74Z"/></g></g></g></svg>