<?xml version="1.0" encoding="utf-8"?>
<!-- Generator: Adobe Illustrator 25.4.1, SVG Export Plug-In . SVG Version: 6.00 Build 0)  -->
<svg version="1.1" id="Layer_2_00000079448678826276354710000008520479277121418631_"
	 xmlns="http://www.w3.org/2000/svg" xmlns:xlink="http://www.w3.org/1999/xlink" x="0px" y="0px" viewBox="0 0 1757 1678.8"
	 style="enable-background:new 0 0 1757 1678.8;" xml:space="preserve">
<style type="text/css">
	.st0{clip-path:url(#SVGID_00000101783496545728165690000007476115499178387646_);}
	.st1{fill:none;stroke:#FFEAE1;stroke-width:5;stroke-linecap:round;stroke-miterlimit:10;}
</style>
<g>
	<defs>
		<rect id="SVGID_1_" x="-0.2" y="-239.4" width="1756" height="2013.2"/>
	</defs>
	<clipPath id="SVGID_00000052806450653783448950000006004493098412217984_">
		<use xlink:href="#SVGID_1_"  style="overflow:visible;"/>
	</clipPath>
	<g style="clip-path:url(#SVGID_00000052806450653783448950000006004493098412217984_);">
		<g id="Layer_10">
			<path class="st1" d="M1862.4-448.6c29.2,118-2.2,243.5-53.4,353.8s-121.5,210.5-176.2,319S1538.5,454.6,1556,575
				c25.3,173.5,170.8,314.5,338.2,364.5c67.7,20.2,147.3,25.6,203.2-17.9"/>
			<path class="st1" d="M1841.1,34.6c-43.2,144.7-181.8,245.8-222.8,391.1c-22.5,79.9-12.5,167.1,20,243.5S1724.8,811.4,1788,865
				c43.4,36.9,102,69.7,154.6,48.1"/>
			<path class="st1" d="M1810.3,288.1c-58.4,56.2-100.1,131-112.1,211.3s7.3,166,56.8,230.3c33.5,43.5,85.5,78.1,139.9,72.1"/>
			<path class="st1" d="M-66.5,922.8c73.2,49.8,131.1,119.1,167.3,200.1c29.3,65.6,43.3,140.8,23.8,210
				c-27.1,95.8-111.4,162.3-190.9,221.9"/>
			<path class="st1" d="M-13.3,1022.9c36,40,66.4,86.2,82.3,137.7s16.4,108.9-5,158.4c-21.4,49.5-66.3,89.7-119.2,99.1"/>
			<path class="st1" d="M-46.6,838.8c36.7,25,77.9,42.5,118.2,61c48.6,22.3,96.9,46.6,137.5,81.3s73.4,81.1,82.9,133.9
				c11.6,64.6-13,131.1-49.4,185.7c-36.4,54.6-84.1,100.4-126.4,150.5S36,1558.3,25.4,1623.1c-2.8,17.4-3.7,35.2-2.4,52.8"/>
		</g>
	</g>
</g>
</svg>
