<svg xmlns="http://www.w3.org/2000/svg" viewBox="0 0 255.12 255.12"><defs><style>.cls-1{isolation:isolate;}.cls-2{fill:#c34e4c;}.cls-3,.cls-4{fill:#fbaa82;}.cls-4{stroke:#fbaa82;stroke-miterlimit:10;}</style></defs><g id="Artboard_1" data-name="Artboard 1" class="cls-1"><g id="logo"><path id="_4" data-name="4" class="cls-2" d="M153.9,201.19a44.4,44.4,0,0,1-9.89-1.1c-14.28-3.25-26.1-13.63-35.14-30.84C100.65,153,91.38,144.39,81.3,143.64c-14.54-1.13-26.61,14.53-27.59,15.84C65,187.93,93.8,208.16,127.56,208.16a81.63,81.63,0,0,0,34.85-7.74A49.68,49.68,0,0,1,153.9,201.19Z"/><path id="_3" data-name="3" class="cls-2" d="M81.65,139c11.93.88,22.55,10.36,31.56,28.17,8.35,15.91,19.1,25.47,31.92,28.39,15,3.42,29.13-3.21,34.86-6.47a75.12,75.12,0,0,0,23.22-34.7c-6.31,3.94-17,9.21-29.2,9.21a40.28,40.28,0,0,1-8.35-.86c-14.32-3-26.44-13.8-36-32-10-16.4-22.29-26-36.48-28.25-19.77-3.19-37.71,8.71-42.24,12a72.09,72.09,0,0,0,.91,39.69C56.45,149,67.76,138,81.65,139Z"/><path id="_2" data-name="2" class="cls-3" d="M119.61,68.42C135.87,72,149.45,82.12,160,98.5c14.59,22.92,25.82,27.85,32.67,28h.24c7.27,0,11.67-5.27,12.5-6.35-6.32-35.58-38.75-62.68-77.83-62.68A81.23,81.23,0,0,0,83.08,70.52C93,67.52,106,65.42,119.61,68.42Z"/><path id="_1" data-name="1" class="cls-4" d="M206.24,126.64a20.83,20.83,0,0,1-13.34,4.93h-.33c-11.93-.18-24.42-10.41-37.15-30.4-9.75-15.17-22.2-24.51-37-27.77-21.93-4.83-42.89,5.07-48.76,8.18A74.89,74.89,0,0,0,53.2,107.39c8.33-5,23.67-12.18,40.75-9.42,15.68,2.53,29.13,12.82,40,30.6,9,17,20,27,32.8,29.7,17.48,3.7,33.57-7.18,38.08-10.6l.22-.16a72.21,72.21,0,0,0,1.52-14.72C206.53,130.72,206.41,128.67,206.24,126.64Z"/></g></g></svg>