<svg xmlns="http://www.w3.org/2000/svg" viewBox="0 0 449 85.58"><defs><style>.cls-1{fill:#284639;}</style></defs><g id="Layer_2" data-name="Layer 2"><g id="Layer_1-2" data-name="Layer 1"><path class="cls-1" d="M369,55.58a2.8,2.8,0,0,1-1,2.59c-2.5,2.46-2.65,5.33-.68,8.11.74,1,.62,2.63,2.36,3.25.73-1.79.1-3.71.41-5.51a2.89,2.89,0,0,0,1.26-2.57c1.28,2.35.14,4.89,1.09,7.5a32.5,32.5,0,0,0,1.83-11.24c1.41,1.4.11,3.33,1.31,5l2.86-7.27c2,2.83-.88,5.33-.22,8.58,1.3-2.15,1.74-4.16,3.32-5.44,1.89,5-1.12,9.82-.39,15,2.88-4.52,2.62-4.54,2.94-9,.43-5.94-1.72-11.68-1-17.58.15-1.21-1.75-1.69-.93-2.88.45-.64,1-.41,1.51-.41.55,3.11,1.09,6.24,1.62,9.36.48,2.83.1,6.28,2.88,9.29,1.39-3.46,3.67-5.77,5.42-8.52,1.13.53.64,1.89.32,2.36-2.53,3.83-1.71,8-1.85,12.22,1.12.08,1.37-.83,2-1.21l-.86-1c3-1.11,3.74-4,5.19-6.31.85-1.4,1.21-3.39,3.44-3.55.13,0,.2-.83.33-1.41-1.2-.09-2,1.15-3.06.7,1-2.65,3.59-2.57,5.82-3.26,2.76-3.17,3.08-8,6.77-10.69,1.33,1.63-1.44,2.49-.59,3.95-.28.11-.76.18-.79.34-.14.6.3.7.79.66a.85.85,0,0,0,1,1,.85.85,0,0,0,1,1,2.46,2.46,0,0,0,2,3c.45,1.37,1.66,2,3.08,2.65a8.93,8.93,0,0,1-.78-3.61c.09-.78-.29-.49-.27-.45.27.44-.6,1.53.42,1.33.8-.17.77-1.15-.15-.88a2.74,2.74,0,0,1-2.3,1c.49-1.27-.86-1.93-1-3,2.18-1,1.22-3.15.84-4.22-.67-1.85-1.62-3.63-2.23-5.56a1.59,1.59,0,0,0-2.37-1.08c-.47-3.47-.78-6.67-3.48-8.88-1.42-1.16,0-3.89-2.61-4.25V19.86c.36-.65,2.62.13,1.72-1.91-2-1.74-3.43,1.79-5.63.2l-1.33-2.72c.86-2,3.34-1.69,4.09-3.49.39-.95-.76-1.25-.86-2.09,1.24-.61,2.58-.09,3.86-.27.21.62-.52,1.58,1,1.95V9.58c1.54-1.37,4.29-.48,5.21-2.84,2.1.52,1.45,3.21,3.7,3.75l1.88-1.93c1.16-.25,1.38,1.12,2.27,1.41,0,1.65-2.14,2.85-.65,4.52a1.34,1.34,0,0,0,1.71-.54c.37-.54.89-.3,1.43-.4.85,2.12,2.65,4.06.56,6.53a1.85,1.85,0,0,0,.21,2.28c1.08.95.53,2.14.68,3.22a6.59,6.59,0,0,0-1.19,3.7c-1,.35-1.33-1.36-2.6-.67v-4.2c-1-.94-1.39-2.26-2.85-1.72-.66.94-.23,1.95-.36,2.89-.93.12-1.92-.26-2.86.33A2.45,2.45,0,0,0,417,27.58c.12,1-.29,2,.31,2.82,1,.56,1.51-.09,2.07-.7.88.21,1.13,1.74,2.28.81l.22.69c-1.85.45.26,3.09-1.82,3.4-.31-.64.4-1.56.15-1.09l-2.32.48.34.5,1.83.11c-.44,1.63,2.85.43,1.85,2.58-1,1-1.26-1.59-2.68-.25.09.78.67,1.84.88,2.88.28,1.45-1.88,2-1,3.38.46.57,1,.36,1.42.34.83-.63.23-1.54.57-2.4,2-.66,2.62-2.49,3-4.46h1.65c-.73,1.86-.82,3.79-1.93,5.34,1.23,1,1.34-.87,2.18-.43.51,1.41-1.33,2.18-.92,3.66,1.33.7,2.83.17,4.56.4l1.57,2c2-.82,1.61-2.68,2.59-4v6.6c.75,1.2,1.15,1.83,1.56,2.47l.66-.31V43.7c3.38,7.4,1.15,15.24,2.22,22.82,1.23-.39,1.49-1.86,2.76-1.94.45,1.64-.89,2.31-1.87,3.39v6.22c1.52.25,1.62-1.59,2.73-1.79.15-3.84,1.78-7,3-10.48l-.79-.87,1.85-1.85c.23,3.25.05,6.13.15,9.13,1.12,0,1.87-1.19,3-.75v1c-.69,0-1,.31-1,1-1.73.49-2.16,1.76-2,3.36,0,.2.37.37.55.54L448,72.09V69.58h1v16H414v-10c1.2-2,1.4-4.14.47-5-.46.06-1-.2-1.38.46l.8,1-.76,1.09c-.45,1.42,1.15,1.49.87,2.47-.93-.07-1,.56-1,1.24v8.76H0v-11c.91.07,1-.54,1-1.22V67.58a14.43,14.43,0,0,1,2.83,7.47c.3,2.24,1.22,4.23,1.58,7.19.92-2.52.5-4.42.57-6.25.09-3.77,0-7.56,0-11.33,1.28,2,.93,4,1,6.06s0,3.89,0,5.88c1.52-.27.39-2.24,2-2,.13,1-.33,2.07.54,3,.75-1.1.34-2.1.46-3,2.25.64,0,2.73,1.6,3.85,1.23-4,4.61-6.4,7.28-9.24L9.12,56.93c1-.74,1.54-.24,2.14.4,2,2.17,4.84,3.53,6.32,6.28a1.46,1.46,0,0,0,2.43.56l-1-1.1c2.1-.21,2.92-3.23,5.46-2.49.29-1.9,2.81-2,3-4,1.09,1.24,0,2.73.82,3.85a1.31,1.31,0,0,0,1.49-.05c.56-1.13,0-2.47.21-3.75,1-.07,1.11.64,1,1.29-.41,1.9,1,3.11,1.78,4.63.24-1.79,0-3.63.31-5.34.42-2-1.8-3.19-.92-5.49L29,49.05c0-5.4,0-5.4-3-8.7v4.23c-2.12-.67-.35-2.61-1.2-3.69-.38-.49-.88-.27-1.35-.26-.9,1.22-.35,1.57.55,2.47,0,.27.14.7,0,.91-2.63,3.49-1,9-5.7,11.53H16.47c-1.69-1.29-.51-3.8-2.68-5.09-1.46-.88-2.12-3.08-3.73-4.21v-7.3l2.16-1.67C10.48,36,11.09,34.46,11,33c1.29-1.56,3.17-1.93,4.37-2.64,2.65.76,2.9,3.22,4.41,4.07a8.09,8.09,0,0,1,3.69,4.12c1.64-.07,3.91-.4,4.95,2.19l3.34-6.94c-.08,5.35,2.2,9.33,3.13,14.61,0,.16-1.4.85-.93,2.13-1.67.18-1.21,1.88-.92,2.21,1.37,1.6.83,3.41.9,5.13s0,3.59,0,5.21l1.53,1.4c.77-.58.34-1.3.47-1.91.75-3.46-1.27-6.63-1-10,2.08.17.14,2.44,2,3.13-.38-3.46,1-6.83-1-10,.06-5.19-1.94-10.24-.85-15.24-1.55-2.55-4.3-3.11-5.83-4.83-1.11-.19-1.31.65-1.87.95-6.1-1.27-5.62-6-5.4-10.55l2.42-2.42c1.9,0,3.87-.41,5.54.89a2.68,2.68,0,0,0,1.74,3c.7-1.94-.64-2.38-1.74-3,.48-1.34-1.2-2.12-1-3.5a36,36,0,0,0,0-3.88,10.18,10.18,0,0,1,5.12-3.54c2.18-.53,3.89,1.66,6,1,3.14.88,2.25,4.57,4.44,6,1.23.63,1.48-1.3,3-.89l1.32,1.15v5.25a12,12,0,0,1-6,6.2c.56,1.87,2.35,2.46,3.2,4.27C42.19,26,39.57,28.68,36,29.9c.09,6.45,1.3,12.44,2.49,19.13,1.55-3.53,2.5-6.56.64-9.92-.54-1-.28-2.26,1.2-3.24L37.84,34.1c3.21-1.79,5.82,1.15,8.71.43L48,31.74c.3-1-1.17-1.2-.83-2.89.16-.68,1.65-1.13,2.22-2.25H53.5c.42,1.55,2.17,2.76,1.25,4.75-.78.35-.82-.8-2-.7-1,2-5.12,1.31-4.82,5.16.93,1.83,3.47,2.56,3.15,5.29-.1.85,1.48,1.54,2.52,1.71l2.49,5L55,49.12c2.74,2.2,1.72,5.52,2.09,8.41,2.32-.62,1.5-2.75,2.78-4.68v7.27c1.1.66,1.13-.6,1.81-.36.62.85.18,1.87,0,3.79-.09.78.29.49.27.45-.27-.44.6-1.54-.42-1.33-.8.16-.77,1.15.15.88,1.32-.92,1.52-2,2.17-2.33V57.89c-.85-.48-.88.76-1.59.5a1.11,1.11,0,0,1,.08-1.67c1-.95.77-1.91.26-3.06-1.29-2.95-1.78-6.23-3.59-9-.11-.17.15-.57.28-1,2.13,1.32,3,3.38,3.87,5.54.81,2,2.35,3.64,2.82,5.8,3,.65,1.46,4.15,3.7,5.22,1.23-1.11-.54-3.18.73-4.6,1.43.51-.51,2.79,1.57,2.95v5.89c1.09-1.94,1.31-3.25,2.81-4,.08,3.07.86,6-.6,8.83.35.35.7.71,1.16,1.16,3.15-1.87,3.52-5.64,5.38-8.19-5.54-6.74-11.11-13.5-17.26-21,2.69.8,4.65,1.07,5.5,3.3a7.84,7.84,0,0,0,3.22,3.61c4.07,2.66,7.25,6.36,11.53,9.07l.69-.55c1.11.14.13,1.52,1,1.82.61-.19.76-1.1,1.57-.94,0,1.26.4,2.65-1,3.54,1.23,1,.94,3.19,2.9,3.26.24.85-.4,1.74.89,2.21.12-.76.48-1.42-.89-2.21.16-2.26-1.09-4.43-1.48-6.79a2,2,0,0,0-.46,0c.72-2.35-.45-4.58-1.19-6.51-.91-2.38,0-5-1.64-7.17l1.53-1.45c.74,6.17,3,11.55,6.42,17.39v2.67c.42-.21.85-.31.85-.43,0-1.46,0-2.92,0-4.53,3.26,1.5,2.08,5.38,4.57,7,1.67-2.84-.62-5.3-.68-8,0-2.33-1-4.63-1.6-7h1.26c1.35,3.22,1.39,7,3.44,9.92-2.92,2.68,1.47,5.14.05,7.33,1.08,1.83,2.29,2.26,3.86,1.36V65.29c-1.23-2.27-4-2.94-3.91-5.77,1.28.15,1.55,1.59,2.72,2,.88-2.29-.36-4-1.75-5.39-1.15-1.14-.91-2.32-1-3.58,2.94,1.57,2.87,5.12,5.56,6.87l1.25-1.14c-.76-3.82-5.57-5.11-5.78-9.64,2.08.7,2.62,2.77,4.1,3.91,1,.73,2,1.58,2.88,2.36-.13-1.6-1.11-2.45-2.88-2.36,0-.6-.41-1.29.21-1.84l1.5.78c.44-2.39-2.24-3.72-1.84-6.16.58.17.87,1,1.76,1a1.23,1.23,0,0,0-.15-1.68,1.16,1.16,0,0,0-1.61.68c-2.14-.27-2.48-3.31-5.3-2.91l1.57-1.74c-1.44-1-.62-3.12-2.27-4.13V34c-1-1.11-3.58.47-3.76-2.2l1.24-1.24h2c.95.32.19,1.58,1.12,1.95l.69-.76c2,.4,3.44,2.5,5.51,1.9.91,1.59-.9,1.87-.55,2.83-.84.24-1.74-.39-2.21.89.76.13,1.42.48,2.21-.89.76,0,1.87.4,2.16-1.3,1.59,2.18-1.1,2.89-.66,4.36a18.23,18.23,0,0,1-3.66-.3c-.78-.09-.49.3-.45.27.44-.27,1.53.61,1.32-.42-.16-.8-1.14-.77-.87.15a3.42,3.42,0,0,1,1.66,3.27c-.09.78.29.49.27.45-.27-.44.6-1.54-.42-1.33-.8.16-.77,1.15.15.88a3.75,3.75,0,0,0,1.14-1.42l2.81,2.78c-1.32,1.86-.49,4.73-.29,7.58a60.48,60.48,0,0,1,2.09-6.86c2.06,2.94-1.37,5.71-.29,8.6l2.48,1.21a3.49,3.49,0,0,0,1.52-3.84c1.29,1.28.61,2.71.84,4-.56-.19-1.29.62-.6.88a.7.7,0,0,0,.6-.88c1.78.26.81,3.67,3.67,2.84.77-1.06.14-2.51.33-3.85h1.49c.83-1.92,1.85-3.67,4.5-4.2-.09-1.93.51-4-.69-6.76.09-.78-.29-.49-.27-.45.27.44-.6,1.53.42,1.33.8-.17.77-1.15-.15-.88-1.55,1-2.94.56-3.82,1.94-.83-.59-.25-2-1.31-2.36L121,38.58c1.6-.16.53,1.68,1.52,2,2.17.2,2.13-1.85,3-3,1-.3,1.43.48,2,1,1-.31-.1-2.15,1.5-2-.1,1.33,1.12.78,2,1.45-1.06,1.07-2.1,2.11-3,3-.15,1.79.25,3.05,2,3.5a2.62,2.62,0,0,0,.93,2.53l-.81,1c1.08,1.5,2.09,2.91,1.88,4.82,5.23,3.08,6,9.36,9.76,13.66-.37-7.19,1.89-13.94,2.71-20.91.87,3.93.26,8,.68,12.25,2-2.56,2.2-5.44,3.66-7.84,1.05-1.73,1.77-3.65,3.3-5.08,1.82-1.71,1.75-4.17,2.43-6.41.92,3.22-.54,6.95,2.63,9.66v7.22l.47.1c.78-2,1.58-4.11,2.35-6.17.19-.5.38-.9,1-.79.09,4.65-1.87,8.84-3,13.22,1.42,1.28,1.11,3,1,4.56-.15,1.73,1.15,2.73,2,4.16V64.77l.7-.34c.37.66.75,1.31,1.35,2.38a23.93,23.93,0,0,0,0,3.34c.12,1.07-.81,2.42.88,3.32V67.05c.86-.46,1.06-1.52,2.08-1.46-.18.55.63,1.28.89.59a.69.69,0,0,0-.89-.59V61.75c1.2.08,1.92,1.78,3,.32a6.74,6.74,0,0,1-1-1.55c-1.21-3.25-2.7-6.4-3.9-9.66-.57-1.54-1.29-2.5-3-2.28V46c1.55-1.05,1.95.54,3.1.63,1-1.43,3.29-.39,4.43-2h10c.6.53,1,1.43,2.41.67-.73-2,1.35-3.82,1.08-6.18l3.61-3.48c1,0,2.2.21,2.94-1,.73,1.23,2,1,2.94,1a22.62,22.62,0,0,1,3.09,8.92c-2,3.66-5.62,7.72-2.13,13h3.2c.42-3.27,2.87-6.07,2.35-9.4.62-.73,1.11-.53,1.93-.47,0,3.77-2.72,7.1-1.92,10.95-2.08,3.7-.45,7.7-1,11.34.43.7.95.62,1.72.63q1.6-6.15,3.28-12.5c-.29-.9-1.57-.12-1.94-1.11,0-.36-.24-.91.44-1.3l1.09.89c.21-1.37,1.48-2.2,1.48-3.72,0-5.12,3.05-9,5.25-13.58,1.82,2-1.46,3.39.14,5.18,2.17-3,4.09-6.14,7-8.77l3-.17c1.87-.78,1.37-2.55,1.89-3.83,2,.78,2,.78,4.65,5.39v4.08l2,1.55c.27,1.17-.26,2,.47,2.77l2.3.26c.84,1.69.21,2.87-1.23,3.77-.65-.28-.32-1.07-.6-1.58-.68-.66-.7.33-1.51.42-.63-.74-.65-2.43-2.12-2.76s-2.55,1.14-4.1,1.27V50.2c1.31,0,2,1.61,3.41,1.37.93-1-1.44-1.73-.21-2.8,1.7-1,2.1,1.8,3.64,1.35l-.71.71c-.07,1.14,1.68,1.45.79,2.75h3c-2.21,2.92-.22,4.93,1.48,7.05l2.94-8.39c1.39,2.82-.1,5-.45,7.76l1.57-1.43c.2,1.58,1.43,2.44,2.44,3.5v5l2.72,1.35c1.36-5-.86-9.87-.33-14.82,1.42,5,2.87,10,2.63,15.06L245.79,71c.52-2.89,1.62-6.05,1.66-9.42.62,3.27,1.1,6.51-1.1,10.5,3.34-2.17,3.49-5,5.07-7.26,2.59-.12,3.22-4,5.79-4.27-1.85,1.86-3.86,3.87-5,5-.5,4.65,1.37,7.16,2.2,10.41,1.83-3.42-1.66-6.21.09-9.56,1,1.73.73,3.59,1.38,5.16s1.56,3.12,1.21,5,1.52,3.08,1.42,5c1.12-5,0-10,1-15a40.3,40.3,0,0,1,.55,8.2c0,.72-.38,1.77,1,1.78.13,1-.33,2.07.54,3,.75-1.1.34-2.1.46-3,1.35-.1.76,1.15,1.49,2.06,1.77-3.16,3.58-6.17,6.47-8.42-3.39-3.75-6-8-8.95-12.31,2.16-.83,3.66.14,6.08,2.43-.54.8-1.15-1.65-2.95-.4.85,1.73,2.11,2.17,2.95.4-.18-.76.73-.76,1.91-.76v-2h1a2.67,2.67,0,0,0,.95,2.51c.78.72,1.85,1.27,2.05,2.49-1.25,0-2.64.41-3.83-1.45.19,2.12-1.55,1-2.2,2,2.09,1.28,2.82,3.71,4.39,5.33.72-.09.81-1.09,1.64-.9.41,1.1-.72,1.82-.85,3a2.38,2.38,0,0,0,2.85-2h3.21c-.55-1.47.3-2.71-.61-3.92-.55-.12-1.25,0-1.6-.65V62.58c.28-.11.76-.17.79-.33.14-.6-.3-.7-.79-.67.17-3.52.25-7.07,4-9,.48,1.41-1.19,2.18-1,3.55a20.89,20.89,0,0,1,0,3.53c-1,1.23-1,1.23-.06,2.89,0-1.14,0-2,.06-2.89.82-.23,2,.42,2.06-1.08h1.48c.11.23.34.65.32.66-1.44.91-1.57,2.75-2.79,3.85V67c.67.59,1,1.66,2.6,1.53C283.7,65,286.77,62.1,287,58.13c-.7-.85-1.41-.42-2-.55,1.09-1.33,1.69-3.35.87-4.4-1.48-1.9-.47-3.78-.87-5.6,1.63.21.36-2.26,2-2v3c-.28.11-.76.18-.79.34-.14.6.3.7.79.66V53.1l1.41,1.37c1.56-1.58,3,.6,4.62.2s3.63-.09,5.49-.09L300.8,50v4.31l1.47,2.12a2,2,0,0,0,2.14-.8c1.09.43.3,1.4.41,2.26l4.69,4.45c.39-3.41,3.41-5.91-.2-8.55l-.81.73c-.92-.78-.46-1.74-.31-2.68.85-.71.7,1,1.28.54,3.62-2,3.93-5.92,4.32-9.09.58-4.68.42-9.48,1.34-13.85-.88-1.95-3-1.76-3.92-3.2,1.21-1.25.66-2.89.8-4.19.8-.9,2.31,0,2.3-1.81,1,1.46,1,3.33,3,3.3,1.47-.47.37-1.72.78-2.56a2,2,0,0,1,2.25-.37c.71.23,1.19,1.09,1.85,1.55a8.77,8.77,0,0,0,1.69.72c.54,1-.13,1.5-.74,2l1.19,1.77c-1.29,1.17-2,2.87-4,3-.57,3.52-1.57,6.9-1.44,10.45,0,.11-.53.24-.81.35.18-.56-.63-1.29-.89-.59a.71.71,0,0,0,.89.59c-.08,1,.59,1,1.54,1,1-.94-.14-3.52,2.56-3.81-.81,3.61-4,7.12-.38,10.84.54.12,1.4-.37,2.13.3.2.78.42,1.58-.85,1.65.18-.56-.63-1.29-.89-.59a.71.71,0,0,0,.89.59c-.65,3.34,1.26,6.16,2.18,9.09a9.59,9.59,0,0,0,3.42,4.91,2.55,2.55,0,0,0-.57-3.53,2.09,2.09,0,0,0,1-2.55c1.44.45.64,1.72,1.67,2.14,2.41-5.43,1.69-11.75,5.18-17.59.39,9.05.08,16,.17,25l1.84-1.75c.5-2.87-.24-5.83,1-8.68v6.25c2-2.92,1.74-3,2.18-5.21a144.53,144.53,0,0,1,3.57-15c.41-1.34-.44-3,.94-4.06a4,4,0,0,1,.32,3.8c-1.41,2.84-.76,5.75-.86,8.62s-2.13,5.48-.46,8.91c.86-4.08,2.51-7.51,2.6-12.26,1.76,3.91.12,6.77-.44,10.22,2.45-2,1.82-4.76,3.32-6.31,1.68-1.73-.25-4.78,2.56-5.85a2.11,2.11,0,0,1-.32,3.12l2.09,6.63c1.63-.26,1-2.55,2.62-2.87v2.56c2.86.43,3.66,3.92,6.78,4.63.48-2.16-1.91-4-.29-6.28l1.88,3.93C366.88,57.88,367.31,55.92,369,55.58Zm-52-20c-.18.56.63,1.28.89.59a.71.71,0,0,0-.89-.6c-.11-.27-.17-.75-.34-.79-.6-.14-.7.31-1.25,2.73.21-.19.59-.48.56-.52-.27-.44.6-1.54-.42-1.33-.8.16-.77,1.15.45-.09Zm97,31c-.18.56.63,1.28.89.59a.71.71,0,0,0-.89-.6c.18-.56-.63-1.28-.89-.59A.72.72,0,0,0,414,66.59Zm-118,7c1.5-.08.85-1.24,1.59-3.94-.21.19-.59.48-.56.53.27.44-.6,1.53.42,1.33.8-.17.77-1.15-.45.08-1.5.09-.85,1.24-1.6,3.93.21-.18.59-.47.57-.51-.27-.44.6-1.54-.42-1.33C294.75,73.83,294.78,74.82,296,73.58ZM400.4,62.51c.21-.18.59-.47.57-.51-.27-.44.6-1.54-.42-1.33-.8.16-.77,1.15.45-.09.56.19,1.29-.63.6-.89C401.14,59.8,400.92,60.1,400.4,62.51ZM281.88,73.74c-.93,1.15-.93,1.15,0,2.81a5.7,5.7,0,0,0-.42-2.8c1.18-.35,2.08.29,2.46-.76C283.23,72.32,282.6,72.4,281.88,73.74ZM107,67.58c.18-.56-.63-1.28-.89-.59.1.45.41.67.7-.14.42,1.7-.36,2.86.76,3.69A1.87,1.87,0,0,0,107,67.58Zm235.88-3.25c-1.6,1.08-.66,2.61-.76,3.84,0,.37.41.45.76,0,0-1.08,0-2.34.12-3.59a.71.71,0,0,0,.89-.59C343.67,63.31,342.87,64.05,342.88,64.33Zm-42.63-7.9c-.55,1.64.23,2.09.75,2.69.35.41-.65,1.46.49,1.39.48,0,.91-.86,1.42-1.38-.81-.82-1.63-1.66-1.91,1.95-.85,0-.95-1.92-1.91-1.1.13.85-.7,1.88.49,2.52C300.06,62,300.53,61.55,300.25,56.43ZM419,48.58a.71.71,0,0,0-.6-.89c-.07,0-.31.22-.29.3.1.45.41.67,1.21.59,0,2.31-.73,4.63.36,6.92C419.82,53.19,420.28,50.88,419,48.58Zm-288,17c-.12-.8.79-1,1-1.53.13-.39.24-1-.13-1.19l-2.76,2.6c.1.46-.41,1.31.3,2,.78.17,1.58.36,1.63-.88.28-.11.76-.17.79-.33C131.93,65.65,131.49,65.55,131,65.58Zm141,14c1.27.09,1.54,1.53,2.58,1.92.35-2.94.35-2.94-1.26-5.92-1.36,0-2,.85-2.32,2-.56-.19-1.29.63-.6.88a.7.7,0,0,0,.6-.89c1.5.09.85,1.24,1,2-.56-.19-1.29.63-.6.88A.7.7,0,0,0,272,79.58Zm31.09-.41c1.36-2.14,1.19-4.57,2.94-6.11-.2-1.74.29-3.63-.65-5.43-.46,3.76-2.75,7.06-3,12.88.21-.18.59-.47.57-.51-.27-.44.6-1.54-.42-1.33C301.75,78.83,301.78,79.82,303.09,79.17ZM396,69.58c.81-.14,1,.72,1.54,1,1.17-1.72,1.51-3.79,2.24-5.71l-1.32-1.21A6.91,6.91,0,0,0,396,69.57c-.62.16-1.35-.31-1.91.42V73.2c.82.64,1.23,1.81,2.51,1.27a6.84,6.84,0,0,0,.38-.82C397.48,72.1,395.52,71.14,396,69.58Zm-110,0c-.28.11-.76.18-.79.34-.14.6.3.7.79.66.12,1.85-1.15,3.1-2,4.68,2.06.82.19,3,1.3,4.17L288,78.16c0-1,.33-2.22-.08-3.15-.51-1.13,2-1.56.35-2.82-.41-.3,1.7-1.55.18-2.61H287l1.85-3.65c-1.51-.61-.31-2.42-1.32-3.35-.69,2.17-2.92,3.46-3.3,5.75C284.85,68.82,286.11,68.24,286,69.58Zm-265,7c-.28.11-.76.18-.79.34-.14.6.3.7.79.66.14.82-.81,1-1,1.57a1.13,1.13,0,0,0,.58,1.44l1.56-2.17a6.07,6.07,0,0,1,2.41,3.28c1.35-2.81-.93-4.79-.83-7.66C22.26,74.9,21.25,75.3,21,76.58Zm404-27c.95.13,2-.3,2.87.35-1.19,1.77-2.9,3.28-3.47,7.58.21-.18.59-.47.57-.51-.27-.44.6-1.54-.42-1.33-.8.16-.77,1.15.45-.09,2.88-1.19,3.32-4.28,5.26-6.2-2.93-2.42-2.93-2.42-5.26.21-.56-.19-1.29.63-.6.88A.7.7,0,0,0,425,49.58Zm-249,11c-2.14,3.36-4.39,11.26-3.38,14.7,1.28-2.69,3.94-4.58,5.14-7.54L176,66.11c0-1.88,0-3.71,0-5.37,1.09-.74,2.43-1.17,1.73-3.12C176.46,58.3,175.78,59.15,176,60.58Zm-4-1c.35-1.7,3.67-1,2.85-3.76-1-.71-1.66,0-2.46.9-.61-1.46-.26-4-2-4-1.88,0-2.82-1.53-5.26-2.53,2.53,4,3.29,7.66,5.84,10.36.24,1-.62,2.23.63,3,1.25-.84,1.25-.84,1.81-4Zm11-5h-1.85L181,56.06c.68,1.28,2.76-.52,8.65,2.4-3.27,1.13-6.24-1.41-9.53-.77,0,1.55,1.51.36,1.78,1.42l.17,3.16c2.25.85,4.3,2.37,6.52.45.45.87,1.36,2.23,1.2,2.38-1.69,1.5.29,1.7,1.29,3.27-.5-3.8.93-6.89-7.11-10.79a2.63,2.63,0,0,0,2.55-.95c1,1.19,2.12,1.43,3.2.66.94-2-.8-3.07-1.09-4.58-1.06.38-1.47-1-2.43-.87-1,1.46-1.91.61-2.76-.22l-1.4,1.4C182.25,53.62,183.17,53.77,183,54.58Zm228.84,11a22.12,22.12,0,0,0-1.78-7.94c-.81-2.14-2-2.46-3.65-1.9-.86,2.59-1.63,4.93-2.47,7.44,1,.29,1.2,2.06,2.79,1.18.56-1.07.08-2.24.29-3.35s-.77-2.41.9-3.32V64l1.58,1.58c.66,0,1.33,0-.82-10.43,3.09.78,4.5,3.06,5.95,5.37,1.19-2.25-.33-3.94-1.06-6C412.1,54.87,410.49,54.14,411.84,65.58Zm-260.7-14c-.77-.15-1.16.26-1.11.76a7.91,7.91,0,0,1-1.45,4.85c-1.07,1.61.48,3.82-1.58,4.86-2.15,6.52-2.49,10.34-1.43,18.56,1.6-10.46,4.75-19.51,6-31-.21.19-.59.48-.56.53.27.44-.6,1.53.42,1.33C152.25,51.33,152.22,50.35,151.14,51.61ZM430.61,66.73c1.87-3.81,1.43-8.48,2.37-12.56.14-.6.19-1.33-1.14-1.71-2,3.8-6.28,6.55-5.81,11.86,1.53.65,3.08.91,4,2.27-1.36-.42-2.1.5-2.87,1.37.9,1.11.9,2.87,2.5,3.51-.09-1.34,1.59-2,1.38-3.3C430.72,67.58,429.87,67.4,430.61,66.73Zm-141.8-5.27c2.06,2.82,1.88,6.45,2.92,9.83-1,.76-1.12,1.9-.19,3.49,2.76-5.92,3.14-12.43,6.46-18.11h-3.54c-.68.39-.39.94-.46,1.4C291.3,58.86,291.3,58.86,288.81,61.46Zm-77.93-9.19c.39,1.3-.46,2.52.7,3.32.48,0,1,.12,1.45-.65-1.68,0-.49-1.8-2-2.36.15-.61-.31-1.33,0-1.55,2-1.29,3.2.83,4.77.49.12-1.77,2.32-3,.75-5-1.63.38-3.58-.77-5,1-1.26-1.66-2.87-.76-4-1l-1.71,1.7c1.78,2.64-1.93,5.1-.48,8h5A16.26,16.26,0,0,0,208,52a1,1,0,0,1,.42-1.33C209.41,51.11,209.78,52.43,210.88,52.27Zm138.31,8.45c-.53,1.59-.27,2.93-.94,4.39-.93,2-2.16,4.59-1.17,6.88,1.33,3.07,1.22,6.4,2.4,9.76l1.34-1.4c.32-6.92,1.76-13.19,3.08-19.63ZM47,46c1.35-.65.76-2.29,2-2.87a1.37,1.37,0,0,0,.42-2.4L46.8,38.19c-2.22.64,0,3.32-1.59,5-1,1.11-.32,3.56-1.05,5.48s-.1,4.27-.18,6.43c-.06,1.81-1.95,3.44-.46,5.57a30.77,30.77,0,0,0,2-8.08c.54,3,.92,5.91-.8,8.92a3.11,3.11,0,0,0,2.11-1.33c.59-3-.7-6.06,1.22-8.68C46.5,50,47.1,48.08,47,46Zm80.15,14.43c1.27.69.36,2.09,2,2.15,1.26-.33,2-1.66,3.14-2.85-1.87-2-.74-5.09-2.84-7.1-1.6,1.94-2.36,4.32-3.48,6.5-1,2-.28,4.43-1.87,6.21-.27.3,0,.93.48,1.23L127.13,64Zm25.36,9.14c1-3,2-6.09,3.18-9.07.26-.65.52-1.41.28-1.82-1.69-2.9-.63-6-1-9-.07-.65.53-1.59-1-2,.61,7.17-2.42,13.66-3,20.41Zm171.07,2c3.05-3.73,1.1-9.27-1.09-12.81l-1.28,1.16V71.52ZM42,40.08c.32,2.29-1.43,4.14-1.11,6.56s.86,4.87-1.15,7.17c2.09.91.55,3.28,2.36,5.26C41.62,53,43.25,48,44,42.85c.21-1.37,1.34-2.52,1-4.06-.1-.47-.08-.92-.55-1.14ZM402.34,68.84c1.56,5,1.85,8.7,6.42,12-3-4.29-1-8.33-2.7-11.42L403,66.35C402.72,66.89,403.49,68.3,402.34,68.84ZM112.52,62.55l1.69-3.38-1.6-1.61-1.22,1c-.53-1.17-.64-2.51-2.6-2.82.86,4.78,1.68,9.35,2.49,13.87.82,0,1.33.07,1.58-.34V65c-.75-1.18-2.63-1.61-1.46-3.42Zm322.1-6-.47.37c0,1.77-.06,3.55,0,5.31,0,.44.85.54.32,1.44-1.43,2.45-.17,4.67,1.12,7.06,0-1.58,1.38-2.24,1.44-3.63,0-1.06-1.61-2-.15-3.1-1.55-1.07-.6-2.72-.95-4.06A28.15,28.15,0,0,0,434.62,56.55Zm-13.5,26.77c.16-4.9,3-9.55,2.81-14.78l-2.81,2.37ZM203.86,59.22c.53,3.37,0,6.8-.28,10.32l3.58-8.64c-.61-1.19-1.14-2.23-1.69-3.29Zm-9,7.69c.49-3.07-.41-5.76,1.26-8.69-1.64.79-3-.32-4.31,1.14,1.87,1.6,1,4,1.26,5.75ZM315.18,52.45c1.27-2.21.27-4.61,1.29-7,1.11,1.76-.11,3.64,1.36,5.67V43.66L315.18,45Zm16.65,15.34-1.18-.14c1.69,3.44-1.3,6.39-.56,9.56a1.45,1.45,0,0,0,1.74.12Zm-283.51-6c-2.88,2.76-3.83,5-3,8C47.41,67.71,47.55,65.27,48.32,61.8ZM28.64,65.46c-1.64.67-3,.79-3.32,1.44-.82,1.49-2.8-.28-3.17.89s0,1.49.65,2C24.4,68.48,27,68.47,28.64,65.46Zm331.65-1.37,1.94-1c-.64-1.84-1.86-2.51-3-3.84C358.55,61.7,359.88,63.05,360.29,64.09Zm-56-2.36c.83,2.66-2.48,5-.55,7.72C303.6,66.82,306.05,64.56,304.27,61.73ZM389.85,74c0-3.78,0-3.78-1.78-6.14v4.21ZM342.1,77.48c-.36-2.65.26-5.22-.56-8.49-1.14,3.26.35,6-1.47,8.49Zm-35.24,4a11.12,11.12,0,0,1,2-6.48l-1.6-1.84C307.3,75.91,305.06,77.84,306.86,81.53Zm119.06-7.6a48.57,48.57,0,0,0-1.89,5.4c-.08.39.22.86.37,1.36l1.52-1.53ZM227.36,55.78c-.78,2.75.77,5.09,1.07,8.6C229.74,60.65,228.16,58.27,227.36,55.78Zm124.13-2.2c-1.16,1,.41,2.91-1.68,3.49,1.22.6,2.2.69,3.12,1.85V55Zm-143.12,4.1c1.61.88-.24,3.24,1.27,3.92l1.19-.21V57.68Zm210.47,3.81c.79-2-.68-3.28-1.68-5.74v5.74Zm-89.06,9.09a15.42,15.42,0,0,0-.17-6.18c-.39,2.87-2.67,4.14-1.16,6.18Zm-18.67-.37c2.07-3.25-.63-5.24-.22-8.25C308.82,65.2,311.52,67.2,311.11,70.21Zm7.73-2.46c-.65,2.57-1.23,5.15,0,7.65Zm38.54-4c.39-2.21,1-4.15.17-6.5-1.05,1.91.22,3.86-1,4.65ZM417.91,39c-.69,1-3.67-.09-2.74,2.31a2.58,2.58,0,0,0,2.74,0ZM301.66,62.74c-1.78,3.16-1.78,3.16-.8,5.68C300.3,66.39,303,64.91,301.66,62.74ZM38.17,60.39c.58-1.87,1.2-3.81,0-5.65ZM321.5,79.66c.51-1.48,1-2.89,1.47-4.32.06-.19-.3-.5-.47-.76L321.09,76C321.09,77.18,320.62,78.45,321.5,79.66Zm-9.4-27.81c0,1.15-.46,2.43.58,4.18-.06-1.89,1.53-2.54,1.32-3.92C313.56,51.51,313,51.45,312.1,51.85Zm-246,13.8c-.27,1.69-.23,3,1.82,3.87C68.18,67.83,68.14,66.46,66.09,65.65ZM413.32,16.76a2.61,2.61,0,0,0,.05,2.73c.92-.57,1.78-1.13,1.62-2.43A1.25,1.25,0,0,0,413.32,16.76ZM178.19,62.63c2-.14,2.73-1.07,2.83-2.78Zm30.17,5c1.39-1.16,2.49-2.28,1.19-4-.73.34-.35,1.16-.71,1.59C208.33,65.81,207.68,66.3,208.36,67.65ZM392.3,76.19l2.29,4.6C395.4,78.75,395,77.52,392.3,76.19Zm10.36,2.74c.14-3.1.14-3.1-2-3.93Zm6.48-27.63,1.89-1-1.5-1.74C408.62,49.39,409.06,50.33,409.14,51.3Zm13.48,14.14c-.77,1-2.48,1.55-1.05,3.28C422,67.7,423.55,67.41,422.62,65.44ZM64.46,66.76c-.4,1.25-.83,2.52.15,4.11A4.67,4.67,0,0,0,64.46,66.76Zm66.19,5.63c.13-1.22.73-2.5-.26-4.09A4.28,4.28,0,0,0,130.65,72.39ZM317.37,58.77c-.16,1.22-.73,2.5.24,4.14A4.53,4.53,0,0,0,317.37,58.77Zm1.33-34.72c2.63,1.1,2.47,0,2-1.27Zm13.8,39.58a2.31,2.31,0,0,0,0-3.09A2.31,2.31,0,0,0,332.5,63.63Zm-119,9.91a2.31,2.31,0,0,0,0,3.09A2.31,2.31,0,0,0,213.5,73.54Zm-87-31a2.31,2.31,0,0,0,0,3.09A2.31,2.31,0,0,0,126.5,42.54ZM410.73,72.38c0-.89.63-1.87-.28-2.87C409.85,70.66,409.8,71.55,410.73,72.38ZM40.5,66.63a2.31,2.31,0,0,0,0-3.09A2.31,2.31,0,0,0,40.5,66.63ZM338.75,71.5l-1.31-2.44c-.45,1.25-.7,1.81,0,2.44ZM54.29,58.17c1.51.32,1.51.32,1.32-2.11ZM214.38,66.5c.28.3.94.31,1.67-.45l-.18-1Zm69.34,12.88c-.05-.87.72-1.87-.27-2.84A2,2,0,0,0,283.72,79.38ZM363.5,67.59a1.21,1.21,0,0,0,0-2A1.21,1.21,0,0,0,363.5,67.59Zm-6-1c-.63.87-.92,1.51.28,2A1.5,1.5,0,0,0,357.48,66.54Zm-222-4a1.21,1.21,0,0,0,0-2A1.21,1.21,0,0,0,135.5,62.59ZM55,62.08a1.21,1.21,0,0,0,2,0A1.21,1.21,0,0,0,55,62.08Zm180.49-.54c-.63.87-.92,1.51.28,2A1.5,1.5,0,0,0,235.48,61.54Zm-14,3.09c.63-.88.92-1.51-.28-2A1.5,1.5,0,0,0,221.52,64.63Zm200-14c.65-.91.94-1.54-.15-2C420.81,49.29,420.85,49.84,421.5,50.66Zm-14-37.11c-.6.89-.9,1.53.32,2C408,14.84,408.28,14.29,407.46,13.55Zm-179,52c-.63.87-.92,1.51.28,2A1.5,1.5,0,0,0,228.48,65.54Zm-91.94,8.08c.6-.89.9-1.53-.32-2C136,72.32,135.72,72.88,136.54,73.62Zm19,1a1.21,1.21,0,0,0,0-2A1.21,1.21,0,0,0,155.5,74.59Zm89-2c-.63.87-.92,1.51.28,2A1.5,1.5,0,0,0,244.48,72.54Zm-196,3.11c.62-.92.92-1.56-.18-2C47.85,74.33,47.81,74.88,48.52,75.65Zm88-10c.6-.89.9-1.53-.32-2C136,64.32,135.72,64.88,136.54,65.62Zm182-35.05a1.21,1.21,0,0,0,0,2A1.21,1.21,0,0,0,318.5,30.57Zm95,.95c-.62.92-.92,1.56.18,1.94C414.15,32.84,414.19,32.29,413.48,31.52Zm-77,47c-.63.87-.92,1.51.28,2A1.5,1.5,0,0,0,336.48,78.54ZM54,64.08c.32.47.66.47,1,0C54.67,63.62,54.33,63.62,54,64.08Zm335,1c.32.47.66.47,1,0C389.67,64.62,389.33,64.62,389,65.08Zm-369,1c.32.47.66.47,1,0C20.67,65.62,20.33,65.62,20,66.08Zm4,0c-.32-.46-.66-.46-1,0C23.33,66.55,23.67,66.55,24,66.08ZM410.5,12.59c-.47.33-.47.66,0,1C411,13.25,411,12.92,410.5,12.59Zm-283,35q.7-.49,0-1Q126.8,47.09,127.5,47.58ZM312,60.08c.32.47.66.47,1,0C312.67,59.62,312.33,59.62,312,60.08ZM367.5,72.57c.47-.32.47-.65,0-1C367,71.92,367,72.25,367.5,72.57Zm-319-12c-.47.33-.47.66,0,1C49,61.25,49,60.92,48.5,60.59Zm374-14q-.71.49,0,1Q423.21,47.09,422.5,46.59Zm-133,11c.47-.32.47-.65,0-1C289,56.92,289,57.25,289.5,57.57ZM364,75.08c-.32-.46-.66-.46-1,0C363.33,75.55,363.67,75.55,364,75.08Zm-36,1c.32.47.66.47,1,0C328.67,75.62,328.33,75.62,328,76.08ZM47.5,76.59c-.47.33-.47.66,0,1C48,77.25,48,76.92,47.5,76.59ZM128,50.08c.32.47.66.47,1,0C128.67,49.62,128.33,49.62,128,50.08Zm166,27c.32.47.66.47,1,0C294.67,76.62,294.33,76.62,294,77.08Zm-286,2c.32.47.66.47,1,0C8.67,78.62,8.33,78.62,8,79.08Zm120-27c-.32-.46-.66-.46-1,0C127.33,52.55,127.67,52.55,128,52.08Zm156,19c-.32-.46-.66-.46-1,0C283.33,71.55,283.67,71.55,284,71.08Z"/><path class="cls-1" d="M0,61.58c1.94-.32,2.27-3.22,4.7-3,.36,1.11-.7,1.29-1.09,1.82a9.88,9.88,0,0,1-1.73,1.75c-.61.49-.88,1.44-1.88,1.4Z"/><path class="cls-1" d="M1,67.58H0v-3C1.93,65.05.62,66.6,1,67.58Z"/><path class="cls-1" d="M267.27,28.88c1-1.22,1-2.71,2.39-3.24.23.62.45,1.19.87,2.3l1.79-3c2.65,4.53,5.49,8.2,4.6,13.22a2.7,2.7,0,0,0-2.37,2.44l-1.06-1c-.7.36-.31,1.18-.85,1.9-1.5,0-3.08.25-3.87,2l-2.55-1.19c-.32-.85,1.84-1.18.46-2.39-.79-.79-.52,1.09-1,.69-1.67.2-2.24-1.57-3.65-1.44V37l2.19-1-1.94-.67c-.48-.75-.21-1.56-.17-2.44l1.71-.63c.09-.87-1.68-1.29-.39-2.48.73-.27,1.15,1.52,2.21.67,1.81-1.38-2.05-2.4,0-3.93Z"/><path class="cls-1" d="M309,5.8a20,20,0,0,0,2.28-2c2.24.79,1.6,2.71,1.66,4.34l-2.36,2.36c-2.29-.42-3.74,1-4.19,3.91a12.72,12.72,0,0,1-2.78-4.63l-1.49.84c-1.29.13-.93-1-1.32-1.56s-1.08-.51-1.74-.79V5c.39-.67.94-.39,1.4-.46,1.58-.25,2,1.46,3.06,1.87,1.73-.73,1.21-2.5,1.74-3.75,1.27.11.23,1.53,1.16,1.82,1.16-1,.14-2.44.69-3.59.35-.34.35-.34,2.8,2.1A2.76,2.76,0,0,0,309,5.8c-.52-.3-.83-.08-.93.38C308.33,6.85,309.16,6.14,309,5.8Z"/><path class="cls-1" d="M335,22.58h-1.5c-1.69,1.24-2,3.21-3,6.39-.84-2.24-.31-4.12-.55-6-.76-.81-.92.33-1.42.5-1.15-.49.07-2.24-1.35-2.72l3.2-.49L326,18.1c-.24-1.25.81-1.72,1.45-2.48l2.14,2c1.95.17,2.57-3.45,4.31-2.29,1.32.74,1,1.31,1.15,1.84,1,1,2.49,0,3.8.63v3.43l-1.32,1.31c-1.1-.53-1.42-2.34-3.13-1.88C333.56,21.63,335.5,21.73,335,22.58Z"/><path class="cls-1" d="M128.83,37.23V27.7c-1,.19-1.5,1.55-2.74.5L129,26.38c.29.58,1.62.05,2.65.31,1,.93-.61,2.88,1.46,3.23a4.34,4.34,0,0,1-2.87,1.94C129.48,33.37,130.77,35.37,128.83,37.23Z"/><path class="cls-1" d="M118.09,38.56v-2.1c.59-2.15,2.69-1.51,3.4-2.9,1,1.2,2.78,1,3.51,2.61A10.23,10.23,0,0,1,118.09,38.56Z"/><path class="cls-1" d="M406,9.58c-1-1.67-3.68-1.75-4-4.15.25-1.33,2.09-.57,2.44-1.78,1,.47,1.35,1.77,2.57,1.93v4Z"/><path class="cls-1" d="M237,43.58c.17,2.09.18,4.33-1.4,5.78s-2.63,4.3-5.6,4.22C233,50.68,234.56,46.84,237,43.58Z"/><path class="cls-1" d="M236,41.58c1,.08,1.12-.63,1-1.28-.45-2,.73-3.7,1.05-5.56.23-1.37,1-2.33,3.07-2a15.82,15.82,0,0,0-3.29,10.5c0,.1-.53.24-.81.35Z"/><path class="cls-1" d="M308.32,38.81l1.51,3.29v8.33C309.62,46.81,307.43,43.47,308.32,38.81Z"/><path class="cls-1" d="M106.86,32.94l-1.76-1.76V28.46l5,1.63C109.93,32.38,107.65,31.4,106.86,32.94Z"/><path class="cls-1" d="M307.83,22.78V33.43C306.67,29.89,307.17,26.31,307.83,22.78Z"/><path class="cls-1" d="M407.17,5.55V0c1.22,2.53,2.7,4.24,1.43,6.53C408,6.33,407.81,5.42,407.17,5.55Z"/><path class="cls-1" d="M269.49,48.6c-.54-.79-1.7-1.12-1.49-2.34a1.2,1.2,0,0,1,1.06-.71c1.58-.3,2.43,1.22,4,1.36C272.1,48.26,270,46.74,269.49,48.6Z"/><path class="cls-1" d="M290.13,46.59V43.86a2.77,2.77,0,0,1,2.9.22A2.43,2.43,0,0,1,290.13,46.59Z"/><path class="cls-1" d="M267.8,49.79l1.58-.22c1.07,1.79,2.26,3.57,1.1,6.58C269.92,53.56,269.4,51.6,267.8,49.79Z"/><path class="cls-1" d="M279,29.67h1.63c1.17,1.24-.21,1.69-.56,2.48s.31,1.6-.6,2.55C278.69,32.93,279.13,31.33,279,29.67Z"/><path class="cls-1" d="M173,40.61,168,38.1c2.12-1.49,3.41.65,5.05,1Z"/><path class="cls-1" d="M125.09,32.9V31a2.63,2.63,0,0,1,2.85,0C128.16,33.73,126.18,32.05,125.09,32.9Z"/><path class="cls-1" d="M226,39.08a7,7,0,0,1,5,0A7,7,0,0,1,226,39.08Z"/><path class="cls-1" d="M424.26,25.58c.08,1.44,2.36,2.07,1.54,3.84C423.65,28.79,424,27.09,424.26,25.58Z"/><path class="cls-1" d="M278.5,41.87a5.24,5.24,0,0,1,0-4.57A5.24,5.24,0,0,1,278.5,41.87Z"/><path class="cls-1" d="M27,47.58c-1.93-.47-.62-2-1-3C27.93,45.05,26.62,46.6,27,47.58Z"/><path class="cls-1" d="M29,53.58c-1.93-.47-.62-2-1-3C29.93,51.05,28.62,52.6,29,53.58Z"/><path class="cls-1" d="M280.88,58.55a1.87,1.87,0,0,1-.47-2.9C281.83,56.39,280.3,57.71,280.88,58.55Z"/><path class="cls-1" d="M30,56.58c-1.93-.47-.62-2-1-3C30.93,54.05,29.62,55.6,30,56.58Z"/><path class="cls-1" d="M280.12,52.43V49.62C281.05,51.28,281.05,51.28,280.12,52.43Z"/><path class="cls-1" d="M28,50.58c-1.93-.47-.62-2-1-3C28.93,48.05,27.62,49.6,28,50.58Z"/><path class="cls-1" d="M277.5,45.63a2.31,2.31,0,0,1,0-3.09A2.31,2.31,0,0,1,277.5,45.63Z"/><path class="cls-1" d="M131.61,34.47l.74,2.08C131.42,36.94,131,36.38,131.61,34.47Z"/><path class="cls-1" d="M310.29,35.78a2,2,0,0,1,.27,2.8C309.42,37.66,310.46,36.63,310.29,35.78Z"/><path class="cls-1" d="M324.08,45.84V45c.61-.58,1.16-.55,2.12.18Z"/><path class="cls-1" d="M261,76.58c.12-.94-.29-1.94.46-3,.87,1,.41,2.08.54,3Z"/><path class="cls-1" d="M272,58.58l-2-1c.07-1.26.87-1,1.64-.86C272.29,57.27,271.88,58,272,58.58Z"/><path class="cls-1" d="M327.48,34.52c.71.77.67,1.32.18,1.94C326.56,36.08,326.86,35.44,327.48,34.52Z"/><path class="cls-1" d="M273,62.58h2a.78.78,0,0,1-.76,1C273.57,63.64,272.93,63.52,273,62.58Z"/><path class="cls-1" d="M99.4,36.46c-1,1.43-1.65,1.08-2.41.95C97.46,36.13,98.36,36.76,99.4,36.46Z"/><path class="cls-1" d="M326.5,37.51c.65.82.69,1.37.15,2C325.56,39.05,325.85,38.41,326.5,37.51Z"/><path class="cls-1" d="M233.78,39.88c-.52.94-1.07.74-1.68.47C232.49,38.9,233.3,40.11,233.78,39.88Z"/><path class="cls-1" d="M426.59,39.64c.63.71.66,1.69-.14,1.86-1,.2-.15-.89-.42-1.33C426,40.12,426.38,39.83,426.59,39.64Z"/><path class="cls-1" d="M145.52,42.65c-.71-.77-.67-1.32-.18-1.95C146.44,41.09,146.14,41.73,145.52,42.65Z"/><path class="cls-1" d="M325.5,40.57a1.21,1.21,0,0,1,0,2A1.21,1.21,0,0,1,325.5,40.57Z"/><path class="cls-1" d="M119.12,54c-1.43-1-1.07-1.66-1-2.42C119.46,52.05,118.82,52.94,119.12,54Z"/><path class="cls-1" d="M9,74.58v-2c1.52.38.79,1.34,1,2Z"/><path class="cls-1" d="M162.5,44.59a1.21,1.21,0,0,1,0-2A1.21,1.21,0,0,1,162.5,44.59Z"/><path class="cls-1" d="M307.52,18.63a1.5,1.5,0,0,1-.28-2C308.44,17.12,308.15,17.75,307.52,18.63Z"/><path class="cls-1" d="M418,27.58h-1v-2C418.5,25.67,417.85,26.82,418,27.58Z"/><path class="cls-1" d="M267.78,53.88c-.48.89-1,.86-1.64.37C266.45,52.89,267.3,54.13,267.78,53.88Z"/><path class="cls-1" d="M34,50.58c1.5.09.85,1.24,1,2C33.5,52.5,34.15,51.34,34,50.58Z"/><path class="cls-1" d="M336.5,40.57a1.21,1.21,0,0,1,0,2A1.21,1.21,0,0,1,336.5,40.57Z"/><path class="cls-1" d="M329.5,29.51c.65.82.69,1.37.15,1.95C328.56,31.05,328.85,30.41,329.5,29.51Z"/><path class="cls-1" d="M357,53.58c-.18-.56.63-1.28.89-.59A.71.71,0,0,1,357,53.58Z"/><path class="cls-1" d="M442,63.58c-.18-.56.63-1.28.89-.59A.71.71,0,0,1,442,63.58Z"/><path class="cls-1" d="M69,54.08c-.32.47-.66.47-1,0C68.33,53.62,68.67,53.62,69,54.08Z"/><path class="cls-1" d="M370,54.58c-.18-.56.63-1.28.89-.59A.71.71,0,0,1,370,54.58Z"/><path class="cls-1" d="M442,63.58a.85.85,0,0,1-1,1C441,63.89,441.31,63.56,442,63.58Z"/><path class="cls-1" d="M370,54.58a.85.85,0,0,1-1,1C369,54.89,369.31,54.56,370,54.58Z"/><path class="cls-1" d="M399,55.58a.85.85,0,0,1-1,1C398,55.89,398.31,55.56,399,55.58Z"/><path class="cls-1" d="M269,57.58c-.56.19-1.29-.63-.6-.89A.71.71,0,0,1,269,57.58Z"/><path class="cls-1" d="M310,57.08c-.32.47-.66.47-1,0C309.33,56.62,309.67,56.62,310,57.08Z"/><path class="cls-1" d="M397,57.58c0-.69.31-1,1-1A.85.85,0,0,1,397,57.58Z"/><path class="cls-1" d="M335,22.59c.56-.19,1.29.63.6.88A.7.7,0,0,1,335,22.59Z"/><path class="cls-1" d="M418,27.59c.56-.19,1.29.63.6.88A.7.7,0,0,1,418,27.59Z"/><path class="cls-1" d="M72,58.58c-.18-.56.63-1.28.89-.59A.71.71,0,0,1,72,58.58Z"/><path class="cls-1" d="M328,33.08c.32-.46.66-.46,1,0C328.67,33.55,328.33,33.55,328,33.08Z"/><path class="cls-1" d="M173,40.59c.56-.19,1.29.63.6.88A.7.7,0,0,1,173,40.59Z"/><path class="cls-1" d="M236,41.58c-.56.19-1.29-.63-.6-.89A.71.71,0,0,1,236,41.58Z"/><path class="cls-1" d="M276,42.08c-.32.47-.66.47-1,0C275.33,41.62,275.67,41.62,276,42.08Z"/><path class="cls-1" d="M285,57.59c.18.56-.63,1.28-.89.59A.69.69,0,0,1,285,57.59Z"/><path class="cls-1" d="M307,58.08c.32-.46.66-.46,1,0C307.67,58.55,307.33,58.55,307,58.08Z"/><path class="cls-1" d="M130,44.58c-.18-.56.63-1.28.89-.59A.71.71,0,0,1,130,44.58Z"/><path class="cls-1" d="M397,57.59c.18.56-.63,1.28-.89.59A.69.69,0,0,1,397,57.59Z"/><path class="cls-1" d="M354,44.08c-.32.47-.66.47-1,0C353.33,43.62,353.67,43.62,354,44.08Z"/><path class="cls-1" d="M197,45.58c-.56.19-1.29-.63-.6-.89A.71.71,0,0,1,197,45.58Z"/><path class="cls-1" d="M272,58.59c.56-.19,1.29.63.6.88A.7.7,0,0,1,272,58.59Z"/><path class="cls-1" d="M287,45.58c-.18-.56.63-1.28.89-.59A.71.71,0,0,1,287,45.58Z"/><path class="cls-1" d="M197,45.59c.56-.19,1.29.63.6.88A.7.7,0,0,1,197,45.59Z"/><path class="cls-1" d="M411,45.58c.69,0,1,.31,1,1h-1Z"/><path class="cls-1" d="M285,47.58c-.56.19-1.29-.63-.6-.89A.71.71,0,0,1,285,47.58Z"/><path class="cls-1" d="M289,47.58c0-.69.31-1,1-1A.85.85,0,0,1,289,47.58Z"/><path class="cls-1" d="M412,46.58c.69,0,1,.31,1,1h-1Z"/><path class="cls-1" d="M275.5,47.59q.71.49,0,1Q274.79,48.09,275.5,47.59Z"/><path class="cls-1" d="M288,48.58c0-.69.31-1,1-1A.85.85,0,0,1,288,48.58Z"/><path class="cls-1" d="M413,47.58c.69,0,1,.31,1,1h-1Z"/><path class="cls-1" d="M275,62.58c0-.69.31-1,1-1v1Z"/><path class="cls-1" d="M117.5,48.59q.7.49,0,1Q116.8,49.09,117.5,48.59Z"/><circle class="cls-1" cx="287.5" cy="49.08" r="0.71"/><path class="cls-1" d="M98.5,49.59q.7.49,0,1Q97.8,50.09,98.5,49.59Z"/><path class="cls-1" d="M288,49.59c.56-.19,1.29.63.6.88A.7.7,0,0,1,288,49.59Z"/><path class="cls-1" d="M100,52.58c-.56.19-1.29-.63-.6-.89A.71.71,0,0,1,100,52.58Z"/><path class="cls-1" d="M291.12,65.39V60.54C292.27,63.5,292.27,63.5,291.12,65.39Z"/><path class="cls-1" d="M274,66.58c-.18-.56.63-1.28.89-.59A.71.71,0,0,1,274,66.58Z"/><path class="cls-1" d="M274,67.58h-1c0-.69.31-1,1-1Z"/><path class="cls-1" d="M275,68.58a.85.85,0,0,1-1-1C274.69,67.56,275,67.89,275,68.58Z"/><path class="cls-1" d="M183,54.59c.56-.19,1.29.63.6.88A.7.7,0,0,1,183,54.59Z"/><path class="cls-1" d="M172,59.58a.85.85,0,0,1-1,1C171,59.89,171.31,59.56,172,59.58Z"/><path class="cls-1" d="M286,70.58v-1h1A.85.85,0,0,1,286,70.58Z"/><path class="cls-1" d="M21,77.58v-1c.49,0,.93.07.79.67C21.76,77.41,21.28,77.47,21,77.58Z"/><path class="cls-1" d="M131,65.58v1c-.49,0-.93-.06-.79-.66C130.24,65.76,130.72,65.69,131,65.58Z"/></g></g></svg>