<svg xmlns="http://www.w3.org/2000/svg" xmlns:xlink="http://www.w3.org/1999/xlink" preserveAspectRatio="none" viewBox="0 0 1454.97 288.68"><defs><style>.cls-1,.cls-5{fill:none;}.cls-2{clip-path:url(#clip-path);}.cls-3{fill:#34375A;}.cls-4{fill:#FFFFFF;}.cls-5{stroke:#AFE6FF;stroke-miterlimit:10;stroke-width:6.97px;}</style><clipPath id="clip-path"><rect class="cls-1" x="7.06" width="1440" height="288"/></clipPath></defs><title>Asset 2</title><g id="Layer_2" data-name="Layer 2"><g id="Layer_1-2" data-name="Layer 1"><g class="cls-2"><g id="Layer_1-2-2" data-name="Layer 1-2"><g id="Layer_8" data-name="Layer 8"><rect class="cls-3" x="0.21" width="1452.06" height="272.57"/></g><path class="cls-4" d="M1452.26,288.35H.21V86.88C109.74,45.55,137.14,15.4,219.39,7.75c260.17-24.19,404.46,201.41,802.83,228.3,160.65,10.86,345.39-94.67,430.05-90.89C1455.68,475.32,1451.14-33.92,1452.26,288.35Z"/><path class="cls-5" d="M1453.77,232.82c-35.52,13.07-75.51,26-112.71,35.84-57.31,13.82-113.61,20.74-171.92,13.82a449.35,449.35,0,0,1-72.4-14.8c-9-3-18.09-5.93-28.15-8.89A371.66,371.66,0,0,1,1022.34,241c-88.47-35.54-169.91-80-255.38-125.39-16.08-7.9-31.16-14.81-47.25-21.72-12.07-4-23.12-8.88-36.2-11.85-18.09-4-34.18-7.89-52.28-10.86-20.11-2-39.21-4-58.31-4.93-17.09-1-33.18,0-50.27,2-39.22,2-77.42,7.9-117.64,15.8-1,0-3,2-4,2-32.17,6.91-61.33,13.83-91.49,23.7-3,1-7,1-10.06,2-21.11,6.91-40.22,12.84-61.33,19.75C171.75,155.12,8.41,212,.39,212.89"/></g></g></g></g></svg>