<svg xmlns="http://www.w3.org/2000/svg" preserveAspectRatio="none" viewBox="0 0 1236.37 498.71"><defs><style>.cls-1{fill:#34375A;}.cls-2{fill:#fff;}.cls-3{fill:#AFE6FF;}</style></defs><title>Asset 2</title><g id="Layer_2" data-name="Layer 2"><g id="Layer_1-2" data-name="Layer 1"><path class="cls-1" d="M.1,246.09q0-121-.1-242C0,.67.67,0,4.1,0q613.5.15,1227,0c3.42,0,4.1.67,4.09,4.09q-.17,228.51-.09,457c-2.95,3.81-6.23,1.59-9.84,1.1-12.83-1.76-24.08-7.68-35.61-12.75-30.06-13.19-59.16-28.37-88.06-43.88-52.82-28.35-105.41-57.2-160.55-80.87-41.68-17.89-84.5-32.65-129-42.14-26.75-5.7-53.81-8.47-81.14-9.91-19.27-1-38.17,1.54-57.24,2.48a19.11,19.11,0,0,1-9.24-1.42c-2.76-.38-5-2-7.23-3.38-1-.56-1.61-1.56-2.79-1.75a13.24,13.24,0,0,1-3.51-1.59c-.85-.57-1.54-1.41-2.62-1.62a22.3,22.3,0,0,1-3.42-1.53c-1.3-1-2.53-2.17-4.29-2.35a6,6,0,0,1-1.77-.7c-1.34-1-2.62-2.19-4.44-2.31a26.49,26.49,0,0,1-6.42-3.39c-.88-.6-1.57-1.49-2.7-1.7A28.69,28.69,0,0,1,620,251c-.89-.56-1.6-1.43-2.73-1.57a34.12,34.12,0,0,1-6.26-3.39c-.87-.56-1.55-1.45-2.69-1.56a12.12,12.12,0,0,1-3.49-1.64c-1.27-1.14-2.54-2.27-4.37-2.4a26.19,26.19,0,0,1-6.39-3.36c-.88-.58-1.54-1.5-2.66-1.72a22.45,22.45,0,0,1-3.53-1.6,11.32,11.32,0,0,0-3.8-2.35,6.38,6.38,0,0,1-1.15-.55,6.34,6.34,0,0,0-2.72-1.44,11.8,11.8,0,0,1-3.42-1.62c-1.26-1.14-2.54-2.23-4.34-2.37a27,27,0,0,1-6.39-3.34c-.89-.56-1.56-1.48-2.71-1.6a11.9,11.9,0,0,1-3.46-1.62c-1.25-1.08-2.46-2.25-4.24-2.4a9.88,9.88,0,0,1-3.46-1.41c-.87-.51-1.49-1.37-2.46-1.74a7.53,7.53,0,0,1-1-.61,5.2,5.2,0,0,0-2.54-1.33,12.57,12.57,0,0,1-3.29-1.51,7,7,0,0,0-2.56-1.56,22,22,0,0,1-3.4-1.52c-1.3-1-2.52-2.16-4.28-2.34a6,6,0,0,1-1.77-.7c-1.34-1-2.61-2.19-4.42-2.31a27.3,27.3,0,0,1-6.4-3.35c-.89-.56-1.56-1.48-2.71-1.6a11.79,11.79,0,0,1-3.48-1.63c-1.26-1.1-2.48-2.26-4.28-2.39a10.38,10.38,0,0,1-3.53-1.45c-.88-.51-1.53-1.42-2.65-1.53A13.33,13.33,0,0,1,500,188c-.87-.53-1.54-1.38-2.64-1.53a7.38,7.38,0,0,1-1.72-.83,7.7,7.7,0,0,0-3.91-2.13,5.85,5.85,0,0,1-1.86-.72c-1.24-.91-2.36-2-4-2.25a6.43,6.43,0,0,1-1.85-.63c-.92-.48-1.67-1.32-2.79-1.42a12.7,12.7,0,0,1-3.49-1.6,10,10,0,0,0-5.06-2.37,9.5,9.5,0,0,1-3.55-1.4c-.89-.5-1.53-1.4-2.62-1.58a8.26,8.26,0,0,1-1.7-.74,6,6,0,0,0-2.74-1.32,23.27,23.27,0,0,1-6-2.35c-.92-.52-1.58-1.46-2.72-1.61a7.3,7.3,0,0,1-1.77-.82,11.33,11.33,0,0,0-4.68-2.16,5.78,5.78,0,0,1-1.86-.59c-.94-.48-1.68-1.35-2.82-1.45a12.62,12.62,0,0,1-3.52-1.61,9.24,9.24,0,0,0-5.15-2.31,6,6,0,0,1-2.53-.65,13,13,0,0,0-5.3-2.4,5.65,5.65,0,0,1-1.86-.65,10.72,10.72,0,0,0-5.25-2.29,6,6,0,0,1-2.51-.63,13.94,13.94,0,0,0-5.12-2.41,5.39,5.39,0,0,1-1.79-.55c-.91-.41-1.58-1.27-2.64-1.43a15.89,15.89,0,0,1-1.78-.43,6.84,6.84,0,0,0-2.4-.56,7.06,7.06,0,0,1-2.45-.72,11.58,11.58,0,0,0-5.13-2.26,5.94,5.94,0,0,1-2.46-.56c-1-.37-1.67-1.22-2.71-1.44a12.4,12.4,0,0,1-1.8-.43,6.77,6.77,0,0,0-2.38-.55,7.76,7.76,0,0,1-3.09-.59c-1-.35-1.7-1.21-2.74-1.44a9.61,9.61,0,0,1-1.76-.51,7.6,7.6,0,0,0-4-.94,5.45,5.45,0,0,1-1.79-.37c-1.07-.55-2-1.34-3.34-1.26a10.55,10.55,0,0,1-1.85-.33,6.21,6.21,0,0,0-2.48-.5,9.84,9.84,0,0,1-3.91-.57c-1-.35-1.8-1.24-2.91-1.41a15,15,0,0,1-2.58-.46,6.64,6.64,0,0,0-2.56-.54,9.67,9.67,0,0,1-4-.6c-1.2-.46-2.15-1.55-3.57-1.5a8.39,8.39,0,0,1-2.59-.35,10.68,10.68,0,0,0-5.63-.94,6.59,6.59,0,0,1-2.6-.43,6.6,6.6,0,0,0-4.35-1.29,8.61,8.61,0,0,1-2.77-.3c-2.76-.82-5.51-1.58-8.42-.75a10.42,10.42,0,0,1-5.31-.43,8.68,8.68,0,0,0-6.62-1.39,12.59,12.59,0,0,1-5.69-.32c-6.34-.85-12.61-3.11-19.08-.81a35.61,35.61,0,0,1-12.27,0c-6.43-2.36-12.7-.31-19,.69a10,10,0,0,1-4.81.38,8.67,8.67,0,0,0-6.53,1.34,8.8,8.8,0,0,1-4.49.45c-2.68-.87-5.17,0-7.67.85a9.19,9.19,0,0,1-3.58.29c-1.8-.3-3.15.8-4.62,1.53a10.58,10.58,0,0,1-5.05.54,6.61,6.61,0,0,0-3.45.57,9.08,9.08,0,0,1-2.74.34c-1.47-.13-2.46,1-3.68,1.46a9.87,9.87,0,0,1-4,.64,5.79,5.79,0,0,0-2.53.48,9.92,9.92,0,0,1-1.87.34c-1.33-.1-2.31.76-3.41,1.29a6.07,6.07,0,0,1-1.84.36,10.55,10.55,0,0,0-4.79.91,9.66,9.66,0,0,1-1.77.49c-1.05.13-1.75,1-2.68,1.37a7,7,0,0,1-2.38.61,8.08,8.08,0,0,0-2.32.59,13.25,13.25,0,0,1-1.73.43c-1,.2-1.71,1-2.62,1.38a6.68,6.68,0,0,1-2.36.6,8.44,8.44,0,0,0-2.32.6,11.92,11.92,0,0,1-1.76.44c-1,.24-1.72,1.06-2.67,1.44a6.44,6.44,0,0,1-2.44.56,11,11,0,0,0-5.1,2.28,5.89,5.89,0,0,1-1.82.64,11.83,11.83,0,0,0-5.17,2.35,5.72,5.72,0,0,1-1.83.65,12,12,0,0,0-5.17,2.34,5.88,5.88,0,0,1-1.81.66,10.27,10.27,0,0,0-5.07,2.38,12.64,12.64,0,0,1-3.48,1.6c-1.12.1-1.86.94-2.79,1.42a6.33,6.33,0,0,1-1.85.63c-1.6.23-2.71,1.32-3.92,2.25a21.47,21.47,0,0,1-3.56,1.61c-1.12.2-1.81,1.11-2.73,1.64a59,59,0,0,1-6.42,3.31,8.71,8.71,0,0,0-4.38,2.66c-3.88,2.62-8.08,4.72-12.08,7.14a9.35,9.35,0,0,0-2.8,1.66,6.72,6.72,0,0,1-1.16.6,8.48,8.48,0,0,0-3.74,2.46,57.71,57.71,0,0,1-6.59,4.35,8.92,8.92,0,0,0-2.66,1.88c-3.3,2.34-6.65,4.59-10.08,6.73a11.08,11.08,0,0,0-2.57,1.84c-.64.52-1.33,1-2,1.43a11.44,11.44,0,0,0-1.93,1.47,7.59,7.59,0,0,1-1,.7,8.55,8.55,0,0,0-2.37,1.95,58.82,58.82,0,0,1-6.17,4.6,8.79,8.79,0,0,0-2.39,1.9,10.5,10.5,0,0,1-1.94,1.44,9.12,9.12,0,0,0-2.4,1.73c-1,.76-2,1.48-3,2.19a6.38,6.38,0,0,0-2.63,2.69,9.84,9.84,0,0,1-3.12,2.47c-2.62.63-3.78,2.85-5.18,4.81-7.78,7.13-15.83,14-23.19,21.57C4.72,245.24,3.16,247.8.1,246.09Z"/><path class="cls-2" d="M1235.1,472.09c4.77,22.09-3.84,26.66-26,26.62q-602.28-1.26-1204.59-.5c-4,0-4.53-1-4.52-4.69q.2-102.7.1-205.43c2-.81,3.53.47,5,1.43,31.13,20,64.36,35.77,98.82,48.93a583.32,583.32,0,0,0,63.4,19.79c14,3.6,28.12,7,42.39,9.5,19.84,3.43,39.8,6,59.9,7.65,10.81.87,21.62.43,32.42,1.55,11.77,1.23,23.61-.6,35.41-1.06a284.09,284.09,0,0,0,45.07-5.48,560.09,560.09,0,0,0,82.21-22.86c34.92-12.78,68.59-28.58,103.32-41.76,33.57-12.73,67.8-23,103.64-27.19a19.11,19.11,0,0,1,9.33,1.05c10.39,4.09,20.33,9.18,30.33,14.12A1892.12,1892.12,0,0,0,897,373.07c44.46,16.31,89.53,30.65,135.1,43.41,39.94,11.18,80.19,21.15,120.91,29.2,8.14,1.61,16.47,2.56,24.35,5.43.88.44,1.62,1.28,2.66,1.28,14.1,0,26.17,6.74,38.74,11.76,4.47,1.79,9.06,3.26,13.41,5.33A10.43,10.43,0,0,1,1235.1,472.09Z"/><path class="cls-2" d="M566.37,220.88l6.75,3.48a23.78,23.78,0,0,0,4.37,2.46l3.59,1.78c.8.36,1.47.92,2.24,1.32a.63.63,0,0,1,.81.33,14.31,14.31,0,0,0,4.45,2.52l3.51,1.79c.8.38,1.46,1,2.31,1.31l6.71,3.49a22.64,22.64,0,0,0,4.41,2.45l3.57,1.75a25.12,25.12,0,0,0,2.32,1.31l6.72,3.41c.83.54,1.43,1.5,2.6,1.38l5.36,2.86a15,15,0,0,0,2.34,1.33l6.7,3.41a14.25,14.25,0,0,0,4.46,2.51l1.52.64a27.5,27.5,0,0,0,4.39,2.4l3.59,1.74a17.22,17.22,0,0,0,2.34,1.3l3.65,1.76c.8.35,1.48.93,2.28,1.28l6.77,3.37c2.66,2.92,2.52,3.76-1.31,4.55-5.38,1.1-10.82,1.93-16.22,2.9-27.66,5-54.27,13.49-80.51,23.3-35,13.06-68.87,28.75-103.88,41.67A496.69,496.69,0,0,1,363.3,370.5a405,405,0,0,1-74.18,4.36,524.34,524.34,0,0,1-80.79-9,638.83,638.83,0,0,1-76-19.18C96.27,335,61.46,320.31,28.62,301.32,18.73,295.6,8.74,289.77.1,282.09v-36l28.79-25.17c2-1.2,3.26-3.24,5.2-4.51L37,214c1.1-.84,2-1.87,3.1-2.73L42.94,209a26,26,0,0,0,2.13-1.62l1.81-1.41a12.11,12.11,0,0,0,2.22-1.7l6.8-5.29a17,17,0,0,0,2.17-1.62.6.6,0,0,1,.74-.43c.94-.29,1.51-1.11,2.3-1.62L62.93,194c.78-.48,1.46-1.09,2.21-1.6l10.76-7.42c.78-.42,1.44-1,2.2-1.48l6.81-4.52a35.26,35.26,0,0,0,4.15-2.72.53.53,0,0,1,.71-.35,9.71,9.71,0,0,0,2.31-1.49l12.68-7.52a24.88,24.88,0,0,0,4.31-2.54l6.71-3.45a20.32,20.32,0,0,0,2.32-1.31l3.58-1.74a30.6,30.6,0,0,0,4.41-2.36l1.61-.63a10.85,10.85,0,0,0,2.4-1.28l3.72-1.66c1.66-1,3.68-1.33,5.26-2.55l1.6-.52c1.8-.83,3.77-1.29,5.39-2.49l1.6-.51a34.53,34.53,0,0,0,5.41-2.43l1.67-.53c1.74-.89,3.63-1.41,5.35-2.35l2.53-.72c.92-.12,1.61-.78,2.5-1l2.07-.54a6.53,6.53,0,0,0,1.9-.81l2.53-.68c.92-.12,1.61-.79,2.5-1l2.06-.56a4.56,4.56,0,0,0,1.9-.86l2.47-.65c1,0,1.67-.76,2.56-1l2.1-.4c1.72,0,3.18-1.06,4.84-1.31l1.53-.24c1.2-.32,2.35-.75,3.52-1.15l2.09-.34a11.53,11.53,0,0,0,1.92-.59l4.39-1c1.24-.18,2.39-.72,3.61-1l3.09-.46a8.3,8.3,0,0,0,2.9-.72l5.37-.89a34.87,34.87,0,0,0,4.62-1.1l4.09-.34c2.4.25,4.5-1.22,6.86-1.18l4.39-.41c2.16-.74,4.52-.21,6.67-1l5.1-.3c6.27-.59,12.5-1.65,18.83-1.22h13.12c6.33-.53,12.54.92,18.83,1.22l6.09.36c2.16.72,4.5.23,6.65,1l5.42.4c2.68,0,5.15,1.31,7.84,1.23l3.08.39c1.49.47,3.08.53,4.55,1.08l2.52.29c1.68.18,3.12,1.33,4.88,1.15l3.06.49c1.19.31,2.34.78,3.55,1.06l4.45.89a7.28,7.28,0,0,0,1.93.58l3.06.56c.93.15,1.63,1,2.65.88l4.35,1a8.16,8.16,0,0,0,1.94.63l2.08.32a22.43,22.43,0,0,0,3.56,1.16l1.48.27c1.41.07,2.49,1.11,3.87,1.27l2.07.46c.91.21,1.61,1,2.6,1l3.41.86a8.23,8.23,0,0,0,1.92.72l2.06.55c.89.17,1.59.82,2.48,1l2.56.73a28.87,28.87,0,0,0,5.61,2.15l2.41.61a3.36,3.36,0,0,0,1.9.89l2.05.59c.85.23,1.54.85,2.4,1.08l1.65.49a19.4,19.4,0,0,0,5.56,2.37l2.42.75a43.61,43.61,0,0,0,5.45,2.34l1.58.48a18.05,18.05,0,0,0,5.51,2.45l2.45.85c1.73.85,3.61,1.35,5.3,2.3l3.71,1.6c.85.41,1.5,1.22,2.53,1.26l1.51.51c1.57,1.32,3.58,1.73,5.38,2.56l1.6.56c.86.46,1.45,1.49,2.65,1.23l6.32,3c.83.37,1.49,1.09,2.43,1.24l1.6.57c.86.46,1.46,1.45,2.63,1.25l3.39,1.61c1.51,1.36,3.58,1.61,5.25,2.65l3.7,1.66c.83.39,1.48,1.11,2.43,1.26l1.59.64c1.48.78,2.8,1.88,4.46,2.34l1.54.61c1.47.84,2.8,2,4.49,2.36l1.52.6c.84.48,1.45,1.44,2.61,1.29l3.39,1.68c.84.5,1.44,1.48,2.62,1.31l3.37,1.76a26.39,26.39,0,0,0,4.38,2.43l3.6,1.76c.79.37,1.46,1,2.28,1.31l6.76,3.41a14.69,14.69,0,0,0,4.47,2.46l1.51.62a23,23,0,0,0,4.41,2.42l3.57,1.74a15.46,15.46,0,0,0,2.35,1.31l3.64,1.77c.8.35,1.47.91,2.25,1.28a.64.64,0,0,1,.81.34c.82.55,1.4,1.59,2.63,1.37,1.11.59,2.23,1.17,3.35,1.75a22.28,22.28,0,0,0,4.4,2.45l3.56,1.77C564.88,220,565.55,220.55,566.37,220.88Z"/><path class="cls-3" d="M.1,282.09c28.29,16.85,56.61,33.54,87.27,46a616.58,616.58,0,0,0,186,44.17c96.35,7.56,183.1-24.82,269.07-61.88C581,293.79,620.87,280.88,662.71,275c.59-.08.95-1.79,1.42-2.74,19.82-.41,39.66-1.46,59.47-1.12,120.06,2.08,224.86,51.58,328,106,53.49,28.24,106,58.51,162.44,80.75,6.43,2.53,14,2.18,21,3.16v11l-58-19.63c.36-2.55-1.78-2.94-3.34-3.67-43.81-20.73-86.38-43.86-129.06-66.8-32-17.18-64.2-33.89-97.53-48.33-36.39-15.78-73.41-29.94-111.85-39.9a460.23,460.23,0,0,0-86.59-14,435.77,435.77,0,0,0-67.69,1.33c-41.77.18-80.48,13.66-118.27,29.17-82.73,34-164.55,71-256.79,68.74C195.94,376.23,93.3,347.89.1,288.09Z"/><path class="cls-3" d="M269,119.07l-18.83,1.22Z"/><path class="cls-3" d="M301,120.3l-18.83-1.22Z"/><path class="cls-3" d="M327,123.28l-7.84-1.23Z"/><path class="cls-3" d="M234.05,122l-6.86,1.18Z"/><path class="cls-3" d="M34.09,216.41l-5.2,4.51Z"/><path class="cls-3" d="M245.11,120.59l-6.67,1Z"/><path class="cls-3" d="M313.73,121.65l-6.65-1Z"/><path class="cls-3" d="M342,126.19,337.14,125Z"/><path class="cls-3" d="M190.06,131l-4.84,1.31Z"/><path class="cls-3" d="M160.1,140.5l-5.35,2.35Z"/><path class="cls-3" d="M400.71,142.67l-5.61-2.15Z"/><path class="cls-3" d="M153.08,143.38l-5.41,2.43Z"/><path class="cls-3" d="M452.52,163.8l-5.38-2.56Z"/><path class="cls-3" d="M146.07,146.32l-5.39,2.49Z"/><path class="cls-3" d="M416.68,148.7l-5.56-2.37Z"/><path class="cls-3" d="M139.08,149.33l-5.26,2.55Z"/><path class="cls-3" d="M424.55,151.79l-5.45-2.34Z"/><path class="cls-3" d="M431.64,154.72l-5.51-2.45Z"/><path class="cls-3" d="M478.39,175.88l-5.25-2.65Z"/><path class="cls-3" d="M439.39,157.87l-5.3-2.3Z"/><path class="cls-3" d="M223.1,123.56l-4.62,1.1Z"/><path class="cls-3" d="M334.62,124.75l-4.55-1.08Z"/><path class="cls-3" d="M378,135.26,374.13,134Z"/><path class="cls-3" d="M645.5,262.81l-4.39-2.4Z"/><path class="cls-3" d="M126.09,155.45l-4.41,2.36Z"/><path class="cls-3" d="M605.52,241.81l-4.41-2.45Z"/><path class="cls-3" d="M109.07,164.31l-4.31,2.54Z"/><path class="cls-3" d="M89.06,176.21l-4.15,2.72Z"/><path class="cls-3" d="M490.57,181.78l-4.47-2.34Z"/><path class="cls-3" d="M496.6,184.75l-4.49-2.36Z"/><path class="cls-3" d="M514.49,193.82l-4.38-2.43Z"/><path class="cls-3" d="M531.6,202.76l-4.47-2.46Z"/><path class="cls-3" d="M537.52,205.8l-4.41-2.42Z"/><path class="cls-3" d="M560.52,217.81l-4.4-2.45Z"/><path class="cls-3" d="M577.49,226.82l-4.37-2.46Z"/><path class="cls-3" d="M588.58,232.77l-4.45-2.52Z"/><path class="cls-3" d="M639.59,259.77l-4.46-2.51Z"/><path class="cls-3" d="M40.11,211.26,37,214Z"/><path class="cls-3" d="M207.12,126.73l-3.61,1Z"/><path class="cls-3" d="M348.63,127.74l-3.55-1.06Z"/><path class="cls-3" d="M213.11,125.55l-2.9.72Z"/><path class="cls-3" d="M372.65,133.72l-3.56-1.16Z"/><path class="cls-3" d="M195.11,129.61l-3.52,1.15Z"/><path class="cls-3" d="M355,129.21l-1.93-.58Z"/><path class="cls-3" d="M360.72,130.65l-2.65-.88Z"/><path class="cls-3" d="M367,132.24l-1.94-.63Z"/><path class="cls-3" d="M183.12,132.71l-2.56,1Z"/><path class="cls-3" d="M178.09,134.38l-1.9.86Z"/><path class="cls-3" d="M174.13,135.8l-2.5,1Z"/><path class="cls-3" d="M382.67,136.7l-2.6-1Z"/><path class="cls-3" d="M169.1,137.46l-1.9.81Z"/><path class="cls-3" d="M388,138.28l-1.92-.72Z"/><path class="cls-3" d="M506.74,189.63l-2.62-1.31Z"/><path class="cls-3" d="M445.63,160.73l-2.53-1.26Z"/><path class="cls-3" d="M65.14,192.35,62.93,194Z"/><path class="cls-3" d="M61.11,195.26l-2.3,1.62Z"/><path class="cls-3" d="M520.37,196.89l-2.29-1.31Z"/><path class="cls-3" d="M58.07,197.31l-2.17,1.62Z"/><path class="cls-3" d="M92.08,174.37l-2.31,1.49Z"/><path class="cls-3" d="M456.77,165.59l-2.66-1.23Z"/><path class="cls-3" d="M49.1,204.22l-2.23,1.7Z"/><path class="cls-3" d="M45.07,207.33,42.94,209Z"/><path class="cls-3" d="M118.1,159.55l-2.32,1.31Z"/><path class="cls-3" d="M549.33,211.9l-2.25-1.28Z"/><path class="cls-3" d="M199.12,128.68l-1.92.59Z"/><path class="cls-3" d="M552.77,213.61l-2.63-1.37Z"/><path class="cls-3" d="M484.52,178.8l-2.43-1.26Z"/><path class="cls-3" d="M130.1,153.54l-2.4,1.28Z"/><path class="cls-3" d="M566.37,220.88l-2.29-1.3Z"/><path class="cls-3" d="M465.52,169.8l-2.43-1.24Z"/><path class="cls-3" d="M583.32,229.92l-2.24-1.32Z"/><path class="cls-3" d="M469.75,171.62l-2.63-1.25Z"/><path class="cls-3" d="M594.4,235.87l-2.31-1.31Z"/><path class="cls-3" d="M409.47,145.84l-2.4-1.09Z"/><path class="cls-3" d="M611.41,244.87l-2.32-1.31Z"/><path class="cls-3" d="M620.73,249.66l-2.6-1.38Z"/><path class="cls-3" d="M628.43,253.85l-2.34-1.33Z"/><path class="cls-3" d="M78.1,183.45l-2.2,1.48Z"/><path class="cls-3" d="M500.73,186.64l-2.61-1.29Z"/><path class="cls-3" d="M651.43,265.85l-2.34-1.3Z"/><path class="cls-3" d="M657.36,268.89l-2.28-1.28Z"/><path class="cls-3" d="M405,144.17l-1.9-.89Z"/><path class="cls-3" d="M392.54,139.79l-2.48-1Z"/><path class="cls-3" d="M165.13,138.81l-2.5,1Z"/><path class="cls-3" d="M543.44,208.85l-2.35-1.31C541.88,208,542.66,208.41,543.44,208.85Z"/><path class="cls-1" d="M681.06,281.05c4.65-1.09,9.25-2.85,14-3.18,108-7.6,204.93,29.35,299.09,75.8,61.56,30.37,122.08,62.87,183,94.47a22,22,0,0,1,3.5,2.81l-3.52,1.51C1004.28,419,839.84,361.22,682.89,281.77A19.31,19.31,0,0,0,681.06,281.05Z"/></g></g></svg>