<svg xmlns="http://www.w3.org/2000/svg" viewBox="0 0 1638.8 600" preserveAspectRatio="none"><defs><style>.cls-1{fill:#34375a;}.cls-2{fill:none;stroke:#f6a079;stroke-miterlimit:10;stroke-width:7px;}</style></defs><g id="Layer_11" data-name="Layer 11"><path class="cls-1" d="M1767.53,291.7c-115.6,129.22-260.35,238.07-415.5,227.65-35.3-2.38-71.64-11.67-99.94-38s-46.5-73-36.87-115.34C1088.42,495.74,922.8,565.32,758.74,557.73c-218-10.09-427.8-150.12-644.53-119.06-70.51,10.1-139.29,38.54-200.64,83-14.87,10.77-31.39,28.57-26.88,49.23C-108,491.16-105.9,411.19-84,336c21.73-74.52,51.79-148.22,51.5-227.49-.18-48.44-7-109.74,27-133.3C4.93-32,17.17-33.49,29-34.57,102-41.26,175.19-37.92,248.31-38c415.6-.7,826.09-112.93,1241.17-138.86,46.57-2.91,98.19-2.63,133.14,35.79,18.62,20.47,29.8,49.21,40,77.42C1703.77,50.33,1743.77,170.24,1767.53,291.7Z"/></g><g id="Layer_9" data-name="Layer 9"><path class="cls-2" d="M-34.39,507.8C37.07,579.63,152.75,577.34,253,562.55c378.48-55.82,739.1-219.11,1121.33-235.23,65-2.74,130.8-1.11,194.28,13.31,45.76,10.4,91.63,28.46,123.64,62.77S1739,491.14,1718,533.09"/></g></svg>