<svg id="Layer_5" data-name="Layer 5" xmlns="http://www.w3.org/2000/svg" xmlns:xlink="http://www.w3.org/1999/xlink" viewBox="0 0 1750 400"><defs><style>.cls-1{fill:none;}.cls-2{clip-path:url(#clip-path);}.cls-3{fill:#417180;}</style><clipPath id="clip-path"><rect class="cls-1" x="-1" y="-2" width="1756" height="407"/></clipPath></defs><g class="cls-2"><g id="Layer_4" data-name="Layer 4"><path class="cls-3" d="M1876.06,74.63a512,512,0,0,0-176.19,21.14c-131.45,39.82-242.24,131-372.53,174.44-32.82,11-67.08,18.83-101.68,18.24s-69.72-10.16-97.13-31.27c-18.18-14-34-33.43-56.54-37.83-14.08-2.75-28.61,1-42.94.25s-28.25-10.28-30.18-24.5C887.46,186.32,777.11,216.33,666,228.68c-16.82,1.87-47.16-5.82-50.62-22.38-144.34-2-277.81,71.14-418,105.4-5,1.22-10.14,2.4-15.21,1.61-5.62-.87-10.56-4.05-15.4-7C96,262.8,11.24,249.94-70.94,238c-5.15,35.34-9.69,70.1-6.63,105.69,1.07,12.42,2.79,25.27,9.44,35.82,13.8,21.93,43.14,26.73,68.9,29.4,296,30.67,594,59.24,890.74,37.19,116.6-8.66,232.63-25.12,349.45-29.84,178.27-7.2,357.69,13,534.82-8.48,7.45-.9,15.29-2,21.2-6.67,7.73-6,10.25-16.45,12.28-26C1830.3,275.92,1855,173.76,1876.06,74.63Z"/><path class="cls-1" d="M26.44,271a177.77,177.77,0,0,1-32-96"/><path class="cls-3" d="M38.46,264.88a189.55,189.55,0,0,1-44.15-97.3C-2.91,206.15,8,241.05,38.46,264.88Z"/><path class="cls-3" d="M49.29,285.06c.25,1,1.66,1.18,2.47.6a4.37,4.37,0,0,0,1.41-2.56c2.56-9.78,1.12-20.17-1.28-30-3.31-13.53-8.38-26.56-13.43-39.55L27.28,184.83c-1.27.71.73,2.73,1.43,4,7.24,13,16.39,25,22.78,38.42s9.88,29.2,5,43.26C54.2,277,56,283.73,49.29,285.06Z"/><path class="cls-3" d="M69.94,278.25c6.2-20-3.41-41.12-6.5-61.87a99.76,99.76,0,0,1,3.14-43.31c2.49-8.27,6.89-18.74,15.45-22,3.25-1.24,6.07,1.28,10.32-1.57a16.38,16.38,0,0,0,6-8.18,3.79,3.79,0,0,0,.09-2.88C93.8,129.21,80.8,150.2,79,153.28,72.92,163.51,67,173,67,185.44c0,12.2,4.11,24.08,9.69,34.94,6.06,11.78,14,22.92,16.71,35.89S91.6,285.11,79.28,290"/><path class="cls-3" d="M92.14,286.05a77.91,77.91,0,0,0,11.11-62.61c6.13,11.1,10.71,24.22,10.56,36.9S103.78,281,92.14,286.05Z"/><path class="cls-3" d="M51.44,273.38c-3-3.46-4.53-7.93-5.8-12.32a165.3,165.3,0,0,1,8.09-113c-15.82,22.74-24.88,53.11-23.17,80.76.63,10.15,2.56,20.37,7.14,29.45S42,269.6,51.44,273.38Z"/><path class="cls-3" d="M149.62,304.41c-21-14.77-33.16-41.34-30.52-66.91-.89,4.76.56,9.46,2.7,13.81,10.49,21.36,30.4,37,40.73,58.4,2.65,5.49,4.54,12.28,1.3,17.44,2.9-17.73-2.15-35.53-11-51.19,5.77,3.1,9.93,8.52,13.23,14.18a81.59,81.59,0,0,1,11,42"/><path class="cls-3" d="M253,317.84a108.32,108.32,0,0,0,42.1-66.23c-2.4,20.28-12.82,41.93-28.54,55"/><path class="cls-3" d="M291,300a90.73,90.73,0,0,0,33.86-70.81c-.07-8.32-1.63-17.27-7.55-23.11-.81,21.4-5,46-16,64.45,1.54-14.85-1.35-27.59-4.58-42.17a209.64,209.64,0,0,1-.29,48c-2,16.17-8.08,32.35-19.81,43.65"/><path class="cls-3" d="M340.66,290.08c-1.32-.5-.94-2.47-.29-3.73a135.22,135.22,0,0,1,84.23-67.84c-8,2.4-15,7.11-21.35,12.59a157.91,157.91,0,0,0-46,68.71"/><path class="cls-3" d="M390.69,286.11c-1.42-16.57-1.71-33.36.46-49.89a142.54,142.54,0,0,1,5.16-24.09c2.12-6.8,7.36-14.36,7.73-21.33a189.69,189.69,0,0,0-20.49,57.06c-4.28,23.15-2.86,47.92,7.67,69"/><path class="cls-3" d="M493.67,225.65A93.33,93.33,0,0,0,569.3,119.06c.18,23.24-3.69,50-14,70.86s-27.51,38.72-49.13,47.24"/><path class="cls-3" d="M515.68,233.43a90.36,90.36,0,0,1,20.83-64.22,75.5,75.5,0,0,0-25.15,36.73,68.18,68.18,0,0,0,1.48,42.22"/><path class="cls-3" d="M452.69,138.85a25.29,25.29,0,0,0-5.56-23c-.82-.91-2-1.84-3.17-1.41s-1.46,2.15-1.34,3.48c.62,7.27,5.18,11.17,8,17.26,2.39,5.2,3.45,11.73,4.57,17.32a146.82,146.82,0,0,1,2.67,37.24C456.5,214,449,238.67,433.13,257.46c24.14-36.06,30.45-83.46,16.6-124.58.18.48.35,1,.52,1.46"/><path class="cls-3" d="M453.58,246c8.76-7,14.93-16.9,18.78-27.44,4.62-12.66,5.55-25.41,6.07-38.65,5.29,13.33,6,25.83,1.83,39.56S465.38,237.86,453.58,246Z"/><path class="cls-3" d="M418.6,268.92A156.35,156.35,0,0,1,462.76,167c5.61-5.73,11.84-11.11,19.3-14s16.4-3,23.1,1.37c-9.58-6.63-25.07-7.3-35-1.18S453.4,169.29,448,179.6a158.09,158.09,0,0,0-17.47,85.94"/><path class="cls-3" d="M464.51,236.51A142.62,142.62,0,0,0,506.72,195c4.31-6.53,8.19-13.8,8.24-21.62-7.34,31.6-33,62.82-62.32,76.61"/><path class="cls-3" d="M620.35,233.33c-3.13,0-5.21-3.13-6.67-5.9-5.22-9.88-10.34-20.06-12.08-31.1s.36-23.23,8-31.34a61.84,61.84,0,0,0-16.1,31.92,50.79,50.79,0,0,0,.83,23.86A35,35,0,0,0,608.12,240"/><path class="cls-3" d="M676.49,237.22C658.62,232.5,646.4,215.91,639,199a60.66,60.66,0,0,0,9.69,38.39C634.4,225,625.8,201.52,630.31,183.21c-5.8,18.69-1.36,42,12.44,55.89"/><path class="cls-3" d="M754.69,231.53a134.94,134.94,0,0,1,99-42.3c-19,3.31-34.71,15.29-49.31,27.89s-26.7,27.8-38.38,43.15"/><path class="cls-3" d="M810.73,217.66a170.77,170.77,0,0,0,87.94-58.24c-18,40.16-56.3,73-99.49,81.39"/><path class="cls-3" d="M1154.35,287a842.8,842.8,0,0,0-58.9-79.26c15.57,10.07,33.2,25.61,44.26,40.5s18.09,33.35,16.63,51.84c1.56-12.37-.06-22.38-1-34.81s-4.67-25-12.58-34.62a87.42,87.42,0,0,1,24,72"/><path class="cls-3" d="M1080.12,241.2a86.53,86.53,0,0,1-25-33.41c-3.28-7.82-5.35-16.85-2.1-24.68-7.75,9.59-7.15,24.57-2.26,35.9S1069.77,234.49,1080.12,241.2Z"/><path class="cls-3" d="M1120.18,287c-2.71-19.2-2.21-39,3.17-57.66s15.81-36,30.86-48.26c-27.75,31.42-41.07,82.5-28.13,122.38"/><path class="cls-3" d="M1192.46,298.7a105.52,105.52,0,0,0,56.28-56c1.15,4.18-2.12,12.38-3.89,16.34a124.1,124.1,0,0,1-56.11,59.34"/><path class="cls-3" d="M1225.11,305.28c20.6-1.28,38.23-15.4,51.44-31.27s23.6-34.1,38.3-48.6,35.6-25.11,55.69-20.37c-17.44-2.31-36.94,9.69-47.71,23.61s-17.25,30.61-26.34,45.68-22.07,29.3-39.27,33"/><path class="cls-3" d="M1305.79,290.08a188.24,188.24,0,0,0,38.28-55.7c-5.4,35.11-28.89,61.86-62.8,72.44"/><path class="cls-3" d="M1325.53,294.19c4.56.05,8.46-3.12,11.72-6.31,23.49-23.05,35.57-55.1,54.83-81.79,7.1-9.84,15.75-19.35,27.25-23.24-7.34,1.78-11.84,6.9-16.44,12.89-33.18,43.13-52.78,98.39-97.12,129.91"/><path class="cls-3" d="M1378.45,274.21A182.8,182.8,0,0,0,1392,150.39c9.77,23.05,15.13,46.84,11.65,71.63s-16.72,48.83-38,62"/><path class="cls-1" d="M1432.59,244.58a312.91,312.91,0,0,1,110.13-111c-38.66,25.81-67.9,63.63-89.83,104.62"/><path class="cls-1" d="M1482.62,230.9c6.57-30.74,27-56.6,48.89-79.18-20.7,12.7-40.25,30.42-51.25,52.18-3.72,7.34-9.84,12.72-13.4,20.37,4.14-34,25.11-61.86,47.39-87.83"/><path class="cls-3" d="M1457.73,268.91A120.08,120.08,0,0,1,1512.1,130c-17.24,23.12-32.82,52.93-41.66,80.38"/><path class="cls-3" d="M1310.49,290.45c30.42-49.22,97.24-64.31,132.13-110.48-9.83,20.6-29.29,32.73-47.78,46.12a257.41,257.41,0,0,0-48.94,46.33c-10.91,13.45-20.84,29.25-20.39,46.56"/><path class="cls-3" d="M1470.59,229.48a92.44,92.44,0,0,0,30.5-33.88c6.56-12.4,5.53-25.79,10.69-37.82-1.71,14.27-2.81,31.9-8.51,45.08S1483.81,223.85,1470.59,229.48Z"/><path class="cls-3" d="M1676,128a151.86,151.86,0,0,1,89.88-74.07c-42.17,21.29-75.11,52.55-98.21,93.76"/><path class="cls-3" d="M1720.24,119.16c-2.39-6.92.34-14.48,3.45-21.11,15.12-32.24,40.35-61.17,43.63-96.63-26.42,40.83-44.06,90.14-52.6,138"/><path class="cls-3" d="M1641,127.47a147.28,147.28,0,0,0,51.57-77.36c-3.15,29.17-15.52,58.73-34.79,80.86"/><path class="cls-1" d="M1475.42,213.63A93.47,93.47,0,0,1,1488,189.34c19.14-27.35,47.77-46.44,76.74-63"/><path class="cls-3" d="M1478,229.3c5-23.24,19.59-43.35,36.39-60.17s36-31.06,53.16-47.53c-34.21,22.59-65.54,48.32-82.44,85.67C1481.32,215.58,1475.22,220.61,1478,229.3Z"/><path class="cls-3" d="M1439.59,181.18a27.48,27.48,0,0,1,3.25-16.14c.71-1.27,2-2.68,3.37-2.16a3,3,0,0,1,1.52,2,16.6,16.6,0,0,1-7.7,19.58,1.18,1.18,0,0,1-.58-1.39"/><path class="cls-3" d="M1420.68,181a9.29,9.29,0,0,1,5.08-5.18c1.4-.57,3.2-.72,4.24.37,1.19,1.23.68,3.42-.6,4.56a9.62,9.62,0,0,1-4.72,1.83,4.34,4.34,0,0,1-2.94-.12c-.88-.48-1.21-1.94-.35-2.46"/></g></g></svg>