<?xml version="1.0" encoding="utf-8"?>
<!-- Generator: Adobe Illustrator 25.4.1, SVG Export Plug-In . SVG Version: 6.00 Build 0)  -->
<svg version="1.1" id="Layer_1" xmlns="http://www.w3.org/2000/svg" xmlns:xlink="http://www.w3.org/1999/xlink" x="0px" y="0px"
	 viewBox="0 0 2934.7 2437.5" style="enable-background:new 0 0 2934.7 2437.5;" xml:space="preserve">
<style type="text/css">
	.st0{fill:url(#SVGID_1_);}
	.st1{clip-path:url(#SVGID_00000116219185248835009720000016143875626743772032_);}
	.st2{fill:none;stroke:#FFEAE1;stroke-width:10;stroke-linecap:round;stroke-linejoin:round;}
	.st3{fill:none;stroke:#FFEAE1;stroke-width:5;stroke-linecap:round;stroke-linejoin:round;}
	.st4{fill:#A6E8E2;stroke:#FFEAE1;stroke-width:10;stroke-linecap:round;stroke-linejoin:round;}
	.st5{fill:url(#SVGID_00000093160632448194883510000003765538880551405718_);stroke:#C34E4C;stroke-width:10;stroke-miterlimit:10;}
	.st6{fill:url(#SVGID_00000018956396711362297460000001090338358541765820_);stroke:#C34E4C;stroke-width:10;stroke-miterlimit:10;}
	.st7{fill:url(#SVGID_00000023962482009387175710000006883048593004186020_);stroke:#C34E4C;stroke-width:10;stroke-miterlimit:10;}
	.st8{fill:#2B5A6D;stroke:#2B5A6D;stroke-width:10;stroke-linecap:round;stroke-linejoin:round;}
	.st9{fill:#C34E4C;}
	.st10{fill:none;stroke:#C34E4C;stroke-width:10;stroke-linecap:round;stroke-linejoin:round;}
	.st11{fill:#FFEAE1;}
	.st12{fill:#A6E8E2;}
	.st13{fill:#2B5A6D;stroke:#A6E8E2;stroke-width:10;stroke-linecap:round;stroke-linejoin:round;}
	.st14{fill:none;stroke:#A6E8E2;stroke-width:10;stroke-linecap:round;stroke-linejoin:round;}
	
		.st15{fill:url(#SVGID_00000165916013886839185870000012787703352889757871_);stroke:#C34E4C;stroke-width:10;stroke-linecap:round;stroke-linejoin:round;}
	.st16{fill:url(#SVGID_00000009562653716334524160000002576507995495082141_);}
	.st17{fill:url(#SVGID_00000062907828497765240700000015146734925807540132_);}
	.st18{fill:#FBAA82;stroke:#C34E4C;stroke-width:10;stroke-linecap:round;stroke-linejoin:round;}
	.st19{fill:#FFEAE1;stroke:#2B5A6D;stroke-width:10;stroke-linecap:round;stroke-linejoin:round;}
	.st20{fill:#FBAA82;}
	.st21{fill:none;stroke:#2B5A6D;stroke-width:10;stroke-linecap:round;stroke-linejoin:round;}
	.st22{fill:#FFEAE1;stroke:#FFEAE1;stroke-width:10;stroke-linecap:round;stroke-linejoin:round;}
	.st23{fill:url(#SVGID_00000080208148316839249890000006131260621096465071_);}
	.st24{fill:#FFEAE1;stroke:#FFEAE1;stroke-linejoin:round;}
	.st25{clip-path:url(#SVGID_00000013160989971965027320000001689814156589873055_);}
	.st26{clip-path:url(#SVGID_00000169517379240703021820000018331539044715954863_);}
	.st27{clip-path:url(#SVGID_00000163781439070372701780000010405260963147503260_);}
	.st28{fill:none;stroke:#FBAA82;stroke-width:1.22;stroke-miterlimit:10;}
	.st29{fill:#A6E8E2;stroke:#2B5A6D;stroke-width:10;stroke-linecap:round;stroke-linejoin:round;}
	.st30{fill:#2B5A6D;}
	.st31{fill:none;stroke:#FFEAE1;stroke-width:10;stroke-miterlimit:10;}
</style>
<g id="bkg">
	
		<linearGradient id="SVGID_1_" gradientUnits="userSpaceOnUse" x1="406.2297" y1="439.5567" x2="2724.0227" y2="1777.7452" gradientTransform="matrix(1 0 0 -1 0 2432.2495)">
		<stop  offset="0" style="stop-color:#FBAA82"/>
		<stop  offset="0.28" style="stop-color:#E7836A"/>
		<stop  offset="0.59" style="stop-color:#D35F52"/>
		<stop  offset="0.84" style="stop-color:#C74844"/>
		<stop  offset="1" style="stop-color:#C3403F"/>
	</linearGradient>
	<path class="st0" d="M2413.2,158.3c-39.1-49.5-92.8-66.9-155-86c-311.2-96.1-634.9,36.9-886.6,143.9
		C1089.9,336.1,924.1,462,885.2,492.5C629.3,692.6,541.6,869.2,518.7,918.8c-77.1,166.5-59.9,237.3-47.7,266.7
		c32.3,77.7,100.1,89,102.4,151.3c2.1,58.2-56,77.4-161.7,200.6c-86.8,101.2-124.2,152.6-122.4,216.6
		c1.8,63.2,51.4,132.4,114.5,161.2c60.6,27.7,105.8,3.3,132,36.4c20.1,25.3,0.2,47.8,0,131.3c-0.1,33.1,0.2,87.4,21.1,143.4
		c0,0,21.3,77.7,83.6,121.8c119.4,84.4,276.5,71.1,415.6,21.6c209.5-74.5,350-279.4,564.6-339.3c23.3-6.5,48-11.2,71.8-6.6
		s46.6,20.3,52.7,42.8c11.8,43.7-51.9,58.4-75.4,97.5c-33.3,55.5,11.2,130.4,73.4,153.8s132.4,9.6,196.4-8.8
		c68-19.6,140.2-43.1,216.4-85.3c74.2-41,116.8-79.9,168.4-122.9c268.3-223.2,333.7-214.8,341.2-280.7
		c16.6-146.3-300.2-235-270.3-370.1c12.5-56.3,82.4-105.3,176.9-173.6c147.1-106.4,159.4-89.2,190.9-131.3
		c92.3-123.6,88.9-350.5-26.3-440.1c-99.5-77.4-207.5,5.7-281.4-65.7C2349,536.8,2530.3,306.6,2413.2,158.3z"/>
</g>
<g id="bkg_copy">
	<g>
		<defs>
			<path id="SVGID_00000051349911450892784110000007430228726071446432_" d="M2413.2,158.3c-39.1-49.5-92.8-66.9-155-86
				c-311.2-96.1-634.9,36.9-886.6,143.9C1089.9,336.1,924.1,462,885.2,492.5C629.3,692.6,541.6,869.2,518.7,918.8
				c-77.1,166.5-59.9,237.3-47.7,266.7c32.3,77.7,100.1,89,102.4,151.3c2.1,58.2-56,77.4-161.7,200.6
				c-86.8,101.2-124.2,152.6-122.4,216.6c1.8,63.2,51.4,132.4,114.5,161.2c60.6,27.7,105.8,3.3,132,36.4c20.1,25.3,0.2,47.8,0,131.3
				c-0.1,33.1,0.2,87.4,21.1,143.4c0,0,21.3,77.7,83.6,121.8c119.4,84.4,276.5,71.1,415.6,21.6c209.5-74.5,350-279.4,564.6-339.3
				c23.3-6.5,48-11.2,71.8-6.6s46.6,20.3,52.7,42.8c11.8,43.7-51.9,58.4-75.4,97.5c-33.3,55.5,11.2,130.4,73.4,153.8
				s132.4,9.6,196.4-8.8c68-19.6,140.2-43.1,216.4-85.3c74.2-41,116.8-79.9,168.4-122.9c268.3-223.2,333.7-214.8,341.2-280.7
				c16.6-146.3-300.2-235-270.3-370.1c12.5-56.3,82.4-105.3,176.9-173.6c147.1-106.4,159.4-89.2,190.9-131.3
				c92.3-123.6,88.9-350.5-26.3-440.1c-99.5-77.4-207.5,5.7-281.4-65.7C2349,536.8,2530.3,306.6,2413.2,158.3z"/>
		</defs>
		<clipPath id="SVGID_00000066505426585780270950000008297353162193464456_">
			<use xlink:href="#SVGID_00000051349911450892784110000007430228726071446432_"  style="overflow:visible;"/>
		</clipPath>
		<g style="clip-path:url(#SVGID_00000066505426585780270950000008297353162193464456_);">
			<g id="circuits">
				<line class="st2" x1="558.8" y1="2338.5" x2="880.8" y2="2081.5"/>
				<line class="st2" x1="680" y1="2450.4" x2="1119" y2="2102.4"/>
				<line class="st3" x1="828" y1="2432.4" x2="953.8" y2="2331.5"/>
				<line class="st2" x1="1616.8" y1="2316.2" x2="1981.2" y2="2030"/>
				<line class="st3" x1="826.4" y1="2258.7" x2="1637.8" y2="1610.5"/>
				<line class="st3" x1="666.8" y1="2253.5" x2="826.8" y2="2258.5"/>
				<line class="st3" x1="954.2" y1="2331.2" x2="1191.8" y2="2338.5"/>
				<line class="st2" x1="721.5" y1="2209.3" x2="875.8" y2="2215.5"/>
				<line class="st3" x1="1416.6" y1="2413.2" x2="1855.6" y2="2065.2"/>
				<line class="st3" x1="1930.1" y1="2072" x2="2391.1" y2="2086.4"/>
				<line class="st2" x1="1981.1" y1="2029.9" x2="2442.1" y2="2044.3"/>
				<line class="st2" x1="120.9" y1="1490.5" x2="2108" y2="-85.8"/>
				<line class="st3" x1="2080.1" y1="160.9" x2="2891.5" y2="-487.2"/>
				<line class="st3" x1="1920.2" y1="156.4" x2="2080.2" y2="161.4"/>
				<line class="st3" x1="754.5" y1="1079.7" x2="1921.2" y2="157"/>
				<line class="st2" x1="2024.7" y1="155" x2="2836.1" y2="-493.1"/>
				<circle class="st2" cx="897.2" cy="2070.1" r="15"/>
				<circle class="st2" cx="1138.8" cy="2087.5" r="20"/>
				<circle class="st3" cx="1869.2" cy="2053.1" r="15"/>
				<circle class="st3" cx="736.5" cy="1096.7" r="25"/>
				<line class="st3" x1="294" y1="1693.2" x2="774" y2="1305.2"/>
				<circle class="st3" cx="789.5" cy="1293.7" r="15"/>
				<line class="st3" x1="2318.5" y1="860.7" x2="3485.2" y2="-62"/>
				<circle class="st3" cx="2300.5" cy="877.7" r="25"/>
				<line class="st2" x1="2571.5" y1="757.7" x2="3738.2" y2="-165"/>
				<circle class="st2" cx="2556" cy="772.2" r="15"/>
				<path class="st4" d="M2123.5,345.4c-12.3-26.6-33.9-47.7-60.7-59.3c28.1-9.9,50-32.4,59.3-60.7c13.1,26,34.5,46.8,60.7,59.3
					C2156.8,297.7,2135.9,319.1,2123.5,345.4L2123.5,345.4z"/>
				<path class="st4" d="M2151.8,1472.4c-6.1-13.3-16.9-23.8-30.4-29.7c14.1-5,25-16.2,29.6-30.3c6.5,13,17.2,23.4,30.4,29.6
					C2168.5,1448.6,2158,1459.2,2151.8,1472.4z"/>
				<path class="st4" d="M2314,480.8c-8.2-17.7-22.6-31.8-40.5-39.5c18.7-6.6,33.3-21.6,39.5-40.5c8.7,17.3,23,31.2,40.5,39.5
					C2336.2,449,2322.3,463.3,2314,480.8z"/>
				<path class="st4" d="M1114.7,565.3c-6.1-13.3-16.9-23.8-30.3-29.6c14.1-5,25-16.2,29.6-30.4c6.5,13,17.2,23.4,30.4,29.7
					C1131.3,541.5,1120.9,552.2,1114.7,565.3z"/>
				<path class="st4" d="M1208.1,2192.3c-6.1-13.3-16.9-23.8-30.3-29.6c14.1-5,25-16.2,29.6-30.4c6.5,13,17.2,23.4,30.4,29.6
					C1224.8,2168.5,1214.3,2179.1,1208.1,2192.3z"/>
				<path class="st4" d="M2503.7,961.9c-8.2-17.7-22.6-31.8-40.5-39.5c18.8-6.6,33.4-21.6,39.5-40.5c8.7,17.3,23,31.2,40.5,39.5
					C2525.9,930.2,2512,944.4,2503.7,961.9z"/>
				<path class="st4" d="M2348.7,1945c-8.2-17.7-22.6-31.8-40.5-39.5c18.8-6.6,33.4-21.6,39.5-40.5c8.7,17.3,23,31.2,40.5,39.5
					C2370.9,1913.2,2357,1927.4,2348.7,1945z"/>
				<path class="st4" d="M2034.7,2188.3c-6.1-13.3-16.9-23.8-30.4-29.6c14.1-5,25-16.2,29.7-30.4c6.5,13,17.2,23.4,30.4,29.6
					C2051.3,2164.4,2040.9,2175.1,2034.7,2188.3L2034.7,2188.3z"/>
				<path class="st4" d="M682.6,1249.6c-6.1-13.3-16.9-23.8-30.3-29.6c14.1-5,25-16.2,29.6-30.4c6.5,13,17.2,23.4,30.4,29.6
					C699.3,1225.7,688.8,1236.4,682.6,1249.6L682.6,1249.6z"/>
				<path class="st4" d="M1019.2,1425.3c-12.3-26.5-33.9-47.7-60.7-59.3c28.1-9.9,50-32.4,59.3-60.7c13.1,26,34.5,46.8,60.7,59.3
					C1052.6,1377.7,1031.7,1399.1,1019.2,1425.3L1019.2,1425.3z"/>
				<path class="st4" d="M1193.7,1308.4c-6.1-13.3-16.9-23.8-30.4-29.6c14.1-5,25-16.2,29.7-30.4c6.5,13,17.2,23.4,30.3,29.7
					C1210.4,1284.6,1199.9,1295.3,1193.7,1308.4z"/>
				<path class="st4" d="M2012.9,397.4c-6.1-13.3-16.9-23.8-30.4-29.7c14.1-4.9,25-16.2,29.6-30.3c6.5,13,17.2,23.4,30.4,29.6
					C2029.5,373.6,2019.1,384.3,2012.9,397.4z"/>
			</g>
		</g>
	</g>
</g>
<g id="clouds">
	
		<linearGradient id="SVGID_00000067933265283369144110000015090749910819999415_" gradientUnits="userSpaceOnUse" x1="601.8223" y1="1240.6367" x2="1145.0522" y2="1783.8666" gradientTransform="matrix(0.99 -3.000000e-02 -3.000000e-02 -1 130.7424 2511.2205)">
		<stop  offset="0" style="stop-color:#FFEAE1"/>
		<stop  offset="0.24" style="stop-color:#FEDECF"/>
		<stop  offset="0.71" style="stop-color:#FCBFA2"/>
		<stop  offset="1" style="stop-color:#FBAA82"/>
	</linearGradient>
	
		<path style="fill:url(#SVGID_00000067933265283369144110000015090749910819999415_);stroke:#C34E4C;stroke-width:10;stroke-miterlimit:10;" d="
		M461.3,973.7c1.5,5.2,7.3,7.4,11.9,5.9s8.1-5.6,11.1-9.8c14.9-20.8,24.3-48.3,44.8-61.6c21.2-13.7,47.6-8.1,71.5-2.2
		c-10.5-16.2-10.9-36.9-1.2-53.5c17.7-30.8,51.5-48.1,83.5-42.9c-0.6-23.2,0.5-38.9,11.6-58.1c18.7-32.1,49.4-55.6,83.1-59.2
		s69.4,14.5,87.3,47.6c16.7,30.9,16.6,69.7,11.7,105.3c52.4-26,110.5-22.7,163.8,2c29.5,13.7,57.5,36.5,70.6,69.7
		c21-25.9,53.7-42.8,84.7-45.2c23.4-1.8,49.4,5.6,63.4,27.4c24.2-21.7,56.3-38.4,87.2-39.8c20.7-1,42,3.2,60.1,15.1
		s32.4,32.2,36.2,55.6c4,25-4.3,50.8-17.4,71.1c-30.9,48-86.6,69-138.8,65.1c-21.5,43.2-62.1,62.1-103.5,77.1
		c-33.9,12.3-69,21.8-104.7,21.2c-40-0.7-79.8-14.6-113.5-39.5c-52.7-38.9-89.8-103.3-146.5-134c-49.7-26.9-107.7-24-161.2-11.1
		s-105.1,35-159.1,45c-12.8,2.4-26.2,4-38.6-0.4c-12.4-4.4-23.8-16.3-24.8-31.2S448.9,969.4,461.3,973.7z"/>
	
		<linearGradient id="SVGID_00000064316961009937890480000002300350856948742801_" gradientUnits="userSpaceOnUse" x1="1310.3851" y1="233.5009" x2="1939.7635" y2="862.8794" gradientTransform="matrix(1 0 0 -1 0 2432.2495)">
		<stop  offset="0" style="stop-color:#FFEAE1"/>
		<stop  offset="0.12" style="stop-color:#FEDDCD"/>
		<stop  offset="0.37" style="stop-color:#FDC7AD"/>
		<stop  offset="0.6" style="stop-color:#FCB795"/>
		<stop  offset="0.82" style="stop-color:#FBAD87"/>
		<stop  offset="1" style="stop-color:#FBAA82"/>
	</linearGradient>
	
		<path style="fill:url(#SVGID_00000064316961009937890480000002300350856948742801_);stroke:#C34E4C;stroke-width:10;stroke-miterlimit:10;" d="
		M1410.9,1777.2c-3.2-17.3-0.4-35.4,4.3-52.3c16-57.1,54.9-105.9,104.3-131c49.7-25.1,108.2-26,158.7-2.5
		c10.3-50.6,54.1-86.8,100.3-98.3c24.3-6,50.3-6.4,73.9,2.6c38.8,14.7,67.2,53,81.8,95.1s17.2,87.8,18.1,132.8
		c19-3.7,36.3,19.8,40.3,40.6s-2.3,42-9.3,61.7c15-18.9,42.3-16.5,61.1-2.2s27.2,42.1,22.4,66.7c-2.6,13.1-10.2,26.7-22.2,28.7
		c-9,1.5-17.6-4-25.8-8.4c-18.7-10.1-39.7-15.1-61-14.8c-44.5,0.9-90.5,22-132.6,37.9c-144.3,54.5-304.2,58.1-450.5,10.4
		c-38.4,34.3-84.3,59.3-134,72.9c-41.6,11.5-88.8,13.5-124.2-13.1c-11.8-8.9-22.5-22.8-21.2-38.4c1.1-12.9,10.2-23.6,20.9-29.1
		s22.8-6.5,34.6-7c21.3-40,59-69.5,98.7-85.4c39.9-16,84.3-16.2,124.4-0.8c-2.1,3.1-7,1.7-8.8-1.6s-1.2-7.5-0.4-11.3
		C1371.1,1798.7,1382.8,1787.4,1410.9,1777.2z"/>
	
		<linearGradient id="SVGID_00000129169675445417646330000011869523263361116835_" gradientUnits="userSpaceOnUse" x1="1320.2037" y1="285.8261" x2="2005.0897" y2="970.7122" gradientTransform="matrix(1 0 0 -1 0 2432.2495)">
		<stop  offset="0" style="stop-color:#FFEAE1"/>
		<stop  offset="0.2" style="stop-color:#FFE7DD"/>
		<stop  offset="0.41" style="stop-color:#FEDED0"/>
		<stop  offset="0.62" style="stop-color:#FDD0BA"/>
		<stop  offset="0.84" style="stop-color:#FCBC9D"/>
		<stop  offset="1" style="stop-color:#FBAA82"/>
	</linearGradient>
	
		<path style="fill:url(#SVGID_00000129169675445417646330000011869523263361116835_);stroke:#C34E4C;stroke-width:10;stroke-miterlimit:10;" d="
		M1513,1780.2c-79.2,38.8-174.2,45.8-258.5,19c-23.2-7.4-45.8-17.2-69.9-21.3s-50.8-1.5-69.6,13.6c-8.9,7.1-15.8,20.6-12.8,31.4
		c-14.8-14.4-38-20.1-58.1-14.2c-10,2.9-19.4,11.2-21.5,21.2c-4.2,19.7,14.9,36.7,33.6,45.4c25.7,12,54.2,17.3,82.6,20.4
		c59.8,6.5,120.2,3.4,180.2-1.9c92.4-8.1,184.3-21.5,275.2-40.1c57.1-11.7,113.1-21.5,171.3-17.2c91.1,6.7,180.6,28.7,272,31.7
		s209.4-1.3,253.7-79c7-12.3,3.9-28.5-5.1-39.6s-22.9-17.4-37.1-20.3c-22.1-4.5-43.9-5.5-63.7,4.9c17.9-16.4,25-43,17.6-65.7
		s-29-40.6-53.3-43.9s-55.9,1.8-69.6,21.6c-4.2-16.7-12.9-33.3-28.1-42.2s-27.8-2-37.8,12.2c-22.8-24.6-48.5-48.5-80.7-59.3
		c-28.1-9.3-58.6-8-85.8,3.6c-56.8,24.7-77.1,84.2-65.6,141c-17-22.2-52.6-35.4-80.6-30.5c-23.2,4-43,18-62.3,31.1
		C1592.2,1734,1564,1755.2,1513,1780.2z"/>
</g>
<g id="broom">
	<path class="st8" d="M2878.6,1022.4c-23.8-42.6-75.6-51.6-85.4-53.2c-66.1-11.4-154.9,23.1-204.8,77.2
		c-10.4,11.2-27.7,30.8-54.7,36c-19.4,3.7-34.5-4.9-52.1-13.9c-282.6,49.7-553.8,148.4-823.3,246.7l-852.8,311l27.9,81.7
		c670.2-215.2,977.9-316,1130.2-367.1c0,0,174.7-58.6,417-109.8c106.5-22.5,159.8-33.8,189.5-30.3c26.7,3.1,51.1,5.5,74-6.6
		c32.5-17.1,43.4-55.2,50.3-91.2c2.2-11.2,15.5-17.3,26.9-15.8s21.2,8.3,30.8,14.5c19.3,12.2,39.8,22.4,61.2,30.4
		c17.8,6.6,38.4,11.4,54.9,2.2c17.4-9.8,19.6-33.4,21.5-48.8C2890.7,1077.7,2893.7,1049.4,2878.6,1022.4z M2847.1,1053.9
		c-2.4,14.3-19.7,21.5-34,19.3c-8.9-1.4-17.6-5.6-23.2-12.6s-7.6-17.2-3.9-25.4c10.9-12.6,28.9-16.3,43.9-9
		C2840.3,1031.4,2849,1042.4,2847.1,1053.9L2847.1,1053.9z"/>
	<path class="st9" d="M811.1,1651.6c21.9-12,44.4-23.1,67.3-33.4c23-10.2,46.5-19.2,70.5-26.8c24.1-7.6,48.7-13.4,73.6-17.4
		c3.1-0.5,6.3-0.9,9.4-1.3s6.3-0.9,9.4-1.2c6.3-0.7,12.6-1.3,18.8-1.8c12.5-1,25-1.7,37.3-2.7c6.2-0.5,12.3-1,18.4-1.6
		s12.2-1.4,18.3-2.2l9.1-1.4l4.6-0.7c1.5-0.2,3.1-0.5,4.6-0.8l9.1-1.7c3-0.6,6.1-1.1,9.1-1.8c12.1-2.5,24.2-5.2,36.1-8.4
		c6-1.6,12-3.2,17.9-4.9l8.9-2.6c3-0.9,5.9-1.8,8.9-2.7c47.4-14.6,93.9-32.8,140.6-50.3c-45.1,21.2-90.7,41.7-137.9,58.3
		c-3,1-5.9,2.1-8.9,3.1l-8.9,2.9c-5.9,2-12,3.8-18,5.6c-12,3.6-24.2,6.8-36.4,9.7c-3.1,0.8-6.1,1.4-9.2,2l-9.2,1.9
		c-1.5,0.3-3.1,0.6-4.6,0.9l-4.7,0.8l-9.3,1.6c-6.2,0.9-12.5,1.8-18.7,2.7s-12.5,1.4-18.8,1.9c-12.5,1.1-24.9,2-37.2,3.1
		c-6.2,0.6-12.3,1.2-18.4,1.9c-3,0.3-6.1,0.9-9.1,1.3s-6.1,0.8-9.1,1.3c-24.3,4-48.2,9.7-71.8,17c-23.5,7.3-46.7,15.9-69.5,25.5
		s-45.3,20.1-67.6,31l0,0c-2.5,1.3-5.5,0.3-6.7-2.2C807.7,1655.8,808.6,1652.8,811.1,1651.6L811.1,1651.6z"/>
	<path class="st9" d="M826.8,1679.7c11.5-5.7,23.1-10.8,34.9-15.7s23.7-9.5,35.7-13.9c6-2.2,12-4.3,18-6.4c6-2.1,12.1-4.1,18.2-6
		l9.1-2.9c3-0.9,6.1-1.9,9.2-2.6c6.2-1.4,12.7-2.3,19.6-1.7c-2.5,2.2-5.2,4.2-8.1,5.9c-2.8,1.6-5.6,3.1-8.6,4.4
		c-2.9,1.3-5.9,2.4-8.8,3.5l-8.9,3.4l-17.8,6.8c-5.9,2.3-11.8,4.5-17.7,6.9l-35.4,13.8c-11.8,4.6-23.6,9.3-35.5,13.7
		c-2.5,1.1-5.5-0.1-6.6-2.6C823.1,1683.8,824.2,1680.8,826.8,1679.7L826.8,1679.7z"/>
	<path class="st9" d="M2260.1,1132.9c11.3-4.1,22.6-8,34-11.8l17.1-5.6l17.2-5.4c22.9-7.2,46-13.8,69.1-20.2s46.4-12.3,69.7-18
		c5.8-1.4,11.7-2.7,17.6-3.9s11.8-2.3,17.7-3.3c11.9-2,23.9-3.3,36-3.8c2.8-0.1,5.2,2.1,5.3,4.9c0.1,2.1-1.2,4.1-3.1,4.9l0,0
		c-5.6,2.3-11.3,4.3-17,6.2s-11.5,3.6-17.2,5.2s-11.6,3.1-17.4,4.5s-11.6,2.8-17.5,4l-70.2,14.8c-23.4,4.9-46.8,9.8-70.3,14.6
		l-17.6,3.6l-17.6,3.5c-5.9,1.2-11.8,2.3-17.7,3.5c-2.9,0.6-5.9,1.2-8.8,1.7l-8.9,1.6c-0.3,0.1-0.6-0.1-0.6-0.4
		C2259.8,1133.3,2259.9,1133,2260.1,1132.9z"/>
	<path class="st9" d="M2623.3,1129.8c-3.5-5.4-5.9-11.4-7.2-17.7c-1.5-6.7-1.4-13.7,0.2-20.4c0.9-3.5,2.2-6.9,3.9-10.1
		c1.8-3.3,4-6.4,6.6-9.1c0.6-0.7,1.4-1.3,2.1-2s1.5-1.2,2.3-1.8s1.6-1.2,2.4-1.7s1.7-1,2.7-1.5c4-2.1,8.6-3.2,13.1-3.1
		c2.7,0.1,5.4,0.6,7.9,1.7c2.7,1.2,5.2,2.9,7.1,5.2c1.8,2.1,3.3,4.5,4.2,7.1c0.8,2.2,1.3,4.5,1.5,6.9c0.2,2,0.2,4.1,0,6.1
		c-0.1,0.9-0.2,1.9-0.3,2.8s-0.3,1.8-0.4,2.6c-0.6,3.3-1.3,6.5-2.3,9.7c-1.9,6.3-4.4,12.4-7.6,18.2c-3.2,5.7-7.1,11-11.7,15.6
		c-2,2-5.3,1.9-7.3-0.1c-1.3-1.4-1.8-3.4-1.2-5.2v-0.1l2.8-8.4c0.9-2.7,1.7-5.5,2.5-8.2s1.5-5.5,2.1-8.2s1.2-5.4,1.7-8.2
		s0.9-5.5,1.3-8.2c0.1-0.7,0.2-1.3,0.2-1.9s0.1-1.2,0.1-1.7c0-1,0-2-0.1-3c-0.1-0.7-0.2-1.3-0.4-2c-0.1-0.5-0.2-0.7-0.3-0.7
		s0-0.2-0.1-0.2c-0.3-0.2-0.6-0.3-0.9-0.4c-1.5-0.2-3.1,0-4.6,0.6c-0.5,0.2-0.9,0.3-1.4,0.6c-0.5,0.2-0.9,0.5-1.4,0.7l-1.4,0.8
		c-0.4,0.3-0.9,0.6-1.4,0.9c-3.9,2.9-7.1,6.7-9.3,11c-2.5,4.8-4.1,10.1-4.8,15.5C2623.2,1117.7,2623,1123.8,2623.3,1129.8z"/>
	<path class="st9" d="M2660.9,1185.6c-3.2,1.1-6.4,2.1-9.8,3c-3.4,1-7,1.7-10.5,2.1c-3.8,0.5-7.6,0.6-11.3,0.2
		c-4-0.4-7.9-1.4-11.6-3c-3.5-1.6-6.9-3.7-9.9-6.2c-2.9-2.3-5.4-4.7-7.9-6.9s-4.7-4.4-7-6.1c-2.2-1.7-4.5-3.1-7.1-4.1
		c-2.6-1-5.3-1.8-8-2.2c-2.9-0.4-5.9-0.6-8.9-0.5c-6.4,0.2-12.8,0.8-19.1,1.8l-39.7,5l-39.8,4.8l-39.8,4.6
		c-26.5,2.9-53.1,5.8-79.7,8.2c26.2-5.3,52.4-10.1,78.7-14.9l39.4-7l39.5-6.7l39.5-6.5c6.8-1.3,13.7-2.1,20.6-2.5
		c3.7-0.2,7.4,0,11.1,0.4c7.8,0.9,15.3,4,21.5,8.9c2.8,2.2,5.5,4.6,8,7.1c2.4,2.3,4.7,4.6,7,6.5c2.1,1.8,4.4,3.4,6.9,4.7
		c4.6,2.4,10.3,3.1,16.3,2.8c6.3-0.5,12.6-1.5,18.8-3c2.7-0.7,5.4,0.8,6.1,3.5C2665.2,1182,2663.6,1184.8,2660.9,1185.6
		L2660.9,1185.6z"/>
	<path class="st9" d="M2716,1035c-0.2-2.5-0.2-5,0.1-7.5c0.3-2.5,0.9-5,1.8-7.4c0.8-2.4,1.9-4.8,3.1-7c1.2-2.2,2.6-4.4,4.1-6.4
		c1.5-2.1,3.2-4,4.9-5.9c0.9-0.9,1.8-1.8,2.7-2.7l1.4-1.3c0.5-0.4,1-0.8,1.5-1.2c3.9-3.4,8.1-6.3,12.6-8.8
		c9.1-5.1,19.1-8.4,29.4-9.9c5.2-0.7,10.5-0.9,15.8-0.7c5.3,0.3,10.6,1.1,15.8,2.4c2.7,0.7,4.3,3.4,3.7,6.1
		c-0.7,2.7-3.4,4.3-6.1,3.7l0,0l-0.4-0.1h-0.1c-4.4-1.5-9-2.6-13.6-3.3c-4.7-0.6-9.5-0.8-14.2-0.6c-9.6,0.5-19.1,2.9-27.9,6.9
		c-4.4,2-8.7,4.5-12.6,7.3c-0.5,0.4-1,0.7-1.5,1.1l-1.4,1.2c-0.9,0.8-1.9,1.5-2.8,2.3c-1.8,1.6-3.6,3.4-5.2,5.2
		c-1.6,1.8-3.1,3.8-4.5,5.8c-1.4,2-2.6,4.2-3.6,6.4C2717,1025.1,2716,1030.1,2716,1035z"/>
	<path class="st9" d="M2764,1038.1c-3.3,11.7-1.6,24.3,4.8,34.7c7.1,11.3,18.5,19.2,31.6,21.7c-14.5,0-28.4-6-38.2-16.6
		c-5.2-5.6-9.1-12.2-11.6-19.3c-2.6-7.4-3.6-15.4-3-23.2v-0.3c0.4-4.6,4.4-8.1,9.1-7.7c4.6,0.4,8.1,4.4,7.7,9.1
		C2764.3,1036.9,2764.2,1037.5,2764,1038.1z"/>
	<path class="st10" d="M1304,1474.1c3.3,0,7.3,0.6,8.6,3.7c1.5,3.7-2.2,7.3-5.6,9.4c-16.7,10.5-68.3,35.3-84.3,18.2
		C1239.3,1483.3,1277.8,1474.1,1304,1474.1z"/>
	<path class="st9" d="M2154,1253.6c101.5-25.8,204.1-46.7,307.9-62.6c2.7-0.5,5.3,1.3,5.8,4c0.5,2.7-1.3,5.3-4,5.8
		c-0.1,0-0.2,0-0.3,0h-0.2C2359.6,1213.4,2256.5,1231,2154,1253.6z"/>
	<path class="st11" d="M626.8,1665.6c62.1-70.3,139.4-125.6,225.9-161.8c-23.1,38.2-52,72.7-85.5,102.2
		c33.8-4.3,69.5-20.4,100.6-34.5l-44.8,39.1l100.2-13.6c-8,10.9-18.4,19.8-30.3,26.3c40.6,47,85.6,96.6,146.4,109.3
		c-85.9,44.9-189.9,53.9-282.3,24.5"/>
	<path class="st9" d="M623,1662.3c16.3-17,33.2-33.4,50.8-48.9c4.5-3.8,8.9-7.6,13.4-11.5l13.6-11.1l13.9-10.8
		c4.7-3.5,9.5-6.9,14.2-10.4c19.1-13.7,38.8-26.4,59.2-38.1c20.3-11.7,41.3-22.4,62.7-32.3c2.5-1.1,5.4-0.1,6.6,2.4
		c0.7,1.4,0.6,3.1-0.2,4.5l-0.2,0.3l0,0c-4.5,10.4-9.9,20.5-16.1,30c-12.3,19.2-27,36.7-43.7,52.2c-8.3,7.8-17.2,14.8-26.7,21.1l0,0
		l-3.9-8.7c8.6-1.1,17.1-2.9,25.4-5.2c8.4-2.3,16.7-5.1,24.9-8.1c16.5-6.1,32.6-13.4,48.8-20.7c2.5-1.1,5.5,0,6.6,2.5
		c0.9,2,0.4,4.4-1.3,5.9l-44.8,39.1l0,0l-4-8.7c8.5,0.1,16.9-0.4,25.3-1.2s16.8-1.8,25.1-3s16.7-2.5,25-4s16.6-3.2,24.8-5.3l0,0
		c2.5-0.7,5.1,0.8,5.8,3.4c0.4,1.4,0.1,2.9-0.8,4l-0.4,0.5c-8.5,11.5-19.4,20.9-31.9,27.7l1.4-7.7c10.1,11.7,20.3,23.3,30.9,34.5
		c10.5,11.2,21.6,21.8,33.3,31.7c11.6,9.8,24.1,18.5,37.4,25.8c13.2,7.2,27.4,12.5,42.1,15.7l0,0c2.7,0.4,4.5,3,4,5.6
		c-0.2,1.3-1,2.5-2.1,3.3l-0.6,0.4c-5.2,3.4-10.4,6.7-15.7,9.9c-5.5,2.9-10.9,5.8-16.5,8.6c-5.7,2.6-11.3,5-17.1,7.5
		c-5.8,2.2-11.7,4.3-17.5,6.4c-6,1.8-11.9,3.6-18,5.2c-6,1.5-12.2,2.8-18.2,4.1c-6.2,1-12.3,2.1-18.5,3l-18.6,2
		c-24.9,2-49.9,1.2-74.5-2.4c-24.6-3.5-48.6-10-71.5-19.6c-2.6-0.9-3.9-3.8-3-6.4c0.9-2.4,3.5-3.8,6-3.1l0,0
		c23.2,5.1,46.8,8.5,70.5,10.1c23.5,1.6,47.1,1.2,70.6-1l17.5-2c5.8-1,11.6-1.8,17.4-2.7c5.8-1.1,11.5-2.3,17.3-3.3
		c5.7-1.4,11.5-2.7,17.2-4c5.7-1.5,11.4-3.1,17.1-4.5c5.6-1.8,11.3-3.5,17-5.1c5.6-1.9,11.2-3.8,16.9-5.7c5.6-2.1,11.2-4.1,16.9-6.1
		l1.3,9.3l0,0c-15.7-3.3-30.8-9-44.8-16.7c-13.9-7.6-27-16.7-39.1-26.9c-12-10.2-23.4-21-34.1-32.4c-10.8-11.3-21-23.1-31.2-34.8
		c-1.8-2.1-1.6-5.2,0.5-7.1c0.3-0.2,0.6-0.4,0.9-0.6c11.2-6.1,21-14.6,28.6-24.8l4.7,7.9l0,0c-8.5,0.1-16.9,0.8-25.3,1.4
		s-16.8,1.7-25.1,2.7s-16.7,2.3-25,3.8s-16.6,3.2-24.8,5.6c-2.6,0.7-5.2-0.7-6-3.3c-0.5-1.8,0-3.7,1.5-5l0.5-0.5l0,0l44.8-39.1
		l5.3,8.3c-16.2,7.3-32.5,14.7-49.4,21c-8.4,3.1-17,6-25.8,8.4c-8.8,2.5-17.7,4.3-26.8,5.5c-2.7,0.3-5.2-1.7-5.5-4.5
		c-0.1-1.3,0.2-2.5,1-3.5l0.5-0.7l0,0c7.2-8.5,14.5-16.7,21.7-24.9s14.3-16.5,21.3-24.9s13.9-16.8,20.7-25.4s13.6-17.2,20.7-25.8
		l0,0l6.2,7.2c-21.7,8.2-42.9,17.8-63.3,28.9c-20.5,11-40.2,23.4-59.1,36.9c-4.7,3.4-9.3,6.9-14,10.3l-13.7,10.8l-13.3,11.2
		c-4.3,3.9-8.7,7.7-13,11.6c-17.1,15.7-33,32.7-47.7,50.7c-1.7,2.1-4.9,2.5-7,0.7s-2.5-4.9-0.7-7l0,0L623,1662.3z"/>
	<path class="st10" d="M98,2053.8c111.5-67.3,237.9-106.1,368-113c-49.4,10.5-122.9,33.8-193.8,89.7c-20.8,16.4-40.1,34.6-57.7,54.4
		"/>
	<path class="st11" d="M682.3,1806.1l-104.6-120.8c-23.7,2.8-103.3,12.4-180.7-38.7c-52.8-34.8-92.9-86.8-120-143.8
		c-5,18.3-13.8,60.5,2.2,108.9c7.1,21.4,18,41.3,32.3,58.7c-55.8-19.3-117.6-34.8-171.8-11.4c-59.8,25.8-94.6,88.9-114.7,150.9
		l-4.7,12c11.4-18.8,30.4-32.3,51.2-39.4s43.3-8.1,65.2-5.5c1.1,0.1,1.9,1.6,0.8,1.3s-2.1,0.6-3,1.4c-16.4,16.5-30.5,35.2-41.9,55.4
		c13.1-10.9,31.3-15.3,48.3-16.7c-36.6,31.2-57.5,72.2-71.1,118.3s-16.3,94.9-12.6,142.9c19.8-18,45.7-27.3,70-38.6
		c-3.3,15.1-3.5,33.8-1.9,49.2c34.3-17.7,72.2-27.5,110.9-28.5c-26.5,27.1-53.2,61.5-63.1,98.1c7.8-11.8,14.3-13.1,27.3-18.8
		c36.1-15.7,75.1-23.8,114.5-23.8c47.8,0,94.7,11.9,142.1,17.9s98,5.5,140-17.4c50.4-27.4,80.3-83.4,90.2-139.9
		S689.6,1863,682.3,1806.1z M616.5,2044.8c-8.2,16.1-21,30.5-37.8,37.2s-35.6,4.8-52.9,0.1c-12.1-3.2-39.1-7.6-43-20.1
		c25.6-10.8,52.9-17.8,78.5-29.4c12.1-5.5,68.7-26.2,71.7-39.2C628.9,2010.9,624.7,2028.7,616.5,2044.8L616.5,2044.8z"/>
	<path class="st9" d="M677.7,1808.2l-103.9-119.6l4.4,1.7c-7.9,1-15.9,1.7-23.9,2.2s-16,0.6-24.1,0.3c-16.1-0.4-32.1-2.3-47.8-5.5
		c-31.6-6.5-61.7-18.9-88.6-36.7c-26.8-17.7-50.4-39.9-70.6-64.7c-20.1-24.9-37.2-52.1-50.8-81l9.3-0.8l0,0
		c-1.8,7-3.3,14.1-4.3,21.2c-1.1,7.1-1.7,14.3-2,21.5c-0.2,7.2-0.1,14.4,0.5,21.6l0.5,5.4c0.1,0.9,0.2,1.8,0.3,2.7l0.4,2.7l0.8,5.3
		l1,5.3l0.5,2.6c0.2,0.9,0.4,1.8,0.6,2.6l1.3,5.2c0.4,1.8,1,3.4,1.5,5.2s1,3.4,1.6,5.2c2.3,6.8,5,13.5,8.1,20
		c6.2,13,13.9,25.3,22.8,36.7l0.1,0.2c1.7,2.2,1.2,5.3-1,7c-1.3,1-3.1,1.3-4.6,0.7l0,0c-15.1-5.2-30.2-9.9-45.6-13.8
		c-15.2-4-30.8-6.7-46.5-8.2c-15.5-1.5-31.2-0.9-46.5,1.7c-7.6,1.4-15.1,3.4-22.3,6c-7.3,2.7-14.3,5.9-21,9.7
		c-13.5,7.7-25.7,17.4-36.4,28.7c-10.7,11.4-20.2,23.9-28.3,37.3c-8.2,13.5-15.3,27.6-21.4,42.1c-3.1,7.3-5.9,14.7-8.6,22.1l-2,5.6
		c-0.7,1.9-1.2,3.9-2,5.8l-4.4,11.3l0,0l-8.8-4.4c4.5-8.1,10.2-15.4,17-21.7c3.3-3.2,6.9-6.1,10.7-8.8c3.7-2.7,7.7-5.1,11.7-7.3
		c8.1-4.5,16.8-7.7,25.8-9.5c4.5-1,9-1.7,13.5-2.2c4.5-0.5,9-0.8,13.6-0.9c9-0.2,17.9,0.3,26.8,1.4l1.7,0.2h0.4l0.4,0.1
		c0.3,0.1,0.7,0.1,1,0.2c1.2,0.4,2.4,1,3.3,1.9c0.2,0.2,0.5,0.5,0.7,0.7c0.1,0.1,0.2,0.3,0.4,0.4s0.2,0.4,0.4,0.6
		c0.1,0.2,0.3,0.5,0.4,0.7c0.1,0.3,0.3,0.7,0.4,1c0.1,0.2,0.1,0.4,0.1,0.6c0.1,0.3,0.1,0.5,0.1,0.8c0,0.8,0,1.6-0.2,2.3
		c-0.3,1.1-0.9,2-1.6,2.8c-0.4,0.4-0.8,0.7-1.3,1c-0.3,0.2-0.7,0.4-1.1,0.5c-0.3,0.1-0.7,0.2-1,0.3c-0.3,0.1-0.5,0.1-0.8,0.1
		c-0.4,0-0.8,0-1.1,0c-0.1,0-0.3,0-0.4,0l-0.3-0.1l-0.6-0.1c0.2,0,0.3,0.1,0.5,0.1c0.6,0.1,1.3,0,1.9-0.1c0.3-0.1,0.6-0.2,0.9-0.4
		c0.2-0.2,0.1-0.1-0.1,0.1l-1.1,1.1l-2.2,2.2c-3,3-5.9,6.1-8.7,9.2c-11.3,12.6-21.4,26.3-30,40.9l0,0l-7.6-6.3
		c7.3-5.9,15.6-10.3,24.5-13c8.6-2.7,17.5-4.3,26.6-5c2.8-0.2,5.2,1.8,5.4,4.6c0,0,0,0,0,0c0.1,1.6-0.5,3.2-1.8,4.2
		c-8.8,7.5-16.9,15.8-24.2,24.7c-7.3,9-13.8,18.6-19.5,28.6c-11.5,20.1-19.9,42.1-26.4,64.5c-6.4,22.5-10.4,45.5-12.1,68.8
		c-1.7,23.4-1.6,46.9,0.2,70.2l0,0l-8.3-3.3c5.2-4.6,10.8-8.8,16.7-12.6c5.8-3.6,11.8-7,18-10c12.2-6.1,24.6-11.2,36.5-16.9l0,0
		c2.5-1.2,5.5-0.1,6.6,2.4c0.5,1,0.6,2.1,0.4,3.2l0,0c-1.6,7.8-2.5,15.7-2.6,23.6c-0.2,8,0,16,0.8,24l0,0l-7.2-4
		c17.4-9.1,35.8-16.1,54.8-21.1c9.5-2.4,19.1-4.3,28.9-5.7c9.7-1.3,19.5-2.1,29.3-2.3l0,0c2.8-0.1,5.1,2.1,5.1,4.9
		c0,1.3-0.5,2.6-1.4,3.6l0,0c-13.6,13.7-26,28.6-37,44.5c-5.4,8-10.3,16.3-14.6,24.9c-4.3,8.5-7.7,17.4-10.2,26.5l0,0l-9-4.1
		c2.4-4,5.4-7.5,8.9-10.5c1.8-1.5,3.8-2.8,5.8-4c2-1.1,4-2.1,5.9-3l11.2-5c3.8-1.7,7.6-3.3,11.5-4.9c7.7-3.1,15.6-5.7,23.6-8.1
		s16.1-4.4,24.3-6.1s16.4-3,24.7-3.9s16.7-1.5,25-1.8c16.7-0.3,33.3,0.5,49.9,2.4c32.9,3.6,65,10.3,96.8,14.2
		c8,0.9,15.9,1.8,23.9,2.3c4,0.3,7.9,0.5,11.9,0.7c2,0.1,4,0.1,6,0.1s4,0.1,5.9,0h5.9c2,0,3.9-0.1,5.9-0.2c4-0.1,7.8-0.5,11.8-0.8
		l5.8-0.7l2.9-0.3l2.9-0.5l5.8-0.9l5.7-1.1c1-0.2,1.9-0.4,2.8-0.6l2.8-0.7c1.9-0.5,3.8-0.9,5.6-1.4c3.7-1.1,7.4-2.2,11-3.6l2.7-1
		l1.4-0.5l1.3-0.6l5.3-2.3c0.4-0.2,0.9-0.4,1.3-0.6l1.3-0.6l2.6-1.3c1.7-0.9,3.5-1.7,5.1-2.6c6.7-3.7,13-8,19-12.8
		c6-4.8,11.6-10.1,16.8-15.8c10.5-11.5,19.4-24.4,26.7-38.2c7.3-13.9,13.2-28.5,17.4-43.6c2.2-7.6,3.9-15.3,5.3-23.1
		c1.3-7.8,2.5-15.7,3.3-23.6c1.6-15.9,2.2-32,1.9-48c-0.2-16.1-1.3-32.2-2.6-48.4c-0.6-8.1-1.4-16.2-2.2-24.3l-1.2-12.1l-0.3-2.8
		l-0.2-2.6C678,1811.7,677.8,1809.9,677.7,1808.2z M686.9,1804.1c0.4,2.3,0.8,4.5,1.2,6.8l0.5,3.4l0.5,3.2l1.8,12.1l1.7,12.2
		c0.6,4.1,1.1,8.1,1.6,12.2c2,16.3,3.5,32.7,4.3,49.2c0.8,16.6,0.5,33.2-0.7,49.8c-0.6,8.3-1.7,16.6-3,24.9
		c-1.3,8.3-3.1,16.5-5.2,24.7c-4.3,16.4-10.3,32.2-18,47.3c-7.7,15.2-17.4,29.4-28.8,42.1c-5.8,6.4-12,12.3-18.7,17.8
		c-6.7,5.4-13.9,10.3-21.4,14.6c-1.9,1.1-3.8,2-5.7,3l-2.9,1.5l-1.5,0.7c-0.5,0.2-1,0.4-1.5,0.6l-5.9,2.6l-1.5,0.6l-1.5,0.6l-3,1.1
		c-4,1.6-8.1,2.7-12.2,4c-2.1,0.6-4.1,1.1-6.2,1.6l-3.1,0.8c-1,0.3-2.1,0.4-3.1,0.7l-6.3,1.3l-6.3,1l-3.2,0.5l-3.2,0.4l-6.3,0.7
		c-4.2,0.3-8.4,0.7-12.6,0.8c-2.1,0.1-4.2,0.2-6.3,0.2h-6.3c-2.1,0-4.2,0-6.3-0.1s-4.2-0.1-6.3-0.2c-4.2-0.2-8.4-0.4-12.5-0.8
		c-8.3-0.6-16.6-1.5-24.8-2.6c-16.4-2.2-32.6-5-48.6-7.8c-8-1.4-16-2.8-24-4.1s-16-2.5-23.9-3.6s-15.9-1.9-23.9-2.4
		s-15.9-0.9-23.8-0.8s-15.9,0.4-23.8,1.1s-15.8,1.8-23.6,3.1c-15.7,2.7-31.2,6.7-46.2,12c-3.8,1.4-7.5,2.7-11.2,4.2l-11.3,4.5
		c-1.8,0.7-3.6,1.5-5.1,2.3c-1.5,0.8-3,1.7-4.4,2.7c-1.4,1-2.6,2.2-3.8,3.5c-1.2,1.4-2.4,2.8-3.4,4.3l-0.2,0.3
		c-1.7,2.2-4.8,2.5-7,0.8c-1.6-1.2-2.3-3.3-1.7-5.2l0,0c2.7-9.8,6.4-19.3,10.9-28.3c4.5-9,9.6-17.7,15.3-26
		c11.3-16.4,24.1-31.8,38.1-45.9l3.7,8.5l0,0c-9.4,0.3-18.8,1.2-28.2,2.5c-9.3,1.3-18.6,3.2-27.7,5.5c-18.3,4.7-36,11.4-52.8,20
		h-0.1c-2.5,1.2-5.4,0.2-6.7-2.2c-0.3-0.6-0.5-1.2-0.5-1.8l0,0c-0.8-8.4-1.1-16.9-0.9-25.3c0.2-8.5,1.2-17,2.9-25.4l7,5.6l0,0
		c-12.3,5.6-24.6,10.7-36.4,16.6c-5.8,2.9-11.5,6.1-17,9.6c-5.4,3.4-10.5,7.3-15.3,11.6l0,0c-2,1.9-5.2,1.7-7.1-0.4
		c-0.7-0.8-1.2-1.9-1.3-3l0,0c-1.9-23.9-2-47.9-0.2-71.7c1.7-24,5.9-47.7,12.4-70.9c6.7-23,15.3-45.6,27.3-66.7
		c6-10.6,12.8-20.6,20.5-30c7.7-9.4,16.2-18.1,25.4-26l3.6,8.8c-8.3,0.6-16.4,2.1-24.4,4.5c-7.7,2.3-14.9,6-21.1,11
		c-2.1,1.8-5.3,1.5-7-0.6c-1.3-1.6-1.5-3.8-0.6-5.6v-0.1l0,0c8.4-15.6,18.3-30.3,29.6-43.8c2.9-3.4,5.8-6.7,8.8-10l2.3-2.4l1.1-1.2
		c0.7-0.8,1.5-1.4,2.4-2c0.7-0.5,1.5-0.8,2.3-1.1c1.1-0.3,2.3-0.4,3.5-0.3l0.9,0.2c-0.1,0-0.3-0.1-0.4-0.1h-0.2H138
		c-0.3,0-0.6,0-0.9,0c-0.2,0-0.5,0.1-0.7,0.1c-0.3,0.1-0.6,0.2-0.9,0.3c-0.3,0.1-0.7,0.3-1,0.5c-0.5,0.3-0.9,0.6-1.2,1
		c-0.7,0.7-1.3,1.6-1.5,2.6c-0.1,0.4-0.2,0.8-0.2,1.1c0,0.3,0,0.7,0,1c0,0.4,0.1,0.5,0.1,0.7c0,0.2,0.1,0.4,0.1,0.6
		c0.1,0.3,0.2,0.5,0.3,0.8c0.1,0.2,0.2,0.4,0.3,0.5s0.2,0.3,0.2,0.4l0.2,0.3c0.1,0.2,0.3,0.3,0.4,0.4c0.5,0.5,1.2,0.9,1.9,1.1
		c0.2,0.1,0.4,0.1,0.6,0.1h0.2h-0.1h-0.4l-1.6-0.1c-8.3-0.8-16.6-0.9-24.9-0.5c-4.1,0.3-8.2,0.7-12.3,1.3s-8.1,1.4-12,2.4
		s-7.8,2.2-11.7,3.5c-3.8,1.2-7.6,2.7-11.3,4.3c-14.7,6.6-28,16.9-37,30.4l-0.1,0.2c-1.6,2.3-4.7,2.9-6.9,1.3
		c-1.9-1.3-2.7-3.8-1.9-5.9l0,0l4.3-11.1c0.7-1.8,1.3-3.7,1.9-5.6l2-5.7c2.7-7.7,5.6-15.2,8.7-22.7c6.2-15.1,13.6-29.6,22-43.6
		c8.4-14.1,18.3-27.2,29.5-39.2c11.3-12.1,24.4-22.4,38.7-30.7c7.2-4.1,14.8-7.6,22.6-10.5c7.8-2.8,15.8-5,24-6.4
		c16.3-2.8,32.8-3.4,49.3-1.8c16.2,1.5,32.3,4.4,48.1,8.6c15.7,4,31.1,9,46.3,14.3l0,0l-5.5,7.9c-4.9-5.8-9.4-11.9-13.5-18.3
		c-2.1-3.2-4-6.5-5.9-9.8s-3.6-6.7-5.2-10.2c-6.6-13.8-11.5-28.3-14.4-43.3l-1.1-5.6l-0.8-5.7l-0.4-2.8c-0.1-1-0.2-1.9-0.3-2.8
		l-0.5-5.7c-0.5-7.6-0.6-15.2-0.3-22.8c0.7-15.2,3.1-30.3,7.2-45l0,0c0.7-2.7,3.5-4.2,6.1-3.5c1.4,0.4,2.5,1.3,3.2,2.6v0.1
		c13.3,28.2,30,54.7,49.6,78.9c19.6,24.1,42.6,45.5,68.4,62.7c25.9,17.1,54.8,29.1,85.1,35.3c15.2,3.1,30.6,4.9,46.1,5.3
		c7.8,0.2,15.5,0.1,23.2-0.3s15.4-1.2,23.2-2.1c1.6-0.2,3.3,0.4,4.3,1.7l0,0L686.9,1804.1z"/>
	<path class="st9" d="M620.9,2047.1c-3.3,6.1-7.1,11.8-11.5,17.1c-2.2,2.7-4.5,5.2-7,7.6c-2.5,2.4-5.2,4.7-8,6.8
		c-1.4,1.1-2.9,2-4.3,3s-3,1.8-4.6,2.6s-3.2,1.5-4.8,2.2s-3.3,1.3-5,1.8c-10.1,2.8-20.7,3.8-31.1,3c-3.5-0.2-6.7-1.5-10.1-2
		c-3.3-0.6-6.6-1.4-9.9-2.2c-3-0.8-6.2-1.4-9.5-2.1c-6.6-1.5-13.1-3.6-19.4-6.3c-3.4-1.4-6.6-3.1-9.7-5.1c-1.7-1.2-3.3-2.4-4.9-3.8
		c-1.9-1.7-3.7-3.5-5.2-5.6l0,0c-1.3-2-0.9-4.6,0.9-6.1l3.2-2.7c0.7-0.5,1.5-0.9,2.4-1.1c0.9-0.2,1.7-0.5,2.6-0.7
		c1.7-0.4,3.5-0.8,5.3-1.1c3.5-0.6,6.9-1.5,10.3-2.6c6.7-2.1,13.3-4.3,19.8-6.6s13-4.8,19.4-7.2c3.2-1.3,6.5-2.3,9.6-3.7
		s6.3-2.7,9.4-4.1c3.3-1.5,6.5-3,9.7-4.2s6.5-2.5,9.7-3.8c6.4-2.5,12.6-5.5,18.6-9c6-3.4,11.7-7.2,17-11c2.7-1.9,5.2-3.9,7.4-5.8
		c1-0.8,1.8-1.7,2.7-2.6l0.2-0.3c0.1-0.1,0.1-0.1,0.2-0.2l0.1-0.2c0,0,0.1-0.1,0.1-0.1s0-0.1,0-0.1c-0.1,0.1-0.2,0.3-0.2,0.5
		l17.3,4.1c-1,4.4-2.2,8.8-3.6,13.2s-3,8.8-4.8,13.1s-3.8,8.6-5.8,12.8S623.2,2042.9,620.9,2047.1z M612,2042.5
		c1.8-3.9,3.3-8,4.5-12.2c1.2-4.2,2.1-8.5,2.8-12.8l2.3-13.1c0.8-4.4,1.7-8.7,2.7-13.1l17.3,4.1c-0.3,1-0.6,2-1,3
		c-0.4,0.8-0.8,1.5-1.2,2.2c-0.2,0.3-0.4,0.6-0.7,0.9l-0.7,0.8c-0.2,0.3-0.5,0.6-0.7,0.8l-0.6,0.7c-0.4,0.4-0.9,0.9-1.3,1.3
		l-1.3,1.1c-0.9,0.7-1.7,1.3-2.5,1.9c-3.2,2.2-6.5,4.1-10,5.7c-6.7,3.1-13.5,5.5-20.1,7.9s-13.3,4.7-19.6,7.6
		c-3.2,1.4-6.4,2.8-9.6,4.2s-6.4,2.6-9.5,3.9l-4.9,2.1c-1.6,0.7-3.3,1.3-4.9,2s-3.3,1.3-4.9,2s-3.3,1.3-4.9,1.9
		c-6.6,2.4-13.2,4.6-19.8,6.8s-13.1,4.5-19.5,7c-1.6,0.6-3.2,1.3-4.7,2.1s-3,1.6-4.5,2.5s-3,1.8-4.4,2.7c-0.7,0.5-1.5,0.9-2.2,1.3
		c-0.7,0.5-1.5,0.8-2.4,0.9l4.1-8.8l0,0c-0.7,0.8-0.9,2-0.4,2.9c0.6,1.1,1.4,2.1,2.4,2.8c2.3,1.8,4.9,3.2,7.6,4.1
		c2.9,1.1,5.9,2,8.9,2.7l9.3,2.4c3.2,0.8,6.3,1.6,9.6,2.5c3,0.9,6.1,1.6,9.2,2.2s6.3,0.5,9.3,0.9c3.1,0.3,6.1,0.7,9.2,0.8
		c6.1,0.2,12.1-0.6,18-2.3c1.5-0.4,2.8-0.9,4.3-1.4s2.8-1.1,4.1-1.8s2.7-1.4,4-2.1s2.6-1.6,3.8-2.5
		C599,2064,606.7,2053.8,612,2042.5L612,2042.5z"/>
	<path class="st9" d="M673.1,1753.6c1,24.6-2.8,49.4-10.2,73c-15,47.3-43.8,89.1-82.7,120.1c-19.2,15.2-40.7,27.4-63.6,35.2
		c84-46.8,139-132.6,146.5-228.5l0,0c0.1-2.8,2.3-5,5.1-4.9S673.2,1750.9,673.1,1753.6L673.1,1753.6z"/>
	<path class="st9" d="M703.4,1730.8l-5.4,5.5l-2.7,2.8c-0.9,0.9-1.9,1.8-2.8,2.6c-1.9,1.8-3.8,3.5-5.8,5.2s-4,3.3-6,4.9l-3,2.4
		c-1,0.8-2.1,1.6-3.1,2.3l-6.3,4.6c-2.1,1.5-4.3,2.9-6.4,4.3s-4.3,2.9-6.5,4.2l-6.7,4c-2.2,1.4-4.5,2.5-6.8,3.8
		c-4.5,2.5-9.2,4.8-13.8,7.1c-2.3,1.2-4.7,2.2-7,3.3s-4.7,2.2-7.1,3.1c-4.8,2-9.5,4-14.3,5.8c-19.2,7.3-38.7,13.3-58.7,18.2
		c-19.8,4.9-39.7,9.1-59.8,12.5c-20.1,3.3-40.3,5.9-60.5,7.7s-40.6,2.6-60.9,2.6s-40.6-0.9-60.8-2.9c-20.2-1.9-40.2-4.9-60.1-9.1
		c-0.3-0.1-0.5-0.4-0.5-0.7c0,0,0,0,0,0c0.1-0.3,0.3-0.4,0.6-0.5c20.2-0.3,40.3-0.5,60.3-1.1s40-1.6,59.9-3.1s39.7-3.2,59.5-5.6
		s39.4-5.1,59-8.5c19.6-3.4,39.1-7.4,58.4-11.9c9.7-2.2,19.2-4.7,28.8-7.3l7.1-2l3.5-1l3.5-1.1l7.1-2.2l7-2.3
		c18.6-6.1,36.8-13.7,54.3-22.7c17.4-9,33.9-19.8,49-32.3l0.2-0.1c2.2-1.7,5.3-1.4,7,0.8C705.2,1726.2,705.1,1729.1,703.4,1730.8
		L703.4,1730.8z"/>
	<path class="st9" d="M534.8,1892.6c24.6-9,47-23,65.9-41.1c18.7-17.8,33.5-39.3,43.5-63.1c1.1-2.6,4-3.8,6.5-2.7s3.8,4,2.7,6.5l0,0
		l-0.1,0.3l0,0c-11.9,24.1-28.7,45.4-49.3,62.6C583.8,1872.3,560.3,1885,534.8,1892.6z"/>
	<path class="st9" d="M995.4,1754.3c-4.9,0.3-9.8,0.2-14.7-0.3c-4.8-0.5-9.6-1.3-14.3-2.4c-4.6-1.1-9.2-2.5-13.8-4.1
		c-4.5-1.6-8.9-3.4-13.2-5.3c-17.3-7.8-32.9-17.9-49-27c-4-2.3-8.1-4.5-12.2-6.6s-8.2-4-12.5-5.9s-8.5-3.4-12.9-4.8
		c-4.4-1.4-8.8-2.5-13.3-3.4c-4.5-0.8-9.1-1.4-13.7-1.6c-4.6-0.2-9.2-0.1-13.8,0.4c-4.6,0.5-9.1,1.5-13.5,2.8
		c-4.4,1.5-8.6,3.3-12.7,5.6c3.9-2.5,8.1-4.6,12.5-6.2c4.4-1.6,8.9-2.7,13.5-3.5c4.6-0.7,9.3-1,14-1c4.7,0.1,9.4,0.4,14,1.1
		c4.6,0.7,9.2,1.6,13.8,2.8c4.5,1.2,9,2.7,13.4,4.3s8.7,3.5,13,5.4s8.5,4,12.6,6.1c16.6,8.4,32.7,17.8,49.6,24.5
		c4.2,1.7,8.5,3.2,12.8,4.5s8.7,2.4,13,3.3c4.4,0.8,8.8,1.4,13.2,1.7c4.4,0.2,8.8,0.1,13.1-0.3h0.1c2.8-0.3,5.2,1.7,5.5,4.5
		s-1.7,5.2-4.5,5.5l0,0L995.4,1754.3z"/>
	<path class="st8" d="M632.9,1649.9c17.9-67.9,7.8-142.7-27.5-203.4c-9.5-16.3-21-31.9-36.5-42.5s-35.8-15.7-53.7-9.9
		c-17.9,5.8-31.2,21.7-40.3,38.3c-18.2,33.6-24.1,72.4-16.6,109.9c3.4,16.8,11.4,35,27.6,40.8c-42.7,24.5-70.6,71.3-77.3,120
		c-1.5,11.2-1.5,23.7,5.9,32.2c5.5,6.4,14,9.2,22.3,10.8c46.4,9.1,93.3-10.7,140.6-12.1C616,1732.9,623,1687.4,632.9,1649.9z"/>
	<path class="st8" d="M690.3,1727.8c111.3,12.6,201.3,96.3,222,206.4c1.7,8.8,1.6,20.2-6.6,23.9c-4.7,2.1-10.2,0.6-14.9-1.3
		c-12.7-5.1-24.3-12.6-34.2-22.1c-7.8,44.9-39.1,85-80.9,103.2c-41.8,18.2-92.7,13.9-130.8-11c-12.2-8-23.5-18.4-29.2-31.9
		c-12.2-29.1,4.8-61.1,16.5-90.4c20.7-51.7,25.7-108.3,14.4-162.9"/>
	<path class="st12" d="M409.4,1730.6c-2.5-1.4-4.5-3.4-5.9-5.9c-1.4-2.5-2.2-5.3-2.5-8.2c-0.5-5.9,1.1-11.7,4.5-16.5
		c3.5-4.7,7.9-8.6,13-11.4c5-2.8,10.2-5.1,15.5-7c10.6-3.9,21.6-6.9,32.8-8.8c11.2-1.8,22.6-2.7,33.9-2.6c11.4,0.1,22.7,1,33.9,2.7
		l8.4,1.4l8.3,1.7c5.5,1.3,11,2.6,16.5,4.3c1.4,0.4,2.7,0.8,4.1,1.2l4,1.3c2.7,0.9,5.4,1.8,8.1,2.8c5.8,2,11.2,4.8,16.2,8.4
		c1.3,1,2.5,2,3.7,3.2c1.2,1.2,2.3,2.4,3.3,3.8c2,2.8,3.5,5.9,4.5,9.2c1,3.4,1.3,6.9,0.8,10.4c-0.5,3.7-1.9,7.2-4.3,10.1
		c-1.7,2.1-4.9,2.5-7,0.7c-2-1.6-2.4-4.5-1-6.6l0.2-0.2c1-1.6,1.6-3.4,1.8-5.2c0.1-2.1-0.1-4.1-0.8-6.1c-0.7-2-1.7-4-3-5.7
		c-0.7-0.9-1.4-1.7-2.2-2.4c-0.8-0.8-1.7-1.5-2.7-2.2c-4.2-2.9-8.7-5.1-13.4-6.8c-2.5-1-5.1-1.8-7.7-2.7l-3.8-1.4
		c-1.3-0.4-2.6-0.8-3.9-1.2c-20.8-6.7-42.4-10.7-64.2-11.9c-21.9-1.3-43.8,1.2-64.8,7.5c-5.3,1.4-10.4,3.4-15.3,5.7
		c-4.8,2.3-9.2,5.5-12.7,9.5c-1.7,2-3.1,4.3-4,6.8c-0.9,2.5-1.4,5.2-1.3,7.9c0,2.7,0.6,5.4,1.7,7.9
		C405.3,1726.9,407.1,1729,409.4,1730.6z"/>
	<path class="st12" d="M614.9,1688.4c-3.2-0.3-6.3-1.1-9.2-2.4c-2.7-1.3-5.3-2.9-7.7-4.8c-4.2-3.5-8.1-7.4-11.6-11.6
		c-7-7.8-13.4-16.2-19.2-24.9c-6-9.1-10.8-18.8-14.4-29.1c-1.8-5.3-3.2-10.6-4.2-16.1c-1.1-5.7-1.4-11.6-1-17.4
		c0.2-3.1,0.7-6.1,1.4-9.1c0.2-0.8,0.4-1.5,0.6-2.2s0.5-1.5,0.7-2.2c0.5-1.6,1.2-3.2,2-4.7c0.9-1.8,2-3.4,3.3-4.9
		c1.5-1.8,3.4-3.3,5.5-4.4c0.5-0.3,1.1-0.5,1.7-0.8c0.6-0.2,1.1-0.4,1.7-0.6c0.6-0.2,1.2-0.3,1.8-0.4s1.2-0.2,1.8-0.2
		c2.2-0.1,4.5,0.1,6.7,0.8c1.8,0.5,3.6,1.3,5.2,2.3c1.5,0.8,2.9,1.8,4.2,2.9c1.2,1,2.4,2.1,3.5,3.2c0.5,0.6,1,1.1,1.5,1.7l0.7,0.8
		l0.6,0.8l2.5,3.2l2.4,3.3c0.8,1.1,1.5,2.2,2.2,3.3s1.5,2.2,2.2,3.4c2.8,4.5,5.3,9.3,7.4,14.2c2.2,4.8,4,9.8,5.4,14.9
		c2.9,10,4.4,20.4,4.3,30.8c-6.2-19.6-15.5-37.3-27.9-52.2c-3-3.7-6.3-7.3-9.8-10.6l-0.6-0.6l-0.6-0.5c-0.4-0.4-0.8-0.7-1.2-1
		c-0.8-0.6-1.5-1.2-2.4-1.7c-1.2-0.9-2.6-1.5-4-1.8c-0.3-0.1-0.6,0-0.9,0.1c-0.1,0-0.1,0.2-0.2,0.2c-0.1,0.2-0.2,0.3-0.3,0.5
		c-0.3,0.5-0.6,1-0.8,1.5c-0.6,1.7-1.1,3.5-1.5,5.3c-0.4,2-0.6,4-0.6,6c0,4.3,0.4,8.6,1.3,12.9c0.4,2.2,1.1,4.4,1.6,6.7
		s1.3,4.4,2.1,6.6c3.2,8.9,7.1,17.6,11.8,25.8c4.8,8.4,10.1,16.7,15.7,25c2.5,4,5.3,7.8,8.3,11.5c2.9,3.3,5.8,5.9,9.4,7.2l0.3,0.1
		c2.6,0.9,4,3.7,3.1,6.3C619.4,1687.3,617.2,1688.7,614.9,1688.4L614.9,1688.4z"/>
	<path class="st12" d="M657.2,1758c1.4-1.1,3.1-1.7,4.9-1.7c1.5,0,3,0.2,4.3,0.8c2.1,0.9,4.1,2.2,5.8,3.8l0.6,0.6l0.5,0.5l1,1l2,1.9
		l3.8,4c4.9,5.4,9.4,11.2,13.6,17.2c4.1,6,8,12.2,11.5,18.5s6.8,12.8,9.9,19.3s6,13.1,8.7,19.7s5.3,13.4,7.7,20.2
		c4.9,13.6,8.9,27.5,12,41.6c3.1,14.1,5.1,28.5,6,42.9c0.8,14.4,0.2,28.9-1.8,43.2c-1,7.2-2.6,14.3-4.8,21.2
		c-2.3,7-5.8,13.5-10.4,19.3c-4.6,5.8-10.6,10.2-17.5,13c-6.7,2.8-14.2,3.3-21.2,1.3c3.5,0.7,7,0.8,10.5,0.3
		c3.4-0.6,6.8-1.6,9.9-3.2c6.2-3.1,11.5-7.7,15.5-13.4c3.9-5.7,6.8-12,8.5-18.7c1.8-6.7,2.9-13.6,3.4-20.5c1.2-14,1.1-28-0.4-41.9
		c-1.4-13.9-3.9-27.7-7.4-41.3c-3.5-13.6-7.8-26.9-12.8-40c-5-13.1-10.8-25.9-16.8-38.6c-3-6.3-6.1-12.6-9.5-18.7s-6.7-12.2-10.5-18
		c-3.7-5.9-7.6-11.5-11.9-17l-3.3-4l-3.3-3.9c-0.8-0.9-1.8-1.7-2.8-2.4c-0.3-0.2-0.5-0.3-0.8-0.4c-0.1,0,0-0.1-0.1-0.1h-2.5
		c-2,0-3.7-1.7-3.6-3.7c0-1.1,0.5-2.1,1.4-2.8L657.2,1758z"/>
	<path class="st12" d="M682.8,1744c10.4-1,20.9-0.4,31.1,1.7c5.1,1,10.2,2.4,15.2,4.2c5,1.8,9.9,3.9,14.5,6.4
		c4.7,2.5,9.2,5.5,13.3,8.8c1,0.9,2.1,1.6,3.1,2.6l3,2.7c1.9,1.9,3.8,3.8,5.6,5.9l1.3,1.6l1.2,1.6c0.8,1.1,1.7,2.1,2.4,3.3
		s1.5,2.3,2.2,3.4l2,3.6c2.5,4.9,4.5,10.1,5.7,15.5c0.6,2.9,0.9,5.8,0.9,8.8c0,3.1-0.5,6.2-1.4,9.1c-1,3.3-2.8,6.3-5.2,8.7
		c-2.6,2.5-5.8,4.2-9.4,4.9c-1.7,0.3-3.3,0.4-5,0.2c-1.5-0.1-3.1-0.4-4.6-0.8c-2.7-0.7-5.4-1.8-7.9-3.1c-1.2-0.6-2.3-1.3-3.5-1.9
		s-2.3-1.3-3.3-2s-2.2-1.4-3.2-2.2l-3.1-2.3c-16.4-12.7-28.2-30.6-32.8-50.1c7.9,17.9,20.9,33,37.5,43.3l3,1.8
		c1,0.6,2.1,1.1,3.1,1.7s2.1,1,3.2,1.6s2.1,1,3.2,1.4c2,0.8,4,1.4,6.1,1.8c0.9,0.1,1.9,0.2,2.8,0.2c0.8,0,1.6-0.1,2.4-0.3
		c2.8-0.8,4.5-2.9,5.4-6.3c0.8-3.8,0.6-7.8-0.6-11.5c-1.3-4.2-3-8.3-5.2-12.1c-2.2-3.8-4.9-7.4-7.9-10.7c-1.5-1.7-3.1-3.2-4.7-4.8
		l-2.6-2.2c-0.8-0.8-1.8-1.4-2.7-2.1l-1.3-1.1l-1.4-1c-0.9-0.6-1.8-1.4-2.8-1.9l-2.9-1.9l-3-1.7c-4-2.2-8.2-4.2-12.5-5.9
		c-4.3-1.7-8.8-3.2-13.3-4.4c-2.3-0.6-4.5-1.2-6.8-1.7s-4.6-0.9-6.9-1.3c-4.7-0.8-9.3-1.2-14.1-1.6h0c-2.8,0-5-2.2-5.1-4.9
		C677.9,1746.3,680.1,1744.1,682.8,1744L682.8,1744z"/>
	<path class="st13" d="M660.4,1663c-4.6-4.9-10.2-9.4-16.8-10.7c-14.7-2.9-27.3,10.6-34.6,23.7c-9.6,17.2-15.9,35.9-18.6,55.4
		c-0.6,4.2-1,8.6,0.3,12.6c3.1,9.3,14,13.4,23.8,14.7c31.4,4.4,62.8-6,92.3-17.4c4.7-1.8,9.7-3.9,12.5-8.1c4.8-7,1.3-16.8-4.2-23.3
		c-10.9-12.7-27.6-16-43.5-14C673.6,1683.5,669,1672,660.4,1663z"/>
	<path class="st14" d="M632.9,1719.2c11.4-13.2,27.3-21.7,44.7-23.7"/>
</g>
<g id="lantern_glow">
	
		<linearGradient id="SVGID_00000038408887441449848070000010217664681174461618_" gradientUnits="userSpaceOnUse" x1="2383.4858" y1="685.5781" x2="2842.5398" y2="1144.632" gradientTransform="matrix(1 0 0 -1 0 2432.2495)">
		<stop  offset="0" style="stop-color:#FFEAE1"/>
		<stop  offset="3.000000e-02" style="stop-color:#FFE6DB"/>
		<stop  offset="0.2" style="stop-color:#FDD0BB"/>
		<stop  offset="0.38" style="stop-color:#FCBFA2"/>
		<stop  offset="0.57" style="stop-color:#FCB390"/>
		<stop  offset="0.77" style="stop-color:#FBAC85"/>
		<stop  offset="1" style="stop-color:#FBAA82"/>
	</linearGradient>
	
		<path style="fill:url(#SVGID_00000038408887441449848070000010217664681174461618_);stroke:#C34E4C;stroke-width:10;stroke-linecap:round;stroke-linejoin:round;" d="
		M2680.7,1244c-28.4,25.4-70.8,17.7-107.9,13.7c-46.5-5-98.7,0.5-130.8,35.9c-7.2,7.9-13.3,18-12.6,28.8c1.1,15,14.9,25.7,28.7,30.4
		s28.7,5.6,41.7,12.2c9.1,4.6,17.5,13.3,17.3,23.8c-0.4,17.9-22.4,24.5-39.5,26.8c-67.7,9-134.6,30.6-191.4,69.9
		c-25.1,17.4-48.7,39-61.5,67.5c-4,8.9-6.9,19.4-3.4,28.6c3.8,10,14,15.7,23.9,18.8c32.9,10.4,68.7,1.6,100.4-12.1
		s61.7-32.3,94.6-42.6c11.1-3.5,24.6-5.4,33.1,2.8c6.3,6.1,7.7,16,6.8,24.9c-3,29.4-25.4,52.3-35.5,79.9c-3.2,8.7-5,19-0.3,26.9
		c8,13.6,28.1,10.4,41.3,2.2s25.9-20.1,41.2-19.1c5.1,0.3,10.2,2.3,13.6,6.2c11,12.6-1.5,31.6-12,44.6
		c-20.7,25.7-34.9,56.1-41.4,88.5c-2.7,13.5-3.2,29.7,6.8,38.7c9,8,22.6,6.6,33.8,2.5c65.2-23.5,90.5-109.6,151.4-143.2
		c12.3-6.8,31.6-8.8,36.6,4.8c2,5.4,0.8,11.5,2.2,17c2.8,10.6,15,16.2,25.5,14.5s19.4-8.6,27.4-15.8c19.2-17.3,36.8-39.8,38-66.2
		c0.7-15.6-4.1-32.5,3.4-46c8.1-14.8,30.8-17.5,41.9-5c3.9,4.3,6.3,9.9,10.1,14.2c11.5,12.9,33.6,10.4,45.1-2.6s13.3-32.9,8.3-49.7
		s-15.7-31.2-27-44.2c-13.2-15.2-28.7-32.2-27.2-52.7c1.8-24.3,33.5-24,41.8-50.5c10.1-31.9-19.2-83.2-54.8-93.8
		c-22.1-6.5-44.5,3.3-51.4-8.8c-3.5-6.1-0.3-13,1.2-19.9c8.1-36.8-26.2-91.9-57.1-95C2721.5,1198.8,2712.1,1215.8,2680.7,1244z"/>
	
		<linearGradient id="SVGID_00000036937019919699607290000013596483644434975646_" gradientUnits="userSpaceOnUse" x1="2517.0422" y1="755.7987" x2="2707.2197" y2="1085.1926" gradientTransform="matrix(1 0 0 -1 0 2432.2495)">
		<stop  offset="0" style="stop-color:#FFEAE1"/>
		<stop  offset="1" style="stop-color:#A6E8E2"/>
	</linearGradient>
	<path style="fill:url(#SVGID_00000036937019919699607290000013596483644434975646_);" d="M2657.7,1340.9
		c-20.2,2.8-38.6-10.8-56.6-20.6c-12.3-6.7-25.6-11.8-39.5-12.4s-28.3,3.9-38,14.2c-2.4,2.5-4.4,5.5-5,8.9s0.6,7.2,2.2,10.4
		c8.9,17.8,31.4,30.3,28.6,50.2c-1.4,10.3-10,18.3-19.4,21.8s-19.6,3.6-29.6,4c-21.6,0.8-43.5,3.1-63.8,11.1s-39,21.8-49.6,41.5
		c-3.1,5.8-5.6,12.7-3.4,19c3.9,11.2,18.9,12,29.9,8.9c28.6-8.2,53.9-29.5,83.6-30.3c4.4-0.1,9.2,0.4,12.2,3.7
		c6.5,7.1-1,18.7-8.8,24.2s-17.7,12.5-16,22.2c1.1,6.6,7.5,10.7,13.7,12.3s12.8,1.4,18.9,3.4c16.7,5.5,24.9,29.3,15.3,44.6
		c-2.5,4-5.9,7.3-8,11.5s-2.7,9.8,0.3,13.3c1.8,2.1,4.6,3,7.2,3.6c9.5,1.9,19.2-0.4,28.8-1.1s20.3,0.6,26.9,7.9
		c11.4,12.4,4.3,32.8-3.8,47.8s-16.5,34.2-6.8,48c6.3,9,18.4,11.8,28.9,9.4s19.5-8.8,28.1-15.4c17.6-13.6,35.9-31.3,36.7-54.1
		c0.7-17.9-9.8-36-4.4-53s27.9-24.8,42-14.7c9.1,6.5,13.6,18,15.3,29.4s0.9,22.9,1.9,34.3c0.8,9.6,3.6,20.2,11.5,25.1
		c9.8,6,22.5,0.5,31.3-6.9c18.8-15.8,30.1-40.8,30.1-65.9c0-14.8-3.8-29.6-2.8-44.4s8.7-30.9,22.6-34.3c6.5-1.6,13.9-0.5,19.2-4.7
		s6.2-12.3,5.4-19.3c-1.6-14.7-8.4-28.3-19.2-38.4c-9.9-9.2-22.6-14.7-31.8-24.7s-13.1-27.7-3.2-36.8"/>
	
		<linearGradient id="SVGID_00000078764845645764212020000012406909409589230251_" gradientUnits="userSpaceOnUse" x1="2258.5647" y1="896.6404" x2="2396.679" y2="896.6404" gradientTransform="matrix(1 0 0 -1 0 2432.2495)">
		<stop  offset="0" style="stop-color:#FFEAE1"/>
		<stop  offset="0.19" style="stop-color:#F5EAE1"/>
		<stop  offset="0.52" style="stop-color:#D9E9E1"/>
		<stop  offset="0.94" style="stop-color:#ADE8E2"/>
		<stop  offset="1" style="stop-color:#A6E8E2"/>
	</linearGradient>
	<path style="fill:url(#SVGID_00000078764845645764212020000012406909409589230251_);" d="M2282,1561.2c-7.4-0.4-15.6-1.9-20.3-7.9
		c-6.9-9.1-1.6-23,6.8-30.6c18.3-16.5,45.7-14.5,69.1-8.2c19.8,5.3,38.6,11.1,59.1,13.3c-5.7,12.7-40.8,20.6-53.3,24.5
		C2323.5,1558.5,2302.8,1562.3,2282,1561.2z"/>
	<path class="st18" d="M2366.8,1612.9c-3.2,1.3-6.6,3-8.6,5.9c-3.2,4.5-2.4,11.2,0.7,15.8s8.2,7.4,13.3,9.2
		c15.6,5.5,34,2.5,46.4-8.7c9-8.1,24.6-36.7,5-40.5c-7.8-1.5-17.5,5.8-24.5,8.3C2388.4,1606.5,2377.3,1608.6,2366.8,1612.9z"/>
	<path class="st18" d="M2845.1,1723.8c7.2,5.4,18.2,1.8,23.4-5.7s5.7-17.5,4.3-26.7c7.1,9.2,19.3,0.8,18.7-9.1
		c-0.6-10.8-14.3-20.6-23.9-17.7C2851.8,1669.5,2827.4,1710.5,2845.1,1723.8z"/>
	<path class="st18" d="M2698.3,1840.7c-17.4,25.6-36.9,51-44.4,81.6c-2.4,9.6-2.9,21.2,4,28.4c5.5,5.6,14.2,6.6,21.4,4.2
		s13.1-7.7,18.4-13.2c19.9-20.9,33.2-47.9,39.1-76.7c3.5-17,11.5-74.1-7.3-84.7C2717.7,1798.5,2711.1,1821.8,2698.3,1840.7z"/>
</g>
<g id="lantern">
	<path class="st8" d="M2756.7,1549.2c0.6-0.8,1.9-0.1,2.6,0.7c6.6,6.8,16.6,13.2,23.2,20c-55.9,19-110.8,41-164.4,65.9
		c-39.9-46.2-76.1-95.5-108.2-147.5l31.8-12.1c1-0.4,2.6-0.5,2.8,0.7c56.9,14.4,113.9,33.2,169.2,53
		C2728.9,1535.2,2743.3,1539.9,2756.7,1549.2z"/>
	<path class="st19" d="M2800,1423c-14.3,43.8-28.6,87.6-42.9,131.4l-130.4,34.4c-29.9-35-58.2-71.5-84.9-109.3h0.2l36.1-121.7"/>
	<path class="st8" d="M2819.1,1423.9c-26.3-18.7-49.4-44.5-66.5-72.2c3.1-6.9,5.6-15.7,8.6-22.6c-14.2-9.8-27-24.9-36.6-39.5
		c-18.8,4.1-38,6.3-57.2,6.4c-1.4,10.9-5.5,21.2-11.9,30c-30.6,6.6-62.7,10.7-93.9,13.5c30.5,33.7,64.4,66.7,97.4,97.7
		C2712,1433.1,2766.2,1428,2819.1,1423.9z"/>
	<path class="st8" d="M2708.4,1295.7c-1.7-5.3,1.3-11,5.1-15.1c3.6-3.8,8.7-7.1,13.9-6.1c4.6,0.8,8.1,4.7,9.8,9
		c3.2,8.6,0.5,18.3-6.7,23.9"/>
	<path class="st20" d="M2611.9,1533.1c-8.5-2.3-15.2-9-17.6-17.4c-2.4-8.6-0.2-17.9,5.7-24.6c3.7-4.1,8.7-6.8,12.6-10.6
		c6.4-6.3,9.9-15,9.7-24c7,11.7,9.8,25.2,5.5,38.3c5.8-5.5,12.7-11.8,17.2-18.5s7.8-14.6,7.7-22.7c8.3,20.6,8,46.8-3.5,65.7
		c9.9-5,21.6-9.9,27-19.9c0.6,12.1-3.6,23.9-11.9,32.9c-8.1,8.6-19.5,13.3-31.3,12.9c-7.1-0.3-14.9-5.3-20-10.4
		C2612.1,1533.9,2610.8,1533.7,2611.9,1533.1z"/>
	<path class="st9" d="M2606.9,1533.8c-0.1,0.7,0,1.4,0.4,2c0.3,0.6,0.8,1,1.4,1.2h0.1c0,0-0.1,0-0.1,0l-0.2-0.1l-0.4-0.2l-0.8-0.4
		c-1-0.6-2-1.2-3-1.9c-1.8-1.4-3.5-2.9-5-4.6c-2.9-3.3-5.1-7.2-6.4-11.4c-2.3-8.1-1-16.9,3.6-24c1.1-1.7,2.4-3.3,3.9-4.7
		c1.5-1.4,3-2.6,4.7-3.8c3.2-2.4,6.5-4.6,8.8-7.8c2.4-3.1,3.9-6.7,4.6-10.5c0.7-3.7,0.3-7.5-1.2-10.9v-0.4c0.1-2.8,2.5-4.9,5.2-4.8
		c1.7,0.1,3.2,1,4,2.4c3.8,6.2,6.4,13.1,7.6,20.3c1.2,7.4,0.6,14.9-1.7,22.1l-8.2-5.2c3-2.9,6-5.6,8.8-8.5c2.7-2.7,5.3-5.7,7.5-8.8
		c4.3-6.1,7.1-13.3,7-20.2l0,0c0-2.8,2.2-5,4.9-5.1c2.1,0,3.9,1.2,4.7,3.1c4.4,11.2,6.5,23.3,6,35.4c-0.2,6.1-1.1,12.1-2.7,17.9
		c-1.6,5.9-4,11.6-7.2,16.9l-6.5-7c5.2-2.6,10.2-4.9,14.6-7.7s8.1-6.1,10.2-10c1.3-2.4,4.3-3.3,6.8-2c1.5,0.8,2.5,2.4,2.6,4.1
		c0.5,9-1.5,17.9-5.6,25.9c-2.1,4-4.7,7.7-7.8,10.9c-3.1,3.3-6.7,6-10.6,8.3c-1,0.6-2,1-3,1.6s-2,0.9-3.1,1.3
		c-2.1,0.8-4.3,1.5-6.5,2c-2.2,0.5-4.4,0.8-6.7,1c-1.1,0-2.3,0.2-3.4,0.1h-1.7c-0.6,0-1.3-0.1-1.9-0.2c-4.7-0.8-9.2-2.5-13.1-5.2
		c-1.9-1.2-3.7-2.5-5.4-4c-0.9-0.7-1.7-1.5-2.5-2.2l-0.1-0.2c0,0-0.1-0.1-0.1-0.1s0.1,0.1,0.1,0.1l-0.2-0.2l-0.2-0.1l-0.4-0.2
		l-0.2-0.2l-0.4-0.3c-0.1-0.1-0.3-0.3-0.5-0.5l-0.3-0.3c-0.1-0.2-0.3-0.4-0.4-0.6c-0.3-0.5-0.5-1.1-0.6-1.7c0-0.4,0-0.7,0-1.1
		c0-0.3,0.1-0.7,0.1-1c0.1-0.5,0.3-1,0.6-1.5c0.2-0.3,0.4-0.6,0.7-0.9c0.1-0.1,0.3-0.3,0.4-0.4l0.2-0.2l0.1-0.1
		c-0.1,0.1-0.2,0.2-0.4,0.3C2607.1,1530.7,2606.6,1532.3,2606.9,1533.8L2606.9,1533.8z M2616.8,1532.4c0.1,0.8,0,1.6-0.3,2.4
		c-0.3,0.8-0.8,1.5-1.4,2.1c-0.1,0.1-0.3,0.2-0.4,0.3l0.1-0.1l0.1-0.1l0.3-0.3c0.2-0.2,0.4-0.5,0.6-0.7c0.3-0.4,0.4-0.9,0.6-1.3
		c0.1-0.3,0.1-0.6,0.1-0.9c0-0.3,0-0.7-0.1-1c-0.1-0.5-0.3-1-0.5-1.5c-0.1-0.2-0.2-0.4-0.3-0.5l-0.2-0.3c-0.1-0.2-0.4-0.4-0.4-0.4
		l-0.2-0.2l-0.1-0.1l0,0l0.1,0.1c0.2,0.1,0.6,0.4,1,0.7c0.2,0.2,0.5,0.4,0.7,0.6l0.3,0.3c0.6,0.6,1.3,1.2,2,1.8
		c1.4,1.1,2.8,2.2,4.3,3.2c2.8,1.8,5.9,3.1,9.1,3.7c0.4,0.1,0.7,0.1,1.1,0.1h1.3c0.9,0,1.8,0,2.6-0.1c1.8-0.1,3.5-0.4,5.2-0.8
		c6.9-1.6,13.3-5.2,18.2-10.3c2.4-2.6,4.5-5.5,6.1-8.7c3.3-6.4,4.9-13.5,4.5-20.7l9.4,2.1c-1.6,3-3.7,5.7-6.1,8
		c-2.3,2.2-4.8,4.1-7.5,5.8c-5.2,3.3-10.5,5.7-15.5,8.2c-2.5,1.2-5.5,0.2-6.7-2.3c-0.7-1.5-0.7-3.3,0.2-4.7l0,0
		c5.4-8.8,8-19.4,8.4-30c0.4-10.7-1.4-21.3-5.3-31.2l9.6-2c0,4.8-0.8,9.5-2.4,14c-1.6,4.3-3.7,8.4-6.4,12.1
		c-2.6,3.6-5.4,6.9-8.6,10.1c-3,3.1-6.1,6-9.1,8.8l0,0c-2,1.9-5.2,1.8-7.1-0.2c-1.3-1.3-1.7-3.3-1.1-5c1.8-5.6,2.3-11.5,1.3-17.3
		c-1-5.9-3.2-11.6-6.3-16.8l9.3-2.7l0,0c-1.2,4.3-2.9,8.5-5,12.5c-2,3.6-4.4,7-7.3,10c-2.9,2.8-6,5.4-9.2,7.7
		c-3.2,2.2-5.9,5.1-7.9,8.5c-1.9,3.3-3,7.1-3.2,10.9c-0.2,3.7,0.5,7.5,2.1,10.8c1.6,3.2,3.9,6,6.9,8.1c1.4,1,2.9,1.8,4.6,2.3
		c0.8,0.3,1.6,0.5,2.4,0.7l0.6,0.1h0.3h0.1h0.1l0.3,0.1c1,0.3,2,0.9,2.8,1.6C2615.8,1530.6,2616.4,1531.4,2616.8,1532.4
		L2616.8,1532.4z"/>
	<path class="st21" d="M2711.2,1268c-1.7-6.3,0.3-12.9,5.2-17.2c5-4.2,11.6-5.8,18-4.4c6.3,1.5,11.9,5.3,15.4,10.8
		c1.9,2.6,3,5.8,2.9,9.1c-0.3,3.2-1.8,6.2-4.1,8.4C2739.3,1284,2715.4,1282.2,2711.2,1268z"/>
	<path class="st21" d="M2734.7,1261.3c-23.5-9-38.5-33.8-40.5-58.9s7-49.9,20.4-71.3c13-20.8,29.9-38.8,49.9-53.1
		c10.9-7.8,22.9-14.6,36.1-17.5s27.6-1.7,39,5.5"/>
	<path class="st21" d="M2859.6,1140.2c-1.3,38.2-18.8,74-48.1,98.6c-21.5,17.9-50.7,28.8-77.8,21.8"/>
	<path class="st19" d="M2675.9,1430l-49.4,158.8"/>
	<path class="st20" d="M2686.1,1467.9c-1.4,3.6-2.8,7.3-2.4,11.2s3.1,7.8,6.8,7.9c1.7,0,3.3-0.6,4.6-1.7c4.1-3.2,5-9.5,3.6-14.6
		c-1.1-4.1-4.4-11.4-8.4-12.8C2688.5,1460.9,2687.4,1464.6,2686.1,1467.9z"/>
	<path class="st9" d="M2687.4,1468.4c-0.8,1-1.7,2-2.4,3.1c-0.6,1.1-1,2.3-1.2,3.5c-0.5,2.4-0.3,5,0.7,7.2c0.5,1.1,1.3,2.1,2.2,2.9
		c0.9,0.8,2,1.3,3.2,1.4c1.2,0.1,2.3-0.2,3.3-0.8c1-0.6,1.9-1.4,2.5-2.3c1.3-1.9,2-4.1,1.9-6.4c0-2.2-0.5-4.5-1.5-6.5
		c-1-2.1-2.3-4-3.8-5.7c-0.7-0.8-1.4-1.4-2.3-2c-0.7-0.4-1.5-0.6-1.6-0.3l0,0l5.9-2.2c-1.4,0.9-2.6,2.1-3.7,3.4
		c-0.6,0.7-1.1,1.4-1.7,2.2L2687.4,1468.4z M2684.8,1467.4l0.3-5.7c0.1-2.1,0.4-4.3,0.9-6.4c0.3-1.5,1.7-2.4,3.2-2.3l2.8,0.2l0,0
		c1.8,1,3.3,2.4,4.4,4.1c0.8,1.3,1.5,2.6,2.1,4c1,2.5,1.8,5.2,2.3,7.9c0.5,2.7,0.5,5.5,0,8.2c-0.5,2.7-1.7,5.2-3.6,7.2
		c-0.9,1-2,1.7-3.3,2.3c-1.2,0.5-2.6,0.7-3.9,0.5c-1.3-0.3-2.5-0.9-3.4-1.9c-0.9-0.9-1.6-2-2.1-3.1c-0.9-2.3-1.1-4.9-0.5-7.3
		c0.3-1.2,0.5-2.4,0.7-3.7L2684.8,1467.4z"/>
	<path class="st18" d="M2691.4,1527.2c-1.7,4-2.6,9,0,12.5c2.1,2.8,5.9,3.7,9.3,3.5c7.1-0.4,13.9-4.4,18.4-10.1
		c4.5-6,7-13.2,7.3-20.6c-4.3,4.1-9.4,7.3-14.9,9.5c4.6-1.8,12.5-32.5,1-25c-4.1,2.7-7.4,9.8-10.4,13.7
		C2698.1,1515.7,2694,1521,2691.4,1527.2z"/>
	<path class="st11" d="M2623.4,1509c-3.1-0.2-6.7-0.8-8.9,1.4l-0.1-10.9c0-0.5-0.1-0.9-0.3-1.3c-0.7-0.9-2.1,0.1-2.8,1.1
		c-4.4,7.5-4.4,16.7-0.1,24.2c1,1.9,2.5,3.5,4.2,4.7c4.1,2.6,9.6,1.6,13.5-1.3s12.6-13.1,11.1-18.5
		C2638.4,1502.1,2628.5,1509.3,2623.4,1509z"/>
</g>
<g id="hat_lower">
	<path class="st8" d="M1250.3,562.9c-5.2-29.7-6.2-59.9-2.9-89.9c8.3-73.7,38.4-99.3,31.9-162.5c-2.2-21.8-5.4-49.1-27.1-70.5
		c-33.6-33.1-85.8-26.7-95.5-25.3c-2.3,11.2-7.3,21.4-11.3,32.3c-1.3,3.5-2.7,7.1-5.5,9.8c-6,5.9-16.4,6-24.9,4.1
		s-16.7-5.5-25.6-5.3c37.1,44,53.7,96,47.2,151.7c-0.8,7-2.1,14.2-6.5,20.1c-7,9.3-20.6,13.4-33,12.9s-24-4.5-35.6-8.2
		c-25-7.9-50.6-14-76.6-18.1c-15.2-2.4-30.9-4.2-46.2-1.5c-5.4,1-30.6,7.6-37.5,23.2c-8.7,19.7,11.6,55.2,55.6,80.6
		c-9.6-3.4-24.3-8.5-42.9-14.6c-5.7-1.8-6.8-1.8-7.8-2.5c-26.6-20-50-43.9-69.5-70.9c-11.8-16.6-22.1-37.7-12-55.7
		c10-17.7,35.3-24,57.2-23.2c18.9,0.7,41.5,4,53.8-9.2c3.9-4.2,6-9.4,7.3-14.6c5.3-20.9-0.3-43-14.7-58.9c-13.7,3.2-28.3,0-42.1,3.2
		c-3.8,0.9-7.9,1.7-11.3,0.2c-6.2-2.8-5.6-10.8-3.6-16.8c8.1-25.5,23.6-48.8,40.9-70.6c35.7-45.1,79.7-85.1,129.5-117.9
		c37,7,74.3,12,111.9,15c176.7,14.1,248.1-25.4,354.6,5.1c39.8,11.4,95.5,35.7,154.7,94.3c10.2,3.1,25.5,7.8,44.2,13.4
		c74.3,22.3,95.1,27.2,105.8,31.2c33.4,12.1,73.8,52,99.5,178c-102.7,50.5-210.5,89.6-321.7,116.7
		C1479.4,545.5,1365.2,560.4,1250.3,562.9z"/>
	<path class="st22" d="M1219.3,620.9c0-0.1,0-0.3,0-0.4c5.8-48.6,0.6-63.8,11.1-88.3c4.2-9.8,12.5-24.8,29.9-39.9
		c209.1-83.9,436.3-112.6,659.7-83.5c63.2,59.3,72.4,97.5,65.6,122.7C1944.3,685,1222.6,658.8,1219.3,620.9z"/>
	
		<linearGradient id="SVGID_00000105401329236393963270000008146535441224068527_" gradientUnits="userSpaceOnUse" x1="1475.1459" y1="1768.7284" x2="2366.1975" y2="1768.7284" gradientTransform="matrix(1 0 0 -1 0 2432.2495)">
		<stop  offset="0" style="stop-color:#2B5A6D"/>
		<stop  offset="1" style="stop-color:#FBAA82"/>
	</linearGradient>
	<path style="fill:url(#SVGID_00000105401329236393963270000008146535441224068527_);" d="M1840.8,519.6
		c85.2-17.6,172.8-20.3,259-8.2c80.3,11.4,160.8,36.9,223.2,88.6c26.3,21.8,50.8,54.8,40.9,87.6c-6.6,21.8-26.6,36.5-46.4,47.6
		c-102.4,57.7-225.6,61.2-343.1,63.2c-137.9,2.4-278.1,32-415.7,22.7c-15.8-1.1-32-3-45.8-10.8c-20-11.1-32.2-33.1-36.1-55.7
		s-0.5-45.7,4.5-68c3.1-13.5,6.9-27.3,15.2-38.3c9.5-12.7,24-20.7,38.1-27.9c78.5-40.2,161.9-70,248.1-88.6"/>
	<path class="st12" d="M1840.8,519.6c81-18.2,164.4-22.5,246.8-13c20.6,2.4,41.1,5.6,61.4,9.9c20.4,4.3,40.4,9.8,60.1,16.5
		c19.8,6.7,39,14.9,57.5,24.5c18.6,9.6,36.3,20.9,52.8,33.8l6.2,4.8c2,1.7,4.1,3.4,6,5.2c4,3.5,7.8,7.2,11.4,11.2
		c3.6,3.9,7,8,10.2,12.4c3.2,4.3,6.1,8.9,8.6,13.7c5.1,9.6,8.7,20.3,9.2,31.6c0.3,5.7-0.3,11.3-1.7,16.8c-1.4,5.5-3.6,10.7-6.5,15.5
		c-2.8,4.8-6.2,9.2-10.1,13.2c-3.8,3.9-7.8,7.5-12.1,10.8c-8.5,6.4-17.5,12-26.9,16.9l-3.4,1.9l-3.5,1.8c-2.3,1.2-4.7,2.4-7,3.5
		c-4.7,2.2-9.4,4.5-14.2,6.6s-9.6,4.1-14.5,6c-2.4,1-4.9,1.8-7.3,2.8l-3.7,1.4l-3.7,1.3c-9.8,3.5-19.8,6.5-29.9,9.4
		s-20.2,5.2-30.4,7.5c-20.4,4.4-40.9,7.7-61.6,10.2c-41.3,5-82.7,6.8-124.1,7.9l-31,0.7c-5.2,0.1-10.3,0.3-15.4,0.4l-15.4,0.5
		l-15.4,0.8c-5.1,0.3-10.3,0.5-15.4,0.9c-10.3,0.7-20.5,1.3-30.8,2.2c-41,3.3-82.1,7.6-123.2,11.5s-82.5,7.1-124,8.1l-3.9,0.1h-3.9
		l-7.8,0.1c-5.2,0-10.4,0.1-15.6,0.1l-15.6-0.3l-7.8-0.2c-2.6-0.1-5.2-0.2-7.8-0.4l-15.6-0.8c-5.2-0.2-10.4-0.7-15.7-1.2
		c-10.6-1.2-21.4-3.3-31.7-8.1c-5.1-2.4-9.9-5.4-14.3-9c-4.3-3.6-8.2-7.6-11.7-12c-6.7-8.8-11.7-18.8-14.8-29.4
		c-1.6-5.2-2.7-10.6-3.4-16c-0.7-5.4-1.1-10.8-1.1-16.2c0-10.7,0.9-21.3,2.8-31.8c0.9-5.2,1.9-10.4,3-15.5s2.3-10.2,3.8-15.4
		c1.5-5.2,3.4-10.4,5.7-15.3c1.2-2.5,2.5-5,4-7.4c1.5-2.4,3.1-4.7,4.9-6.9c3.6-4.3,7.6-8.2,12-11.6c4.3-3.3,8.8-6.3,13.5-9
		c9.3-5.3,18.6-9.7,27.8-14.4c74.6-36.5,153.5-63.7,234.8-81.1c2.7-0.6,5.4,1.1,5.9,3.8c0.6,2.7-1.1,5.4-3.8,6l0,0l0,0
		c-80.3,17.7-158.2,45-231.9,81.3c-9.1,4.7-18.5,9.1-27.1,14.1c-4.3,2.4-8.3,5.2-12.2,8.2c-3.8,2.9-7.2,6.2-10.2,9.8
		c-5.9,7.2-9.6,16.1-12.3,25.7c-1.4,4.8-2.5,9.7-3.6,14.7s-2.1,9.9-2.9,14.9c-1.7,9.8-2.6,19.8-2.6,29.8c0,9.8,1.4,19.6,4.2,29
		c2.7,9.2,7.1,17.9,12.9,25.6c5.7,7.5,13.1,13.5,21.7,17.6c8.5,4,18.2,5.9,28.1,7.1c5,0.5,10,1,15.1,1.2l15.3,0.8
		c2.6,0.1,5.1,0.3,7.7,0.4l7.7,0.1l15.4,0.3c5.1,0,10.3-0.1,15.4-0.1l7.7-0.1h3.8l3.8-0.1c41.1-1.1,82.1-4.3,123.2-8.1
		s82.1-8.2,123.4-11.4c10.3-0.9,20.7-1.5,31-2.2c5.2-0.4,10.3-0.6,15.5-0.8l15.5-0.8l15.6-0.4c5.2-0.1,10.4-0.3,15.5-0.4l30.9-0.6
		c41.2-0.9,82.3-2.7,123-7.5c20.4-2.4,40.6-5.6,60.6-9.8c10-2.2,19.9-4.5,29.8-7.2s19.6-5.7,29.2-9.1l3.6-1.2l3.6-1.3
		c2.4-0.9,4.8-1.8,7.1-2.7c4.7-1.9,9.5-3.8,14.1-5.8s9.3-4.2,13.9-6.3c2.3-1.1,4.6-2.3,6.8-3.4l3.4-1.7l3.4-1.8
		c8.9-4.6,17.5-9.9,25.6-15.9c7.8-6,14.9-12.9,19.7-21c2.4-4,4.2-8.4,5.4-12.9c1.2-4.5,1.7-9.2,1.5-13.9c-0.3-9.4-3.4-18.8-7.9-27.4
		c-4.7-8.7-10.5-16.8-17.2-24.1c-3.4-3.7-6.9-7.2-10.6-10.6c-1.9-1.7-3.8-3.3-5.7-4.9l-6-4.8c-16-12.6-33.1-23.7-51.1-33.2
		c-18.1-9.5-36.8-17.8-56.1-24.6c-19.3-6.8-39-12.5-59-17c-20-4.6-40.2-8.2-60.6-10.8C2005,502.3,1922,504.5,1840.8,519.6z"/>
	<ellipse class="st24" cx="1639.7" cy="440.6" rx="113.7" ry="107.6"/>
	<path class="st22" d="M957.3,710.6c-19.2-41.6-53.1-74.7-95.2-93c44.1-15.5,78.5-50.7,93-95.2c20.5,40.7,54,73.5,95.2,93
		C1009.6,635.8,976.8,669.3,957.3,710.6L957.3,710.6z"/>
	<path class="st12" d="M1170.1,212.4c16,1.2,31.7-0.7,47-4.6c7.6-2,15.1-4.4,22.5-7s14.7-5.7,22-8.9c14.6-6.3,29.2-13.1,44.3-19.1
		c3.8-1.5,7.6-3,11.5-4.3c1.9-0.7,3.9-1.4,5.8-2s3.9-1.3,5.9-1.9c4-1.3,8.2-2.3,12.3-3.2c4.4-0.9,9-1.3,13.5-1.3
		c4.9,0.1,9.8,1.1,14.3,3c4.7,2,8.9,5.1,12.2,9c3.6,4.2,5.9,9.5,6.3,15c0.2,2.8-0.1,5.7-0.9,8.4c-0.7,2.6-1.8,5.1-3.3,7.4
		c-2.7,4.1-6,7.6-9.9,10.6c-3.5,2.7-7.1,5-11,7.1c-3.6,2.1-7.4,3.9-11.2,5.8l-5.8,2.5c-1,0.4-1.9,0.8-2.9,1.2l-2.9,1.1
		c-7.9,2.9-15.9,5.2-24.2,6.7c-8.2,1.6-16.5,2.6-24.9,2.9c-16.7,0.7-33.3-1.4-49.3-6.2c-2.7-0.7-4.3-3.4-3.6-6.1s3.4-4.3,6.1-3.6
		h0.1c30.3,6.7,61.9,4.3,90.9-6.9l2.7-1c0.9-0.3,1.8-0.7,2.7-1.1l5.2-2.4c3.4-1.7,6.9-3.4,10.1-5.4c1.6-1,3.3-1.9,4.8-2.9
		s3-2,4.3-3.1c2.6-1.9,4.8-4.2,6.5-6.9c1.4-2.1,2.1-4.5,2-7c-0.3-2.5-1.3-4.9-3-6.8c-1.9-2.2-4.3-4-6.9-5.2c-2.9-1.2-6-1.9-9.1-2
		c-6.7-0.3-13.9,1.4-21.4,3.5c-1.9,0.5-3.7,1.1-5.6,1.7s-3.7,1.2-5.6,1.8c-3.7,1.2-7.4,2.5-11.2,3.9c-14.9,5.4-29.7,11.6-44.9,17.1
		c-7.6,2.8-15.4,5.3-23.2,7.5c-7.9,2.3-15.9,4-24,5.3c-16.2,2.5-32.9,2.6-48.7-1.3c-0.4-0.1-0.6-0.5-0.5-0.9
		C1169.4,212.7,1169.7,212.4,1170.1,212.4L1170.1,212.4z"/>
	<path class="st12" d="M1148.5,249.5c-2.5-3.9-4.6-8-6.4-12.3c-1.8-4.2-3.3-8.5-4.6-12.9c-2.5-8.8-4.3-17.7-5.3-26.8
		c-0.2-2.3-0.5-4.5-0.7-6.9c-0.2-2.6-0.2-5.2,0.2-7.8c0.2-1.4,0.5-2.8,1-4.2c0.5-1.4,1.2-2.8,2.1-4.1c1.8-2.6,4.4-4.6,7.4-5.6
		c1.6-0.5,3.3-0.7,4.9-0.5c1.2,0.2,2.4,0.5,3.5,1c0.3,0.2,0.7,0.4,1,0.6c2.3,1.5,4.2,3.6,5.4,6.1c2.2,4.3,3.2,8.6,5.3,12.7
		c-3.7-2.8-6.3-6.9-9.2-9.9c-1.4-1.5-3-2.7-4.3-3c-0.2,0-0.3-0.1-0.5-0.1c-0.2,0-0.3,0-0.5,0c-0.3,0-0.7,0-1,0
		c-0.6,0.1-1.1,0.3-1.7,0.6c-1.1,0.8-2,1.8-2.6,3.1c-0.3,0.6-0.5,1.3-0.6,2c-0.2,0.8-0.2,1.6-0.2,2.4c0,1.9,0.2,3.8,0.5,5.6l1.1,6.4
		c1.5,8.7,3.3,17.3,4.5,26.1c0.7,4.4,1.2,8.8,1.7,13.3c0.5,4.5,0.8,9.1,0.9,13.6c0,0.6-0.4,1-1,1.1
		C1149.1,250,1148.7,249.8,1148.5,249.5z"/>
	<path class="st12" d="M1094.4,267.2c-9.1-7.5-18.5-15.1-26.6-24.2c-8.2-8.9-14.9-19.2-19.7-30.3c-2.3-5.6-4.2-11.3-5.5-17.2
		c-1.4-5.8-2.2-11.8-2.6-17.7c-0.7-11.9,0.6-24,4.9-35c-3.5,11.3-3.9,23.2-2.4,34.7c1.5,11.5,4.9,22.6,10.1,33
		c5.3,10.2,12.2,19.4,20.6,27.2c8.3,7.9,17.7,14.7,27.3,21.4c2.3,1.6,2.8,4.7,1.2,7c-1.6,2.3-4.7,2.8-7,1.2L1094.4,267.2z"/>
	<path class="st12" d="M901.8,268.8c11.5-3.8,23.6-5.9,35.7-6.2c6.1-0.1,12.3,0.3,18.3,1.3c6.1,1,12.1,2.6,17.9,4.7
		c11.6,4.4,22.1,11.4,30.5,20.5c4.2,4.6,7.7,9.7,10.5,15.2c2.8,5.5,4.7,11.4,5.5,17.5c0.1,0.8-0.5,1.6-1.3,1.7c0,0,0,0,0,0
		c-0.8,0.1-1.5-0.4-1.7-1.1c-2.9-11.1-8.9-21.3-17.2-29.3c-4.1-4-8.6-7.6-13.4-10.5c-4.8-3-10-5.5-15.4-7.4
		c-5.4-1.9-10.9-3.3-16.6-4.1c-5.7-0.9-11.4-1.3-17.2-1.4c-11.6,0-23.3,1.1-34.7,3.1l0,0c-1.1,0.1-2.2-0.7-2.3-1.8
		C900.4,270.1,900.9,269.2,901.8,268.8L901.8,268.8z"/>
	<path class="st12" d="M1031.3,244.1c2,0.1,3.9,0.2,5.8,0.5s3.8,0.5,5.7,0.7s3.8,0.6,5.6,0.9s3.7,0.7,5.6,1
		c7.4,1.4,14.8,3.1,22.1,4.8s14.7,3.5,22.1,5.5c1.8,0.5,3.7,1,5.6,1.5s3.7,1,5.6,1.6c1.9,0.5,3.7,1.1,5.6,1.7s3.7,1.2,5.6,1.9l0,0
		c0.8,0.3,1.2,1.1,0.9,1.9c-0.2,0.5-0.6,0.9-1.2,1c-2,0.4-3.9,0.7-5.9,0.9c-2,0.2-3.9,0.4-5.9,0.6c-3.9,0.3-7.9,0.4-11.8,0.4
		c-7.9,0-15.7-0.6-23.5-1.6c-7.8-1-15.5-2.6-23-4.7c-3.8-1.1-7.5-2.4-11.2-3.8c-3.7-1.4-7.3-3.2-10.7-5.1c-2.4-1.4-3.3-4.6-1.8-7.1
		C1027.6,245,1029.3,244,1031.3,244.1L1031.3,244.1z"/>
	<path class="st12" d="M1246.3,227.7c4.7,1.1,9.1,3,13.2,5.7c3.9,2.6,7.4,5.7,10.5,9.2c3,3.4,5.6,7,8,10.8c2.3,3.7,4.5,7.5,6.4,11.3
		s3.8,7.6,5.6,11.3s3.6,7.5,5.5,11.1c3.8,7.3,7.5,14.6,11.7,21.6c8.3,14,17.9,27.2,29.8,38.1s25.8,19.6,41.5,24.1l0,0
		c1.3,0.4,2.1,1.8,1.7,3.2c-0.4,1.2-1.5,1.9-2.8,1.8c-8.5-1.4-16.8-4.1-24.6-7.9l-1.5-0.7l-1.4-0.8c-1-0.5-1.9-1-2.9-1.5
		c-1.9-1.1-3.8-2.2-5.6-3.4c-3.7-2.3-7.2-4.9-10.5-7.6c-3.4-2.7-6.6-5.7-9.7-8.7s-6-6.2-8.8-9.5c-5.6-6.6-10.6-13.5-15.2-20.8
		c-4.6-7.2-8.9-14.6-12.8-22.1c-2-3.7-3.9-7.5-5.7-11.3c-1.8-3.8-3.6-7.6-5.4-11.2c-3.6-7.3-7.5-14.3-12.2-20.2
		c-4.7-5.9-10.4-10.5-17.2-12.9h-0.1c-2.6-0.8-4.1-3.6-3.2-6.3C1241.2,228.6,1243.8,227.2,1246.3,227.7L1246.3,227.7z"/>
	<path class="st12" d="M1685.5,184.8c-9.1-0.7-18.1-1-27.2-1.1s-18.1,0-27.2,0c-18.2-0.1-36.5-0.5-54.8-3.9
		c-9.2-1.7-18.2-4.1-26.9-7.4c-2.2-0.8-4.4-1.8-6.5-2.6s-4.3-2-6.4-3c-4.2-2.2-8.3-4.6-12.2-7.4l-2.9-2.1l-2.8-2.3
		c-1.9-1.5-3.6-3.2-5.4-4.8s-3.3-3.5-5-5.2c-1.7-1.9-3.3-4-4.6-6.1c-1.5-2.4-2.7-5.1-3.3-7.8c-0.3-1.5-0.5-3-0.6-4.6
		c0-1.7,0.3-3.4,0.8-5c1-3.1,2.9-5.9,5.5-8c1.4-1.1,3-2,4.8-2.5c1.9-0.5,3.8-0.6,5.7-0.3c2.7,0.6,4.3,3.3,3.7,6
		c-0.5,2.1-2.3,3.7-4.5,3.8h-0.8c-0.3,0-0.7,0.1-1,0.2c-0.4,0.2-0.8,0.4-1.2,0.8c-0.9,0.9-1.6,1.9-1.9,3.1c-0.1,0.6-0.2,1.1-0.2,1.7
		c0,0.7,0.1,1.4,0.3,2.1c0.5,1.6,1.1,3.2,2.1,4.6c1.1,1.7,2.3,3.2,3.6,4.7l2.2,2.3c0.7,0.8,1.4,1.6,2.2,2.3c1.6,1.5,3,3,4.7,4.3
		l2.4,2.1l2.6,2c7,5.2,14.5,9.5,22.5,12.9c8.1,3.5,16.5,6.2,25.1,8.3c17.3,4.2,35.3,5.8,53.3,7.2c9,0.7,18.1,1.3,27.2,2.2
		S1676.6,183.2,1685.5,184.8z"/>
</g>
<g id="hat_stars">
	<g>
		<defs>
			<path id="SVGID_00000057126790239107803550000006040290084676339336_" d="M1836,526.2c85-16.9,172.1-19.7,258-8.1
				c80,10.8,160.2,35.1,222.3,84.6c26.2,20.9,50.5,52.5,40.6,83.8c-6.6,20.8-26.5,35-46.3,45.7c-102.1,55.4-224.8,58.9-342,61
				c-137.4,2.5-277.2,31-414.2,22.3c-15.7-1-31.9-2.9-45.7-10.2c-19.9-10.7-32-31.7-35.9-53.3s-0.4-43.8,4.6-65.1
				c3.1-12.9,6.9-26.1,15.2-36.7c9.5-12.2,23.9-19.8,38-26.8c78.5-38.7,161.7-67.3,247.4-85.2"/>
		</defs>
		<clipPath id="SVGID_00000029023513262488875980000003898245526005284260_">
			<use xlink:href="#SVGID_00000057126790239107803550000006040290084676339336_"  style="overflow:visible;"/>
		</clipPath>
		<g style="clip-path:url(#SVGID_00000029023513262488875980000003898245526005284260_);">
			<path class="st3" d="M2146.7,566.7c-3.4-7.4-9.4-13.2-16.8-16.4c7.8-2.7,13.9-9,16.4-16.8c3.6,7.2,9.6,13,16.8,16.4
				C2155.9,553.5,2150.1,559.4,2146.7,566.7z"/>
			<path class="st3" d="M2102.5,608c-14.3,12.7-36.1,11.4-48.8-2.9c-12.7-14.3-11.4-36.1,2.9-48.8c8-7.1,18.8-10.1,29.3-8.1
				c-27.5-13.4-60.7-1.9-74.1,25.6c-13.4,27.5-1.9,60.7,25.6,74.1s60.7,1.9,74.1-25.6c6.4-13.2,7.3-28.4,2.6-42.3
				C2114.7,590.6,2110.4,601,2102.5,608z"/>
			<path class="st3" d="M2259.7,733.4c-5.7-12.3-15.7-22-28.1-27.4c13-4.6,23.1-15,27.4-28.1c6,12,15.9,21.6,28.1,27.4
				C2275.1,711.4,2265.4,721.3,2259.7,733.4z"/>
			<path class="st3" d="M1664,674c-1.6-3.4-3.7-6.5-6.3-9.2c-3-3.1-6.6-5.5-10.5-7.2c7.8-2.8,13.9-9,16.4-16.8
				c3.6,7.2,9.5,13,16.8,16.4C1673.2,660.8,1667.5,666.7,1664,674z"/>
			<path class="st3" d="M1770.6,683.7c-5.7-12.3-15.6-22-28-27.4c13-4.6,23.1-15,27.4-28.1c6,12,15.9,21.6,28,27.4
				C1786,661.7,1776.3,671.6,1770.6,683.7z"/>
			<line class="st3" x1="2176" y1="623.6" x2="2237" y2="589.2"/>
			<circle class="st3" cx="2169.3" cy="629.2" r="5.6"/>
			<line class="st3" x1="2236.1" y1="589.6" x2="2336.8" y2="615.9"/>
			<line class="st3" x1="2246.4" y1="641.8" x2="2371.2" y2="643.6"/>
			<circle class="st3" cx="2238.1" cy="640.3" r="5.6"/>
			<line class="st3" x1="1737.9" y1="610.3" x2="1798.9" y2="575.9"/>
			<circle class="st3" cx="1731.2" cy="615.9" r="5.6"/>
			<line class="st3" x1="1798" y1="576.3" x2="1837.7" y2="478.3"/>
			<line class="st3" x1="1907.5" y1="564.8" x2="1893.1" y2="500.5"/>
			<circle class="st3" cx="1908.7" cy="571.5" r="5.6"/>
			<line class="st3" x1="1549.3" y1="777.8" x2="1621.4" y2="705.7"/>
			<line class="st3" x1="1623.3" y1="705.6" x2="1730.1" y2="755.6"/>
			<line class="st3" x1="1560.4" y1="609.2" x2="1570" y2="738.1"/>
			<line class="st3" x1="1998.6" y1="757.3" x2="2022.8" y2="699.6"/>
			<circle class="st3" cx="2024" cy="694.6" r="5.6"/>
			<line class="st3" x1="2011" y1="739.3" x2="2157.1" y2="749"/>
			<line class="st3" x1="2096.6" y1="819.5" x2="2157.1" y2="749"/>
			<path class="st3" d="M2187,698c-1.7-3.7-4.7-6.6-8.4-8.2c3.9-1.4,6.9-4.5,8.2-8.4c1.8,3.6,4.8,6.5,8.4,8.2
				C2191.7,691.4,2188.8,694.3,2187,698z"/>
			<path class="st3" d="M1950.4,605.6c-0.8-1.7-1.9-3.3-3.2-4.6c-1.5-1.5-3.3-2.8-5.2-3.6c1.9-0.7,3.6-1.8,5-3.2
				c1.5-1.5,2.6-3.3,3.2-5.2c1.8,3.6,4.8,6.5,8.4,8.2c-1.7,0.8-3.2,1.9-4.5,3.2C1952.5,601.9,1951.3,603.7,1950.4,605.6z"/>
			<path class="st3" d="M1703,688.5c-1.7-3.7-4.7-6.6-8.4-8.2c3.9-1.4,6.9-4.5,8.2-8.4c1.8,3.6,4.8,6.5,8.4,8.2
				C1707.6,681.9,1704.8,684.9,1703,688.5z"/>
		</g>
	</g>
</g>
<g id="logo">
	<g>
		<defs>
			<rect id="SVGID_00000181070216213102430690000011796079176033373869_" x="1484.4" y="279.2" width="311.2" height="311.2"/>
		</defs>
		<clipPath id="SVGID_00000148654807933078018740000015572728661146656141_">
			<use xlink:href="#SVGID_00000181070216213102430690000011796079176033373869_"  style="overflow:visible;"/>
		</clipPath>
		<g style="clip-path:url(#SVGID_00000148654807933078018740000015572728661146656141_);">
			<g>
				<defs>
					<rect id="SVGID_00000090292268984796716940000005037645992360949899_" x="1484.4" y="279.2" width="311.2" height="311.2"/>
				</defs>
				<clipPath id="SVGID_00000083070733748414523530000012637472515975317937_">
					<use xlink:href="#SVGID_00000090292268984796716940000005037645992360949899_"  style="overflow:visible;"/>
				</clipPath>
				<g style="clip-path:url(#SVGID_00000083070733748414523530000012637472515975317937_);">
					<path class="st9" d="M1672.2,524.7c-4.1,0-8.1-0.4-12.1-1.3c-17.4-4-31.8-16.6-42.9-37.6c-10-19.8-21.3-30.3-33.6-31.2
						c-17.7-1.4-32.5,17.7-33.7,19.3c13.8,34.7,48.9,59.4,90.1,59.4c14.7,0,29.2-3.2,42.5-9.4
						C1679.1,524.4,1675.7,524.7,1672.2,524.7"/>
					<path class="st9" d="M1584,448.9c14.6,1.1,27.5,12.7,38.5,34.4c10.2,19.4,23.3,31.1,39,34.6c18.3,4.2,35.5-3.9,42.5-7.9
						c13.3-11.1,23.1-25.8,28.3-42.3c-7.7,4.8-20.8,11.2-35.6,11.2c-3.4,0-6.8-0.3-10.2-1c-17.5-3.7-32.3-16.8-43.9-39
						c-12.2-20-27.2-31.7-44.5-34.5c-24.1-3.9-46,10.6-51.5,14.7c-4.2,15.9-3.8,32.7,1.1,48.4C1553.3,461,1567.1,447.6,1584,448.9"
						/>
					<path class="st20" d="M1630.3,362.7c19.8,4.4,36.4,16.7,49.3,36.7c17.8,28,31.5,34,39.9,34.1h0.3c8.9,0,14.2-6.4,15.2-7.8
						c-7.7-43.4-47.3-76.5-95-76.5c-19.3-0.1-38.1,5.5-54.3,16C1597.8,361.6,1613.7,359.1,1630.3,362.7"/>
					<path class="st20" d="M1736,433.7c-4.6,3.8-10.3,6-16.3,6h-0.4c-14.6-0.2-29.8-12.7-45.3-37.1c-11.9-18.5-27.1-29.9-45.2-33.9
						c-26.8-5.9-52.3,6.2-59.5,10c-8.8,9-15.6,19.7-20.1,31.5c10.2-6.2,28.9-14.9,49.7-11.5c19.1,3.1,35.5,15.7,48.8,37.3
						c10.9,20.8,24.3,32.9,40,36.2c21.3,4.5,41-8.8,46.5-12.9l0.3-0.2c1.2-5.9,1.9-11.9,1.8-18
						C1736.4,438.7,1736.2,436.3,1736,433.7"/>
					<path class="st28" d="M1736,433.7c-4.6,3.8-10.3,6-16.3,6h-0.4c-14.6-0.2-29.8-12.7-45.3-37.1c-11.9-18.5-27.1-29.9-45.2-33.9
						c-26.8-5.9-52.3,6.2-59.5,10c-8.8,9-15.6,19.7-20.1,31.5c10.2-6.2,28.9-14.9,49.7-11.5c19.1,3.1,35.5,15.7,48.8,37.3
						c10.9,20.8,24.3,32.9,40,36.2c21.3,4.5,41-8.8,46.5-12.9l0.3-0.2c1.2-5.9,1.9-11.9,1.8-18
						C1736.4,438.7,1736.2,436.2,1736,433.7z"/>
				</g>
			</g>
		</g>
	</g>
</g>
<g id="froggo">
	<path class="st29" d="M2092,969.9c10.9-11.5,27.9-14.9,43.7-15c11.2,0,23.1,1.7,31.6,8.9c10.1,8.6,13.2,22.8,13.6,36.1
		c0.8,22.6-4.2,45.1-10.9,66.7c-12.9,41.4-32.4,80.4-57.6,115.6c19.2,5.6,32.7,15.5,45.9,30.4c-9.7-6.2-20.4-7.4-31.8-6.2
		c5.9,20.2,8.1,40.6,3.2,61c-15.5-12.9-33.9-27.1-49.3-40.1c-1.1-0.9-3.2-1.1-3.9,0.2c-5.5,10.5-7.1,22.7-4.4,34.2
		c-14.2-11-22.5-31.2-21-49"/>
	<path class="st12" d="M2045.9,1215.7c52.4-49.3,69-127.9,58.3-199s-46.4-130.5-83.9-191.8c8.9-38.3,3.4-78.5-15.6-112.9
		c-6.7-12-33.8-61.9-87.8-72.7c-9.6-1.9-34.7-6.9-60,6c-46.4,23.7-48.7,84.6-48.8,87.6c-65.7-9.6-132.7,5-188.6,41
		c-9.2-17.6-22.1-33.1-37.7-45.5c-31.6-24.7-87.5-46-136.4-22.2c-56.6,27.6-65.1,93.9-68.8,122c-5.4,42,4.2,76.4,11.1,95.4
		c-18.1,29.1-106.8,176.5-85.4,311.3c4.1,25.7,10.9,65.3,42.2,102.4c32,38,72.3,52.8,92,58.5"/>
	<path class="st30" d="M2042.5,1212c11.9-12.4,22-26.4,30-41.7c4-7.6,7.5-15.4,10.5-23.4c3-8,5.5-16.2,7.5-24.5
		c8.2-33.3,9.1-68.2,4-102.1c-2.7-17-6.7-33.7-12.1-50c-5.5-16.4-12-32.5-19.4-48.1c-7.5-15.7-15.4-31.3-23.5-47
		s-16.2-31.4-23.4-47.9l0,0l-0.3-0.7c-0.4-1-0.5-2.1-0.3-3.1c3.3-15.8,4.1-32,2.5-48.1c-1.6-16-5.7-31.6-12.1-46.4
		c-0.7-1.9-1.7-3.6-2.5-5.4c-0.4-0.9-0.8-1.8-1.3-2.7l-1.4-2.6l-1.4-2.6c-0.5-0.9-1-1.8-1.5-2.7c-1-1.8-2-3.5-3.1-5.2
		c-4.1-6.9-8.8-13.4-13.8-19.7c-10.1-12.4-22.1-23.2-35.7-30.9c-6.8-3.8-14-6.9-21.5-9.1c-1.9-0.5-3.7-1.1-5.6-1.5
		c-1-0.2-1.9-0.4-2.9-0.6l-3-0.6c-3.9-0.7-7.7-1.3-11.7-1.6c-3.9-0.3-7.7-0.3-11.6-0.1c-3.8,0.2-7.6,0.7-11.4,1.5
		c-7.5,1.6-14.6,4.3-21.2,8.1c-6.6,3.9-12.6,8.7-17.6,14.5c-1.3,1.4-2.5,3-3.7,4.5s-2.3,3.1-3.4,4.8s-2.1,3.3-3.1,5
		s-1.9,3.4-2.8,5.2c-3.5,7.1-6.3,14.6-8.4,22.3c-1.1,3.9-1.9,7.8-2.7,11.7c-0.4,2-0.7,4-0.9,5.9s-0.5,4-0.6,5.8l0,0
		c-0.2,2.8-2.6,4.9-5.3,4.8h-0.4c-16-0.6-32.1-0.3-48.1,0.8c-7.9,0.6-15.8,1.5-23.7,2.6c-7.9,1.1-15.7,2.5-23.4,4.2
		c-15.5,3.4-30.8,7.8-45.7,13.3c-7.5,2.8-14.9,5.8-22.2,9s-14.6,6.8-21.9,10.3l0,0l-0.4,0.2c-2.4,1.2-5.4,0.3-6.7-2.1
		c-8.4-16-19.9-30.2-33.8-41.8c-14.1-11.4-30.1-20.3-47.2-26.2c-17.1-5.9-35.2-8.7-53-7c-2.2,0.2-4.4,0.5-6.6,0.8
		c-1.1,0.2-2.2,0.4-3.3,0.6s-2.2,0.4-3.3,0.7c-4.3,1-8.6,2.3-12.7,3.9c-8.3,3.2-16.1,7.5-23.3,12.8l-2.7,2l-2.6,2.2l-1.3,1.1
		l-1.2,1.1l-2.4,2.3l-2.3,2.4l-1.2,1.2l-1.1,1.3l-2.2,2.5l-2.1,2.6c-0.7,0.8-1.4,1.8-2,2.7c-0.6,0.9-1.3,1.8-2,2.7
		c-1.2,1.9-2.5,3.7-3.6,5.7c-2.3,3.8-4.5,7.8-6.4,11.9c-7.8,16.3-12.4,34.1-15.3,52.2c-0.7,4.5-1.3,9.1-1.9,13.7s-1.1,9.1-1.3,13.6
		c-0.6,9.1-0.5,18.2,0.3,27.3c1.5,18.2,5.4,36.1,11.7,53.2l0,0c0.5,1.2,0.4,2.6-0.2,3.8l-0.3,0.6c-20.6,40.9-39.3,82.4-54,125.1
		c-3.6,10.7-7.1,21.4-10.2,32.2c-1.6,5.4-3,10.8-4.4,16.2l-2,8.2c-0.3,1.4-0.7,2.7-1,4.1l-0.9,4.1c-4.9,21.8-7.8,43.9-8.8,66.2
		c-0.4,11-0.2,22.1,0.6,33.1c0.3,5.5,1.1,11,1.7,16.4c0.3,2.7,0.8,5.6,1.2,8.4s0.9,5.5,1.4,8.3c1.9,10.8,4.5,21.5,8,31.9
		c10.4,31.3,29.8,58.7,55.7,79c17.3,13.7,37.2,24.2,58.4,31.6c2.6,0.8,4.1,3.6,3.3,6.3c-0.8,2.5-3.5,4-6,3.3c-5.7-1.3-11.4-3-17-4.9
		s-11.2-4-16.6-6.4s-10.8-5.1-16-7.9c-2.6-1.5-5.2-3-7.7-4.6l-3.8-2.4c-1.3-0.8-2.5-1.6-3.7-2.5c-20-13.8-36.9-31.4-49.9-51.9
		c-6.4-10.3-11.8-21.3-16.1-32.7c-4.2-11.3-7.5-22.9-9.9-34.7c-0.6-2.9-1.2-5.8-1.7-8.7s-1-5.7-1.5-8.7c-0.8-5.9-1.9-11.9-2.3-17.8
		c-1.2-11.9-1.6-23.9-1.3-35.8l0.3-8.9l0.1-2.2l0.2-2.2l0.3-4.4c0.4-5.9,1.1-11.8,1.8-17.7c1.6-11.8,3.5-23.4,6.1-35
		c1.1-5.8,2.7-11.5,4.1-17.2l2.3-8.5c0.8-2.8,1.6-5.7,2.5-8.5c3.4-11.3,7.2-22.4,11.4-33.3c1.1-2.7,2.1-5.5,3.2-8.2l3.4-8.1
		c1.1-2.7,2.3-5.4,3.5-8s2.4-5.3,3.6-8c4.9-10.6,10.1-21,15.7-31.3s11.4-20.3,17.7-30.2s12.8-19.5,19.8-28.8l-0.4,4.3l0,0
		c-6.6-18-10.7-36.8-12.3-55.9c-0.8-9.5-0.9-19.1-0.3-28.7c0.2-4.8,0.8-9.6,1.4-14.3s1.2-9.3,2-14c3-18.7,7.8-37.5,16.1-54.9
		c2.1-4.4,4.4-8.6,6.9-12.8c1.2-2.1,2.6-4.1,4-6.1c0.7-1,1.4-2,2.1-3s1.4-2,2.2-2.9l2.3-2.9l2.4-2.7l1.2-1.4l1.3-1.3l2.6-2.6
		l2.7-2.5l1.3-1.3l1.4-1.2l2.8-2.4l2.9-2.2c7.9-5.9,16.5-10.6,25.6-14.2c4.6-1.8,9.2-3.2,14-4.3c1.2-0.3,2.4-0.6,3.6-0.8
		s2.4-0.5,3.6-0.7c2.4-0.3,4.8-0.7,7.3-0.9c19.5-1.9,39,1.2,57.2,7.5c18.3,6.3,35.3,15.7,50.3,27.9c14.9,12.4,27.2,27.6,36.2,44.8
		l-7.1-1.9l0,0c13.2-10.5,27.7-19.4,43.1-26.4c15.4-7.1,31.6-12.5,48.2-16.1c4.2-0.9,8.3-1.7,12.5-2.4s8.4-1.3,12.6-1.7
		c8.4-0.9,16.9-1.4,25.4-1.3c16.9,0,33.8,2,50.2,6.1l-5.7,4.8l0,0c0-2.4,0.1-4.5,0.3-6.7s0.4-4.3,0.7-6.5c0.6-4.3,1.3-8.6,2.3-12.8
		c1.9-8.5,4.7-16.9,8.3-24.8c0.9-2,1.9-4,2.9-6s2.1-3.9,3.3-5.8s2.4-3.7,3.7-5.6s2.7-3.6,4.2-5.3c5.9-6.9,12.8-12.9,20.5-17.6
		c7.8-4.6,16.4-8,25.2-10c4.4-0.9,8.9-1.6,13.4-1.9c4.5-0.3,9-0.2,13.4,0.1c4.4,0.3,8.8,0.9,13.2,1.7l3.2,0.6c1,0.2,2.2,0.5,3.2,0.7
		c2.2,0.5,4.3,1,6.5,1.7c8.5,2.5,16.8,6,24.5,10.4c7.6,4.4,14.8,9.6,21.4,15.5c6.5,5.8,12.5,12.2,18,19c5.4,6.8,10.3,13.9,14.7,21.4
		c1.1,1.9,2.2,3.7,3.2,5.6c0.5,1,1,1.8,1.5,2.8l1.5,2.9l1.5,2.9c0.5,1,0.9,2,1.4,3c0.9,2,1.9,3.9,2.6,6s1.7,4,2.4,6.1l2.1,6.2
		l1.8,6.2c0.6,2.1,1.1,4.2,1.6,6.3c2,8.4,3.3,17,3.9,25.7c1.3,17.3-0.3,34.6-4.6,51.4l-0.6-3.8l0,0c11.2,14,21.7,28.5,31.3,43.6
		c9.8,15.2,18.5,31,26.3,47.2c7.9,16.4,14.6,33.4,20.2,50.8c5.6,17.5,9.6,35.4,12.1,53.6c2.4,18.3,3,36.7,1.8,55.1
		c-1.2,18.4-4.4,36.6-9.6,54.2c-2.6,8.9-5.7,17.5-9.4,26c-3.7,8.4-7.9,16.6-12.7,24.5c-9.5,15.8-21.4,29.9-35.3,42
		c-2,1.9-5.2,1.8-7.1-0.2c-1.9-2-1.8-5.2,0.2-7.1L2042.5,1212z"/>
	<path class="st12" d="M1440,1139.9c31.2-36.4,63-56,83.4-66.3c23-11.7,44.2-22,69-16.2c23.4,5.5,37.7,22.3,43.2,28.8
		c41.1,49.4,25.1,130.4,3.9,177.8c-7.3,16.2-16.5,31.6-27.4,45.6c43.4-9.4,90.5-0.4,124.1,28.6c-14.9-2.6-34.6-0.2-48.8,5
		c12.3,15,14.3,33.9,11.7,53.1c-24.6-11.6-51.1-18.5-78.2-20.6c-5.6,3.4-9.8,8.6-12,14.8c-1,3.1-1.5,6.4-1.3,9.7
		c-19.1-8.1-36.6-19.5-51.7-33.7c-9.9,5.2-66.6,35-102.7,33.3c-6.9-0.3-20.3-1-27.4-10.4c-0.8-1.1-5.5-6.2-4.6-16.7
		c1.6-18.8,13.7-36.6,13.7-36.6c24.1-40,53.8-76.3,88.2-107.9"/>
	<path class="st30" d="M1440,1139.9c12.2-15.6,26.1-29.8,41.4-42.4c7.7-6.3,15.8-12.1,24.2-17.5c4.2-2.7,8.5-5.2,12.8-7.6
		s8.7-4.7,13.1-7s8.9-4.5,13.6-6.4c4.7-2,9.5-3.7,14.5-5.1c5-1.4,10.2-2.3,15.4-2.6c5.3-0.3,10.6,0,15.8,0.9
		c10.4,1.9,20.3,6,29,12.1c4.3,3,8.4,6.3,12.2,9.9c1.9,1.8,3.7,3.7,5.4,5.6c0.8,1,1.7,1.9,2.5,2.9l2.4,3.1c1.7,2,3.1,4.2,4.6,6.3
		c0.8,1.1,1.4,2.2,2.1,3.3s1.4,2.2,2,3.3l1.8,3.4c0.3,0.6,0.6,1.1,0.9,1.7l0.8,1.8l1.7,3.5l1.5,3.6c1,2.4,1.8,4.8,2.6,7.3
		c0.4,1.2,0.8,2.5,1.1,3.7s0.8,2.5,1,3.7c0.6,2.5,1.2,5,1.7,7.5l0.7,3.8l0.6,3.8c1.4,10.1,2,20.3,1.7,30.5
		c-0.3,10.1-1.3,20.2-3,30.2c-1.7,9.9-3.9,19.8-6.8,29.4c-2.8,9.7-6.2,19.2-10.2,28.4c-7.9,18.6-18.4,36-31.1,51.7l0,0l-5-8
		c22.3-4.9,45.3-4.9,67.6-0.1c11.1,2.4,22,6.1,32.2,11.1c10.3,5,19.9,11.3,28.6,18.8c2.1,1.8,2.3,5,0.5,7.1c-1.1,1.3-2.9,2-4.6,1.7
		l0,0c-7.7-1.2-15.6-1.3-23.3-0.4c-7.8,0.8-15.5,2.5-22.9,5.2l2.1-7.9c3.3,4,6,8.3,8.1,13c2.1,4.6,3.6,9.5,4.5,14.5
		c1.7,9.8,1.7,19.7,0.3,29.5c-0.4,2.7-2.9,4.6-5.6,4.3c-0.5-0.1-1-0.2-1.4-0.4l0,0c-24-11.3-49.9-18.1-76.4-20.1l3-0.7
		c-3.4,2.1-6.3,5.1-8.3,8.6c-1.9,3.5-2.8,7.4-2.6,11.4l0,0c0.1,2.8-2,5.1-4.8,5.2c-0.7,0-1.5-0.1-2.2-0.4
		c-19.7-8.3-37.7-20.1-53.2-34.7l0,0l5.8,0.8c-12.3,7.1-25,13.5-38,19.2c-13.1,5.6-26.5,10.7-40.8,14.1c-3.6,0.9-7.2,1.5-10.9,2.1
		c-3.8,0.5-7.5,0.9-11.3,1c-3.8,0.1-7.6-0.1-11.4-0.5c-4.1-0.4-8.2-1.3-12.1-2.7c-4.4-1.5-8.4-4-11.7-7.3c-0.9-0.8-1.6-1.8-2.4-2.7
		l-0.3-0.4l-0.5-0.7c-0.4-0.5-0.7-1-1.1-1.5c-1.3-2.1-2.4-4.3-3.1-6.6c-1.3-4.4-1.8-9-1.3-13.5c0.4-3.9,1.1-7.9,2.1-11.7
		c2-7.4,4.9-14.5,8.5-21.2c0.9-1.7,1.8-3.3,2.8-5l0.8-1.3l0.3-0.5l0.3-0.5l1.3-2.2c1.8-3,3.7-6.1,5.6-9c7.7-12,15.9-23.7,24.5-35
		c4.3-5.7,8.8-11.2,13.4-16.6s9.6-10.5,14.7-15.5s10.4-9.7,15.8-14.4c2.7-2.3,5.4-4.6,8.1-6.9l4.1-3.4c1.3-1.2,2.8-2.2,4-3.5
		c1.9-2,5.1-2.1,7.1-0.2c2,1.9,2.1,5.1,0.2,7.1l0,0l-0.1,0.1l-0.4,0.3c-10,9.7-18.8,20.5-27.5,31.2l-13,16.1
		c-4.3,5.3-8.7,10.7-12.9,16.1c-8.4,10.9-16.4,22.1-23.9,33.7c-1.9,2.9-3.7,5.8-5.6,8.8l-1.4,2.3l-0.4,0.6l-0.4,0.6l-0.6,1
		c-0.8,1.3-1.6,2.7-2.4,4.1c-3.1,5.6-5.6,11.5-7.4,17.6c-0.8,2.9-1.4,5.9-1.8,8.9c-0.2,1.3-0.2,2.6-0.1,3.9c0.1,1.2,0.3,2.3,0.6,3.4
		c0.3,1,0.7,2,1.2,2.9c0.1,0.2,0.3,0.4,0.4,0.6l0.2,0.3l0.5,0.6c0.4,0.4,0.6,0.9,1,1.2c1.7,1.7,3.7,3,6,3.8c2.7,1,5.5,1.7,8.4,2
		c3.2,0.4,6.4,0.6,9.5,0.6c3.2,0,6.4-0.2,9.6-0.5c3.2-0.4,6.5-0.9,9.8-1.6c13.3-2.8,26.4-6.8,39.1-11.8c12.9-4.9,25.6-10.5,38-16.5
		l0.1-0.1c1.9-0.9,4.1-0.6,5.7,0.8l0,0c14.7,13.8,31.7,24.9,50.2,32.7l-6.9,4.8c-0.3-5.8,1-11.6,3.8-16.7c2.8-5,6.9-9.2,11.8-12.2
		c0.9-0.6,1.9-0.8,3-0.7l0,0c27.7,2.1,54.8,9.2,79.9,21l-7.1,3.8c1.3-8.7,1.3-17.6-0.2-26.3c-0.8-4.2-2-8.3-3.8-12.2
		c-1.7-3.9-4-7.5-6.7-10.7l0,0c-1.7-2.1-1.4-5.3,0.7-7c0.4-0.4,0.9-0.6,1.5-0.8c8.2-2.9,16.7-4.8,25.3-5.7c4.3-0.5,8.6-0.7,12.9-0.7
		c4.4,0,8.8,0.4,13.1,1.1l-4.1,8.7c-8-6.9-16.9-12.7-26.4-17.3c-9.6-4.6-19.6-8.1-30-10.3c-20.9-4.5-42.5-4.4-63.3,0.1
		c-2.7,0.6-5.4-1.1-5.9-3.8c-0.3-1.4,0-2.9,0.9-4l0.1-0.1l0,0c11.5-15.4,21-32.2,28.3-50c1.8-4.4,3.5-9,5.1-13.5s3-9.1,4.3-13.8
		c2.6-9.3,4.7-18.6,6.3-28.1c1.6-9.4,2.5-19,2.9-28.5c0.4-9.5-0.1-19-1.3-28.4c-1.2-9.3-3.5-18.5-6.8-27.3l-1.3-3.3l-1.4-3.2
		l-0.7-1.6c-0.2-0.5-0.5-1-0.8-1.6l-1.6-3.1c-0.5-1-1.2-2-1.8-3s-1.1-2-1.8-3c-1.3-1.9-2.5-3.9-4-5.7c-5.5-7.5-12.1-14.1-19.6-19.7
		c-7.4-5.4-15.8-9.2-24.8-11.1c-4.5-1-9-1.4-13.6-1.2c-4.6,0.2-9.2,0.8-13.7,1.8c-4.6,1.1-9.1,2.5-13.6,4.2
		c-4.5,1.7-8.9,3.6-13.3,5.7s-8.9,4.1-13.2,6.3s-8.7,4.4-12.9,6.8c-8.5,4.8-16.7,10.1-24.6,15.8
		C1468.3,1112.6,1453.5,1125.6,1440,1139.9z"/>
	<path class="st11" d="M1867,991c18.5-6,38.2-9.5,57.4-6.2s37.7,13.9,47.2,30.9c3.8,6.8,6,14.3,7.7,21.8c3.5,16,4.3,32.7,0.3,48.5
		c-2.9,11.2-8.1,21.6-12.3,32.4c-12.3,31.5-15.9,65.7-10.5,99c1.3,8,3.2,16.1,2.7,24.2l-105.7,30.9c-10.1-35.8-24.2-70.3-42-102.9
		c-15.1-27.8-39.1-70.4-28.1-103.3C1796.5,1027.9,1829.9,1003.2,1867,991z"/>
	<path class="st12" d="M1707.1,1244.1c15.2,35.8,43.6,64.4,79.3,79.8c-4.2,11.2-5.3,23.3-3.2,35c2.2-11.3,16.5-11.7,21.7-22
		c11.8,8,27.5,10,41.7,9.2c6-11.4,5.5-24.3,7.2-37.1c8.8-0.6,17.3,3.1,25.3,6.9c-3.7-11.5-13-21.7-24.9-24.1
		c-10.5-56.1-31.5-109.8-61.7-158.2c-10.6-16.9-11.1-34.2-12-54.1"/>
	<path class="st30" d="M1707.1,1244.1c1.6,1.9,3,3.9,4.4,5.9s3,3.8,4.4,5.7s3,3.7,4.5,5.5s3.1,3.6,4.6,5.4
		c6.1,6.9,12.6,13.5,19.5,19.6l5.2,4.5c1.8,1.4,3.6,2.9,5.3,4.3s3.6,2.8,5.3,4.2s3.7,2.7,5.4,4.1s3.7,2.6,5.5,4s3.7,2.6,5.6,4
		s3.8,2.6,5.7,4s3.8,2.7,5.7,4.1l2,1.6c1.5,1.2,1.8,3.3,0.7,4.8l0,0c-1.9,5.1-3.1,10.5-3.6,15.9c-0.5,5.4-0.3,10.9,0.7,16.3h-9.8
		c0.2-0.9,0.5-1.8,0.7-2.6s0.7-1.7,1.1-2.5s1-1.5,1.5-2.3s1.1-1.4,1.7-2c2.2-2.1,4.6-3.9,7.3-5.4c2.1-1.2,4.1-2.5,6.1-4
		c1.5-1.2,2.8-2.7,3.7-4.4l0,0c1.2-2.5,4.3-3.4,6.7-2.2c0.2,0.1,0.4,0.2,0.5,0.3c5.5,3.6,11.7,6,18.2,7.2c6.7,1.2,13.6,1.6,20.4,1.2
		l-4.1,2.7c2.6-4.9,3.9-10.5,4.7-16.5s1.1-12.3,2-18.9c0.3-2.4,2.2-4.2,4.6-4.3l0,0c5-0.3,10.1,0.4,14.9,2c4.4,1.5,8.7,3.2,12.9,5.3
		l-6.9,6c-1.6-5-4.4-9.6-8.1-13.4c-3.5-3.7-8-6.2-13-7.3l0,0c-2-0.5-3.5-2-3.9-4c-4.2-18.2-9-36.3-14.8-54c-1.4-4.4-3-8.8-4.5-13.2
		s-3.1-8.8-4.8-13.2c-3.4-8.7-6.8-17.4-10.6-25.9c-7.6-17.1-16-33.8-25.2-50.2c-2.5-4.3-4.5-8.9-6-13.7c-1.4-4.7-2.5-9.5-3-14.4
		c-1.1-9.7-0.7-19.2-0.2-28.7c0-0.2,0.2-0.3,0.4-0.3c0.1,0,0.2,0.1,0.3,0.3c1.4,9.4,2.3,18.8,4.5,27.8c1,4.5,2.5,8.8,4.3,13
		c1.8,4.1,4,8.1,6.6,11.7c10.8,15.8,20.3,32.4,28.7,49.6c4.2,8.6,8.1,17.4,11.6,26.3c1.8,4.5,3.5,8.9,5.1,13.4
		c0.8,2.2,1.6,4.5,2.3,6.8s1.5,4.5,2.2,6.8c5.8,18.3,10.2,36.9,13,55.9l-3.9-4l0,0c3.5,0.7,6.8,2,9.9,3.8c3,1.7,5.8,3.9,8.2,6.3
		c4.8,4.9,8.4,10.8,10.5,17.3c0.8,2.6-0.6,5.4-3.2,6.3c-1.2,0.4-2.5,0.3-3.7-0.2l0,0c-3.7-1.9-7.6-3.5-11.6-4.8
		c-3.6-1.2-7.4-1.8-11.2-1.6l4.6-4.3c-0.8,6-1.1,12.3-2,18.9c-0.4,3.4-1.1,6.7-1.9,10c-0.9,3.4-2.2,6.7-3.8,9.9l0,0
		c-0.8,1.6-2.4,2.6-4.1,2.7c-7.7,0.5-15.3,0.1-22.9-1.3c-7.8-1.4-15.3-4.3-21.9-8.7l7.3-1.9c-1.5,3-3.7,5.6-6.4,7.7
		c-2.3,1.7-4.6,3.3-7.1,4.8c-2,1.1-3.8,2.5-5.4,4c-1.2,1.2-2,2.7-2.4,4.3v0.1c-0.6,2.7-3.2,4.4-5.9,3.8c-2-0.4-3.5-2-3.9-4
		c-1.2-6.3-1.4-12.7-0.8-19.1c0.5-6.4,2-12.7,4.2-18.7l0,0l2.7,6.4c-2.5-0.5-4.9-1.1-7.4-1.8s-4.8-1.7-7.1-2.7
		c-1.2-0.5-2.3-1-3.4-1.6s-2.3-1.1-3.4-1.7c-2.2-1.2-4.4-2.5-6.6-3.8s-4.2-2.8-6.3-4.3s-4-3.2-5.9-4.8s-3.7-3.4-5.6-5.2l-5.2-5.5
		c-6.7-7.5-12.4-15.9-17-24.9c-1.1-2.2-2.1-4.5-3.2-6.8s-1.8-4.7-2.7-7s-1.5-4.8-2.1-7.1S1707.5,1246.5,1707.1,1244.1z"/>
	<path class="st12" d="M2047.2,1213.7c-4.6,10-7.2,20.8-7.8,31.7c8.6,6.8,14.1,16.9,15.3,27.8c-7.8-1.8-15.2-4.6-22.2-8.3
		c2.2,11.1,0.1,22.6-6,32.2c-8.6,0.2-17.1-2.3-24.1-7.2c-5.8-4.2-10.4-9.9-13.3-16.4c-9.6,7.9-16.5,18.5-19.9,30.4
		c-5.8-14.4-6.7-29.8-0.6-44c-8.2-17.5-13.6-36.2-15.9-55.4c-3.4-28.3-0.2-57,9.3-83.8"/>
	<path class="st30" d="M2051.7,1215.7c-4.3,9.5-6.8,19.6-7.4,30l-1.9-4.2c9.6,7.7,15.8,18.9,17.1,31.1c0.3,2.7-1.7,5.2-4.4,5.5
		c-0.6,0.1-1.1,0-1.7-0.1c-8.2-1.9-16.1-4.9-23.5-8.9l7.3-5.4c2.4,12.4,0,25.2-6.7,35.8c-0.9,1.4-2.4,2.3-4.1,2.3
		c-4.4,0.1-8.8-0.4-13.1-1.5c-8.6-2.3-16.3-7.2-22.1-13.9c-2.9-3.4-5.2-7.1-7-11.2l7.8,1.9c-8.8,7.2-15.2,17-18.3,27.9l0,0
		c-0.8,2.6-3.6,4.2-6.2,3.4c-1.3-0.4-2.4-1.3-3.1-2.5l-0.2-0.4c-1.7-3.7-3.1-7.5-4.1-11.5c-1-4-1.7-8.1-1.9-12.2
		c-0.2-4.2,0-8.4,0.8-12.5c0.7-4.2,1.9-8.2,3.6-12.1l0.1,5.1c-8-16.7-13.2-34.6-15.4-53l-0.5-4.6l-0.3-4.6l-0.2-2.3l-0.1-2.3
		l-0.1-4.6v-4.6v-2.3l0.1-2.3c0.1-1.5,0.1-3.1,0.3-4.6l0.4-4.6c0.6-6,1.6-12.1,2.9-18c2.6-11.8,6.6-23.3,11.9-34.2
		c-2.6,11.6-4.4,23.3-5.3,35.1c-0.9,11.6-0.9,23.3,0.1,34.9c0.6,5.8,1.2,11.5,2.2,17.2s2.2,11.3,3.7,16.9c2.9,11.1,6.9,22,11.7,32.5
		l0,0c0.7,1.6,0.7,3.4,0.1,5c-1.3,3.1-2.3,6.2-3,9.5c-0.7,3.3-1,6.6-1,10c0,3.4,0.3,6.8,0.9,10.2c0.6,3.4,1.5,6.8,2.6,10.1l-9.4,0.5
		l0,0c3.7-12.9,11.2-24.3,21.6-32.8c2.1-1.7,5.2-1.4,7,0.7c0.3,0.4,0.5,0.7,0.7,1.2l0,0c1.4,3.2,3.2,6.1,5.4,8.7
		c2.2,2.6,4.8,4.9,7.7,6.7c2.9,1.8,6.1,3.2,9.4,4.1c3.3,0.9,6.8,1.3,10.2,1.2l-4.1,2.3c5.4-8.5,7.3-18.7,5.4-28.6
		c-0.5-2.7,1.2-5.3,3.9-5.9c1.1-0.2,2.3,0,3.3,0.5c6.6,3.6,13.7,6.2,21,7.9l-6.1,5.4c-1-9.6-5.9-18.4-13.4-24.4
		c-1.3-1-2-2.6-1.9-4.2l0,0c0.7-11.6,3.5-23,8.2-33.5l0,0c1.1-2.5,4.1-3.6,6.6-2.5c2.5,1.1,3.6,4.1,2.5,6.6L2051.7,1215.7z"/>
	<path class="st30" d="M1582.5,849.2c6.4-27.2-11.4-54.8-33.6-71.8c-13.8-10.6-30.4-18.8-47.8-18.7c-25,0.2-48,18.7-56,42.4
		s-1.8,50.9,13.6,70.6c5.2,6.7,12,12.9,20.4,14c31.3,4.2,68,2.9,90.9-18.9C1575.9,861.2,1580.6,857.2,1582.5,849.2z"/>
	<path class="st30" d="M1870.3,788.2c-16.9-19.4-15.7-49.3-6.5-72.5c5.8-14.5,14.6-28.2,27.9-35.5c19-10.5,44.7-5.2,61.3,10.6
		s24,40.6,21.1,63.1c-1,7.6-3.4,15.6-9.2,20c-21.9,16.7-50.2,31.2-77.2,23.2C1880.6,795.1,1875.2,793.9,1870.3,788.2z"/>
	<path class="st11" d="M1498.7,793.6c2.6,6.4,11.2,7.3,16.9,11.1c5.4,3.6,8.7,10.2,14.8,12.3c5.6,1.9,12.1-1,15.2-6
		s3.1-11.5,0.7-16.9s-6.8-9.7-11.8-12.7c-2.8-1.8-5.9-3-9.2-3.6C1517.3,776.6,1493.2,780.3,1498.7,793.6z"/>
	<path class="st11" d="M1924.6,716.8c3.8,3.3,7.6,6.7,12.4,8.3s10.8,0.8,13.8-3.2c2.7-3.5,2.3-8.6,0.7-12.7
		c-2.9-7-8.8-12.2-16.1-14.2c-7.4-1.9-15.2-0.4-21.4,4.1C1902.5,707.7,1918.4,711.5,1924.6,716.8z"/>
	<path class="st9" d="M1484.6,820.9c14.4,5.6,26.5,16,34,29.5c1.3,2.4,2.5,5,2.1,7.7c-0.4,3.1-2.8,5.6-5.3,7.5
		c-14.2,10.9-40.7,10.8-49.5-7.3C1458.7,843.9,1462.5,812.5,1484.6,820.9z"/>
	<path class="st9" d="M1926.3,762.3c2.8,4.2,5.9,8.9,4.2,12.9c-4.8,11.5-47.2,14.9-56.3-3.5c-4.3-8.7-1-21.7,6.9-27.2
		C1894,735.5,1916.8,747.9,1926.3,762.3z"/>
	<path class="st30" d="M1783.3,825.8c1.7-5.9,3.6-11.9,7.4-16.8s9.8-8.4,15.9-7.8c1.1,0,2.1,0.5,2.9,1.2c1.6,1.8,0.2,4.5-1.2,6.4
		c-5.8,7.3-13.1,13.3-21.4,17.5c-0.7,0.5-1.6,0.7-2.5,0.5c-0.8-0.3-1.3-1.5-0.6-2"/>
	<path class="st30" d="M1758.2,833.2c-4.7-4.3-9.8-8.6-16.6-10.7c-7.8-2.3-16.2-1.3-23.3,2.7c-1.3,0.6-2.4,1.6-3.2,2.9
		c-1.2,2.5,1.7,4.2,4.3,5c11.2,3.2,23,4.1,34.5,2.8c1.2,0,2.3-0.4,3.3-1c0.9-0.7,1-2.1-0.1-2.2"/>
	<path class="st30" d="M1648.6,889.4c0.1-1.8,0.9-3.4,2.1-4.7c1.3-1.3,2.8-2.3,4.5-2.9c1.7-0.7,3.4-1.2,5.2-1.4
		c1.7-0.2,3.5-0.3,5.2-0.2c3.4,0.1,6.8,0.5,10.2,1.1c3.3,0.6,6.5,1.3,9.7,2.1c6.4,1.5,12.7,3.2,19,5.3c6.2,2,12.4,4.4,18.3,7.2l0,0
		l-6.2,2.2c0.6-2.7,1.7-5.3,3.1-7.7c1.3-2.2,2.8-4.4,4.4-6.5c0.7-1,1.4-1.8,2.1-2.8s1.7-2,2.5-3c1.7-1.9,3.6-3.7,5.6-5.4
		c7.7-6.3,15.9-11.9,24.6-16.6c1-0.6,2.1-1.2,3.1-1.8l1.6-0.9l0.8-0.4l0.4-0.2l0.8-0.4c2.1-1,4.3-1.6,6.7-1.7c1.7-0.1,3.4,0,5.1,0.3
		c1.5,0.2,2.8,0.5,3.9,0.8l1.6,0.4l1.8,0.4c2.5,0.5,5,1.2,7.4,1.9s4.9,1.6,7.2,2.5s4.7,2,7,3.1c4.5,2.2,8.9,4.9,12.9,7.9l0,0
		l-7.5,3.7c0.2-2.7,0.8-5.4,1.8-7.9c1-2.4,2.3-4.7,3.8-6.8c2.9-3.9,6.4-7.3,10.3-10.3c0.9-0.7,1.8-1.4,2.8-2.1l1.4-1
		c0.5-0.3,1-0.7,1.5-1c2.1-1.3,4.2-2.4,6.5-3.3c4.4-1.7,8.9-2.8,13.6-3.2c0.2,0,0.3,0.1,0.3,0.3c0,0.1,0,0.2-0.1,0.3
		c-3.4,3.2-7.1,5.9-10.3,8.6c-1.6,1.3-3.2,2.7-4.7,4.1l-2.2,2.2l-2.3,2.3c-2.9,2.9-5.5,6-7.9,9.3c-2.1,2.9-3.7,6.2-4.6,9.7
		c-0.8,2.9-3.8,4.7-6.7,3.9c0,0,0,0,0,0c-0.2-0.1-0.5-0.1-0.7-0.2h-0.1l0,0c-2.1-0.9-4.2-1.7-6.3-2.5s-4.2-1.5-6.3-2.1
		c-4.2-1.3-8.5-2.3-12.9-3.1c-2.2-0.4-4.3-0.7-6.5-0.9l-1.7-0.2l-1.9-0.2c-1.2-0.2-2.2-0.3-3.1-0.3c-0.7-0.1-1.3-0.1-2,0
		c-0.4,0.1-0.4,0.2-0.2,0.1l-5.5,3.5c-7.7,4.7-15.1,9.9-22.2,15.6c-1.7,1.4-3.4,2.7-5,4.1c-0.8,0.7-1.6,1.4-2.4,2.1
		s-1.9,1.6-2.8,2.3c-1.9,1.5-3.6,2.8-5.2,4.1s-3.1,2.6-4.8,4.1l-2.3,2c-1.1,0.9-2.6,1-3.8,0.2l0,0c-6.2-1.8-12.3-3.9-18.3-6.1
		s-12.1-4.5-18.1-6.8s-11.9-4.9-17.8-6.4c-1.5-0.4-3-0.7-4.5-0.9c-1.5-0.2-2.9-0.2-4.4-0.1c-1.5,0.1-2.9,0.5-4.3,1.2
		C1650.5,886.8,1649.3,888,1648.6,889.4z"/>
	<path class="st20" d="M1561.6,924.6c8.9,6.6,17.6,15.6,18.4,27.2c0.2,5.3-0.8,10.7-3,15.5c-6.2,14.4-19.4,25-33.8,28.9
		c-29.5,7.9-79.4-15.4-69.8-54C1483.9,899.6,1536.6,906,1561.6,924.6z"/>
	<path class="st20" d="M1971.3,810.7c11.2,2.2,19.6,12.4,22.2,23.5s0.1,22.8-4.2,33.4c-4.1,9.9-10.2,19.5-19.5,24.6
		c-22.2,12.2-55.5-7.6-55.4-33.3C1914.3,837,1949.7,806.4,1971.3,810.7z"/>
	<line class="st2" x1="1401.9" y1="1365.2" x2="1403.5" y2="1185.4"/>
	<line class="st3" x1="1363.1" y1="1309.5" x2="1363" y2="1234.8"/>
	<line class="st3" x1="1395.1" y1="1338.7" x2="1363" y2="1309.1"/>
	<line class="st2" x1="1399" y1="1305.2" x2="1365.7" y2="1275.2"/>
	<line class="st3" x1="1458.6" y1="1259.6" x2="1458.5" y2="1184.8"/>
	<line class="st3" x1="1469.4" y1="1266.9" x2="1458.5" y2="1259.1"/>
	<line class="st2" x1="1484.4" y1="1245.3" x2="1461.2" y2="1225.3"/>
	<line class="st3" x1="1346.7" y1="1193.3" x2="1346.9" y2="1118.5"/>
	<line class="st3" x1="1316.9" y1="1222.5" x2="1348" y2="1192.9"/>
	<circle class="st31" cx="1404.6" cy="1166.5" r="11.1"/>
	<circle class="st31" cx="1346.9" cy="1107.8" r="5.6"/>
	<circle class="st31" cx="1362.4" cy="1227.5" r="5.6"/>
	<circle class="st31" cx="1457.8" cy="1176.5" r="5.6"/>
</g>
<g id="hat_upper">
	<path class="st30" d="M1714,546.5c-17.1,3.1-47.7,8.3-86.5,13.3c-14.7,1.9-36.1,4.5-71,7.8c-94.1,8.8-109.7,6.2-160,12.6
		c-3.5,0.5-53.5,6.7-105.7,20.5c-189.5,50.1-284.6,149.1-306.6,175.2c-23.7,28.1-44.2,60.2-51.6,96.2s0.2,76.6,26.1,102.6
		c15.2,15.3,35.5,24.5,56.5,29.7l0.1-0.7c1.2-9,2.8-18,5-26.9c2.6-10.8,6.6-22.3,15.8-28.6c-8.8,19.4-7.8,41.8,2.7,60.4
		c52.8,6.2,105.4-7.6,154.4-30.9c-13.5-36.5-9.7-79.3,11.1-112.3c3.6,30.4,16.4,59,36.6,82c-7.1-15.8-5.9-35.9,1.1-51.8
		c3.3,10.1,9.2,21.4,16.8,28.9c-4.9-17.8-4.9-36.6,0-54.4c-0.2-0.9,0-1.8,0.7-2.4c-0.2,0.8-0.5,1.6-0.7,2.4c0.2,0.9,0.4,1.7,0.7,2.5
		c6.6,17.2,15.8,33.3,27.3,47.6c98.5-72.3,182.4-162.8,275.6-242c96.8-82.2,209.1-154.3,336-169.3l0,0l-2.5,0.5
		C1802.3,526.8,1779.6,534.8,1714,546.5z"/>
	<path class="st30" d="M1714.9,551.5c-44,7.9-88.3,14.2-132.8,18.9c-22.2,2.3-44.5,4.4-66.8,6.2c-22.3,1.8-44.6,3.1-66.8,4.4
		c-11.1,0.7-22.1,1.5-33.1,2.7s-22,2.5-32.9,4.2c-21.9,3.3-43.7,7.4-65.3,12.3c-43.2,9.9-85.4,23.5-126.2,40.8
		c-20.4,8.7-40.3,18.3-59.7,28.8c-9.7,5.4-19.3,10.8-28.7,16.6c-4.7,2.8-9.3,5.9-14,8.8c-2.3,1.5-4.6,3.1-6.9,4.6l-3.4,2.3l-3.4,2.4
		c-9.1,6.3-18,12.8-26.6,19.6s-17.2,13.9-25.3,21.2c-8.2,7.3-16.1,15-23.7,22.9c-3.8,4-7.4,8-10.9,12.2s-7,8.5-10.3,12.8
		c-6.7,8.6-12.8,17.7-18.3,27.1c-5.5,9.3-10.3,19.1-14.1,29.2c-0.9,2.5-1.9,5-2.7,7.6c-0.4,1.3-0.8,2.6-1.2,3.8l-1.1,3.9l-0.5,1.9
		l-0.5,2l-0.9,3.9c-0.3,1.3-0.5,2.6-0.7,3.9s-0.5,2.6-0.7,3.9c-1.5,10.5-1.7,21.2-0.6,31.8c1.2,10.5,3.8,20.8,7.9,30.6
		c0.5,1.2,1.1,2.4,1.6,3.6l1.7,3.5l2,3.4c0.6,1.1,1.3,2.3,2,3.3l2.2,3.2l0.5,0.8l0.6,0.8l1.2,1.5c0.8,1,1.6,2.1,2.4,3.1l2.6,2.9
		c7.3,7.6,15.7,13.9,25.1,18.6c9.5,4.8,19.6,8.5,30,11l-7.5,5.2l0.3-2l0.3-2l0.6-3.9c0.4-2.6,0.9-5.2,1.3-7.8
		c1-5.2,2.1-10.2,3.4-15.4c1.3-5.4,3.3-10.7,5.8-15.7c1.4-2.7,3-5.1,4.9-7.4c2-2.4,4.3-4.5,6.9-6.3c2.7-1.9,6.4-1.3,8.4,1.3
		c1.3,1.8,1.5,4.2,0.5,6.2c-4,8.7-5.8,18.1-5.4,27.7c0.4,9.5,3.1,18.8,7.8,27.1l-4.5-3c12.9,1.5,25.8,1.8,38.8,1
		c13-0.8,25.9-2.6,38.6-5.4c25.5-5.6,50.2-14.7,73.9-25.9l-3,7.3c-7-19.2-9.6-39.7-7.5-60c1.9-20.4,8.5-40,19.4-57.3l0,0
		c1.7-2.6,5.2-3.4,7.8-1.7c1.4,0.9,2.4,2.4,2.6,4.1c1.7,14.6,5.6,28.8,11.6,42.2c5.9,13.4,13.9,25.8,23.5,36.9l-9.2,5.9
		c-3.8-9-5.6-18.7-5.2-28.4c0.3-9.6,2.5-19,6.3-27.8c1.2-2.7,4.4-4,7.1-2.8c1.4,0.6,2.5,1.8,2.9,3.2l0,0c1.6,5,3.8,9.8,6.3,14.4
		c2.5,4.5,5.5,8.6,9.1,12.3l-8.9,5.2c-2.6-9.3-3.8-18.9-3.8-28.6c0-9.6,1.4-19.2,3.9-28.5l-0.1,2.1c-0.2-1-0.1-2.1,0.1-3.2
		c0.2-0.7,0.4-1.4,0.8-2c0.4-0.7,0.9-1.3,1.5-1.8c2.2-1.9,5.4-1.7,7.3,0.5c1.1,1.3,1.6,3.1,1.1,4.8v0.1l-0.6,2.3l0.1-2.1
		c0.2,0.8,0.4,1.5,0.8,2.3c0.4,1.1,0.8,2.2,1.3,3.2c0.9,2.2,1.8,4.3,2.8,6.4c1.9,4.3,4.1,8.4,6.3,12.5c4.6,8.2,9.8,15.9,15.6,23.3
		l0,0l-6.9-0.9c50.7-35.8,97.7-77,143.9-118.8c23.1-21,46-42.2,69.1-63.1s46.5-41.6,70.5-61.6c12-10,24.2-19.7,36.6-29.2
		c12.4-9.5,25-18.7,37.8-27.7c25.6-17.9,52.2-34.3,79.8-48.9c27.5-14.7,56.2-27.2,85.8-37.2c14.8-5,29.8-9.2,45-12.7l11.4-2.5
		l11.5-2.2c3.8-0.6,7.7-1.2,11.5-1.9s7.7-1.3,11.5-2.2h0.1c-0.4,0-0.8,0.3-0.8,0.8l0.9,0.8c-15.2,3.7-30.6,7.1-45.8,10.8l-45.7,10.8
		c-15.2,3.6-30.5,7.3-45.8,10.7c-7.7,1.7-15.4,3.3-23.1,4.9l-11.6,2.3L1714.9,551.5z M1713.1,541.6c15.4-2.7,30.8-5.6,46.1-8.7
		c15.3-3,30.7-6.3,46.1-9.3s30.9-5.9,46.3-8.4s31-4.9,46.6-6.9l0,0c0.4,0,0.8,0.3,0.9,0.7c0,0,0,0.1,0,0.1c0,0.2-0.1,0.4-0.2,0.5
		c-0.1,0.1-0.3,0.2-0.6,0.2h0.1c-3.9,0.1-7.8,0.4-11.7,0.8s-7.7,1.2-11.6,1.8l-11.5,2.2l-11.4,2.5c-15.2,3.5-30.2,7.8-45,12.8
		c-29.5,10.1-58.1,22.6-85.6,37.5c-27.4,14.9-53.9,31.4-79.3,49.5c-12.7,9-25.2,18.3-37.5,27.9c-12.3,9.6-24.3,19.5-36.2,29.6
		c-23.7,20.3-46.8,41.2-69.6,62.5s-45.3,42.9-68,64.3c-45.3,42.9-91.5,85.2-141.4,123.2c-2.1,1.6-5.1,1.2-6.8-0.8v-0.1l0,0
		c-6.2-7.7-11.8-15.9-16.7-24.5c-2.4-4.3-4.7-8.7-6.8-13.2c-1-2.2-2-4.5-3-6.8c-0.5-1.1-0.9-2.3-1.4-3.4c-0.7-1.5-1.1-3-1.4-4.6
		c-0.1-0.6-0.1-1.3,0.1-1.9v-0.1l0.7-2.5l8.4,5.3c0.3-0.2,0.5-0.5,0.7-0.8c0.2-0.3,0.3-0.5,0.3-0.8c0.1-0.2,0.1-0.4,0.1-0.6
		c0.2,0.4,0.2,0.9,0.1,1.4l-0.2,0.7c-2.2,8.4-3.4,17.1-3.4,25.8c0,8.7,1.2,17.4,3.6,25.8c0.8,2.8-0.9,5.8-3.7,6.6
		c-1.9,0.5-3.8,0-5.2-1.4c-4.3-4.4-8-9.3-11-14.7c-2.9-5.2-5.4-10.7-7.2-16.4l10.1,0.5c-3.3,7.5-5.1,15.6-5.3,23.8
		c-0.4,8.1,1.1,16.1,4.3,23.5c1.3,2.8,0,6-2.7,7.3c-2.2,1-4.8,0.4-6.4-1.4l0,0c-10.4-11.8-19-25.2-25.5-39.6
		c-6.4-14.4-10.7-29.7-12.6-45.4l10.4,2.3c-9.8,15.9-15.8,33.8-17.5,52.4c-1.8,18.6,0.6,37.3,7.1,54.9c1.1,2.8-0.2,6-2.9,7.3l0,0
		c-24.3,11.6-49.8,21.1-76.4,26.9c-13.3,2.9-26.8,4.9-40.4,5.7c-13.6,0.9-27.3,0.5-40.9-1.1c-1.9-0.2-3.6-1.3-4.5-3
		c-5.7-10-8.9-21.1-9.4-32.6c-0.6-11.5,1.7-22.9,6.5-33.3l8.9,7.6c-3.4,2.5-6.1,5.7-7.9,9.4c-2.1,4.2-3.7,8.6-4.8,13.1
		c-1.2,4.7-2.3,9.7-3.2,14.6c-0.5,2.5-0.9,4.9-1.3,7.4l-0.6,3.7l-0.5,3.6v0.1c-0.4,3.3-3.5,5.7-6.8,5.2c0,0,0,0,0,0
		c-0.2,0-0.4-0.1-0.7-0.1c-11.3-2.7-22.3-6.7-32.7-12c-10.6-5.3-20.2-12.4-28.4-21l-3-3.3c-1-1.1-1.9-2.3-2.8-3.5l-1.4-1.8l-0.7-0.9
		l-0.6-0.9l-2.5-3.7c-0.9-1.2-1.6-2.5-2.3-3.8l-2.2-3.9l-1.9-4c-0.7-1.3-1.3-2.7-1.8-4c-4.6-10.9-7.5-22.3-8.8-34
		c-1.2-11.6-1-23.3,0.6-34.9c0.2-1.4,0.5-2.9,0.7-4.3s0.5-2.9,0.8-4.3l1-4.2l0.5-2.1l0.6-2.1l1.2-4.2c0.4-1.4,0.9-2.8,1.3-4.1
		c0.8-2.8,1.9-5.5,2.9-8.2c4.1-10.7,9.1-21.1,15-31c5.8-9.8,12.2-19.3,19.2-28.3c3.4-4.5,7-8.9,10.6-13.3s7.5-8.6,11.4-12.7
		c7.8-8.2,16-16,24.4-23.6s17.1-14.7,26-21.7s18-13.6,27.2-20l3.5-2.4l3.5-2.3c2.3-1.5,4.7-3.1,7-4.7c4.8-3,9.5-6.1,14.3-9
		c9.6-5.9,19.4-11.5,29.2-16.9c19.8-10.7,40.1-20.4,60.8-29.2c41.5-17.4,84.4-31.2,128.2-41.2c21.9-4.9,44-9,66.2-12.3
		c11.1-1.7,22.3-3,33.4-4.2c11.2-1.1,22.4-1.9,33.6-2.6c22.3-1.2,44.5-2.4,66.7-4.2s44.4-3.7,66.5-5.9
		C1625.3,555.5,1669.3,549.4,1713.1,541.6z"/>
</g>
</svg>
