<svg xmlns="http://www.w3.org/2000/svg" xmlns:xlink="http://www.w3.org/1999/xlink" viewBox="0 0 3000 3000"><defs><style>.cls-1,.cls-14,.cls-18,.cls-25,.cls-30,.cls-33,.cls-6,.cls-7{fill:none;}.cls-2{fill:url(#linear-gradient);}.cls-3{clip-path:url(#clip-path);}.cls-15,.cls-23,.cls-27,.cls-4,.cls-5{fill:#ffeae1;}.cls-27,.cls-33,.cls-4,.cls-5,.cls-6,.cls-7,.cls-8{stroke:#ffeae1;}.cls-12,.cls-14,.cls-17,.cls-18,.cls-19,.cls-22,.cls-23,.cls-25,.cls-31,.cls-4,.cls-5,.cls-6,.cls-7,.cls-8{stroke-linecap:round;}.cls-12,.cls-14,.cls-17,.cls-18,.cls-19,.cls-22,.cls-23,.cls-25,.cls-27,.cls-31,.cls-4,.cls-5,.cls-6,.cls-7,.cls-8{stroke-linejoin:round;}.cls-10,.cls-11,.cls-12,.cls-14,.cls-17,.cls-18,.cls-19,.cls-22,.cls-23,.cls-25,.cls-31,.cls-33,.cls-4,.cls-6,.cls-8,.cls-9{stroke-width:10px;}.cls-5,.cls-7{stroke-width:5px;}.cls-16,.cls-31,.cls-8{fill:#a6e8e2;}.cls-10,.cls-11,.cls-14,.cls-19,.cls-22,.cls-9{stroke:#c34e4c;}.cls-10,.cls-11,.cls-30,.cls-33,.cls-9{stroke-miterlimit:10;}.cls-9{fill:url(#linear-gradient-2);}.cls-10{fill:url(#linear-gradient-3);}.cls-11{fill:url(#linear-gradient-4);}.cls-12,.cls-17,.cls-32{fill:#2b5a6d;}.cls-12,.cls-23,.cls-25,.cls-31{stroke:#2b5a6d;}.cls-13{fill:#c34e4c;}.cls-17,.cls-18{stroke:#a6e8e2;}.cls-19{fill:url(#linear-gradient-5);}.cls-20{fill:url(#linear-gradient-6);}.cls-21{fill:url(#linear-gradient-7);}.cls-22,.cls-24{fill:#fbaa82;}.cls-26{fill:url(#linear-gradient-8);}.cls-28{clip-path:url(#clip-path-2);}.cls-29{clip-path:url(#clip-path-3);}.cls-30{stroke:#fbaa82;stroke-width:1.22px;}</style><linearGradient id="linear-gradient" x1="434.21" y1="2275.53" x2="2752.04" y2="937.32" gradientUnits="userSpaceOnUse"><stop offset="0" stop-color="#fbaa82"/><stop offset="0.28" stop-color="#e7836a"/><stop offset="0.59" stop-color="#d35f52"/><stop offset="0.84" stop-color="#c74844"/><stop offset="1" stop-color="#c3403f"/></linearGradient><clipPath id="clip-path"><path class="cls-1" d="M2441.18,441.11c-39.09-49.49-92.84-66.85-155-86C1975,259,1651.3,392,1399.61,499,1117.86,618.88,952.12,744.81,913.14,775.3,657.3,975.43,569.62,1152,546.65,1201.63c-77.07,166.5-59.92,237.28-47.69,266.68,32.33,77.7,100.14,89,102.4,151.34,2.11,58.2-56,77.36-161.75,200.64-86.79,101.16-124.23,152.64-122.36,216.62,1.84,63.19,51.39,132.37,114.48,161.17,60.62,27.66,105.79,3.33,132,36.36,20.11,25.28.24,47.78,0,131.32-.09,33.06.18,87.39,21.08,143.38,0,0,21.29,77.74,83.56,121.78,119.4,84.43,276.45,71.11,415.58,21.62,209.52-74.54,350-279.37,564.57-339.31,23.32-6.51,48-11.2,71.8-6.6s46.58,20.3,52.69,42.81c11.83,43.67-51.91,58.42-75.41,97.52-33.35,55.47,11.23,130.38,73.41,153.84s132.42,9.64,196.41-8.83c68-19.62,140.18-43.15,216.44-85.27,74.24-41,116.77-79.95,168.39-122.89,268.32-223.2,333.66-214.81,341.16-280.7,16.63-146.31-300.2-235-270.32-370.13,12.46-56.35,82.44-105.3,176.88-173.64,147.1-106.43,159.44-89.15,190.93-131.32,92.3-123.6,88.87-350.53-26.32-440.15-99.52-77.44-207.47,5.7-281.4-65.68C2377,819.6,2558.3,589.38,2441.18,441.11Z"/></clipPath><linearGradient id="linear-gradient-2" x1="607.94" y1="1509.59" x2="1151.17" y2="966.36" gradientTransform="matrix(0.99, -0.03, 0.03, 1, 69.89, 43.75)" gradientUnits="userSpaceOnUse"><stop offset="0" stop-color="#ffeae1"/><stop offset="0.24" stop-color="#fedecf"/><stop offset="0.71" stop-color="#fcbfa2"/><stop offset="1" stop-color="#fbaa82"/></linearGradient><linearGradient id="linear-gradient-3" x1="1338.3" y1="2481.59" x2="1967.71" y2="1852.18" gradientUnits="userSpaceOnUse"><stop offset="0" stop-color="#ffeae1"/><stop offset="0.12" stop-color="#feddcd"/><stop offset="0.37" stop-color="#fdc7ad"/><stop offset="0.6" stop-color="#fcb795"/><stop offset="0.82" stop-color="#fbad87"/><stop offset="1" stop-color="#fbaa82"/></linearGradient><linearGradient id="linear-gradient-4" x1="1348.18" y1="2429.24" x2="2033.07" y2="1744.35" gradientUnits="userSpaceOnUse"><stop offset="0" stop-color="#ffeae1"/><stop offset="0.2" stop-color="#ffe7dd"/><stop offset="0.41" stop-color="#feded0"/><stop offset="0.62" stop-color="#fdd0ba"/><stop offset="0.84" stop-color="#fcbc9d"/><stop offset="1" stop-color="#fbaa82"/></linearGradient><linearGradient id="linear-gradient-5" x1="2411.46" y1="2029.52" x2="2870.47" y2="1570.51" gradientUnits="userSpaceOnUse"><stop offset="0" stop-color="#ffeae1"/><stop offset="0.03" stop-color="#ffe6db"/><stop offset="0.2" stop-color="#fdd0bb"/><stop offset="0.38" stop-color="#fcbfa2"/><stop offset="0.57" stop-color="#fcb390"/><stop offset="0.77" stop-color="#fbac85"/><stop offset="1" stop-color="#fbaa82"/></linearGradient><linearGradient id="linear-gradient-6" x1="2544.99" y1="1959.26" x2="2735.2" y2="1629.81" gradientUnits="userSpaceOnUse"><stop offset="0" stop-color="#ffeae1"/><stop offset="1" stop-color="#a6e8e2"/></linearGradient><linearGradient id="linear-gradient-7" x1="2286.5" y1="1818.4" x2="2424.61" y2="1818.4" gradientUnits="userSpaceOnUse"><stop offset="0" stop-color="#ffeae1"/><stop offset="0.19" stop-color="#f5eae1"/><stop offset="0.52" stop-color="#d9e9e1"/><stop offset="0.94" stop-color="#ade8e2"/><stop offset="1" stop-color="#a6e8e2"/></linearGradient><linearGradient id="linear-gradient-8" x1="1503.08" y1="946.35" x2="2394.13" y2="946.35" gradientUnits="userSpaceOnUse"><stop offset="0" stop-color="#2b5a6d"/><stop offset="1" stop-color="#fbaa82"/></linearGradient><clipPath id="clip-path-2"><path class="cls-1" d="M1864,809a785.32,785.32,0,0,1,258-8.14c80,10.8,160.17,35.13,222.32,84.6,26.22,20.87,50.52,52.46,40.64,83.84-6.57,20.84-26.52,35-46.26,45.67-102.15,55.4-224.84,58.88-342,61-137.38,2.46-277.15,31-414.23,22.26-15.73-1-31.89-2.88-45.65-10.24-19.89-10.65-32-31.7-35.91-53.28s-.45-43.76,4.61-65.13c3.07-12.94,6.9-26.11,15.2-36.74,9.51-12.2,23.9-19.85,38-26.81a1041.24,1041.24,0,0,1,247.37-85.19"/></clipPath><clipPath id="clip-path-3"><rect class="cls-1" x="1512.39" y="562.07" width="311.25" height="311.25"/></clipPath></defs><g id="bkg"><path class="cls-2" d="M2441.18,441.11c-39.09-49.49-92.84-66.85-155-86C1975,259,1651.3,392,1399.61,499,1117.86,618.88,952.12,744.81,913.14,775.3,657.3,975.43,569.62,1152,546.65,1201.63c-77.07,166.5-59.92,237.28-47.69,266.68,32.33,77.7,100.14,89,102.4,151.34,2.11,58.2-56,77.36-161.75,200.64-86.79,101.16-124.23,152.64-122.36,216.62,1.84,63.19,51.39,132.37,114.48,161.17,60.62,27.66,105.79,3.33,132,36.36,20.11,25.28.24,47.78,0,131.32-.09,33.06.18,87.39,21.08,143.38,0,0,21.29,77.74,83.56,121.78,119.4,84.43,276.45,71.11,415.58,21.62,209.52-74.54,350-279.37,564.57-339.31,23.32-6.51,48-11.2,71.8-6.6s46.58,20.3,52.69,42.81c11.83,43.67-51.91,58.42-75.41,97.52-33.35,55.47,11.23,130.38,73.41,153.84s132.42,9.64,196.41-8.83c68-19.62,140.18-43.15,216.44-85.27,74.24-41,116.77-79.95,168.39-122.89,268.32-223.2,333.66-214.81,341.16-280.7,16.63-146.31-300.2-235-270.32-370.13,12.46-56.35,82.44-105.3,176.88-173.64,147.1-106.43,159.44-89.15,190.93-131.32,92.3-123.6,88.87-350.53-26.32-440.15-99.52-77.44-207.47,5.7-281.4-65.68C2377,819.6,2558.3,589.38,2441.18,441.11Z"/></g><g id="bkg_copy" data-name="bkg copy"><g class="cls-3"><g id="circuits"><line class="cls-4" x1="586.75" y1="2621.35" x2="908.75" y2="2364.35"/><line class="cls-4" x1="707.96" y1="2733.25" x2="1146.96" y2="2385.25"/><line class="cls-5" x1="855.96" y1="2715.25" x2="981.75" y2="2614.35"/><line class="cls-4" x1="1644.78" y1="2599.03" x2="2009.14" y2="2312.87"/><line class="cls-5" x1="854.39" y1="2541.51" x2="1665.75" y2="1893.35"/><line class="cls-5" x1="694.75" y1="2536.35" x2="854.75" y2="2541.35"/><line class="cls-5" x1="982.14" y1="2613.99" x2="1219.75" y2="2621.35"/><line class="cls-4" x1="749.48" y1="2492.14" x2="903.75" y2="2498.35"/><line class="cls-5" x1="1444.6" y1="2696" x2="1883.6" y2="2348"/><line class="cls-5" x1="1958.09" y1="2354.83" x2="2419.09" y2="2369.2"/><line class="cls-4" x1="2009.1" y1="2312.74" x2="2470.1" y2="2327.11"/><line class="cls-4" x1="148.87" y1="1773.34" x2="2136" y2="197"/><line class="cls-5" x1="2108.08" y1="443.75" x2="2919.44" y2="-204.41"/><line class="cls-5" x1="1948.13" y1="439.25" x2="2108.13" y2="444.25"/><line class="cls-5" x1="782.5" y1="1362.5" x2="1949.17" y2="439.84"/><line class="cls-4" x1="2052.7" y1="437.85" x2="2864.06" y2="-210.31"/><circle class="cls-6" cx="925.17" cy="2352.88" r="15"/><circle class="cls-6" cx="1166.75" cy="2370.35" r="20"/><circle class="cls-7" cx="1897.14" cy="2335.87" r="15"/><circle class="cls-7" cx="764.5" cy="1379.5" r="25"/><line class="cls-5" x1="322" y1="1976" x2="802" y2="1588"/><circle class="cls-7" cx="817.5" cy="1576.5" r="15"/><line class="cls-5" x1="2346.5" y1="1143.5" x2="3513.17" y2="220.84"/><circle class="cls-7" cx="2328.5" cy="1160.5" r="25"/><line class="cls-4" x1="2599.5" y1="1040.5" x2="3766.17" y2="117.84"/><circle class="cls-6" cx="2584" cy="1055" r="15"/><path class="cls-8" d="M2151.47,628.21a119,119,0,0,0-60.71-59.29,95.86,95.86,0,0,0,59.29-60.71,130.89,130.89,0,0,0,60.71,59.29,130.38,130.38,0,0,0-59.29,60.71Z"/><path class="cls-8" d="M2179.79,1755.21a59.57,59.57,0,0,0-30.36-29.65,48,48,0,0,0,29.65-30.35,65.49,65.49,0,0,0,30.35,29.64,65.19,65.19,0,0,0-29.64,30.36Z"/><path class="cls-8" d="M2342,763.59a79.47,79.47,0,0,0-40.47-39.53A63.92,63.92,0,0,0,2341,683.59a87.18,87.18,0,0,0,40.48,39.52A86.92,86.92,0,0,0,2342,763.59Z"/><path class="cls-8" d="M1142.65,848.15a59.63,59.63,0,0,0-30.35-29.64,48,48,0,0,0,29.64-30.36,65.41,65.41,0,0,0,30.36,29.65,65.06,65.06,0,0,0-29.65,30.35Z"/><path class="cls-8" d="M1236.07,2475.11a59.53,59.53,0,0,0-30.35-29.64,47.9,47.9,0,0,0,29.64-30.36,65.41,65.41,0,0,0,30.36,29.65,65.06,65.06,0,0,0-29.65,30.35Z"/><path class="cls-8" d="M2531.66,1244.77a79.4,79.4,0,0,0-40.47-39.52,63.91,63.91,0,0,0,39.52-40.48,87.26,87.26,0,0,0,40.48,39.53,86.83,86.83,0,0,0-39.53,40.47Z"/><path class="cls-8" d="M2376.66,2227.79a79.36,79.36,0,0,0-40.47-39.53,63.92,63.92,0,0,0,39.52-40.47,87.3,87.3,0,0,0,40.48,39.52,86.92,86.92,0,0,0-39.53,40.48Z"/><path class="cls-8" d="M2062.67,2471.08a59.5,59.5,0,0,0-30.36-29.64,47.94,47.94,0,0,0,29.65-30.36,65.36,65.36,0,0,0,30.35,29.64,65.19,65.19,0,0,0-29.64,30.36Z"/><path class="cls-8" d="M710.58,1532.4a59.43,59.43,0,0,0-30.35-29.64,47.9,47.9,0,0,0,29.64-30.36A65.32,65.32,0,0,0,740.23,1502a65.15,65.15,0,0,0-29.65,30.36Z"/><path class="cls-8" d="M1047.22,1708.17a119.1,119.1,0,0,0-60.71-59.29,95.92,95.92,0,0,0,59.29-60.71,130.89,130.89,0,0,0,60.71,59.29,130.26,130.26,0,0,0-59.29,60.71Z"/><path class="cls-8" d="M1221.69,1591.26a59.6,59.6,0,0,0-30.36-29.64,47.94,47.94,0,0,0,29.65-30.36,65.45,65.45,0,0,0,30.35,29.65,65.11,65.11,0,0,0-29.64,30.35Z"/><path class="cls-8" d="M2040.84,680.22a59.57,59.57,0,0,0-30.36-29.65,47.85,47.85,0,0,0,29.64-30.35,65.32,65.32,0,0,0,30.36,29.64,65.19,65.19,0,0,0-29.64,30.36Z"/></g></g></g><g id="clouds"><path class="cls-9" d="M489.29,1256.57c1.47,5.19,7.29,7.42,11.86,5.94s8.07-5.6,11.07-9.8c14.92-20.84,24.3-48.29,44.79-61.59,21.15-13.73,47.57-8.14,71.45-2.17a51,51,0,0,1-1.19-53.52c17.68-30.75,51.52-48.12,83.54-42.88-.63-23.16.46-38.86,11.62-58.06,18.68-32.12,49.43-55.61,83.1-59.16s69.42,14.52,87.28,47.61c16.66,30.86,16.61,69.69,11.7,105.33,52.42-26,110.51-22.72,163.77,2,29.47,13.71,57.48,36.49,70.62,69.65,21-25.88,53.73-42.79,84.67-45.2,23.45-1.83,49.39,5.61,63.4,27.36,24.25-21.73,56.35-38.4,87.25-39.85,20.71-1,42,3.22,60.06,15.14s32.39,32.18,36.15,55.56c4,25-4.29,50.77-17.38,71.11-30.89,48-86.58,69-138.79,65.12-21.49,43.19-62.06,62.06-103.52,77.08-33.89,12.29-69,21.83-104.66,21.19-40-.71-79.78-14.56-113.49-39.46-52.68-38.92-89.82-103.3-146.46-134-49.67-26.93-107.66-24-161.17-11.1s-105.12,35-159.1,45c-12.81,2.39-26.18,4-38.62-.36s-23.75-16.35-24.78-31.19S476.83,1252.23,489.29,1256.57Z"/><path class="cls-10" d="M1438.85,2060c-3.23-17.33-.43-35.37,4.3-52.28,16-57.06,54.9-105.91,104.35-131a181.85,181.85,0,0,1,158.73-2.46c10.32-50.6,54.12-86.81,100.3-98.28,24.34-6,50.27-6.36,73.86,2.55,38.82,14.68,67.23,53,81.82,95.07s17.19,87.82,18.07,132.78c19-3.69,36.3,19.84,40.26,40.55s-2.26,42-9.29,61.71c15-18.94,42.27-16.49,61.1-2.16s27.16,42.14,22.35,66.69c-2.55,13.06-10.17,26.73-22.24,28.67-9,1.46-17.61-4-25.81-8.41a124.44,124.44,0,0,0-61-14.78c-44.5.9-90.53,22-132.61,37.88-144.31,54.46-304.22,58.14-450.49,10.35a333.62,333.62,0,0,1-134,72.92c-41.58,11.47-88.83,13.47-124.16-13.15-11.82-8.91-22.49-22.8-21.22-38.45,1.05-12.87,10.21-23.62,20.9-29.07s22.78-6.49,34.57-7c21.28-40,59-69.49,98.67-85.44a170,170,0,0,1,124.37-.76c-2.08,3.11-7,1.72-8.76-1.63s-1.22-7.52-.42-11.27C1399.08,2081.53,1410.8,2070.19,1438.85,2060Z"/><path class="cls-11" d="M1541,2063c-79.15,38.82-174.21,45.81-258.47,19-23.22-7.39-45.78-17.25-69.86-21.32s-50.8-1.51-69.63,13.63c-8.88,7.13-15.84,20.64-12.81,31.45-14.85-14.41-38-20.08-58.14-14.22-10,2.92-19.36,11.25-21.5,21.18-4.25,19.71,14.87,36.73,33.55,45.43,25.73,12,54.21,17.29,82.56,20.35,59.8,6.46,120.25,3.42,180.16-1.85a2433.35,2433.35,0,0,0,275.2-40.15c57.12-11.71,113.1-21.48,171.31-17.2C1884.47,2126,1974,2148,2065.33,2151s209.36-1.32,253.68-79c7-12.32,3.95-28.52-5.06-39.55s-22.95-17.41-37.13-20.29c-22.11-4.5-43.86-5.51-63.72,4.95,17.89-16.36,25-43,17.61-65.74s-29-40.55-53.3-43.93-55.92,1.78-69.59,21.62c-4.21-16.7-12.91-33.33-28.06-42.19s-27.84-2-37.84,12.2c-22.81-24.62-48.46-48.46-80.67-59.28a121.21,121.21,0,0,0-85.8,3.63c-56.81,24.66-77.08,84.24-65.63,141-17-22.23-52.6-35.38-80.63-30.52-23.18,4-43,18-62.29,31.09C1620.15,2016.79,1592,2038,1541,2063Z"/></g><g id="broom"><path class="cls-12" d="M2906.56,1305.18c-23.78-42.64-75.6-51.55-85.4-53.24-66.09-11.36-154.94,23.09-204.82,77.2-10.35,11.23-27.66,30.78-54.7,36-19.39,3.71-34.46-4.91-52.06-13.87-282.55,49.66-553.77,148.4-823.28,246.68l-852.83,311,27.86,81.74c670.22-215.21,977.87-316,1130.2-367.12,0,0,174.67-58.56,417-109.8,106.53-22.53,159.79-33.79,189.51-30.32,26.66,3.11,51.15,5.48,74-6.56,32.47-17.08,43.37-55.16,50.27-91.19,2.16-11.25,15.51-17.29,26.86-15.78s21.17,8.33,30.84,14.47a325,325,0,0,0,61.22,30.36c17.76,6.59,38.42,11.4,54.95,2.15,17.44-9.76,19.65-33.4,21.49-48.82C2918.63,1360.48,2921.63,1332.18,2906.56,1305.18Zm-31.49,31.55c-2.39,14.27-19.71,21.51-34,19.31-8.91-1.37-17.62-5.56-23.22-12.63s-7.61-17.21-3.91-25.44a36.74,36.74,0,0,1,43.89-9C2868.26,1314.18,2877,1325.21,2875.07,1336.73Z"/><path class="cls-13" d="M839.08,1934.41q32.92-18,67.31-33.38a686,686,0,0,1,70.46-26.82,516.39,516.39,0,0,1,73.6-17.44c3.12-.51,6.26-.88,9.39-1.33s6.26-.89,9.4-1.2c6.28-.69,12.55-1.26,18.8-1.75,12.51-1,25-1.72,37.3-2.66,6.17-.49,12.32-1,18.45-1.6s12.23-1.43,18.34-2.21l9.13-1.4,4.57-.7c1.53-.22,3.05-.46,4.56-.76l9.1-1.69c3-.57,6.07-1.1,9.08-1.79,12.1-2.48,24.15-5.25,36.12-8.42,6-1.59,12-3.15,17.91-4.93l8.93-2.56c3-.87,5.93-1.81,8.9-2.71,47.44-14.6,93.87-32.79,140.55-50.34-45.12,21.21-90.66,41.71-137.94,58.27-3,1-5.9,2.09-8.87,3.1l-8.93,2.92c-5.94,2-12,3.75-18,5.55-12,3.58-24.17,6.78-36.4,9.68-3.05.77-6.13,1.38-9.21,2l-9.24,1.92c-1.54.34-3.08.62-4.64.88l-4.65.82-9.3,1.63c-6.23.93-12.48,1.78-18.72,2.66s-12.52,1.41-18.76,1.95c-12.49,1.11-24.91,2-37.23,3.12-6.16.56-12.29,1.19-18.39,1.93-3,.34-6.08.86-9.12,1.26s-6.09.81-9.11,1.32a546.3,546.3,0,0,0-71.75,17c-23.52,7.35-46.7,15.94-69.5,25.54s-45.26,20.13-67.59,31h0a5,5,0,0,1-4.58-8.89Z"/><path class="cls-13" d="M854.75,1962.5c11.46-5.65,23.14-10.8,34.92-15.72s23.69-9.52,35.67-13.93q9-3.24,18-6.38c6-2.09,12.1-4.06,18.17-6l9.14-2.86c3-.94,6.09-1.91,9.21-2.64,6.25-1.39,12.66-2.35,19.57-1.65a48.59,48.59,0,0,1-8.1,5.89,78.94,78.94,0,0,1-8.56,4.43c-2.9,1.31-5.88,2.39-8.85,3.51l-8.89,3.38-17.76,6.79q-8.88,3.39-17.72,6.86L894.19,1958c-11.8,4.61-23.58,9.27-35.47,13.71a5,5,0,0,1-4-9.18Z"/><path class="cls-13" d="M2288.1,1415.74c11.29-4.11,22.65-8,34-11.79l17.12-5.59,17.17-5.38c22.91-7.16,46-13.82,69.1-20.19s46.38-12.34,69.69-18c5.84-1.39,11.69-2.71,17.57-3.91s11.78-2.26,17.7-3.26a292.34,292.34,0,0,1,36-3.85,5.07,5.07,0,0,1,2.14,9.75l0,0c-5.62,2.34-11.31,4.3-17,6.16s-11.46,3.58-17.22,5.2-11.55,3.14-17.36,4.52-11.63,2.76-17.47,4l-70.2,14.82c-23.41,4.9-46.83,9.83-70.31,14.58l-17.6,3.61-17.63,3.52c-5.87,1.22-11.77,2.31-17.66,3.46-2.94.59-5.89,1.15-8.84,1.7l-8.86,1.63a.52.52,0,0,1-.61-.41A.53.53,0,0,1,2288.1,1415.74Z"/><path class="cls-13" d="M2651.32,1412.59a53.31,53.31,0,0,1-7.23-17.71,45.79,45.79,0,0,1,.2-20.36,43.26,43.26,0,0,1,3.85-10.08,41.62,41.62,0,0,1,6.62-9.07c.65-.7,1.39-1.34,2.1-2s1.5-1.25,2.28-1.85,1.59-1.17,2.45-1.68,1.68-1,2.67-1.52a27.55,27.55,0,0,1,13.12-3.1,21.63,21.63,0,0,1,7.93,1.69,20.17,20.17,0,0,1,7.13,5.15,22,22,0,0,1,4.18,7.14,28,28,0,0,1,1.47,6.87,37.62,37.62,0,0,1,0,6.09c-.07.95-.16,1.89-.29,2.81s-.27,1.83-.42,2.61a88.16,88.16,0,0,1-2.27,9.67,86.94,86.94,0,0,1-7.65,18.19,70,70,0,0,1-11.74,15.62,5.13,5.13,0,0,1-8.46-5.27l0-.13,2.77-8.36c.9-2.74,1.72-5.49,2.5-8.21s1.49-5.46,2.12-8.19,1.2-5.45,1.7-8.18.95-5.46,1.27-8.2c.11-.71.17-1.3.23-1.9s.09-1.16.13-1.73a24.31,24.31,0,0,0-.05-3,10.78,10.78,0,0,0-.36-2c-.15-.46-.25-.65-.28-.74s0-.15-.11-.25a1.67,1.67,0,0,0-.89-.36,9.82,9.82,0,0,0-4.56.55,12.84,12.84,0,0,0-1.39.55c-.49.18-.95.47-1.44.69l-1.41.81c-.45.32-.94.59-1.39.93a32.16,32.16,0,0,0-9.34,11,46.7,46.7,0,0,0-4.83,15.5A99.83,99.83,0,0,0,2651.32,1412.59Z"/><path class="cls-13" d="M2688.9,1468.39c-3.19,1.09-6.45,2.14-9.83,3a74.48,74.48,0,0,1-10.5,2.12,49,49,0,0,1-11.32.23,38.61,38.61,0,0,1-11.55-3,44.33,44.33,0,0,1-9.85-6.16c-2.88-2.3-5.43-4.68-7.87-6.91s-4.71-4.38-7-6.13a30.44,30.44,0,0,0-7.05-4.14,34.57,34.57,0,0,0-8-2.15,56.89,56.89,0,0,0-8.86-.52,176.33,176.33,0,0,0-19.15,1.76l-39.71,5-39.75,4.8-39.78,4.56c-26.53,2.94-53.09,5.76-79.7,8.17,26.2-5.28,52.45-10.14,78.72-14.9l39.43-7,39.46-6.74,39.5-6.52a164.19,164.19,0,0,1,20.61-2.54,64.24,64.24,0,0,1,11.11.45,42.8,42.8,0,0,1,21.46,8.92,102.34,102.34,0,0,1,8,7.06c2.42,2.34,4.7,4.56,7,6.48a35.85,35.85,0,0,0,6.91,4.68c4.64,2.37,10.26,3.08,16.28,2.76a132.28,132.28,0,0,0,18.81-3,5,5,0,0,1,2.63,9.65Z"/><path class="cls-13" d="M2744,1317.86a33.89,33.89,0,0,1,.13-7.53,36.81,36.81,0,0,1,1.77-7.37,43.8,43.8,0,0,1,3.1-7,53.74,53.74,0,0,1,4.13-6.44,62.88,62.88,0,0,1,4.93-5.88c.87-.94,1.83-1.79,2.74-2.69l1.38-1.34c.48-.42,1-.82,1.47-1.24a76.64,76.64,0,0,1,12.63-8.83,84,84,0,0,1,29.4-9.89,88,88,0,0,1,15.75-.69,86.39,86.39,0,0,1,15.75,2.44,5,5,0,0,1-2.4,9.72l-.38-.11-.13,0a75.68,75.68,0,0,0-13.65-3.29,79.2,79.2,0,0,0-14.21-.56,77.74,77.74,0,0,0-27.85,6.87,72.34,72.34,0,0,0-12.59,7.32c-.49.36-1,.7-1.49,1.07l-1.41,1.16c-.94.78-1.92,1.52-2.82,2.34a57.78,57.78,0,0,0-5.17,5.21,49.85,49.85,0,0,0-4.47,5.84,42.08,42.08,0,0,0-3.55,6.45A34.22,34.22,0,0,0,2744,1317.86Z"/><path class="cls-13" d="M2792,1320.9a43.86,43.86,0,0,0,4.76,34.7,48,48,0,0,0,31.63,21.69,52.22,52.22,0,0,1-38.25-16.58,54.94,54.94,0,0,1-11.6-19.35,56.77,56.77,0,0,1-3-23.22l0-.33a8.42,8.42,0,0,1,16.79,1.33A7.83,7.83,0,0,1,2792,1320.9Z"/><path class="cls-14" d="M1332,1756.89c3.32,0,7.34.58,8.63,3.65,1.54,3.68-2.21,7.32-5.59,9.45-16.65,10.51-68.32,35.33-84.31,18.15C1267.25,1766.13,1305.74,1756.88,1332,1756.89Z"/><path class="cls-13" d="M2182,1536.4q152.22-38.72,307.95-62.58a5,5,0,1,1,1.52,9.88l-.16,0Q2335.66,1502.51,2182,1536.4Z"/><path class="cls-15" d="M654.77,1948.46a620.48,620.48,0,0,1,225.92-161.75,439.49,439.49,0,0,1-85.49,102.21c33.78-4.29,69.53-20.45,100.56-34.49L851,1893.55,951.19,1880a91.89,91.89,0,0,1-30.27,26.27c40.59,47,85.64,96.63,146.4,109.26-85.94,44.86-189.9,53.9-282.29,24.53"/><path class="cls-13" d="M651,1945.15c16.29-17,33.18-33.38,50.82-48.87,4.49-3.79,8.92-7.64,13.37-11.46l13.64-11.12,13.9-10.79q7.1-5.19,14.16-10.44,28.58-20.54,59.16-38.11c20.35-11.73,41.3-22.42,62.7-32.27a4.94,4.94,0,0,1,6.37,6.91l-.17.3h0a203,203,0,0,1-16.07,30,271.06,271.06,0,0,1-43.67,52.19,204.14,204.14,0,0,1-26.73,21.13h0l-3.93-8.71a185.11,185.11,0,0,0,25.41-5.23c8.4-2.31,16.71-5.08,24.93-8.14,16.47-6.13,32.59-13.38,48.78-20.71a5,5,0,0,1,5.36,8.32l-44.76,39.11h0l-4-8.72c8.51.11,16.94-.45,25.34-1.17s16.76-1.78,25.1-3,16.66-2.52,25-4,16.57-3.2,24.79-5.31h0a4.76,4.76,0,0,1,5.06,7.41l-.37.51a96.93,96.93,0,0,1-31.92,27.7l1.41-7.67c10.13,11.72,20.3,23.33,30.88,34.49a400.3,400.3,0,0,0,33.26,31.66,225.74,225.74,0,0,0,37.4,25.81,154.5,154.5,0,0,0,42.09,15.67h0a4.9,4.9,0,0,1,1.92,8.91l-.62.41c-5.15,3.41-10.4,6.7-15.71,9.93-5.45,2.92-10.94,5.83-16.49,8.64q-8.48,3.83-17.08,7.49c-5.81,2.18-11.68,4.27-17.55,6.36-6,1.79-11.94,3.55-17.95,5.24-6.05,1.46-12.15,2.77-18.23,4.15-6.16,1-12.3,2.06-18.47,3l-18.6,2a333.58,333.58,0,0,1-74.54-2.37,291.38,291.38,0,0,1-71.51-19.58,5,5,0,0,1,3-9.53h0a487.62,487.62,0,0,0,70.52,10.14,437.45,437.45,0,0,0,70.57-1l17.51-2c5.79-1,11.6-1.82,17.41-2.72,5.77-1.11,11.52-2.29,17.32-3.33,5.71-1.37,11.45-2.67,17.21-4,5.68-1.54,11.36-3.08,17.1-4.53q8.45-2.64,17-5.12c5.58-1.95,11.23-3.81,16.91-5.65,5.57-2.11,11.19-4.14,16.92-6.06l1.3,9.33h0a164.55,164.55,0,0,1-44.81-16.66,236.52,236.52,0,0,1-39.06-26.94,410.53,410.53,0,0,1-34.1-32.45c-10.76-11.35-21-23.08-31.18-34.83a5,5,0,0,1,1.41-7.67,86.81,86.81,0,0,0,28.61-24.84l4.69,7.93h0c-8.48.13-16.9.75-25.3,1.45s-16.78,1.65-25.14,2.71-16.7,2.28-25,3.78-16.57,3.22-24.75,5.58a4.81,4.81,0,0,1-4.51-8.24l.55-.48h0l44.76-39.11,5.35,8.32c-16.21,7.33-32.54,14.69-49.42,21-8.44,3.14-17,6-25.77,8.41a195.6,195.6,0,0,1-26.8,5.51,5,5,0,0,1-4.49-8l.55-.67h0c7.19-8.51,14.54-16.67,21.74-24.94s14.34-16.52,21.34-24.9,13.9-16.85,20.73-25.41,13.6-17.23,20.71-25.8h0l6.2,7.2a508.1,508.1,0,0,0-63.29,28.88,554.35,554.35,0,0,0-59.12,36.88q-7,5.13-14,10.35l-13.7,10.78-13.33,11.23c-4.33,3.88-8.68,7.73-13,11.64a489.85,489.85,0,0,0-47.66,50.69,5,5,0,0,1-7.77-6.31Z"/><path class="cls-14" d="M126,2336.67a793.53,793.53,0,0,1,368-113c-49.35,10.5-122.93,33.78-193.84,89.68a451.25,451.25,0,0,0-57.68,54.35"/><path class="cls-15" d="M710.29,2088.91,605.64,1968.1c-23.69,2.81-103.32,12.36-180.7-38.74-52.76-34.83-92.85-86.75-120-143.83-5,18.3-13.75,60.47,2.23,108.9a184.58,184.58,0,0,0,32.29,58.71c-55.76-19.26-117.65-34.83-171.8-11.44C107.82,1967.54,73.1,2030.62,53,2092.59l-4.7,12c11.38-18.8,30.37-32.34,51.17-39.44s43.33-8.1,65.16-5.52c1.14.13,1.86,1.56.75,1.27s-2.15.58-3,1.4a259.71,259.71,0,0,0-41.94,55.45c13.09-10.92,31.31-15.32,48.3-16.71-36.58,31.18-57.46,72.18-71.1,118.27S81.37,2314.26,85,2362.19c19.83-18,45.71-27.3,70-38.64-3.27,15.14-3.46,33.81-1.92,49.21a256.65,256.65,0,0,1,110.88-28.53c-26.47,27.05-53.19,61.53-63.08,98.06,7.79-11.75,14.33-13.14,27.26-18.76a287.9,287.9,0,0,1,114.47-23.76c47.81,0,94.72,11.95,142.15,17.94s98,5.49,140-17.35c50.44-27.43,80.26-83.38,90.16-139.94S717.53,2145.87,710.29,2088.91Zm-65.84,238.7c-8.2,16.08-21,30.54-37.75,37.15s-35.58,4.75-52.92.11c-12.11-3.24-39.08-7.57-43-20.11,25.63-10.83,52.91-17.77,78.48-29.39,12.09-5.49,68.7-26.24,71.73-39.17C656.85,2293.77,652.65,2311.54,644.45,2327.61Z"/><path class="cls-13" d="M705.72,2091,601.86,1971.37l4.37,1.69c-7.86,1-15.87,1.74-23.87,2.16s-16,.55-24.06.33a275.67,275.67,0,0,1-47.81-5.51,252.29,252.29,0,0,1-88.63-36.73c-26.78-17.72-50.43-39.89-70.64-64.66a400.31,400.31,0,0,1-50.82-81l9.34-.83h0a199.09,199.09,0,0,0-4.33,21.2,201.86,201.86,0,0,0-2,21.54,199.14,199.14,0,0,0,.49,21.58l.55,5.37c.1.89.17,1.79.29,2.68l.39,2.67.79,5.34,1,5.29.52,2.64c.19.88.42,1.75.63,2.62l1.3,5.23c.42,1.75,1,3.45,1.51,5.18s1,3.45,1.59,5.15a189.68,189.68,0,0,0,8.06,20A195,195,0,0,0,343.31,1950l.12.15a5,5,0,0,1-5.62,7.73h0c-15.08-5.16-30.24-9.92-45.59-13.77a290.26,290.26,0,0,0-46.46-8.18,176.41,176.41,0,0,0-46.51,1.74,136.69,136.69,0,0,0-22.32,6,138.86,138.86,0,0,0-21,9.73,158.8,158.8,0,0,0-36.39,28.74,220.14,220.14,0,0,0-28.33,37.33,317.25,317.25,0,0,0-21.36,42.14q-4.62,10.92-8.58,22.12l-2,5.64c-.66,1.91-1.24,3.86-2,5.75l-4.44,11.31h0L44,2102a88.85,88.85,0,0,1,17-21.69,94.21,94.21,0,0,1,10.69-8.75,102.79,102.79,0,0,1,11.74-7.27,92.45,92.45,0,0,1,25.82-9.54q6.72-1.43,13.5-2.23c4.51-.51,9-.81,13.55-.94A179.46,179.46,0,0,1,163.1,2053l1.67.2.41,0,.42.06a8.56,8.56,0,0,1,1,.23,8.11,8.11,0,0,1,3.3,1.91,7.15,7.15,0,0,1,.69.74c.12.15.22.27.35.45s.24.36.35.55a6.66,6.66,0,0,1,.37.72,5.78,5.78,0,0,1,.35,1c.06.21.11.43.15.65a5,5,0,0,1,.1.79,7.06,7.06,0,0,1-.25,2.33,6.49,6.49,0,0,1-1.64,2.78,7.15,7.15,0,0,1-1.3,1,6.19,6.19,0,0,1-1.08.51,6.08,6.08,0,0,1-1,.3,6,6,0,0,1-.78.12,7.36,7.36,0,0,1-1.15,0,2.48,2.48,0,0,1-.4,0l-.31-.05-.63-.13a4.62,4.62,0,0,0,.51.1,4.5,4.5,0,0,0,1.91-.15,3.21,3.21,0,0,0,.85-.38c.24-.17.12-.13-.12.1l-1.12,1.11-2.25,2.23c-3,3-5.86,6.08-8.69,9.21a258.34,258.34,0,0,0-30,40.86v0l-7.56-6.29A71.63,71.63,0,0,1,141.78,2101a121.31,121.31,0,0,1,26.55-5,5,5,0,0,1,5.4,4.57,5.07,5.07,0,0,1-1.75,4.22,190.1,190.1,0,0,0-24.16,24.73,208.83,208.83,0,0,0-19.52,28.63c-11.48,20.15-19.91,42.06-26.42,64.5a343.14,343.14,0,0,0-12.13,68.84,463.7,463.7,0,0,0,.22,70.22v0l-8.35-3.33a127.41,127.41,0,0,1,16.68-12.55,195.91,195.91,0,0,1,18-10c12.17-6.11,24.6-11.2,36.54-16.87l0,0a5,5,0,0,1,7,5.58h0a135.56,135.56,0,0,0-2.65,23.61,186.9,186.9,0,0,0,.83,24v0l-7.25-4a261.13,261.13,0,0,1,54.79-21.06,253.44,253.44,0,0,1,28.87-5.67,256.71,256.71,0,0,1,29.29-2.34h0a5,5,0,0,1,3.76,8.45l0,0a329.28,329.28,0,0,0-37,44.54A209.88,209.88,0,0,0,215.91,2417a147.17,147.17,0,0,0-10.23,26.52v0l-9-4.07a43.82,43.82,0,0,1,8.9-10.52,39.46,39.46,0,0,1,5.82-4c2-1.12,4-2.08,5.9-3l11.21-5c3.79-1.72,7.65-3.29,11.51-4.86,7.74-3.07,15.64-5.73,23.63-8.11s16.09-4.42,24.28-6.08,16.44-3,24.74-3.94,16.66-1.53,25-1.78a363.14,363.14,0,0,1,49.88,2.41c32.91,3.61,64.95,10.26,96.84,14.21,8,.94,15.91,1.84,23.86,2.34,4,.33,7.94.46,11.91.66,2,.08,4,.09,6,.13s4,.1,5.94,0l5.92,0c2,0,3.94-.15,5.91-.22,4-.09,7.85-.51,11.77-.77l5.84-.66,2.92-.33,2.89-.46,5.78-.91,5.72-1.15c1-.2,1.91-.36,2.85-.59l2.82-.71c1.87-.49,3.77-.9,5.63-1.45,3.68-1.15,7.42-2.17,11-3.58l2.71-1,1.36-.49,1.32-.56,5.29-2.28c.44-.2.89-.37,1.32-.58l1.28-.65,2.56-1.29c1.71-.88,3.46-1.67,5.1-2.65a140.35,140.35,0,0,0,19-12.82,155.09,155.09,0,0,0,16.83-15.81,181.51,181.51,0,0,0,26.65-38.19A225.94,225.94,0,0,0,702,2281.13a235.66,235.66,0,0,0,5.34-23.06c1.35-7.82,2.52-15.69,3.31-23.62a405.28,405.28,0,0,0,1.93-48c-.21-16.09-1.26-32.23-2.58-48.38-.64-8.08-1.43-16.16-2.22-24.26l-1.21-12.14-.28-2.82-.22-2.62C705.93,2094.51,705.82,2092.74,705.72,2091Zm9.13-4.08q.63,3.38,1.2,6.81l.55,3.45.48,3.25,1.78,12.13,1.66,12.16q.83,6.09,1.56,12.2c2,16.28,3.51,32.68,4.29,49.19a413.49,413.49,0,0,1-.7,49.76c-.6,8.32-1.67,16.61-2.95,24.88a248.31,248.31,0,0,1-5.23,24.68,234.31,234.31,0,0,1-18,47.27,194.86,194.86,0,0,1-28.76,42.12,166,166,0,0,1-18.66,17.77,158.62,158.62,0,0,1-21.4,14.59c-1.86,1.11-3.82,2-5.74,3l-2.89,1.46-1.45.73c-.49.23-1,.43-1.48.65l-5.94,2.57-1.48.64-1.52.56-3,1.11c-4,1.58-8.14,2.73-12.24,4-2.06.61-4.14,1.08-6.21,1.62l-3.11.78c-1,.26-2.09.44-3.13.66l-6.27,1.26-6.3,1-3.15.48-3.16.36-6.32.69c-4.21.29-8.43.72-12.63.81-2.11.08-4.21.19-6.32.23l-6.3,0c-2.1,0-4.19,0-6.28-.09s-4.2-.08-6.28-.18c-4.18-.23-8.36-.39-12.51-.76-8.32-.59-16.58-1.53-24.8-2.6-16.4-2.21-32.58-5-48.62-7.84-8-1.41-16-2.8-24-4.09s-15.95-2.5-23.92-3.57-15.92-1.88-23.87-2.43-15.91-.88-23.84-.84-15.88.38-23.8,1.07-15.8,1.77-23.64,3.12a287.09,287.09,0,0,0-46.23,12c-3.76,1.36-7.51,2.71-11.21,4.21l-11.32,4.51c-1.81.74-3.55,1.48-5.14,2.29a28.52,28.52,0,0,0-4.38,2.7,25.24,25.24,0,0,0-3.78,3.49,44.69,44.69,0,0,0-3.42,4.27l-.22.3A5,5,0,0,1,196,2441l0,0a157.73,157.73,0,0,1,10.91-28.33,219.84,219.84,0,0,1,15.26-26,339.16,339.16,0,0,1,38.14-45.91l3.73,8.49h0a276.35,276.35,0,0,0-28.18,2.49,255.22,255.22,0,0,0-27.71,5.51,260.87,260.87,0,0,0-52.82,20l-.06,0a5,5,0,0,1-6.68-2.2,5,5,0,0,1-.51-1.78v0a196.27,196.27,0,0,1-.87-25.31,144.7,144.7,0,0,1,2.87-25.41l7,5.58,0,0c-12.3,5.64-24.62,10.74-36.39,16.59a189.21,189.21,0,0,0-17,9.57,110.54,110.54,0,0,0-15.28,11.64h0a5,5,0,0,1-8.34-3.34v0a473.25,473.25,0,0,1-.22-71.74A352.34,352.34,0,0,1,92.28,2220c6.67-23,15.35-45.64,27.33-66.68a218.4,218.4,0,0,1,20.46-30,199.76,199.76,0,0,1,25.43-26l3.65,8.79a112.21,112.21,0,0,0-24.36,4.52,62.07,62.07,0,0,0-21.14,11,5,5,0,0,1-7.6-6.23l0-.06v0a260.73,260.73,0,0,1,29.59-43.84c2.85-3.38,5.75-6.72,8.76-10l2.27-2.43,1.14-1.21a12.8,12.8,0,0,1,2.36-2,9.28,9.28,0,0,1,2.31-1.07,8.33,8.33,0,0,1,3.52-.28l.9.18a3,3,0,0,0-.43-.09l-.21,0-.3,0a6,6,0,0,0-.95,0,6.32,6.32,0,0,0-.68.1,6.16,6.16,0,0,0-.93.27,7.09,7.09,0,0,0-1,.48,5.72,5.72,0,0,0-1.23,1,6.19,6.19,0,0,0-1.54,2.61,6.46,6.46,0,0,0-.22,1.14,5.46,5.46,0,0,0,0,1c0,.39.05.48.08.69a5.66,5.66,0,0,0,.13.56,5.92,5.92,0,0,0,.28.77c.09.2.21.43.27.54s.16.26.25.38l.22.29c.15.18.28.32.41.45a4.73,4.73,0,0,0,1.91,1.1,4,4,0,0,0,.64.14l.16,0h-.15l-.39,0-1.56-.15a168.65,168.65,0,0,0-24.91-.46c-4.12.26-8.22.66-12.28,1.26s-8.06,1.41-12,2.38-7.82,2.22-11.65,3.47a109.56,109.56,0,0,0-11.3,4.33c-14.71,6.62-28,16.89-37,30.35l-.14.2a5,5,0,0,1-8.8-4.61h0l4.3-11.08c.71-1.84,1.26-3.74,1.9-5.61l2-5.73q4-11.48,8.69-22.72a325.48,325.48,0,0,1,22-43.56A230.41,230.41,0,0,1,112,1975a169.51,169.51,0,0,1,38.74-30.67,144.94,144.94,0,0,1,22.57-10.47,148.11,148.11,0,0,1,24-6.44,187.17,187.17,0,0,1,49.26-1.79,300.74,300.74,0,0,1,48.09,8.55c15.72,4,31.12,9,46.33,14.26h0l-5.51,7.89A179.38,179.38,0,0,1,322,1938c-2.08-3.19-4-6.46-5.92-9.78s-3.61-6.72-5.25-10.16a180.54,180.54,0,0,1-14.42-43.34l-1.09-5.62-.83-5.66-.4-2.83c-.13-1-.2-1.9-.3-2.85l-.55-5.69a212.28,212.28,0,0,1-.34-22.84,199.91,199.91,0,0,1,7.22-45h0a5,5,0,0,1,9.3-.89l0,.06A390.54,390.54,0,0,0,359,1862.33c19.65,24.08,42.56,45.54,68.42,62.65a242,242,0,0,0,85.12,35.26,264.07,264.07,0,0,0,46.07,5.31c7.75.21,15.5.09,23.24-.31s15.44-1.16,23.23-2.11a5,5,0,0,1,4.35,1.66l0,0Z"/><path class="cls-13" d="M648.9,2329.89A109.2,109.2,0,0,1,637.39,2347a87,87,0,0,1-7,7.63,77.21,77.21,0,0,1-8,6.76c-1.38,1.08-2.88,2-4.35,3s-3,1.82-4.61,2.6-3.2,1.52-4.83,2.24-3.31,1.29-5,1.77a89.91,89.91,0,0,1-31.12,3c-3.47-.18-6.73-1.46-10.09-2-3.34-.65-6.64-1.42-9.93-2.21-3-.75-6.24-1.38-9.45-2.15a105.09,105.09,0,0,1-19.38-6.27,64.48,64.48,0,0,1-9.69-5.08,59.34,59.34,0,0,1-4.87-3.78,36.36,36.36,0,0,1-5.2-5.55h0a4.68,4.68,0,0,1,.88-6.11l3.21-2.74a5.94,5.94,0,0,1,2.43-1.09c.87-.23,1.72-.49,2.6-.69,1.74-.42,3.51-.77,5.26-1.14a78.74,78.74,0,0,0,10.27-2.6c6.68-2.13,13.3-4.31,19.83-6.64s13-4.75,19.43-7.16c3.19-1.27,6.45-2.33,9.6-3.67s6.27-2.68,9.37-4.09c3.29-1.54,6.47-3,9.71-4.24s6.47-2.49,9.69-3.75a122.05,122.05,0,0,0,18.57-9c5.95-3.4,11.67-7.21,17-11,2.65-1.92,5.22-3.86,7.39-5.75a26.81,26.81,0,0,0,2.67-2.63l.25-.28a1.38,1.38,0,0,0,.16-.23l.14-.2s.14-.15.11-.15,0-.06,0-.06a.78.78,0,0,0-.18.51l17.34,4.06c-1,4.4-2.19,8.81-3.59,13.2s-3,8.75-4.85,13.07-3.77,8.6-5.84,12.82S651.18,2325.75,648.9,2329.89Zm-8.9-4.55a79.61,79.61,0,0,0,4.49-12.18c1.16-4.2,2.06-8.49,2.82-12.82l2.26-13.05c.79-4.36,1.69-8.74,2.73-13.12l17.34,4.06a25.51,25.51,0,0,1-1,3c-.39.75-.81,1.48-1.25,2.2a9.2,9.2,0,0,1-.65.9l-.65.83c-.22.26-.45.57-.67.79l-.64.66c-.42.43-.87.91-1.28,1.28l-1.28,1.09c-.86.74-1.67,1.3-2.52,1.94a65.17,65.17,0,0,1-10,5.67c-6.69,3.12-13.45,5.46-20.1,7.88s-13.29,4.67-19.62,7.64c-3.19,1.41-6.41,2.75-9.57,4.2s-6.44,2.55-9.49,3.85l-4.86,2.13c-1.63.7-3.28,1.33-4.92,2s-3.27,1.32-4.9,2-3.27,1.29-4.92,1.9c-6.58,2.45-13.23,4.6-19.84,6.78s-13.14,4.46-19.54,7c-1.6.63-3.18,1.33-4.72,2.1s-3,1.65-4.54,2.54-3,1.82-4.44,2.67c-.73.46-1.48.86-2.21,1.29a5.23,5.23,0,0,1-2.38.89l4.08-8.84h0a2.56,2.56,0,0,0-.37,2.93,7.35,7.35,0,0,0,2.4,2.77,27.48,27.48,0,0,0,7.6,4.12,87.53,87.53,0,0,0,8.89,2.7l9.27,2.36c3.15.77,6.3,1.57,9.63,2.49,3,.87,6.11,1.61,9.19,2.21s6.27.48,9.32.94c3.07.31,6.14.71,9.21.78a59.77,59.77,0,0,0,18-2.26c1.46-.37,2.85-.92,4.27-1.41s2.78-1.1,4.11-1.8,2.67-1.39,4-2.11,2.58-1.57,3.8-2.48C626.94,2346.84,634.71,2336.58,640,2325.34Z"/><path class="cls-13" d="M701.09,2036.47c1,24.62-2.84,49.43-10.22,73a250.07,250.07,0,0,1-82.68,120.07c-19.2,15.2-40.74,27.42-63.63,35.19A287.44,287.44,0,0,0,691.1,2036.27h0a5,5,0,0,1,10,.21Z"/><path class="cls-13" d="M731.38,2013.65l-5.4,5.53-2.73,2.75c-.93.9-1.89,1.75-2.84,2.63-1.9,1.75-3.83,3.47-5.76,5.2s-4,3.27-6,4.91l-3,2.45c-1,.82-2.06,1.55-3.09,2.33l-6.26,4.59c-2.11,1.5-4.29,2.88-6.44,4.33s-4.3,2.89-6.53,4.18l-6.65,4c-2.21,1.35-4.51,2.52-6.77,3.77-4.51,2.54-9.15,4.79-13.77,7.09-2.3,1.19-4.67,2.18-7,3.26s-4.69,2.16-7.06,3.15c-4.76,2-9.49,4-14.32,5.78a502.82,502.82,0,0,1-58.65,18.2q-29.67,7.35-59.78,12.5c-20.08,3.31-40.28,5.95-60.55,7.74s-40.62,2.64-60.94,2.58-40.64-.91-60.83-2.92a544.53,544.53,0,0,1-60.08-9.07.58.58,0,0,1-.45-.69.6.6,0,0,1,.56-.46c20.24-.3,40.32-.51,60.34-1.15s40-1.65,59.85-3.09,39.71-3.2,59.46-5.63,39.44-5.13,59-8.5,39.06-7.42,58.42-11.85c9.68-2.19,19.23-4.73,28.79-7.27l7.12-2,3.55-1,3.53-1.1,7.07-2.16,7-2.32a377.83,377.83,0,0,0,54.26-22.65,276.77,276.77,0,0,0,49-32.29l.15-.12a5,5,0,0,1,6.74,7.36Z"/><path class="cls-13" d="M562.82,2175.41a189.58,189.58,0,0,0,65.92-41.11,186.85,186.85,0,0,0,43.55-63.06,5,5,0,0,1,9.24,3.84l-.12.28v0A194.36,194.36,0,0,1,632.07,2138,191.85,191.85,0,0,1,562.82,2175.41Z"/><path class="cls-13" d="M1023.33,2037.17a99.66,99.66,0,0,1-14.67-.28,116,116,0,0,1-14.32-2.44,142.36,142.36,0,0,1-13.75-4.12c-4.49-1.61-8.87-3.42-13.19-5.35-17.26-7.81-32.93-17.94-49-27-4-2.26-8.07-4.46-12.16-6.56s-8.25-4-12.46-5.86-8.51-3.42-12.86-4.83a124.23,124.23,0,0,0-13.32-3.37,107.74,107.74,0,0,0-13.65-1.64,90.5,90.5,0,0,0-13.77.4,77.21,77.21,0,0,0-13.5,2.85,69.72,69.72,0,0,0-12.65,5.63,69.58,69.58,0,0,1,12.45-6.22,78.4,78.4,0,0,1,13.53-3.5,93.61,93.61,0,0,1,14-1,111.51,111.51,0,0,1,14,1.05,127.07,127.07,0,0,1,13.78,2.84c4.54,1.24,9,2.72,13.39,4.34s8.7,3.49,13,5.41,8.45,4,12.62,6.09c16.63,8.41,32.67,17.75,49.59,24.49,4.23,1.67,8.49,3.21,12.8,4.54s8.67,2.42,13,3.28a109.77,109.77,0,0,0,13.19,1.65,90.92,90.92,0,0,0,13.11-.34h.08a5,5,0,1,1,1,10Z"/><path class="cls-12" d="M660.89,1932.74c17.89-67.88,7.78-142.7-27.5-203.4-9.47-16.3-21-31.9-36.54-42.54s-35.76-15.71-53.69-9.87-31.2,21.67-40.33,38.34a163.27,163.27,0,0,0-16.59,109.89c3.43,16.83,11.38,35,27.55,40.82-42.68,24.5-70.63,71.28-77.29,120-1.52,11.16-1.48,23.69,5.88,32.21,5.5,6.37,14,9.19,22.29,10.81,46.38,9.11,93.34-10.67,140.58-12.14C644,2015.7,651,1970.19,660.89,1932.74Z"/><path class="cls-12" d="M718.27,2010.62a255,255,0,0,1,222,206.37c1.65,8.78,1.56,20.19-6.56,23.9-4.68,2.14-10.16.62-14.93-1.28a104.6,104.6,0,0,1-34.16-22.08c-7.78,44.93-39.12,85-80.93,103.24s-92.65,13.92-130.83-11c-12.24-8-23.52-18.38-29.15-31.87-12.15-29.09,4.75-61.14,16.5-90.39a284.32,284.32,0,0,0,14.43-162.86"/><path class="cls-16" d="M437.35,2013.43a15.37,15.37,0,0,1-5.9-5.91,20,20,0,0,1-2.46-8.16,24.27,24.27,0,0,1,4.54-16.46,40.62,40.62,0,0,1,13-11.37,96.82,96.82,0,0,1,15.53-7,179.3,179.3,0,0,1,32.78-8.76,202.57,202.57,0,0,1,33.91-2.6,244.1,244.1,0,0,1,33.93,2.67l8.39,1.41,8.34,1.74c5.53,1.26,11.05,2.61,16.47,4.27,1.37.4,2.73.78,4.09,1.2l4,1.32c2.7.88,5.38,1.75,8.09,2.78a63.38,63.38,0,0,1,16.17,8.39,39.35,39.35,0,0,1,3.68,3.18,32.62,32.62,0,0,1,3.34,3.79,30.16,30.16,0,0,1,4.49,9.16,25.85,25.85,0,0,1,.85,10.4,20.6,20.6,0,0,1-4.26,10.13,5,5,0,0,1-8.07-5.88l.15-.22a11,11,0,0,0,1.79-5.22,16.24,16.24,0,0,0-.79-6.1,19.17,19.17,0,0,0-3-5.66,21.56,21.56,0,0,0-2.23-2.43,27.84,27.84,0,0,0-2.66-2.24,56.16,56.16,0,0,0-13.43-6.79c-2.49-1-5.11-1.79-7.69-2.69L596.6,1975c-1.29-.43-2.6-.81-3.9-1.21a257.55,257.55,0,0,0-64.18-11.92,186.51,186.51,0,0,0-64.79,7.48,92.24,92.24,0,0,0-15.28,5.7,38.58,38.58,0,0,0-12.7,9.52,22,22,0,0,0-4,6.81,22.44,22.44,0,0,0-1.32,7.89,19.91,19.91,0,0,0,1.68,7.88A14.9,14.9,0,0,0,437.35,2013.43Z"/><path class="cls-16" d="M642.86,1971.21a26.53,26.53,0,0,1-9.18-2.45,38.49,38.49,0,0,1-7.66-4.84,96.69,96.69,0,0,1-11.59-11.58,209.09,209.09,0,0,1-19.17-24.94,135.13,135.13,0,0,1-14.41-29.07,105,105,0,0,1-4.21-16.11,70.61,70.61,0,0,1-1-17.42,55,55,0,0,1,1.43-9.06c.17-.75.38-1.5.61-2.25s.47-1.49.74-2.23a34,34,0,0,1,2-4.66,25.37,25.37,0,0,1,3.31-4.91,19,19,0,0,1,5.47-4.38c.55-.3,1.12-.52,1.68-.76a11.49,11.49,0,0,1,1.74-.59c.6-.16,1.2-.31,1.81-.43s1.21-.15,1.82-.2a19,19,0,0,1,6.66.77,23.51,23.51,0,0,1,5.24,2.27,28.16,28.16,0,0,1,4.15,2.88,40.85,40.85,0,0,1,3.46,3.19c.52.56,1,1.11,1.54,1.68l.73.85.63.79,2.51,3.16,2.36,3.28c.8,1.07,1.5,2.22,2.25,3.32s1.48,2.24,2.16,3.39a116.8,116.8,0,0,1,7.4,14.15,113,113,0,0,1,5.42,14.86,105.93,105.93,0,0,1,4.33,30.78c-6.15-19.58-15.5-37.31-27.89-52.18a127.41,127.41,0,0,0-9.75-10.6l-.63-.63-.58-.53c-.37-.36-.77-.67-1.16-1a25.49,25.49,0,0,0-2.36-1.71,11.15,11.15,0,0,0-4.05-1.78,1.55,1.55,0,0,0-.88.06c-.11,0-.1.2-.18.22a2.81,2.81,0,0,1-.33.49,9.63,9.63,0,0,0-.76,1.5,30.79,30.79,0,0,0-1.46,5.26,36.75,36.75,0,0,0-.61,6,60.2,60.2,0,0,0,1.27,12.88c.43,2.19,1.06,4.42,1.6,6.66s1.27,4.43,2.07,6.61a156.41,156.41,0,0,0,11.84,25.77c4.76,8.4,10.12,16.66,15.69,25a123,123,0,0,0,8.26,11.48c2.86,3.29,5.84,5.86,9.44,7.22l.34.13a5,5,0,0,1-2.1,9.71Z"/><path class="cls-16" d="M685.17,2040.87a8.27,8.27,0,0,1,4.86-1.73,10.93,10.93,0,0,1,4.33.81,19.32,19.32,0,0,1,5.81,3.77l.59.55.49.48,1,1,2,1.93,3.77,4a174.15,174.15,0,0,1,13.62,17.19c4.12,6,8,12.2,11.52,18.53s6.82,12.76,9.9,19.27,6,13.08,8.72,19.74,5.3,13.39,7.69,20.19a345.58,345.58,0,0,1,12,41.57,274.38,274.38,0,0,1,6,42.9,220.09,220.09,0,0,1-1.77,43.24,119,119,0,0,1-4.85,21.25,62.77,62.77,0,0,1-10.36,19.32,43.37,43.37,0,0,1-17.48,13,31.68,31.68,0,0,1-21.18,1.28,28.44,28.44,0,0,0,10.52.26,35.7,35.7,0,0,0,9.93-3.19,42,42,0,0,0,15.52-13.35,59.66,59.66,0,0,0,8.49-18.7,113.62,113.62,0,0,0,3.43-20.52,223.19,223.19,0,0,0-.39-41.92,276.42,276.42,0,0,0-7.43-41.26,364,364,0,0,0-12.85-40c-5-13.09-10.8-25.9-16.81-38.59-3-6.33-6.12-12.61-9.46-18.73s-6.74-12.17-10.5-18a204.36,204.36,0,0,0-11.89-17l-3.26-4-3.28-3.85a12.55,12.55,0,0,0-2.82-2.38,4.8,4.8,0,0,0-.83-.38c-.11,0,0-.13-.13-.14h-2.47a3.68,3.68,0,0,1-2.28-6.53Z"/><path class="cls-16" d="M710.82,2026.85a106.14,106.14,0,0,1,31.08,1.7,112.89,112.89,0,0,1,15.15,4.16,103.87,103.87,0,0,1,14.52,6.45,91.26,91.26,0,0,1,13.35,8.79c1,.85,2.13,1.63,3.12,2.55l3,2.71c1.91,1.91,3.84,3.79,5.57,5.89l1.33,1.55,1.24,1.62c.8,1.11,1.68,2.14,2.4,3.31s1.51,2.28,2.24,3.44l2,3.6a67.18,67.18,0,0,1,5.72,15.5,39.74,39.74,0,0,1,.93,8.78,31.41,31.41,0,0,1-1.36,9.11,21.1,21.1,0,0,1-5.23,8.72,17.82,17.82,0,0,1-9.4,4.85,21.22,21.22,0,0,1-5,.25,28.68,28.68,0,0,1-4.57-.75A38.27,38.27,0,0,1,779,2116c-1.23-.61-2.35-1.28-3.47-1.94s-2.26-1.29-3.33-2-2.19-1.41-3.24-2.17l-3.13-2.31c-16.37-12.68-28.24-30.64-32.81-50.05a97.6,97.6,0,0,0,37.49,43.32l3,1.81c1,.59,2.09,1.11,3.12,1.67s2.11,1,3.17,1.55,2.13,1,3.16,1.41a31.29,31.29,0,0,0,6.09,1.8,17.23,17.23,0,0,0,2.79.22,9.78,9.78,0,0,0,2.39-.33c2.84-.84,4.54-2.85,5.39-6.27a23.87,23.87,0,0,0-.56-11.5,57.17,57.17,0,0,0-5.17-12.06,61.63,61.63,0,0,0-7.91-10.7c-1.47-1.68-3.11-3.23-4.73-4.8l-2.56-2.22c-.84-.76-1.78-1.42-2.65-2.13l-1.34-1.06-1.4-1c-.94-.64-1.83-1.35-2.82-1.94l-2.88-1.86-3-1.72a111,111,0,0,0-12.46-5.93,127.63,127.63,0,0,0-13.29-4.4c-2.26-.63-4.54-1.15-6.83-1.68s-4.61-.94-6.94-1.28c-4.65-.79-9.35-1.23-14.1-1.57H711a5,5,0,0,1-.13-10Z"/><path class="cls-17" d="M688.38,1945.79c-4.64-4.89-10.16-9.38-16.77-10.67-14.7-2.88-27.31,10.61-34.61,23.68a158.78,158.78,0,0,0-18.62,55.41c-.59,4.19-1,8.56.33,12.57,3.08,9.35,14,13.38,23.77,14.74,31.37,4.37,62.79-6,92.33-17.42,4.71-1.83,9.7-3.91,12.54-8.1,4.75-7,1.33-16.84-4.2-23.28-10.93-12.73-27.61-16-43.49-14C701.56,1966.31,697,1954.87,688.38,1945.79Z"/><path class="cls-18" d="M660.84,2002.07a69.33,69.33,0,0,1,44.66-23.66"/></g><g id="lantern_glow" data-name="lantern glow"><path class="cls-19" d="M2708.64,1526.79c-28.35,25.38-70.76,17.68-107.95,13.69-46.5-5-98.68.51-130.8,35.88-7.17,7.89-13.32,18-12.56,28.82,1.06,15,14.9,25.7,28.66,30.38s28.7,5.63,41.71,12.23c9.1,4.61,17.54,13.31,17.32,23.84-.36,17.93-22.4,24.54-39.48,26.82-67.66,9-134.59,30.56-191.39,69.89-25.11,17.38-48.73,39-61.46,67.47-4,8.94-6.85,19.37-3.39,28.56,3.77,10,14,15.72,23.88,18.85,32.9,10.41,68.66,1.62,100.44-12.07s61.69-32.27,94.63-42.57c11.1-3.47,24.55-5.45,33.05,2.76,6.31,6.09,7.68,16,6.76,24.93-3,29.39-25.44,52.31-35.53,79.94-3.18,8.7-5,19-.28,26.92,8,13.58,28.13,10.42,41.28,2.23s25.93-20.13,41.23-19.11c5.07.34,10.2,2.3,13.63,6.21,11,12.55-1.51,31.6-12,44.57a205.05,205.05,0,0,0-41.39,88.5c-2.7,13.5-3.21,29.73,6.84,38.7,9,8,22.58,6.56,33.75,2.53,65.19-23.52,90.51-109.55,151.45-143.22,12.34-6.82,31.59-8.78,36.63,4.78,2,5.37.78,11.49,2.24,17,2.79,10.64,15,16.16,25.47,14.52s19.4-8.6,27.39-15.83c19.18-17.35,36.75-39.83,38-66.25.74-15.56-4.06-32.47,3.38-46,8.13-14.79,30.82-17.48,41.93-5,3.85,4.33,6.27,9.87,10.13,14.19,11.51,12.92,33.65,10.4,45.12-2.55s13.29-32.89,8.33-49.74-15.68-31.15-27-44.23c-13.23-15.25-28.67-32.23-27.17-52.73,1.78-24.3,33.46-24,41.82-50.48,10.08-31.92-19.23-83.25-54.79-93.75-22.11-6.54-44.47,3.35-51.37-8.8-3.46-6.1-.29-13,1.24-19.88,8.14-36.75-26.19-91.86-57.05-95C2749.45,1481.67,2740.11,1498.61,2708.64,1526.79Z"/><path class="cls-20" d="M2685.64,1623.68c-20.18,2.8-38.56-10.81-56.62-20.61-12.29-6.67-25.62-11.84-39.47-12.42s-28.31,3.89-38,14.22c-2.35,2.5-4.45,5.46-5,8.91s.61,7.23,2.22,10.45c8.87,17.78,31.36,30.34,28.65,50.17-1.41,10.31-10,18.27-19.37,21.84s-19.62,3.63-29.62,4c-21.63.75-43.49,3.14-63.76,11.06s-39,21.84-49.6,41.47c-3.14,5.78-5.58,12.72-3.39,19,3.93,11.17,18.87,12,29.88,8.89,28.64-8.16,53.94-29.54,83.63-30.32,4.36-.12,9.18.43,12.2,3.73,6.52,7.14-1,18.66-8.81,24.18s-17.74,12.52-16,22.22c1.15,6.56,7.53,10.74,13.74,12.31s12.79,1.38,18.89,3.37c16.74,5.47,24.92,29.3,15.29,44.57-2.49,4-5.89,7.29-8,11.46s-2.74,9.8.31,13.31c1.81,2.1,4.55,3,7.21,3.55,9.48,1.86,19.2-.4,28.82-1.1s20.3.63,26.94,7.92c11.35,12.44,4.28,32.78-3.79,47.75s-16.52,34.15-6.83,48c6.27,9,18.44,11.75,28.87,9.42s19.51-8.82,28.09-15.44c17.64-13.62,35.86-31.26,36.71-54.12.66-17.92-9.75-36-4.35-53s27.93-24.84,42-14.73c9.07,6.5,13.64,18,15.31,29.39s.94,22.89,1.9,34.31c.82,9.62,3.55,20.22,11.53,25.13,9.79,6,22.47.52,31.31-6.93,18.77-15.84,30.15-40.77,30.1-65.93,0-14.85-3.8-29.6-2.81-44.42s8.68-30.88,22.55-34.34c6.47-1.62,13.92-.46,19.21-4.66s6.22-12.33,5.45-19.31a62.23,62.23,0,0,0-19.17-38.39c-9.88-9.17-22.63-14.72-31.77-24.7s-13.13-27.71-3.21-36.85"/><path class="cls-21" d="M2310,1844c-7.44-.4-15.65-1.87-20.28-7.94-6.9-9.07-1.64-23,6.76-30.6,18.26-16.46,45.74-14.48,69.12-8.18,19.81,5.34,38.65,11.1,59.05,13.32-5.67,12.66-40.81,20.63-53.32,24.54C2351.43,1841.31,2330.75,1845.09,2310,1844Z"/><path class="cls-22" d="M2394.8,1895.7c-3.25,1.33-6.58,3-8.64,5.92-3.2,4.54-2.43,11.2.7,15.79s8.16,7.41,13.28,9.22c15.59,5.52,34,2.5,46.44-8.74,9-8.09,24.56-36.68,5-40.54-7.76-1.53-17.49,5.79-24.53,8.27C2416.41,1889.36,2405.29,1891.42,2394.8,1895.7Z"/><path class="cls-22" d="M2873.05,2006.67c7.2,5.43,18.17,1.85,23.37-5.65s5.7-17.54,4.28-26.68c7.14,9.17,19.27.81,18.73-9.1-.6-10.83-14.3-20.63-23.87-17.72C2879.75,1952.31,2855.35,1993.34,2873.05,2006.67Z"/><path class="cls-22" d="M2726.25,2123.53c-17.45,25.65-36.95,51-44.39,81.56-2.35,9.64-2.93,21.25,4,28.41,5.46,5.63,14.23,6.61,21.42,4.19s13.1-7.68,18.38-13.22c19.89-20.85,33.18-47.92,39.13-76.67,3.51-17,11.51-74.12-7.3-84.74C2745.64,2081.3,2739.09,2104.64,2726.25,2123.53Z"/></g><g id="lantern"><path class="cls-12" d="M2784.7,1832c.6-.83,1.88-.1,2.59.65,6.6,6.84,16.63,13.17,23.23,20a1648.83,1648.83,0,0,0-164.38,65.9,1162.71,1162.71,0,0,1-108.21-147.47l31.75-12.14c1-.39,2.6-.46,2.76.65,56.85,14.43,113.88,33.16,169.23,53C2756.91,1818,2771.29,1822.69,2784.7,1832Z"/><path class="cls-23" d="M2828,1705.86q-21.43,65.69-42.86,131.38l-130.43,34.41q-44.92-52.55-84.87-109.27h.18l36.06-121.65"/><path class="cls-12" d="M2847.11,1706.75c-26.29-18.65-49.44-44.51-66.49-72.22,3.05-6.91,5.59-15.71,8.64-22.63-14.18-9.85-27-24.93-36.6-39.49a273.5,273.5,0,0,1-57.2,6.38,64.07,64.07,0,0,1-11.94,30c-30.56,6.57-62.71,10.74-93.87,13.54C2620.13,1656,2654,1689,2687,1720,2740,1715.88,2794.19,1710.83,2847.11,1706.75Z"/><path class="cls-12" d="M2736.33,1578.54c-1.66-5.34,1.31-11,5.1-15.06,3.59-3.84,8.66-7.1,13.92-6.14,4.57.83,8.09,4.73,9.79,9a21,21,0,0,1-6.66,23.92"/><path class="cls-24" d="M2639.83,1815.92a25.29,25.29,0,0,1-17.6-17.45,26.57,26.57,0,0,1,5.74-24.59c3.73-4.08,8.67-6.75,12.65-10.56a32.37,32.37,0,0,0,9.67-24c7,11.69,9.78,25.23,5.48,38.26,5.8-5.5,12.67-11.82,17.23-18.47s7.79-14.57,7.66-22.74c8.32,20.62,8,46.79-3.47,65.7,9.91-5,21.62-9.86,27-19.87a45,45,0,0,1-11.85,32.86A41.28,41.28,0,0,1,2661,1828c-7.09-.29-14.86-5.3-20-10.38C2640.09,1816.76,2638.74,1816.57,2639.83,1815.92Z"/><path class="cls-13" d="M2634.89,1816.66a3.14,3.14,0,0,0,.38,2,2.7,2.7,0,0,0,1.38,1.21l.15,0s-.05,0-.07,0l-.2-.11-.4-.21-.79-.42c-1-.61-2-1.23-3-1.92a30.6,30.6,0,0,1-5-4.63,30,30,0,0,1-6.35-11.44,29.41,29.41,0,0,1,3.62-24,25.91,25.91,0,0,1,3.91-4.69,58.09,58.09,0,0,1,4.66-3.83c3.18-2.37,6.49-4.62,8.83-7.75a23.57,23.57,0,0,0,4.58-10.46,18.58,18.58,0,0,0-1.25-10.89v-.39a5,5,0,0,1,9.27-2.35,57.43,57.43,0,0,1,7.62,20.35,46.57,46.57,0,0,1-1.68,22.06l-8.19-5.2c3-2.86,6-5.64,8.78-8.5a71.89,71.89,0,0,0,7.52-8.83c4.3-6.13,7.15-13.26,7-20.17h0a5,5,0,0,1,9.64-1.94,86.52,86.52,0,0,1,6,35.36,79.87,79.87,0,0,1-2.72,17.92,66.44,66.44,0,0,1-7.17,16.88l-6.53-7c5.19-2.62,10.23-4.94,14.64-7.74s8.11-6.06,10.23-10a5,5,0,0,1,9.39,2.09,50.4,50.4,0,0,1-5.65,25.89,47.58,47.58,0,0,1-7.8,10.93,46.06,46.06,0,0,1-10.65,8.26c-1,.58-2,1-3,1.57s-2,.94-3.1,1.32a45.53,45.53,0,0,1-6.46,2,48.57,48.57,0,0,1-6.7,1c-1.14,0-2.27.15-3.41.11l-1.71,0c-.65,0-1.31-.08-1.94-.17a33.68,33.68,0,0,1-13.14-5.16,50.54,50.54,0,0,1-5.41-4q-1.28-1.08-2.49-2.25l-.15-.15s-.13-.13-.08-.07.09.07.1.09l-.24-.16-.22-.14-.35-.24-.24-.18-.36-.3c-.07-.07-.33-.33-.5-.53l-.27-.33a7.08,7.08,0,0,1-.38-.62,5.28,5.28,0,0,1-.56-1.68,5.07,5.07,0,0,1,0-1.1,4.83,4.83,0,0,1,.14-1,5.09,5.09,0,0,1,.64-1.5,6.31,6.31,0,0,1,.66-.88q.21-.21.42-.39l.22-.19.11-.09c-.12.1-.25.2-.37.32a4.69,4.69,0,0,0-1.37,4.29Zm9.89-1.48a5.57,5.57,0,0,1-.28,2.37,5.33,5.33,0,0,1-1.41,2.12c-.14.13-.28.25-.41.35l.07-.06.15-.12.28-.27a5,5,0,0,0,.55-.73,4.91,4.91,0,0,0,.56-1.33,5.5,5.5,0,0,0,.13-.87,4.31,4.31,0,0,0-.05-1,4.73,4.73,0,0,0-.5-1.5,3.3,3.3,0,0,0-.33-.53l-.2-.27c-.13-.15-.35-.36-.38-.39l-.21-.18-.09-.07,0,0,.1.06c.21.13.58.37,1,.69a8.14,8.14,0,0,1,.68.58l.31.3c.64.61,1.3,1.21,2,1.79a39.55,39.55,0,0,0,4.3,3.16,23.89,23.89,0,0,0,9.12,3.69c.36.06.71.06,1.06.1l1.3,0c.88,0,1.75,0,2.63-.08a38.57,38.57,0,0,0,5.21-.79,37,37,0,0,0,18.21-10.31,37.62,37.62,0,0,0,6.15-8.65,40.42,40.42,0,0,0,4.54-20.7l9.39,2.09a31.85,31.85,0,0,1-6.14,8,48.25,48.25,0,0,1-7.53,5.8c-5.2,3.29-10.54,5.7-15.49,8.21a5,5,0,0,1-6.54-7v0c5.36-8.84,8-19.39,8.44-30a76.47,76.47,0,0,0-5.32-31.23l9.63-2a39.24,39.24,0,0,1-2.45,14,52.87,52.87,0,0,1-6.38,12.12,83.86,83.86,0,0,1-8.56,10.07c-3,3.07-6.07,6-9.06,8.78h0a5,5,0,0,1-8.19-5.19,36.51,36.51,0,0,0,1.31-17.35,47.75,47.75,0,0,0-6.32-16.78l9.28-2.72v0a63.54,63.54,0,0,1-5,12.5,46.12,46.12,0,0,1-7.28,10,77.68,77.68,0,0,1-9.22,7.71,27.74,27.74,0,0,0-7.92,8.46,24.75,24.75,0,0,0-3.17,10.92,22.5,22.5,0,0,0,2.15,10.84,21,21,0,0,0,6.88,8.11,18.92,18.92,0,0,0,4.55,2.35,14.87,14.87,0,0,0,2.39.65l.6.09.3,0,.14,0,.11,0,.34.1a7.72,7.72,0,0,1,2.8,1.63A8.8,8.8,0,0,1,2644.78,1815.18Z"/><path class="cls-25" d="M2739.19,1550.78a17.19,17.19,0,0,1,5.18-17.24,20.86,20.86,0,0,1,18-4.43,25.36,25.36,0,0,1,15.45,10.78,15.13,15.13,0,0,1,2.94,9.06,13.45,13.45,0,0,1-4.15,8.45C2767.31,1566.82,2743.34,1565,2739.19,1550.78Z"/><path class="cls-25" d="M2762.67,1544.14c-23.47-9-38.47-33.85-40.54-58.89s7-49.94,20.36-71.26a188.82,188.82,0,0,1,49.86-53.12c10.94-7.84,22.94-14.6,36.09-17.51s27.6-1.67,39,5.52"/><path class="cls-25" d="M2887.62,1423a135,135,0,0,1-48.06,98.61c-21.53,17.86-50.73,28.79-77.82,21.79"/><path class="cls-23" d="M2703.84,1712.87l-49.35,158.82"/><path class="cls-24" d="M2714.09,1750.72c-1.39,3.58-2.81,7.35-2.45,11.2s3.13,7.76,6.84,7.88a7.17,7.17,0,0,0,4.58-1.68c4.08-3.25,5-9.48,3.59-14.62-1.13-4.12-4.44-11.36-8.42-12.76C2716.43,1743.76,2715.38,1747.4,2714.09,1750.72Z"/><path class="cls-13" d="M2715.42,1751.23c-.8,1-1.66,2-2.35,3.06a9.22,9.22,0,0,0-1.2,3.51,11.72,11.72,0,0,0,.72,7.24,9,9,0,0,0,2.17,2.91,5.92,5.92,0,0,0,3.18,1.41,5.37,5.37,0,0,0,3.29-.78,7.93,7.93,0,0,0,2.53-2.29,11.09,11.09,0,0,0,1.93-6.42,14.19,14.19,0,0,0-1.51-6.47,24.93,24.93,0,0,0-3.76-5.7,10.39,10.39,0,0,0-2.28-2c-.74-.45-1.51-.61-1.57-.28h0l5.95-2.15a16,16,0,0,0-3.66,3.44c-.6.7-1.14,1.45-1.71,2.2Zm-2.65-1,.29-5.66a35.3,35.3,0,0,1,.88-6.36,3.05,3.05,0,0,1,3.18-2.34l2.77.19h0a11.64,11.64,0,0,1,4.38,4.07,21.88,21.88,0,0,1,2.08,4,41,41,0,0,1,2.28,7.86,20.81,20.81,0,0,1,0,8.21,14.37,14.37,0,0,1-3.6,7.15,9.9,9.9,0,0,1-3.27,2.28,7,7,0,0,1-3.92.49,6.43,6.43,0,0,1-3.37-1.86,9.22,9.22,0,0,1-2.08-3.13,12.62,12.62,0,0,1-.53-7.34,29.53,29.53,0,0,0,.7-3.68Z"/><path class="cls-22" d="M2719.42,1810c-1.69,4-2.57,9,0,12.5,2.1,2.82,5.87,3.66,9.29,3.49,7.14-.36,13.9-4.36,18.4-10.14a37.1,37.1,0,0,0,7.3-20.62,47.38,47.38,0,0,1-14.87,9.46c4.58-1.82,12.51-32.48,1-25-4.08,2.67-7.39,9.76-10.42,13.7C2726.12,1798.56,2722,1803.79,2719.42,1810Z"/><path class="cls-15" d="M2651.42,1791.81c-3.1-.16-6.67-.84-8.94,1.37l-.06-10.92a2.13,2.13,0,0,0-.3-1.3c-.73-.94-2.15.07-2.78,1.08a24,24,0,0,0-.06,24.19,13.71,13.71,0,0,0,4.23,4.68c4.07,2.6,9.57,1.58,13.49-1.27s12.65-13.11,11.12-18.47C2666.34,1784.91,2656.51,1792.08,2651.42,1791.81Z"/></g><g id="hat_lower" data-name="hat lower"><path class="cls-12" d="M1278.32,845.71a317.34,317.34,0,0,1-2.87-89.88c8.34-73.71,38.36-99.35,31.91-162.5-2.24-21.85-5.42-49.13-27.1-70.51-33.58-33.13-85.76-26.7-95.54-25.33-2.28,11.24-7.33,21.39-11.28,32.3-1.26,3.49-2.68,7.08-5.47,9.82-6,5.93-16.43,6-24.92,4.07s-16.69-5.53-25.55-5.31c37.12,44,53.67,96,47.23,151.74-.8,7-2.08,14.16-6.48,20.06-7,9.35-20.56,13.36-33,12.93s-24-4.54-35.62-8.21a532.37,532.37,0,0,0-76.59-18.12c-15.19-2.43-30.88-4.22-46.21-1.5-5.39,1-30.56,7.56-37.45,23.16C920.7,738.16,941,773.67,985,799c-9.62-3.41-24.35-8.52-42.92-14.59-5.67-1.85-6.85-1.81-7.81-2.54A329.53,329.53,0,0,1,864.81,711c-11.85-16.56-22.1-37.66-11.95-55.73,9.95-17.72,35.31-24,57.21-23.18,18.9.74,41.51,4,53.84-9.19,3.89-4.16,6-9.38,7.34-14.6a64.39,64.39,0,0,0-14.71-58.94c-13.74,3.21-28.33,0-42.09,3.16-3.76.87-7.9,1.7-11.3.19-6.19-2.76-5.57-10.77-3.64-16.82,8.11-25.49,23.63-48.83,40.91-70.65,35.7-45.08,79.66-85.1,129.52-117.91a1051.32,1051.32,0,0,0,111.88,15c176.67,14.06,248.09-25.4,354.64,5.12,39.82,11.4,95.54,35.73,154.69,94.31,10.15,3.12,25.51,7.81,44.23,13.44,74.32,22.32,95.1,27.25,105.85,31.16,33.42,12.13,73.75,52,99.47,178A1574.53,1574.53,0,0,1,1619,801.06,1579.47,1579.47,0,0,1,1278.32,845.71Z"/><path class="cls-4" d="M1247.31,903.68a2.49,2.49,0,0,1,0-.42c5.83-48.62.59-63.78,11.09-88.31,4.2-9.81,12.48-24.77,29.95-39.93a1314.3,1314.3,0,0,1,659.73-83.45c63.19,59.26,72.42,97.51,65.64,122.67C1972.29,967.87,1250.54,941.66,1247.31,903.68Z"/><path class="cls-26" d="M1868.81,802.43a757.58,757.58,0,0,1,259-8.15c80.29,11.38,160.79,36.89,223.23,88.64,26.34,21.83,50.76,54.85,40.89,87.61-6.57,21.76-26.56,36.48-46.36,47.63-102.45,57.71-225.57,61.18-343.13,63.21-137.87,2.38-278.1,32-415.68,22.68-15.79-1.08-32-3-45.83-10.76-20-11.14-32.19-33.14-36.11-55.68s-.51-45.7,4.54-68c3.06-13.51,6.89-27.26,15.2-38.35,9.53-12.72,24-20.69,38.11-27.93a1015.05,1015.05,0,0,1,248.14-88.64"/><path class="cls-16" d="M1868.81,802.43a739.18,739.18,0,0,1,246.79-13c20.6,2.37,41.12,5.6,61.44,9.92a528.67,528.67,0,0,1,60.13,16.52,411.74,411.74,0,0,1,57.51,24.48,346.09,346.09,0,0,1,52.79,33.77l6.18,4.85c2,1.66,4.07,3.39,6,5.16q5.94,5.29,11.38,11.15a139.55,139.55,0,0,1,10.21,12.36,108.84,108.84,0,0,1,8.62,13.69c5.07,9.56,8.7,20.3,9.16,31.59a57.34,57.34,0,0,1-1.74,16.79,60.9,60.9,0,0,1-6.48,15.55,71.78,71.78,0,0,1-10.07,13.19,105.7,105.7,0,0,1-12.13,10.82,189.88,189.88,0,0,1-26.9,16.87l-3.44,1.88-3.5,1.78c-2.33,1.18-4.66,2.39-7,3.54-4.74,2.22-9.44,4.53-14.25,6.57s-9.63,4.08-14.47,6c-2.43,1-4.89,1.85-7.33,2.78l-3.67,1.38-3.69,1.3c-9.84,3.53-19.84,6.54-29.87,9.4s-20.19,5.24-30.36,7.49c-20.38,4.36-40.94,7.71-61.58,10.19-41.27,5-82.74,6.84-124.08,7.88l-31,.67c-5.17.07-10.29.26-15.42.41l-15.4.46-15.39.79c-5.13.27-10.27.48-15.4.87-10.26.72-20.52,1.33-30.78,2.23-41,3.29-82.07,7.63-123.23,11.46s-82.46,7.08-124,8.14l-3.89.11-3.89,0-7.79.06c-5.19,0-10.38.14-15.57.09l-15.58-.3-7.79-.15c-2.6-.06-5.2-.24-7.79-.36l-15.58-.8c-5.18-.21-10.44-.67-15.73-1.24-10.55-1.23-21.44-3.35-31.67-8.1a67.17,67.17,0,0,1-14.32-9,75.11,75.11,0,0,1-11.68-12,90.39,90.39,0,0,1-14.84-29.38,101.77,101.77,0,0,1-3.45-16,131.26,131.26,0,0,1-1.11-16.17,183.82,183.82,0,0,1,2.78-31.82c.88-5.2,1.92-10.36,3-15.47s2.35-10.23,3.85-15.39a107.63,107.63,0,0,1,5.67-15.34,79.79,79.79,0,0,1,4-7.38,62.9,62.9,0,0,1,4.92-6.92,75,75,0,0,1,12-11.61,122.45,122.45,0,0,1,13.54-9c9.27-5.34,18.57-9.7,27.85-14.4a1016.25,1016.25,0,0,1,234.76-81.07,5,5,0,0,1,2.12,9.78h0a1023.35,1023.35,0,0,0-231.93,81.35c-9.12,4.65-18.5,9.13-27.1,14.13a110.65,110.65,0,0,0-12.23,8.16,63,63,0,0,0-10.18,9.85c-5.87,7.17-9.61,16.14-12.34,25.65-1.37,4.76-2.53,9.67-3.6,14.65s-2.06,9.94-2.89,14.91a171.82,171.82,0,0,0-2.61,29.79A102,102,0,0,0,1513,1047a78.87,78.87,0,0,0,12.9,25.58,58.75,58.75,0,0,0,21.67,17.56c8.54,4,18.19,5.93,28.08,7.07,5,.54,10,1,15.14,1.2l15.34.77c2.56.12,5.11.3,7.67.36l7.69.14,15.37.29c5.13,0,10.26-.06,15.39-.09l7.7-.07,3.84,0,3.85-.12c41.06-1.05,82.11-4.3,123.15-8.12s82.13-8.24,123.4-11.41c10.31-.88,20.65-1.47,31-2.17,5.17-.38,10.35-.58,15.52-.84l15.53-.76,15.55-.43c5.18-.14,10.39-.32,15.53-.38l30.92-.6c41.18-.94,82.3-2.71,123-7.52,20.37-2.36,40.6-5.57,60.61-9.76,10-2.18,19.94-4.52,29.78-7.23s19.62-5.65,29.22-9.06l3.62-1.25,3.58-1.33c2.38-.9,4.79-1.75,7.15-2.69,4.73-1.9,9.47-3.75,14.12-5.83s9.28-4.19,13.9-6.33c2.29-1.11,4.55-2.28,6.82-3.42l3.41-1.71,3.36-1.82a180.62,180.62,0,0,0,25.57-15.86c7.83-6,14.92-12.9,19.73-21a50.5,50.5,0,0,0,5.45-12.89,47.35,47.35,0,0,0,1.49-13.89c-.34-9.4-3.37-18.75-7.9-27.39a117.6,117.6,0,0,0-17.25-24.07c-3.37-3.69-6.93-7.22-10.64-10.6-1.86-1.69-3.75-3.33-5.7-4.93l-6-4.75a336.64,336.64,0,0,0-51.13-33.25,421.09,421.09,0,0,0-56.06-24.57,518.1,518.1,0,0,0-59-17c-20-4.58-40.23-8.15-60.61-10.85A781.82,781.82,0,0,0,1868.81,802.43Z"/><ellipse class="cls-27" cx="1667.67" cy="723.44" rx="113.69" ry="107.59"/><path class="cls-4" d="M985.29,993.38a186.86,186.86,0,0,0-95.22-93,150.34,150.34,0,0,0,93-95.22,205,205,0,0,0,95.22,93,204.39,204.39,0,0,0-93,95.22Z"/><path class="cls-16" d="M1198.05,495.2c16,1.25,31.74-.74,47-4.61,7.62-2,15.12-4.4,22.54-7s14.71-5.74,22-8.85c14.61-6.29,29.16-13.09,44.31-19.1,3.79-1.49,7.6-2.95,11.47-4.33,1.93-.68,3.87-1.35,5.83-2s3.92-1.26,5.89-1.86a119.78,119.78,0,0,1,12.32-3.18,60.59,60.59,0,0,1,13.51-1.26,39,39,0,0,1,14.35,3A33.22,33.22,0,0,1,1409.5,455a26.58,26.58,0,0,1,6.35,15,26,26,0,0,1-.86,8.42,27.42,27.42,0,0,1-3.3,7.37,42.4,42.4,0,0,1-9.86,10.58,77.85,77.85,0,0,1-11,7.06c-3.63,2.14-7.44,3.91-11.21,5.76l-5.78,2.5c-1,.43-1.93.81-2.92,1.17L1368,514a151.9,151.9,0,0,1-24.18,6.73,154.1,154.1,0,0,1-24.86,2.89,151.77,151.77,0,0,1-49.34-6.18,5,5,0,0,1,2.48-9.69l.07,0a158.29,158.29,0,0,0,90.9-6.88l2.67-1c.9-.34,1.79-.69,2.66-1.1l5.23-2.35c3.41-1.73,6.86-3.39,10.13-5.37,1.64-1,3.35-1.9,4.84-2.89s3-2,4.33-3.1a27.79,27.79,0,0,0,6.54-6.87,11.68,11.68,0,0,0,2-7.05,12.09,12.09,0,0,0-3-6.77,20,20,0,0,0-6.93-5.18,25.06,25.06,0,0,0-9.07-1.95c-6.66-.29-13.94,1.36-21.43,3.53-1.87.54-3.74,1.08-5.6,1.68s-3.73,1.18-5.6,1.81c-3.73,1.21-7.44,2.52-11.16,3.86-14.86,5.41-29.67,11.58-44.92,17.09-7.6,2.78-15.37,5.29-23.24,7.5a200.66,200.66,0,0,1-24,5.29c-16.16,2.51-32.94,2.65-48.71-1.27a.74.74,0,0,1,.24-1.45Z"/><path class="cls-16" d="M1176.5,532.32a79.58,79.58,0,0,1-6.41-12.26,117.22,117.22,0,0,1-4.61-12.9,155.44,155.44,0,0,1-5.26-26.78c-.24-2.29-.52-4.46-.68-6.89a35.06,35.06,0,0,1,.19-7.81,23,23,0,0,1,1-4.18,16.59,16.59,0,0,1,2.12-4.07,14.57,14.57,0,0,1,7.38-5.62,10.7,10.7,0,0,1,4.92-.46,12.9,12.9,0,0,1,3.46,1c.35.18.69.38,1,.57A15,15,0,0,1,1185,459c2.24,4.34,3.22,8.59,5.33,12.67-3.67-2.82-6.3-6.93-9.2-9.93-1.44-1.49-3-2.74-4.34-3.05a3.51,3.51,0,0,1-.49-.12,2.89,2.89,0,0,0-.5,0,3.52,3.52,0,0,0-1,0,4.1,4.1,0,0,0-1.65.6,7.25,7.25,0,0,0-2.59,3.08,8.26,8.26,0,0,0-.64,2,13.19,13.19,0,0,0-.25,2.41,33.38,33.38,0,0,0,.51,5.62l1.14,6.44c1.53,8.7,3.28,17.34,4.53,26.11.65,4.38,1.24,8.79,1.7,13.26a134.92,134.92,0,0,1,.86,13.63,1.05,1.05,0,0,1-1,1.06A1,1,0,0,1,1176.5,532.32Z"/><path class="cls-16" d="M1122.36,550c-9.14-7.45-18.48-15.14-26.62-24.15A107.59,107.59,0,0,1,1076,495.5a106.16,106.16,0,0,1-5.49-17.17,104.12,104.12,0,0,1-2.56-17.72c-.68-11.87.57-24,4.9-35-3.54,11.28-3.89,23.22-2.42,34.73a104.63,104.63,0,0,0,10.11,33,101.05,101.05,0,0,0,20.56,27.23c8.26,7.94,17.67,14.65,27.28,21.41a5,5,0,0,1-5.76,8.18Z"/><path class="cls-16" d="M929.79,551.66a121,121,0,0,1,35.72-6.2,104.44,104.44,0,0,1,18.33,1.26,96.29,96.29,0,0,1,17.86,4.7,79.19,79.19,0,0,1,30.52,20.52,67.77,67.77,0,0,1,10.5,15.18,56.47,56.47,0,0,1,5.53,17.49,1.51,1.51,0,0,1-1.29,1.71,1.53,1.53,0,0,1-1.69-1.13,62.91,62.91,0,0,0-17.21-29.26,75,75,0,0,0-13.41-10.55A77.86,77.86,0,0,0,999.3,558a89.9,89.9,0,0,0-16.6-4.1,121.34,121.34,0,0,0-17.17-1.39,196.66,196.66,0,0,0-34.74,3.13h0a2.08,2.08,0,0,1-1-4Z"/><path class="cls-16" d="M1059.28,526.93c2,.08,3.88.25,5.78.48s3.81.46,5.69.74,3.76.57,5.62.89,3.73.65,5.59,1c7.42,1.4,14.77,3.07,22.13,4.83s14.74,3.55,22.14,5.53q2.77.71,5.55,1.5t5.58,1.57q2.79.79,5.59,1.69t5.6,1.87h0a1.51,1.51,0,0,1-.25,2.91q-2.94.54-5.89.91c-2,.22-3.93.41-5.9.56-3.93.27-7.86.41-11.79.39a184.12,184.12,0,0,1-23.47-1.64,153.39,153.39,0,0,1-23-4.74q-5.65-1.63-11.15-3.82a80.22,80.22,0,0,1-10.72-5.12,5.15,5.15,0,0,1,2.82-9.58Z"/><path class="cls-16" d="M1274.31,510.57a39.66,39.66,0,0,1,13.15,5.65,53.15,53.15,0,0,1,10.48,9.23,79.9,79.9,0,0,1,8,10.83c2.33,3.74,4.48,7.52,6.41,11.35s3.75,7.62,5.56,11.33,3.62,7.45,5.47,11.13c3.75,7.34,7.52,14.63,11.72,21.62,8.35,14,17.94,27.18,29.85,38.06s25.81,19.63,41.46,24.08h0a2.53,2.53,0,0,1-1.11,4.92,89.51,89.51,0,0,1-24.63-7.91l-1.47-.7-1.44-.76c-1-.51-1.92-1-2.87-1.54-1.86-1.11-3.76-2.18-5.55-3.38a114.7,114.7,0,0,1-10.53-7.63c-3.38-2.71-6.56-5.66-9.69-8.66s-6-6.24-8.8-9.53a187.49,187.49,0,0,1-15.24-20.79q-6.91-10.82-12.76-22.12-2.94-5.62-5.74-11.29c-1.84-3.81-3.61-7.56-5.43-11.2-3.64-7.26-7.49-14.26-12.23-20.18s-10.42-10.54-17.2-12.86l-.12,0a5,5,0,0,1,2.71-9.62Z"/><path class="cls-16" d="M1713.49,467.66c-9.06-.7-18.11-1-27.17-1.12s-18.11,0-27.2-.05c-18.15-.08-36.52-.55-54.8-3.9a158.29,158.29,0,0,1-26.94-7.4c-2.21-.77-4.36-1.75-6.54-2.64s-4.27-2-6.41-3a108,108,0,0,1-12.22-7.37l-2.93-2.07-2.8-2.26c-1.9-1.47-3.62-3.16-5.4-4.78s-3.35-3.47-5-5.22a46.88,46.88,0,0,1-4.62-6.14,26.42,26.42,0,0,1-3.33-7.84,21.58,21.58,0,0,1-.55-4.58,17.54,17.54,0,0,1,.8-5,17,17,0,0,1,5.52-8,13.38,13.38,0,0,1,4.75-2.49,12.59,12.59,0,0,1,5.7-.29,5,5,0,0,1-.81,9.85h-.83a2.86,2.86,0,0,0-1,.21,3.66,3.66,0,0,0-1.17.78,7,7,0,0,0-1.9,3.14,6.48,6.48,0,0,0-.2,1.71,9.7,9.7,0,0,0,.31,2.15,16.41,16.41,0,0,0,2.07,4.58,37.37,37.37,0,0,0,3.56,4.71l2.17,2.32c.73.78,1.41,1.59,2.2,2.3,1.55,1.46,3,3,4.7,4.32l2.44,2.07,2.56,1.95a109.52,109.52,0,0,0,22.48,12.92,158.17,158.17,0,0,0,25.08,8.3c17.26,4.19,35.27,5.82,53.32,7.18,9,.68,18.1,1.29,27.15,2.17S1704.55,466,1713.49,467.66Z"/></g><g id="hat_stars" data-name="hat stars"><g class="cls-28"><path class="cls-7" d="M2174.64,849.51a33,33,0,0,0-16.84-16.44,26.56,26.56,0,0,0,16.44-16.84,36.27,36.27,0,0,0,16.84,16.44,36.09,36.09,0,0,0-16.44,16.84Z"/><path class="cls-7" d="M2130.44,890.81A34.56,34.56,0,1,1,2113.82,831a55.46,55.46,0,1,0,28.2,31.86A34.49,34.49,0,0,1,2130.44,890.81Z"/><path class="cls-7" d="M2287.67,1016.25a55,55,0,0,0-28.06-27.4,44.27,44.27,0,0,0,27.4-28.06,60.4,60.4,0,0,0,28.06,27.4,60.26,60.26,0,0,0-27.4,28.06Z"/><path class="cls-7" d="M1692,956.83a32.92,32.92,0,0,0-6.35-9.21,33.25,33.25,0,0,0-10.48-7.23,26.63,26.63,0,0,0,16.44-16.83A36.19,36.19,0,0,0,1708.39,940,36.13,36.13,0,0,0,1692,956.83Z"/><path class="cls-7" d="M1798.56,966.53a55,55,0,0,0-28-27.4,44.33,44.33,0,0,0,27.4-28.06,60.44,60.44,0,0,0,28,27.4,60.26,60.26,0,0,0-27.4,28.06Z"/><line class="cls-5" x1="2203.93" y1="906.45" x2="2264.93" y2="872.07"/><circle class="cls-7" cx="2197.28" cy="912" r="5.55"/><line class="cls-5" x1="2264.12" y1="872.41" x2="2364.76" y2="898.69"/><line class="cls-5" x1="2274.37" y1="924.58" x2="2399.14" y2="926.41"/><circle class="cls-7" cx="2266.04" cy="923.09" r="5.55"/><line class="cls-5" x1="1765.83" y1="893.14" x2="1826.83" y2="858.76"/><circle class="cls-7" cx="1759.17" cy="898.69" r="5.55"/><line class="cls-5" x1="1826.01" y1="859.1" x2="1865.65" y2="761.15"/><line class="cls-5" x1="1935.52" y1="847.67" x2="1921.11" y2="783.34"/><circle class="cls-7" cx="1936.63" cy="854.32" r="5.55"/><line class="cls-5" x1="1577.28" y1="1060.62" x2="1649.37" y2="988.53"/><line class="cls-5" x1="1651.23" y1="988.38" x2="1758.06" y2="1038.44"/><line class="cls-5" x1="1588.37" y1="892.03" x2="1597.98" y2="1020.88"/><line class="cls-5" x1="2026.59" y1="1040.09" x2="2050.75" y2="982.43"/><circle class="cls-7" cx="2051.98" cy="977.43" r="5.55"/><line class="cls-5" x1="2038.96" y1="1022.14" x2="2185.08" y2="1031.78"/><line class="cls-5" x1="2124.62" y1="1102.31" x2="2185.08" y2="1031.78"/><path class="cls-7" d="M2215,980.8a16.47,16.47,0,0,0-8.41-8.22,13.31,13.31,0,0,0,8.22-8.42,18.12,18.12,0,0,0,8.41,8.22,18.23,18.23,0,0,0-8.22,8.42Z"/><path class="cls-7" d="M1978.34,888.43a16.76,16.76,0,0,0-3.18-4.61,16.49,16.49,0,0,0-5.24-3.61,13.23,13.23,0,0,0,5-3.18,13.38,13.38,0,0,0,3.2-5.24,18.08,18.08,0,0,0,8.42,8.22,18.28,18.28,0,0,0-4.54,3.25A18,18,0,0,0,1978.34,888.43Z"/><path class="cls-7" d="M1731,971.34a16.64,16.64,0,0,0-8.42-8.22,13.32,13.32,0,0,0,8.22-8.41,18.08,18.08,0,0,0,8.42,8.22,18,18,0,0,0-8.22,8.41Z"/></g></g><g id="logo"><g class="cls-29"><g class="cls-29"><path class="cls-13" d="M1700.16,807.52a54.17,54.17,0,0,1-12.07-1.34c-17.42-4-31.85-16.63-42.87-37.62-10-19.83-21.34-30.33-33.64-31.25-17.73-1.37-32.47,17.73-33.67,19.33,13.78,34.7,48.92,59.38,90.11,59.38a99.76,99.76,0,0,0,42.52-9.43,60.9,60.9,0,0,1-10.38.93"/><path class="cls-13" d="M1612,731.69c14.56,1.09,27.51,12.65,38.5,34.38,10.19,19.41,23.3,31.07,39,34.64,18.35,4.17,35.53-3.92,42.52-7.9a91.61,91.61,0,0,0,28.33-42.33c-7.69,4.8-20.75,11.23-35.62,11.23a49.1,49.1,0,0,1-10.18-1.05c-17.48-3.69-32.26-16.83-43.93-39-12.2-20-27.2-31.66-44.5-34.46-24.12-3.89-46,10.62-51.54,14.66a88,88,0,0,0,1.12,48.43c5.6-6.45,19.4-19.84,36.35-18.55"/><path class="cls-24" d="M1658.32,645.54c19.84,4.36,36.41,16.71,49.26,36.7,17.8,28,31.5,34,39.86,34.12h.29c8.87,0,14.24-6.44,15.24-7.76-7.71-43.41-47.27-76.47-95-76.47a99.1,99.1,0,0,0-54.27,16c12.09-3.67,28-6.22,44.57-2.57"/><path class="cls-24" d="M1764,716.57a25.42,25.42,0,0,1-16.28,6h-.4c-14.55-.23-29.79-12.71-45.32-37.09-11.89-18.51-27.09-29.91-45.16-33.89-26.76-5.88-52.32,6.18-59.48,10a91.3,91.3,0,0,0-20.07,31.5c10.16-6.16,28.88-14.86,49.72-11.5,19.13,3.08,35.53,15.65,48.75,37.34,10.92,20.79,24.35,32.93,40,36.23,21.33,4.51,41-8.76,46.47-12.93l.26-.2a87.94,87.94,0,0,0,1.85-17.95c0-2.53-.14-5-.35-7.51"/><path class="cls-30" d="M1764,716.57a25.42,25.42,0,0,1-16.28,6h-.4c-14.55-.23-29.79-12.71-45.32-37.09-11.89-18.51-27.09-29.91-45.16-33.89-26.76-5.88-52.32,6.18-59.48,10a91.3,91.3,0,0,0-20.07,31.5c10.16-6.16,28.88-14.86,49.72-11.5,19.13,3.08,35.53,15.65,48.75,37.34,10.92,20.79,24.35,32.93,40,36.23,21.33,4.51,41-8.76,46.47-12.93l.26-.2a87.94,87.94,0,0,0,1.85-17.95C1764.36,721.55,1764.22,719.05,1764,716.57Z"/></g></g></g><g id="froggo"><path class="cls-31" d="M2120,1252.7c10.91-11.48,27.87-14.94,43.7-15,11.19,0,23.09,1.69,31.63,8.92,10.1,8.56,13.16,22.84,13.63,36.08.8,22.63-4.17,45.09-10.91,66.7A406.54,406.54,0,0,1,2140.44,1465c19.17,5.58,32.71,15.47,45.92,30.43-9.66-6.23-20.36-7.44-31.79-6.19,5.87,20.16,8.06,40.55,3.19,61-15.47-12.93-33.87-27.12-49.34-40.06-1.1-.92-3.25-1.08-3.93.19a49.6,49.6,0,0,0-4.42,34.24c-14.16-11-22.52-31.18-21-49"/><path class="cls-16" d="M2073.91,1498.51c52.36-49.29,69-127.93,58.33-199s-46.4-130.47-83.86-191.85a158.91,158.91,0,0,0-15.61-112.86c-6.71-12-33.8-61.87-87.75-72.67-9.64-1.94-34.65-6.94-60,6-46.38,23.7-48.73,84.64-48.8,87.62a275,275,0,0,0-188.55,41,142,142,0,0,0-37.72-45.48c-31.55-24.71-87.54-46-136.42-22.18-56.59,27.63-65.13,93.85-68.76,122-5.42,42,4.16,76.39,11.09,95.39-18.07,29.13-106.85,176.55-85.4,311.26,4.09,25.66,10.92,65.33,42.15,102.42,32,38,72.34,52.79,92,58.5"/><path class="cls-32" d="M2070.48,1494.87a181.72,181.72,0,0,0,30-41.66,197.2,197.2,0,0,0,10.46-23.44,220.71,220.71,0,0,0,7.54-24.54c8.17-33.29,9.14-68.25,4-102.07a314.74,314.74,0,0,0-12.09-50,412.67,412.67,0,0,0-19.45-48.09c-7.47-15.71-15.44-31.28-23.48-47s-16.18-31.45-23.39-47.86h0l-.28-.65a5.17,5.17,0,0,1-.32-3.11,158.19,158.19,0,0,0,2.52-48.08,156.14,156.14,0,0,0-12.1-46.37c-.73-1.86-1.67-3.63-2.51-5.44-.43-.9-.84-1.81-1.3-2.7l-1.42-2.64-1.41-2.64c-.46-.86-1-1.81-1.51-2.68-1-1.77-2-3.51-3.09-5.23A174.38,174.38,0,0,0,2008.85,971c-10.12-12.36-22.07-23.15-35.68-30.91a100.42,100.42,0,0,0-21.5-9.07c-1.87-.53-3.73-1.08-5.64-1.47-1-.21-1.87-.44-2.87-.64l-3-.58a102,102,0,0,0-11.65-1.56,93.29,93.29,0,0,0-11.58-.12,86.79,86.79,0,0,0-11.38,1.46,72.5,72.5,0,0,0-21.23,8.07,71.11,71.11,0,0,0-17.61,14.49c-1.31,1.4-2.46,3-3.69,4.45s-2.32,3.1-3.37,4.75-2.08,3.3-3.09,5-1.91,3.42-2.77,5.2a119.23,119.23,0,0,0-8.36,22.28c-1.06,3.86-1.94,7.78-2.65,11.73-.36,2-.68,4-.94,5.94s-.49,4-.61,5.82h0a5.21,5.21,0,0,1-5.34,4.84h-.38a445.71,445.71,0,0,0-48.14.79c-7.94.62-15.85,1.46-23.71,2.61s-15.69,2.5-23.43,4.22a334.86,334.86,0,0,0-45.73,13.35c-7.49,2.75-14.89,5.77-22.23,9s-14.58,6.75-21.87,10.31h0l-.43.23a5,5,0,0,1-6.69-2.09,137.34,137.34,0,0,0-33.78-41.77,154.1,154.1,0,0,0-47.2-26.15c-17.07-5.87-35.25-8.7-53-7-2.22.18-4.42.54-6.62.85-1.1.18-2.19.41-3.28.61s-2.18.44-3.26.7a93.91,93.91,0,0,0-12.72,3.91,97.09,97.09,0,0,0-23.26,12.84l-2.65,2-2.55,2.15-1.27,1.07-1.22,1.14-2.44,2.28-2.31,2.39-1.17,1.2-1.1,1.26-2.2,2.51-2.09,2.62c-.71.85-1.37,1.76-2,2.66s-1.33,1.8-2,2.72c-1.23,1.87-2.51,3.71-3.64,5.65a123,123,0,0,0-6.4,11.87c-7.75,16.31-12.36,34.13-15.27,52.24-.73,4.54-1.35,9.1-1.95,13.72s-1.06,9.05-1.3,13.6a192.54,192.54,0,0,0,.26,27.28,202.47,202.47,0,0,0,11.72,53.25v0a4.57,4.57,0,0,1-.15,3.75l-.3.6c-20.6,40.87-39.3,82.37-54,125.07-3.62,10.69-7.13,21.39-10.15,32.22-1.62,5.38-3,10.83-4.44,16.24l-2,8.17c-.32,1.37-.68,2.72-1,4.09l-.89,4.1a377.19,377.19,0,0,0-8.78,66.17,283.47,283.47,0,0,0,.61,33.12c.31,5.52,1.1,11,1.72,16.42.34,2.73.8,5.63,1.23,8.37s.9,5.52,1.37,8.26a218.26,218.26,0,0,0,8,31.88,166.89,166.89,0,0,0,55.73,79c17.26,13.71,37.24,24.22,58.45,31.62a5,5,0,0,1-2.79,9.6c-5.74-1.34-11.42-3-17-4.87s-11.16-4-16.59-6.43-10.77-5.07-16-7.9c-2.58-1.49-5.17-3-7.73-4.55l-3.77-2.43c-1.26-.82-2.54-1.61-3.74-2.5a178.8,178.8,0,0,1-49.88-51.94,185.06,185.06,0,0,1-16.1-32.65,230.48,230.48,0,0,1-9.9-34.7c-.57-2.91-1.16-5.82-1.68-8.71s-1-5.7-1.49-8.67c-.85-5.94-1.87-11.87-2.3-17.84a297.53,297.53,0,0,1-1.3-35.8l.34-8.93.1-2.23.16-2.22.34-4.45c.37-5.94,1.12-11.82,1.77-17.72,1.59-11.75,3.5-23.45,6.08-35,1.14-5.8,2.67-11.49,4.06-17.22l2.33-8.52c.76-2.85,1.59-5.67,2.47-8.47,3.37-11.28,7.25-22.37,11.43-33.32,1.07-2.73,2.1-5.47,3.2-8.19l3.38-8.11c1.1-2.71,2.31-5.37,3.48-8s2.38-5.35,3.63-8c4.87-10.62,10.14-21,15.71-31.3s11.45-20.31,17.67-30.16,12.77-19.48,19.76-28.78l-.45,4.35v0a213,213,0,0,1-12.29-55.87,202.14,202.14,0,0,1-.27-28.7c.25-4.78.81-9.57,1.36-14.28s1.24-9.34,2-14c3-18.72,7.81-37.46,16.11-54.94a134.49,134.49,0,0,1,6.89-12.78c1.22-2.1,2.61-4.1,4-6.13.69-1,1.43-2,2.14-3s1.43-2,2.2-2.91l2.29-2.86L1438,1010l1.21-1.37,1.27-1.32,2.55-2.64,2.69-2.5,1.34-1.26,1.4-1.18,2.81-2.36,2.93-2.23a107,107,0,0,1,25.64-14.15,103,103,0,0,1,14-4.31c1.18-.3,2.38-.57,3.58-.78s2.4-.47,3.61-.67c2.42-.34,4.83-.73,7.27-.93,19.48-1.9,39,1.2,57.24,7.46a163.94,163.94,0,0,1,50.32,27.89,147.27,147.27,0,0,1,36.24,44.79l-7.12-1.86h0a206.49,206.49,0,0,1,43.09-26.38,233,233,0,0,1,48.19-16.09c4.15-.94,8.33-1.65,12.51-2.41s8.4-1.26,12.62-1.68a231.86,231.86,0,0,1,25.4-1.34,204.53,204.53,0,0,1,50.15,6.12l-5.71,4.83h0c0-2.37.14-4.47.31-6.67s.38-4.33.66-6.48q.84-6.45,2.26-12.81a125.74,125.74,0,0,1,8.3-24.85c.89-2,1.92-4,2.93-5.95s2.14-3.88,3.35-5.76,2.44-3.73,3.7-5.58,2.68-3.59,4.17-5.28a84.55,84.55,0,0,1,20.53-17.64,86.26,86.26,0,0,1,25.24-10,96.79,96.79,0,0,1,13.41-1.88,107.57,107.57,0,0,1,13.44.08,119,119,0,0,1,13.18,1.7l3.17.6c1,.21,2.16.48,3.24.71,2.19.45,4.33,1.05,6.48,1.65a114.49,114.49,0,0,1,24.5,10.44,131,131,0,0,1,21.43,15.47,154.58,154.58,0,0,1,18,19,182.53,182.53,0,0,1,14.69,21.42c1.1,1.86,2.15,3.74,3.18,5.6.52,1,1,1.81,1.51,2.8l1.5,2.91,1.5,2.9c.48,1,.91,2,1.37,3,.88,2,1.86,3.94,2.63,6s1.65,4,2.39,6.07l2.13,6.16,1.84,6.24c.63,2.08,1.07,4.21,1.6,6.31a166.28,166.28,0,0,1,3.95,25.66,160,160,0,0,1-4.59,51.41l-.59-3.76h0a480.42,480.42,0,0,1,31.28,43.64,431.8,431.8,0,0,1,26.32,47.25,405.77,405.77,0,0,1,20.2,50.76,318,318,0,0,1,12.14,53.64,278.71,278.71,0,0,1,1.77,55.08,253.66,253.66,0,0,1-9.58,54.25,224.05,224.05,0,0,1-9.41,26,210.69,210.69,0,0,1-12.7,24.52,176.41,176.41,0,0,1-35.33,42,5,5,0,0,1-6.88-7.26Z"/><path class="cls-16" d="M1468,1422.75c31.16-36.43,63-56,83.37-66.28,23-11.66,44.18-22,69-16.2,23.39,5.5,37.74,22.26,43.18,28.79,41.11,49.39,25.08,130.45,3.88,177.8a222.77,222.77,0,0,1-27.45,45.62c43.38-9.39,90.47-.37,124.09,28.62-14.9-2.59-34.63-.21-48.82,5,12.29,15,14.35,33.94,11.72,53.11a222.38,222.38,0,0,0-78.18-20.56,28.33,28.33,0,0,0-12,14.81,26.66,26.66,0,0,0-1.29,9.65,175.09,175.09,0,0,1-51.74-33.73c-9.87,5.25-66.64,35-102.69,33.33-6.87-.32-20.32-1-27.41-10.38-.82-1.1-5.49-6.22-4.6-16.68,1.6-18.83,13.69-36.57,13.69-36.57a491.8,491.8,0,0,1,88.2-107.95"/><path class="cls-32" d="M1468,1422.75a267.87,267.87,0,0,1,41.37-42.39,263.73,263.73,0,0,1,24.15-17.51c4.2-2.68,8.5-5.2,12.85-7.64s8.71-4.7,13.14-7,8.93-4.48,13.59-6.45a108.94,108.94,0,0,1,14.46-5.09,79.24,79.24,0,0,1,15.43-2.61,64,64,0,0,1,15.81.93,74.56,74.56,0,0,1,29,12.07A91.76,91.76,0,0,1,1660,1357c1.87,1.81,3.65,3.7,5.38,5.62.85,1,1.69,1.93,2.5,2.89l2.43,3.06c1.67,2,3.08,4.18,4.59,6.31.78,1.05,1.39,2.19,2.09,3.29s1.39,2.2,2,3.34l1.84,3.43c.3.58.63,1.14.91,1.73l.82,1.76,1.65,3.52,1.46,3.6c1,2.38,1.78,4.85,2.64,7.29.44,1.21.75,2.46,1.13,3.7s.75,2.46,1,3.72c.57,2.5,1.25,5,1.69,7.52l.72,3.78.58,3.8a174.12,174.12,0,0,1,1.66,30.49,214.33,214.33,0,0,1-3,30.17,246.23,246.23,0,0,1-6.78,29.44,254.5,254.5,0,0,1-10.15,28.44,217.57,217.57,0,0,1-31.14,51.68h0l-5-8a159.94,159.94,0,0,1,67.59-.12,144.08,144.08,0,0,1,32.23,11.09,132.21,132.21,0,0,1,28.59,18.75,5,5,0,0,1-4.08,8.72h0a86.85,86.85,0,0,0-23.31-.37,100.2,100.2,0,0,0-22.92,5.15l2.13-7.86a57.67,57.67,0,0,1,8.06,13,63.39,63.39,0,0,1,4.49,14.48,93,93,0,0,1,.27,29.49,5,5,0,0,1-5.62,4.28,5.22,5.22,0,0,1-1.44-.42h0a217.91,217.91,0,0,0-76.43-20.11l3-.73a24.08,24.08,0,0,0-8.31,8.57,21.21,21.21,0,0,0-2.61,11.39h0a5,5,0,0,1-6.94,4.84,179.94,179.94,0,0,1-53.21-34.67l0,0,5.78.78a394.86,394.86,0,0,1-38,19.19c-13.09,5.64-26.53,10.72-40.81,14.06-3.56.86-7.21,1.52-10.89,2.11a104.8,104.8,0,0,1-11.33,1,99.11,99.11,0,0,1-11.44-.46,49.48,49.48,0,0,1-12.08-2.65,31.68,31.68,0,0,1-11.68-7.27c-.87-.83-1.62-1.8-2.41-2.72l-.35-.43-.53-.69c-.37-.5-.73-1-1.06-1.54a28.18,28.18,0,0,1-3.1-6.64,33.83,33.83,0,0,1-1.26-13.5,71.4,71.4,0,0,1,2.12-11.69,101.42,101.42,0,0,1,8.51-21.22c.89-1.67,1.82-3.32,2.82-5l.79-1.27.35-.54.31-.52,1.29-2.16c1.8-3,3.71-6.07,5.62-9q11.52-18,24.53-35c4.35-5.65,8.76-11.25,13.45-16.63s9.61-10.53,14.74-15.48,10.45-9.7,15.8-14.38c2.67-2.35,5.38-4.64,8.07-6.95l4.06-3.45c1.34-1.16,2.76-2.22,4-3.51a5,5,0,0,1,7.26,6.88l-.13.14-.36.34c-10,9.67-18.78,20.46-27.47,31.21l-13,16.11c-4.34,5.35-8.71,10.67-12.92,16.12q-12.65,16.32-23.87,33.71c-1.88,2.9-3.68,5.78-5.55,8.75l-1.44,2.33-.38.6-.36.56-.62,1c-.83,1.32-1.64,2.72-2.43,4.12a86.32,86.32,0,0,0-7.4,17.61,55.2,55.2,0,0,0-1.77,8.94,20.47,20.47,0,0,0-.12,3.87,16.72,16.72,0,0,0,.56,3.43,12.43,12.43,0,0,0,1.24,2.9,6.29,6.29,0,0,0,.41.64l.25.35.47.61c.37.39.64.86,1,1.23a16.17,16.17,0,0,0,6,3.84,33.8,33.8,0,0,0,8.36,2,87.15,87.15,0,0,0,9.54.63,89.91,89.91,0,0,0,9.62-.54c3.25-.41,6.53-.88,9.81-1.56a249.49,249.49,0,0,0,39.09-11.75c12.88-4.91,25.6-10.47,38-16.53l.11-.06a5.12,5.12,0,0,1,5.67.83l0,0a169.75,169.75,0,0,0,50.24,32.74l-6.94,4.85a31.06,31.06,0,0,1,3.85-16.73,34,34,0,0,1,11.78-12.22,4.93,4.93,0,0,1,3-.74h0a227.92,227.92,0,0,1,79.93,21l-7.08,3.84a82.73,82.73,0,0,0-.19-26.29,53.8,53.8,0,0,0-3.77-12.22,48.58,48.58,0,0,0-6.67-10.74l0,0a5,5,0,0,1,.69-7,5.33,5.33,0,0,1,1.46-.83,109.13,109.13,0,0,1,25.31-5.71,111.65,111.65,0,0,1,12.95-.65,82.65,82.65,0,0,1,13.14,1.11l-4.12,8.71a122.11,122.11,0,0,0-26.43-17.32,133.48,133.48,0,0,0-30-10.32,150,150,0,0,0-63.34.12,5,5,0,0,1-5.09-7.84l.08-.11h0a227.68,227.68,0,0,0,28.27-50c1.8-4.45,3.47-9,5.06-13.5s3-9.14,4.29-13.78a263.66,263.66,0,0,0,6.32-28.12,217.8,217.8,0,0,0,2.88-28.54,161.25,161.25,0,0,0-1.35-28.42,125.33,125.33,0,0,0-6.79-27.29l-1.26-3.26-1.43-3.19-.71-1.6c-.25-.53-.53-1-.79-1.55l-1.6-3.1c-.54-1-1.17-2-1.75-3s-1.13-2-1.81-3c-1.32-1.91-2.54-3.89-4-5.69a92.64,92.64,0,0,0-19.63-19.66,64.35,64.35,0,0,0-24.82-11.13,57.62,57.62,0,0,0-13.56-1.25,70.62,70.62,0,0,0-13.71,1.81,101.31,101.31,0,0,0-13.55,4.22c-4.47,1.71-8.91,3.61-13.34,5.65s-8.92,4.14-13.25,6.27-8.65,4.43-12.87,6.85a257.47,257.47,0,0,0-24.61,15.78A306.34,306.34,0,0,0,1468,1422.75Z"/><path class="cls-15" d="M1895,1273.85c18.48-6,38.25-9.5,57.42-6.25s37.7,13.92,47.21,30.88c3.79,6.76,6,14.26,7.71,21.83,3.49,16,4.33,32.72.27,48.54-2.87,11.2-8.11,21.63-12.33,32.39a188.65,188.65,0,0,0-10.47,99c1.32,8,3.17,16.07,2.65,24.19l-105.69,30.93a498.1,498.1,0,0,0-42-102.92c-15.14-27.77-39.06-70.41-28.08-103.3C1824.5,1310.76,1857.88,1286,1895,1273.85Z"/><path class="cls-16" d="M1735.05,1526.92a151.35,151.35,0,0,0,79.27,79.82,66.6,66.6,0,0,0-3.15,35c2.25-11.3,16.52-11.65,21.65-22,11.76,8,27.53,10,41.71,9.16,6-11.44,5.5-24.31,7.23-37.09,8.84-.6,17.26,3.06,25.27,6.86-3.69-11.51-13-21.68-24.87-24.07a457.9,457.9,0,0,0-61.71-158.19c-10.55-16.92-11.06-34.21-12-54.13"/><path class="cls-32" d="M1735.05,1526.92c1.55,1.95,3,3.91,4.43,5.86s3,3.81,4.42,5.71,3,3.69,4.49,5.52,3.1,3.57,4.59,5.36a230.41,230.41,0,0,0,19.53,19.62l5.18,4.46c1.79,1.42,3.55,2.86,5.3,4.3s3.61,2.75,5.35,4.2,3.65,2.7,5.45,4.09,3.7,2.63,5.51,4,3.74,2.6,5.59,4,3.79,2.6,5.67,4,3.84,2.65,5.72,4.13l2,1.57a3.57,3.57,0,0,1,.72,4.85h0a58.71,58.71,0,0,0-3.6,15.91,59.63,59.63,0,0,0,.7,16.31l-9.81,0c.22-.87.47-1.75.73-2.61s.73-1.69,1.13-2.52,1-1.54,1.48-2.28,1.13-1.36,1.72-2a39.09,39.09,0,0,1,7.26-5.43,58.67,58.67,0,0,0,6.05-4,13.36,13.36,0,0,0,3.7-4.37l0,0a5,5,0,0,1,6.72-2.2,4.8,4.8,0,0,1,.54.32,49.24,49.24,0,0,0,18.23,7.15,82.35,82.35,0,0,0,20.37,1.16l-4.12,2.68c2.57-4.91,3.9-10.54,4.69-16.54s1.13-12.35,2-18.91a5,5,0,0,1,4.61-4.32h0a40.36,40.36,0,0,1,14.88,2,102.07,102.07,0,0,1,12.87,5.3l-6.9,6a34,34,0,0,0-8.07-13.37,25.82,25.82,0,0,0-13-7.33h0a5.33,5.33,0,0,1-3.93-4c-4.21-18.24-9-36.28-14.76-54-1.43-4.44-3-8.85-4.5-13.25s-3.13-8.79-4.78-13.15c-3.36-8.7-6.84-17.37-10.63-25.91q-11.37-25.61-25.2-50.16a72.74,72.74,0,0,1-6-13.65,78.59,78.59,0,0,1-3-14.4c-1.05-9.67-.73-19.18-.25-28.66a.33.33,0,0,1,.65,0c1.36,9.4,2.3,18.85,4.49,27.83a76.18,76.18,0,0,0,4.27,13,65.26,65.26,0,0,0,6.55,11.74,387.93,387.93,0,0,1,28.67,49.62c4.15,8.62,8.09,17.36,11.59,26.28,1.75,4.46,3.47,8.93,5.09,13.44.84,2.25,1.56,4.53,2.34,6.8s1.51,4.54,2.24,6.82a359.23,359.23,0,0,1,13,55.9l-3.93-4h0a33.4,33.4,0,0,1,9.92,3.75,38.47,38.47,0,0,1,8.22,6.35,43.79,43.79,0,0,1,10.49,17.34,5,5,0,0,1-6.88,6.06h0a91.59,91.59,0,0,0-11.59-4.8,30.55,30.55,0,0,0-11.2-1.59l4.61-4.32c-.82,6-1.13,12.33-2,18.9a76.51,76.51,0,0,1-1.94,10,48.78,48.78,0,0,1-3.79,9.86h0a5,5,0,0,1-4.12,2.68,91.86,91.86,0,0,1-22.89-1.32,59.08,59.08,0,0,1-21.93-8.69l7.28-1.91a23.57,23.57,0,0,1-6.36,7.68,68.6,68.6,0,0,1-7.07,4.76,30.12,30.12,0,0,0-5.42,4,8.1,8.1,0,0,0-2.37,4.32l0,.09a5,5,0,0,1-9.8-.13,69.55,69.55,0,0,1-.84-19.08,68.7,68.7,0,0,1,4.24-18.65h0l2.7,6.41c-2.49-.5-4.95-1.14-7.39-1.85s-4.77-1.7-7.12-2.66c-1.15-.51-2.3-1-3.44-1.6s-2.29-1.1-3.42-1.67c-2.21-1.22-4.39-2.52-6.57-3.82s-4.2-2.84-6.26-4.33-4-3.17-5.92-4.76-3.73-3.44-5.56-5.18l-5.2-5.52a118.37,118.37,0,0,1-17-24.86c-1.1-2.25-2.14-4.53-3.17-6.78s-1.82-4.65-2.67-7-1.46-4.76-2.12-7.13S1735.47,1529.35,1735.05,1526.92Z"/><path class="cls-16" d="M2075.16,1496.48a88.65,88.65,0,0,0-7.82,31.74A41.06,41.06,0,0,1,2082.6,1556a88.21,88.21,0,0,1-22.25-8.34,44.13,44.13,0,0,1-6,32.21,40.09,40.09,0,0,1-24.14-7.23,39.62,39.62,0,0,1-13.29-16.44,61.52,61.52,0,0,0-19.94,30.38c-5.84-14.39-6.69-29.76-.6-44a183.25,183.25,0,0,1-15.95-55.43,185.39,185.39,0,0,1,9.32-83.85"/><path class="cls-32" d="M2079.71,1498.54a84.11,84.11,0,0,0-7.38,30l-1.87-4.2a46.14,46.14,0,0,1,17.11,31.12,5,5,0,0,1-4.42,5.51,5.11,5.11,0,0,1-1.66-.1A93.65,93.65,0,0,1,2058,1552l7.28-5.37a49.15,49.15,0,0,1-6.74,35.85,5,5,0,0,1-4.07,2.31,45.72,45.72,0,0,1-13.08-1.54,43.78,43.78,0,0,1-22.1-13.94,44.84,44.84,0,0,1-7-11.18l7.77,1.86a56.59,56.59,0,0,0-18.32,27.89v0a5,5,0,0,1-9.26.85l-.17-.36a64.48,64.48,0,0,1-4.14-11.47,61.14,61.14,0,0,1-1.87-12.25,55.51,55.51,0,0,1,.78-12.53,54.31,54.31,0,0,1,3.55-12.11l.08,5.07a172.13,172.13,0,0,1-15.4-53l-.5-4.58-.34-4.6-.16-2.29-.09-2.3-.13-4.6,0-4.6,0-2.3.11-2.29c.09-1.53.14-3.06.26-4.58l.41-4.57a168.28,168.28,0,0,1,2.89-18,149.82,149.82,0,0,1,11.88-34.16,264,264,0,0,0-5.34,35.14,219,219,0,0,0,.05,34.93c.56,5.77,1.21,11.51,2.19,17.2s2.21,11.33,3.7,16.9a201.17,201.17,0,0,0,11.66,32.48v0a6.28,6.28,0,0,1,.08,5,50.11,50.11,0,0,0-3,9.49,51.11,51.11,0,0,0-1,10,57.38,57.38,0,0,0,.92,10.16,72.64,72.64,0,0,0,2.61,10.09l-9.43.49v0a66.53,66.53,0,0,1,21.55-32.81,5,5,0,0,1,7,.67,4.87,4.87,0,0,1,.72,1.16v0a34.55,34.55,0,0,0,5.43,8.69,33.88,33.88,0,0,0,7.7,6.68,34.31,34.31,0,0,0,9.37,4.08,35.86,35.86,0,0,0,10.19,1.21l-4.07,2.31a39.1,39.1,0,0,0,5.36-28.55,5,5,0,0,1,7.28-5.37,83.32,83.32,0,0,0,21,7.86l-6.08,5.42a36.21,36.21,0,0,0-13.41-24.38,5,5,0,0,1-1.88-4.16v0a94.22,94.22,0,0,1,8.25-33.53h0a5,5,0,0,1,9.11,4.13Z"/><path class="cls-32" d="M1610.49,1132.06c6.37-27.21-11.44-54.76-33.62-71.76-13.84-10.6-30.4-18.8-47.84-18.68-25,.17-48,18.7-56,42.36s-1.77,50.94,13.63,70.61c5.21,6.66,12,12.86,20.41,14,31.34,4.19,68,2.87,90.87-18.94C1603.89,1144,1608.62,1140.06,1610.49,1132.06Z"/><path class="cls-32" d="M1898.23,1071.06c-16.94-19.38-15.74-49.32-6.52-72.53,5.76-14.49,14.64-28.18,27.9-35.49,19-10.47,44.69-5.22,61.28,10.6s24,40.6,21.14,63.1c-1,7.63-3.37,15.55-9.22,20-21.86,16.71-50.19,31.2-77.24,23.22C1908.55,1077.92,1903.21,1076.75,1898.23,1071.06Z"/><path class="cls-15" d="M1526.63,1076.45c2.61,6.41,11.18,7.3,16.94,11.14,5.38,3.59,8.7,10.21,14.83,12.26,5.56,1.87,12.07-1,15.19-6s3.08-11.52.73-16.89-6.77-9.65-11.77-12.71a24.77,24.77,0,0,0-9.16-3.62C1545.31,1059.44,1521.21,1063.12,1526.63,1076.45Z"/><path class="cls-15" d="M1952.53,999.63c3.77,3.26,7.62,6.69,12.39,8.26s10.77.78,13.81-3.23c2.7-3.55,2.35-8.57.7-12.66a24.39,24.39,0,0,0-16.1-14.19,25.33,25.33,0,0,0-21.37,4.12C1930.48,990.5,1946.36,994.28,1952.53,999.63Z"/><path class="cls-13" d="M1512.6,1103.77a66.11,66.11,0,0,1,34,29.52c1.31,2.37,2.5,5,2.14,7.68-.41,3.13-2.84,5.6-5.34,7.53-14.2,10.92-40.65,10.78-49.52-7.26C1486.72,1126.69,1490.51,1095.36,1512.6,1103.77Z"/><path class="cls-13" d="M1954.26,1045.11c2.8,4.22,5.89,8.88,4.22,12.91-4.79,11.48-47.16,14.9-56.3-3.46-4.32-8.67-1-21.7,6.93-27.24C1922,1018.28,1944.74,1030.76,1954.26,1045.11Z"/><path class="cls-32" d="M1811.23,1108.6c1.68-5.94,3.64-11.95,7.43-16.82s9.79-8.43,15.92-7.75a4.49,4.49,0,0,1,2.93,1.21c1.58,1.77.23,4.53-1.23,6.39a64.09,64.09,0,0,1-21.45,17.52,3.43,3.43,0,0,1-2.46.52c-.82-.26-1.3-1.5-.59-2"/><path class="cls-32" d="M1786.15,1116c-4.69-4.33-9.76-8.56-16.63-10.65a30.29,30.29,0,0,0-23.34,2.65,7.72,7.72,0,0,0-3.16,2.87c-1.21,2.54,1.68,4.22,4.32,5a89.79,89.79,0,0,0,34.54,2.81,6.33,6.33,0,0,0,3.31-1c.92-.73,1-2.13-.13-2.15"/><path class="cls-32" d="M1676.62,1172.26a7.32,7.32,0,0,1,2.12-4.66,12.94,12.94,0,0,1,4.49-2.95,19.5,19.5,0,0,1,5.22-1.36,34.36,34.36,0,0,1,5.24-.25,62.19,62.19,0,0,1,10.19,1.1c3.32.61,6.5,1.32,9.7,2.07,6.39,1.49,12.72,3.22,19,5.27a147.17,147.17,0,0,1,18.28,7.24h0l-6.15,2.25a28.37,28.37,0,0,1,3.07-7.74,60.84,60.84,0,0,1,4.36-6.46c.72-1,1.37-1.83,2.13-2.8s1.65-2,2.54-3a67.61,67.61,0,0,1,5.56-5.42A159.58,159.58,0,0,1,1787,1138.9c1-.61,2.09-1.19,3.14-1.77l1.57-.87.78-.43.39-.21.85-.45a16.63,16.63,0,0,1,6.66-1.66,27.08,27.08,0,0,1,5.08.31c1.47.23,2.77.5,3.92.75l1.58.36,1.83.37c2.51.52,5,1.15,7.45,1.89s4.87,1.56,7.25,2.49,4.69,2,7,3.1a81.15,81.15,0,0,1,12.9,7.9h0l-7.5,3.68a24.46,24.46,0,0,1,1.82-7.92,30.55,30.55,0,0,1,3.81-6.82,52.19,52.19,0,0,1,10.26-10.26c.91-.73,1.85-1.4,2.78-2.08l1.4-1c.51-.34,1-.7,1.54-1A38.71,38.71,0,0,1,1868,1122a46.86,46.86,0,0,1,13.62-3.15.33.33,0,0,1,.35.29.35.35,0,0,1-.11.26c-3.44,3.22-7.06,5.88-10.34,8.64q-2.46,2-4.67,4.14l-2.23,2.21-2.26,2.3a76,76,0,0,0-7.9,9.27,30,30,0,0,0-4.6,9.66,5.51,5.51,0,0,1-6.73,3.94,5.21,5.21,0,0,1-.7-.23l-.07,0h0c-2.09-.88-4.18-1.7-6.28-2.51s-4.23-1.46-6.34-2.14a108,108,0,0,0-12.88-3.07c-2.16-.4-4.33-.67-6.5-.92l-1.69-.18-1.93-.23c-1.19-.15-2.23-.29-3.11-.34a9,9,0,0,0-2,0c-.43.07-.45.18-.18.1l-5.53,3.52a216.71,216.71,0,0,0-22.16,15.55c-1.68,1.38-3.37,2.73-5,4.13-.83.68-1.63,1.39-2.45,2.09s-1.86,1.62-2.78,2.35c-1.86,1.53-3.63,2.82-5.22,4.07s-3.14,2.57-4.85,4.06l-2.33,2a3.15,3.15,0,0,1-3.83.23h0c-6.22-1.75-12.29-3.89-18.35-6.07s-12.06-4.5-18.08-6.85-11.91-4.86-17.84-6.39c-1.48-.36-3-.68-4.48-.9a19.11,19.11,0,0,0-4.41-.07,11.8,11.8,0,0,0-4.26,1.19A7.12,7.12,0,0,0,1676.62,1172.26Z"/><path class="cls-24" d="M1589.6,1207.4c8.94,6.62,17.55,15.62,18.39,27.23a33.62,33.62,0,0,1-3,15.53c-6.18,14.36-19.36,25-33.83,28.9-29.48,7.93-79.4-15.44-69.84-54C1511.85,1182.4,1564.57,1188.82,1589.6,1207.4Z"/><path class="cls-24" d="M1999.23,1093.53c11.17,2.22,19.6,12.42,22.18,23.52s.12,22.82-4.2,33.36c-4.06,9.87-10.17,19.46-19.53,24.61-22.19,12.18-55.51-7.56-55.44-33.27C1942.3,1119.83,1977.71,1089.24,1999.23,1093.53Z"/><line class="cls-4" x1="1429.88" y1="1648.04" x2="1431.43" y2="1468.22"/><line class="cls-5" x1="1391.08" y1="1592.36" x2="1390.94" y2="1517.58"/><line class="cls-5" x1="1423.04" y1="1621.51" x2="1390.94" y2="1591.89"/><line class="cls-4" x1="1426.99" y1="1588.01" x2="1393.71" y2="1558.06"/><line class="cls-5" x1="1486.57" y1="1542.38" x2="1486.43" y2="1467.59"/><line class="cls-5" x1="1497.42" y1="1549.74" x2="1486.43" y2="1541.9"/><line class="cls-4" x1="1512.39" y1="1528.12" x2="1489.21" y2="1508.08"/><line class="cls-5" x1="1374.71" y1="1476.16" x2="1374.84" y2="1401.37"/><line class="cls-5" x1="1344.91" y1="1505.31" x2="1375.95" y2="1475.69"/><circle class="cls-33" cx="1432.53" cy="1449.37" r="11.09"/><circle class="cls-33" cx="1374.86" cy="1390.58" r="5.55"/><circle class="cls-33" cx="1390.39" cy="1510.37" r="5.55"/><circle class="cls-33" cx="1485.77" cy="1459.35" r="5.55"/></g><g id="hat_upper" data-name="hat upper"><path class="cls-32" d="M1742,829.37c-17.06,3.06-47.74,8.29-86.51,13.31-14.74,1.9-36.11,4.48-71,7.76-94.13,8.85-109.71,6.18-160,12.62-3.5.45-53.47,6.68-105.74,20.51-189.47,50.13-284.63,149.07-306.64,175.17-23.71,28.12-44.21,60.2-51.61,96.23s.17,76.58,26.13,102.64c15.23,15.28,35.46,24.5,56.54,29.67l.09-.73a240.71,240.71,0,0,1,5-26.88c2.64-10.82,6.61-22.27,15.8-28.56a66.43,66.43,0,0,0,2.68,60.36c52.85,6.23,105.42-7.55,154.45-30.93-13.48-36.48-9.66-79.31,11.14-112.3a151.64,151.64,0,0,0,36.56,82c-7.07-15.82-5.91-35.92,1.13-51.76,3.3,10.09,9.24,21.45,16.82,28.89a102.69,102.69,0,0,1,0-54.37,2.54,2.54,0,0,1,.66-2.4q-.35,1.2-.66,2.4a12.07,12.07,0,0,0,.74,2.53,178.85,178.85,0,0,0,27.28,47.63c98.54-72.27,182.37-162.79,275.58-242,96.82-82.25,209.14-154.26,336-169.28h0l-2.46.45C1830.3,809.67,1807.57,817.61,1742,829.37Z"/><path class="cls-32" d="M1742.86,834.29q-66,11.9-132.82,18.89-33.35,3.48-66.75,6.19c-22.26,1.84-44.64,3.12-66.85,4.43-11.1.69-22.12,1.5-33.11,2.65s-22,2.55-32.93,4.21c-21.9,3.34-43.72,7.42-65.31,12.35a759.58,759.58,0,0,0-126.19,40.76q-30.53,13-59.72,28.8c-9.66,5.36-19.28,10.81-28.66,16.64-4.73,2.85-9.35,5.88-14,8.85-2.32,1.5-4.6,3.06-6.9,4.59l-3.44,2.3-3.39,2.37c-9.1,6.26-18,12.83-26.64,19.63s-17.15,13.87-25.34,21.22-16.14,15-23.68,22.92c-3.77,4-7.44,8-10.92,12.18s-7,8.47-10.28,12.83a264.27,264.27,0,0,0-18.33,27.08,192.9,192.9,0,0,0-14.14,29.15c-.92,2.53-1.89,5-2.67,7.61-.4,1.28-.84,2.55-1.22,3.83l-1.07,3.88-.54,1.94-.45,2-.9,3.91c-.31,1.31-.48,2.62-.73,3.93s-.5,2.61-.67,3.93a128.7,128.7,0,0,0-.56,31.8,110.28,110.28,0,0,0,7.92,30.56c.46,1.24,1.06,2.4,1.63,3.58l1.72,3.53,2,3.4a35.46,35.46,0,0,0,2,3.34l2.18,3.24.55.82.6.76,1.21,1.53c.81,1,1.58,2.07,2.43,3.05l2.64,2.86a92.23,92.23,0,0,0,25.12,18.6,136,136,0,0,0,30,11l-7.49,5.23.26-2,.26-2,.58-3.89c.41-2.6.86-5.18,1.35-7.76,1-5.18,2.1-10.25,3.45-15.42a74.17,74.17,0,0,1,5.81-15.66,42.27,42.27,0,0,1,4.92-7.45,33.69,33.69,0,0,1,6.87-6.32,6,6,0,0,1,8.88,7.56,59,59,0,0,0-5.37,27.66,59.85,59.85,0,0,0,7.78,27.13l-4.5-3a218.34,218.34,0,0,0,38.78,1,253.23,253.23,0,0,0,38.57-5.42c25.46-5.56,50.17-14.65,73.88-25.88l-3,7.31a136,136,0,0,1-7.53-60,131.35,131.35,0,0,1,19.37-57.32v0a5.66,5.66,0,0,1,10.4,2.36,146.64,146.64,0,0,0,11.55,42.19,144.3,144.3,0,0,0,23.52,36.87l-9.15,5.89a64.66,64.66,0,0,1-5.15-28.39,75.35,75.35,0,0,1,6.35-27.81,5.41,5.41,0,0,1,10.08.48v0a81.72,81.72,0,0,0,6.33,14.44,56.45,56.45,0,0,0,9.1,12.31l-8.91,5.24a106.71,106.71,0,0,1-3.8-28.6,110.29,110.29,0,0,1,3.9-28.54l-.13,2.07a8.79,8.79,0,0,1,.1-3.15,7.32,7.32,0,0,1,.79-2,7.19,7.19,0,0,1,1.47-1.8,5.19,5.19,0,0,1,8.44,5.24l0,.08-.63,2.29.13-2.06a12.84,12.84,0,0,0,.78,2.28c.43,1.08.83,2.18,1.29,3.25.88,2.16,1.81,4.31,2.78,6.43q2.91,6.38,6.34,12.5a174.57,174.57,0,0,0,15.59,23.27l0,0-6.86-.91c50.74-35.82,97.67-77,143.87-118.82,23.06-21,46-42.17,69.13-63.08s46.51-41.63,70.51-61.6q18-14.94,36.6-29.19t37.76-27.67a765.83,765.83,0,0,1,79.76-48.92,571.4,571.4,0,0,1,85.77-37.18q22.18-7.46,45-12.73l11.43-2.46,11.5-2.16c3.85-.63,7.7-1.21,11.53-1.94s7.7-1.3,11.52-2.24h.11a.79.79,0,0,0-.78.77l.94.8c-15.25,3.72-30.56,7.13-45.8,10.76L1835,814.29c-15.24,3.64-30.5,7.29-45.85,10.68-7.67,1.72-15.37,3.3-23.07,4.89l-11.58,2.26Zm-1.76-9.85q23.1-4.05,46.08-8.66c15.34-3,30.68-6.26,46.09-9.27s30.86-5.86,46.35-8.43,31-4.92,46.59-6.92h0a.82.82,0,0,1,.9.7.34.34,0,0,1,0,.1.83.83,0,0,1-.24.55.79.79,0,0,1-.55.23h.05c-3.91.09-7.79.43-11.67.84s-7.71,1.17-11.56,1.78l-11.49,2.18L1880.26,800c-15.2,3.5-30.21,7.8-45,12.78a565.61,565.61,0,0,0-85.59,37.48,765.8,765.8,0,0,0-79.3,49.48q-19.08,13.5-37.5,27.92t-36.18,29.6c-23.69,20.26-46.82,41.17-69.6,62.45s-45.28,42.88-68,64.29c-45.3,42.9-91.46,85.17-141.36,123.21a4.91,4.91,0,0,1-6.81-.84l0-.07,0,0a185.6,185.6,0,0,1-16.65-24.53c-2.44-4.3-4.7-8.71-6.79-13.19-1-2.25-2-4.51-3-6.8-.49-1.14-.93-2.29-1.39-3.44a20.09,20.09,0,0,1-1.41-4.59,4.68,4.68,0,0,1,.1-1.94l0-.11.68-2.52,8.42,5.33a2.88,2.88,0,0,0,.65-.8,3,3,0,0,0,.33-.83,1.61,1.61,0,0,0,.06-.56,2.42,2.42,0,0,1,.06,1.38l-.19.68a100.13,100.13,0,0,0-3.37,25.85A96.7,96.7,0,0,0,1292,1206a5.35,5.35,0,0,1-8.92,5.24,66.84,66.84,0,0,1-11-14.66,91.51,91.51,0,0,1-7.24-16.36l10.08.51a64.72,64.72,0,0,0-5.34,23.78,53.84,53.84,0,0,0,4.29,23.53,5.5,5.5,0,0,1-9.13,5.91l0,0a155.52,155.52,0,0,1-25.46-39.61,158.11,158.11,0,0,1-12.59-45.38l10.4,2.34a119.89,119.89,0,0,0-17.47,52.4,124.43,124.43,0,0,0,7.05,54.86,5.84,5.84,0,0,1-2.94,7.3l0,0c-24.3,11.64-49.83,21.12-76.38,26.94a263.64,263.64,0,0,1-40.39,5.72,229.28,229.28,0,0,1-40.91-1.06,6,6,0,0,1-4.49-3,71.94,71.94,0,0,1-9.42-32.59,71.08,71.08,0,0,1,6.47-33.34l8.88,7.56a25.63,25.63,0,0,0-7.9,9.43,62.62,62.62,0,0,0-4.8,13.12c-1.23,4.74-2.31,9.69-3.24,14.57q-.69,3.69-1.27,7.39l-.55,3.7-.47,3.64,0,.12a6.07,6.07,0,0,1-6.81,5.24,6.45,6.45,0,0,1-.66-.12,147.42,147.42,0,0,1-32.68-12,104.11,104.11,0,0,1-28.36-21l-3-3.29c-1-1.12-1.86-2.32-2.79-3.48l-1.38-1.75-.69-.88-.62-.93-2.49-3.69c-.87-1.21-1.58-2.51-2.32-3.79l-2.2-3.86-1.94-4c-.65-1.33-1.32-2.65-1.84-4a122.78,122.78,0,0,1-8.81-34,140.63,140.63,0,0,1,.62-34.91c.18-1.44.49-2.87.73-4.31s.48-2.88.81-4.3l1-4.23.49-2.12.58-2.09,1.16-4.19c.41-1.39.88-2.75,1.31-4.13.85-2.77,1.88-5.46,2.88-8.17a204,204,0,0,1,15-31,275.24,275.24,0,0,1,19.16-28.29c3.42-4.53,7-8.92,10.63-13.27s7.5-8.61,11.41-12.72c7.81-8.24,16-16,24.42-23.57s17.1-14.73,26-21.68,18-13.63,27.25-20l3.47-2.41,3.51-2.34c2.35-1.55,4.67-3.14,7-4.67,4.75-3,9.46-6.09,14.29-9,9.57-5.93,19.38-11.46,29.23-16.89q29.68-16.05,60.8-29.19a770.3,770.3,0,0,1,128.22-41.15c21.92-4.92,44-9,66.18-12.27q16.66-2.48,33.45-4.16c11.19-1.13,22.42-1.92,33.58-2.56,22.33-1.25,44.49-2.44,66.68-4.19s44.37-3.7,66.51-5.93Q1675.36,836.14,1741.1,824.44Z"/></g></svg>