<?xml version="1.0" encoding="utf-8"?>
<!-- Generator: Adobe Illustrator 25.4.1, SVG Export Plug-In . SVG Version: 6.00 Build 0)  -->
<svg version="1.1" id="Layer_1" xmlns="http://www.w3.org/2000/svg" xmlns:xlink="http://www.w3.org/1999/xlink" x="0px" y="0px"
	 viewBox="0 0 160 160" style="enable-background:new 0 0 160 160;" xml:space="preserve">
<style type="text/css">
	.st0{fill:#C34E4C;}
	.st1{fill:#FBAA82;}
	.st2{fill:#FBAA82;stroke:#FBAA82;stroke-miterlimit:10;}
</style>
<g id="Artboard_1">
	<g id="logo">
		<path id="_4" class="st0" d="M106.3,148.4c-3.3,0-6.6-0.4-9.9-1.1c-14.3-3.2-26.1-13.6-35.1-30.8c-8.2-16.2-17.5-24.9-27.6-25.6
			c-14.5-1.1-26.6,14.5-27.6,15.8c11.3,28.4,40.1,48.7,73.8,48.7c12,0,23.9-2.6,34.9-7.7C112,148.1,109.2,148.4,106.3,148.4z"/>
		<path id="_3" class="st0" d="M34.1,86.2c11.9,0.9,22.5,10.4,31.6,28.2c8.3,15.9,19.1,25.5,31.9,28.4c15,3.4,29.1-3.2,34.9-6.5
			c10.9-9.1,18.9-21.2,23.2-34.7c-6.3,3.9-17,9.2-29.2,9.2c-2.8,0-5.6-0.3-8.4-0.9c-14.3-3-26.4-13.8-36-32
			c-10-16.4-22.3-26-36.5-28.2c-19.8-3.2-37.7,8.7-42.2,12C0,74.7,0.3,88.5,4.3,101.4C8.9,96.2,20.2,85.2,34.1,86.2z"/>
		<path id="_2" class="st1" d="M72.1,15.6c16.3,3.6,29.8,13.7,40.4,30.1c14.6,22.9,25.8,27.8,32.7,28h0.2c7.3,0,11.7-5.3,12.5-6.3
			C151.5,31.7,119.1,4.6,80,4.6c-15.8-0.1-31.2,4.5-44.5,13C45.4,14.7,58.4,12.6,72.1,15.6z"/>
		<path id="_1" class="st2" d="M158.7,73.8c-3.7,3.2-8.5,4.9-13.3,4.9H145c-11.9-0.2-24.4-10.4-37.1-30.4
			c-9.8-15.2-22.2-24.5-37-27.8c-21.9-4.8-42.9,5.1-48.8,8.2C14.9,36.1,9.3,44.9,5.6,54.6c8.3-5,23.7-12.2,40.7-9.4
			c15.7,2.5,29.1,12.8,40,30.6c9,17,20,27,32.8,29.7c17.5,3.7,33.6-7.2,38.1-10.6l0.2-0.2c1-4.8,1.5-9.8,1.5-14.7
			C159,77.9,158.9,75.8,158.7,73.8z"/>
	</g>
</g>
</svg>
