<svg xmlns="http://www.w3.org/2000/svg" viewBox="0 0 1022.29 1227.85"><defs><style>.cls-1{fill:#fffad2;}.cls-10,.cls-2{fill:#254437;}.cls-3{fill:#95cca3;}.cls-4{fill:#c7dea4;}.cls-5{fill:#cae4c1;}.cls-6{fill:#72ad77;}.cls-7{fill:#336550;}.cls-8{fill:#274437;}.cls-9{fill:#2ea278;}.cls-10{stroke:#254437;}.cls-10,.cls-13{stroke-miterlimit:10;}.cls-11{fill:#c6e0bf;}.cls-12,.cls-13{fill:none;}.cls-13{stroke:#c6e0bf;stroke-width:2px;}</style></defs><g id="Binary_tree" data-name="Binary tree"><path class="cls-1" d="M775.84,228.08c5.71-12,12.26-31.68,18-43.68,5.29-11.11,10.72-23.13,8.66-35.26s-15.34-23-26.49-17.79c-8.78,4.1-11.46,15.1-12.89,24.68a696,696,0,0,0-6.83,69.56"/><path class="cls-1" d="M778,229.35c5.92-12.49,10.16-25.7,15.6-38.4,3-7.13,6.73-14,9.16-21.36s3.86-16.08,1.49-23.79c-3.68-12-17.45-22.73-30-16.38-5.8,2.93-9.17,8.83-11.12,14.8-2.28,7-3,14.47-3.95,21.72q-3.54,26.4-5.08,53-.2,3.33-.35,6.64c-.16,3.22,4.84,3.21,5,0q1.22-25.2,4.23-50.28c.93-7.7,1.78-15.47,3.28-23.08,1.06-5.45,2.64-11.4,6.56-15.54a12.74,12.74,0,0,1,14-3.27c5.24,1.87,9.43,6.43,11.72,11.4,2.91,6.3,2.09,13.85.32,20.34-2,7.3-5.47,14-8.54,20.84-5.4,12.1-9.55,24.71-14.85,36.85-.59,1.33-1.19,2.66-1.81,4a2.56,2.56,0,0,0,.9,3.42,2.52,2.52,0,0,0,3.42-.89Z"/><path class="cls-2" d="M369.36,914.05c-2.05,64.14-16.64,129.48-53,182.38s-96.86,91.55-161,90.9a22.87,22.87,0,0,1-8.6-1.28c-7.06-3-9.75-11.87-8.83-19.47s4.48-14.61,6.28-22c2.3-9.49,1.7-19.39,1.86-29.15,1.32-78.2,58.25-152.26,133.48-173.65,33.75-9.6,72.59-10.74,97.65-35.29"/><path class="cls-2" d="M366.86,914.05a418.41,418.41,0,0,1-11.19,85.65c-6.79,27.82-17,54.87-31.44,79.65a228.12,228.12,0,0,1-50.8,60.51c-19.67,16.38-42.38,29.39-66.82,37.12a166.24,166.24,0,0,1-37.07,7.35c-3.29.27-6.59.42-9.89.48s-6.75.28-10-.45c-5.66-1.29-8.57-6.51-9.3-11.94-.92-6.84,1.8-13.54,4-19.89a69.45,69.45,0,0,0,3-11,86.49,86.49,0,0,0,1.1-12c.2-7.13,0-14.27.4-21.4a164.92,164.92,0,0,1,2-17.74,184.24,184.24,0,0,1,25.74-66.62A191.37,191.37,0,0,1,225.1,971.4a173,173,0,0,1,65.51-29.95c24.81-5.88,51.39-8.78,73.7-22.05a78.64,78.64,0,0,0,14.63-11.18c2.31-2.25-1.23-5.78-3.53-3.54C356.62,923,329.75,928,305,933.17c-12.66,2.66-25.33,5.4-37.51,9.82a178.3,178.3,0,0,0-33.11,16.09,195.15,195.15,0,0,0-53.82,50A192,192,0,0,0,149,1075.29a174.79,174.79,0,0,0-5.33,36.47c-.3,7.6.1,15.23-.47,22.82a58.67,58.67,0,0,1-2.07,11.76c-1.09,3.76-2.52,7.42-3.69,11.16-2,6.37-3.1,13.11-1.08,19.62,1.91,6.16,6.43,11.12,13,12.25a55.7,55.7,0,0,0,10.33.44c3.3-.06,6.6-.21,9.89-.48a168.39,168.39,0,0,0,19.75-2.74c25.69-5.1,50.1-16.11,71.6-31a226.42,226.42,0,0,0,56.16-55.8c16.74-23.75,29.08-50.46,37.72-78.16,8.74-28,13.71-57.17,16-86.42q.81-10.59,1.14-21.19c.1-3.22-4.9-3.22-5,0Z"/><circle class="cls-3" cx="671.74" cy="193.58" r="67.45"/><path class="cls-4" d="M731.45,188.72a15.44,15.44,0,0,1-10.12,3.89h-.25c-9.05-.15-18.54-8.23-28.2-24-7.39-12-16.84-19.36-28.08-21.94-16.65-3.81-32.55,4-37,6.47a59.44,59.44,0,0,0-12.49,20.39c6.32-4,18-9.62,30.93-7.44,11.9,2,22.1,10.13,30.32,24.17,6.8,13.46,15.15,21.32,24.89,23.45,13.27,2.92,25.48-5.67,28.9-8.37l.17-.13a59.32,59.32,0,0,0,1.15-11.62C731.67,191.94,731.58,190.33,731.45,188.72Z"/><path class="cls-5" d="M665.71,142.73c12.34,2.83,22.65,10.83,30.64,23.77,11.07,18.1,19.59,22,24.79,22.08h.18c5.52,0,8.86-4.16,9.49-5A60.06,60.06,0,0,0,638,144.4C645.51,142,655.39,140.37,665.71,142.73Z"/><path class="cls-6" d="M636.91,198.51c9.05.7,17.1,8.19,23.94,22.26,6.34,12.56,14.49,20.11,24.23,22.42,11.41,2.7,22.1-2.54,26.45-5.11a59.57,59.57,0,0,0,17.62-27.41c-4.79,3.11-12.91,7.27-22.16,7.27a29,29,0,0,1-6.33-.68c-10.87-2.38-20.07-10.89-27.33-25.28-7.58-12.95-16.91-20.49-27.68-22.31-15-2.51-28.61,6.88-32.06,9.5a59.15,59.15,0,0,0,.7,31.35C617.77,206.35,626.36,197.67,636.91,198.51Z"/><path class="cls-7" d="M691.73,247.6a33,33,0,0,1-7.51-.86c-10.83-2.57-19.8-10.77-26.66-24.36-6.24-12.84-13.27-19.63-20.93-20.23-11-.89-20.19,11.48-20.94,12.51A60.14,60.14,0,0,0,698.19,247,36.32,36.32,0,0,1,691.73,247.6Z"/><path class="cls-2" d="M401.58,870.62c-16.7-20.25-44.48-30.72-70.39-26.55-11.62,1.87-22.65,6.43-33.1,11.86-52.82,27.45-95.48,78.48-154.49,86.27-3.44.46-7.08.73-10.26-.67-7.2-3.17-8.26-13.93-3.55-20.24s13-8.81,20.87-9.42,15.81.25,23.57-1.12c16.54-2.91,29.49-15.26,42.58-25.78,32.82-26.37,74.22-44.25,116.24-41.49,7.76.51,24.1-3.52,29.26,2.3"/><path class="cls-8" d="M403.35,868.85a79.39,79.39,0,0,0-47.21-27,77.64,77.64,0,0,0-28.31.28c-10.87,2.15-21.2,6.54-31,11.63-16.5,8.57-31.76,19.28-46.77,30.19s-29.74,22-45.48,31.77c-15.24,9.42-31.47,17.45-49,21.69a107.52,107.52,0,0,1-13.2,2.43c-4,.45-8.72.43-11.18-3.19a12,12,0,0,1-1.49-9.33,14.2,14.2,0,0,1,6.61-8.71c8.71-5.48,19.47-4.3,29.27-4.58a54.07,54.07,0,0,0,16-2.63,63.65,63.65,0,0,0,13.1-6.35c8.45-5.29,15.91-11.95,23.65-18.18a209.74,209.74,0,0,1,25.17-17.39c17.56-10.33,36.75-18,56.84-21.64a134.82,134.82,0,0,1,29.88-2,89.09,89.09,0,0,0,11.08-.19,88.59,88.59,0,0,1,11.63-.5,18.16,18.16,0,0,1,4.56.68,5.8,5.8,0,0,1,3,1.73c2.19,2.36,5.72-1.18,3.54-3.54-2.45-2.65-6.16-3.45-9.6-3.77a67.49,67.49,0,0,0-11.89.3,77.92,77.92,0,0,1-10.69.37,130.79,130.79,0,0,0-15.59,0c-20.82,1.26-41.11,7.15-59.91,16.07a201.53,201.53,0,0,0-27.11,15.61c-8.6,5.86-16.53,12.53-24.62,19.06-7.5,6-15.53,12-24.76,15a53.23,53.23,0,0,1-16.12,2.35c-5.7.08-11.4-.09-17.06.74-8.79,1.31-18.36,5.73-21.39,14.74-2.56,7.64.35,17.42,8.66,19.87,5,1.46,10.57.25,15.56-.64A124.66,124.66,0,0,0,163,940.61a157.8,157.8,0,0,0,25.36-10.09c16.77-8.3,32.21-19,47.33-29.95,15.4-11.14,30.56-22.67,46.69-32.75,17.07-10.65,36.08-21.05,56.6-22.07a75.35,75.35,0,0,1,51.18,17,73.63,73.63,0,0,1,9.63,9.63,2.52,2.52,0,0,0,3.54,0,2.55,2.55,0,0,0,0-3.53Z"/><path class="cls-2" d="M359.15,843.16c-73.27,0-123.35,37.5-163.7,58.47-35.4,18.4-65.67,20.7-65.66,19.66.25-22.43,12.24-55.18,28.32-69.66,6.52-5.88,14.06-10.61,20.15-16.94,14.43-15,19.21-37.15,33.15-52.58,16.06-17.77,41.46-23.63,65.36-25.12,18.17-1.13,37.58.08,52.53,10.47,28.31,19.68,28.78,62.49,52,87.95"/><path class="cls-2" d="M359.15,840.66a220.61,220.61,0,0,0-69.7,11.58c-19.56,6.54-38.14,15.57-56.19,25.48C216.47,887,200.15,897.3,182.59,905A189.53,189.53,0,0,1,150.21,916c-3.82.91-7.68,1.7-11.57,2.3l-1.19.17-.52.07c.64-.08,0,0-.13,0l-2,.23c-1,.1-2,.19-3,.22h-1.3c-.56,0,.3,0,.28,0l-.18,0a2.17,2.17,0,0,1,1,.59c1,1,.69,2.49.72,1.1,0-1.17.08-2.33.16-3.5a93.42,93.42,0,0,1,2.21-14.41,122.1,122.1,0,0,1,11.11-30.25,83.5,83.5,0,0,1,7.91-12.43,66.17,66.17,0,0,1,11-10.71c5.05-4,10.35-7.81,14.9-12.43A73.24,73.24,0,0,0,190,823.08c5.86-9.74,10.18-20.33,16.25-30a62.6,62.6,0,0,1,23.92-22.3c9.81-5.19,20.71-8.08,31.63-9.77a150.08,150.08,0,0,1,35-1.54c11.48.92,22.93,4,32.32,10.88,7.54,5.54,13.1,13.28,17.48,21.45,9.33,17.37,14,36.93,24.35,53.79a77.55,77.55,0,0,0,8.61,11.53c2.17,2.39,5.7-1.15,3.54-3.53-13.52-14.88-19-35-26.82-53.07-3.89-9-8.44-17.83-14.83-25.36a56.79,56.79,0,0,0-27.33-17.63c-11.78-3.51-24.34-3.85-36.53-3.14a144.78,144.78,0,0,0-34.34,5.69c-10.92,3.37-21.36,8.6-29.81,16.38-8.65,8-14.25,18.32-19.51,28.67s-10.36,20.87-18.7,29c-4.7,4.58-10.08,8.36-15.16,12.49a64.8,64.8,0,0,0-10.92,11.16c-6.53,8.54-11.26,18.44-14.89,28.52a114,114,0,0,0-6.83,31.14c-.13,1.87-.81,4.87,1.14,6a4.62,4.62,0,0,0,2.26.47,37.43,37.43,0,0,0,6.16-.48,155.47,155.47,0,0,0,25.74-5.77A207.64,207.64,0,0,0,198.2,903c7.71-4.06,15.27-8.4,22.85-12.71,17.26-9.8,34.66-19.43,53-27,21.18-8.73,43.49-14.78,66.35-16.81q9.33-.82,18.72-.83c3.22,0,3.22-5,0-5Z"/><path class="cls-2" d="M433.69,823c-14.93-20.53-51.2-23.83-70.7-8.1-1.18.95-25.32-42.14-38.65-52-2.46-1.83,78.75,25,77.24,25.9"/><path class="cls-8" d="M435.85,821.7c-6.87-9.37-17.41-15.24-28.64-17.74s-23.65-2-34.44,2.41a46.38,46.38,0,0,0-7.63,3.88c-.59.37-1.17.77-1.74,1.18s-1.73,1-1.94,1.47c.17-.4,1.19-.44,1.48-.44a2,2,0,0,1,1.19.24l-.07-.05c.83.51.41.37.22.13s-.19-.23-.29-.34c-.41-.45.37.51,0-.05s-.61-.85-.91-1.29c-.85-1.22-1.66-2.47-2.47-3.72-5.17-7.94-10.21-16-15.6-23.75-3-4.31-6.05-8.55-9.32-12.64a63.73,63.73,0,0,0-8.37-9c-.29-.25-.6-.49-.9-.73s-.54-.37-.78-.59c.85.79,2.14,1.58.85,3.34l-.9.9a2,2,0,0,1-1.66.26,3.86,3.86,0,0,0,.49.1c.57.12,1.12.28,1.68.44,1.93.53,3.84,1.12,5.75,1.71,6.12,1.88,12.21,3.85,18.3,5.84,13.69,4.47,27.38,9,40.94,13.87,2.34.84,4.69,1.69,7,2.6l1.11.46c-.76-.3,0,0,.37.17.18.08.36.21.54.27s.54.56-.31-.27a2.53,2.53,0,0,1,.56-3.79,2.57,2.57,0,0,0-.9,3.42,2.52,2.52,0,0,0,3.42.9,2.63,2.63,0,0,0-.15-4.52,9,9,0,0,0-1.21-.59c-2-.86-4-1.61-6-2.36-6.51-2.4-13.08-4.64-19.65-6.87q-12-4.08-24-8c-6.56-2.14-13.12-4.26-19.71-6.28-1.88-.57-3.76-1.15-5.65-1.64a9.08,9.08,0,0,0-1.91-.37,2.55,2.55,0,0,0-2.36,3.79,3.09,3.09,0,0,0,.93.94c.37.28-.22-.19,0,0s.37.29.55.44c.65.54,1.27,1.11,1.88,1.69,1.44,1.39,2.79,2.87,4.1,4.39,3.14,3.64,5.72,7.1,8.54,11.06,5.64,7.91,10.88,16.1,16.13,24.27,1.65,2.56,3.27,5.16,5,7.63a13.75,13.75,0,0,0,1.65,2.07,3,3,0,0,0,2,.87c1.36,0,2.34-1.19,3.34-1.89,8.9-6.24,20-8.51,30.72-7.92,10.49.57,21.44,4.12,29.4,11.14a35.84,35.84,0,0,1,5.12,5.51,2.58,2.58,0,0,0,3.42.9,2.51,2.51,0,0,0,.9-3.42Z"/><path class="cls-2" d="M422.34,812.82c-5.38-21-26.11-31.87-32.72-43s-15.77-21.63-28.14-25.45c-19.52-6-39.6,6-56.49,17.5"/><path class="cls-8" d="M424.75,812.16c-2.46-9.45-8.1-17.47-14.75-24.46-3-3.15-6.17-6.1-9.31-9.1-1.42-1.35-2.82-2.71-4.18-4.13-.59-.62-1.18-1.26-1.75-1.9l-.81-1c-.12-.15-.74-.92-.51-.62-1.23-1.61-2.21-3.39-3.29-5.1-1.53-2.39-3.18-4.69-4.93-6.92a57.37,57.37,0,0,0-11.72-11.36c-9.64-6.87-21.4-8.71-32.87-6.24C327.1,744.3,315,752,303.73,759.71c-2.65,1.8-.15,6.13,2.52,4.32,17.64-12,41.31-26.61,62.33-13.68a48.82,48.82,0,0,1,11.37,10c3.15,3.7,5.52,7.81,8.23,11.82,4.23,6.27,10.38,11.1,15.7,16.39,7.12,7.07,13.47,15,16.05,24.89.82,3.11,5.64,1.79,4.82-1.33Z"/><path class="cls-2" d="M553.17,897.39c-33,1.77-58.56,28.54-79.84,53.85-20.55,24.47-41,50-51.49,80.2-9.59,27.53-10.36,57.23-11,86.37-.07,2.65,0,5.69,2.09,7.37a8.47,8.47,0,0,0,4.36,1.46c24.94,3.19,50.07-5.3,72-17.53a218.43,218.43,0,0,0,88.82-93.24c5.91-11.92,10.74-24.49,12.77-37.64,5.63-36.32-10.36-72.12-26-105.41"/><path class="cls-8" d="M553.17,894.89c-19.75,1.12-37.2,11-51.95,23.58-15.54,13.28-28.64,29.38-41.42,45.25-13.74,17.07-26.72,35-35.64,55.16-9.45,21.32-13.2,44.27-14.69,67.41-.37,5.85-.61,11.69-.8,17.55q-.14,4.38-.24,8.76a66.41,66.41,0,0,0-.06,8c.26,2.62,1.07,5.14,3.27,6.76s5,1.76,7.65,2a88.31,88.31,0,0,0,16.66.09c22.29-1.93,43.39-11.1,62.3-22.69a221.35,221.35,0,0,0,80.76-87.1A151.55,151.55,0,0,0,591.45,988a104.29,104.29,0,0,0,2.7-34.22c-1.95-23.36-10.46-45.51-19.94-66.73-2.32-5.19-4.71-10.33-7.12-15.47a2.52,2.52,0,0,0-3.42-.9,2.57,2.57,0,0,0-.9,3.42c9.61,20.52,19.17,41.39,24,63.65a116,116,0,0,1,2.55,32.86,108.09,108.09,0,0,1-7.93,32.12,202.45,202.45,0,0,1-30.49,51.17,217.19,217.19,0,0,1-42,39.83c-16.79,12.08-35.48,22.35-55.57,27.65a95.84,95.84,0,0,1-32,3.19c-1.35-.1-2.72-.21-4.06-.41a5.82,5.82,0,0,1-2.79-.89c-1.34-1.12-1.19-3.53-1.17-5.08.08-5.65.26-11.3.46-16.94.79-22.63,2.63-45.49,9.81-67.11,6.7-20.21,18.12-38.47,30.83-55.41,6.43-8.56,13.25-16.82,20.13-25,6.21-7.39,12.55-14.69,19.35-21.55,13-13.09,28.14-25.23,46.25-30.13a63.94,63.94,0,0,1,13-2.12c3.2-.18,3.22-5.18,0-5Z"/><path class="cls-2" d="M623.89,843c20.25,14,45.74,19.63,67.06,31.88,17.15,9.86,21.36,32.3,23.79,51.93-4.34-7.21-14.06-8.89-22.47-8.49s-17.22,2.06-25-1.21c-4.19-1.77-7.68-4.85-11.08-7.87-15.45-13.73-26.35-47.44-41.8-61.17-1.38-1.22-3.14-9.18-2.26-10.79s4.09,7.22,2.28,7.55"/><path class="cls-8" d="M622.63,845.15c15.64,10.73,33.88,16.47,51.11,24,4.34,1.89,8.63,3.91,12.81,6.15a40.28,40.28,0,0,1,9.51,6.58c5.28,5.19,8.66,12,10.94,19,2.76,8.42,4.15,17.22,5.24,26l4.66-1.26c-3-4.8-8-7.62-13.4-8.84-5.94-1.35-11.9-.87-17.92-.42-6.52.48-13.41.83-19.31-2.47a48,48,0,0,1-12.53-10.73c-6.76-7.89-11.67-17.43-16.7-26.5S626.85,857.91,619.85,850c-.84-1-1.71-1.87-2.63-2.75l-.62-.57c-.18-.17-.73-.85-.28-.17a7.06,7.06,0,0,1-.52-1c.22.52-.08-.23-.09-.28l-.33-1c-.16-.55-.3-1.11-.43-1.66a17.68,17.68,0,0,1-.51-3.18,9.13,9.13,0,0,1,0-1.28c-.06.69-.05.19,0,0a2.3,2.3,0,0,1-3.44.89c.31.21-.23-.53-.07-.1.06.14.18.28.25.42a4.74,4.74,0,0,1,.26.5c.3.59,0,0,.16.37a19.22,19.22,0,0,1,.81,2.78c0,.12.06.5,0-.07,0,.23,0,.47,0,.7s-.17.56,0-.09c-.07.26,0,.17.14-.27a2,2,0,0,1,1.12-.88c-3.09.86-1.78,5.68,1.33,4.82,4.37-1.22,1.8-8.32.18-10.81a3.81,3.81,0,0,0-2.18-1.76,2.91,2.91,0,0,0-3.45,2.17c-.64,2.11,0,4.71.41,6.79s1,4.54,2.51,6.12c1.63,1.75,3.39,3.32,4.92,5.16a102.89,102.89,0,0,1,9,13.23c6.08,10.22,11.31,21,18,30.84a63.69,63.69,0,0,0,9.81,11.84,60.6,60.6,0,0,0,8.4,6.67,26.42,26.42,0,0,0,10.3,3.7c8,1.12,15.91-.78,23.9-.37,5.84.31,12.46,2,15.73,7.25a2.55,2.55,0,0,0,2.82,1.15,2.5,2.5,0,0,0,1.84-2.41c-2-15.78-4.6-33-15-45.63-5.58-6.76-13.46-10.63-21.27-14.25-8.85-4.11-18-7.57-27-11.3-10-4.12-19.84-8.67-28.76-14.79a2.52,2.52,0,0,0-3.42.89,2.55,2.55,0,0,0,.89,3.42Z"/><path class="cls-2" d="M638.49,605.56c-18-11.64-50.13,4.05-66.14,18.34s-27.05,33.48-43.05,47.79c-14.38,12.86-32.15,21.23-49.89,28.81-15.7,6.72-31.84,13-48.83,14.75s-35.11-1.64-48.28-12.5c-4.81-4-9.11-9.6-8.54-15.82.45-5,3.95-9.17,7.28-12.95l39.62-45c6-6.79,12-13.61,18.88-19.49,17.45-14.9,39.64-23.08,61.88-28.71,18.39-4.65,39.17-7.41,55.27,2.63,8.26,5.16,14.64,13.38,23.73,16.88,9.58,3.68,20.6-2.15,30.49.62,17.26,4.83,35.9,11.74,28,8.91-3.86,1.23,5.22-4.36,5.47-.32"/><path class="cls-8" d="M639.76,603.4c-7.07-4.49-15.64-5-23.72-3.82-9,1.29-17.61,4.73-25.58,8.93a99.71,99.71,0,0,0-21.59,15.18c-7.8,7.29-14.44,15.68-21.13,24s-13.53,16.55-21.63,23.52c-8.28,7.13-17.71,12.81-27.43,17.74-9.88,5-20.1,9.43-30.39,13.52-10.79,4.29-21.89,8-33.4,9.77a76.09,76.09,0,0,1-30.06-1.1c-9.22-2.33-18.91-6.87-25.06-14.38-3-3.69-4.59-8.36-2.66-12.94,2.05-4.86,6.38-8.8,9.81-12.69l24.62-27.94c7.94-9,15.63-18.34,24.22-26.75a108.16,108.16,0,0,1,26.07-18.67,168.58,168.58,0,0,1,29.53-11.55c10-3,20.29-5.65,30.71-6.64,9.91-.95,20.39-.45,29.5,4s15.34,12.59,24.11,17.38A26.57,26.57,0,0,0,590.46,604c5.1-.33,10.15-1.5,15.28-1.32a31.08,31.08,0,0,1,7.55,1.54c2.69.78,5.38,1.6,8.06,2.43q6.58,2.07,13.11,4.29l4.06,1.4,1.1.39c.3.11,1.07.45-.08-.06l1.93-4.57c-.32-.09-.64-.22-1-.34a4.8,4.8,0,0,0-1.57-.41,3.47,3.47,0,0,0-1,.19l-.26.06a2.07,2.07,0,0,1,1.6.24l.89.9v0l.34,1.26c0-.13-.87,2-.55,1.52,0-.07-.53.28-.2.16a4.88,4.88,0,0,0,.58-.34c.23-.13.48-.25.72-.36-.54.25.33-.12.51-.17s.57-.15.86-.23-.61,0,0,0c.11,0,.24,0,.35,0,.48,0-.32-.08-.1,0s-.47-.35-.13-.06c-.5-.42-.57-.65-.6-.94a2.56,2.56,0,0,0,2.5,2.5,2.52,2.52,0,0,0,2.5-2.5c-.47-4.59-5-4.41-8.3-2.94-1.2.54-2.63,1.29-3,2.65-.76,2.61,2,3.64,4,3h-1.33c.61.22,1.22.49,1.85.66,2.64.7,4.59-3.38,1.93-4.57-2-.88-4.1-1.49-6.14-2.18q-6.7-2.3-13.47-4.41c-5.27-1.64-10.73-3.77-16.28-4.06-5.2-.26-10.33.93-15.5,1.28a24.22,24.22,0,0,1-7.31-.38,23,23,0,0,1-6.64-2.91c-4.24-2.59-7.88-6-11.69-9.15a53.26,53.26,0,0,0-13.23-8.4,52,52,0,0,0-15.27-3.71c-10.52-1-21.2.58-31.43,2.92A220.46,220.46,0,0,0,474,586.82,132.27,132.27,0,0,0,445.18,602c-9.44,6.73-17.31,15.1-24.95,23.75Q407.68,640,395.16,654.19l-12.67,14.38c-3.67,4.16-7.88,8.28-10,13.48-4.42,10.7,4.11,20.1,12.4,25.7,8.64,5.84,18.87,8.91,29.17,10,23,2.43,45.2-5.94,66-14.79,20.43-8.72,40.69-18.55,56.43-34.62,14.61-14.91,25.47-33.64,42.23-46.41A98.65,98.65,0,0,1,602,608.65c8-3.14,16.83-5.51,25.45-4.4a23.71,23.71,0,0,1,9.79,3.46c2.73,1.73,5.24-2.59,2.53-4.31Z"/><path class="cls-2" d="M630.81,603.39c-10.11-10.47-28.74-7.12-39.74-16.64-7.35-6.36-9.45-16.89-15.49-24.5-14.71-18.55-43.79-12.54-66.15-4.78l-92.64,32.11c-10.76,3.72-22.08,7.5-33.29,5.58-13.85-2.38-25-13.3-31.35-25.83s-8.6-26.67-10.8-40.54c24.21-6.13,37.41-31.19,52-51.44,10.57-14.64,23.51-28,39.57-36.27s35.55-11,52.39-4.44c10.51,4.06,19.43,11.4,27.34,19.42,23.39,23.74,39.26,54.09,62.9,77.57,4.1,4.07,8.53,8.07,10.92,13.34,4.86,10.68.43,24.58,7.47,34,9.08,12.11,32.45,10,36.4,24.62"/><path class="cls-2" d="M632.58,601.62c-7.3-7.4-18-8.4-27.51-11-4.48-1.2-9.05-2.81-12.56-6-4-3.61-6.34-8.59-8.69-13.35s-5-9.62-8.8-13.48a33.93,33.93,0,0,0-11.92-7.59c-9.35-3.58-19.82-3.21-29.56-1.7-10.87,1.7-21.23,5.26-31.59,8.85l-40.6,14.07-40.87,14.16c-12.23,4.24-25.73,9.87-38.86,6.56-10.41-2.63-18.87-10.31-24.51-19.21-6.72-10.61-9.64-23.12-11.78-35.35-.56-3.17-1.06-6.35-1.57-9.53L342,531.2c25.34-6.54,38.7-31.85,52.78-51.58,16.59-23.23,40.74-44.38,70.91-44.12a52.28,52.28,0,0,1,21.06,4.43,72.34,72.34,0,0,1,18.46,12.46c11.08,10,20.37,21.79,29.23,33.72,9,12.15,17.68,24.6,27.41,36.21,4.84,5.78,10.07,11.13,15.38,16.49a35.89,35.89,0,0,1,6.44,8.13,25.66,25.66,0,0,1,2.62,9.29c.74,6.55.31,13.4,2.38,19.74a22.79,22.79,0,0,0,10.45,12.68c4.51,2.66,9.56,4.29,14.43,6.13,4.13,1.56,8.53,3.32,11.55,6.45a11.49,11.49,0,0,1,2.83,5c.87,3.09,5.7,1.78,4.82-1.33-2.95-10.45-14.26-13.51-23.25-16.94-4.42-1.68-9-3.64-12.36-7.1-4.37-4.54-4.93-11.08-5.29-17.08-.42-6.75-.69-13.73-4.09-19.77-3.67-6.54-9.9-11.38-15-16.8-10.44-11.19-19.4-23.61-28.41-36s-18.12-24.69-28.75-35.7C505.25,444.76,493,435.06,478,431.85s-30.85-.43-44.58,6.19c-13.16,6.36-24.43,16.25-33.85,27.32-8.81,10.36-15.87,22-23.9,33-7.22,9.85-15.57,19.52-26.7,25a43.23,43.23,0,0,1-8.3,3,2.56,2.56,0,0,0-1.75,3.07c2,12.88,4.19,25.85,9.5,37.85,4.52,10.21,11.74,19.56,21.41,25.34A38.69,38.69,0,0,0,386.21,598c6.78.63,13.64-.62,20.15-2.44,6.88-1.93,13.6-4.45,20.36-6.79l20.16-7,40.87-14.17c11.87-4.11,23.69-8.73,35.87-11.87,9.57-2.47,19.77-4.19,29.65-2.82a34.28,34.28,0,0,1,12.86,4.3,28.75,28.75,0,0,1,9.87,10c2.83,4.69,4.8,9.84,7.72,14.48a28,28,0,0,0,11.45,10.64c9,4.37,19.47,4.24,28.35,8.78a20.92,20.92,0,0,1,5.52,4c2.26,2.29,5.8-1.24,3.54-3.54Z"/><path class="cls-2" d="M634.93,591.74c17.65,3.67,35.53,7.43,51.62,15.55s30.47,21.27,36.09,38.4c8.55,26-4.48,54.17-3.19,81.56.67,14,4.71,29.68-3.59,41-5.32,7.27-14.38,10.57-22.89,13.49-6.46-9-16.79-14.32-26.11-20.37-17.51-11.37-32.72-26.89-41.41-45.87s-10.39-41.57-2.27-60.8c4.21-10,10.87-18.81,14.37-29s3-23.08-5.33-30c-2.57-2.15-5.9-3.79-7.14-6.91s-3.52-8.13-.83-6.11"/><path class="cls-2" d="M634.26,594.15c17.72,3.69,35.86,7.4,52,15.82,13.23,6.89,25.21,17.17,31.7,30.83,7.43,15.62,5.14,33.34,2.52,49.82-1.42,8.92-3,17.85-3.5,26.88-.48,8.36.55,16.53,1.19,24.84.56,7.42.79,15.51-3,22.22s-10.62,10.21-17.46,12.81c-1.82.69-3.67,1.33-5.51,2l2.82,1.15c-4.76-6.6-11.29-11.36-18.09-15.67-6.62-4.19-13.28-8.23-19.39-13.15-12.21-9.83-22.66-21.94-29.44-36.14-7.08-14.84-9.77-32.19-6.31-48.36a63.66,63.66,0,0,1,3.62-11.6,121.22,121.22,0,0,1,5.89-11.52c4-7.13,8.23-14.45,9.87-22.54,1.42-7.07,1.15-14.74-2.21-21.24a23,23,0,0,0-7-7.89,18.86,18.86,0,0,1-3.92-3.31,14.56,14.56,0,0,1-1.75-3.77c-.26-.64-.5-1.29-.7-1.95a6.69,6.69,0,0,0-.21-.8c.06.13-.05.47,0,.13a2,2,0,0,1-.23.83l-.89.9a2,2,0,0,1-1.81.11,3.74,3.74,0,0,1,.42.27,2.51,2.51,0,0,0,3.42-.89,2.56,2.56,0,0,0-.9-3.42c-1.45-1-3.6-1.18-4.61.58-.78,1.37-.26,3,.22,4.41.56,1.59,1.19,3.17,1.88,4.7a12,12,0,0,0,3.67,4.39c2.74,2.19,5.54,4,7.4,7A21.54,21.54,0,0,1,637,611c.65,7.81-1.83,15.13-5.3,22-4,8-8.92,15.41-12,23.8-6.08,16.53-5.36,35.24.33,51.77,5.45,15.8,15.44,29.75,27.66,41a137.41,137.41,0,0,0,19.63,15c6.82,4.32,14,8.29,19.78,14a36,36,0,0,1,3.74,4.34,2.57,2.57,0,0,0,2.82,1.15c7.63-2.62,15.63-5.47,21.5-11.25s8.17-14,8.37-22.17c.2-8.38-1.37-16.67-1.61-25-.25-9.09,1-18.13,2.4-27.09,2.81-17.79,6.56-36.56.58-54.13-5.19-15.23-16.87-27.31-30.38-35.62-15.75-9.69-34-14.25-51.94-18.07l-7-1.47a2.56,2.56,0,0,0-3.07,1.75,2.53,2.53,0,0,0,1.74,3.08Z"/><path class="cls-2" d="M662.31,401.07C651.8,388,639,373.75,622.25,373.5c-16.48-.25-29.47,13.06-41.54,24.28s-28.91,21.83-44,15.27a85.68,85.68,0,0,0,26.13-31.67c6.42-13.39,10-29.31,21.94-38.11,12.19-8.95,31.27-6.43,40.71,5.38,3.12,3.9,5.2,8.52,8,12.65,8.69,12.76,23.42,19.79,37.46,26.23"/><path class="cls-8" d="M664.08,399.3c-11.69-14.52-26.86-31-47.41-27.88-9.71,1.45-18.12,7.24-25.46,13.43-7.68,6.47-14.46,14-22.82,19.65-8.69,5.86-20.06,10.8-30.44,6.39v4.32a88.7,88.7,0,0,0,26.3-31.09c5.42-10.75,8.3-23.12,15.8-32.74a27.6,27.6,0,0,1,13.07-9.61,28.91,28.91,0,0,1,15.49-.61,27.16,27.16,0,0,1,13.55,7.49,41.07,41.07,0,0,1,5.5,7.88,75.5,75.5,0,0,0,5.92,9.07c9.16,11.57,23,18.08,36.09,24.09a2.58,2.58,0,0,0,3.43-.9,2.53,2.53,0,0,0-.9-3.42c-11.81-5.42-24.19-11.1-33.06-20.91-4.8-5.31-7.44-12-11.9-17.58a31,31,0,0,0-14.09-9.62,32.83,32.83,0,0,0-32.44,6.1c-9.46,8.42-13.22,21.07-18.05,32.33a85.45,85.45,0,0,1-27.23,35.2c-1.31,1-1.93,3.5,0,4.32a28.27,28.27,0,0,0,14.73,2.11,43.31,43.31,0,0,0,14.65-4.84c9.14-4.79,16.47-11.9,24-18.82,6.9-6.36,14.4-13,23.43-16a29.12,29.12,0,0,1,13.38-1.41,32.89,32.89,0,0,1,12.07,4.44c9.18,5.45,16.26,13.93,22.87,22.15a2.51,2.51,0,0,0,3.54,0,2.55,2.55,0,0,0,0-3.53Z"/><path class="cls-1" d="M539.9,700.38c-10.64,14.79-21.67,29.73-36.46,40.34s-34.22,16.38-51.53,10.74l-.45,13.86,20.86-4.39c-19.71,40.43-40.79,82.53-77.27,108.83-11.19,8.06-9.94,15.27-22.77,22.82-5.07,3-16.6,5.13-25.47,8.74,12.76,8.53,30.36,5.13,42.3-8.45,22.22-25.26,51.05-44.22,69.79-72.16,7.89-11.75,16.73-23.17,24.61-34.93,15.15-22.6,36.15,12.78,41.22,9.55C526,794.54,508.29,777,509.17,771c.12-.85,9-10,9.95-10.32"/><path class="cls-1" d="M537.74,699.12c-16,22.19-34.5,46.43-63.2,51.34a46.32,46.32,0,0,1-22-1.41,2.53,2.53,0,0,0-3.16,2.41L449,765.32a2.53,2.53,0,0,0,3.16,2.41L473,763.34l-2.82-3.67c-11.47,23.52-23.12,47.15-38.34,68.52a183.83,183.83,0,0,1-25.22,28.93c-2.35,2.15-4.77,4.24-7.26,6.24s-5.25,3.9-7.79,5.95c-4.34,3.5-7.28,8-10.6,12.39a31.16,31.16,0,0,1-14.13,10.56c-6.83,2.4-13.94,3.93-20.67,6.65a2.54,2.54,0,0,0-.6,4.57c9.3,6.13,20.93,6.27,30.95,1.86a41.73,41.73,0,0,0,14.11-10.4c4.29-4.78,8.7-9.42,13.3-13.9,18.36-17.85,38.8-33.81,54-54.62,4.14-5.65,8-11.53,12.05-17.22,4.25-5.93,8.56-11.81,12.72-17.81,2.72-3.94,5-8.13,9.19-10-.52.24.13-.05.2-.07l.6-.2c.34-.1.67-.19,1-.26l.61-.1c-.64.09,0,0,.14,0,.41,0,.81,0,1.22,0s.81,0,1.22.09c-.65-.07.38.08.55.11a16.89,16.89,0,0,1,2.43.7l.6.23c.67.27-.45-.21.21.09l1,.48c.81.4,1.6.85,2.37,1.32s1.42.91,2.11,1.4c.39.27.76.54,1.14.82l.46.35,0,0,.37.29c2.64,2.09,5.13,4.37,7.66,6.59,2,1.71,4,3.69,6.5,4.59a4.39,4.39,0,0,0,3.55-.13c1.62-.86,1.76-2.67,1-4.16-1.33-2.49-3.53-4.68-5.31-6.85a105.64,105.64,0,0,1-7.06-9.29c-.48-.72-.93-1.46-1.36-2.21-.17-.32-.35-.63-.51-1l-.27-.55c-.31-.63,0,.08-.13-.29-.22-.58-.35-1.15-.52-1.75.2.73.06.11,0-.15s.18-.64-.05.25c-.19.73-.2.59-.08.29,0,0,.13-.16.12-.17l.07-.1c-.26.33-.3.39-.13.18s.44-.54.67-.8c.57-.66,1.15-1.3,1.75-1.94,1.33-1.43,2.7-2.84,4.1-4.21.54-.53,1.08-1,1.64-1.55.2-.17.42-.33.62-.52-.55.52-.36.24-.18.15s.36-.15-.38.13a2.56,2.56,0,0,0,1.74-3.07,2.52,2.52,0,0,0-3.07-1.75,10.75,10.75,0,0,0-3.33,2.52c-1.4,1.33-2.75,2.72-4.07,4.12-1.1,1.17-2.21,2.35-3.21,3.61a4.93,4.93,0,0,0-1.06,4.34c.59,3.22,2.73,6.22,4.59,8.83,2.38,3.35,5,6.53,7.61,9.72.51.61,1,1.23,1.51,1.85l.6.76.33.42.1.13.79,1.14a2.86,2.86,0,0,1,.2.38c-.11.08-.26-.74-.16-.37a2.55,2.55,0,0,1,.83-2.35c.1-.08.93-.39.4-.27.9-.2.5-.05.21-.08,1,.09.33.05.06,0-.67-.2.4.26-.07,0s-.81-.44-1.19-.7l-.71-.5-.25-.19c.61.46,0,0-.13-.11-5.21-4.22-9.87-9.15-15.72-12.55a21.6,21.6,0,0,0-10.11-3.23,15,15,0,0,0-10.25,4,28.25,28.25,0,0,0-4.61,5.61q-3.09,4.58-6.29,9.05c-4.28,6-8.65,12-12.9,18-3.77,5.35-7.31,10.86-11.41,16a190.67,190.67,0,0,1-12.72,14.24c-8.86,9.06-18.38,17.44-27.69,26-4.72,4.35-9.39,8.76-13.89,13.33q-3.39,3.42-6.62,7a72.52,72.52,0,0,1-6.16,6.36c-7.8,6.73-18.69,10.16-28.72,7a25.51,25.51,0,0,1-6.34-3.09l-.6,4.57c6.08-2.45,12.46-4,18.69-6a38.37,38.37,0,0,0,7.37-3,38,38,0,0,0,8-6.07c3.69-3.71,6.17-8.37,9.7-12.2a53,53,0,0,1,7.38-6.23c2.62-2,5.19-4,7.68-6.15,20-17.15,35.1-39.28,47.86-62.15,7.26-13,13.83-26.37,20.35-39.75a2.53,2.53,0,0,0-2.82-3.67l-20.86,4.39,3.17,2.41.45-13.86-3.17,2.42c13.9,4.44,28.91,1.93,41.88-4.18,13.3-6.28,24.21-16.6,33.54-27.79,5.44-6.51,10.44-13.38,15.39-20.26a2.52,2.52,0,0,0-.89-3.42,2.55,2.55,0,0,0-3.42.89Z"/><path class="cls-1" d="M527.51,716.94s26.26-30.23,60.44-94.81c37.3-70.45,5.18-100.74,30-158.84C639.06,413.74,743.27,273,756,223.23c1.82-7.17,22.52-3.23,22.07-1.85a549.78,549.78,0,0,1-70.86,144.16c-24.94,36.14-54.71,70.24-68.23,112-12.36,38.19-3.92,81-16.71,119C599.52,664.1,566.79,714,510.79,769.24c21.69,13.34,47.68,17.59,70.88,28.08,21.75,9.84,46.77,65.78,39.43,43.65-21.58-65-93.84-67-102-80.28"/><path class="cls-1" d="M529.28,718.71c4.27-4.23,7.75-9.7,11.27-14.52,10.33-14.14,19.83-28.89,28.82-43.91,13-21.64,26.44-43.94,34-68.15,5.67-18.21,7-36.92,6.76-55.89-.25-17.68-.71-35.28,3.58-52.59,3.43-13.84,9.5-26.52,16.39-38.93,15.83-28.53,33.91-55.84,51.48-83.31,19-29.76,38.25-59.48,55.42-90.37,6.47-11.65,12.74-23.52,17.65-35.93.93-2.36,1.81-4.75,2.58-7.16.56-1.77.67-4.24,2.32-5.28,2.53-1.61,6.68-1.21,9.51-1a35.21,35.21,0,0,1,4.21.58c.61.12,2.81.83,3,.75.32-.18.07.31,0-.1-.79-2.91-.91-.46-1.21-.07-.79,1-1.14,3.49-1.57,4.75q-1.59,4.75-3.26,9.46-3.27,9.17-6.85,18.21Q756,273.56,747.44,291.3a550.45,550.45,0,0,1-38.37,67c-26.92,40.16-62.46,78-74.67,126-6.37,25.05-5.31,51.12-7.73,76.67a162.87,162.87,0,0,1-7.82,37.77c-3.66,10.68-7.68,21.23-12.16,31.59-17.71,41-42.68,77.92-72.57,111-8.1,9-16.5,17.65-25.09,26.14a2.52,2.52,0,0,0,.5,3.92c14,8.53,29.72,13.48,45.22,18.57,11.76,3.87,25.14,7.08,34.44,15.69,7.35,6.8,13.24,15.11,18.76,23.41,3.78,5.69,7.07,11.81,11.14,17.29,1.26,1.7,3.86,3.66,5.44.93,1-1.78-.25-4.6-.81-6.33a97.49,97.49,0,0,0-16.54-30.89c-12.65-15.78-30.13-26.44-48.56-34.2-8.08-3.4-16.37-6.21-24.55-9.33a69,69,0,0,1-8.27-3.61,12.59,12.59,0,0,1-4.52-3.49c-1.72-2.71-6-.2-4.32,2.52,2.36,3.72,6.8,5.68,10.69,7.35,6.2,2.66,12.62,4.79,18.94,7.15,17,6.38,33.8,14.33,47.32,26.76a90.07,90.07,0,0,1,19.26,25.21,92.07,92.07,0,0,1,6.15,15.18c.17.58.64,2.32.61,2.28-.76-.92,3.64-2.63,3.72-1.79,0-.34-.41-.5-.37-.44-9-13.45-16.91-27.79-28.35-39.39a45.24,45.24,0,0,0-10.68-8.45c-7.22-3.83-15.32-6.37-23-9-16.76-5.63-33.92-10.51-49.15-19.76l.51,3.92c33.07-32.67,62.93-68.67,84.85-109.84a419.45,419.45,0,0,0,26.58-62c8.48-24.88,8.38-51.11,10.1-77,.86-13,2.25-26,5.69-38.6a173.44,173.44,0,0,1,14.3-35c11.7-22.12,26.76-42.2,41.43-62.38,15.16-20.82,29.42-42.17,41.92-64.71a554.48,554.48,0,0,0,33.07-71.09q3.57-9.36,6.8-18.82c1-2.8,2-5.6,2.8-8.45.47-1.64.65-2.88-.78-4-1.75-1.39-4.67-1.68-6.8-2a36.57,36.57,0,0,0-10.6-.23c-2.86.41-6,1.4-7.65,4-1.18,1.93-1.5,4.58-2.21,6.72a146.16,146.16,0,0,1-6.28,15.48c-13.77,29.7-31.67,57.58-49.1,85.22-19.14,30.37-38.92,60.35-57.55,91-7,11.48-13.88,23.06-19.84,35.11a135,135,0,0,0-13.81,48.84c-1.46,17.47.34,35-.66,52.48-1.33,23-8.31,44.76-19,65.11-16.58,31.5-34.9,63-57.19,90.85a38.06,38.06,0,0,1-2.86,3.46c-2.29,2.27,1.25,5.81,3.54,3.54Z"/><path class="cls-1" d="M734.93,322.51c-.08.76,15.06-29.13,15-28.37-1.76,16-7.25,31.4-9,47.43-1.29,11.72,1.15,24.26,2.89,35.92,1.52,10.21,5.63,20.38,12.91,27.56,1,1-13.79-.67-12.62.23"/><path class="cls-1" d="M732.43,322.51a2.42,2.42,0,0,0,.34,1.27,2.49,2.49,0,0,0,2.16,1.24c1.89.1,2.73-2.17,3.46-3.54,1.16-2.19,2.3-4.4,3.45-6.6,2.67-5.16,5.33-10.34,8-15.49.49-.94,1-1.87,1.48-2.79l.46-.83c.43-.8-.29.28-.65.52l-1.26.34h0l-2.16-1.24h0l-.34-1.26a36.85,36.85,0,0,1-.71,5.21q-.5,3-1.1,6c-.78,3.87-1.66,7.72-2.55,11.56a218.44,218.44,0,0,0-4.57,23.9c-.93,8-.2,15.94.87,23.84.54,4,1.18,7.91,1.79,11.86a70.33,70.33,0,0,0,2.16,10.18A52.64,52.64,0,0,0,748,397.66a43.42,43.42,0,0,0,3.32,5c.6.78,1.21,1.55,1.86,2.28.31.36.62.7,1,1l.42.44.28.29c.41.42.26.13-.44-.87v-1.33a2.57,2.57,0,0,1,1.49-1.59c-.36.12.09-.23.32,0-.07-.06-.58,0-.69,0-.68,0-1.36,0-2,0-1.67-.06-3.34-.16-5-.25a31.09,31.09,0,0,0-3.86-.08,3.42,3.42,0,0,0-2.29.83,2.57,2.57,0,0,0,3.57,3.69,2.54,2.54,0,0,0,0-3.54.17.17,0,0,1-.06-.06l.64,1.11.08.61-.34,1.27c-.68,1.26-2,1.23-1.33,1.05.24-.06-.45.08-.45.06a2.41,2.41,0,0,1,.4,0h1.33c1.18,0,2.36.09,3.54.16a47,47,0,0,0,6.5.17c1.54-.14,3.1-.9,3.1-2.71a3.49,3.49,0,0,0-1.36-2.43c-.79-.82-1.55-1.68-2.27-2.57a41.65,41.65,0,0,1-6.46-11.62A68,68,0,0,1,745.91,375c-.79-5.22-1.67-10.43-2.23-15.68a86.42,86.42,0,0,1-.46-15.92,121.39,121.39,0,0,1,2.51-15.63c1.23-5.8,2.65-11.55,3.91-17.33.63-2.93,1.22-5.87,1.72-8.83.26-1.54.49-3.09.69-4.64.19-1.37.6-2.79,0-4.1a2.47,2.47,0,0,0-2.16-1.24c-1.89-.09-2.73,2.18-3.46,3.54-1.16,2.19-2.3,4.4-3.45,6.6-2.67,5.17-5.32,10.35-8,15.5-.49.93-1,1.86-1.48,2.79l-.46.82c-.43.8.29-.28.65-.52l1.27-.34h0l2.16,1.24h0l.34,1.26h0c.05-3.22-4.95-3.22-5,0Z"/><path class="cls-2" d="M842.14,302.88c.87.24-12.34-27.19-12.76-28"/><path class="cls-9" d="M842.14,305.38c1.9.2,2.8-1.93,2.41-3.46a14.07,14.07,0,0,0-.61-1.64c-.94-2.28-2-4.52-3-6.76-2.42-5.29-4.92-10.55-7.44-15.79-.66-1.37-1.29-2.76-2-4.11-1.47-2.86-5.79-.33-4.31,2.53,4,7.76,7.66,15.79,11.18,23.79l.66,1.55c-.22-.52-.06-.15.06.12s.14.35.2.52.22.59.33.88a1.4,1.4,0,0,0,.09.29s0,.08,0,.09c-.66-.28,1.48-3.14.63-2.28l1.11-.64.64-.09a2.51,2.51,0,0,0-2.5,2.5,2.55,2.55,0,0,0,2.5,2.5Z"/><path class="cls-2" d="M768,400c24.5-3.5,9.49-20.32,20.2-42.63,2.86-6-.47-18.84,8.11-44.12,5-14.78,11.45-21.4,27.69-39.23,10.1-.6,20.36-1.2,30.24,1s19.49,7.64,24.43,16.47c5.24,9.37,4.57,21.1,9.42,30.68,3.37,6.65,9.23,11.88,12,18.77,5,12.13-1,26.58-11,35.08s-23.06,12.24-35.84,15.08A375.28,375.28,0,0,1,768,400"/><path class="cls-8" d="M768.7,402.41c4.57-.67,9.52-2,12.85-5.39,2.68-2.75,3.7-6.37,4.14-10.07.49-4.15.36-8.35.69-12.51A45.23,45.23,0,0,1,789.79,360a23.35,23.35,0,0,0,1.68-4.49,40.39,40.39,0,0,0,.6-4.66c.32-3.92.48-7.85.92-11.76a113.16,113.16,0,0,1,3.31-17.12,87.8,87.8,0,0,1,6-16.48,70.14,70.14,0,0,1,8.65-12.91c4.74-5.78,9.87-11.23,14.91-16.76l-1.77.73c16.92-1,37.44-2,49.66,12.15,5.6,6.48,6.6,15.2,8.4,23.25a47.48,47.48,0,0,0,4.25,12.25c2,3.71,4.73,7,7.18,10.38a30.3,30.3,0,0,1,5.4,10.74,24.1,24.1,0,0,1-.15,10.72,34.89,34.89,0,0,1-12.17,18.93c-6.63,5.4-14.79,8.65-22.93,11a260,260,0,0,1-27.92,6.1,370.39,370.39,0,0,1-60.2,5.45c-2.51,0-5,0-7.52,0-3.22,0-3.22,5,0,5A380.42,380.42,0,0,0,823.66,399q13.71-1.87,27.26-4.76c7.93-1.69,15.89-3.57,23.42-6.63,7.32-3,14.43-7,19.83-12.87A38.2,38.2,0,0,0,904,355.54a29,29,0,0,0-4.5-21.17c-2.11-3.25-4.61-6.22-6.78-9.43a35.56,35.56,0,0,1-4.75-10.34c-2.18-7.69-2.8-15.81-6.39-23.07-3.29-6.66-9.16-11.79-15.74-15-7.59-3.77-16-5.19-24.39-5.46-4.59-.15-9.18,0-13.76.29-1,.06-2.09.11-3.13.18a3.59,3.59,0,0,0-2,.57,10.92,10.92,0,0,0-1.41,1.47l-4.45,4.88a198.84,198.84,0,0,0-13.1,15.46,66.56,66.56,0,0,0-8,14.37c-5,12.33-7.37,25.52-8.22,38.74-.12,1.88-.22,3.76-.43,5.63,0,.13-.1.74,0,.34s0,.19-.05.3c-.06.37-.13.75-.21,1.12-.14.62-.35,1.21-.54,1.82,0,.1.26-.54,0-.08s-.36.78-.54,1.17c-.4.9-.78,1.82-1.14,2.75a44.24,44.24,0,0,0-1.44,4.49,56.79,56.79,0,0,0-1.51,9.08c-.23,2.53-.31,5.08-.4,7.63,0,1.12-.08,2.25-.15,3.37,0,.53-.08,1.06-.13,1.58,0,.26,0,.51-.08.77,0,0-.06.4,0,.1s0,.23,0,.3a20.56,20.56,0,0,1-.64,2.77c-.07.22-.16.43-.23.65-.2.59.11-.2-.08.2a11.74,11.74,0,0,1-.68,1.26c-.12.19-.24.38-.37.56-.24.35.27-.26-.15.18a13.25,13.25,0,0,1-1.05,1.07c-.15.14-.31.27-.48.4.41-.32-.17.11-.28.18a13.86,13.86,0,0,1-1.5.86,15.55,15.55,0,0,1-3.19,1.17,36.18,36.18,0,0,1-4.61.93,2.52,2.52,0,0,0-1.74,3.08,2.57,2.57,0,0,0,3.07,1.75Z"/><path class="cls-2" d="M754.7,401.9a532.57,532.57,0,0,1,55.54,5.25c19.61,2.89,42,9.19,49.59,27.52,5.67,13.8.69,30.07,5.62,44.15,2.52,7.19,7.44,13.25,11.22,19.88,16.25,28.5,10.05,64.27.28,95.6-2.88,9.22-6.2,18.67-12.79,25.74s-17.31,11.17-26.19,7.35c-13.64-5.87-14.61-24.32-15.44-39.15a168,168,0,0,0-34.64-92.84c-15.86-20.49-36.83-37.86-46.23-62-4-10.34-5.4-22.95,1.28-31.81s23.49-9,27.1,1.46"/><path class="cls-2" d="M754.7,404.4q19,.81,37.91,3c10.46,1.18,21,2.41,31.24,5,8.34,2.09,16.8,5.12,23.66,10.45a32.72,32.72,0,0,1,8,8.82,33.69,33.69,0,0,1,4.43,13.81c1.21,10.91-.56,22.2,2.73,32.85,1.68,5.46,4.7,10.31,7.76,15.08a92.51,92.51,0,0,1,7.68,13.79c8.25,19.51,7.08,41.61,2.91,61.94a234.32,234.32,0,0,1-8.67,31.29c-3.31,9.32-8.18,18.79-17.33,23.51a20.08,20.08,0,0,1-12.86,2.2,16.62,16.62,0,0,1-9.62-5.89c-4.93-6-6.17-14.94-6.85-22.6-.41-4.53-.55-9.07-.92-13.59-.45-5.46-1.16-10.91-2.13-16.3a168.43,168.43,0,0,0-8.9-31.54A171.9,171.9,0,0,0,799,506.87a203.25,203.25,0,0,0-19.47-25.42c-13.36-15.21-28.61-30.24-35.78-49.62-3.22-8.72-4.82-19.47.5-27.72,3.64-5.63,11.4-7.91,17.68-5.77a9.19,9.19,0,0,1,5.73,5.38,2.55,2.55,0,0,0,3.07,1.74,2.52,2.52,0,0,0,1.75-3.07c-2.89-8.08-11.63-10.86-19.51-9.42a20,20,0,0,0-10.38,5.29,23.74,23.74,0,0,0-6.31,13.05c-1.73,10.79,1.84,21.54,6.73,31s11.48,18,18.4,26.11,14.47,16.07,21.33,24.43a165.71,165.71,0,0,1,37.1,92c.7,9.13.72,18.45,3.32,27.31,2.48,8.49,7.92,16.38,17,18.58,10.12,2.47,20.79-2.74,27.2-10.47,7.21-8.7,10.52-19.86,13.65-30.52,6.26-21.34,10.55-44.13,6.92-66.35A80.59,80.59,0,0,0,876.13,493c-3-4.75-6.39-9.48-8.27-14.85s-2.25-10.92-2.38-16.5c-.24-11.06.29-22.58-5.6-32.43-4.65-7.8-12.27-13.29-20.47-16.9-8.63-3.8-17.85-5.94-27.15-7.38-12.7-2-25.51-3.38-38.33-4.39q-9.6-.75-19.23-1.15c-3.21-.14-3.21,4.86,0,5Z"/><path class="cls-2" d="M738.93,409.56l39.92,53.6c9.83,13.21,19.78,26.62,25.73,42,4,10.31,6.1,21.25,8.17,32.11,2.44,12.79,3.31,21.67,10.49,38.37"/><path class="cls-8" d="M736.78,410.82,761.5,444c7.93,10.65,16,21.2,23.7,32,7.06,10,13.65,20.43,17.8,32s6.26,23.84,8.45,35.91c.89,4.92,1.81,9.82,3.11,14.65a136.38,136.38,0,0,0,6.52,18.3,2.52,2.52,0,0,0,3.42.9,2.57,2.57,0,0,0,.9-3.42,136.55,136.55,0,0,1-8.67-29.2c-2.15-11.7-4.07-23.53-7.69-34.88-3.8-11.91-9.92-22.78-16.95-33.06-7.4-10.81-15.47-21.2-23.29-31.71l-27.71-37.2a2.58,2.58,0,0,0-3.42-.9,2.51,2.51,0,0,0-.89,3.42Z"/><path class="cls-2" d="M742.93,227.52,670.7,266.71c-22.59,12.26-45.84,24.74-71.33,28-25.72,3.33-53.29-2.71-76.85,8.13a40.13,40.13,0,0,1,29.64-31.09c4.89-1.14,10.11-1.37,14.52-3.77,8.59-4.66,11.14-15.47,15.3-24.31a56.62,56.62,0,0,1,42.27-31.32c25.28-3.68,51,10.18,76,5,9.23-1.93,18.19-6.43,27.58-5.58s18.77,10.93,14.14,19.15"/><path class="cls-8" d="M741.67,225.36l-44,23.87c-14.12,7.66-28.16,15.48-42.41,22.9-13.33,6.95-27,13.34-41.61,17.23A114,114,0,0,1,592,293c-7.36.51-14.74.46-22.11.46-14.53,0-29.55.1-43.38,5.15-1.77.64-3.5,1.37-5.21,2.14l3.67,2.83a37.58,37.58,0,0,1,11.59-20.64,38.1,38.1,0,0,1,9.93-6.57c4.06-1.86,8.4-2.53,12.75-3.35,4.66-.87,9-2.38,12.62-5.59a30.9,30.9,0,0,0,6.88-9.83c1.78-3.7,3.17-7.56,4.85-11.31A54.17,54.17,0,0,1,590,235.4a54.06,54.06,0,0,1,44.66-21.13c19.87.33,39.07,8.24,59,6.55a74.84,74.84,0,0,0,15.16-3.15c4.77-1.43,9.61-3.07,14.61-3.42A17.29,17.29,0,0,1,735,217.11c2.75,1.9,5.28,5,5.69,8.37a7.17,7.17,0,0,1-.85,4.19c-1.53,2.83,2.78,5.35,4.32,2.52,4.42-8.16-1.61-17.13-9.07-20.83-9.58-4.76-20.26-.62-29.79,2.14A61,61,0,0,1,690.45,216a89.92,89.92,0,0,1-15.29-.93c-10.31-1.43-20.46-3.87-30.8-5.11-9.8-1.16-19.82-1-29.29,2A60,60,0,0,0,592.2,225.5a58.86,58.86,0,0,0-8.64,10.31,69.64,69.64,0,0,0-6,11.84c-2.95,7.13-6,16-13.88,19-4.59,1.73-9.59,1.87-14.28,3.27a40.58,40.58,0,0,0-11.85,5.76,43.65,43.65,0,0,0-15.78,20.45,38.66,38.66,0,0,0-1.66,6.07,2.53,2.53,0,0,0,3.67,2.82c13.22-6,28-6.55,42.31-6.6,14.88-.06,29.73.18,44.33-3.13,14.8-3.36,28.83-9.46,42.33-16.27,14.17-7.15,28-15,42-22.52l44-23.88,5.48-3c2.82-1.53.3-5.85-2.53-4.31Z"/><path class="cls-2" d="M759.54,150.21c19.67,21,8,35.68-2.4,61.82s-37.3,46-67,49-120.33-5.43-101.2-26.44c59.58-65.45,77.19-44,116.94-55.54,26.43-7.64,46.51-19.94,53.67-28.84"/><path class="cls-2" d="M757.77,152a39.76,39.76,0,0,1,8.1,11.93,24.86,24.86,0,0,1,1.73,11.53,46.84,46.84,0,0,1-2.83,11.76c-1.63,4.57-3.6,9-5.53,13.43-2.12,4.88-4,9.91-6.26,14.7a72.3,72.3,0,0,1-7.68,12.44,79.69,79.69,0,0,1-21.8,19.39,81.86,81.86,0,0,1-28.08,10.64,108.74,108.74,0,0,1-18.3,1.32A318.81,318.81,0,0,1,634,256.29c-3.09-.41-7.12-1-10.57-1.62s-6.84-1.27-10.23-2c-3.1-.72-6.18-1.52-9.2-2.48-1.31-.41-2.61-.85-3.9-1.33l-1.8-.71a2.65,2.65,0,0,1-.42-.18l-1-.44c-1-.47-2-1-3-1.54-.44-.25-.87-.52-1.3-.8l-.6-.41c-.16-.11-.91-.74-.27-.19a21.6,21.6,0,0,1-1.84-1.73c-.17-.19-.49-.73,0,0l-.32-.45c-.21-.33-.36-.69-.56-1,.47.76,0-.11-.11-.46,0-.16,0-.33-.1-.49.15.43,0,.55,0,.08v-.51c0-.43.23-.5,0,.06a8.27,8.27,0,0,0,.29-1.14,1.72,1.72,0,0,0,.07-.21c.09-.42-.3.55-.07.18.1-.17.17-.37.26-.54.22-.4.47-.76.72-1.14.38-.58-.17.15.07-.1s.32-.38.48-.56c1.11-1.26,2.27-2.48,3.42-3.71,12.88-13.82,26.91-27.53,43.63-36.67A72,72,0,0,1,654,189.4a79.36,79.36,0,0,1,7.78-1.72l1.74-.29.91-.13.55-.08c.53-.07-.51.07.06,0,1.24-.16,2.48-.3,3.72-.43,10.68-1.09,21.39-1.41,31.91-3.77A155,155,0,0,0,729.59,173a116.27,116.27,0,0,0,24.86-14.52,43,43,0,0,0,6.86-6.55,2.57,2.57,0,0,0,0-3.53,2.52,2.52,0,0,0-3.54,0c-4.9,6.05-11.57,10.24-18.32,14.06a156.61,156.61,0,0,1-32,13.47c-3.38,1-6.79,1.93-10.25,2.63-1.42.29-2.86.55-4.3.78-.66.11-1.33.21-2,.3l-1,.14-.71.09c-5.21.65-10.44,1-15.67,1.4a131.21,131.21,0,0,0-15.81,2.05,79.28,79.28,0,0,0-16.84,5.53c-16.17,7.33-29.93,19.51-42.35,32q-3.34,3.36-6.61,6.82c-1.82,1.93-3.73,3.83-5.4,5.89a11.19,11.19,0,0,0-2.68,5.87c-.45,4.09,2.45,7.32,5.53,9.55,4.22,3,9.39,4.82,14.32,6.31a158.59,158.59,0,0,0,20.1,4.5A324.42,324.42,0,0,0,669.32,264c6,.15,12.09.15,18.12-.27A85.7,85.7,0,0,0,715.17,257c18.7-8,35-22.84,43.24-41.61,2.18-5,4.19-10.07,6.36-15.07,2-4.55,4-9.11,5.5-13.82a44.27,44.27,0,0,0,2.41-12.68,30.42,30.42,0,0,0-2.6-12.75,45.72,45.72,0,0,0-8.77-12.66c-2.2-2.36-5.73,1.18-3.54,3.53Z"/><path class="cls-1" d="M710.06,616.62c-4.42,10.8-2.77,22.94.62,34.06,7.83,25.74,29.27,51.38,58.11,51.94,30.26.58,54.25-29.57,51-57.48-2.84-24.3-24-46.39-50.16-49.71s-54,14.3-58.13,38.45c-2.47,14.44,2.9,29,9.38,42.34,3.51,7.22,7.66,14.6,14.71,19.07,8,5.06,18.34,5.53,27.95,4.55,21.72-2.2,43.13-11.49,56.42-27.57s17.15-39.27,6.94-57.19S777.28,592,757,599.65c-8.37-21-5-39.12-30.28-53.78-4.94-2.86-11.48-.38-17.06-1.52-13.31-2.7-22.5-13.65-30.52-23.87-9.49-12.1-19.1-24.4-24.7-38.43-4.69-11.77-6.26-25.08-2.34-36.94.57-1.69-4,21.28-13.34,25.68s15.17,47.9,47.69,75.4c10.84,9.16,31.14,8.9,40,14.37,7.17,4.45,18.92,25.79,19.11,37.4"/><path class="cls-1" d="M707.65,616c-5,12.47-2.55,26.7,1.8,39A88.4,88.4,0,0,0,726,683.56a64.33,64.33,0,0,0,26.49,18.6,49.66,49.66,0,0,0,32,.59c19.65-6.47,34.76-25,37.59-45.47,3-21.72-9-42.94-26.84-54.81a58.46,58.46,0,0,0-31.45-9.94,59.41,59.41,0,0,0-31.06,8.62c-8.86,5.35-16.58,13.14-20.76,22.71-5.24,12-4,25.32,0,37.52a133.91,133.91,0,0,0,8.19,19c2.75,5.32,6.06,10.58,10.67,14.49,9.95,8.44,23.68,8.73,36,7.09,23.64-3.14,48.15-14.67,60.53-36a55.88,55.88,0,0,0,7.55-33.62c-1.06-9.8-4.72-20-12.66-26.26-7.18-5.68-16.15-8.82-25-10.58a88.5,88.5,0,0,0-28.72-1.13,55.18,55.18,0,0,0-12.1,2.84l3.08,1.75c-4-10-5.34-20.85-9.4-30.81a46.57,46.57,0,0,0-8.63-14,50.55,50.55,0,0,0-7-6.29c-2.78-2.1-6-4.53-9.38-5.44s-7.2-.4-10.79-.32a23.12,23.12,0,0,1-9.55-1.94c-6-2.5-11-6.87-15.41-11.57-4.74-5.08-9-10.67-13.2-16.18a185.62,185.62,0,0,1-13.2-19.09c-7.6-12.95-12.81-28.38-9.46-43.48.2-.88.42-1.75.67-2.61.12-.43.29-.86.39-1.3.17-.67-.38.67-.53.8l-3,.39h0l-1.15-1.5c-.29-1.14-.06-.23-.06-.84s0-.22,0-.05-.11.58-.17.87c-.21.95-.45,1.9-.71,2.84a72.47,72.47,0,0,1-2.69,8.14,40.26,40.26,0,0,1-4.4,8.25,17.06,17.06,0,0,1-2.67,2.82c.36-.29-.4.27-.5.33-.28.18-.56.33-.85.48a6.93,6.93,0,0,0-1.27.83c-3,2.62-2.25,7.44-1.37,10.84,1.52,5.92,4.41,11.56,7.39,16.86a191.92,191.92,0,0,0,32.67,42.13,124.2,124.2,0,0,0,10.34,9.39,38.81,38.81,0,0,0,11.41,5.9c7.63,2.64,15.71,3.6,23.39,6.09a20.54,20.54,0,0,1,4.16,1.72,13.39,13.39,0,0,1,1.52,1c-.43-.32.15.14.29.26s.56.5.83.76a40.6,40.6,0,0,1,6,7.79c4.17,6.57,7.76,13.93,9.39,21.59a19.41,19.41,0,0,1,.54,4.31c.08,3.21,5.08,3.22,5,0-.18-7.78-3.58-15.55-7.11-22.34a74.52,74.52,0,0,0-6.18-10,30,30,0,0,0-6.59-6.91c-2.74-1.91-6.16-2.92-9.35-3.79-4-1.07-8-1.86-12-2.82a70.14,70.14,0,0,1-11.78-3.65,37.93,37.93,0,0,1-10.17-7,191.47,191.47,0,0,1-35.16-42c-2-3.16-3.79-6.39-5.46-9.71a59.63,59.63,0,0,1-3.47-8,35.36,35.36,0,0,1-1-3.51c-.11-.46-.21-.93-.29-1.4,0-.1-.14-.91-.08-.48s0-.4,0-.52c0-.4,0-.81,0-1.21,0-.19,0-.39,0-.58,0-.47-.18.6,0-.05.09-.3.19-.6.26-.9-.18.77-.2.35,0,.14.32-.38.21-.15-.07,0,.11-.07.17-.23.29-.3.4-.23-.6.26-.1.08a7.64,7.64,0,0,0,1.29-.7,15.65,15.65,0,0,0,3.48-3,33.66,33.66,0,0,0,5.26-8.54,64.32,64.32,0,0,0,4.78-14.68c.24-1.31.23-2.5-1.08-3.33a2.56,2.56,0,0,0-3,.39c-.95.8-1.17,2.69-1.45,3.78a44.74,44.74,0,0,0-1.08,5.63,52.18,52.18,0,0,0-.23,11.85,70.18,70.18,0,0,0,6.46,23c6.49,14,16.42,26.36,26.08,38.29,8.3,10.24,19.58,21.67,33.83,21.41,3.36-.07,7-.77,10.24.3a20.46,20.46,0,0,1,4.6,2.64c1.39.92,2.75,1.89,4,2.94A41.19,41.19,0,0,1,743.6,566c4.8,9.25,6.13,20.17,9.48,30.1.48,1.42,1,2.83,1.55,4.23.47,1.16,1.7,2.26,3.08,1.74,7.82-2.92,16.07-3.57,24.38-3.28a79.23,79.23,0,0,1,26.36,5.2c7.13,2.82,13.55,7.07,17,13.75,4.94,9.47,5.82,20.64,3.41,31a55.25,55.25,0,0,1-16.28,27.72A77.23,77.23,0,0,1,783.92,693a97.4,97.4,0,0,1-16.94,4,65.84,65.84,0,0,1-17.62.45c-5.55-.7-11.05-2.61-15.31-6.32s-7.22-8.59-9.77-13.57c-5.84-11.4-11.14-24.06-10.91-37.09a39.17,39.17,0,0,1,11.29-26.53,53.55,53.55,0,0,1,55.07-13.53c18.8,6.39,34,23.33,37.28,43,3.14,18.6-6.79,38.2-22.09,48.66a44.89,44.89,0,0,1-27.28,8.06A50.43,50.43,0,0,1,740,689.77a73.11,73.11,0,0,1-19.62-22.9c-5.4-9.57-9.34-20.53-10.27-31.52a39.18,39.18,0,0,1,2.41-18.07,2.52,2.52,0,0,0-1.75-3.07,2.56,2.56,0,0,0-3.07,1.74Z"/><path class="cls-5" d="M783,696.3c23.9-8.21,43.54-28.45,46-52s-14.85-48.48-39.86-53a61.82,61.82,0,0,0-26.84,1.59c-27.09,7.29-48.86,30.3-51.56,56.33s14.92,53.14,41.54,61.78c25.94,8.42,57.19-1.82,72.56-22.95s14.24-51.13-1.81-71.83"/><path class="cls-5" d="M783.68,698.71c16-5.53,30.44-16.1,39.48-30.51a56.23,56.23,0,0,0,8.26-22.81,48.12,48.12,0,0,0-2.7-22.55c-5.49-14.93-17.49-27.31-32.7-32.33-9.58-3.17-20-3-29.79-1a75.84,75.84,0,0,0-24.4,9.63c-14,8.55-25.36,21.62-30.71,37.19a58.39,58.39,0,0,0,4.07,46.25,64.2,64.2,0,0,0,36.81,31c15.88,5,33.41,3.32,48.56-3.29s27.73-18.75,33.73-34.42c6.2-16.16,5-34.69-2.46-50.21A60.53,60.53,0,0,0,825.24,615a2.58,2.58,0,0,0-3.42-.89,2.51,2.51,0,0,0-.89,3.42,59.51,59.51,0,0,1,11.71,45.14,54.33,54.33,0,0,1-24.28,37.7,67.21,67.21,0,0,1-43.73,10.77,58.14,58.14,0,0,1-38.86-21.55c-9.21-11.4-14.11-26.37-12.4-41,1.74-15,10.3-28.5,21.51-38.25,12.68-11,29.76-17.8,46.66-17.27a45,45,0,0,1,22.72,6.82,48.2,48.2,0,0,1,15,15,47.44,47.44,0,0,1,7.21,19.78,46,46,0,0,1-2.88,21.5c-5.46,14.41-17.31,25.91-30.72,33.07a73.26,73.26,0,0,1-10.55,4.61,2.5,2.5,0,1,0,1.33,4.82Z"/><path class="cls-2" d="M688,537.32c1.89-3.12,7.25-3.09,9.11,0"/><path class="cls-9" d="M690.16,538.59c.05-.09.11-.18.17-.27.23-.35-.4.47-.13.18s.28-.3.43-.44.43-.24-.18.13c.09-.05.17-.12.25-.17s.36-.21.54-.3.53-.14-.21.09l.29-.11a5.62,5.62,0,0,1,.55-.15l.31-.06c.27-.06-.75.07-.24,0l.63,0,.58,0c.43,0-.66-.12-.25,0l.31.06c.2.05.4.1.6.17l.29.11c-.73-.24-.41-.19-.21-.09a4.07,4.07,0,0,1,.53.31c.06,0,.2.18.26.17-.1,0-.56-.45-.19-.13.14.13.27.27.4.41.33.35-.27-.4-.14-.18l.21.31a2.5,2.5,0,0,0,4.31-2.53c-2.91-4.76-10.49-4.76-13.43,0a2.53,2.53,0,0,0,.9,3.42,2.56,2.56,0,0,0,3.42-.89Z"/><path class="cls-10" d="M690.41,539.31c18.17,2.26,37.87-1.08,51.71-13.07s19.78-33.8,10.32-49.48a40.88,40.88,0,0,0-10.33-11.17c-8.18-6.23-18.49-10.09-28.72-9.08s-20.14,7.41-23.88,17c-7.45,19.12,10.64,41.65,2.21,60.36-.72,1.58-1.51,3.71-.18,4.82s2.49-2.58,1-1.76"/><path class="cls-2" d="M688.16,537.41c21.21-1.48,37.29-26.16,30.08-46.16"/><path class="cls-2" d="M688.16,539.91c18-1.36,32.15-17.3,34.12-34.8a32.74,32.74,0,0,0-1.63-14.53,2.57,2.57,0,0,0-3.07-1.75,2.53,2.53,0,0,0-1.75,3.08c5.14,14.51-2.48,31.49-15.63,39.15a28.23,28.23,0,0,1-12,3.85,2.57,2.57,0,0,0-2.5,2.5,2.51,2.51,0,0,0,2.5,2.5Z"/><path class="cls-10" d="M756.19,580.24c19.66,9.8,36.57,20.06,52.81,34.83s28.63,35.22,28.77,57.18c.1,14.35-4.93,28.18-9.94,41.63-15.45,41.47-32.7,84.7-66.87,112.81-14-20.7-24-45.33-21.71-70.21C741.53,731.27,755.8,709,767,686.33s5.85-44.66-4-68c-5-11.85-9.07-27.15-8.54-40,65.67,8.44,89.09,49.78,104,93.78,5.58,16.41,8.26,34.12,5.24,51.19-4.49,25.39-21.28,47.27-41.6,63.14s-35.83,29.74-59.38,40.23"/><path class="cls-11" d="M356.4,936.48l-45.15,58.07q-22.49,28.92-45,57.84c-7.06,9-14.21,18.06-22,26.48a228.92,228.92,0,0,1-21.4,20.15c-14.33,12-29.62,22.75-44,34.71-13.95,11.64-27.11,24.61-36.48,40.31-1.14,1.92-2.23,3.88-3.25,5.87-.74,1.43,1.42,2.7,2.15,1.26,8.39-16.26,20.92-29.73,34.63-41.65,14-12.21,29.23-23,43.69-34.64a263.42,263.42,0,0,0,20.87-18.5,298,298,0,0,0,22.6-26c15-18.94,29.7-38.14,44.53-57.22l45-57.88,5.51-7.08c1-1.26-.78-3-1.77-1.77Z"/><path class="cls-12" d="M353.23,920c2.41,3.22-1,7.6-1,11.62a7.29,7.29,0,0,0,7.91,7c3.36-.45,5.87-3.21,8.08-5.79"/><path class="cls-11" d="M355.73,939.6c6,18.65-1.65,37.77-8.21,55.14l-6,15.92c-.57,1.5,1.84,2.16,2.41.66,3.57-9.47,7.31-18.89,10.64-28.45,3.15-9,5.68-18.45,5.83-28.09a49.11,49.11,0,0,0-2.26-15.84c-.49-1.53-2.91-.87-2.41.66Z"/><path class="cls-11" d="M353.08,934.92c-25.82-4.89-50.89,5.45-73.87,16.09-6.7,3.11-13.39,6.28-20.18,9.19-1.48.63-.2,2.79,1.26,2.16,23-9.89,45.49-23.14,70.9-25.76a73.36,73.36,0,0,1,21.23.73c1.57.29,2.24-2.11.66-2.41Z"/><path class="cls-11" d="M325.59,977.69a59.76,59.76,0,0,0-7.07,15.38,68.14,68.14,0,0,0-2.54,17.62c-.16,6.34.15,12.69-.29,19a60.05,60.05,0,0,1-3.59,16.69,58.79,58.79,0,0,1-9.29,16.31c-1,1.24.76,3,1.77,1.77a61.6,61.6,0,0,0,13.13-30.14c1.7-12.43-.53-25.13,2.38-37.43A57.33,57.33,0,0,1,327.75,979c.87-1.36-1.29-2.62-2.16-1.27Z"/><path class="cls-11" d="M325.36,978.26c-13.58,5.67-27.15,11-41.71,13.59-6.93,1.22-13.82,2.39-20.38,5a88.72,88.72,0,0,0-17.09,9.44c-6.13,4.24-11.89,9-17.62,13.74-1.24,1,.54,2.79,1.77,1.77,10-8.32,20.28-16.79,32.33-22,6.34-2.74,13-4.07,19.79-5.24a143.77,143.77,0,0,0,21.08-5.17c7.64-2.55,15.07-5.65,22.49-8.75,1.47-.61.83-3-.66-2.41Z"/><path class="cls-11" d="M273.19,1044.31c-4.48,7.26-4.86,15.92-5.15,24.21a100.17,100.17,0,0,1-1,13.3,81,81,0,0,1-3.64,13.52c-1.83,5.12-4.05,10.09-6.37,15-.68,1.45,1.47,2.72,2.16,1.26,4-8.48,7.78-17.19,9.74-26.41,1.83-8.6,1.26-17.35,2.21-26a32.21,32.21,0,0,1,4.25-13.58c.84-1.37-1.32-2.63-2.16-1.26Z"/><path class="cls-11" d="M272.34,1044.5c-22.11,7.77-46.32,8.79-67.39,19.62A66.34,66.34,0,0,0,190,1074.45c-1.18,1.1.59,2.86,1.77,1.77,16.74-15.52,40.29-19,61.68-23.86a179.44,179.44,0,0,0,19.56-5.45c1.51-.53.86-2.94-.67-2.41Z"/><path class="cls-11" d="M208.14,1114.62a41.56,41.56,0,0,1-.95,12.91,102.23,102.23,0,0,1-13.7,33.87l2.33.63,0-1.44c0-1.61-2.45-1.61-2.5,0l0,1.44a1.26,1.26,0,0,0,2.33.64A105.44,105.44,0,0,0,206.39,1140a101.07,101.07,0,0,0,3.25-12.08,43.09,43.09,0,0,0,1-13.34c-.18-1.58-2.68-1.6-2.5,0Z"/><path class="cls-11" d="M208.29,1111.37c-8,.46-16,1-23.81,2.91a50.69,50.69,0,0,0-11.17,4.14,54.73,54.73,0,0,0-9.56,6.7c-3.44,2.87-6.83,5.81-10.88,7.79-1.44.71-.18,2.87,1.26,2.16,6.9-3.38,11.89-9.47,18.44-13.37,6.79-4,14.64-5.84,22.41-6.77,4.42-.53,8.86-.8,13.31-1.06,1.6-.09,1.61-2.59,0-2.5Z"/><path class="cls-11" d="M379.05,850.05c-12.1-13.7-29.25-22.2-47.15-25.22-19-3.22-38.53-.12-56.26,7.32a135.79,135.79,0,0,0-25.91,14.45A196.66,196.66,0,0,0,226,866.91c-15,14.72-29.23,30.79-47.66,41.41-8.55,4.93-18,8.65-27.82,9.84-8,1-17.39-.18-24.47,4.47a15.57,15.57,0,0,0-4,3.93c-.94,1.31,1.23,2.56,2.16,1.26C129,921.05,139,921.5,146.35,921a73,73,0,0,0,27.36-7.44c18.45-9,32.93-23.78,47.2-38.13C228.33,868,235.82,860.57,244,854a141.32,141.32,0,0,1,24.78-16c17-8.56,36.19-13.3,55.31-11.68,17.77,1.51,35.43,8.4,48.52,20.7,1.62,1.52,3.16,3.12,4.63,4.78,1.06,1.21,2.83-.57,1.77-1.77Z"/><path class="cls-11" d="M330.31,824.13c-15.45-20.43-36.81-37.64-63.07-40.41a61.4,61.4,0,0,0-22.14,1.64,1.25,1.25,0,0,0,.66,2.41c12.41-3.29,25.57-2.09,37.6,2.18,11.67,4.16,22.1,11.31,31,19.85a130.87,130.87,0,0,1,13.78,15.59c1,1.27,3.13,0,2.16-1.26Z"/><path class="cls-11" d="M264.75,836.86a90.47,90.47,0,0,0-51.21-16.22,1.25,1.25,0,0,0,0,2.5A88.11,88.11,0,0,1,263.48,839c1.33.92,2.58-1.25,1.27-2.16Z"/><path class="cls-11" d="M227.85,867.18c-14.44-7.48-30.91-12.28-47.18-8.79a46.32,46.32,0,0,0-12.52,4.66c-1.41.78-.15,2.94,1.26,2.16,13.8-7.59,30.32-6.5,44.75-1.36a102.68,102.68,0,0,1,12.43,5.49c1.43.74,2.69-1.41,1.26-2.16Z"/><path class="cls-11" d="M425.87,810c-2.77-3.6-6.6-5.93-10.73-7.71a70.65,70.65,0,0,0-14.71-4.5A72.3,72.3,0,0,0,385,796.55c-2.5.07-5,.39-7.51.27a17.86,17.86,0,0,1-7.12-2.3,19.29,19.29,0,0,0-7.41-2.33,15,15,0,0,0-7.73,1.69c-1.43.73-.17,2.89,1.26,2.16a12.37,12.37,0,0,1,6.68-1.33,17.26,17.26,0,0,1,6.32,2.16,20.71,20.71,0,0,0,6.27,2.28,34.35,34.35,0,0,0,6.95,0,69.81,69.81,0,0,1,28.63,4.27c4.55,1.71,9.37,3.89,12.41,7.84,1,1.26,3.14,0,2.16-1.26Z"/><path class="cls-11" d="M395.87,796.07A66.59,66.59,0,0,0,356,757.61a62.87,62.87,0,0,0-15.75-3.36c-1.61-.13-1.6,2.37,0,2.5,18.21,1.51,35.4,11.69,46,26.54a60.14,60.14,0,0,1,7.23,13.45c.57,1.48,3,.84,2.41-.67Z"/><path class="cls-11" d="M368.28,791.89c-4.34-9.24-13.47-15.22-21.26-21.31-1.25-1-3,.78-1.77,1.77,7.61,5.95,16.63,11.77,20.87,20.8.69,1.45,2.84.18,2.16-1.26Z"/><path class="cls-11" d="M339.82,528.44c18.33,12.69,41.87,14.6,62.69,7.33,11-3.85,21.23-9.68,32.23-13.59a101.84,101.84,0,0,1,68.63.29c10.28,3.78,19.67,10.11,30.46,12.49a30.79,30.79,0,0,0,14.78-.27,7.38,7.38,0,0,1,5.46,1c5.08,2.86,8.84,8.16,12.18,12.8,4.34,6,8.26,12.32,12.46,18.44,3.48,5.06,7.13,10.49,12,14.31a16,16,0,0,0,2.89,1.87c1.44.7,2.71-1.46,1.26-2.16a20.22,20.22,0,0,1-5.7-4.55,71.54,71.54,0,0,1-5.9-7.32c-4.35-6-8.28-12.35-12.49-18.48-3.63-5.28-7.44-10.85-12.43-15a15.58,15.58,0,0,0-6.26-3.43c-3.2-.71-6.18.81-9.36,1-10.87.71-21-5.32-30.52-9.73a103.08,103.08,0,0,0-32.78-9.09,104.73,104.73,0,0,0-34.67,2.2c-11.4,2.67-21.79,7.77-32.43,12.5-10.46,4.65-21.24,8.12-32.78,8.43a64.59,64.59,0,0,1-31.5-7.07,63.86,63.86,0,0,1-7-4.21c-1.33-.92-2.58,1.24-1.26,2.16Z"/><path class="cls-11" d="M535.09,532.9a128.05,128.05,0,0,0-26.39-35.66,132.14,132.14,0,0,0-36.79-24.84,126.79,126.79,0,0,0-23.83-8c-1.57-.36-2.24,2.05-.67,2.41a126.27,126.27,0,0,1,40.1,17,129.93,129.93,0,0,1,32.31,29.51,124.21,124.21,0,0,1,13.11,20.92c.72,1.44,2.88.18,2.16-1.26Z"/><path class="cls-11" d="M473.29,513.22A81.88,81.88,0,0,0,428,493.72a79.31,79.31,0,0,0-14.29-.14c-1.59.13-1.61,2.63,0,2.5a79.22,79.22,0,0,1,46.61,10.84A76.26,76.26,0,0,1,471.52,515c1.21,1,3-.71,1.77-1.76Z"/><path class="cls-11" d="M524.65,531.26c-6.13,13.47-19.48,21.28-32.81,26.27-4.22,1.58-8.52,3-12.81,4.3-1.53.48-.88,2.9.66,2.41,14.62-4.59,30-9.84,40.49-21.64a40.54,40.54,0,0,0,6.63-10.08c.66-1.45-1.49-2.72-2.16-1.26Z"/><path class="cls-11" d="M467.53,516.76c-8,17-23.86,28.3-40.57,35.87-5.12,2.32-10.37,4.32-15.66,6.19-1.51.53-.86,2.95.66,2.41,18.28-6.45,36.68-15,49.35-30.2a60.83,60.83,0,0,0,8.38-13c.68-1.45-1.47-2.72-2.16-1.26Z"/><path class="cls-11" d="M584.54,602.1a268.5,268.5,0,0,0-88.42,30Q485.8,637.76,476,644.31c-6.4,4.29-12.63,8.84-19.14,13A93.6,93.6,0,0,1,436.1,667.6c-7.9,2.59-16.18,3.62-24.35,4.93-13.5,2.18-28.42,5.82-37.28,17.18a29.94,29.94,0,0,0-2.72,4.15c-.77,1.41,1.38,2.67,2.16,1.26,6.8-12.5,21.48-17.17,34.59-19.52,8.09-1.44,16.3-2.31,24.26-4.41a84.11,84.11,0,0,0,20.93-9c6.65-3.89,12.92-8.37,19.26-12.74s12.79-8.51,19.45-12.35a266.26,266.26,0,0,1,87.16-31.62q2.82-.5,5.65-.93c1.58-.24.91-2.65-.67-2.41Z"/><path class="cls-11" d="M548.22,608.45c-3.79-2.85-8.39-4.15-13-4.78a121.39,121.39,0,0,0-15.61-.83,213.65,213.65,0,0,0-33.52,2.41c-3.18.48-6.35,1-9.5,1.66-1.58.31-3.16.64-4.73,1a5.54,5.54,0,0,0-1.6.51c-.36.21-.72.78-1.12.91-1.53.47-.88,2.88.67,2.41.77-.24,1.11-.84,1.78-1.2a8.92,8.92,0,0,1,2.12-.47c.7-.16,1.41-.31,2.12-.45q4-.83,8.07-1.5,8.16-1.33,16.42-2a189,189,0,0,1,31.92-.23c5.22.45,10.48,1.56,14.75,4.77,1.28,1,2.53-1.2,1.26-2.16Z"/><path class="cls-11" d="M546.88,608.06c-1.63,19-6.08,38.72-18.37,53.87a58.21,58.21,0,0,1-10.73,10.31l1.51,2,2.39-2c1.24-1-.54-2.79-1.77-1.77l-2.39,2c-1.08.9.37,2.81,1.52,2,15.72-11.51,24.21-29.89,27.92-48.59a163.14,163.14,0,0,0,2.42-17.75c.14-1.6-2.36-1.59-2.5,0Z"/><path class="cls-11" d="M492.27,633.08c-17.95-9.22-38.42-3.93-56.53,1.84-1.53.49-.88,2.9.66,2.41,17.39-5.54,37.33-11,54.61-2.09,1.43.73,2.7-1.43,1.26-2.16Z"/><path class="cls-11" d="M489.74,635.49A53.67,53.67,0,0,1,469,673.33a42.42,42.42,0,0,1-5.15,3.45c-1.33.73-3.23,1.37-3.24,3.18a1.25,1.25,0,0,0,2.5,0s1.27-.64,1.55-.79a27,27,0,0,0,2.37-1.42,54.6,54.6,0,0,0,12.3-10.9,57.37,57.37,0,0,0,10.51-19.07,54.24,54.24,0,0,0,2.4-12.29c.13-1.61-2.37-1.6-2.5,0Z"/><path class="cls-11" d="M432.23,669.81a42.31,42.31,0,0,1-18.09,18.59c-1.42.75-.16,2.91,1.26,2.16a44.53,44.53,0,0,0,19-19.49c.71-1.44-1.45-2.71-2.16-1.26Z"/><path class="cls-11" d="M433.06,667.63c-7.66-.36-15.32-.83-23-1.06-5.64-.17-11.92.26-16.06,4.58-1.12,1.16.65,2.93,1.76,1.76,3.93-4.09,10.15-4,15.41-3.8,7.29.31,14.58.68,21.87,1,1.61.07,1.6-2.43,0-2.5Z"/><path class="cls-11" d="M576.1,916.51c-3.37,17-10.56,32.91-20,47.41-9.52,14.66-21.14,27.84-33.48,40.18s-25.82,24-38.95,35.82-26.05,23.73-37.78,36.88c-11.51,12.9-21.85,27-29.45,42.57q-1.43,2.93-2.72,5.91c-.64,1.46,1.52,2.74,2.16,1.27,7-16,16.84-30.59,28.17-43.84,11.47-13.43,24.32-25.6,37.41-37.44S508,1022,520.6,1009.63s24.5-25.31,34.53-39.76c9.8-14.12,17.7-29.69,22-46.39q.79-3.13,1.43-6.3c.31-1.58-2.1-2.25-2.42-.67Z"/><path class="cls-11" d="M570,939.73a250.93,250.93,0,0,1-4.87,65.9q-1.9,9.07-4.48,18a1.25,1.25,0,0,0,2.41.67,253.41,253.41,0,0,0,9.83-65.55q.17-9.51-.39-19c-.09-1.6-2.59-1.61-2.5,0Z"/><path class="cls-11" d="M568.85,938.9q-21.4,7.51-42.45,16-10.33,4.17-20.56,8.57a140.72,140.72,0,0,0-17.29,8.29c-5.59,3.37-10.66,7.68-13.86,13.44-.79,1.4,1.37,2.66,2.15,1.26,5.9-10.58,17.89-15.49,28.47-20.06q20.22-8.74,40.83-16.56,11.64-4.41,23.38-8.53c1.5-.53.85-2.94-.67-2.41Z"/><path class="cls-11" d="M540,987.48c3.85,10.23,1.83,21.37-1.26,31.52a123.82,123.82,0,0,1-22.66,42.26c-1,1.24.74,3,1.77,1.77a126.32,126.32,0,0,0,17-27c4.52-9.72,8.25-20.23,9.45-30.93a39.35,39.35,0,0,0-1.9-18.3c-.56-1.49-3-.84-2.41.67Z"/><path class="cls-11" d="M536.33,989.21a112.46,112.46,0,0,0-68.78,29.44c-1.38,1.27-2.73,2.59-4,3.93-1,1-2.62,2.27-2.74,3.83a1.77,1.77,0,0,0,2.51,1.86,1.6,1.6,0,0,0,.31-2.89c-1.36-.86-2.62,1.3-1.26,2.16l.15.1-.57-.75.29-.86c.65.61,1.12.64,1.41.07a3.89,3.89,0,0,0,.56-.59c.46-.48.92-1,1.39-1.45,1-1,2-2,3-3q2.94-2.76,6.06-5.29a108.42,108.42,0,0,1,13.49-9.3,110.28,110.28,0,0,1,29.84-12,106.42,106.42,0,0,1,18.36-2.77c1.6-.1,1.61-2.6,0-2.5Z"/><path class="cls-11" d="M478.51,1046.25a155.26,155.26,0,0,1-4.13,19.21,93.37,93.37,0,0,1-7.21,17.21c-2.11,4-4.41,7.81-6.79,11.62-.85,1.37,1.31,2.63,2.16,1.26A148.43,148.43,0,0,0,473.18,1076a96,96,0,0,0,5.55-17.42c.86-3.86,1.55-7.76,2.19-11.66.26-1.58-2.14-2.25-2.41-.67Z"/><path class="cls-11" d="M476.68,1044.76c-16,3.32-30.78,9.93-43.27,20.5a111.76,111.76,0,0,0-11.05,10.82c-1.07,1.2.7,3,1.77,1.77,11.05-12.35,24.51-22,40.29-27.24a113.28,113.28,0,0,1,12.92-3.43c1.58-.33.91-2.74-.66-2.42Z"/><path class="cls-11" d="M622.19,849.61c10.27,10.88,19.39,23.53,32.55,31.16,7.38,4.27,15.78,6.13,23.63,9.36,8.06,3.31,16.36,7.19,23.16,12.71,7.21,5.85,12.84,14.37,12.05,24-.13,1.61,2.37,1.6,2.5,0,.68-8.3-3.21-16.29-8.87-22.18-6.05-6.29-14-10.52-21.83-14.16q-6.35-3-13-5.3c-4.14-1.47-8.4-2.59-12.38-4.46a65.32,65.32,0,0,1-18.13-13.29c-6.28-6.26-11.88-13.15-18-19.59-1.1-1.18-2.87.59-1.77,1.76Z"/><path class="cls-11" d="M642.39,872.17a87.65,87.65,0,0,0,27.41,29.05c1.35.89,2.6-1.27,1.27-2.15a84.85,84.85,0,0,1-26.52-28.16,1.25,1.25,0,0,0-2.16,1.26Z"/><path class="cls-11" d="M645.82,873.8c3.82-2.6,8.57-3.36,13.11-3.09,7.35.43,14.26,3.61,20.34,7.59,1.35.88,2.6-1.28,1.26-2.16-6.46-4.23-13.8-7.47-21.6-7.93-4.93-.3-10.22.61-14.37,3.44-1.32.9-.07,3.06,1.26,2.15Z"/><path class="cls-11" d="M628.43,590.12a106,106,0,0,1,42.27,59.47c3.82,14.15,4.13,28.91,5.21,43.45A395.91,395.91,0,0,0,681,735.79c2.89,15.59,7.36,30.93,14.38,45.18.72,1.45,2.87.18,2.16-1.26-12.85-26.07-16.69-55.33-18.91-84-1.15-14.73-1.35-29.74-4.84-44.17A108.29,108.29,0,0,0,629.69,588c-1.33-.91-2.58,1.26-1.26,2.16Z"/><path class="cls-11" d="M650.81,610.76A82.56,82.56,0,0,1,692,629.61c1.66,1.43,3.27,2.92,4.81,4.47.74.76,1.48,1.52,2.19,2.31.36.39.72.78,1.07,1.18l.39.45.39.45c.33.49.83.39,1.49-.27l.37.88,0-.18c-.2-1.58-2.71-1.6-2.5,0a1.72,1.72,0,0,0,3.35.38,2.78,2.78,0,0,0-.91-2.57c-.77-.92-1.57-1.8-2.39-2.68a83.44,83.44,0,0,0-10.11-9.14,85.18,85.18,0,0,0-23.64-12.8,81.89,81.89,0,0,0-15-3.74c-1.57-.24-2.25,2.17-.66,2.41Z"/><path class="cls-11" d="M648.57,612.36c-3.67,6.53-5,13.92-5.81,21.28-.86,8.09-1.41,16.22-2.09,24.33l-1.23,14.49c-.13,1.6,2.37,1.6,2.5,0q1.34-15.72,2.65-31.45c.79-9.32,1.46-19,6.14-27.38a1.25,1.25,0,0,0-2.16-1.27Z"/><path class="cls-11" d="M674.88,660.85c1.76-.08,3.64,1.58,5,2.51,1.6,1,3.16,2.16,4.69,3.31a86.64,86.64,0,0,1,8.58,7.44,89.2,89.2,0,0,1,13.85,17.59,87.86,87.86,0,0,1,5.83,11.54c.61,1.47,3,.82,2.41-.66A91.76,91.76,0,0,0,686.51,665q-2.67-2.06-5.49-3.9c-1.81-1.19-3.86-2.85-6.14-2.74-1.61.08-1.61,2.58,0,2.5Z"/><path class="cls-11" d="M673.52,659.78c-5.38,4.39-8.16,11.07-10.68,17.34a147.46,147.46,0,0,0-7,22.36q-.72,3.18-1.31,6.37c-.19,1.07-.38,2.14-.55,3.21-.1.6-.06,2.33-.69,2.61-1.47.65-.2,2.81,1.26,2.16s1.58-2.47,1.8-3.88c.31-1.91.65-3.82,1-5.71q1.15-5.82,2.77-11.52A125.78,125.78,0,0,1,668.26,671a27.49,27.49,0,0,1,7-9.4c1.25-1-.53-2.78-1.77-1.77Z"/><path class="cls-11" d="M680.72,713.89c3.58-.39,6.25,2.78,8.52,5.1q4.13,4.21,8,8.66a219,219,0,0,1,14.51,18.47c.92,1.31,3.08.06,2.16-1.26a226.55,226.55,0,0,0-15.51-19.68c-2.76-3.11-5.6-6.16-8.53-9.11-2.44-2.46-5.45-5.08-9.16-4.68-1.59.17-1.6,2.67,0,2.5Z"/><path class="cls-11" d="M676.49,713.66a145,145,0,0,0-7,38.38c-.08,1.61,2.42,1.61,2.5,0a142.39,142.39,0,0,1,6.95-37.71c.5-1.53-1.91-2.19-2.41-.67Z"/><path class="cls-11" d="M737.41,404.34c7.15,12.74,18.4,22.28,29.71,31.22,11.77,9.32,23.74,18.45,32.81,30.58,9.55,12.79,16.13,27.58,20.45,42.89,4.85,17.18,6.8,35,7.61,52.81.61,13.52.58,27.07.61,40.61v4.12a1.25,1.25,0,0,0,2.5,0c0-12.81,0-25.62-.38-38.43-.57-18.1-2.1-36.29-6.4-53.93-3.78-15.47-9.68-30.58-18.45-43.92A106.91,106.91,0,0,0,791,452.22,220.85,220.85,0,0,0,774,437.84c-11.39-9-23.36-17.95-31.58-30.1-1-1.51-2-3.07-2.88-4.66-.78-1.4-2.94-.14-2.15,1.26Z"/><path class="cls-11" d="M757.11,427.47c10.88,6.53,23.94,5.94,36.17,6.66a72.9,72.9,0,0,1,18.53,3.22,81.11,81.11,0,0,1,17.5,8.37,152.58,152.58,0,0,1,17.49,12.95c1.22,1,3-.72,1.76-1.76-9.85-8.3-20.45-16-32.53-20.7a67.89,67.89,0,0,0-18.59-4.27c-6.24-.58-12.53-.57-18.78-1.06-7.06-.56-14.14-1.88-20.29-5.57a1.25,1.25,0,0,0-1.26,2.16Z"/><path class="cls-11" d="M800.85,467.35c17.87,12.31,40.11,17.85,54.67,34.76a64.74,64.74,0,0,1,9.86,15.49c.66,1.46,2.82.19,2.16-1.27A67.23,67.23,0,0,0,847,490.76c-8.77-6.67-18.87-11.24-28.65-16.19a139.88,139.88,0,0,1-16.28-9.38c-1.32-.92-2.58,1.25-1.26,2.16Z"/><path class="cls-11" d="M829.66,583.23a58.78,58.78,0,0,1,8.26,13.11c2.6,5.35,4.83,11.23,5.15,17.22.09,1.6,2.59,1.61,2.5,0-.33-6.33-2.6-12.47-5.33-18.14a61.14,61.14,0,0,0-8.81-14c-1.07-1.21-2.83.57-1.77,1.77Z"/><path class="cls-11" d="M754.7,425.64a66.52,66.52,0,0,0,8.78,39.49,1.25,1.25,0,0,0,2.16-1.26,64.2,64.2,0,0,1-8.44-38.23c.15-1.6-2.35-1.59-2.5,0Z"/><path class="cls-11" d="M800,468c-3.08,7.57-5.38,15.67-5,23.92s3.5,16.17,6.61,23.81c.6,1.47,3,.82,2.41-.67-3-7.41-6.16-15-6.52-23.14s1.92-15.88,4.92-23.25c.61-1.49-1.81-2.14-2.41-.67Z"/><path class="cls-11" d="M755.31,581.12c11,12,22,24.16,31.16,37.67,9,13.21,16.12,27.82,18.76,43.68,3,18.16-.21,36.66-5.68,54-5.66,17.93-13.53,35.14-21.26,52.24-3.85,8.53-7.88,17-11.78,25.48-3.71,8.06-7.18,16.33-9,25-.44,2.11-.77,4.23-1,6.37-.19,1.59,2.32,1.58,2.5,0,1-9,4.18-17.7,7.82-26,3.78-8.61,7.94-17.06,11.84-25.62,7.83-17.18,15.78-34.47,21.86-52.36,5.86-17.3,9.81-35.7,7.94-54-1.67-16.27-8-31.51-16.65-45.27S772.25,596,761.26,583.93l-4.18-4.58c-1.09-1.19-2.86.58-1.77,1.77Z"/><path class="cls-11" d="M775.36,602.56c13.91,17,37.42,22.44,50.81,40a38.11,38.11,0,0,1,4.46,7.4,31.49,31.49,0,0,1,1.43,3.91c.21.72.39,1.45.55,2.19l.15.74c0,.25.09.5.13.75s.08.41.46.13l.88.37-.17-.14c-1.23-1-3,.75-1.77,1.76a1.69,1.69,0,0,0,2.65-.37c.78-1.19.35-2.62.08-3.91a33.49,33.49,0,0,0-2.71-7.71,47.32,47.32,0,0,0-10.25-13.32c-8.78-8.25-19.6-13.63-29.55-20.26a68.14,68.14,0,0,1-15.38-13.35c-1-1.24-2.78.53-1.77,1.77Z"/><path class="cls-11" d="M806.25,678.67l15.32,20.81c4.4,6,9,12,12,18.86a30.21,30.21,0,0,1,2.58,12,1.25,1.25,0,0,0,2.5,0c0-7.51-3-14.49-6.93-20.76-4.32-6.93-9.46-13.38-14.3-20l-9-12.2c-.95-1.29-3.12,0-2.16,1.26Z"/><path class="cls-11" d="M797,729.76c-.8.2-1,.44-.64.73l.39.76c.25.51.49,1,.73,1.53q.71,1.58,1.29,3.21a49.5,49.5,0,0,1,1.81,6.43,66.08,66.08,0,0,1,1.37,13.08c.12,9.1-1.14,18.15-2.48,27.13-.24,1.57,2.17,2.25,2.41.66,2.37-15.84,4.83-32.91-.85-48.36-.4-1.09-.84-2.16-1.31-3.22a12.82,12.82,0,0,0-1.45-2.83c-.94-1.15-3.27-1.71-3.68.22-.34,1.57,2.07,2.24,2.41.66Z"/><path class="cls-11" d="M794.75,728.38a37.19,37.19,0,0,0-10.62,8.54c-3.19,3.54-6.23,7.22-9.17,11a241.47,241.47,0,0,0-16.25,23.39c-.84,1.38,1.32,2.63,2.16,1.26a236.59,236.59,0,0,1,15.86-22.88c2.85-3.62,5.79-7.18,8.86-10.62A36.18,36.18,0,0,1,796,730.54c1.43-.73.17-2.89-1.26-2.16Z"/><path class="cls-11" d="M803.7,679.36a184,184,0,0,0-27.56,34.43q-3.35,5.41-6.3,11.05c-.75,1.42,1.4,2.68,2.15,1.26a181.24,181.24,0,0,1,33.48-45c1.15-1.13-.62-2.9-1.77-1.77Z"/><path class="cls-11" d="M779.93,609.77c2.57,16.86-4.72,33.2-5.4,49.91a48.78,48.78,0,0,0,1.29,13.78,1.25,1.25,0,0,0,2.41-.67c-4.11-16.58,2.91-33.26,4.42-49.71a57.3,57.3,0,0,0-.31-14c-.24-1.59-2.65-.91-2.41.66Z"/><circle class="cls-3" cx="775.73" cy="652.26" r="67.45"/><path class="cls-4" d="M835.64,647.77a15.47,15.47,0,0,1-10.13,3.89h-.25c-9-.15-18.53-8.23-28.19-24-7.39-12-16.85-19.36-28.08-21.93-16.65-3.81-32.55,4-37,6.46a59.54,59.54,0,0,0-12.49,20.39c6.32-4,18-9.61,30.93-7.44,11.9,2,22.1,10.13,30.32,24.17,6.79,13.46,15.15,21.32,24.89,23.46,13.27,2.92,25.48-5.67,28.9-8.37l.17-.13a59.32,59.32,0,0,0,1.15-11.62C835.86,651,835.77,649.37,835.64,647.77Z"/><path class="cls-5" d="M769.9,601.78c12.34,2.83,22.65,10.82,30.64,23.76,11.07,18.1,19.59,22,24.79,22.09h.18c5.52,0,8.86-4.17,9.48-5a60.05,60.05,0,0,0-92.81-39.17C749.69,601.07,759.58,599.42,769.9,601.78Z"/><path class="cls-6" d="M741.09,657.56c9.06.7,17.11,8.18,23.95,22.25,6.34,12.56,14.49,20.12,24.22,22.43,11.42,2.7,22.11-2.54,26.46-5.12a59.48,59.48,0,0,0,17.62-27.4c-4.79,3.11-12.91,7.27-22.16,7.27a29.53,29.53,0,0,1-6.33-.68C794,673.92,784.78,665.42,777.52,651c-7.58-13-16.92-20.49-27.68-22.31-15-2.52-28.62,6.88-32.06,9.49a59.15,59.15,0,0,0,.7,31.35C722,665.39,730.55,656.72,741.09,657.56Z"/><path class="cls-7" d="M795.92,706.65a32.4,32.4,0,0,1-7.51-.87c-10.83-2.57-19.8-10.76-26.66-24.36-6.24-12.83-13.28-19.63-20.93-20.23-11-.89-20.19,11.48-20.94,12.52a60.16,60.16,0,0,0,82.5,32.34A37.37,37.37,0,0,1,795.92,706.65Z"/><path class="cls-11" d="M644.42,369.9c-7.19.19-13.79-3.84-19.81-7.29s-12.5-7.5-19.65-8.33c-8.11-.94-15.59,3.6-20.86,9.41-6.07,6.7-10.18,15-15.54,22.22A126.45,126.45,0,0,1,547.79,408c-1.24,1,.54,2.79,1.77,1.77a126.85,126.85,0,0,0,18.32-18.89q4.08-5.17,7.69-10.7c2.45-3.74,4.73-7.6,7.4-11.19,4.81-6.47,11.83-12.63,20.4-12.34,7,.23,13.45,4.35,19.34,7.74,6.6,3.79,13.82,8.21,21.71,8a1.25,1.25,0,0,0,0-2.5Z"/><path class="cls-11" d="M771.2,398.6a86.28,86.28,0,0,0,38.23-39.19,101.08,101.08,0,0,0,9.66-52.09c-.89-12-.31-24.84,6.21-35.3.85-1.37-1.31-2.62-2.16-1.26-5.7,9.14-7.09,20.19-6.84,30.77.11,4.69.65,9.34.66,14a96.68,96.68,0,0,1-.86,13.28c-2.39,17.73-9.68,35-21.5,48.48a81.92,81.92,0,0,1-24.66,19.12c-1.44.73-.17,2.89,1.26,2.16Z"/><path class="cls-11" d="M797.25,377.72c20.55-9.69,46.08-9.06,63.07-25.85a36.88,36.88,0,0,0,5.32-6.57c1.35-2.12,3.54-5.31,2.76-7.92-.47-1.54-2.88-.88-2.41.66.36,1.2-.66,2.71-1.2,3.74a35.38,35.38,0,0,1-1.91,3.19,35.74,35.74,0,0,1-4.59,5.39,50.31,50.31,0,0,1-12.1,8.45c-9.91,5.1-20.89,7.35-31.57,10.23A111.53,111.53,0,0,0,796,375.57c-1.46.68-.19,2.84,1.26,2.15Z"/><path class="cls-11" d="M809.83,356.28a104.15,104.15,0,0,1,12.42-7.56c4.29-2.18,8.86-3.77,13.16-5.94a36.67,36.67,0,0,0,20-30.1c.11-1.61-2.39-1.6-2.5,0a34.27,34.27,0,0,1-9.11,20.73,33.85,33.85,0,0,1-9.29,7c-4.08,2.11-8.43,3.61-12.54,5.63a102.22,102.22,0,0,0-13.44,8.07c-1.31.92-.06,3.09,1.26,2.16Z"/><path class="cls-11" d="M819.23,328.42c4.49-5.64,9.42-11.1,13.19-17.27A29.76,29.76,0,0,0,837,295.29a55.19,55.19,0,0,0-1.7-12.19c-.36-1.57-2.77-.91-2.41.66,1.41,6,2.38,12.37.78,18.43-1.43,5.37-4.73,10-8.09,14.32-2.66,3.42-5.43,6.76-8.12,10.14-1,1.25.76,3,1.76,1.77Z"/><path class="cls-11" d="M817,328.48c.23.15-.06-.05-.23-.25a2.93,2.93,0,0,1-.36-.45c-.42-.58-.81-1.19-1.19-1.81a57.52,57.52,0,0,1-2.87-5.44,45.32,45.32,0,0,1-2.29-5.86,18.24,18.24,0,0,1-.61-2.63,6.44,6.44,0,0,1,0-1.7c.35-1.57-2.06-2.24-2.41-.67a11.18,11.18,0,0,0,.54,5.37,45.22,45.22,0,0,0,2.53,6.55,57.1,57.1,0,0,0,3.06,5.79,9.8,9.8,0,0,0,2.58,3.26c1.35.88,2.6-1.28,1.26-2.16Z"/><path class="cls-11" d="M809.57,354.47a31.88,31.88,0,0,1-5.34-17.18,1.25,1.25,0,0,0-2.5,0,34.39,34.39,0,0,0,5.68,18.44c.88,1.34,3.05.09,2.16-1.26Z"/><path class="cls-11" d="M688,540.57c10.51-4,18.08-14.11,22.27-24.18a40,40,0,0,0,3.39-16.15c-.16-6.66-2.54-13.07-5-19.2-2.82-7.15-6-14.4-6.29-22.2-.06-1.6-2.56-1.61-2.5,0,.53,13.45,9,24.76,10.94,37.88,1.62,10.82-3.22,22.27-9.85,30.63-3.6,4.56-8.16,8.73-13.67,10.81-1.49.57-.84,3,.67,2.41Z"/><path class="cls-11" d="M712.64,499.64a26.12,26.12,0,0,0,6.85-3.85c2-1.54,4.16-3.43,5-5.9a28.36,28.36,0,0,0,1.1-8.5c.1-4.1-.05-8.22-.09-12.32a1.25,1.25,0,0,0-2.5,0c0,3.73.14,7.47.1,11.21a33.55,33.55,0,0,1-.8,8.18c-.57,2.2-2.33,3.79-4.06,5.15a23.29,23.29,0,0,1-6.28,3.62c-1.5.54-.85,3,.67,2.41Z"/><path class="cls-11" d="M710.5,518a27.37,27.37,0,0,0,25.22-9.61c1-1.24-.75-3-1.76-1.77a24.93,24.93,0,0,1-22.8,9c-1.57-.24-2.25,2.17-.66,2.41Z"/><path class="cls-11" d="M759.39,157.43a91.09,91.09,0,0,1-10.3,20.16,142.4,142.4,0,0,1-16.58,21c-5.64,5.91-11.87,11.49-19,15.48-8.53,4.75-18.44,5.32-28,6.42a119.58,119.58,0,0,0-16.81,2.9,91.75,91.75,0,0,0-40.81,23.19c-7.9,7.69-14.92,16.39-24.6,22A57.15,57.15,0,0,1,573,276.19c-5.73-.19-11.26-1.7-17-2.21a24.52,24.52,0,0,0-14,2.72c-7.78,4.23-12.92,12.17-16.94,19.79-1,2-2,4-3,6.07-.69,1.45,1.47,2.72,2.16,1.27,3.79-8,8.08-16.46,15-22.24a21.9,21.9,0,0,1,11.82-5.14c6-.57,11.89,1.32,17.81,1.95a59.44,59.44,0,0,0,30.55-5,58.24,58.24,0,0,0,13.34-8.4,145.86,145.86,0,0,0,12-11.62,124.52,124.52,0,0,1,12-11.22,88,88,0,0,1,13.36-8.75,91.61,91.61,0,0,1,30.83-9.82c6-.82,12-1.29,18-2.25a49.26,49.26,0,0,0,12.63-3.44c7.17-3.25,13.46-8.4,19.1-13.81A142.34,142.34,0,0,0,748,183.7a114.57,114.57,0,0,0,12-20.93c.65-1.54,1.26-3.09,1.79-4.67s-1.9-2.19-2.41-.67Z"/><path class="cls-11" d="M724.38,203.73c-12.34.89-24.37-2.29-36.49-4a81.61,81.61,0,0,0-18.07-.86,62,62,0,0,0-32.56,12.54c-1.26,1,0,3.14,1.26,2.16A59.92,59.92,0,0,1,669,201.46c11.9-1.16,23.59,1.67,35.26,3.5a89,89,0,0,0,20.15,1.27c1.59-.11,1.61-2.61,0-2.5Z"/><path class="cls-11" d="M654.19,227.36a64.17,64.17,0,0,0-12.33-6.14,30.87,30.87,0,0,0-13.08-1.45,31.3,31.3,0,0,0-12.33,3.93,65.51,65.51,0,0,0-10,7.63c-1.78,1.54-3.57,3.09-5.47,4.47-1,.72-2,1.41-3.07,2-.86.5-1.77.92-2,2-.34,1.57,2.07,2.24,2.41.67.07-.29,1.93-1.15,2.24-1.36.8-.52,1.57-1.07,2.34-1.65,1.5-1.13,3-2.33,4.38-3.56a82,82,0,0,1,9.22-7.32,28.92,28.92,0,0,1,23.42-3.36c4.66,1.36,8.88,3.8,13,6.28a1.25,1.25,0,0,0,1.27-2.15Z"/><path class="cls-11" d="M615.25,260.21a67.27,67.27,0,0,0-34.73,3.37c-1.49.57-.84,3,.67,2.41a64.76,64.76,0,0,1,33.4-3.36c1.57.26,2.25-2.15.66-2.42Z"/><circle class="cls-13" cx="336.29" cy="755.87" r="3.98"/><circle class="cls-13" cx="342.14" cy="770.11" r="3.98"/><circle class="cls-13" cx="241.45" cy="787.97" r="3.98"/><circle class="cls-13" cx="209.16" cy="821.96" r="3.98"/><circle class="cls-13" cx="164.81" cy="865.29" r="3.98"/><circle class="cls-13" cx="341.49" cy="1014.97" r="3.98"/><circle class="cls-13" cx="255.56" cy="962.97" r="3.98"/><circle class="cls-13" cx="225.47" cy="1023.24" r="3.98"/><circle class="cls-13" cx="302.69" cy="1067.84" r="3.98"/><circle class="cls-13" cx="257.45" cy="1115.62" r="3.98"/><circle class="cls-13" cx="188.93" cy="1079.31" r="3.98"/><circle class="cls-13" cx="191.9" cy="1165.01" r="3.98"/><circle class="cls-13" cx="151.35" cy="1138.08" r="3.98"/><circle class="cls-13" cx="514.55" cy="676.41" r="3.98"/><circle class="cls-13" cx="458.28" cy="682.96" r="3.98"/><circle class="cls-13" cx="431.43" cy="636.6" r="3.98"/><circle class="cls-13" cx="412.16" cy="692.7" r="3.98"/><circle class="cls-13" cx="390.05" cy="671.77" r="3.98"/><circle class="cls-13" cx="464.83" cy="611.28" r="3.98"/><circle class="cls-13" cx="443.21" cy="464.58" r="3.98"/><circle class="cls-13" cx="475.22" cy="563.95" r="3.98"/><circle class="cls-13" cx="409.77" cy="494.58" r="3.98"/><circle class="cls-13" cx="407.54" cy="560.03" r="3.98"/><circle class="cls-13" cx="639.73" cy="677.44" r="3.98"/><circle class="cls-13" cx="653.14" cy="716.94" r="3.98"/><circle class="cls-13" cx="670.7" cy="756.43" r="3.98"/><circle class="cls-13" cx="713.53" cy="749.47" r="3.98"/><circle class="cls-13" cx="715.73" cy="706.89" r="3.98"/><circle class="cls-13" cx="837.37" cy="735.31" r="3.98"/><circle class="cls-13" cx="798.49" cy="787.18" r="3.98"/><circle class="cls-13" cx="756.86" cy="775.86" r="3.98"/><circle class="cls-13" cx="768.74" cy="729.04" r="3.98"/><path class="cls-11" d="M827.54,537.05c12.84,4.11,23.27,13.54,30.53,24.71a80.31,80.31,0,0,1,5.5,10c.68,1.46,2.84.19,2.16-1.26-5.82-12.5-14.86-23.93-26.84-31a51.8,51.8,0,0,0-10.69-4.8c-1.54-.49-2.19,1.92-.66,2.41Z"/><circle class="cls-13" cx="514.99" cy="1066.39" r="3.98"/><circle class="cls-13" cx="560.88" cy="1028.19" r="3.98"/><circle class="cls-13" cx="473.71" cy="989.46" r="3.98"/><circle class="cls-13" cx="460" cy="1030.19" r="3.98"/><circle class="cls-13" cx="460" cy="1099.4" r="3.98"/><circle class="cls-13" cx="419.27" cy="1080.95" r="3.98"/><circle class="cls-13" cx="674.41" cy="903.38" r="3.98"/><circle class="cls-13" cx="684.82" cy="879.93" r="3.98"/><circle class="cls-13" cx="725.26" cy="465.07" r="3.98"/><circle class="cls-13" cx="738.48" cy="504.32" r="3.98"/><circle class="cls-13" cx="868.71" cy="333.94" r="3.98"/><circle class="cls-13" cx="855.19" cy="308.7" r="3.98"/><circle class="cls-13" cx="833.89" cy="279.45" r="3.98"/><circle class="cls-13" cx="808.09" cy="305.36" r="3.98"/><circle class="cls-13" cx="802.98" cy="332.94" r="3.98"/><circle class="cls-13" cx="851.31" cy="461.33" r="3.98"/><circle class="cls-13" cx="768.04" cy="467.27" r="3.98"/><circle class="cls-13" cx="804.46" cy="519.42" r="3.98"/><circle class="cls-13" cx="866.46" cy="521.13" r="3.98"/><circle class="cls-13" cx="865.5" cy="575.61" r="3.98"/><circle class="cls-13" cx="845.15" cy="617.54" r="3.98"/><circle class="cls-13" cx="576.88" cy="266.63" r="3.98"/><circle class="cls-13" cx="592.91" cy="242.37" r="3.98"/><circle class="cls-13" cx="633.92" cy="213.57" r="3.98"/><path class="cls-1" d="M635.08,461.43c-.89,6.82-.86,14.4,4.37,19.6a5,5,0,0,0,5.46,1,5.13,5.13,0,0,0,3.08-4.57c-.13.72-.15.89,0,.52s0-.22-.2.41a5.23,5.23,0,0,0,.48-.91,20.56,20.56,0,0,0,1-2.11,8.25,8.25,0,0,0-.41-7.12,6.53,6.53,0,0,0-.48-.86c-.15-.3-.13-.22.07.25q-.12-.3-.21-.6a9.77,9.77,0,0,1-.27-1c-.09-.42-.16-1.26-.08-.37-.16-1.77-.26-3.54-.29-5.31a80.67,80.67,0,0,1,.54-10.65c.12-1.1-.11.65.07-.55l.18-1.17c.14-.86.3-1.72.46-2.57q.55-2.79,1.31-5.54a5,5,0,1,0-9.64-2.66,82.28,82.28,0,0,0-2.93,22.67c0,3.83.12,7.86,1.63,11.43.19.45.39.89.62,1.32.13.23.26.46.38.69l-.21-.48c-.09-.33.28-1.77,0-1,.53-1.29.1-.24,0,0a13.94,13.94,0,0,0-1.93,5.63l8.53-3.54a9.18,9.18,0,0,0-.73-.78c.22,0,.6.87.07,0-.16-.24-.3-.49-.44-.75s-.15-.3-.22-.46c-.16-.34-.1-.21.16.4.08-.4-.44-1.42-.53-1.85-.05-.2-.24-.68-.17-.88.09.68.11.82.06.44,0-.19,0-.37-.05-.55a38.71,38.71,0,0,1,.41-8.12c.34-2.61-2.54-5.11-5-5-3,.13-4.63,2.21-5,5Z"/><path class="cls-1" d="M767.5,212.83c0,.25,0,.5-.08.75l.18-1.32a14.05,14.05,0,0,1-.91,3.36l.5-1.2a14,14,0,0,1-1.75,3l.78-1a13.13,13.13,0,0,1-2.34,2.37l1-.78-.36.27,7.34,3-1.29-4.71a5.25,5.25,0,0,0-1.29-2.21,5,5,0,0,0-2.87-1.38,5.1,5.1,0,0,0-5,2.39l-2.62,4.57,7.85-1a1.71,1.71,0,0,1-.18-.2l.78,1c-.07-.11-.12-.21-.18-.32l.51,1.19a1.31,1.31,0,0,1-.09-.34l.17,1.33a2.66,2.66,0,0,1,0-.49l-.18,1.33a3.26,3.26,0,0,1,.18-.63l-.51,1.19a4.93,4.93,0,0,1,.58-1l-.78,1a7.1,7.1,0,0,1,1.27-1.24l-1,.78a7.75,7.75,0,0,1,1.66-1l-1.2.5a4.71,4.71,0,0,1,.91-.25l-1.33.18a3.38,3.38,0,0,1,.78,0l-1.33-.18a2.61,2.61,0,0,1,.61.16l-1.2-.51a3.81,3.81,0,0,1,.55.33l-1-.78a3.12,3.12,0,0,1,.44.45l-.78-1a2.37,2.37,0,0,1,.31.53l-.5-1.2a2,2,0,0,1,.12.46l-.18-1.33a1.77,1.77,0,0,1,0,.46l.18-1.33a3.37,3.37,0,0,1-.1.34l.5-1.2a.94.94,0,0,1-.12.22,5,5,0,0,0,1.79,6.84,5.06,5.06,0,0,0,3.86.5,5.3,5.3,0,0,0,3-2.29,6.6,6.6,0,0,0,.68-5.1,6.79,6.79,0,0,0-.82-1.85,7.49,7.49,0,0,0-1.3-1.56,7.93,7.93,0,0,0-2.16-1.36,7.48,7.48,0,0,0-2.53-.59,8.73,8.73,0,0,0-4.36,1,13.87,13.87,0,0,0-2.71,1.86,10.38,10.38,0,0,0-2,2.34,7,7,0,0,0,.65,8.78,5,5,0,0,0,7.85-1l2.62-4.57-9.14-1.2,1.3,4.72a4.9,4.9,0,0,0,2.89,3.24,4.71,4.71,0,0,0,4.45-.25,19,19,0,0,0,5.59-6.09,19.32,19.32,0,0,0,2.34-8,5,5,0,0,0-8.54-3.54,5.6,5.6,0,0,0-1.46,3.54Z"/><path class="cls-1" d="M732.52,324.14c.08,19.22.42,38.51,5.33,57.22a142.06,142.06,0,0,0,4.82,14.94,2.56,2.56,0,0,0,3.07,1.74,2.52,2.52,0,0,0,1.75-3.07,142,142,0,0,1-7.32-26.38,193.9,193.9,0,0,1-2.46-28.26c-.14-5.4-.17-10.8-.19-16.19,0-3.22-5-3.23-5,0Z"/><circle class="cls-3" cx="539.67" cy="854.81" r="67.45"/><path class="cls-4" d="M599.59,850.32a15.49,15.49,0,0,1-10.13,3.89h-.25c-9.05-.15-18.53-8.23-28.19-24-7.4-12-16.85-19.36-28.09-21.93-16.64-3.81-32.55,4-37,6.46a59.36,59.36,0,0,0-12.48,20.39c6.31-4,18-9.61,30.92-7.44,11.9,2,22.1,10.13,30.32,24.18,6.8,13.45,15.15,21.31,24.89,23.45,13.27,2.92,25.48-5.67,28.91-8.37l.16-.13a59.32,59.32,0,0,0,1.15-11.62C599.8,853.54,599.72,851.92,599.59,850.32Z"/><path class="cls-5" d="M533.84,804.33c12.34,2.83,22.65,10.82,30.64,23.76,11.07,18.1,19.6,22,24.8,22.09h.17c5.52,0,8.86-4.17,9.49-5A60,60,0,0,0,506.12,806C513.64,803.62,523.52,802,533.84,804.33Z"/><path class="cls-6" d="M505,860.11c9.05.7,17.11,8.19,23.94,22.25,6.34,12.57,14.5,20.12,24.23,22.43,11.41,2.7,22.11-2.54,26.45-5.11a59.49,59.49,0,0,0,17.62-27.41c-4.78,3.11-12.91,7.27-22.16,7.27a29.6,29.6,0,0,1-6.33-.68c-10.87-2.39-20.06-10.89-27.32-25.28-7.59-13-16.92-20.49-27.68-22.31-15-2.52-28.62,6.88-32.06,9.49a59.28,59.28,0,0,0,.69,31.35C485.91,867.94,494.49,859.27,505,860.11Z"/><path class="cls-7" d="M559.86,909.2a32.31,32.31,0,0,1-7.5-.87c-10.84-2.57-19.81-10.76-26.67-24.36-6.24-12.83-13.27-19.63-20.92-20.23-11-.89-20.2,11.48-20.94,12.52a60.15,60.15,0,0,0,82.49,32.34A37.28,37.28,0,0,1,559.86,909.2Z"/></g></svg>