<svg xmlns="http://www.w3.org/2000/svg" xmlns:xlink="http://www.w3.org/1999/xlink" width="1024.696" height="1418.329" viewBox="0 0 1024.696 1418.329">
  <defs>
    <clipPath id="clip-path">
      <rect id="Rectangle_19" data-name="Rectangle 19" width="141.12" height="120.56" transform="matrix(0.54, -0.842, 0.842, 0.54, 523.899, 387.815)" fill="none"/>
    </clipPath>
  </defs>
  <g id="ufo_1_" data-name="ufo (1)" transform="translate(-0.001 16.113)">
    <g id="fire3">
      <path id="Path_459" data-name="Path 459" d="M670.25,563.76c-29.62,31.86-72.28,45.89-113.09,52s-82,5.67-122.48,15.23-82,31.41-103.74,69.22c-5.05,8.76-9,18.94-7.17,28.41,3.68,18.95,26.78,24,38.3,38.61,17.81,22.55,3,59-15.9,83.93-17.85,23.61-39,44.38-60.5,64.44C249.8,949,209.66,986,203.09,1034c-6.13,44.77,20.92,86.16,57.33,106.79S341,1164.87,384,1164.32c32.51-.42,70-.79,88.93,25,18.26,24.87,10.21,61.8,12.53,94.07,2.72,38,21.95,73.1,51.89,92.94s70.14,23.72,105.51,9.33c13.14-5.34,25.87-13.33,34.7-25,20.24-26.81,14.5-64,2.93-93.32s-28.14-58-26.27-90.7c2.14-37.47,31.09-73.33,66.28-84.47,71.64-22.7,139.55,48.71,211.55,27.77,23.88-7,45.61-24.26,58.63-46.71,24.25-41.82,16.14-93.89-3.58-134.39s-49.63-74.21-70-114.33-30-91.45-7.52-134.21" transform="translate(-202.22 -199.15)" fill="#f6a079"/>
      <path id="Path_460" data-name="Path 460" d="M740.08,1349.43c-4.72,16.42-10.8,33.08-9.21,50.1.6,6.45,2.44,13,6.68,17.91a28.39,28.39,0,0,0,10,7.06c12,5.3,26.24,4.43,38.06-1.19s21.24-15.69,27.23-27.34c12-23.42,9.78-53.53-5.66-74.88-9.39-13-37.65-35.46-55.75-29.59C738.06,1295.85,744.34,1334.61,740.08,1349.43Z" transform="translate(-202.22 -199.15)" fill="#f6a079"/>
      <path id="Path_461" data-name="Path 461" d="M648.93,1493.72c.23,15.72,3.87,31.87,13.35,44.42s25.54,20.79,41,18.1,28.58-18.09,26.08-33.62c-1.3-8-6.2-15-11.41-21.24-8.48-10.19-18.34-19.3-26.2-30-4.17-5.67-11-27.58-16.66-30.08C652.16,1431.1,648.75,1481.93,648.93,1493.72Z" transform="translate(-202.22 -199.15)" fill="#f6a079"/>
      <path id="Path_462" data-name="Path 462" d="M772.7,1601.06c22.85-3.55,31-40.3,3.8-42.52C750,1556.38,743,1605.68,772.7,1601.06Z" transform="translate(-202.22 -199.15)" fill="#f6a079"/>
      <path id="Path_463" data-name="Path 463" d="M753.06,1163.49c-8,10-23.85,10.5-43.57,8.27a50.146,50.146,0,0,1-5.76-1c-4.46-.88-8.78-2.68-10.52-6.67-3.24-7.43,3.78-18.89,12-26,2.78-2.41,22.65-22.11,39.27-13.61,9.65,4.93,12.56,16.47,13.33,20.15C758.59,1155.63,754.85,1161.28,753.06,1163.49Z" transform="translate(-202.22 -199.15)" fill="#f6a079"/>
    </g>
    <g id="fire2">
      <path id="Path_464" data-name="Path 464" d="M679.51,576.42c-7,21-27.6,34.44-47.35,43.19-39.95,17.69-82.64,24.69-123.75,38.24s-83,35.69-107.2,73.65c-5.08,7.94-9.37,16.79-9.87,26-1,19,14.72,33.61,31.82,38.86s35.86,3.85,53.78,6.08c8.59,1.07,17.46,3.22,23.35,9.42,8.63,9.08,8.39,24.79,2.62,37.19s-16,22.13-26.3,31c-29.89,25.7-62.94,47.41-90.49,75.85s-49.76,66-48.87,104.54c.37,16.16,5.08,32.2,15.27,43.58s26.27,17.43,41.7,13.45c27.06-7,41.4-38.89,49.4-66.77,2.7-9.42,5.3-19.13,11-27.22s15.24-14.27,24.16-12.55c11.31,2.19,16.56,15.76,15.92,27.95s-5.36,24.17-6.54,36.37c-3.16,32.02,20.91,60.75,50.84,65.8s62.75-10.86,83.68-36.2c30.29-36.67,41-92.67,82.18-114.06,7.4-3.83,15.58-6.24,23.47-5.54,17.1,1.52,28.61,16.51,41.15,27.81,21.75,19.6,52.2,29.94,82.09,23.73s58.08-30.48,66.35-61.2c6.52-24.2.71-49.1-8.12-71.1-14-35-35.7-66.16-45.52-103s-4.2-83.63,26.71-108.73" transform="translate(-202.22 -199.15)" fill="#ffe9b2"/>
    </g>
    <g id="fire1">
      <path id="Path_465" data-name="Path 465" d="M687.23,610.58a315.5,315.5,0,0,1,92.15,23.6c8.09,3.45,16.11,7.3,22.84,13,7.36,6.18,15.79,16.44,25.6,16.83C809,670.24,799,694,800.38,713.89s10.9,37.33,18.14,55.32c9.11,22.65,14.82,47.79,10.85,73.1s-19,50.7-41.78,61.9c-12.21,6-27.07,7.39-37.45,0-9.86-7-13.77-20.45-13.59-33.39s3.8-25.81,6.23-38.7a215.239,215.239,0,0,0,3.76-39.9c0-12.4-3.74-27.68-15.56-28.62-9-.71-16.89,7.85-21.62,16.34-14.35,25.7-14.55,55.89-18,84.57-4,33.7-13.47,68.25-34.16,96s-54.28,47.29-86,43c-8.09-1.08-16-3.72-22.24-8.8-16.85-13.72-17.15-41-10.59-63.78,9.53-33.06,30.17-62.4,53.28-88.14,28.86-32.14,63.33-61.7,78.44-102.07,3.16-8.44,4.46-19.83-2.8-23.73-6.34-3.4-14.4,1.66-20.29,6.85-25,22-45.07,51.55-74.49,65.63-7.67,3.67-17.14,6-23.36,1C541,784,544,770,548.8,759.62c13.09-28.1,34.85-51.48,58.48-71.19s49.39-36.26,73.85-54.77c6.72-5.08,14.15-12,13.48-20.21" transform="translate(-202.22 -199.15)" fill="#afe6ff"/>
    </g>
    <g id="bottom">
      <ellipse id="Ellipse_20" data-name="Ellipse 20" cx="171.45" cy="306.45" rx="171.45" ry="306.45" transform="matrix(0.54, -0.842, 0.842, 0.54, 285.571, 299.712)" fill="#4f7dde" stroke="#f6a079" stroke-miterlimit="10" stroke-width="7"/>
      <path id="Path_466" data-name="Path 466" d="M687.24,548.72c-2.84,7.14-9.1,26.17-1.68,51A100.419,100.419,0,0,0,706,636.14" transform="translate(-202.22 -199.15)" fill="none" stroke="#f6a079" stroke-miterlimit="10" stroke-width="7"/>
      <path id="Path_467" data-name="Path 467" d="M884.72,674.7c-5.3,5.56-20,19.19-45.62,22.79a100.62,100.62,0,0,1-41.67-3.39" transform="translate(-202.22 -199.15)" fill="none" stroke="#f6a079" stroke-miterlimit="10" stroke-width="7"/>
    </g>
    <g id="top_line" data-name="top line">
      <path id="Path_468" data-name="Path 468" d="M1149.46,690.45c-27.91,55.33-228.23,33.4-374.2-57.53-152.93-95.26-261.07-275.5-221.87-324.78C593.55,257.65,788.45,344.29,903.55,418,1019,492,1178.61,632.66,1149.46,690.45Z" transform="translate(-202.22 -199.15)" fill="#f6a079"/>
    </g>
    <g id="top">
      <ellipse id="Ellipse_21" data-name="Ellipse 21" cx="144" cy="347.34" rx="144" ry="347.34" transform="matrix(0.54, -0.842, 0.842, 0.54, 284.479, 226.296)" fill="#34375a"/>
    </g>
    <g id="dome_line" data-name="dome line">
      <path id="Path_469" data-name="Path 469" d="M1123.93,538.85c-6.83,18.51-28,28.74-37.38,33.28-14.8,7.15-40.71,14.26-105.56-2.13-65.76-16.62-114.61-45.06-140.8-62.2a473.589,473.589,0,0,1-108-98.4c-25.47-31.79-35.85-51.8-38.66-74.76-1.23-10-5.16-42.17,10.11-59.1,36.09-40,168.89,16.91,251.19,68.47C1031.36,391.93,1143.78,485.06,1123.93,538.85Z" transform="translate(-202.22 -199.15)" fill="#f6a079"/>
    </g>
    <g id="dome">
      <path id="Path_470" data-name="Path 470" d="M1101.94,554.11c-60.7,48.37-193-24.28-221.1-39.73-72.71-39.93-199.46-137.12-179.5-215.87,21-82.8,202.77-139.79,322.39-63.54C1144.07,311.68,1167.69,501.72,1101.94,554.11Z" transform="translate(-202.22 -199.15)" fill="#afe6ff"/>
    </g>
    <g id="details">
      <g id="Group_142" data-name="Group 142" clip-path="url(#clip-path)">
        <g id="Group_141" data-name="Group 141" clip-path="url(#clip-path)">
          <path id="Path_471" data-name="Path 471" d="M811.05,592.83a17.7,17.7,0,0,1-3.12-2.52c-4.13-4.21-5.89-10.31-5.21-18.12.75-7.3-.52-12.24-3.78-14.69-4.69-3.55-12.19-.86-12.81-.63-2.36,12.11,3,25.25,14.47,32.6a32.92,32.92,0,0,0,13.51,5,19.945,19.945,0,0,1-3.06-1.6" transform="translate(-202.22 -199.15)" fill="#4f7dde"/>
          <path id="Path_472" data-name="Path 472" d="M800.06,556c3.86,2.89,5.4,8.42,4.58,16.43-.63,7.21.94,12.8,4.65,16.58,4.36,4.44,10.59,5.25,13.24,5.39A30.28,30.28,0,0,0,838,587.7a23,23,0,0,1-11.92-3.23,16.174,16.174,0,0,1-2.64-2.11c-4.21-4.14-6-10.44-5.25-18.7.17-7.74-1.92-13.66-6.24-17.53-6-5.38-14.69-5.25-16.95-5.11a28.918,28.918,0,0,0-4.77,5.68,29.339,29.339,0,0,0-3.56,8c2.71-.8,8.94-2.06,13.42,1.33" transform="translate(-202.22 -199.15)" fill="#4f7dde"/>
          <path id="Path_473" data-name="Path 473" d="M828.32,540.31c4.74,4.75,7.14,11.15,7.15,19,0,11,2.7,15.07,5,16.6l.08.05a6.63,6.63,0,0,0,5.63.57c5.6-13.46.49-29.71-12.77-38.22a32.82,32.82,0,0,0-17.95-5.24,29.379,29.379,0,0,1,12.86,7.24" transform="translate(-202.22 -199.15)" fill="#afe6ff"/>
          <path id="Path_474" data-name="Path 474" d="M845.05,578.93a8.42,8.42,0,0,1-5.61-1.23l-.11-.08c-4-2.66-6-8.85-6-18.4,0-7.27-2.19-13.15-6.51-17.48-6.4-6.42-15.66-7.62-18.33-7.84a30.09,30.09,0,0,0-11.2,5.18c3.92.1,10.68,1,15.88,5.67,4.77,4.28,7.09,10.7,6.9,19.09-.67,7.73.9,13.5,4.66,17.22,5.13,5.06,13,4.87,15.24,4.69h.11a28.762,28.762,0,0,0,3.71-4.66c.45-.71.86-1.42,1.25-2.15" transform="translate(-202.22 -199.15)" fill="#afe6ff"/>
        </g>
      </g>
      <circle id="Ellipse_22" data-name="Ellipse 22" cx="20.52" cy="20.52" r="20.52" transform="translate(746.05 410.72)" fill="#afe6ff"/>
      <path id="Path_475" data-name="Path 475" d="M957.52,613.93A16.871,16.871,0,1,1,959,647.64h-1.41A21.91,21.91,0,0,0,970,650.82c11.8-.51,21-10.1,20.48-21.43S980,609.31,968.2,609.82a21.8,21.8,0,0,0-12.09,4.23Q956.8,614,957.52,613.93Z" transform="translate(-202.22 -199.15)" fill="#4f7dde" stroke="#34375a" stroke-miterlimit="10" stroke-width="2"/>
      <path id="Path_476" data-name="Path 476" d="M1042.4,615a18.47,18.47,0,0,0,5.9,36.45Z" transform="translate(-202.22 -199.15)" fill="#afe6ff" stroke="#34375a" stroke-miterlimit="10" stroke-width="1"/>
      <path id="Path_477" data-name="Path 477" d="M1043.66,614.66a18.47,18.47,0,0,1,5.9,36.45Z" transform="translate(-202.22 -199.15)" fill="#4f7dde" stroke="#34375a" stroke-miterlimit="10" stroke-width="1"/>
      <circle id="Ellipse_23" data-name="Ellipse 23" cx="16.42" cy="16.42" r="16.42" transform="translate(887.35 397.98)" fill="#4f7dde"/>
      <path id="Path_478" data-name="Path 478" d="M1101,598.4a13.5,13.5,0,1,0,20.782,17.232c.238-.292.468-.592.678-.892a17.47,17.47,0,0,1-4,9.44c-6,7.27-16.58,8.48-23.56,2.69s-7.75-16.37-1.72-23.65a17.45,17.45,0,0,1,8.55-5.65A9.988,9.988,0,0,0,1101,598.4Z" transform="translate(-202.22 -199.15)" fill="#afe6ff" stroke="#34375a" stroke-miterlimit="10" stroke-width="2"/>
      <circle id="Ellipse_24" data-name="Ellipse 24" cx="20.52" cy="20.52" r="20.52" transform="translate(472.28 233.12)" fill="#4f7dde"/>
      <path id="Path_479" data-name="Path 479" d="M714.71,456a16.877,16.877,0,1,0-31.15,13,13.619,13.619,0,0,0,.6,1.28,21.92,21.92,0,0,1-8.14-9.89c-4.54-10.91.27-23.27,10.73-27.63s22.62,1,27.16,11.86a21.859,21.859,0,0,1,1.29,12.74C715.06,456.91,714.9,456.47,714.71,456Z" transform="translate(-202.22 -199.15)" fill="#afe6ff" stroke="#34375a" stroke-miterlimit="10" stroke-width="2"/>
      <path id="Path_480" data-name="Path 480" d="M672.24,373.12a18.46,18.46,0,1,1-35.511,10.1Z" transform="translate(-202.22 -199.15)" fill="#4f7dde" stroke="#34375a" stroke-miterlimit="10" stroke-width="1"/>
      <path id="Path_481" data-name="Path 481" d="M672,371.85A18.481,18.481,0,0,0,636.46,382Z" transform="translate(-202.22 -199.15)" fill="#afe6ff" stroke="#34375a" stroke-miterlimit="10" stroke-width="1"/>
      <circle id="Ellipse_25" data-name="Ellipse 25" cx="16.42" cy="16.42" r="16.42" transform="translate(427.93 99.35)" fill="#afe6ff"/>
      <path id="Path_482" data-name="Path 482" d="M662.43,313.07A13.5,13.5,0,0,1,638,301.55a10.461,10.461,0,0,1,.52-1,17.54,17.54,0,0,0-6.87,7.6c-4,8.54-.65,18.61,7.54,22.48s18.12.08,22.15-8.46A17.57,17.57,0,0,0,662.87,312,10.4,10.4,0,0,1,662.43,313.07Z" transform="translate(-202.22 -199.15)" fill="#4f7dde" stroke="#34375a" stroke-miterlimit="10" stroke-width="2"/>
    </g>
  </g>
</svg>
