<svg xmlns="http://www.w3.org/2000/svg" xmlns:xlink="http://www.w3.org/1999/xlink" viewBox="0 0 448.03 448.03"><defs><style>.cls-1{fill:none;}.cls-2{clip-path:url(#clip-path);}.cls-3{clip-path:url(#clip-path-2);}.cls-4{fill:#CBE4BF;}.cls-5{fill:#13AE4B;}</style><clipPath id="clip-path"><rect class="cls-1" x="2.71" y="2.71" width="442.62" height="442.62"/></clipPath><clipPath id="clip-path-2"><rect class="cls-1" x="2.71" y="2.71" width="442.61" height="442.61"/></clipPath></defs><title>phlogo</title><g id="color"><g id="Artwork_2" data-name="Artwork 2"><g class="cls-2"><g class="cls-3"><path class="cls-4" d="M444.52,206c-8.07,7-20.62,14.46-37.39,14.46h-.93c-33.41-.55-68.44-30.59-104.1-89.28-27.32-44.54-62.22-72-103.73-81.56C136.9,35.41,78.16,64.45,61.73,73.6a221.34,221.34,0,0,0-46.1,75.82C39,134.6,82,113.67,129.83,121.75c43.95,7.42,81.62,37.66,112,89.87,25.09,50,55.95,79.26,91.92,87.21,49,10.85,94.09-21.08,106.74-31.13l.6-.48A222,222,0,0,0,445.32,224c0-6.09-.31-12.1-.8-18.06"/><path class="cls-4" d="M201.73,35c45.58,10.52,83.65,40.24,113.15,88.36,40.9,67.29,72.37,81.78,91.57,82.1h.66c20.39,0,32.71-15.49,35-18.67C424.42,82.28,333.53,2.71,224,2.71A220.32,220.32,0,0,0,99.36,41.15c27.77-8.82,64.26-15,102.37-6.19"/><path class="cls-5" d="M95.36,242.35c33.43,2.6,63.19,30.43,88.43,82.73,23.42,46.71,53.53,74.79,89.47,83.37,42.15,10.05,81.63-9.42,97.68-19A221.31,221.31,0,0,0,436,287.55c-17.67,11.57-47.68,27-81.84,27a107.76,107.76,0,0,1-23.38-2.53c-40.14-8.88-74.09-40.5-100.91-94-28-48.17-62.47-76.2-102.22-82.94C72.27,125.77,22,160.69,9.28,170.42A221.65,221.65,0,0,0,11.85,287c12.87-15.51,44.56-47.76,83.51-44.63"/><path class="cls-5" d="M297.83,424.85a118.94,118.94,0,0,1-27.71-3.21c-40-9.55-73.15-40-98.49-90.57-23-47.71-49-73-77.27-75.2C53.63,252.55,19.79,298.54,17,302.39c31.64,83.53,112.35,142.93,207,142.93a220.28,220.28,0,0,0,97.67-22.7,133.87,133.87,0,0,1-23.85,2.23"/></g></g></g></g></svg>