<svg id="Layer_8" data-name="Layer 8" xmlns="http://www.w3.org/2000/svg" xmlns:xlink="http://www.w3.org/1999/xlink" viewBox="0 0 1750 800"><defs><style>.cls-1,.cls-8{fill:none;}.cls-2{clip-path:url(#clip-path);}.cls-3,.cls-6{fill:#2b5a6d;}.cls-4,.cls-7{fill:#417180;}.cls-5{fill:#5f8d95;}.cls-6{stroke:#2b5a6d;}.cls-6,.cls-7,.cls-8{stroke-linecap:round;stroke-miterlimit:10;stroke-width:5px;}.cls-7{stroke:#417180;}.cls-8{stroke:#5f8d95;}</style><clipPath id="clip-path"><rect class="cls-1" x="-4" y="-2" width="1756" height="807"/></clipPath></defs><g class="cls-2"><g id="Layer_6" data-name="Layer 6"><path class="cls-3" d="M1964.08,161.61c-212.5-13.9-432,49.15-635.67-13.15-66.82-20.44-129.54-53.92-197.8-68.87C917.91,33,698.47,172.94,484.71,131.45,382.23,111.56,290.93,51.27,188.31,32.1,89.57,13.66-16.16,36.09-98.9,93c49.74,166.52,67.69,345.07,54.7,518.38-4,53.47-11,107-8.32,160.52.52,10.24,2,21.61,9.77,28.24,6.78,5.75,16.43,6.26,25.32,6.49Q902.15,830,1822.06,800.89c9.08-.29,19.16-1,25.39-7.62,5.32-5.65,6.26-14,7-21.75C1872.87,566.36,1909.28,360.19,1964.08,161.61Z"/></g><g id="Layer_7" data-name="Layer 7"><path class="cls-4" d="M464.68,518.73c-1.12,10-6,41.79-32.68,68.27-31.36,31.09-70.36,32.55-81.37,32.52-10.28,0-38.92-.3-64.73-19.87-34.45-26.12-50.19-74.16-38.77-115.86s48.83-74.78,91.46-82,88.35,11.42,114.64,45.74Q435.73,460.73,417,474q-23.89,16.9-47,32,30.47,3.42,62.12,7.87Q448.59,516.21,464.68,518.73Z"/><path class="cls-5" d="M489.72,400.88c4.43.93,38.25,7.43,63.28-14.88,14.11-12.58,18.59-28.23,20.37-34.79,2.18-8,8.44-31-4.37-52.21-11.89-19.68-32.64-25.29-40.3-27.36-5.9-1.59-46.37-10.61-75.62,18.08-19.36,19-25.67,51.06-12.26,74.62C450.2,359.2,460.6,354,472,349s22.23-9.12,32.34-12.54Q501.66,351.67,498,368C495.41,379.49,492.62,390.46,489.72,400.88Z"/><path class="cls-5" d="M1514.9,514.1c41.91,5.21,83.38,31.75,95.53,72.2,11.41,38-6,81.22-37.47,105.42s-74.2,30.67-113.09,22.93c-26.5-5.28-52.69-17.51-68.95-39.09-17.52-23.24-21.35-54.79-15.35-83.27,3.57-17,10.84-33.86,24.22-44.87-1.28.27,2.69,3.08,3,1.81l99.68,49.68C1505.68,569.5,1509.41,543.16,1514.9,514.1Z"/></g><g id="Layer_9" data-name="Layer 9"><path class="cls-6" d="M373.11,445.15a208.41,208.41,0,0,1-22,34.2"/><path class="cls-6" d="M366.25,546.91l26.31,14.86"/><path class="cls-6" d="M303.74,449.07l4.09,19.76"/><path class="cls-6" d="M324.65,556.86a78.57,78.57,0,0,0,1.28,20.59"/><path class="cls-6" d="M267.4,498.55a152.78,152.78,0,0,1,19,12.24"/><path class="cls-6" d="M280.72,552.07l13.89-11.63"/><path class="cls-7" d="M458.33,322.84l25.54-2"/><path class="cls-7" d="M519.78,356.06a160.11,160.11,0,0,0-2.14,24.73"/><path class="cls-7" d="M539.11,341.15l12.13,9.32"/><path class="cls-7" d="M504.3,289.17v13.16"/><path class="cls-7" d="M1420.3,602.79a279,279,0,0,1,33,7.29"/><path class="cls-7" d="M1550.06,552.75c-.2-.8-1.41-.09-1.76.66q-7.87,16.65-15.74,33.28"/><path class="cls-7" d="M1439.67,668.2c.37.23-.48.63-.6.21s.31-.78.69-1l26.8-16.36"/><path class="cls-7" d="M1557.75,615.45l30.5-11.37"/><path class="cls-7" d="M1505,663l-1.88,26.32"/><path class="cls-7" d="M1544.85,648.37a202.14,202.14,0,0,1,24.25,14"/><path class="cls-7" d="M533.92,315.59a86.65,86.65,0,0,1,13.4-7.82"/><path class="cls-8" d="M-33.39,126.3c22.25,24,58.23,28.33,90.92,28.3,77.36-.08,157.25-16.12,230.52,8.69,17.93,6.08,35.4,14.77,48.66,28.29s21.87,32.42,19.91,51.25c-3.18,30.54-32.8,52.46-62.83,58.88s-61.12,1.37-91.79.12-63.82,2.28-87.06,22.34c-4.23,3.65-8.21,8.09-9.33,13.57-2,9.6,5.19,18.47,12,25.48,21.59,22.11,45.68,43.21,58.07,71.51s8.66,66.78-17.54,83.15c-13.09,8.18-29.3,9.48-44.72,8.89-28.1-1.08-55.8-7.67-83.91-8.38s-58.24,5.53-77.82,25.72c-15.71,16.21-22.45,39.1-25.79,61.43A269.07,269.07,0,0,0-61.4,735.4"/><path class="cls-8" d="M-30.75,214c13.15,11.55,33,9.52,50.23,6.23,61.08-11.69,122.62-30.84,184.22-22.33,12.25,1.7,27.65,9.1,25.18,21.22-1.36,6.68-7.91,10.86-14.08,13.74-51.33,24-116.2,12.75-162.42,45.54-12.63,8.95-23.9,23.57-20.45,38.66,2.65,11.59,13,19.49,22.45,26.71,27.08,20.72,53.18,45.7,63.24,78.28,4.2,13.62,5.2,29.09-1.69,41.56-10,18.06-33.4,24.36-54,22.6A102.59,102.59,0,0,1-31.11,371.77"/><path class="cls-8" d="M-23.45,600.92C4.25,588.06,32.8,575,63.29,573.3S127.08,584,141.37,611c18,34.06,2.12,81.46,27.37,110.59,11.51,13.27,29.57,19.42,47.12,20.09s34.9-3.52,51.9-7.94c50.3-13.07,100.13-28.39,151.34-37.28s104.4-11.19,154.73,1.77c23,5.92,46.89,16.45,58.3,37.27,11,20,7.54,45.49-3.09,65.72S601.53,837.56,585,853.28"/><path class="cls-8" d="M211.73,825.76c36.14-6.1,68.42-25.42,100.69-42.8,53.86-29,112.63-54.07,173.77-51.84,26.34,1,56.14,9.94,66.61,34.12,8.85,20.46.4,44.3-11.29,63.29a196.55,196.55,0,0,1-63.21,63.53"/><path class="cls-8" d="M325.77,853.07c22.49-18.78,43.44-39.61,68.05-55.52s54-26.76,83-22.64c8,1.13,16.54,3.9,20.79,10.75,5.6,9,1.38,20.83-3.85,30.07a158.19,158.19,0,0,1-42,48"/><path class="cls-8" d="M1177.54,840.77a1032.35,1032.35,0,0,0,289.4-19.6c57.7-12.23,114.75-29.59,166.66-57.59,31.13-16.81,61.7-39.12,75.36-71.76,16.66-39.81,3.84-87.28-22.48-121.48s-64.22-57.41-102.35-77.63-77.79-38.51-111.19-65.85c-16-13.13-31.07-29.31-35.7-49.52-4.71-20.53,2.3-42.53,15-59.29s30.73-28.86,49.49-38.43a272.5,272.5,0,0,1,188.29-21.39c42.29,10.62,85.3,35.53,98.72,77"/><path class="cls-8" d="M1771,412.68c-3.85-32.18-31.08-56.12-58.06-74.07-39.49-26.28-85.55-47.5-132.74-42.69-24.7,2.51-51.79,15.94-56.52,40.31-3.31,17.07,5.46,34.14,15.81,48.12,35.72,48.27,91.13,77,143,107.2S1787.36,557.93,1811.33,613c9.92,22.78,14,49.89,2.84,72.06-9.4,18.61-27.79,30.67-45.38,41.86L1603,832.38"/><path class="cls-8" d="M1529,808.32c-48.71,23.15-105.5,39.68-156,20.73-26-9.76-47.71-28-69.57-45.14-27.28-21.36-56.25-41.75-89.4-51.81-46.2-14-96.51-6.67-142.16,9s-88.07,39.4-132.17,59a797.17,797.17,0,0,1-221.34,62.18"/></g></g></svg>