<svg xmlns="http://www.w3.org/2000/svg" width="348.097" height="494.883" viewBox="0 0 348.097 494.883">
  <g id="rocket-svgrepo-com" transform="translate(-137.401 -6.116)">
    <g id="Group_71" data-name="Group 71">
      <g id="Group_70" data-name="Group 70" transform="translate(35 6)">
        <path id="Path_269" data-name="Path 269" d="M366.873,336.255a7.224,7.224,0,0,0-.5-2.525L338.5,266.595a7.479,7.479,0,0,0-.341-.7,15.629,15.629,0,0,0-13.892-7.914V179.2h-102.4v78.779a15.627,15.627,0,0,0-13.892,7.914,7.655,7.655,0,0,0-.333.7L179.763,333.73a7.25,7.25,0,0,0-.5,2.525C179.26,336.357,366.873,336.357,366.873,336.255Zm-93.807-141.32c4.71,0,8.533,3.524,8.533,7.867s-3.823,7.867-8.533,7.867-8.533-3.524-8.533-7.867S268.356,194.935,273.066,194.935Zm0,31.467c4.71,0,8.533,3.524,8.533,7.867s-3.823,7.867-8.533,7.867-8.533-3.524-8.533-7.867S268.356,226.4,273.066,226.4Zm-17.63,92.4,17.613-42.5L290.7,318.8l4.1,9.873H251.34Zm-55.3,9.873,21.726-52.33.563,1.353v.008l15.9,38.288-5.265,12.682H200.14ZM307.8,315.989,323.7,277.7c.026-.063.017-.134.043-.2l.5-1.211L346,328.671h-32.93Z" fill="#373b5b"/>
        <circle id="Ellipse_69" data-name="Ellipse 69" cx="8.533" cy="8.533" r="8.533" transform="translate(384.001 204.801)" fill="#fedcaf"/>
        <circle id="Ellipse_70" data-name="Ellipse 70" cx="8.533" cy="8.533" r="8.533" transform="translate(433.432 51.462)" fill="#fedcaf"/>
        <circle id="Ellipse_71" data-name="Ellipse 71" cx="8.533" cy="8.533" r="8.533" transform="translate(131.222 361)" fill="#fedcaf"/>
        <circle id="Ellipse_72" data-name="Ellipse 72" cx="8.533" cy="8.533" r="8.533" transform="translate(102.401 128.001)" fill="#fedcaf"/>
        <path id="Path_270" data-name="Path 270" d="M51.878,27.1c-9.534,0-17.293-9.118-17.293-20.323C34.585,3.035,32,0,28.821,0s-5.764,3.035-5.764,6.774a21.972,21.972,0,0,1-6.305,15.681A15.63,15.63,0,0,1,5.765,27.1C2.582,27.1,0,30.132,0,33.872s2.582,6.774,5.764,6.774c9.534,0,17.293,9.118,17.293,20.323,0,3.739,2.582,6.774,5.764,6.774s5.764-3.035,5.764-6.774c0-11.2,7.759-20.323,17.293-20.323,3.182,0,5.764-3.035,5.764-6.774S55.06,27.1,51.878,27.1ZM28.821,40.667a32.3,32.3,0,0,0-5.782-6.795,32.124,32.124,0,0,0,5.782-6.795A32.124,32.124,0,0,0,34.6,33.872,32.283,32.283,0,0,0,28.821,40.667Z" transform="translate(110.934 17.591)" fill="#fedcaf"/>
        <path id="Path_271" data-name="Path 271" d="M454.914,437.552h-6.533l-9.944-13.495v-8.866c0-3.086-1.846-5.59-4.119-5.59s-4.119,2.5-4.119,5.59v8.866l-9.944,13.495h-6.533c-2.274,0-4.119,2.5-4.119,5.59s1.846,5.59,4.119,5.59h6.533l9.944,13.495v8.866c0,3.086,1.846,5.59,4.119,5.59s4.119-2.5,4.119-5.59v-8.866l9.944-13.495h6.533c2.274,0,4.119-2.5,4.119-5.59S457.188,437.552,454.914,437.552Zm-20.6,14.456-6.533-8.866,6.533-8.866,6.533,8.866Z" transform="translate(-8.535 18.315)" fill="#fedcaf"/>
        <path id="Path_272" data-name="Path 272" d="M286.958,8.7A15.446,15.446,0,0,0,273.066.116c-5.922,0-11.238,3.285-14.225,9.353L233.062,76.8h80.009Z" fill="#373b5b"/>
        <path id="Path_273" data-name="Path 273" d="M316.63,93.868H229.505l-6.827,68.267H323.457ZM281.6,136.534a8.533,8.533,0,1,1-17.066,0V119.467a8.533,8.533,0,1,1,17.066,0Z" fill="#373b5b"/>
        <rect id="Rectangle_13" data-name="Rectangle 13" width="6" height="90" rx="3" transform="translate(224 361)" fill="#fedcaf"/>
        <path id="Path_274" data-name="Path 274" d="M3,0A3,3,0,0,1,6,3V87a3,3,0,0,1-6,0V3A3,3,0,0,1,3,0Z" transform="translate(269 346)" fill="#fedcaf"/>
        <rect id="Rectangle_15" data-name="Rectangle 15" width="6" height="90" rx="3" transform="translate(314 361)" fill="#fedcaf"/>
      </g>
    </g>
  </g>
</svg>
