<svg xmlns="http://www.w3.org/2000/svg" xmlns:xlink="http://www.w3.org/1999/xlink" width="1957.509" height="1129.877" viewBox="0 0 1957.509 1129.877">
  <defs>
    <clipPath id="clip-path">
      <rect y="254" width="1957.509" height="1129.877" fill="none"/>
    </clipPath>
  </defs>
  <g id="Scroll_Group_1" data-name="Scroll Group 1" transform="translate(0 -254)" clip-path="url(#clip-path)" style="isolation: isolate">
    <g id="Group_70" data-name="Group 70" transform="translate(-5433.57 4034.382)">
      <g id="Path_268" data-name="Path 268" transform="translate(5433.57 -3780.891)" fill="#35476d">
        <path d="M 1956.5 1202.886596679688 L 0.5 1202.886596679688 L 0.5 0.5001420378684998 L 1956.5 0.5001420378684998 L 1956.5 1202.886596679688 Z" stroke="none"/>
        <path d="M 1 0.9998779296875 L 1 1202.386352539062 L 1956 1202.386352539062 L 1956 0.9998779296875 L 1 0.9998779296875 M 0 -0.0001220703125 L 1957 -0.0001220703125 L 1957 1203.386352539062 L 0 1203.386352539062 L 0 -0.0001220703125 Z" stroke="none" fill="#707070"/>
      </g>
      <g id="clouds_1" data-name="clouds 1" transform="translate(5433.57 -3864.537)">
        <path id="Path_29" data-name="Path 29" d="M522.88,881.691c10.55-6.774,9.77-22.83,5.84-35-9.69-29.864-31.11-55.539-58.38-69.946s-58.43-20.323-87.74-11.02c18.49-47.7-5.73-105.817-48.18-132.983s-94.28-26.567-140.63-7.226a43.285,43.285,0,0,0-2.02-67.09c-1.47-1.129-2.32.158-1.07,1.513A63.91,63.91,0,0,0,213.31,512.2c.27-21.159-10.16-41.4-24.8-56.318-14.86-15.164-29.84-25.348-50.43-29.356,18.62-4.607,35.11-16.112,48.4-30.271,40.7-43.345,50.71-113.946,23.74-167.408s-88.94-85.81-146.93-76.709c1.07-22.785-4.5-46.981-19.82-63.488C32.31,76.659,22.4,69.885.4,71.014V822.979c0,55.9,71-2.506,125.43,0,92.57,4.268,174.78-4.268,267.35,0,21.51.994,9.94,5.42,30.81,0S513.61,901.63,522.88,881.691Z" transform="translate(522.345 38.733) rotate(90)" fill="#34375a"/>
        <path id="Path_30" data-name="Path 30" d="M1091.66,666.866c9,26.161.48,57.1-12.67,80.255-19.16,33.726-48.19,58.147-80.09,67.349s-66.37,3.06-95.08-16.812c-11.62-8.062-22.5-18.517-29.82-32.574,1.54,10.839-5.39,21.52-13.7,24.614s-17.33.124-25.1-4.753A78.256,78.256,0,0,1,807,751.987c-.84,20.323-13.28,37.982-28.28,45.05s-31.92,4.844-47-2.01-28.62-18.065-42-29.153L613.62,702.9c34.09-2.732,64.56-5.07,98.12-13.2,21.94-5.307,43.51-12.894,65.34-18.878C878.53,643.031,988.79,649.794,1091.66,666.866Z" transform="translate(15.6 -621.004)" fill="#34375a"/>
        <path id="Path_31" data-name="Path 31" d="M1670.72,750.439c-2.36,29.683-23,54.963-47.7,65.486s-52.54,8.039-77.71-.926c-53.83-19.194-98.47-68.614-116.5-129.008-16.6,14.791-40.77,15.062-60.23,5.713s-34.91-26.883-48.12-45.524c-9.66-13.617-18.58-28.227-30.81-38.942s-28.86-16.868-43.36-10.8c84.87-36.56,179.2-48.7,269.6-38.716,26.61,2.947,53.41,8.05,77.73,20.606s46.13,33.285,57,60.846c7,17.625,9.2,37.09,11.36,56.228S1672.24,731.323,1670.72,750.439Z" transform="translate(311.6 -545.463)" fill="#34375a"/>
        <path id="Path_31-2" data-name="Path 31" d="M1670.72,626.755c-2.36-29.683-23-54.963-47.7-65.486s-52.54-8.039-77.71.926c-53.83,19.194-98.47,68.614-116.5,129.008-16.6-14.791-40.77-15.062-60.23-5.713s-34.91,26.883-48.12,45.524c-9.66,13.617-18.58,28.227-30.81,38.942s-28.86,16.868-43.36,10.8c84.87,36.56,179.2,48.7,269.6,38.716,26.61-2.947,53.41-8.05,77.73-20.606s46.13-33.285,57-60.846c7-17.625,9.2-37.09,11.36-56.228S1672.24,645.871,1670.72,626.755Z" transform="matrix(0.914, 0.407, -0.407, 0.914, 512.651, -1155.197)" fill="#34375a"/>
        <path id="Path_31-3" data-name="Path 31" d="M1670.72,626.755c-2.36-29.683-23-54.963-47.7-65.486s-52.54-8.039-77.71.926c-53.83,19.194-98.47,68.614-116.5,129.008-16.6-14.791-40.77-15.062-60.23-5.713s-34.91,26.883-48.12,45.524c-9.66,13.617-18.58,28.227-30.81,38.942s-28.86,16.868-43.36,10.8c84.87,36.56,179.2,48.7,269.6,38.716,26.61-2.947,53.41-8.05,77.73-20.606s46.13-33.285,57-60.846c7-17.625,9.2-37.09,11.36-56.228S1672.24,645.871,1670.72,626.755Z" transform="matrix(0.914, 0.407, -0.407, 0.914, 157.651, -1183.197)" fill="#34375a"/>
        <path id="Path_31-4" data-name="Path 31" d="M1670.72,626.755c-2.36-29.683-23-54.963-47.7-65.486s-52.54-8.039-77.71.926c-53.83,19.194-98.47,68.614-116.5,129.008-16.6-14.791-40.77-15.062-60.23-5.713s-34.91,26.883-48.12,45.524c-9.66,13.617-18.58,28.227-30.81,38.942s-28.86,16.868-43.36,10.8c84.87,36.56,179.2,48.7,269.6,38.716,26.61-2.947,53.41-8.05,77.73-20.606s46.13-33.285,57-60.846c7-17.625,9.2-37.09,11.36-56.228S1672.24,645.871,1670.72,626.755Z" transform="matrix(0.914, 0.407, -0.407, 0.914, -536.349, -1183.197)" fill="#34375a"/>
      </g>
    </g>
    <path id="Path_176" data-name="Path 176" d="M2065.75,767.23c-1.49.14,2.07,11.73-4.82,19.06-5.75,6.11-15.05,5.3-15.28,8.47-.23,3.19,9.26,3.44,16.08,10.59,7.36,7.72,6.1,17.7,8.04,17.65,2.01-.06-.16-10.73,7.24-19.06,6.11-6.89,15.02-7.96,14.47-10.59-.5-2.43-7.99-.94-14.47-4.94C2066.71,782.05,2067.42,767.07,2065.75,767.23Z" transform="translate(-182.116 311.365)" fill="#fedcaf" stroke="#f49b75" stroke-linecap="round" stroke-linejoin="round" stroke-miterlimit="10" stroke-width="7"/>
    <path id="Path_177" data-name="Path 177" d="M1553.25,308.4c-1.52.24,2.11,19.69-4.92,31.99-5.86,10.25-15.34,8.9-15.57,14.22-.24,5.36,9.44,5.76,16.39,17.77,7.51,12.96,6.22,29.71,8.2,29.62,2.05-.09-.16-18,7.38-31.99,6.23-11.56,15.31-13.36,14.75-17.77-.51-4.08-8.15-1.58-14.75-8.29C1554.23,333.28,1554.95,308.14,1553.25,308.4Z" transform="translate(284.025 881.365)" fill="#fedcaf" stroke="#f49b75" stroke-linecap="round" stroke-linejoin="round" stroke-miterlimit="10" stroke-width="7"/>
  </g>
</svg>
