<?xml version="1.0" encoding="utf-8"?>
<!-- Generator: Adobe Illustrator 24.1.1, SVG Export Plug-In . SVG Version: 6.00 Build 0)  -->
<svg version="1.1" id="Layer_1" xmlns="http://www.w3.org/2000/svg" xmlns:xlink="http://www.w3.org/1999/xlink" x="0px" y="0px"
	 viewBox="0 0 1036.1 924.1" style="enable-background:new 0 0 1036.1 924.1;" xml:space="preserve">
<style type="text/css">
	.st0{fill:#594A42;stroke:#594A42;stroke-miterlimit:10;}
	.st1{fill:#594A42;}
	.st2{fill:#594A42;stroke:#594A42;stroke-width:1.05;stroke-miterlimit:10;}
	.st3{fill:none;stroke:#C06889;stroke-width:2;stroke-miterlimit:10;}
	.st4{fill:#C06889;}
	.st5{fill:none;stroke:#C06889;stroke-width:3;stroke-miterlimit:10;}
	.st6{fill:none;stroke:#C06889;stroke-width:5;stroke-miterlimit:10;}
	.st7{fill:#FFFFFF;}
	.st8{fill:url(#SVGID_1_);}
	.st9{opacity:0.61;fill:url(#SVGID_2_);enable-background:new    ;}
	.st10{fill:url(#SVGID_3_);}
	.st11{opacity:0.43;fill:url(#SVGID_4_);enable-background:new    ;}
	.st12{opacity:0.43;fill:url(#SVGID_5_);enable-background:new    ;}
	.st13{opacity:0.77;fill:url(#SVGID_6_);enable-background:new    ;}
	.st14{opacity:0.77;fill:none;stroke:#FFFFFF;stroke-width:6.38;stroke-miterlimit:10;enable-background:new    ;}
	.st15{opacity:0.77;fill:#FFFFFF;stroke:#FFFFFF;stroke-width:6.05;stroke-miterlimit:10;enable-background:new    ;}
	.st16{opacity:0.77;fill:none;stroke:#FFFFFF;stroke-width:5;stroke-miterlimit:10;enable-background:new    ;}
	.st17{opacity:0.76;fill:#FFFFFF;stroke:#FFFFFF;stroke-width:3.79;stroke-miterlimit:10;enable-background:new    ;}
	.st18{opacity:0.77;fill:#FFFFFF;stroke:#FFFFFF;stroke-width:4.62;stroke-miterlimit:10;enable-background:new    ;}
	.st19{opacity:0.77;fill:#FFFFFF;stroke:#FFFFFF;stroke-width:5.5;stroke-miterlimit:10;enable-background:new    ;}
	.st20{fill:url(#SVGID_7_);}
	.st21{opacity:0.61;fill:url(#SVGID_8_);enable-background:new    ;}
	.st22{fill:url(#SVGID_9_);}
	.st23{opacity:0.43;fill:url(#SVGID_10_);enable-background:new    ;}
	.st24{opacity:0.43;fill:url(#SVGID_11_);enable-background:new    ;}
	.st25{opacity:0.77;fill:url(#SVGID_12_);enable-background:new    ;}
	.st26{fill:#594A42;stroke:#726658;stroke-miterlimit:10;}
</style>
<g id="butterfly_side">
	<path class="st0" d="M468.8,208.1c1.9,6.7,3,10.8,5,15.3c1.7,3.8,3.7,7.5,6,11c8.1,12.5,15,23.2,26.7,26.6
		c6.4,1.9,13.3,1.3,13.4,0.4c0.1-0.7-3.9-1.5-8.5-3.5c-9.4-4.2-14.9-11.1-19.9-17.4c-4.1-5.1-7.5-10.7-10.3-16.7
		c-3.8-8.1-7.6-16.1-4.3-21.3c2.2-3.3,5.2-2.7,6.4-5.7c1.8-4.4-3.9-13.4-11-13.8c-2.3-0.2-4.6,0.6-6.4,2.1
		c-2.4,2.3-1.1,7.1,1.1,16.3C467.6,204,468.2,205.9,468.8,208.1z"/>
	<path class="st1" d="M501.2,116.9c-2.9,7-5.3,14.2-7.2,21.5c-1.2,4.5-2.2,9-3.1,13.5c-0.7,3.4-1.1,6.8-1.2,10.2
		c0,4,0.5,7.9,1.6,11.7c1.2,3.7,2.7,7.2,4.6,10.6c2,3.8,4.1,7.6,6,11.5c0.4,0.9,0.8,1.8,1.2,2.7l0.4,0.8l0.2,0.5
		c0.2,0.5-0.3-0.8,0-0.1c0.6,1.4,1.1,2.8,1.6,4.2c3.2,8.7,5.5,17.8,7,26.9c0.4,2.1,3.1,3.5,5.1,2.9c2.2-0.7,3.4-2.9,2.9-5.1
		c-1.4-8.3-3.4-16.5-6.1-24.4c-2.5-6.9-5.5-13.7-9-20.2c-0.9-1.7-1.8-3.4-2.7-5.1c-0.4-0.7-0.7-1.5-1.1-2.2
		c-0.2-0.4-0.4-0.8-0.6-1.3c-0.1-0.2-0.1-0.3-0.2-0.5c-0.2-0.5,0.3,0.6,0-0.1c-0.7-1.7-1.2-3.4-1.7-5.1c-0.2-0.9-0.4-1.8-0.5-2.7
		c0-0.2-0.1-0.8,0,0c0-0.2,0-0.4-0.1-0.6c-0.1-0.6-0.1-1.2-0.2-1.8c-0.1-1.6-0.1-3.1,0-4.7c0-0.7,0.1-1.5,0.2-2.2s-0.1,0.8,0-0.3
		c0.1-0.5,0.2-1,0.2-1.4c0.7-4.2,1.7-8.3,2.7-12.4c2-8.4,4.7-16.7,8-24.7c0.8-2-0.9-4.6-2.9-5.1
		C503.9,113.5,502.1,114.8,501.2,116.9L501.2,116.9z"/>
	<path class="st2" d="M504.2,99.2c0.9-2.8,3.7-11.8,6.3-11.2c2.7,0.6,5,11.9,3,21.1s-8.5,16.8-11.1,14.9
		C499.6,121.9,501.3,108.3,504.2,99.2z"/>
	<path class="st0" d="M584.2,208.1c-1.9,6.7-3,10.8-5,15.3c-1.7,3.8-3.7,7.5-6,11c-8.1,12.5-15,23.2-26.7,26.6
		c-6.4,1.9-13.3,1.3-13.4,0.4c-0.1-0.7,3.9-1.5,8.5-3.5c9.3-4.2,14.8-11.1,19.9-17.4c4.1-5.1,7.5-10.7,10.3-16.7
		c3.8-8.1,7.6-16.1,4.3-21.3c-2.1-3.3-5.2-2.7-6.4-5.7c-1.8-4.4,3.9-13.4,11-13.8c2.3-0.2,4.6,0.6,6.4,2.1c2.4,2.3,1.1,7.1-1.1,16.3
		C585.4,204,584.8,205.9,584.2,208.1z"/>
	<path class="st1" d="M537.1,119.1c2.8,6.9,5.2,14.1,7.1,21.3c1.1,4.4,2.1,8.8,3,13.2c0.2,0.8,0.3,1.7,0.5,2.5
		c0.1,0.4,0.1,0.7,0.2,1.1c0,0.2,0,0.4,0.1,0.6c0.1,0.6-0.1-1,0,0c0.2,1.5,0.3,3,0.3,4.5c0,0.8,0,1.6-0.1,2.4c0,0.5-0.1,0.9-0.1,1.4
		l-0.1,0.6c-0.1,1.3,0.1-0.8-0.1,0.4c-0.3,1.8-0.7,3.5-1.2,5.2c-0.3,0.8-0.6,1.6-0.9,2.4c0,0.1-0.3,0.8-0.1,0.3s0,0.1-0.1,0.1
		c-0.2,0.5-0.4,1-0.6,1.4c-0.8,1.7-1.7,3.3-2.5,5c-3.7,6.6-6.9,13.4-9.6,20.5c-3.1,8.6-5.5,17.6-6.9,26.7c-0.3,2.1,0.6,4.5,2.9,5.1
		c2,0.5,4.7-0.6,5.1-2.9c1.4-8.3,3.4-16.6,6.2-24.5c0.5-1.5,1.1-3,1.7-4.5c0.3-0.7,0.5-1.3,0.8-2c0.4-1-0.3,0.7,0.1-0.2
		c0.2-0.3,0.3-0.7,0.5-1c1.7-3.9,3.7-7.7,5.8-11.5c1.9-3.4,3.6-7,5.1-10.6c1.4-3.8,2.3-7.8,2.5-11.8c0.5-7.6-1.6-15.3-3.3-22.7
		c-2-8.6-4.7-17-8.1-25.2c-0.8-2-2.8-3.6-5.1-2.9C538.1,114.7,536.2,117,537.1,119.1L537.1,119.1z"/>
	<path class="st2" d="M542.1,99.2c-0.9-2.8-3.7-11.8-6.3-11.2c-2.7,0.6-5,11.9-3,21.1s8.5,16.8,11.1,14.9
		C546.7,121.9,545,108.3,542.1,99.2z"/>
	<path class="st3" d="M632.6,860.8l65.1-124.5V572"/>
	<path class="st4" d="M808.4,727.1l0.1-44.5l-0.7,1.8l23.9-20.7l2.8-2.4c0.5-0.4,1-0.8,1.5-1.3c0.6-0.6,1-1.5,0.9-2.4
		c0.1-2.7,0-5.3,0-8c0-5.3,0.1-10.7,0.1-16c0.1-6,0.1-12,0.1-18c0-3.2-5-3.2-5,0c-0.1,14.2-0.2,28.3-0.3,42.5l0.7-1.8l-24.7,21.3
		l-3,2.6c-0.6,0.4-1.1,1-1.4,1.8c-0.1,0.8-0.2,1.6-0.1,2.4v8.2v16.3l-0.1,18.3C803.4,730.3,808.4,730.3,808.4,727.1L808.4,727.1z"/>
	<path class="st5" d="M819.3,728.9l0.1-44.5l28.4-24.6c0.6-32.2,1.1-64.4,1.7-96.6"/>
	<path class="st4" d="M672.7,402.2l-0.6-122.9c-0.2-40.9-0.4-81.9-0.6-122.9l-0.4-69.1l-0.7,1.8l35.3-34.4c2.3-2.3-1.2-5.8-3.5-3.5
		L676.8,76l-6.5,6.3c-1,1-2,1.9-3,2.9c-1.3,1.3-1.2,2.6-1.2,4.3l0.1,17.8c0.1,23.9,0.2,47.7,0.4,71.6s0.3,47.7,0.4,71.5
		c0.1,23.8,0.2,47.7,0.4,71.5l0.4,71.2v9.1C667.7,405.5,672.7,405.5,672.7,402.2L672.7,402.2z"/>
	<path class="st4" d="M686.2,418.4l-0.4-124.3l-0.4-124.3l-0.2-70l-0.7,1.8c1.1-1.2,2.3-2.4,3.6-3.5c2.6-2.4,5.2-4.8,7.9-7.2
		c6.9-6.3,13.8-12.5,20.8-18.8c3.4-3,6.8-6.1,10.3-9.1c2.4-2.1-1.1-5.6-3.5-3.5c-12.4,10.8-24.7,21.8-36.7,33
		c-1.7,1.6-3.4,3.1-5.1,4.8c-0.8,0.6-1.3,1.5-1.5,2.5c-0.1,1.7-0.1,3.3,0,5v5.3l0.1,42.5l0.3,85l0.3,85l0.3,85v10.7
		C681.1,421.6,686.1,421.6,686.2,418.4L686.2,418.4z"/>
	<line class="st5" x1="272" y1="635.6" x2="274.2" y2="801.9"/>
	<circle class="st5" cx="274.2" cy="809.5" r="7.7"/>
	<path class="st1" d="M391,777.4c3.2,0,3.2-5,0-5S387.8,777.4,391,777.4z"/>
	<path class="st4" d="M395,879l-0.3-91.3l-0.3-91.3l-0.2-51.5l-0.7,1.8l29.2-25.2l14.6-12.7c4.8-4.2,10-8.2,14.6-12.6
		c1.3-1.2,1.3-2.1,1.4-3.9l0.1-4.8l0.2-9.6l0.5-19.3c0.3-12.9,0.6-25.7,0.9-38.6l1-43.4c0.1-3.2-4.9-3.2-5,0
		c-0.7,30.4-1.4,60.8-2.2,91.2c-0.2,8.7-0.4,17.4-0.6,26.1l0.7-1.8l-46.5,40.2l-11.5,10c-0.9,0.6-1.5,1.5-1.7,2.6
		c-0.1,1.3-0.1,2.7,0,4v7.6l0.1,31l0.4,122.3l0.2,69.2C389.9,882.2,394.9,882.2,395,879L395,879z"/>
	<path class="st4" d="M411.2,806.1l-1-119c-0.1-11.3-0.2-22.7-0.3-34l-0.7,1.8l39.2-33.3l19.6-16.7c1.5-1.3,3.3-2.2,3.4-4.4
		s0-4.4,0-6.6l0.1-13.1c0.2-34.3,0.3-68.7,0.5-103c0.1-19.4,0.2-38.8,0.3-58.2c0-3.2-5-3.2-5,0c-0.2,47-0.5,94.1-0.7,141.1
		c-0.1,13.4-0.1,26.7-0.2,40.1l0.7-1.8l-35.1,29.8l-17.3,14.7c-2.9,2.5-6,4.8-8.8,7.5c-1.3,1.3-1,3-1,4.7v6.2
		c0.3,30.7,0.5,61.3,0.8,91.9c0.1,17.4,0.3,34.8,0.4,52.2C406.1,809.2,411.1,809.2,411.2,806.1L411.2,806.1z"/>
	<circle class="st6" cx="392.4" cy="888.6" r="10.2"/>
	<circle class="st6" cx="409.4" cy="814.5" r="8.5"/>
	<path class="st3" d="M715.4,581.3c0.2,53.6,0.4,107.2,0.6,160.8l0.5,114.2"/>
	<path class="st3" d="M705.8,609c0.2,43,0.3,86,0.5,129.1l-62.5,118.3"/>
	<path class="st4" d="M251.7,467.7c0.8-49.9,1.7-99.8,2.9-149.7c1.2-49.9,2.6-99.8,4.2-149.7l0.3-10.3c0-1.4,0.5-3.6,0.1-5
		s-2-2.5-2.9-3.5c-4.8-5.1-9.6-10.1-14.5-15.2c-9.4-9.9-18.9-19.6-28.5-29.4l0.7,1.8c-0.4-22.8-0.8-45.6-1.2-68.4
		c-0.1-3.2-5.1-3.2-5,0l0.9,53.9l0.2,13.3c0,2.4,0.8,3.1,2.5,4.8l4.6,4.7c6.1,6.3,12.3,12.6,18.3,18.9c6.9,7.2,13.7,14.4,20.6,21.6
		l-0.7-1.8c-1.3,40.8-2.5,81.5-3.6,122.3c-1.1,40.9-2,81.8-2.8,122.8c-0.4,23-0.8,45.9-1.2,68.9
		C246.7,470.9,251.7,470.9,251.7,467.7L251.7,467.7z"/>
	<circle class="st6" cx="210.2" cy="28.4" r="8.5"/>
	<path class="st4" d="M655.2,318.7c-0.3-23.6-0.3-47.3-0.2-70.9c0.1-23.5,0.3-47,0.5-70.5s0.5-47.1,0.6-70.7
		c0.1-11.7,0.1-23.5,0.1-35.2c0-1.7,0.4-3.8-0.8-5.2c-0.3-0.4-0.6-0.7-1-1c-1.6-1.4-3.4-2.6-5.1-3.8c-11.1-7.8-22.5-15.1-33.4-23.2
		c-1-0.8-2-1.5-2.8-2.2c-0.9-0.8-2.3-0.8-3.1,0c-0.9,0.9-0.9,2.3,0,3.1c10.5,8.3,21.9,15.5,32.9,23.1c2.2,1.5,4.4,3,6.5,4.6
		c0.4,0.3,0.8,0.6,1.1,0.9s-0.3-0.2,0.2,0.1l0.4,0.4c0.3,0.3,0.8,0.9,1.2,1c-0.2-0.1-0.3-0.4-0.3-0.5c-0.1-0.3-0.1-1.2-0.2-0.5
		c0,0.3,0,0.6,0,0.8v4.7c0,2.9,0,5.8,0,8.7c0,5.8,0,11.5-0.1,17.3c-0.1,23.4-0.3,46.8-0.6,70.1s-0.4,46.6-0.6,69.9
		s-0.1,46.7,0.1,70.1l0.1,8.7C650.8,321.5,655.3,321.5,655.2,318.7L655.2,318.7z"/>
	<path class="st5" d="M374,141.9l0.4,145.9"/>
	<path class="st5" d="M397.2,100.5l0.3,203.9"/>
	<circle class="st5" cx="374" cy="132.2" r="8.5"/>
	<circle class="st5" cx="397.6" cy="92" r="8.5"/>
	<path class="st5" d="M754.7,336.6c-0.7-59.4-1.5-118.8-2.2-178.2"/>
	<circle class="st5" cx="752.4" cy="150.8" r="7.7"/>
	<circle class="st3" cx="716.5" cy="862.8" r="6.4"/>
	<path class="st1" d="M822.9,1021.1c3.2,0,3.2-5,0-5S819.7,1021.1,822.9,1021.1z"/>
	<circle class="st6" cx="708.9" cy="44.9" r="10.2"/>
	<path class="st7" d="M168.5,447.1c-2,5.7-2.7,11.7-2.2,17.7c-8.4,10.6-14.7,22.6-18.8,35.4c-2.7,8.6-4.4,17.5-5,26.6
		c0.1,22.3,10.8,43.2,28.8,56.4c13,9.1,24.9,19.7,35.4,31.5c7.7,8.7,12.7,16,23.2,19.9s13-0.6,25.5,1.7c17.9,3.2,18.3,13.4,42,22.1
		c8.1,3,17.3,6.2,28.8,4.4c5-0.8,10.7-2.5,21-8.9c12.1-7.4,23.1-16.5,32.6-27.1c35-40.5,64.8-111.8,64.8-111.8
		c17-40.7,27.3-74.9,35.1-101.5c5.5-18.5,9.6-34,12.3-45l6.3-33.7c-82.7,37.1-151.4,53.2-201.5,60.9
		C251.1,402.9,182.1,408.8,168.5,447.1z"/>
	
		<linearGradient id="SVGID_1_" gradientUnits="userSpaceOnUse" x1="151.3489" y1="340.797" x2="507.2189" y2="340.797" gradientTransform="matrix(1 0 0 -1 0 835.6688)">
		<stop  offset="0" style="stop-color:#F0BEC6"/>
		<stop  offset="0.94" style="stop-color:#C06889"/>
	</linearGradient>
	<path class="st8" d="M177.3,442.8c-2,5.7-2.7,11.7-2.2,17.7c-14.1,17.8-22.4,39.4-23.8,62c0.2,22.3,10.8,43.2,28.8,56.4
		c13,9.1,24.9,19.7,35.4,31.6c7.7,8.7,12.7,16,23.2,19.9s13-0.6,25.5,1.7c17.9,3.2,18.3,13.4,42,22.1c8.1,3,17.3,6.2,28.8,4.4
		c4.9-0.8,10.7-2.5,21-8.8c12.1-7.4,23.1-16.5,32.6-27.1c35-40.5,64.8-111.7,64.8-111.7c17-40.7,27.3-74.9,35.1-101.5
		c5.5-18.4,9.6-34,12.4-45l6.3-33.7c-82.7,37.1-151.4,53.2-201.5,60.9C260,398.6,191,404.5,177.3,442.8z"/>
	
		<linearGradient id="SVGID_2_" gradientUnits="userSpaceOnUse" x1="150.9099" y1="340.4513" x2="512.1674" y2="340.4513" gradientTransform="matrix(1 0 0 -1 0 835.6688)">
		<stop  offset="0.22" style="stop-color:#C06889"/>
		<stop  offset="0.75" style="stop-color:#F0BEC6"/>
		<stop  offset="0.8" style="stop-color:#E9B2BD"/>
		<stop  offset="0.89" style="stop-color:#D792A7"/>
		<stop  offset="1" style="stop-color:#C06889"/>
	</linearGradient>
	<path class="st9" d="M275.1,453c-27.8,4.3-41.7,6.5-58.6,2.7c-17.1-3.8-34.2-12.2-40-5.6c-2.5,2.8-2,7.2-1.3,10.3
		c-5.5,6.8-10,14.3-13.6,22.3c-4.2,9.4-17.4,38.7-6.2,62.5c5.7,12,10.6,8,39.2,38.8c4.7,5.1,5.3,6,15.8,17.5
		c22.7,24.8,25.9,27.2,28.4,28.8c10.3,6.8,13.7,4.3,37.7,11.1c31.2,8.8,33,15,47.2,16.3c23.9,2.1,43.6-13.5,55.1-22.8
		c35.9-29.2,25.6-50.8,65.8-119.8c12.1-20.8,47.3-77.7,56.2-105.1c4.1-12.8,7.5-28.2,7.5-28.2c2.3-10.3,3.4-15.4,3.8-21.8
		c0.8-14.7-2.2-27.3-1.5-27.4c0.3,0,0.9,2,1,2.4c2.9,12.4-80.7,51.6-120.9,71C327.9,436.1,308.4,447.8,275.1,453z"/>
	<path class="st7" d="M13,229.4c-0.8-2.4-6.5-19.6,2.8-34.9c6.8-11.3,19.1-18.1,39-22.7c46.9-10.9,97-0.7,125.4,7
		c27.4,8,51.2,15.5,70.8,22c26.5,8.8,60.2,20.7,98.6,35.8l5.5,2.2l99.7,29.8l37.6,5.9l7.3,60.5c-37,19.9-74,40.1-110.8,60.4
		c-30.9,17.1-61.8,34.3-92.6,51.6c-7,2.4-14.1,4.5-21.3,6.1c-66.8,14.8-130.9-10.9-146-30c-2.1-2.6-6.1-8.8-14.2-14.7
		c-9.1-6.7-13-5.5-17.5-11.4c-4.7-6.1-1.9-9.3-7.3-20.1c-4-8-5.6-6.3-8.9-13.3c-4.5-9.5-1.3-12.2-6.2-25.7c-2-5.3-4.8-11.2-5.3-12.4
		c-2.7-5.7-3.7-7-5.3-10.6c-2.2-5.1-3.7-10.5-4.4-15.9c-1.2-7.1-4.8-18.9-15-39.4C42.7,258.8,20.5,251.8,13,229.4z"/>
	
		<linearGradient id="SVGID_3_" gradientUnits="userSpaceOnUse" x1="266.9119" y1="683.5044" x2="266.9119" y2="398.0244" gradientTransform="matrix(1 0 0 -1 0 835.6688)">
		<stop  offset="0" style="stop-color:#F0BEC6"/>
		<stop  offset="0.11" style="stop-color:#EEB9C3"/>
		<stop  offset="0.94" style="stop-color:#C06889"/>
	</linearGradient>
	<path class="st10" d="M24.8,229.4c-0.8-2.4-6.5-19.6,2.8-34.9c7.2-11.9,20.6-18.1,39-22.7c65.3-16.2,122.8-4,127.3-3
		c30.9,6.9,53.6,16.8,70.5,24.2c26.2,11.5,48.8,24.4,97,43.6c1.8,0.8,3.7,1.6,5.5,2.2l99.7,29.8l37.6,5.9l7.3,60.5
		c-37,19.9-74,40.1-110.8,60.4c-30.9,17.1-61.8,34.3-92.6,51.6c-7,2.4-14.1,4.5-21.3,6.1c-66.8,14.8-130.9-10.9-146-30
		c-2.1-2.6-6.1-8.8-14.2-14.7c-9.1-6.7-13-5.5-17.5-11.4c-4.7-6.1-1.9-9.3-7.3-20.1c-4-8-5.6-6.3-8.9-13.3
		c-4.5-9.5-1.3-12.2-6.2-25.7c-2-5.3-4.8-11.2-5.3-12.4c-2.7-5.7-3.7-7-5.3-10.6c-2.2-5.1-3.7-10.5-4.4-15.9
		c-1.2-7.1-4.8-18.9-15.1-39.4C54.4,258.8,32.2,251.8,24.8,229.4z"/>
	
		<linearGradient id="SVGID_4_" gradientUnits="userSpaceOnUse" x1="67.0673" y1="499.6815" x2="533.0589" y2="499.6815" gradientTransform="matrix(1 0 0 -1 0 835.6688)">
		<stop  offset="0" style="stop-color:#FFFFFF"/>
		<stop  offset="0.44" style="stop-color:#C06889"/>
		<stop  offset="0.64" style="stop-color:#C06889"/>
	</linearGradient>
	<path class="st11" d="M236.5,272.1c32.6,1.4,59.2,4.6,105,10c10.2,1.2,28.9,3.5,54.6,5.5c11.5,0.9,15.7,1.1,30.3,2.1
		c13.7,1,33.3,2.5,57.6,4.7l49.1-0.2L501,310.7c-32.1,0.5-78.2,5.4-127.1,28.4c-23.3,11-17.6,12.1-43.3,24.2
		c0,0-72.1,34.1-160.2,36.3c-9.1,0.2-10.4-0.5-25.3-0.1c-21.4,0.5-27,2.2-32.4-2.3c-4.6-3.8-2.5-6.7-10.8-20.5
		c-5.1-8.5-6.1-7.6-8.9-13.3c-5.1-10.3-2.5-14.2-6.2-25.7c-4.2-13.2-10.3-16.1-10.8-20.7c0-0.8,0-1.6,0.2-2.4
		c1.3-10.1-12.1-28.8-8.4-36.5c2.6-5.4,14.1-4.7,21.4-4.4c21.3,0.9,42.6-3.2,63.8-1.7C193.1,275.2,186.6,270,236.5,272.1z"/>
	
		<linearGradient id="SVGID_5_" gradientUnits="userSpaceOnUse" x1="23.1303" y1="592.0807" x2="505.0705" y2="592.0807" gradientTransform="matrix(1 0 0 -1 0 835.6688)">
		<stop  offset="8.000000e-02" style="stop-color:#D77393"/>
		<stop  offset="0.27" style="stop-color:#D87695"/>
		<stop  offset="0.42" style="stop-color:#DB809D"/>
		<stop  offset="0.57" style="stop-color:#E091AA"/>
		<stop  offset="0.7" style="stop-color:#E6A9BC"/>
		<stop  offset="0.83" style="stop-color:#EFC7D4"/>
		<stop  offset="0.95" style="stop-color:#FAECF0"/>
		<stop  offset="1" style="stop-color:#FFFFFF"/>
	</linearGradient>
	<path class="st12" d="M227.3,198.1c109.9,50.6,280.9,77.8,277.8,94c-2.2,11.3-80.3-21.5-198.1,1.7c0,0-41.3,8.2-188.4,16.9
		c-5.3,0.3-18.2,0.7-29.6-6.9c-3.5-2.3-6.2-5.2-11.6-12.4c-7.6-10.2-14.6-20.9-20.7-32c-8.8-3.4-16.6-9.1-22.6-16.3
		c-1.7-2.1-14.7-18-9.8-26.2c3.5-5.8,12.2-3,25.5-7.6c14.6-5.1,19.3-14.1,28.4-21.4c18.4-14.7,42.9-12.5,70.6-10.1
		C191.9,181.8,223.8,196.5,227.3,198.1z"/>
	<path class="st4" d="M28.2,193.2c26.9-13.7,55.9-23.7,85.9-27.4c35.2-4.7,71.1-0.5,104.3,12.4c28.9,10.8,56,25.8,84.2,38.2
		c25.9,11.3,52.4,21.4,79.3,30.3c33.8,11,68.2,20.2,103,27.4c4.8,1,9.6,2,14.4,2.9c2.7,0.7,5.4-0.9,6.2-3.5c0.7-2.5-0.8-5.6-3.5-6.2
		c-36.2-7-72-16-107.1-27c-27.5-8.6-55.2-18.8-81.2-30c-28.2-12.1-55.3-26.8-83.8-38.4c-15.5-6.5-31.7-11.3-48.2-14.4
		c-18.5-3.3-37.4-4.3-56.2-2.8c-32.6,2.5-64.3,11.8-93.8,25.8c-2.8,1.3-5.6,2.7-8.4,4.1c-2.5,1.2-3.5,4.2-2.3,6.7
		c1.2,2.5,4.2,3.5,6.7,2.3C27.7,193.4,27.9,193.3,28.2,193.2L28.2,193.2z"/>
	<path class="st4" d="M42.6,253c29-7.2,58.5-11.9,88.3-14c24.5-1.8,49-1.7,73.5,0.4c23.2,2.2,46.2,6.2,69.2,10.5
		c34.5,6.4,68.9,13.4,103.2,20.4c37.5,7.6,75,15.4,112.4,23.3l14.8,3.2c4.7,1,6.7-6.2,2-7.2c-38.3-8.2-76.6-16.2-114.9-24
		c-35.1-7.2-70.2-14.3-105.3-20.9c-24.7-4.7-49.5-9.3-74.5-12c-22.4-2.3-44.9-2.9-67.3-1.8c-32,1.4-63.9,5.8-95.1,13
		c-2.8,0.6-5.6,1.3-8.3,2C35.9,247,37.9,254.2,42.6,253L42.6,253z"/>
	<path class="st4" d="M505,288.4c-32.4-0.1-64.7-1.3-97-3.6c-24.1-1.7-48.1-4.1-72-7.2c-27.8-3.6-55.6-7-83.7-8.6
		c-29.2-1.7-58.5-1.8-87.7-1c-28,0.8-55.9,2.5-83.8,5.2c-4.4,0.4-8.8,0.9-13.2,1.3c-2,0.1-3.7,1.7-3.8,3.8c0,1.9,1.7,4,3.8,3.8
		c29.8-3.1,59.7-5.2,89.6-6.3c27.3-1,54.5-1.1,81.8,0.1c29.4,1.2,58.6,4.3,87.8,8.1c23.6,3.1,47.2,5.7,70.8,7.6
		c31.2,2.5,62.5,3.9,93.9,4.2c4.4,0,8.9,0.1,13.3,0.1C509.9,295.9,509.9,288.4,505,288.4L505,288.4z"/>
	<path class="st4" d="M112.6,401.1c30.4,3.3,61.1,3.4,91.5,0.1c25.2-2.8,50.1-8,74.4-15.5c26.1-8,51.8-17.6,76.8-28.6
		c10-4.4,19.8-9.2,29.8-13.8s20.2-8.8,30.5-12.6c25.9-9.4,52.7-16.4,79.9-20.9c4.2-0.7,8.5-1.4,12.7-2c2-0.3,3.1-2.8,2.6-4.6
		c-0.6-2.2-2.6-2.9-4.6-2.6c-28.8,4-57.2,10.8-84.7,20.1c-10.8,3.7-21.4,7.8-31.8,12.4c-9.6,4.2-19.1,8.9-28.6,13.3
		c-23.6,10.8-47.8,20.2-72.5,28.3c-24.7,8.1-49.9,14.5-75.7,18c-28.9,3.8-58.2,4.5-87.3,2.1c-4.4-0.3-8.7-0.7-13.1-1.2
		c-2-0.2-3.8,1.9-3.8,3.8C108.9,399.4,110.6,401.1,112.6,401.1L112.6,401.1z"/>
	<path class="st4" d="M152.2,438.2c25.1,13.3,52.6,22.3,81.1,23.5c17.2,0.8,34.4-1.7,50.6-7.5c23.2-8.3,45-20.6,66.7-32.3
		c27.7-15,55.8-29.7,81.7-47.7c25.8-18,49.8-38.4,71.6-61c2-2.1,4-4.2,6-6.3c3.3-3.5-2-8.8-5.3-5.3c-20.2,21.6-42.3,41.4-66.1,59
		c-25.3,18.6-52.6,33.6-80.1,48.6c-13,7.1-26,14.2-39.1,20.9c-5.3,2.8-10.7,5.4-16.2,8c-4.7,2.2-9.5,4.3-13.9,6.1
		c-8.2,3.4-16.6,6.1-25.3,7.9c-1.9,0.4-3.9,0.7-5.8,1l-0.6,0.1c0.8-0.1,0.1,0-0.1,0l-1.4,0.2c-0.9,0.1-1.8,0.2-2.8,0.3
		c-4.1,0.4-8.1,0.6-12.3,0.6c-25.3,0.2-50.3-6.2-73.4-16.9c-3.9-1.8-7.8-3.7-11.6-5.8C151.7,429.4,147.9,435.8,152.2,438.2
		L152.2,438.2z"/>
	<path class="st4" d="M84.4,330.1c19.1-0.5,38.2-1.1,57.3-1.8c9.8-0.4,19.7-0.6,29.5-1.3c20.6-1.5,41.2-4.2,61.7-6.3
		c31.9-3.2,63.9-6.3,95.9-8.7c25.8-2,51.6-3.6,77.4-5.8c27.7-2.3,55.3-5.3,82.9-8.4c5.3-0.6,10.6-1.2,15.9-1.8
		c2-0.1,3.7-1.7,3.8-3.8c0-1.8-1.7-4-3.8-3.8c-30.7,3.5-61.5,6.9-92.3,9.7c-23.1,2-46.3,3.5-69.5,5.3c-34.8,2.6-69.7,5.7-104.4,9.2
		c-19.7,2-39.3,4.3-59,6.2c-9.5,0.9-19,1.3-28.5,1.7c-17,0.7-33.9,1.2-50.9,1.7l-16.2,0.5C79.6,322.7,79.5,330.2,84.4,330.1
		L84.4,330.1z"/>
	
		<linearGradient id="SVGID_6_" gradientUnits="userSpaceOnUse" x1="190.1936" y1="420.8101" x2="310.0083" y2="420.8101" gradientTransform="matrix(1 0 0 -1 0 835.6688)">
		<stop  offset="0" style="stop-color:#FFFFFF"/>
		<stop  offset="0.23" style="stop-color:#FFFBFD"/>
		<stop  offset="0.44" style="stop-color:#FDF0F6"/>
		<stop  offset="0.48" style="stop-color:#FDEDF4"/>
		<stop  offset="0.73" style="stop-color:#FDF1F6"/>
		<stop  offset="0.96" style="stop-color:#FFFDFD"/>
		<stop  offset="1" style="stop-color:#FFFFFF"/>
	</linearGradient>
	<path class="st13" d="M231.8,429.2c6.9,1.8,14,2.9,21.2,3.2c8.7,0.1,17.4-1.3,25.6-4.1c15.2-5.1,33-16.2,31.3-21.7
		c-0.9-2.9-6.8-3.1-17.7-3.8c-47.1-3.2-50-7.6-70-4.3c-13.3,2.2-31.2,7.3-32,13c-0.5,4.1,7.3,7.6,14.6,10.1
		c2.8,0.9,3.4,1.1,12.9,3.7C227.7,428,227.9,428.3,231.8,429.2z"/>
	<path class="st14" d="M177.6,196.9c-19.8-14.3-47.1-7.8-68.3-2.8c-8.4,2-33.4,7.9-32.9,15.5c0.3,4.6,9.7,7.8,14.6,9.5
		c18.7,6.4,29.7,2,57.5,0.8s39.6,2.2,42-3.4C192.9,211.1,184.6,201.9,177.6,196.9z"/>
	<path class="st15" d="M150.5,200.2c-6.1-0.2-9.1,0.8-20.4,3c-17.8,3.5-25.9,4-25.8,4.7s9,0.2,32.6-0.4c26.5-0.6,33.1-0.4,33.2-1.8
		C170.4,204.1,160.7,200.5,150.5,200.2z"/>
	<path class="st16" d="M202.9,363.3c-1.9,1.7-1.2,5.7,0,8.1c3.1,6.3,12.9,8.9,15.3,6.3c1.9-2.1-0.6-8.3-4.5-11.7
		C210.6,363.4,205.2,361.2,202.9,363.3z"/>
	<path class="st16" d="M144.8,345.2c-3.8,4.6-2.8,12.3,0.9,15.3c6.4,5.2,22.4-3.2,22.4-9.9c0-4.2-6.2-8.2-11.7-9
		C155.3,341.5,148.7,340.6,144.8,345.2z"/>
	<path class="st16" d="M154.8,244.1c5.7-3.3,15.2-2.9,19.7-2.7c2.5,0.1,13.9,0.6,15.3,3.1c2.3,4.3-25.5,14.3-35,11.2
		C149.4,254,148.7,247.6,154.8,244.1z"/>
	<path class="st4" d="M376.4,632c-0.1-19.9,3.3-39.6,9.9-58.4c1.6-4.4,3.2-8.3,4.9-12.1c2-4.4,4-8.8,6.1-13.2
		c5.1-10.5,10.3-20.9,15.4-31.4c4.6-9.7,9.1-19.6,13.2-29.5c1.5-3.5,2.9-7.1,4.3-10.7c0.7-1.8,1.5-3.6,2.2-5.4c0-0.1,0.3-0.7,0,0
		l0.3-0.6c0.2-0.4,0.4-0.9,0.5-1.3c0.5-1.1,0.9-2.1,1.4-3.2c4.7-10.7,9.9-21.2,15.1-31.7c4.8-9.5,9.9-18.9,15.4-28
		c11.4-18.5,24.5-35.9,39-52c2.3-2.5,4.5-5,6.9-7.4c3.3-3.5-2-8.8-5.3-5.3c-16.2,16.9-30.7,35.4-43.4,55.1c-12,18.8-22,38.8-31.3,59
		c-3.7,8-7,16-10.3,24.1c-0.7,1.8-1.5,3.6-2.2,5.4l-1.1,2.7c-0.2,0.5-0.4,1-0.6,1.5c-0.1,0.2-0.2,0.5-0.3,0.7
		c0.3-0.6-0.2,0.5-0.2,0.5c-2.1,4.9-4.2,9.7-6.4,14.5c-9.4,20.2-20.3,39.8-28.6,60.6c-7.6,19.2-11.8,39.7-12.3,60.3
		c-0.1,2-0.1,4-0.1,6C368.9,636.8,376.4,636.8,376.4,632L376.4,632z"/>
	<path class="st4" d="M290.8,643.5c16.2-20,31.5-40.7,45.7-62.2c6.3-9.5,12.4-19.2,18.3-29.1c5.7-9.5,11.2-19,17.1-28.3
		c13.7-21.2,28.8-41.4,45.3-60.5c13.1-15.3,26.1-30.6,38.8-46.2c16.7-20.4,33-41.2,48.9-62.3c2.2-3,4.5-5.9,6.7-8.9
		c1.2-1.6,0.3-4.2-1.3-5.1c-1.9-1.1-3.9-0.3-5.1,1.3c-16.1,21.5-32.6,42.7-49.5,63.6c-12.7,15.7-25.7,31.2-38.9,46.5
		c-16.4,19.1-32.2,38.8-46.2,59.7c-12.8,19.2-23.8,39.5-36.4,58.9c-13,20.1-27,39.6-41.9,58.5c-2.3,2.9-4.6,5.7-6.9,8.6
		c-1.4,1.5-1.4,3.8,0,5.3C286.9,644.9,289.5,645.1,290.8,643.5L290.8,643.5z"/>
	<path class="st4" d="M232.1,624.6c23.6-13.6,45.5-29.9,65.3-48.5c15-14.2,27.4-30.5,40.2-46.6c17.1-21.8,35.6-42.4,55.3-61.8
		c6.9-6.7,14-13.1,21.1-19.6c8.2-7.5,16.1-15.3,23.8-23.4c20.7-21.6,40.2-44.3,58.6-67.9c1.7-2.2,3.4-4.4,5.1-6.6
		c1.2-1.6,0.3-4.2-1.3-5.1c-1.9-1.1-3.9-0.3-5.1,1.3l-0.2,0.2l-0.6,0.7l-1.2,1.5c-0.9,1.1-1.8,2.3-2.7,3.4c-1.8,2.3-3.6,4.6-5.5,6.9
		c-4.3,5.3-8.6,10.6-13,15.8c-10.5,12.6-21.3,24.8-32.4,36.8c-8.5,9.1-17.2,18-26.3,26.6c-6.8,6.3-13.7,12.5-20.4,18.8
		c-19.8,18.9-38.2,39-55.3,60.3c-12.9,16-25.1,32.7-39.5,47.4c-18.8,19.1-40.5,35.4-63.3,49.3c-2.1,1.3-4.3,2.6-6.4,3.8
		c-1.8,1-2.4,3.3-1.3,5.1C228,625,230.3,625.6,232.1,624.6L232.1,624.6L232.1,624.6z"/>
	<path class="st4" d="M193.8,581c30.5-18.8,60.5-38.5,89.8-59.2c31.5-22.2,62.1-45.4,92.2-69.5c15.5-12.4,31-25,46.3-37.7
		c6.6-5.5,13.2-10.9,19.8-16.5c20.4-17,40.7-34,61.1-51.1l11.3-9.4c1.5-1.3,1.3-4,0-5.3c-1.5-1.4-3.8-1.4-5.3,0
		c-22.5,18.9-45,37.7-67.5,56.5c-7.8,6.6-15.7,13.1-23.6,19.7c-12.2,10.1-24.4,20-36.7,29.9c-29.2,23.6-58.9,46.6-89.4,68.4
		c-30,21.5-60.7,42.1-92.1,61.7c-3.2,2-6.4,4-9.6,5.9C185.9,577,189.6,583.5,193.8,581L193.8,581z"/>
	<path class="st4" d="M159.3,498.5c31.6,10.9,65.4,14,98.5,8.8c12.5-2.1,24.8-5,36.9-8.7c10.5-3.1,20.4-8.4,29.9-13.6
		c22.6-12.4,44.5-26.6,64.2-43.3c16.5-14.1,33.8-27.1,50.6-40.7c21.7-17.6,42.9-35.7,64-53.9c3.6-3.1,7.2-6.2,10.8-9.3
		c1.4-1.5,1.4-3.8,0-5.3c-1.5-1.4-3.8-1.4-5.3,0c-22.7,19.7-45.5,39.2-68.8,58.3c-15,12.3-30.4,23.9-45.3,36.2
		c-10.5,8.7-19.9,17.1-30.7,24.6s-22.2,14.8-33.7,21.6c-5.7,3.3-11.4,6.5-17.3,9.5c-2.5,1.3-5.1,2.6-7.7,3.8c-1.1,0.5-2.3,1-3.4,1.5
		l-1,0.4h-0.1l-1.9,0.8c-4.5,1.7-9.1,3.1-13.8,4.4c-6,1.7-12,3.2-18.1,4.5c-32.3,6.8-65.7,5.5-97.4-3.9c-2.9-0.9-5.7-1.8-8.5-2.8
		c-2-0.6-4.1,0.6-4.6,2.6S157.3,497.9,159.3,498.5L159.3,498.5L159.3,498.5z"/>
	<path class="st4" d="M160.3,498.6c26.9-2.5,53.6-7.2,79.7-14c26.6-6.9,52.8-15.2,77.4-27.6c11.3-5.7,22.1-12.4,32.2-20
		c8.6-6.5,16.8-13.6,24.9-20.8c8.5-7.4,17.1-14.7,26.2-21.2c9.2-6.6,18.8-12.6,28.8-18c21.7-11.6,44.8-20.5,68.6-26.4
		c3.7-0.9,7.4-1.8,11.2-2.6c2-0.6,3.1-2.6,2.6-4.6c-0.6-2-2.6-3.1-4.6-2.6c-25.7,5.5-50.6,14.2-74.2,25.9
		c-20.2,10.3-39.1,22.9-56.4,37.7c-8.1,6.9-15.9,14-24.1,20.7c-8.9,7.3-18.3,13.8-28.2,19.6c-24.1,13.9-50.6,23-77.4,30.3
		c-25.8,7.2-52.2,12.3-78.9,15.4c-2.7,0.3-5.3,0.6-8,0.8c-2,0-3.7,1.6-3.8,3.7C156.5,496.7,158.2,498.8,160.3,498.6L160.3,498.6z"/>
	<path class="st17" d="M175.3,517.6c2.7,3.8,8.9,5.5,12.1,4c5.6-2.6,3.2-15.4-2-17.4c-3.2-1.3-7.9,1.5-9.9,4.8
		C175,509.7,172.6,513.7,175.3,517.6z"/>
	<path class="st18" d="M217,572.5c1,6.6,6.6,15.4,10.6,17.7c6.9,4.1,10.3-10.7,5.8-18.5c-2.8-4.9-8.8-7.8-12.3-7
		C220.3,564.8,216,565.8,217,572.5z"/>
	<path class="st19" d="M208.1,543.1c6.1,2.4,13.3-1.5,14.7-6.6c2.5-8.8-12.1-23-18.7-20.5c-4.1,1.5-5.6,9.7-4.2,15.8
		C200.2,533.1,201.9,540.7,208.1,543.1z"/>
	<path class="st7" d="M878.7,445.7c2,5.7,2.7,11.7,2.2,17.7c8.4,10.6,14.7,22.6,18.8,35.4c2.7,8.6,4.4,17.5,5,26.6
		c-0.1,22.3-10.8,43.2-28.8,56.4c-13,9.1-24.9,19.7-35.4,31.5c-7.7,8.7-12.7,16-23.2,19.9s-13-0.6-25.4,1.7
		c-17.9,3.2-18.3,13.4-42,22.1c-8.1,3-17.3,6.2-28.8,4.4c-5-0.8-10.7-2.5-21-8.9c-12.1-7.4-23.1-16.5-32.6-27.1
		c-34.9-40.5-64.7-111.8-64.7-111.8c-17-40.7-27.3-74.9-35.1-101.5c-5.5-18.5-9.6-34-12.3-45l-6.3-33.7
		c82.7,37.1,151.4,53.2,201.5,60.9C796,401.5,865.1,407.4,878.7,445.7z"/>
	
		<linearGradient id="SVGID_7_" gradientUnits="userSpaceOnUse" x1="1133.6589" y1="342.1319" x2="1489.449" y2="342.1319" gradientTransform="matrix(-1 0 0 -1 2029.458 835.6688)">
		<stop  offset="0" style="stop-color:#F0BEC6"/>
		<stop  offset="0.94" style="stop-color:#C06889"/>
	</linearGradient>
	<path class="st20" d="M869.8,441.4c2,5.7,2.7,11.7,2.2,17.7c14.1,17.8,22.4,39.4,23.8,62c-0.1,22.3-10.8,43.2-28.8,56.4
		c-13,9.1-24.9,19.7-35.4,31.5c-7.7,8.7-12.7,16-23.2,19.9s-13-0.6-25.4,1.7c-17.9,3.2-18.3,13.4-42,22.1c-8.1,3-17.3,6.2-28.8,4.4
		c-5-0.8-10.7-2.5-21-8.8c-12.1-7.4-23.1-16.5-32.6-27.1c-34.9-40.5-64.7-111.8-64.7-111.8c-17-40.7-27.3-74.9-35.1-101.5
		c-5.5-18.4-9.6-34-12.4-45l-6.3-33.7c82.7,37.1,151.4,53.2,201.5,60.9C787.1,397.2,856.2,403.1,869.8,441.4z"/>
	
		<linearGradient id="SVGID_8_" gradientUnits="userSpaceOnUse" x1="1133.1501" y1="341.8213" x2="1494.3774" y2="341.8213" gradientTransform="matrix(-1 0 0 -1 2029.458 835.6688)">
		<stop  offset="0.22" style="stop-color:#C06889"/>
		<stop  offset="0.75" style="stop-color:#F0BEC6"/>
		<stop  offset="0.8" style="stop-color:#E9B2BD"/>
		<stop  offset="0.89" style="stop-color:#D792A7"/>
		<stop  offset="1" style="stop-color:#C06889"/>
	</linearGradient>
	<path class="st21" d="M772.1,451.7c27.8,4.3,41.7,6.5,58.6,2.7s34.2-12.2,40-5.6c2.4,2.8,2,7.2,1.3,10.3
		c5.5,6.8,10.1,14.3,13.7,22.3c4.2,9.4,17.4,38.7,6.2,62.5c-5.7,12-10.6,8-39.2,38.8c-4.7,5.1-5.3,6-15.8,17.5
		c-22.7,24.8-25.9,27.2-28.4,28.8c-10.3,6.8-13.6,4.3-37.7,11.1c-31.2,8.8-33,15-47.2,16.3c-23.9,2.1-43.6-13.5-55.1-22.8
		c-35.9-29.2-25.6-50.8-65.8-119.7c-12.1-20.8-47.4-77.7-56.1-105.1c-4.1-12.8-7.5-28.2-7.5-28.2c-2.3-10.3-3.4-15.4-3.8-21.8
		c-0.8-14.7,2.2-27.3,1.5-27.4c-0.3,0-0.9,2-1,2.4c-2.9,12.4,80.7,51.6,120.9,71C719.2,434.8,738.7,446.5,772.1,451.7z"/>
	<path class="st7" d="M1034.1,228.1c0.8-2.4,6.4-19.6-2.8-34.9c-6.8-11.3-19.1-18.1-39-22.7c-46.9-10.9-97-0.7-125.4,7
		c-27.4,8-51.2,15.5-70.8,22c-26.5,8.8-60.2,20.7-98.6,35.8l-5.6,2.2l-99.7,29.8l-37.6,5.9l-7.3,60.5c37,19.9,74,40.1,110.8,60.4
		c30.9,17.1,61.8,34.3,92.6,51.6c7,2.4,14.1,4.5,21.3,6.1c66.8,14.8,130.9-10.9,146-30c2.1-2.6,6.2-8.8,14.2-14.7
		c9.1-6.7,13-5.5,17.5-11.4c4.7-6.1,1.9-9.3,7.3-20.1c4-8,5.6-6.3,8.9-13.3c4.5-9.5,1.3-12.2,6.2-25.7c1.9-5.3,4.8-11.2,5.3-12.4
		c2.7-5.7,3.7-7,5.3-10.6c2.2-5.1,3.7-10.5,4.4-15.9c1.2-7.1,4.8-18.9,15-39.4C1004.5,257.5,1026.7,250.5,1034.1,228.1z"/>
	
		<linearGradient id="SVGID_9_" gradientUnits="userSpaceOnUse" x1="1312.3018" y1="677.0743" x2="1160.1318" y2="413.5144" gradientTransform="matrix(-1 0 0 -1 2029.458 835.6688)">
		<stop  offset="0" style="stop-color:#F0BEC6"/>
		<stop  offset="0.24" style="stop-color:#DFA0B1"/>
		<stop  offset="0.52" style="stop-color:#CE819B"/>
		<stop  offset="0.77" style="stop-color:#C46F8E"/>
		<stop  offset="0.94" style="stop-color:#C06889"/>
	</linearGradient>
	<path class="st22" d="M1022.4,228.1c0.8-2.4,6.4-19.6-2.8-34.9c-7.2-11.9-20.6-18.1-39-22.7c-65.3-16.2-122.8-4-127.3-3
		c-30.9,6.9-53.6,16.8-70.5,24.2c-26.2,11.5-48.8,24.4-97,43.6c-1.8,0.8-3.7,1.6-5.6,2.2l-99.7,29.8l-37.6,5.9l-7.3,60.5
		c37,19.9,74,40.1,110.8,60.4c30.9,17.1,61.8,34.3,92.6,51.6c7,2.4,14.1,4.5,21.3,6.1c66.8,14.8,130.9-10.9,146-30
		c2.1-2.6,6.2-8.8,14.2-14.7c9.1-6.7,13-5.5,17.5-11.4c4.7-6.1,1.9-9.3,7.3-20.1c4-8,5.6-6.3,8.8-13.3c4.5-9.5,1.3-12.2,6.2-25.7
		c1.9-5.3,4.8-11.2,5.3-12.4c2.7-5.7,3.7-7,5.3-10.6c2.2-5.1,3.7-10.5,4.4-15.9c1.2-7.1,4.8-18.9,15.1-39.4
		C992.7,257.5,1014.9,250.5,1022.4,228.1z"/>
	
		<linearGradient id="SVGID_10_" gradientUnits="userSpaceOnUse" x1="1049.3376" y1="501.0696" x2="1515.3989" y2="501.0696" gradientTransform="matrix(-1 0 0 -1 2029.458 835.6688)">
		<stop  offset="5.000000e-02" style="stop-color:#F4E8EB"/>
		<stop  offset="0.52" style="stop-color:#C06889"/>
	</linearGradient>
	<path class="st23" d="M810.6,270.8c-32.6,1.4-59.2,4.6-105,10c-10.2,1.2-28.9,3.5-54.6,5.5c-11.5,0.9-15.7,1.1-30.3,2.1
		c-13.7,1-33.3,2.5-57.6,4.7l-49.1-0.2l32.1,16.4c32.1,0.5,78.2,5.4,127.1,28.4c23.3,11,17.6,12.1,43.3,24.2
		c0,0,72.2,34.1,160.2,36.3c9.1,0.2,10.4-0.5,25.3-0.1c21.4,0.5,27,2.2,32.4-2.3c4.6-3.8,2.5-6.7,10.8-20.5
		c5.1-8.5,6.1-7.6,8.8-13.3c5.1-10.3,2.5-14.2,6.2-25.7c4.3-13.3,10.3-16.1,10.8-20.7c0-0.8,0-1.6-0.2-2.4
		c-1.3-10.1,12.1-28.8,8.4-36.5c-2.7-5.4-14.1-4.7-21.4-4.4c-21.3,0.9-42.6-3.2-63.8-1.7C854,273.8,860.5,268.7,810.6,270.8z"/>
	
		<linearGradient id="SVGID_11_" gradientUnits="userSpaceOnUse" x1="1005.4404" y1="593.4779" x2="1487.3806" y2="593.4779" gradientTransform="matrix(-1 0 0 -1 2029.458 835.6688)">
		<stop  offset="8.000000e-02" style="stop-color:#D77393"/>
		<stop  offset="0.27" style="stop-color:#D87695"/>
		<stop  offset="0.42" style="stop-color:#DB809D"/>
		<stop  offset="0.57" style="stop-color:#E091AA"/>
		<stop  offset="0.7" style="stop-color:#E6A9BC"/>
		<stop  offset="0.83" style="stop-color:#EFC7D4"/>
		<stop  offset="0.95" style="stop-color:#FAECF0"/>
		<stop  offset="1" style="stop-color:#FFFFFF"/>
	</linearGradient>
	<path class="st24" d="M819.9,196.8c-109.9,50.6-280.9,77.8-277.8,94c2.2,11.3,80.3-21.5,198.1,1.7c0,0,41.3,8.2,188.4,16.9
		c5.3,0.3,18.2,0.7,29.6-6.9c3.5-2.3,6.2-5.2,11.6-12.4c7.6-10.2,14.6-20.9,20.7-32c8.8-3.4,16.6-9,22.6-16.3
		c1.7-2.1,14.7-18,9.8-26.2c-3.5-5.8-12.2-2.9-25.4-7.6c-14.6-5.1-19.3-14.1-28.4-21.4c-18.4-14.7-42.9-12.5-70.6-10.1
		C855.2,180.5,823.4,195.2,819.9,196.8z"/>
	<path class="st4" d="M1024,183.1c-27.9-14.2-57.8-24.4-88.9-28.5c-35.9-4.8-72.5-0.8-106.5,11.6c-29.8,10.8-57.7,26.3-86.7,39.1
		c-25.2,11.1-51.6,21.2-78.2,29.9c-34.1,11.2-68.8,20.5-104,27.7c-4.8,1-9.6,2-14.4,2.9c-2.7,0.5-4.2,3.7-3.5,6.2
		c0.8,2.6,3.5,4.2,6.2,3.5c35.8-6.9,71.2-15.8,106-26.7c27.9-8.7,55.3-18.8,82.3-30.3c27.5-11.7,53.8-25.9,81.4-37.4
		c15.2-6.5,30.9-11.4,47.1-14.8c18.1-3.5,36.6-4.6,55-3.3c31.5,2.1,62.4,11.1,90.9,24.6c2.8,1.3,5.6,2.7,8.4,4.1
		c2.4,1.3,5.4,0.5,6.8-1.8C1027.2,187.6,1026.4,184.6,1024,183.1L1024,183.1z"/>
	<path class="st4" d="M1006.6,244.4c-29.4-7.3-59.3-12-89.5-14.2c-24.7-1.9-49.5-1.8-74.1,0.4c-23.6,2.2-47.1,6.3-70.4,10.6
		c-34.6,6.4-69,13.4-103.4,20.4c-37.8,7.7-75.5,15.5-113.2,23.5l-14.8,3.2c-4.7,1-2.7,8.2,2,7.2c38-8.1,76-16,114.1-23.8
		c35-7.1,70-14.2,105-20.9c24.3-4.6,48.9-9.2,73.4-11.9c22.1-2.4,44.4-3,66.7-2c31.7,1.4,63.1,5.6,94,12.8c2.8,0.7,5.6,1.3,8.3,2
		C1009.2,252.7,1011.2,245.5,1006.6,244.4L1006.6,244.4z"/>
	<path class="st4" d="M542.1,294.6c32.4-0.1,64.7-1.3,97-3.6c24.1-1.7,48.1-4.1,72.1-7.2c27.8-3.6,55.6-7,83.7-8.6
		c29.2-1.7,58.4-1.8,87.7-1c28,0.8,55.9,2.5,83.8,5.2c4.4,0.4,8.8,0.9,13.2,1.3c2,0.2,3.8-1.9,3.8-3.8c0-2.1-1.7-3.7-3.8-3.8
		c-29.8-3.1-59.7-5.2-89.6-6.3c-27.3-1-54.5-1.1-81.8,0.1c-29.4,1.2-58.6,4.3-87.8,8.1c-23.6,3.1-47.2,5.7-70.8,7.5
		c-31.2,2.5-62.5,3.9-93.9,4.2c-4.4,0.1-8.9,0.1-13.3,0.1C537.3,287,537.3,294.6,542.1,294.6L542.1,294.6z"/>
	<path class="st4" d="M934.5,392.2c-30.4,3.3-61.1,3.4-91.5,0.1c-24.9-2.8-49.5-8-73.4-15.5c-25.7-7.9-50.9-17.3-75.5-28.2
		c-9.9-4.4-19.6-9.2-29.5-13.7c-10.2-4.7-20.7-9-31.3-12.9c-25.9-9.4-52.5-16.4-79.7-20.9c-4.2-0.7-8.5-1.4-12.7-2
		c-2-0.3-4,0.5-4.6,2.6c-0.5,1.8,0.6,4.3,2.6,4.6c28.8,4,57.2,10.8,84.7,20.2c10.5,3.6,20.9,7.6,31.1,12.1
		c9.6,4.3,19.1,8.9,28.7,13.3c24,11,48.7,20.6,73.8,28.8c24.9,8.3,50.5,14.3,76.5,17.9c29.1,3.8,58.5,4.6,87.8,2.2
		c4.4-0.3,8.7-0.7,13.1-1.2c2-0.1,3.7-1.7,3.8-3.8C938.3,394.2,936.5,392,934.5,392.2L934.5,392.2z"/>
	<path class="st4" d="M891.2,430.3c-24.2,12.8-50.9,21.5-78.1,22.5c-4.5,0.2-9,0.1-13.4-0.1c-1.9-0.1-3.9-0.2-5.8-0.4
		c-0.9-0.1-1.8-0.2-2.7-0.3l-1.2-0.2c0,0-1-0.1-0.4,0s-0.5-0.1-0.6-0.1c-8.4-1.3-16.6-3.5-24.6-6.5c-9.6-3.6-19.1-7.8-28.2-12.5
		c-12.4-6.2-24.7-12.8-36.9-19.4c-27.4-14.9-55.2-29.4-80.9-47.3c-25.1-17.6-48.5-37.5-69.8-59.6c-2-2.1-4-4.2-6-6.3
		c-3.3-3.5-8.6,1.8-5.3,5.3c20.6,22.1,43.3,42.2,67.6,60.1c25.5,18.8,53.2,33.9,81,49.1c23.1,12.6,46.3,25.8,70.8,35.6
		c8.2,3.4,16.7,6,25.3,7.8c8.1,1.5,16.4,2.3,24.7,2.3c26.5,0.1,52.6-6.8,76.6-17.9c3.9-1.8,7.8-3.7,11.6-5.8
		C899.2,434.5,895.4,428.1,891.2,430.3L891.2,430.3z"/>
	<path class="st4" d="M962.7,321.2c-19.1-0.5-38.2-1.1-57.3-1.8c-9.8-0.4-19.7-0.6-29.5-1.3c-20.6-1.5-41.2-4.2-61.7-6.3
		c-31.9-3.2-63.9-6.3-95.9-8.7c-25.8-2-51.6-3.6-77.4-5.8c-27.7-2.3-55.3-5.3-82.9-8.4c-5.3-0.6-10.6-1.2-15.9-1.8
		c-2-0.2-3.8,1.9-3.8,3.8c0,2.2,1.7,3.5,3.8,3.8c30.7,3.5,61.5,6.9,92.3,9.7c23.1,2,46.3,3.5,69.5,5.3c34.9,2.6,69.7,5.7,104.4,9.2
		c19.7,2,39.3,4.3,59,6.2c9.5,0.9,19,1.3,28.5,1.7c17,0.7,33.9,1.2,50.9,1.7l16.2,0.5C967.6,328.8,967.6,321.3,962.7,321.2
		L962.7,321.2z"/>
	
		<linearGradient id="SVGID_12_" gradientUnits="userSpaceOnUse" x1="1172.5035" y1="422.2101" x2="1292.3184" y2="422.2101" gradientTransform="matrix(-1 0 0 -1 2029.458 835.6688)">
		<stop  offset="0" style="stop-color:#FFFFFF"/>
		<stop  offset="0.23" style="stop-color:#FFFBFD"/>
		<stop  offset="0.44" style="stop-color:#FDF0F6"/>
		<stop  offset="0.48" style="stop-color:#FDEDF4"/>
		<stop  offset="0.73" style="stop-color:#FDF1F6"/>
		<stop  offset="0.96" style="stop-color:#FFFDFD"/>
		<stop  offset="1" style="stop-color:#FFFFFF"/>
	</linearGradient>
	<path class="st25" d="M815.4,427.8c-6.9,1.8-14,2.9-21.2,3.2c-8.7,0.1-17.4-1.3-25.6-4.1c-15.2-5.1-33-16.2-31.3-21.7
		c0.9-2.9,6.8-3.1,17.7-3.8c47.1-3.2,50-7.6,70-4.3c13.3,2.2,31.2,7.3,32,13c0.5,4.1-7.3,7.6-14.6,10.1c-2.8,0.9-3.4,1.1-12.9,3.7
		C819.5,426.6,819.2,426.9,815.4,427.8z"/>
	<path class="st14" d="M869.5,195.5c19.8-14.3,47.1-7.8,68.3-2.8c8.4,2,33.4,7.9,32.9,15.5c-0.3,4.6-9.7,7.8-14.6,9.5
		c-18.7,6.4-29.7,2-57.5,0.8s-39.6,2.2-42-3.4C854.3,209.8,862.6,200.6,869.5,195.5z"/>
	<path class="st15" d="M896.6,198.8c6.1-0.2,9.1,0.8,20.4,3c17.8,3.5,25.9,4,25.8,4.7s-9,0.2-32.6-0.4c-26.5-0.6-33.1-0.4-33.2-1.8
		C876.8,202.7,886.5,199.2,896.6,198.8z"/>
	<path class="st16" d="M841.8,363.3c1.9,1.7,1.2,5.7,0,8.1c-3.1,6.3-12.9,8.9-15.3,6.3c-1.9-2.1,0.6-8.3,4.5-11.7
		C834.1,363.4,839.5,361.2,841.8,363.3z"/>
	<path class="st16" d="M902.3,343.8c3.8,4.6,2.8,12.3-0.9,15.3c-6.4,5.2-22.4-3.2-22.4-9.9c0-4.2,6.2-8.2,11.7-9
		C891.8,340.1,898.5,339.2,902.3,343.8z"/>
	<path class="st16" d="M892.4,242.7c-5.7-3.3-15.2-2.9-19.7-2.7c-2.5,0.1-13.9,0.6-15.3,3.1c-2.3,4.3,25.5,14.3,35,11.2
		C897.8,252.6,898.5,246.2,892.4,242.7z"/>
	<path class="st4" d="M678.2,630.6c0.1-20.4-3.3-40.7-10-60c-7.2-20-17.6-38.8-26.8-57.9c-2.7-5.6-5.3-11.3-7.9-17
		c-1-2.2-1.9-4.4-2.9-6.7l-0.1-0.3c-0.1-0.2-0.2-0.5-0.3-0.7c-0.2-0.4-0.4-0.9-0.5-1.3c-0.4-1.1-0.9-2.1-1.3-3.2
		c-3.1-7.5-6-15.1-9.3-22.6c-4.8-10.8-10-21.5-15.3-32.1c-4.8-9.5-9.8-18.8-15.4-27.9c-11.7-19-25.1-36.9-40.1-53.4
		c-2.3-2.5-4.5-5-6.9-7.4c-3.3-3.5-8.6,1.8-5.3,5.3c15.8,16.6,30,34.6,42.4,53.9c11.9,18.7,21.8,38.6,31.1,58.7
		c3.7,8,6.3,14.5,9.6,22.6c3.5,8.7,7.2,17.4,11.1,26c5.2,11.2,10.7,22.2,16.1,33.2c2.3,4.6,4.5,9.2,6.6,13.8c2,4.3,3.8,8.3,5.4,12.3
		c7.4,18.6,11.6,38.5,12.2,58.5c0.1,2,0.1,4,0.1,6C670.7,635.5,678.2,635.5,678.2,630.6L678.2,630.6z"/>
	<path class="st4" d="M761.6,636.8c-15.9-19.6-30.9-40-44.9-61.1c-6.4-9.6-12.5-19.4-18.4-29.3c-5.6-9.3-11-18.8-16.9-27.9
		c-13.9-21.5-29.3-42-46-61.3c-13-15.2-26-30.4-38.7-46c-16.4-20.1-32.5-40.5-48.1-61.3c-2.2-3-4.5-5.9-6.7-8.9
		c-1.2-1.6-3.2-2.5-5.1-1.3c-1.6,0.9-2.6,3.5-1.3,5.1c16.4,21.8,33.1,43.3,50.2,64.6c12.8,15.8,25.8,31.3,39,46.7
		c16.2,18.9,31.7,38.2,45.6,59c12.8,19.2,23.8,39.6,36.4,59c13.3,20.5,27.6,40.4,42.7,59.5c2.3,2.9,4.6,5.7,6.9,8.6
		c1.3,1.6,4,1.3,5.3,0C763,640.7,763,638.4,761.6,636.8L761.6,636.8z"/>
	<path class="st4" d="M818.8,616.7c-23.2-13.4-44.8-29.4-64.3-47.8c-14.8-14.2-27.2-30.4-39.9-46.4c-17.1-21.7-35.5-42.2-55.2-61.6
		c-6.8-6.7-13.9-13-20.9-19.5c-8.2-7.5-16.1-15.3-23.7-23.3c-20.6-21.5-40.1-44.2-58.5-67.6c-0.8-1-1.6-2.1-2.5-3.1l-1.2-1.5
		l-0.6-0.7l-0.2-0.2c-1.2-1.6-3.2-2.5-5.1-1.3c-1.6,0.9-2.6,3.5-1.3,5.1c17.7,22.9,36.3,45,56,66.2c8.6,9.3,17.5,18.4,26.7,27.1
		c6.7,6.3,13.7,12.5,20.4,18.8c19.8,18.9,38.4,39.2,55.6,60.5c13,16.1,25.2,32.8,39.8,47.6c9,9.1,18.7,17.5,28.8,25.4
		c11.4,9,23.4,17.3,35.8,24.9c2.1,1.3,4.3,2.6,6.4,3.8c1.8,1,4.1,0.4,5.1-1.3S820.6,617.8,818.8,616.7L818.8,616.7z"/>
	<path class="st4" d="M857.2,573.1c-30.5-18.8-60.5-38.5-89.8-59.2c-31.3-22-61.7-45.1-91.5-69c-15.2-12.2-30.4-24.6-45.5-37
		c-6.7-5.5-13.3-11-19.9-16.6c-20.3-17-40.6-33.9-60.9-50.9l-11.3-9.4c-1.5-1.4-3.8-1.4-5.3,0c-1.3,1.3-1.6,4,0,5.3
		c22.5,18.9,45,37.7,67.5,56.6c7.8,6.6,15.7,13.1,23.6,19.7c12.3,10.2,24.6,20.3,37.1,30.3c29.4,23.7,59.3,46.9,90,68.9
		c30.2,21.7,61.1,42.3,92.6,62.1l9.6,5.9C857.6,582.2,861.3,575.7,857.2,573.1L857.2,573.1z"/>
	<path class="st4" d="M885.9,489.9c-30.7,10.7-63.6,13.7-95.8,8.6c-12.2-2.1-24.2-5-36.1-8.7c-4.3-1.3-8.6-3-12.6-5
		c-5.4-2.5-10.8-5.3-16-8.2c-12-6.6-23.6-13.8-35-21.4c-4.9-3.3-9.8-6.7-14.6-10.3l-1.7-1.3l-0.7-0.5c0.5,0.4-0.1-0.1-0.2-0.2
		c-1-0.8-2-1.6-3-2.4c-2.7-2.2-5.3-4.5-8-6.8c-16.1-13.7-33.1-26.4-49.5-39.8c-21.5-17.5-42.6-35.5-63.6-53.6l-10.8-9.3
		c-1.5-1.4-3.8-1.4-5.3,0c-1.5,1.5-1.5,3.8,0,5.3c22.8,19.8,45.8,39.5,69.2,58.6c15.3,12.6,31.2,24.5,46.5,37.1
		c5.9,4.8,11.6,10,17.5,14.8c4.5,3.6,9.1,7,13.8,10.3c11.1,7.8,22.5,15,34.2,21.8c10.5,6.1,21.2,12,32.4,16.3
		c4.5,1.8,9.3,3,13.9,4.3c6.1,1.7,12.3,3.3,18.6,4.5c33.2,6.9,67.6,5.5,100.2-4.2c2.9-0.9,5.7-1.8,8.6-2.8c2-0.6,3.1-2.6,2.6-4.6
		C889.9,490.5,887.9,489.4,885.9,489.9L885.9,489.9z"/>
	<path class="st4" d="M886.9,489.8c-26.7-2.5-53.1-7.3-79.1-14.1c-26.2-6.9-52.1-15-76.2-27.5c-11-5.7-21.6-12.4-31.4-19.9
		c-8.2-6.3-16-13.3-23.8-20c-17.3-15.1-35.7-28.7-56-39.5c-22-11.7-45.3-20.7-69.5-26.7c-3.7-0.9-7.4-1.8-11.2-2.6
		c-2-0.5-4,0.7-4.6,2.6c-0.5,2,0.6,4,2.6,4.6c25.4,5.4,50,14,73.2,25.6c20,10.2,38.7,22.8,55.6,37.5c8.1,6.9,16,14.1,24.3,20.8
		c9.3,7.5,19.2,14.3,29.6,20.2c24.4,13.8,51.1,23,78.1,30.3c26.3,7.2,53.1,12.4,80.2,15.5c2.7,0.3,5.3,0.6,8,0.8
		c2,0.2,3.8-1.9,3.8-3.8C890.5,491.5,888.8,489.8,886.9,489.8L886.9,489.8z"/>
	<path class="st17" d="M871.8,516.2c-2.6,3.8-8.9,5.5-12.1,4c-5.6-2.6-3.2-15.4,2-17.4c3.2-1.3,7.9,1.5,9.9,4.8
		C872.1,508.4,874.5,512.4,871.8,516.2z"/>
	<path class="st18" d="M830.1,571.2c-1,6.6-6.6,15.4-10.6,17.7c-6.9,4.1-10.3-10.7-5.8-18.5c2.8-4.9,8.8-7.8,12.3-7
		C826.8,563.5,831.1,564.5,830.1,571.2z"/>
	<path class="st19" d="M839.1,541.7c-6.1,2.4-13.3-1.5-14.7-6.6c-2.5-8.8,12.1-23,18.7-20.5c4.1,1.5,5.6,9.7,4.2,15.8
		C847,531.8,845.2,539.3,839.1,541.7z"/>
	<path class="st26" d="M499,203.2c-2.5,3.3-3.7,9.4-5.6,21.7c-1.3,9-1.4,13.7-0.9,17.9c0.2,2,0.5,3.4,0.5,3.9
		c1.6,9.5,6.7,50.7,11,104.9c2.3,28.3,3.4,42.5,3.7,53.3c1.5,55.8-4.6,163.7-3.3,196.7c0.2,6.4,2.2,12.5,5.7,17.9
		c1.3,1.9,8.6,12.6,18.8,11.7c8.7-0.8,13.8-9.7,15.7-13c3.1-5.6,4.7-11.9,4.7-18.3c0-32-6.7-137.4-4.6-195.7
		c0.7-19,1.6-13.1,4.2-54.3c1.1-17,5.5-89.7,7.1-103.8c0-0.3,0.2-1.6,0.3-3.3c0.4-5.6,0.4-11.2-0.2-16.8c-0.8-8.4-3.1-16.6-6.8-24.3
		c-1.1-2.5-3-4.6-5.4-6c-1.2-0.7-4.5-2.5-7.6-1.4c-2.8,1-2.9,3.5-5.4,5.4c-1.9,1.5-5.5,2.6-12.8,0.3c-1.5-2-3.6-3.4-6-4
		C505.6,194.7,500,201.9,499,203.2z"/>
</g>
</svg>
