<?xml version="1.0" encoding="utf-8"?>
<!-- Generator: Adobe Illustrator 24.1.1, SVG Export Plug-In . SVG Version: 6.00 Build 0)  -->
<svg version="1.1" id="Layer_1" xmlns="http://www.w3.org/2000/svg" xmlns:xlink="http://www.w3.org/1999/xlink" x="0px" y="0px"
	 viewBox="0 0 927.5 1252.8" style="enable-background:new 0 0 927.5 1252.8;" xml:space="preserve">
<style type="text/css">
	.st0{fill:#FBD4DE;}
	.st1{fill:#F0BEC6;}
	.st2{fill:#F0D6C6;}
	.st3{fill:#CA849C;}
	.st4{fill:#C06889;}
	.st5{fill:#D6CF95;}
	.st6{fill:#3EA480;}
	.st7{fill:#3CA480;}
	.st8{fill:#BDDABB;}
	.st9{fill:none;stroke:#BDDABB;stroke-width:2.28;stroke-miterlimit:10;}
	.st10{fill:#FBD5DD;}
</style>
<g id="Binary_tree">
	<circle class="st0" cx="659.9" cy="173.5" r="67.9"/>
	<path class="st1" d="M722.5,168.9c-2.9,2.6-6.7,4.1-10.6,4.1h-0.3c-9.5-0.2-19.4-8.7-29.6-25.4c-7.8-12.6-17.7-20.5-29.5-23.2
		c-17.5-4-34.1,4.2-38.8,6.8c-5.8,6.2-10.2,13.5-13.1,21.5c6.6-4.2,18.8-10.2,32.4-7.9c12.5,2.1,23.2,10.7,31.8,25.5
		c7.1,14.2,15.9,22.5,26.1,24.8c13.9,3.1,26.7-6,30.3-8.8l0.2-0.1c0.8-4,1.2-8.2,1.2-12.3C722.8,172.3,722.7,170.6,722.5,168.9z"/>
	<path class="st2" d="M653.5,120.3c13,3,23.8,11.4,32.1,25.1c11.6,19.1,20.6,23.2,26,23.3h0.2c5.8,0,9.3-4.4,10-5.3
		c-5.9-34.2-38.3-57.2-72.5-51.3c-8.9,1.5-17.3,4.9-24.8,10C632.4,119.6,642.8,117.8,653.5,120.3z"/>
	<path class="st3" d="M623.4,179.2c9.5,0.7,18,8.6,25.1,23.5c6.7,13.3,15.2,21.2,25.4,23.7c12,2.9,23.2-2.7,27.7-5.4
		c8.7-7.7,15.1-17.8,18.5-28.9c-5,3.3-13.5,7.7-23.3,7.7c-2.2,0-4.5-0.2-6.6-0.7c-11.4-2.5-21-11.5-28.7-26.7
		c-8-13.7-17.7-21.6-29-23.5c-15.7-2.7-30,7.3-33.6,10c-2.7,10.9-2.5,22.3,0.7,33.1C603.3,187.5,612.3,178.4,623.4,179.2z"/>
	<path class="st4" d="M680.9,231.1c-2.7,0-5.3-0.3-7.9-0.9c-11.4-2.7-20.8-11.4-28-25.7c-6.5-13.5-13.9-20.7-21.9-21.4
		c-11.6-0.9-21.2,12.1-22,13.2c12.3,32.5,48.6,48.8,81.1,36.5c1.9-0.7,3.7-1.5,5.5-2.4C685.4,230.9,683.1,231.1,680.9,231.1z"/>
	<path class="st5" d="M760.1,133.5c6.5-13.7,14-36.1,20.5-49.8c6-12.7,12.2-26.4,9.9-40.2S773,17.4,760.3,23.3
		c-10,4.7-13,17.2-14.7,28.1c-3.9,26.3-6.5,52.7-7.8,79.2"/>
	<path class="st5" d="M762.5,135c6.7-14.2,11.6-29.2,17.8-43.7c3.5-8.1,7.7-16,10.5-24.4s4.4-18.3,1.7-27c-4.2-13.7-20-26-34.3-18.7
		c-6.6,3.4-10.4,10.1-12.6,16.9c-2.6,7.9-3.4,16.5-4.5,24.7c-2.7,20.1-4.6,40.3-5.8,60.5c-0.2,2.5-0.3,4.9-0.4,7.4
		c-0.1,1.6,1.1,2.9,2.7,3c1.6,0.1,2.9-1.1,3-2.7c0-0.1,0-0.2,0-0.3c0.9-19.3,2.6-38.5,4.9-57.7c1.1-8.7,2-17.5,3.7-26.1
		c1.2-6.3,3.1-12.9,7.4-17.5c4.1-4.4,10.5-5.9,16.1-3.6c5.7,2.1,10.6,7.2,13.2,12.9c3.3,7,2.4,15.8,0.4,23.2
		c-2.3,8.3-6.2,15.9-9.7,23.7c-6.2,13.8-10.9,28.3-17,42.1c-0.7,1.5-1.3,3-2,4.4c-0.7,1.4-0.3,3.1,1,3.9
		C760,136.8,761.7,136.4,762.5,135L762.5,135z"/>
	<path class="st6" d="M297.1,914.8c-2.3,73.1-19,147.5-60.3,207.7S126.5,1226.8,53.4,1226c-3.3,0-6.7-0.2-9.8-1.5
		c-8-3.4-11.1-13.5-10.1-22.2s5.1-16.6,7.1-25.1c2.6-10.8,1.9-22.1,2.1-33.2c1.5-89.1,66.3-173.4,152-197.8
		c38.4-10.9,82.7-12.2,111.2-40.2"/>
	<path class="st7" d="M294.3,914.8c-1.1,32.8-5,65.6-12.8,97.6c-7.7,31.7-19.3,62.5-35.8,90.7c-15.1,26.2-34.7,49.5-57.9,68.9
		c-22.4,18.7-48.3,33.5-76.1,42.3c-13.7,4.4-27.9,7.2-42.2,8.4c-3.8,0.3-7.5,0.5-11.3,0.5s-7.7,0.3-11.3-0.5
		c-6.5-1.5-9.8-7.4-10.6-13.6c-1-7.8,2-15.4,4.5-22.7c1.5-4.1,2.6-8.3,3.4-12.5c0.7-4.5,1.1-9.1,1.2-13.7c0.2-8.1,0-16.3,0.5-24.4
		c0.4-6.8,1.2-13.5,2.3-20.2c4.7-27,14.7-52.7,29.3-75.9c14.5-23.2,33.2-43.4,55.2-59.6c22.2-16.5,47.6-28.1,74.6-34.1
		c28.3-6.7,58.5-10,83.9-25.1c6-3.6,11.6-7.9,16.7-12.7c2.6-2.6-1.4-6.6-4-4c-21.4,20.8-52,26.6-80.1,32.4
		c-14.4,3-28.8,6.2-42.7,11.2c-13.2,4.8-25.8,10.9-37.7,18.3c-23.8,14.9-44.6,34.2-61.3,56.9c-16.7,22.6-29,48.2-36,75.4
		c-3.5,13.6-5.5,27.5-6.1,41.5c-0.3,8.7,0.1,17.3-0.5,26c-0.3,4.5-1.1,9-2.4,13.4c-1.3,4.3-2.9,8.5-4.2,12.7
		c-2.3,7.3-3.5,14.9-1.2,22.3c2.2,7,7.3,12.7,14.8,14c3.9,0.5,7.8,0.7,11.8,0.5c3.8-0.1,7.5-0.3,11.3-0.6c7.6-0.6,15.1-1.6,22.5-3.1
		c29.3-5.8,57.1-18.3,81.5-35.3c24.9-17.3,46.6-38.8,64-63.6c19.1-27.1,33.1-57.5,43-89c10-31.9,15.6-65.1,18.2-98.4
		c0.6-8,1.1-16.1,1.3-24.1C300.2,911.2,294.5,911.2,294.3,914.8L294.3,914.8z"/>
	<path class="st6" d="M333.8,865.3c-19-23-50.7-35-80.2-30.2c-13.2,2.1-25.8,7.3-37.7,13.5c-60.2,31.3-108.8,89.4-176,98.3
		c-3.9,0.5-8.1,0.8-11.7-0.8c-8.2-3.6-9.4-15.9-4-23s14.8-10,23.8-10.7s18,0.3,26.8-1.3c18.8-3.3,33.6-17.4,48.5-29.4
		c37.4-30,84.5-50.4,132.4-47.3c8.8,0.6,27.4-4,33.3,2.6"/>
	<path class="st7" d="M335.8,863.3c-13.7-16.3-32.8-27.1-53.8-30.7c-10.7-1.9-21.6-1.8-32.2,0.3c-12.4,2.4-24.2,7.4-35.3,13.3
		c-18.8,9.8-36.2,22-53.3,34.4s-33.9,25.1-51.8,36.2c-17.4,10.7-35.8,19.9-55.8,24.7c-4.9,1.2-9.9,2.2-15,2.8
		c-4.6,0.5-9.9,0.5-12.7-3.6c-2-3.2-2.6-7-1.7-10.6c1.1-4.2,3.8-7.7,7.5-9.9c9.9-6.3,22.2-4.9,33.4-5.2c6.2-0.1,12.4-1.1,18.3-3
		c5.2-1.8,10.2-4.3,14.9-7.2c9.6-6,18.1-13.6,26.9-20.7c9.1-7.3,18.6-13.9,28.7-19.8c20-11.8,41.8-20.5,64.7-24.7
		c11.2-2,22.6-2.8,34-2.3c4.2,0.2,8.4,0.1,12.6-0.2c4.4-0.5,8.8-0.7,13.3-0.6c1.8,0,3.5,0.3,5.2,0.8c1.3,0.3,2.5,1,3.4,2
		c2.5,2.7,6.5-1.3,4-4c-2.8-3-7-3.9-10.9-4.3c-4.5-0.3-9.1-0.2-13.5,0.3c-4,0.4-8.1,0.6-12.2,0.4c-5.9-0.3-11.8-0.3-17.8,0
		c-23.7,1.4-46.8,8.2-68.2,18.3c-10.7,5.1-21.1,11.1-30.9,17.8c-9.8,6.7-18.8,14.3-28,21.7c-8.5,6.9-17.7,13.7-28.2,17.1
		c-5.9,1.8-12.1,2.7-18.4,2.7c-6.5,0.1-13-0.1-19.4,0.8c-10,1.5-20.9,6.5-24.4,16.8c-2.9,8.7,0.4,19.8,9.9,22.6
		c5.7,1.7,12,0.3,17.7-0.7c5.2-0.9,10.3-2.1,15.3-3.6c9.9-3,19.6-6.8,28.9-11.5c19.1-9.4,36.7-21.7,53.9-34.1
		c17.5-12.7,34.8-25.8,53.2-37.3c19.4-12.2,41.1-24,64.4-25.2c21.2-1,41.9,5.9,58.3,19.3c4,3.3,7.7,7,11,11c1,1.2,2.8,1.5,4,0.5
		s1.5-2.8,0.5-4C336.2,863.6,336,863.5,335.8,863.3L335.8,863.3z"/>
	<path class="st6" d="M285.5,834.1c-83.4,0-140.5,42.7-186.4,66.6c-40.3,21-74.8,23.6-74.8,22.4c0.3-25.5,14-62.8,32.3-79.3
		c7.4-6.7,16-12.1,23-19.3c16.4-17.1,21.9-42.3,37.8-59.9c18.3-20.2,47.2-26.9,74.4-28.6c20.7-1.3,42.8,0.1,59.8,11.9
		c32.2,22.4,32.7,71.1,59.2,100.1"/>
	<path class="st7" d="M285.5,831.2c-27,0.1-53.8,4.5-79.4,13.2c-22.3,7.4-43.4,17.7-64,29c-19.1,10.5-37.7,22.3-57.7,31.1
		c-11.9,5.3-24.2,9.4-36.9,12.5c-4.4,1-8.7,1.9-13.2,2.6l-1.4,0.2l-0.6,0.1h-0.1l-2.3,0.3c-1.1,0.1-2.3,0.2-3.5,0.3h-1.1h-0.4
		c-0.6,0,0.3,0.1,0.3,0.1h-0.2c0.4,0.1,0.8,0.3,1.1,0.7c1.2,1.2,0.8,2.8,0.8,1.3c0-1.3,0.1-2.7,0.2-4c0.4-5.5,1.3-11,2.5-16.4
		c2.7-12,6.9-23.6,12.7-34.4c2.6-5,5.6-9.7,9-14.2c3.7-4.5,7.9-8.6,12.5-12.2c5.8-4.6,11.8-8.9,17-14.2c4.6-4.8,8.6-10.1,11.9-15.8
		c6.7-11.1,11.6-23.2,18.5-34.1c6.7-10.7,16.1-19.5,27.2-25.4c11.2-5.9,23.6-9.2,36-11.1c13.2-2.1,26.6-2.7,39.9-1.8
		c13.1,1.1,26.1,4.5,36.8,12.4c8.6,6.3,14.9,15.1,19.9,24.4c10.6,19.8,15.9,42.1,27.7,61.3c2.9,4.7,6.1,9.1,9.8,13.1
		c2.5,2.7,6.5-1.3,4-4c-15.4-16.9-21.7-39.9-30.5-60.5c-4.4-10.3-9.6-20.3-16.9-28.9c-8.2-9.6-19-16.6-31.1-20.1
		c-13.4-4-27.7-4.4-41.6-3.6c-13.2,0.8-26.5,2.6-39.1,6.5c-12.4,3.8-24.3,9.8-34,18.7c-9.8,9-16.2,20.9-22.2,32.7
		s-11.8,23.8-21.3,33c-5.4,5.2-11.5,9.5-17.3,14.2c-4.6,3.7-8.8,8-12.4,12.7c-7.4,9.7-12.8,21-17,32.5c-4.2,11.4-6.9,23.3-7.8,35.5
		c-0.1,2.1-0.9,5.6,1.3,6.9c0.8,0.4,1.7,0.6,2.6,0.5c2.3,0,4.7-0.2,7-0.6c9.9-1.4,19.8-3.6,29.3-6.6c13.9-4.3,27.5-9.9,40.4-16.8
		c8.8-4.6,17.4-9.6,26-14.5c19.7-11.2,39.5-22.1,60.4-30.8c24.1-10,49.5-16.8,75.6-19.1c7.1-0.6,14.2-1,21.3-1
		C289.1,836.8,289.1,831.1,285.5,831.2L285.5,831.2z"/>
	<path class="st6" d="M370.4,811c-17-23.4-58.3-27.2-80.5-9.2c-1.3,1.1-28.8-48-44-59.3c-2.8-2.1,89.7,28.5,88,29.5"/>
	<path class="st7" d="M372.9,809.6c-7.4-10.1-18.6-16.7-30.7-19.7c-12.4-3.2-25.4-2.9-37.6,1c-3,1-5.9,2.2-8.6,3.6
		c-1.3,0.7-2.6,1.4-3.8,2.2c-0.6,0.4-1.2,0.8-1.8,1.2c-0.4,0.3-2.1,1.3-2.1,1.6l-0.1,0.1l1-0.5c0.5-0.1,1-0.1,1.5,0
		c-0.1,0,0.9,0.4,0.6,0.2c0.2,0.1,0.7,0.6,0.3,0.2c-0.1-0.1-0.2-0.2-0.3-0.3L291,799c-0.3-0.4,0.2,0.3,0.2,0.2c-0.7-1-1.4-2-2.1-3
		c-5.2-7.7-10.1-15.7-15.2-23.4c-6.1-9.1-12.3-18.3-19.7-26.3c-1.4-1.5-2.8-3-4.4-4.4c-0.8-0.7-1.6-1.4-2.5-2
		c-0.3-0.3,0.6,0.5,0.5,0.4c0.9,0.9,0.3,1-0.4,2.6c-1.4,3.5,0,1.8-1.2,2.1c-0.3,0.1-0.5,0.1-0.2,0.1c-0.6,0-0.8-0.2-0.2,0l0.8,0.2
		c0.8,0.2,1.7,0.5,2.5,0.7c6.3,1.8,12.5,3.8,18.7,5.8c8.7,2.8,17.4,5.7,26.1,8.6c8.1,2.7,16.3,5.5,24.4,8.4c3,1,5.9,2.1,8.8,3.2
		c1,0.4,2.1,0.8,3.1,1.2l0.6,0.2c0.7,0.3-0.6-0.3,0,0c0.3,0.1,0.6,0.2,0.8,0.4s0.3,0.2,0.5,0.3c0.4,0.1-0.5-0.4-0.4-0.3
		s-0.5-0.6-0.4-0.5s-0.4-1.5-0.3-0.7l0.1-1.1c-0.1-0.9,0.4-1.7,1.2-2.1c-1.3,0.8-1.8,2.5-1,3.9c0.8,1.3,2.5,1.8,3.9,1
		c1.4-0.9,1.8-2.8,0.9-4.1c-0.3-0.4-0.6-0.8-1.1-1c-0.5-0.3-1-0.5-1.5-0.7c-2.3-1-4.6-1.8-6.9-2.7c-7.4-2.7-14.9-5.3-22.3-7.8
		c-9.1-3.1-18.1-6.1-27.3-9.1c-7.5-2.4-15-4.9-22.5-7.2c-2.1-0.6-4.2-1.3-6.3-1.8c-0.6-0.2-1.2-0.3-1.8-0.4
		c-1.6-0.3-3.1,0.8-3.4,2.3c-0.1,0.8,0,1.6,0.5,2.2c0.3,0.3,0.6,0.6,0.9,0.8c0.5,0.4-0.3-0.3,0,0l0.6,0.5c0.8,0.6,1.5,1.3,2.2,2
		c1.6,1.6,3.1,3.2,4.6,4.9c0.8,1,1.7,2,2.5,3c0.4,0.5,0.8,1,1.3,1.6l0.6,0.8c0,0,0.3,0.4,0.1,0.1l0.3,0.4c1.7,2.3,3.4,4.6,5.1,6.9
		c6.4,9,12.4,18.3,18.3,27.6c1.9,2.9,3.7,5.8,5.7,8.6c0.5,0.8,1.2,1.6,1.9,2.3c0.7,0.7,1.7,1,2.7,0.9c1.6-0.2,2.4-1.4,3.6-2.2
		c10.2-7,22.6-9.6,34.9-8.9c11.9,0.7,24.6,4.8,33.5,12.8c1.1,0.9,2.1,1.9,3,3c0.9,1,1.8,2.1,2.6,3.2c0.9,1.3,2.5,1.7,3.9,1
		C373.1,812.7,373.6,811,372.9,809.6L372.9,809.6z"/>
	<path class="st6" d="M357.5,799.5c-6.1-23.9-29.8-36.3-37.3-49s-18-24.6-32-29c-22.2-6.9-45.1,6.8-64.3,19.9"/>
	<path class="st7" d="M360.2,798.7c-2.8-10.9-9.4-20.1-17-28.1c-3.4-3.5-6.9-6.8-10.5-10.2c-1.5-1.5-3.1-3-4.6-4.5
		c-0.7-0.7-1.4-1.5-2-2.2l-0.9-1l-0.5-0.6l-0.3-0.4c0.2,0.3,0.2,0.3,0,0c-1.3-1.8-2.4-3.7-3.6-5.6c-1.8-2.8-3.6-5.4-5.7-8
		c-3.8-4.9-8.3-9.3-13.3-12.9c-5.1-3.7-11-6.3-17.1-7.5c-6.7-1.3-13.6-1.1-20.3,0.4c-15.4,3.3-29.2,12.1-42,20.9
		c-1.3,0.8-1.8,2.5-1,3.9c0.8,1.3,2.5,1.8,3.9,1c20-13.6,46.9-30.3,70.9-15.7c4.9,3.1,9.3,7,13,11.5c1.9,2.2,3.6,4.5,5.2,6.9
		c1.5,2.2,2.7,4.4,4.2,6.6c4.8,7.1,11.8,12.6,17.9,18.6c8.2,8.1,15.3,17.1,18.3,28.3C355.7,803.7,361.2,802.2,360.2,798.7
		L360.2,798.7z"/>
	<path class="st6" d="M506.5,895.8c-37.6,2-66.7,32.5-90.9,61.3c-23.4,27.9-46.7,57-58.7,91.3c-10.9,31.3-11.8,65.2-12.6,98.4
		c-0.1,3,0.1,6.5,2.4,8.4c1.5,1,3.2,1.6,5,1.7c28.4,3.6,57-6,82-20c43.6-24.4,78.9-61.4,101.2-106.1c6.7-13.6,12.2-27.9,14.5-42.9
		c6.4-41.4-11.8-82.2-29.6-120.1"/>
	<path class="st7" d="M506.5,893c-22.5,1.3-42.4,12.5-59.2,26.8c-17.7,15.1-32.6,33.5-47.2,51.6c-15.7,19.4-30.4,39.9-40.6,62.8
		c-10.8,24.3-15,50.4-16.7,76.8c-0.4,6.7-0.7,13.3-0.9,20c-0.1,3.3-0.2,6.7-0.3,10c-0.2,3-0.2,6.1-0.1,9.1c0.3,3,1.2,5.8,3.7,7.7
		s5.8,2,8.7,2.3c6.3,0.6,12.7,0.7,19,0.1c25.4-2.2,49.4-12.6,71-25.8c39.1-24.1,71-58.4,92-99.2c5.9-11.5,11-23.5,14.2-36.1
		c3.2-12.7,4.2-25.9,3.1-39c-2.2-26.6-11.9-51.8-22.7-76c-2.6-5.9-5.4-11.8-8.1-17.6c-0.8-1.3-2.6-1.7-3.9-0.9
		c-1.3,0.8-1.7,2.4-1,3.7c10.9,23.4,21.8,47.1,27.3,72.5c2.8,12.3,3.7,24.9,2.9,37.4c-0.9,12.6-4.3,24.9-9,36.6
		c-8.6,21-20.3,40.7-34.7,58.3c-13.8,17.2-29.9,32.4-47.8,45.4c-19.1,13.8-40.4,25.5-63.3,31.5c-11.8,3.2-24.2,4.5-36.4,3.6
		c-1.5-0.1-3.1-0.3-4.6-0.5c-1.1-0.1-2.2-0.4-3.2-1c-1.5-1.3-1.4-4-1.3-5.8c0.1-6.4,0.3-12.9,0.5-19.3c0.9-25.8,3-51.8,11.2-76.4
		c7.6-23,20.6-43.8,35.1-63.1c7.3-9.8,15.1-19.2,22.9-28.5c7.1-8.4,14.3-16.7,22-24.5c14.8-14.9,32-28.7,52.7-34.3
		c4.9-1.3,9.8-2.1,14.8-2.4C510.2,898.5,510.2,892.8,506.5,893L506.5,893z"/>
	<path class="st6" d="M587,833.9c23.1,15.9,52.1,22.4,76.4,36.3c19.5,11.2,24.3,36.8,27.1,59.2c-4.9-8.2-16-10.1-25.6-9.7
		s-19.6,2.3-28.4-1.4c-4.8-2-8.7-5.5-12.6-9c-17.6-15.6-30-54-47.6-69.7c-1.6-1.4-3.6-10.4-2.6-12.3s4.7,8.2,2.6,8.6"/>
	<path class="st7" d="M585.6,836.3c17.9,12.3,38.8,18.8,58.5,27.5c4.9,2.2,9.8,4.5,14.5,7c4,2,7.6,4.5,10.8,7.6
		c5.9,5.9,9.7,13.6,12.3,21.5c3.1,9.6,4.7,19.7,5.9,29.5l5.3-1.4c-3.4-5.5-9.2-8.8-15.5-10.1c-6.9-1.5-13.8-0.9-20.8-0.4
		c-7.4,0.5-15.2,0.8-21.8-3.1c-3.2-2-6.1-4.3-8.8-6.8c-1.9-1.7-3.7-3.6-5.4-5.6c-3.6-4.4-6.8-9.1-9.6-13.9
		c-3.3-5.4-6.3-10.9-9.4-16.4c-5.8-10.5-11.7-21.4-19.8-30.3c-0.8-0.9-1.7-1.8-2.6-2.7c-0.3-0.4-0.7-0.7-1.1-1
		c0.3,0.2,0.3,0.5,0.1,0.1c-0.1-0.2-0.2-0.5-0.3-0.7c0.2,0.5,0,0.1-0.1-0.2s-0.2-0.5-0.2-0.7c-0.2-0.6-0.4-1.2-0.5-1.9
		s-0.3-1.2-0.4-1.8l-0.2-0.8c0-0.1,0-0.3-0.1-0.4c0,0.3,0,0.2,0,0c-0.1-0.5-0.1-1.1-0.1-1.6c0-0.2,0-0.4,0-0.6c0-0.7-0.2,0.4,0-0.1
		s-0.2,0.3-0.3,0.5c-0.8,0.5-1.7,0.8-2.6,0.9c-0.3-0.1-0.5-0.2-0.8-0.4c-0.3-0.2-0.2-0.2-0.1-0.1c0.3,0.3-0.2-0.3-0.2-0.3
		c0.1,0.2,0.2,0.3,0.3,0.5c0.2,0.4,0.4,0.7,0.5,1.1c-0.2-0.5-0.1-0.2,0,0.1s0.2,0.5,0.3,0.7c0.2,0.5,0.3,0.9,0.4,1.4
		c0.1,0.2,0.1,0.4,0.2,0.6s0.1,0.9,0.1,0.2c0,0.3,0,0.7,0,1c0,0,0.2-0.8,0-0.3c0,0.2-0.1,0.1,0.1-0.1c0.4-0.5,0.7-1,1.4-1.2
		c-3.5,0.9-2,6.4,1.5,5.5c5-1.3,2.1-9.6,0.2-12.4c-0.7-1.2-1.9-2-3.2-2.1c-1.6,0.1-2.9,1.2-3.2,2.7c-0.6,2.5,0,5.5,0.6,8
		c0.5,2.3,1.2,5,2.9,6.7c1.9,2,3.9,3.8,5.7,5.9c3.8,4.8,7.3,9.9,10.3,15.3c6.8,11.6,12.8,23.7,20.3,34.8c3.2,5,7,9.6,11.4,13.6
		c3,2.8,6.3,5.4,9.8,7.6c3.7,2.2,7.8,3.5,12,4c8.1,1,16.2-0.6,24.3-0.6c6,0,12.9,1.1,17.3,5c1.1,0.9,2,2,2.8,3.3
		c0.7,1.1,2,1.6,3.2,1.3c1.2-0.3,2.1-1.5,2.1-2.7c-2.2-18-5.3-37.6-17.2-52c-6.4-7.7-15.4-12.1-24.3-16.2
		c-10.1-4.7-20.6-8.6-30.9-12.9c-11.3-4.7-22.4-9.8-32.5-16.7c-1.4-0.8-3.1-0.3-3.9,1c-0.8,1.4-0.3,3.1,1,3.9L585.6,836.3z"/>
	<path class="st6" d="M603.7,563.4c-20.5-13.3-57.1,4.6-75.3,20.9s-30.8,38.1-49,54.4c-16.4,14.7-36.6,24.2-56.8,32.8
		c-17.9,7.7-36.3,14.8-55.6,16.8s-40-1.9-55-14.2c-5.5-4.5-10.4-10.9-9.7-18c0.5-5.7,4.5-10.4,8.3-14.8l45.1-51.2
		c6.8-7.7,13.7-15.5,21.5-22.2c19.9-17,45.2-26.3,70.5-32.7c21-5.3,44.6-8.5,63,3c9.4,5.9,16.7,15.2,27,19.2
		c10.9,4.2,23.5-2.4,34.7,0.7c19.7,5.5,40.9,13.4,31.9,10.2c-4.4,1.4,5.9-5,6.2-0.4"/>
	<path class="st7" d="M605.1,561c-8-5.1-17.8-5.7-27-4.3c-10.2,1.5-20,5.4-29.1,10.2c-8.9,4.6-17.2,10.5-24.6,17.3
		c-8.9,8.3-16.5,17.8-24.1,27.3s-15.4,18.8-24.6,26.8c-9.4,8.1-20.2,14.6-31.2,20.2c-11.3,5.7-22.9,10.7-34.6,15.4
		c-12.3,4.9-24.9,9.1-38,11.1c-11.4,1.9-23,1.4-34.3-1.3C327,681,316,675.8,309,667.3c-3.4-4.2-5.2-9.5-3-14.7
		c2.3-5.5,7.3-10,11.2-14.5l28-31.8c9-10.3,17.8-20.9,27.6-30.5c8.8-8.5,18.8-15.7,29.7-21.3c10.8-5.4,22-9.8,33.6-13.2
		c11.4-3.4,23.1-6.4,35-7.6c11.3-1.1,23.2-0.5,33.6,4.5s17.5,14.3,27.5,19.8c5.1,2.8,11,4,16.8,3.6c5.8-0.4,11.6-1.7,17.4-1.5
		c2.9,0.2,5.8,0.8,8.6,1.8c3.1,0.9,6.1,1.8,9.2,2.8c5,1.6,10,3.2,14.9,4.9l4.6,1.6l1.3,0.4c0.3,0.1,1.2,0.5-0.1-0.1l2.2-5.2
		c-0.4-0.1-0.7-0.3-1.1-0.4c-0.6-0.3-1.2-0.4-1.8-0.5c-0.4,0-0.8,0.1-1.2,0.2l-0.3,0.1c0.6-0.2,1.3-0.1,1.8,0.3l1,1l0,0l0.4,1.4
		c0-0.2-1,2.3-0.6,1.7c0-0.1-0.6,0.3-0.2,0.2c0.2-0.1,0.4-0.2,0.7-0.4c0.3-0.2,0.5-0.3,0.8-0.4c-0.6,0.3,0.4-0.1,0.6-0.2
		s0.7-0.2,1-0.3s-0.7,0,0,0c0.1,0,0.3,0,0.4,0c0.5-0.1-0.4-0.1-0.1,0s-0.5-0.4-0.1-0.1c-0.6-0.5-0.7-0.7-0.7-1.1
		c0,1.6,1.3,2.8,2.8,2.8c1.6,0,2.8-1.3,2.8-2.8c-0.5-5.2-5.7-5-9.5-3.3c-1.4,0.6-3,1.5-3.4,3c-0.8,3,2.3,4.2,4.6,3.4h-1.5
		c0.7,0.3,1.4,0.6,2.1,0.8c3,0.8,5.2-3.8,2.2-5.2c-2.3-1-4.7-1.7-7-2.5c-5.1-1.7-10.2-3.4-15.3-5c-6-1.9-12.2-4.3-18.5-4.6
		c-5.9-0.3-11.8,1-17.6,1.5c-2.8,0.3-5.6,0.1-8.3-0.4c-2.7-0.7-5.2-1.8-7.6-3.3c-4.8-3-9-6.8-13.3-10.4c-4.5-3.9-9.6-7.1-15.1-9.6
		c-5.6-2.3-11.4-3.7-17.4-4.3c-12-1.2-24.1,0.7-35.8,3.3c-12.1,2.7-23.9,6.3-35.4,10.8c-11.6,4.4-22.6,10.2-32.8,17.3
		c-10.8,7.7-19.7,17.2-28.4,27c-9.5,10.8-19,21.6-28.5,32.4l-14.4,16.4c-4.2,4.7-9,9.4-11.4,15.3c-5,12.2,4.7,22.9,14.1,29.3
		c9.8,6.7,21.5,10.2,33.2,11.4c26.2,2.8,51.5-6.8,75.1-16.8c23.3-9.9,46.3-21.1,64.3-39.4c16.6-17,29-38.3,48.1-52.8
		c8.1-6.2,17.1-11.3,26.6-15.1c9.1-3.6,19.2-6.3,29-5c4,0.5,7.8,1.8,11.2,4C605.3,567.9,608.2,562.9,605.1,561L605.1,561z"/>
	<path class="st6" d="M594.9,561c-11.5-11.9-32.7-8.1-45.3-19c-8.4-7.3-10.8-19.2-17.7-27.9c-16.8-21.1-49.9-14.3-75.3-5.4
		l-105.5,36.6c-12.3,4.2-25.2,8.5-37.9,6.3c-15.8-2.7-28.5-15.1-35.7-29.4c-7.2-14.3-9.8-30.4-12.3-46.2c27.6-7,42.6-35.5,59.2-58.6
		c12-16.7,26.8-31.9,45.1-41.3s40.5-12.5,59.7-5.1c12,4.6,22.1,13,31.1,22.1c26.6,27,44.7,61.6,71.7,88.3c4.7,4.6,9.7,9.2,12.4,15.2
		c5.5,12.2,0.5,28,8.5,38.7c10.3,13.8,37,11.4,41.5,28"/>
	<path class="st7" d="M596.9,559c-8.3-8.4-20.5-9.6-31.3-12.5c-5.1-1.4-10.3-3.2-14.3-6.8c-4.6-4.1-7.2-9.8-9.9-15.2
		s-5.6-11-10-15.3c-3.9-3.8-8.5-6.8-13.6-8.7c-10.7-4.1-22.6-3.7-33.7-1.9c-12.4,1.9-24.2,6-36,10.1l-46.2,16l-46.6,16.1
		c-13.9,4.8-29.3,11.2-44.3,7.5c-11.9-3-21.5-11.7-27.9-21.9c-7.7-12.1-11-26.3-13.4-40.3c-0.6-3.6-1.2-7.2-1.8-10.8l-2,3.5
		c28.9-7.5,44.1-36.3,60.1-58.8c18.9-26.5,46.4-50.5,80.8-50.3c8.3,0,16.4,1.7,24,5c7.7,3.6,14.8,8.4,21,14.2
		c12.6,11.3,23.2,24.8,33.3,38.4c10.3,13.8,20.1,28,31.2,41.3c5.5,6.6,11.5,12.7,17.5,18.8c2.9,2.7,5.3,5.8,7.3,9.3
		c1.7,3.3,2.7,6.9,3,10.6c0.8,7.5,0.4,15.3,2.7,22.5c2,6.1,6.3,11.3,11.9,14.4c5.1,3,10.9,4.9,16.4,7c4.7,1.8,9.7,3.8,13.2,7.3
		c1.5,1.6,2.6,3.5,3.2,5.7c1,3.5,6.5,2,5.5-1.5c-3.3-11.9-16.2-15.4-26.5-19.3c-5-1.9-10.3-4.2-14.1-8.1c-5-5.2-5.6-12.6-6-19.5
		c-0.5-7.7-0.8-15.6-4.7-22.5c-4.2-7.4-11.3-13-17-19.1c-11.9-12.7-22.1-26.9-32.4-40.9s-20.6-28.1-32.8-40.7
		c-11.9-12.3-25.8-23.3-42.9-27s-35.1-0.5-50.8,7.1c-15,7.2-27.8,18.5-38.6,31.1c-10,11.8-18.1,25.1-27.2,37.5
		c-8.2,11.2-17.7,22.2-30.4,28.5c-3,1.5-6.2,2.6-9.5,3.5c-1.5,0.4-2.4,2-2,3.5c2.3,14.7,4.8,29.4,10.8,43.1
		c5.2,11.6,13.4,22.3,24.4,28.9c5.7,3.4,12,5.5,18.6,6.1c7.7,0.7,15.5-0.7,22.9-2.8c7.8-2.2,15.5-5.1,23.2-7.7l23-8l46.5-16.1
		c13.5-4.7,27-9.9,40.9-13.5c10.9-2.8,22.5-4.8,33.8-3.2c5.2,0.6,10.1,2.3,14.6,4.9c4.6,2.9,8.5,6.8,11.2,11.5
		c3.2,5.3,5.5,11.2,8.8,16.5c3.1,5.2,7.6,9.4,13,12.1c10.2,5,22.2,4.8,32.3,10c2.3,1.2,4.5,2.7,6.3,4.5
		C595.5,565.6,599.5,561.6,596.9,559L596.9,559z"/>
	<path class="st6" d="M599.6,547.7c20.1,4.2,40.5,8.5,58.8,17.7s34.7,24.2,41.1,43.7c9.7,29.7-5.1,61.7-3.6,92.9
		c0.8,16,5.4,33.8-4.1,46.7c-6.1,8.3-16.4,12-26.1,15.3c-7.3-10.3-19.1-16.3-29.7-23.2c-19.9-13-37.3-30.6-47.2-52.2
		s-11.8-47.4-2.6-69.3c4.8-11.3,12.4-21.4,16.4-33.1s3.4-26.3-6.1-34.2c-2.9-2.5-6.7-4.3-8.1-7.9s-4-9.3-1-7"/>
	<path class="st7" d="M598.8,550.4c20.1,4.2,40.7,8.4,59.1,18c15.2,7.9,28.9,19.6,36.3,35.3c8.4,17.8,5.8,38,2.8,56.8
		c-1.6,10.1-3.4,20.3-4,30.5c-0.6,9.6,0.7,19,1.4,28.6c0.6,8.4,0.8,17.6-3.5,25.2s-12.1,11.5-19.8,14.4c-2.1,0.8-4.1,1.5-6.2,2.2
		l3.2,1.3c-5.4-7.6-13-13-20.8-17.9c-7.5-4.8-15.1-9.4-22-15c-13.9-11.2-25.7-25-33.5-41.1c-8-16.8-11.1-36.5-7.2-54.9
		c0.9-4.6,2.3-9.1,4.1-13.4c2-4.4,4.2-8.7,6.6-12.9c4.6-8.2,9.5-16.6,11.4-25.9c1.6-8.1,1.3-16.8-2.5-24.2c-1.9-3.6-4.7-6.7-8-9
		c-1.6-1-3.1-2.3-4.4-3.7c-0.9-1.3-1.5-2.7-2-4.3c-0.3-0.8-0.6-1.5-0.8-2.3c-0.1-0.3-0.1-0.7-0.2-0.9s0,0.5,0,0.2
		c0-0.2-0.2,0.8-0.3,0.9l-1,1l-1.8,0.2c-0.4-0.2-0.5-0.2-0.3-0.1c0.2,0.1,0.3,0.2,0.5,0.3c1.4,0.8,3.1,0.3,3.9-1
		c0.8-1.4,0.3-3.1-1-3.9c-1.9-1.3-4.8-1.2-5.6,1.4c-0.4,1.6,0.2,3.4,0.8,4.9c0.6,1.9,1.4,3.7,2.3,5.5c1.2,1.9,2.8,3.6,4.6,4.9
		c3.2,2.4,6,4.5,8,8c1.8,3.3,2.8,6.9,3,10.6c0.6,8.8-2.2,17-6.2,24.8c-4.6,9.1-10.2,17.7-13.7,27.3c-6.8,18.8-5.9,40,0.6,58.8
		c6.2,17.9,17.6,33.8,31.5,46.6c6.9,6.3,14.4,12,22.4,17c7.7,4.9,15.9,9.4,22.4,16c1.5,1.5,3,3.2,4.2,4.9c0.7,1.1,2,1.6,3.2,1.3
		c8.7-3,17.8-6.2,24.5-12.8c6.9-6.8,9.4-16.1,9.6-25.5s-1.6-18.8-1.8-28.3c-0.3-10.3,1.1-20.6,2.7-30.8c3.2-20.3,7.5-41.8,0.6-61.9
		c-6-17.4-19.3-31.2-34.8-40.6c-17.9-11-38.7-16.1-59-20.5l-7.8-1.6c-1.5-0.4-3.1,0.5-3.5,2C596.5,548.5,597.3,550,598.8,550.4
		L598.8,550.4z"/>
	<path class="st6" d="M630.8,330.5c-12-14.9-26.5-31.1-45.6-31.4c-18.8-0.3-33.6,14.9-47.3,27.7s-32.9,24.9-50.1,17.4
		c12.7-9.4,22.9-21.8,29.8-36.1c7.3-15.3,11.4-33.4,25-43.4c13.9-10.2,35.6-7.3,46.4,6.1c3.5,4.4,5.9,9.7,9.1,14.4
		c9.9,14.5,26.7,22.5,42.6,29.9"/>
	<path class="st7" d="M632.8,328.5c-13.3-16.6-30.6-35.3-54.1-31.7c-11.1,1.7-20.7,8.4-29.1,15.4c-8.7,7.3-16.4,15.9-25.9,22.3
		c-9.9,6.6-22.8,12.2-34.6,7.2v4.9c12.5-9.3,22.8-21.3,29.9-35.3c6.2-12.3,9.5-26.5,18.1-37.5c3.8-5,8.9-8.8,14.8-10.9
		c5.7-1.8,11.8-2.1,17.6-0.7c5.9,1.3,11.3,4.2,15.5,8.6c2.5,2.8,4.6,5.8,6.3,9.1c2,3.5,4.2,6.9,6.6,10.1
		c9.3,11.7,22.9,18.9,36.1,25.1c1.7,0.8,3.3,1.6,5,2.3c1.4,0.8,3.1,0.3,3.9-1c0.8-1.4,0.3-3.1-1-3.9c-13.4-6.1-27.4-12.6-37.5-23.6
		c-5.4-5.9-8.4-13.3-13.2-19.6c-4.2-5.3-9.8-9.2-16.1-11.4c-12.7-4.6-27.3-2.2-37.4,6.9c-10.7,9.6-15,23.9-20.4,36.7
		c-5.9,14.2-15.1,26.8-26.8,36.8c-1.4,1.2-2.8,2.3-4.3,3.4c-0.9,0.5-1.4,1.5-1.4,2.5c0,1,0.5,2,1.4,2.5c5.3,2.3,11.2,3.1,17,2.4
		c5.8-0.8,11.4-2.7,16.5-5.5c10.5-5.5,18.8-13.7,27.5-21.6c7.8-7.2,16.3-14.6,26.5-18.1c4.9-1.7,10.1-2.3,15.2-1.6
		c5,0.8,9.7,2.5,14,5.2c10.4,6.2,18.4,15.8,25.9,25.1c1.1,1.1,2.9,1.1,4,0C633.9,331.4,633.9,329.6,632.8,328.5L632.8,328.5z"/>
	<path class="st5" d="M733,127.6c-26.5,116.9-136.6,202.1-159.5,319.8c-5.8,29.7-5.6,60.4-12.2,90c-11.1,49.5-40.4,92.8-70,134
		c-12.1,16.8-24.7,33.9-41.5,46s-39,18.7-58.7,12.2c-0.2,5.3-0.3,10.5-0.5,15.8l23.8-5c-22.4,46-46.5,94-88,123.9
		c-12.8,9.2-11.3,17.4-25.9,26c-5.8,3.4-18.9,5.8-29,10c14.5,9.7,34.6,5.8,48.2-9.6c25.3-28.8,58.1-50.4,79.5-82.2
		c9-13.4,19-26.4,28-39.8c17.3-25.8,41.2,14.5,47,10.9c1.4-0.9-18.7-20.9-17.7-27.7c0.1-1,10.2-11.4,11.3-11.8"/>
	<path class="st5" d="M730.3,126.9c-9.7,42.3-30.4,80.7-53.4,117.1c-23.2,36.8-49,72-70.2,110.1c-10.3,18.6-19.5,37.9-26.5,58.1
		c-8,23-11.8,46.6-14.3,70.8c-2.8,27.1-5.6,53.8-14.8,79.5c-8.6,24.1-21.1,46.6-34.9,68c-13.6,21.1-28,42.4-44.1,61.7
		c-15.8,18.9-36.7,36-62.4,37.1c-6,0.2-12.1-0.5-17.8-2.3c-1.5-0.4-3.1,0.5-3.5,2c-0.1,0.2-0.1,0.5-0.1,0.7l-0.5,15.8
		c0,1.6,1.3,2.9,2.9,2.8c0.2,0,0.5,0,0.7-0.1l23.8-5l-3.2-4.2c-12.9,26.5-26,53.1-43.1,77.2c-8.4,12.1-18,23.2-28.8,33.3
		c-5.3,4.9-11.1,9.2-16.8,13.7c-5,3.9-8.5,8.7-12.2,13.7c-4.3,6.1-10.3,10.7-17.2,13.2c-7.7,2.7-15.6,4.4-23.2,7.5
		c-1.5,0.5-2.4,2.1-1.9,3.6c0.2,0.7,0.6,1.2,1.2,1.6c9.9,6.3,22.3,7.4,33.2,3c13.1-5.2,21.1-16.6,30.8-26.2
		c20.7-20.5,44.1-38.5,61.9-61.8c4.8-6.3,9-12.9,13.6-19.3c5-7,10.1-14,15.1-21c5.6-7.9,10.8-17.8,21.9-13.2c7.2,3,12.7,9,18.5,13.9
		c2,1.7,4.2,3.8,6.8,4.4s5.7-0.8,5.1-3.9c-0.6-2.9-3.8-5.7-5.6-7.8c-3.3-3.8-6.3-7.8-9.2-12c-1.2-1.8-1.8-3.7-2.8-5.5
		c-0.5-0.8,0.2-1.1-0.2-0.4c0.4-0.5,0.8-1.1,1.3-1.5c1.7-1.9,3.4-3.7,5.2-5.5c1-1,2.2-2.6,3.5-3.2c3.3-1.6,0.4-6.5-2.9-4.9
		c-2.8,1.3-5.3,4.7-7.4,6.9c-1.9,2-5.2,4.6-5.3,7.7c-0.2,3.3,2,6.7,3.8,9.4c2.4,3.6,5.1,7.2,7.9,10.5c1.3,1.6,2.6,3.2,3.9,4.8
		c0.7,1.1,1.5,2.1,2.3,3.1c0.5,0.4,2.1-2,1.8-3c-0.1-0.2,0.5,0.4-0.1-0.1s-2-1.3-2.8-1.9c-5.9-4.7-11-10.3-17.7-14.1
		c-6.8-3.9-14.8-5.3-21.5-0.4c-4.7,3.4-7.6,8.8-10.9,13.5c-4.8,6.9-9.8,13.6-14.6,20.4c-8.9,12.4-17.2,24.8-27.8,36
		c-10,10.6-21,20.3-31.7,30.2c-6,5.5-12,11.1-17.8,16.9c-5.6,5.6-10.5,12.2-16.7,17.1c-11.1,8.8-26.4,11.3-38.7,3.4l-0.7,5.2
		c13.1-5.2,27.8-6.5,38.3-16.7c4.2-4.1,7-9.3,10.9-13.6c4.9-5.6,11.6-9.5,17.2-14.3c22.8-19.4,40-44.5,54.6-70.4
		c8.5-15.1,16.1-30.6,23.7-46.1c0.8-1.4,0.2-3.2-1.2-3.9c-0.6-0.3-1.4-0.4-2-0.3l-23.8,5l3.6,2.7l0.5-15.8l-3.6,2.8
		c23.3,7.3,47.9-1.8,66.2-16.6c19.6-15.9,33.9-37.9,48.2-58.4c14.8-21.2,29-43,40.3-66.3c11.5-23.6,19.2-48.9,22.8-74.9
		c3.7-27,4.6-54.3,11.3-80.8c5.3-21.3,13.5-41.7,23.3-61.3c19.9-39.7,46-75.9,70.2-113.1c23.8-36.5,46.4-74.5,58.8-116.6
		c1.6-5.3,3-10.7,4.2-16C736.6,124.8,731.1,123.3,730.3,126.9z"/>
	<path class="st5" d="M733,127.6c-0.7,2.1,30.3-3.9,29.6-1.8c-18.7,58.4-45.9,113.7-80.7,164.2c-28.4,41.2-62.3,80-77.7,127.6
		c-14.1,43.5-11.4,90.5-19,135.5c-13.4,79.1-60.4,151.8-126.9,196.7c24.7,15.2,54.3,20,80.7,32c24.8,11.2,50.4,75.7,44.9,49.7
		c-13.5-64-107.7-84.3-122.2-84.1"/>
	<path class="st5" d="M730.2,127.6c-0.5,5.3,10.2,2.9,12.7,2.6c3.6-0.4,7.3-0.9,10.9-1.4c1.4-0.2,2.8-0.3,4.3-0.5
		c0.7-0.1,2.8,0.2,3.4-0.1c-0.1,0-1.6-2.1-2-2c-0.6,0.3-1.3,4.1-1.6,4.8c-1.1,3.4-2.3,6.8-3.5,10.2c-2.2,6.4-4.6,12.7-7,19
		c-5,12.9-10.5,25.7-16.4,38.3c-11.5,24.5-24.5,48.2-39,71c-14,22-29.8,42.8-45,64c-14.9,20.9-29.2,42.6-39.2,66.3
		c-10.7,25.2-15.2,51.9-17.8,79c-2.7,27.4-3.7,55-9.2,82.1c-4.7,23.2-12.2,45.7-22.3,67c-20.1,42.8-50.1,80.2-87.5,109.1
		c-4.6,3.5-9.3,7-14.2,10.2c-1.4,0.8-1.8,2.6-0.9,4c0.2,0.4,0.6,0.7,0.9,0.9c16.3,9.9,34.6,15.6,52.7,21.5
		c13.6,4.5,28.6,8.2,39,18.5c8.2,8.2,14.7,18.1,20.8,27.9c2.5,4,4.9,8,7.3,12c1.4,2.3,2.8,5,4.8,6.9s5.2,1.7,6-1.3
		s-0.7-7.4-1.4-10.2c-3.1-11.7-8.8-22.5-16.7-31.7c-15-18-36.1-30.1-57.6-38.7c-10.1-4-20.4-7.3-31-9.8c-6.1-1.4-12.6-3-19-2.9
		c-3.7,0-3.7,5.7,0,5.7c4.9,0,9.6,1,14.5,2c8.4,1.8,16.7,4.1,24.9,7c20.2,7,40,17.1,55.7,31.8c8.3,7.6,15,16.8,19.7,27
		c2.2,5,3.8,10.1,4.8,15.5c0.2,0.9,0,2.4,0.4,3.1c0.2,0.4-0.2-0.2,0-0.1l0.1-0.2c0.4-1,1.4-1.5,2.9-1.4c0.8-0.3,0.9,1.1,0.3,0
		c-0.9-1.8-3.1-4.6-4.5-6.8c-2.4-4-4.8-7.9-7.3-11.8c-5.8-9.2-11.9-18.4-19.4-26.4c-3.5-3.9-7.5-7.2-12-9.8
		c-8.2-4.4-17.5-7.3-26.3-10.2c-19.1-6.4-38.6-12-56-22.5v4.9c59.1-40.3,102.2-100.1,121.7-169c7.1-25.3,9.9-51.4,12-77.5
		c2.3-28.3,4.3-56.9,12.6-84.2c7.6-25.1,20.8-48,35.3-69.6s30.8-42.4,45.6-64c15.5-22.9,29.5-46.8,41.9-71.5
		c12.2-24.4,22.8-49.5,31.8-75.3c1-3,2-6,3-9c0.7-2,2.4-5,1.7-7.1c-0.7-2.5-3.6-2.4-5.7-2.3c-6.7,0.3-13.3,1.6-19.9,2.3
		c-1.3,0.1-2.7,0.3-4,0.3c-0.4-0.1-0.9-0.1-1.3,0c-0.1,0-0.6,0.2-0.3,0c-0.1,0.1,2-0.9,1.7,2.4C736.1,124.1,730.4,124.1,730.2,127.6
		L730.2,127.6z"/>
	<path class="st5" d="M713.5,241c-0.1,0.9,17.2-33.2,17-32.3c-2,18.3-8.3,35.8-10.3,54c-1.5,13.4,1.3,27.6,3.3,40.9
		c1.7,11.6,6.4,23.2,14.7,31.4c1.2,1.2-15.7-0.8-14.4,0.3"/>
	<path class="st5" d="M710.7,241c0,1.6,1.3,2.9,2.9,2.8c0.5,0,1-0.1,1.4-0.4c0.5-0.3,0.9-0.7,1.2-1.2c0.4-0.6,0.7-1.1,1-1.7
		c1.3-2.4,2.6-4.9,3.8-7.3c3.2-6.1,6.3-12.3,9.6-18.4c0.6-1.1,1.2-2.2,1.7-3.3l0.6-1c0-0.1,0.1-0.2,0.2-0.3s0.1-0.1,0.1-0.1
		c-0.2,0.4-0.6,0.7-1,1l-2.2,0.3l0,0l-2-2c-0.4-1.2-0.1-0.7-0.2,0c0,0.4-0.1,0.8-0.1,1.2c-0.1,0.6-0.2,1.2-0.3,1.8
		c-0.2,1.6-0.5,3.3-0.8,4.9c-0.5,3-1.1,5.9-1.8,8.8c-1.3,6-2.8,12-4.1,18c-1.3,5.9-2.4,12-3.1,18c-0.6,6-0.6,12.1,0,18.1
		c0.6,6.2,1.5,12.4,2.5,18.5c0.7,5.5,1.8,10.8,3.3,16.1c1.6,5.1,3.9,10,6.9,14.5c1.5,2.3,3.2,4.4,5.1,6.5c0.2,0.3,0.5,0.5,0.7,0.7
		c1.7,1.4-4.1-1.2,0.8-4c0.3-0.2,0.7-0.4,1-0.3c-0.4,0-0.9,0-1.3,0.1c-3,0-6-0.3-9-0.4c-1.1-0.1-2.2-0.1-3.2,0
		c-1.1,0-2.2,0.6-2.8,1.5c-0.8,1.4-0.3,3.2,1.1,4c1.1,0.6,2.5,0.5,3.5-0.4c1.1-1.1,1.1-2.9,0-4c-0.4-0.3-0.2,0.1,0.7,1.2v1.6
		c-0.3,1.4-2.8,2.1-1.7,1.8c-0.2,0-0.9,0.1-0.4,0.1h1c0.9,0,1.9,0,2.8,0.1c2.2,0.1,4.4,0.3,6.7,0.3c1.8,0.1,4.2,0.3,5.5-1.3
		c1.5-1.9,0-3.5-1.3-4.9c-1.4-1.4-2.6-3-3.8-4.6c-4.6-6.9-7.7-14.7-9-22.9c-1.7-9.1-2.9-18.4-3.7-27.6c-0.3-4.7-0.3-9.4,0.2-14.1
		c0.5-4.7,1.3-9.4,2.3-14c1.9-9.5,4.4-18.8,6.2-28.3c0.4-2.3,0.8-4.7,1.2-7c0.2-1.3,0.3-2.5,0.5-3.8s0-2.6-1.3-3.4
		c-2.1-1.2-3.6,0.4-4.5,2c-1.7,3.1-3.3,6.2-4.9,9.3c-3.7,7.2-7.2,14.5-11.2,21.5c-0.1,0.1-0.1,0.2-0.2,0.3c0,0-0.1,0.1-0.1,0.1
		c0.2-0.4,0.6-0.7,1-1l2.2-0.3l0,0l2,2l0.1,0.7C716.5,237.4,710.8,237.4,710.7,241L710.7,241z"/>
	<path class="st5" d="M717.3,235.7l-4.6,48.2c-2,21.5,6.4,33.2,13.3,57.3"/>
	<path class="st5" d="M714.4,235.7c-1.6,16.3-3.3,32.7-4.7,49.1c-0.5,6.2-0.1,12.4,1.1,18.5c1.3,5.7,2.9,11.2,5,16.6
		c2.6,7.3,5.3,14.6,7.4,22.1c1,3.5,6.5,2,5.5-1.5c-1.9-6.8-4.2-13.4-6.6-20c-2.1-5.5-3.8-11.1-5.3-16.7c-1.3-5.6-1.8-11.3-1.5-17
		c0.4-7.9,1.4-15.8,2.2-23.7l2.6-27.3c0-1.6-1.3-2.8-2.8-2.9C715.8,232.9,714.5,234.1,714.4,235.7L714.4,235.7z"/>
	<path class="st6" d="M835.6,218.7c1,0.3-14.1-31-14.5-31.9"/>
	<path class="st7" d="M835.6,221.5c2.2,0.3,3.2-2.3,2.7-4c-0.2-0.7-0.4-1.3-0.7-1.9c-1.1-2.6-2.3-5.2-3.5-7.8
		c-2.7-6-5.5-11.9-8.4-17.8c-0.7-1.6-1.5-3.1-2.3-4.7c-1.7-3.3-6.6-0.4-4.9,2.9c1.8,3.5,3.4,7.1,5.1,10.7c2.6,5.5,5.2,11,7.7,16.6
		c0.1,0.3,0.3,0.6,0.4,0.9s0.4,1,0.2,0.5s0.1,0.3,0.2,0.4l0.2,0.6c0.1,0.3,0.2,0.6,0.3,0.9c0,0.1,0.1,0.2,0.1,0.3
		c-0.1-0.7,0-1.4,0.3-2l1-1l1.4-0.4c-1.5-0.2-2.8,1.4-2.8,2.8C832.8,220.2,834,221.5,835.6,221.5L835.6,221.5z"/>
	<path class="st6" d="M751.2,329.3c27.9-4,10.8-23.1,23-48.5c3.3-6.8-0.5-21.5,9.2-50.3c5.7-16.8,13-24.4,31.5-44.7
		c11.5-0.7,23.2-1.4,34.4,1.2s22.2,8.7,27.8,18.8c6,10.7,5.2,24,10.7,34.9c3.8,7.6,10.5,13.5,13.7,21.4c5.7,13.8-1.2,30.3-12.5,40
		c-11.3,9.7-26.3,13.9-40.8,17.2C816.5,326.3,783.9,329.7,751.2,329.3"/>
	<path class="st7" d="M752,332c5.2-0.8,10.8-2.2,14.6-6.1c3.1-3.2,4.2-7.3,4.8-11.6c0.6-4.7,0.4-9.4,0.8-14.1
		c0.2-2.6,0.5-5.2,1.1-7.8c0.6-3,1.5-5.8,2.7-8.6c0.8-1.7,1.5-3.4,2-5.2c0.3-1.7,0.6-3.5,0.7-5.2c0.4-4.5,0.6-9.1,1.1-13.6
		c0.8-6.6,2-13.2,3.8-19.6c1.6-6.4,3.9-12.6,6.7-18.6c5.6-11.1,14-19.7,22.4-28.9l4.5-4.9l-2,0.8c19.2-1.1,42.5-2.3,56.5,13.7
		c6.4,7.3,7.6,17.1,9.6,26.2c1,4.9,2.6,9.7,4.9,14.2c2.3,4.4,5.6,8.2,8.4,12.2c2.6,3.7,4.9,7.6,6,12c0.9,4,0.8,8.2-0.2,12.2
		c-2.1,8.5-7,16.1-13.9,21.5c-7.5,6.1-16.7,9.8-26,12.5c-10.5,2.9-21.1,5.2-31.8,7c-22.7,4-45.7,6-68.8,6.2c-2.8,0-5.7,0-8.5,0
		c-3.7,0-3.7,5.7,0,5.7c21.2,0.2,42.4-1.1,63.4-4c10.5-1.4,20.9-3.2,31.2-5.5c9-1.9,18-4,26.5-7.5c8.3-3.4,16.4-8,22.6-14.6
		c5.8-6.1,9.6-13.7,11.2-21.9c1.6-8.5-0.3-17.4-5.4-24.4c-2.5-3.7-5.3-7.1-7.8-10.9c-2.4-3.7-4.2-7.7-5.3-12
		c-2.4-8.8-3.2-18.1-7.4-26.3c-3.9-7.5-10.8-13.2-18.4-16.8c-8.7-4.1-18.2-5.6-27.7-5.8c-5.2-0.1-10.4,0.1-15.6,0.4
		c-1.4,0-2.8,0.1-4.1,0.3c-1.3,0.4-2.3,1.9-3.2,2.9l-5,5.5c-5.2,5.5-10.2,11.4-14.8,17.4c-3.7,5.1-6.7,10.6-9,16.4
		c-5.6,14.1-8.2,29-9.2,44c-0.1,2.1-0.3,4.2-0.5,6.3c-0.1,0.6,0.1-0.5,0,0c0,0.2-0.1,0.4-0.1,0.6c-0.1,0.4-0.2,0.8-0.3,1.3
		s-0.2,0.7-0.3,1.1l-0.2,0.4c0,0.1-0.1,0.2-0.1,0.2c-0.1,0.5,0.3-0.6,0.1-0.2c-3.4,6.2-4.8,13.5-5.4,20.5c-0.3,2.9-0.3,5.8-0.4,8.6
		c0,1.3-0.1,2.5-0.2,3.8c0,0.6-0.1,1.2-0.2,1.8c0,0.3-0.1,0.6-0.1,0.9c0.1-0.7,0,0.2-0.1,0.4c-0.2,1.1-0.4,2.2-0.8,3.2
		c-0.1,0.2-0.2,0.4-0.2,0.6c-0.1,0.4,0.2-0.5,0.1-0.2c0,0.1-0.1,0.2-0.2,0.3c-0.2,0.5-0.5,1-0.8,1.4c-0.1,0.2-0.3,0.4-0.4,0.6
		c0.4-0.5,0,0-0.2,0.2c-0.4,0.4-0.7,0.8-1.1,1.1c-0.2,0.2-0.8,0.6-0.2,0.2l-0.7,0.5c-0.6,0.4-1.1,0.7-1.7,1l-0.8,0.4
		c0.5-0.2-0.4,0.1-0.5,0.2c-0.7,0.3-1.4,0.5-2.2,0.7c-1.7,0.5-3.5,0.8-5.3,1.1c-1.5,0.2-2.4,2.2-2,3.5
		C748.9,331.6,750.4,332.5,752,332L752,332z"/>
	<path class="st6" d="M736,331.5c21.2,0.9,42.3,2.9,63.3,6c22.3,3.3,47.9,10.5,56.5,31.3c6.5,15.7,0.8,34.2,6.4,50.3
		c2.9,8.2,8.5,15.1,12.8,22.6c18.5,32.5,11.4,73.2,0.3,108.9c-3.3,10.5-7,21.3-14.6,29.3s-19.7,12.7-29.8,8.4
		c-15.5-6.7-16.6-27.7-17.6-44.6c-2.2-38.4-16-75.3-39.5-105.8c-18.1-23.3-42-43.1-52.7-70.6c-4.6-11.8-6.1-26.1,1.5-36.2
		s26.8-10.3,30.9,1.7"/>
	<path class="st7" d="M736,334.3c14.4,0.6,28.8,1.7,43.1,3.3c11.9,1.4,24,2.8,35.7,5.7c9.6,2.4,19.1,5.8,27,11.9
		c8.1,6.1,13.2,15.3,14.1,25.4c1.5,12.6-0.6,25.6,3.2,37.9c2,6.3,5.4,11.8,9,17.3c3.4,5,6.3,10.2,8.7,15.7
		c9.3,22.3,7.9,47.4,3.2,70.5c-2.5,12-5.8,23.9-9.9,35.5c-3.8,10.7-9.4,21.5-20,26.8c-4.5,2.4-9.6,3.2-14.6,2.3
		c-4.3-0.9-8.2-3.3-10.9-6.8c-5.4-6.7-6.9-16.9-7.7-25.6c-0.5-5.2-0.6-10.5-1.1-15.7c-0.5-6.3-1.4-12.6-2.5-18.8
		c-2.2-12.2-5.6-24.2-10.2-35.8c-4.6-11.7-10.3-22.9-17-33.5c-6.7-10.2-14.1-19.9-22.3-29c-15.2-17.2-32.5-34.4-40.4-56.4
		c-3.6-10-5.3-22.3,1-31.6c1.1-1.5,2.3-2.8,3.8-3.8c1.5-1.1,3.3-1.9,5.1-2.4c1-0.3,2-0.5,3-0.7c0.5-0.1-0.7,0.1,0.2,0l0.7-0.1
		c0.6,0,1.1,0,1.7,0s0.9,0,1.4,0.1l0.7,0.1c0.9,0.1-0.5-0.1,0.3,0c1,0.2,2,0.4,2.9,0.8l0.5,0.2c0.8,0.3-0.5-0.2,0.3,0.1
		c0.4,0.2,0.8,0.4,1.2,0.6s0.8,0.5,1.1,0.7c0.7,0.5-0.2-0.2,0.2,0.1c0.2,0.1,0.3,0.3,0.5,0.4c0.3,0.3,0.6,0.6,0.9,0.9
		c0,0,0.6,0.7,0.2,0.3c0.1,0.1,0.2,0.3,0.3,0.4c0.3,0.4,0.5,0.8,0.7,1.2c0.1,0.3,0.3,0.5,0.4,0.8c-0.2-0.5,0.1,0.3,0.1,0.4
		c0.4,1.5,2,2.4,3.5,2c1.5-0.4,2.4-2,2-3.5c-3.3-9.2-13.2-12.4-22.2-10.7c-4.5,0.8-8.6,2.9-11.9,6.1c-4,4-6.3,9.6-7.2,15.1
		c-1.9,12.3,2.3,24.5,7.8,35.3s13.2,20.6,21.1,29.9s16.3,18,24,27.4c24.4,29.8,39.2,66.3,42.3,104.7c0.8,10.5,0.8,21.2,3.8,31.3
		c2.8,9.5,8.9,18.3,19,21c11.7,3,24.1-3.1,31.4-12c8.2-10,11.9-22.7,15.5-34.8c7.1-24.3,12-50.2,7.8-75.4c-2-12.3-6.6-24-13.3-34.5
		c-3.5-5.4-7.3-10.8-9.4-17s-2.6-12.5-2.7-18.9c-0.3-12.6,0.3-25.8-6.5-37c-5.3-8.9-14-15.1-23.4-19.2c-9.8-4.3-20.2-6.7-30.7-8.3
		c-14.5-2.3-29.1-3.9-43.8-5c-7.3-0.6-14.5-1-21.8-1.3C732.4,328.4,732.4,334.1,736,334.3L736,334.3z"/>
	<path class="st6" d="M718.1,340.2l45.5,61c11.2,15,22.5,30.3,29.3,47.8c4.6,11.8,6.9,24.2,9.3,36.6c2.8,14.6,3.8,24.7,11.9,43.7"/>
	<path class="st7" d="M715.6,341.6l28.2,37.9c9,12,18.1,24,26.8,36.2c8.1,11.4,15.7,23.4,20.4,36.7s7.1,27,9.5,40.6
		c1,5.7,2.1,11.3,3.6,16.9c2,7.1,4.4,14,7.4,20.8c0.6,1.4,2.7,1.7,3.9,1c1.3-0.8,1.8-2.5,1-3.9c-4.5-10.7-7.9-22-9.9-33.4
		c-2.4-13.2-4.6-26.6-8.7-39.5c-4.4-13.7-11.4-26.2-19.5-38c-8.4-12.3-17.5-24-26.4-35.9l-31.5-42.3c-0.8-1.3-2.5-1.7-3.9-1
		C715.3,338.5,714.8,340.3,715.6,341.6L715.6,341.6z"/>
	<path class="st6" d="M722.6,132.8l-82.3,44.6c-25.7,14-52.2,28.2-81.2,31.9c-29.3,3.8-60.7-3.1-87.5,9.3c3.1-17,17-31.5,33.8-35.4
		c5.6-1.3,11.5-1.6,16.5-4.3c9.8-5.3,12.7-17.6,17.4-27.7c9.2-19.1,27.2-32.4,48.1-35.7c28.8-4.2,58.1,11.6,86.6,5.6
		c10.5-2.2,20.7-7.3,31.4-6.4s21.4,12.5,16.1,21.8"/>
	<path class="st7" d="M721.2,130.4L671,157.6c-16.1,8.7-32.1,17.6-48.3,26.1c-15.2,7.9-30.8,15.2-47.3,19.6
		c-8,2.1-16.3,3.5-24.6,4.1c-8.4,0.6-16.9,0.5-25.3,0.5c-16.6,0-33.7,0.1-49.5,5.9c-2,0.7-4,1.5-5.9,2.4l4.2,3.2
		c1.8-9,6.4-17.3,13.2-23.5c3.4-3.1,7.2-5.6,11.4-7.5c4.5-2,9.3-2.8,14.2-3.7c5.3-1,10.3-2.6,14.5-6.3c3.4-3.2,6.1-7.1,8-11.3
		c2-4.3,3.7-8.8,5.6-13c1.9-4.4,4.4-8.5,7.3-12.3c5.8-7.5,13.2-13.5,21.7-17.7c9-4.4,19-6.6,29.1-6.3c22.7,0.4,44.7,9.5,67.5,7.4
		c5.8-0.6,11.6-1.8,17.1-3.6c5.4-1.6,11-3.5,16.7-3.9c4.9-0.3,9.1,0.5,13.2,3.4c1.6,1.2,3.1,2.6,4.2,4.2c0.5,0.7,1,1.5,1.3,2.4
		c0.2,0.4,0.3,0.9,0.5,1.4c0.1,0.3,0.1,0.5,0.2,0.8c0,0.1,0.2,0.9,0.1,0.5c0.3,1.7-0.1,3.5-0.9,5c-1.8,3.2,3.2,6.1,4.9,2.9
		c5.1-9.3-1.9-19.6-10.4-23.8c-11.1-5.4-23.3-0.5-34.3,2.6c-5.6,1.6-11.3,2.5-17.1,2.7c-5.7,0.1-11.4-0.3-17.1-1.1
		c-11.9-1.7-23.6-4.5-35.5-5.9c-11.1-1.3-22.5-1-33.1,2.5c-9.7,3.2-18.6,8.6-26,15.7c-3.7,3.5-6.9,7.5-9.7,11.8
		c-2.7,4.3-4.9,8.8-6.7,13.5c-3.3,8.1-6.9,18-15.7,21.3c-5.2,1.9-10.9,2.1-16.3,3.7c-4.7,1.4-9.2,3.6-13.3,6.4
		c-8.3,5.8-14.6,13.9-18.1,23.3c-0.8,2.3-1.5,4.6-1.9,7c-0.4,1.5,0.6,3.1,2.1,3.5c0.7,0.2,1.4,0.1,2.1-0.3c15-6.8,31.8-7.5,48-7.5
		c17-0.1,33.9,0.2,50.6-3.5c16.9-3.8,32.9-10.8,48.3-18.5c16.2-8.1,32-17,47.9-25.7l50.2-27.2l6.2-3.3
		C727.2,133.6,724.4,128.7,721.2,130.4L721.2,130.4z"/>
	<path class="st6" d="M741.5,44.8c22.4,23.9,9.1,40.6-2.7,70.4s-42.5,52.4-76.3,55.8s-137-6.2-115.3-30.1
		c67.9-74.5,87.9-50.2,133.2-63.3C710.5,68.9,733.4,54.9,741.5,44.8"/>
	<path class="st7" d="M739.5,46.8c3.7,4,7.3,8.8,9.2,13.6c0.9,2.2,1.5,4.5,1.8,6.9c-0.1-0.5,0,0,0,0.1c0,0.3,0.1,0.6,0.1,0.9
		c0,0.6,0.1,1.1,0.1,1.7c0,1.1,0,2.3-0.1,3.4c-0.1,1.2-0.2,1.8-0.3,2.7c-0.2,1.2-0.4,2.3-0.7,3.5c-0.6,2.5-1.3,4.9-2.2,7.3
		c-1.9,5.2-4.1,10.1-6.3,15.2c-2.4,5.5-4.5,11.2-7,16.5c-2.4,5.1-5.4,9.8-8.8,14.3c-6.9,8.9-15.4,16.4-25,22.2
		c-9.8,6-20.7,10.1-32,12.1c-6.9,1.1-13.9,1.6-20.9,1.5c-16.4,0-32.8-1-49-3.2l-0.8-0.1c-0.9-0.1,0.6,0.1-0.3,0l-1.5-0.2l-3.4-0.5
		c-2-0.3-4.1-0.6-6.1-1c-3.9-0.7-7.8-1.5-11.7-2.4c-3.5-0.8-7-1.7-10.4-2.8c-1.5-0.5-3-1-4.5-1.5c-0.7-0.3-1.3-0.5-2-0.8
		c-0.2-0.1-0.8-0.3,0,0l-0.5-0.2c-0.4-0.1-0.7-0.3-1.1-0.5c-1.2-0.5-2.4-1.1-3.5-1.8c-0.5-0.3-1-0.6-1.4-0.9l-0.7-0.5
		c-0.2-0.1-1-0.8-0.2-0.1c-0.8-0.6-1.5-1.3-2.2-2.1c-0.1-0.1-0.1-0.1-0.2-0.2c-0.3-0.3,0,0.2,0.2,0.3c-0.1-0.1-0.3-0.4-0.4-0.5
		c-0.2-0.4-0.4-0.8-0.6-1.1s0.2,0.7,0.1,0.3c0-0.1-0.1-0.2-0.1-0.3s-0.1-0.3-0.2-0.5s-0.1-0.4-0.1-0.6c-0.2-0.4,0,0.8,0,0.4
		c0-0.1,0-0.2,0-0.4s0-0.4,0-0.5s0-0.2,0-0.3c0-0.5,0.2,0.3-0.1,0.4c0.1-0.4,0.2-0.8,0.3-1.2c0.2-0.5,0.2-0.4,0,0
		c0.1-0.2,0.2-0.4,0.3-0.6c0.2-0.5,0.5-0.9,0.8-1.3c0.1-0.1,0.2-0.2,0.2-0.3c0.3-0.4-0.5,0.5-0.1,0.1c0.2-0.2,0.4-0.5,0.6-0.7
		c1.2-1.4,2.5-2.7,3.8-4.1c8.6-9.4,17.8-18.2,27.5-26.4c6.9-5.9,14.4-11.1,22.3-15.5c1.6-0.9,3.3-1.7,5-2.5c0.8-0.4,1.7-0.8,2.5-1.1
		l1-0.5c-0.7,0.3,0,0,0.2-0.1l0.8-0.3c3-1.2,6.1-2.3,9.3-3.1c2.8-0.8,5.7-1.4,8.6-1.9c0.7-0.1,1.5-0.3,2.2-0.4l0.9-0.1l0.6-0.1
		c0.8-0.1-0.4,0,0.2,0c1.4-0.2,2.8-0.3,4.2-0.5c12.2-1.3,24.4-1.6,36.3-4.3c11.4-2.7,22.6-6.5,33.2-11.4
		c10.1-4.3,19.6-9.9,28.4-16.6c2.8-2.2,5.4-4.6,7.7-7.3c1-1.1,1-2.9,0-4c-1.1-1.1-2.9-1.1-4,0c-2.5,2.9-5.2,5.6-8.3,7.8l-0.3,0.3
		l-0.7,0.5l-1.4,1c-1,0.7-2,1.4-3.1,2.1c-2.3,1.5-4.6,2.9-6.9,4.2c-11.4,6.4-23.5,11.5-36,15.2c-4,1.2-8,2.3-12,3.1
		c-1.6,0.3-3.3,0.6-4.9,0.9l-2.2,0.3l-1.2,0.2c-0.7,0.1,0.7-0.1,0,0l-0.8,0.1c-5.9,0.7-11.8,1.1-17.8,1.6c-6,0.4-12,1.2-17.9,2.3
		c-6.6,1.4-13.1,3.4-19.3,6.3c-18.3,8.2-33.9,22-48,36c-2.5,2.6-5.1,5.1-7.5,7.8c-2.2,2.3-4.5,4.6-6.5,7.1c-1.7,1.9-2.8,4.3-3.2,6.8
		c-0.5,4.7,2.8,8.3,6.3,10.9c4.8,3.4,10.6,5.5,16.2,7.2c7.5,2.2,15.2,3.9,23,5.2c17.1,2.8,34.5,4.4,51.8,4.8
		c6.8,0.2,13.7,0.2,20.6-0.3c10.8-0.7,21.4-3.3,31.3-7.5c21.4-9.1,40.1-25.9,49.6-47.4c2.5-5.8,4.8-11.6,7.4-17.4
		c2.2-5.1,4.4-10.2,6.2-15.5c1.6-4.7,2.6-9.6,2.8-14.6c0.1-5.1-0.9-10.1-3-14.7c-2.5-5.3-5.8-10.1-9.9-14.3
		C741.1,40.1,737.1,44.1,739.5,46.8L739.5,46.8z"/>
	<path class="st5" d="M685.2,576c-5,12.3-3.2,26.1,0.7,38.8c8.9,29.3,33.3,58.5,66.2,59.2c34.5,0.7,61.8-33.7,58.1-65.5
		c-3.2-27.7-27.4-52.8-57.1-56.6s-61.5,16.3-66.2,43.8c-2.8,16.5,3.3,33,10.7,48.2c4,8.2,8.7,16.6,16.8,21.7
		c9.1,5.8,20.9,6.3,31.8,5.2c24.7-2.5,49.1-13.1,64.3-31.4s19.5-44.7,7.9-65.1s-56.5-26.3-79.5-17.6c-9.5-23.9-5.7-44.6-34.5-61.2
		c-5.6-3.3-13.1-0.4-19.4-1.7c-15.2-3.1-25.6-15.5-34.8-27.2c-10.8-13.8-21.8-27.8-28.1-43.8c-5.3-13.4-7.1-28.6-2.7-42.1
		c0.6-1.9-4.5,24.2-15.2,29.2s17.3,54.6,54.3,85.9c12.3,10.4,35.5,10.1,45.5,16.4c8.2,5.1,21.5,29.4,21.8,42.6"/>
	<path class="st5" d="M682.4,575.3c-5.7,14.2-2.9,30.4,2,44.4c4.2,12,10.6,23,18.9,32.6c8.2,9.4,18.4,17,30.2,21.2
		c11.7,4.2,24.5,4.5,36.4,0.7c22.4-7.4,39.6-28.5,42.8-51.8c3.4-24.7-10.3-48.9-30.6-62.4c-10.6-7.1-23-11.1-35.8-11.3
		c-12.5,0-24.7,3.4-35.4,9.8c-10.1,6.1-18.9,15-23.7,25.9c-6,13.7-4.6,28.8,0,42.7c2.5,7.4,5.7,14.7,9.3,21.6
		c3.1,6.1,6.9,12,12.2,16.5c11.3,9.6,27,10,41,8.1c26.9-3.6,54.8-16.7,68.9-41c6.6-11.4,10-25.1,8.6-38.3
		c-1.2-11.2-5.4-22.8-14.4-29.9c-8.2-6.5-18.4-10-28.5-12c-10.8-2.2-21.8-2.6-32.7-1.3c-4.7,0.6-9.3,1.6-13.8,3.2l3.5,2
		c-4.5-11.4-6.1-23.7-10.7-35.1c-2.3-5.8-5.6-11.2-9.8-15.9c-2.4-2.6-5.1-5-8-7.2c-3.2-2.4-6.8-5.2-10.7-6.2s-8.2-0.5-12.3-0.4
		c-3.7,0-7.4-0.7-10.9-2.2c-6.8-2.8-12.6-7.8-17.6-13.2c-5.4-5.8-10.2-12.2-15-18.4c-5.4-6.9-10.5-14.2-15-21.7
		c-8.7-14.8-14.6-32.3-10.8-49.5c0.2-1,0.5-2,0.8-3c0.2-0.5,0.3-1,0.5-1.5c0.2-0.8-0.4,0.8-0.6,0.9l-3.5,0.5l0,0l-1.3-1.7
		c-0.3-1.3-0.1-0.3-0.1-1s0-0.3,0-0.1s-0.1,0.7-0.2,1c-0.2,1.1-0.5,2.2-0.8,3.2c-0.8,3.1-1.9,6.2-3.1,9.3c-1.3,3.3-3,6.5-5,9.4
		c-0.9,1.2-1.9,2.3-3,3.2c0.4-0.3-0.5,0.3-0.6,0.4c-0.3,0.2-0.6,0.4-1,0.5c-0.5,0.3-1,0.6-1.4,1c-3.5,3-2.6,8.5-1.6,12.3
		c1.7,6.8,5,13.2,8.4,19.2c10.1,17.6,22.6,33.8,37.2,48c3.7,3.8,7.7,7.3,11.8,10.7c3.9,3,8.3,5.2,13,6.7c8.7,3,17.9,4.1,26.6,6.9
		c1.7,0.5,3.2,1.2,4.8,2c0.6,0.3,1.2,0.7,1.7,1.1c-0.5-0.4,0.2,0.2,0.3,0.3c0.3,0.3,0.6,0.6,0.9,0.9c2.6,2.7,5,5.6,6.9,8.9
		c4.8,7.5,8.8,15.9,10.7,24.6c0.4,1.6,0.6,3.3,0.6,4.9c0.1,3.7,5.8,3.7,5.7,0c-0.2-8.8-4.1-17.7-8.1-25.4c-2-4-4.4-7.8-7-11.4
		c-2.1-3-4.6-5.7-7.5-7.9c-3.1-2.2-7-3.3-10.7-4.3c-4.5-1.2-9.1-2.1-13.6-3.2c-4.6-1-9.1-2.4-13.4-4.2c-4.3-2-8.2-4.7-11.6-7.9
		c-15.6-13.9-29.1-30-40-47.8c-2.2-3.6-4.3-7.3-6.2-11.1c-1.5-2.9-2.9-6-4-9.1c-0.5-1.3-0.9-2.7-1.2-4c-0.1-0.5-0.2-1.1-0.3-1.6
		c0-0.1-0.2-1-0.1-0.5s0-0.5,0-0.6c0-0.5,0-0.9,0-1.4c0-0.2,0-0.4,0-0.7c0-0.5-0.2,0.7,0-0.1c0.1-0.3,0.2-0.7,0.3-1
		c-0.2,0.9-0.2,0.4,0,0.2c0.4-0.4,0.3-0.2-0.1,0c0.1-0.1,0.2-0.3,0.3-0.3c0.5-0.3-0.7,0.3-0.1,0.1c0.5-0.2,1-0.5,1.5-0.8
		c1.5-0.9,2.8-2.1,4-3.4c2.5-2.9,4.5-6.2,6-9.7c2.5-5.3,4.3-10.9,5.4-16.7c0.3-1.5,0.3-2.8-1.2-3.8c-1.1-0.6-2.5-0.4-3.5,0.5
		c-1.1,0.9-1.3,3.1-1.7,4.3c-0.5,2.1-1,4.3-1.2,6.4c-0.6,4.5-0.7,9-0.3,13.5c0.9,9.1,3.4,17.9,7.4,26.1c7.4,16,18.7,30,29.7,43.6
		c9.4,11.7,22.3,24.7,38.5,24.4c3.8-0.1,7.9-0.9,11.7,0.3c1.9,0.8,3.6,1.8,5.2,3c1.6,1,3.1,2.2,4.6,3.3c5,4,9.2,9,12.2,14.7
		c5.5,10.5,7,23,10.8,34.3c0.5,1.6,1.1,3.2,1.8,4.8c0.5,1.3,1.9,2.6,3.5,2c8.9-3.3,18.3-4.1,27.8-3.7c10.3,0.3,20.4,2.3,30,5.9
		c8.1,3.2,15.4,8,19.4,15.7c5.6,10.8,6.6,23.5,3.9,35.3c-2.9,12.1-9.4,23.1-18.6,31.6c-9.4,8.6-20.6,15-32.7,18.8
		c-6.3,2.1-12.7,3.6-19.3,4.5c-6.6,1.1-13.4,1.2-20.1,0.5c-6.3-0.8-12.6-3-17.4-7.2s-8.2-9.8-11.1-15.5c-6.7-13-12.7-27.4-12.4-42.2
		c0.3-11.3,4.9-22.2,12.9-30.2c15.9-16.6,41-22.8,62.7-15.4c21.4,7.3,38.7,26.6,42.5,49c3.6,21.2-7.7,43.5-25.2,55.4
		c-9.1,6.3-20,9.6-31.1,9.2c-11.5-0.5-22.4-4.9-31.5-11.8s-16.7-16.1-22.3-26.1c-6.2-10.9-10.6-23.4-11.7-35.9
		c-0.7-7,0.2-14,2.7-20.6c0.4-1.5-0.5-3.1-2-3.5C684.4,572.9,682.9,573.8,682.4,575.3L682.4,575.3z"/>
	<path class="st5" d="M768.3,666.8c27.2-9.3,49.6-32.4,52.4-59.2s-16.9-55.2-45.4-60.3c-10.1-1.8-20.7-0.8-30.6,1.8
		c-30.8,8.3-55.7,34.5-58.7,64.2s17,60.5,47.3,70.4c29.6,9.6,65.1-2.1,82.7-26.1s16.2-58.2-2.1-81.8"/>
	<path class="st5" d="M769,669.5c18.1-6.3,34.6-18.3,44.9-34.6c5-7.8,8.2-16.7,9.5-25.9c1.1-8.7,0-17.6-3-25.8
		c-6.3-17.1-20-31.2-37.4-36.9c-10.9-3.6-22.8-3.4-34-1.1c-9.8,2-19.2,5.8-27.7,11c-15.9,9.8-28.9,24.7-35,42.5
		c-6,17.5-3.8,36.5,4.8,52.7c8.9,16.7,23.8,29.3,41.8,35.2c18.1,5.8,38.2,3.8,55.4-3.8c17.4-7.6,31.6-21.5,38.4-39.4
		c7-18.4,5.6-39.4-2.9-57c-2.1-4.3-4.6-8.4-7.5-12.1c-0.8-1.3-2.5-1.7-3.9-1c-1.2,0.7-2,2.7-1,3.9c11.2,14.6,16.1,33.1,13.3,51.4
		c-2.6,17.7-12.7,33.3-27.7,43c-14.8,9.7-32.4,14-50,12.2c-17.3-1.9-33.2-11.1-44.2-24.7c-10.4-13-15.9-29.9-13.9-46.6
		c2-16.8,11.7-32.3,24.5-43.5c14.5-12.6,34-20.3,53.3-19.7c9.1,0.2,17.9,2.9,25.7,7.7c7,4.4,12.8,10.3,17.2,17.2
		c4.4,6.8,7.2,14.5,8.2,22.5c0.9,8.3-0.2,16.7-3.3,24.5c-6.2,16.3-19.7,29.5-35,37.7c-3.9,2.1-7.9,3.8-12,5.3c-1.5,0.4-2.4,2-2,3.5
		C766,669,767.5,669.9,769,669.5L769,669.5z"/>
	<path class="st6" d="M660.1,485.7c2.2-3.5,8.3-3.5,10.4,0"/>
	<path class="st7" d="M662.5,487.1l0.2-0.3C663,486.4,662.3,487.4,662.5,487.1c0.2-0.3,0.4-0.4,0.5-0.6s0.5-0.3-0.2,0.2l0.3-0.2
		c0.2-0.1,0.4-0.2,0.6-0.3s0.6-0.2-0.2,0.1l0.3-0.1l0.6-0.2l0.3-0.1c0.3-0.1-0.8,0.1-0.3,0h0.7h0.7c0.5,0-0.7-0.1-0.3,0l0.3,0.1
		c0.2,0,0.5,0.1,0.7,0.2l0.3,0.1c-0.8-0.3-0.5-0.2-0.3-0.1c0.2,0.1,0.4,0.2,0.6,0.3c0.1,0,0.2,0.2,0.3,0.2c-0.1,0-0.6-0.5-0.2-0.2
		c0.2,0.1,0.3,0.3,0.4,0.5c0.4,0.4-0.3-0.5-0.2-0.2s0.2,0.2,0.2,0.3c0.8,1.4,2.5,1.8,3.9,1s1.8-2.5,1-3.9c-3.3-5.4-11.9-5.4-15.3,0
		c-0.8,1.4-0.3,3.1,1,3.9C660,489,661.7,488.5,662.5,487.1L662.5,487.1z"/>
	<path class="st6" d="M662.8,488c20.7,2.6,43.1-1.2,58.9-14.9s22.5-38.5,11.8-56.3c-3.1-5-7.1-9.3-11.8-12.8
		c-9.3-7.1-21.1-11.5-32.7-10.3s-22.9,8.4-27.2,19.3c-8.5,21.8,12.1,47.4,2.5,68.8c-0.8,1.8-1.7,4.2-0.2,5.5s2.8-2.9,1.1-2"/>
	<path class="st7" d="M662.8,490.8c21.5,2.6,45.2-1.5,61.7-16.4c14.3-13,21.6-35.4,14.1-53.7c-4.4-10.7-13.5-19.1-23.7-24.3
		s-22.1-7.4-33.1-4.1c-10.1,3-18.8,10.2-22.7,20.1c-3.6,9.3-2.1,19.6,0,29.1s5.3,18.8,5,28.4c0,2.3-0.3,4.5-0.9,6.7
		c-0.6,2.3-1.7,4.2-2.3,6.5c-0.8,2.7-0.2,6.4,2.9,7.3c2.4,0.7,4.5-1.3,5-3.6c0.3-1.2,0-2.5-0.9-3.5c-1.1-1-2.8-1.2-4.1-0.4
		c-1.3,0.8-1.8,2.5-1,3.9c0.8,1.3,2.5,1.8,3.9,1l-3.5-2.1c0,0.2,0,0.2,0-0.1v-0.2c-0.1,0.3-0.1,0.2,0.1-0.2
		c-0.1,0.1-0.1,0.2-0.2,0.3c0.2-0.2,0.3-0.4,0.6-0.5c0.7-0.4,1.4-0.3,2.1,0.1l0.1,0.1c0.3,0.5,0.3,0.7,0.3,0.3c0,0,0,0,0-0.3
		c-0.1,0.4,0.2-0.6,0.2-0.6c0.6-1.9,1.6-3.8,2.2-5.9c1.1-4.3,1.5-8.7,1.2-13.2c-0.7-9.2-3.4-17.9-5.4-26.9
		c-1.8-8.2-2.9-16.8,0.3-24.8s10.7-13.7,18.7-16.1c9.5-2.8,19.8-1,28.6,3.5s17,11.5,21.1,20.7c3.3,7.4,3.6,16.1,1.8,24
		c-1.9,8.4-6.1,16-12,22.2c-13.4,14-34,18.6-52.8,17.6c-2.4-0.1-4.8-0.3-7.1-0.6c-1.5-0.2-2.8,1.4-2.8,2.8
		C659.9,489.5,661.2,490.7,662.8,490.8L662.8,490.8z"/>
	<path class="st6" d="M660.2,485.8c24.2-1.7,42.5-29.8,34.3-52.6"/>
	<path class="st7" d="M660.2,488.7c20.5-1.5,36.6-19.7,38.9-39.7c0.6-5.6,0-11.2-1.9-16.5c-0.4-1.5-2-2.4-3.5-2
		c-1.5,0.4-2.4,2-2,3.5c3,8.4,2.3,17.1-1.1,25.4c-3.4,8.1-9.3,14.8-16.8,19.3c-4.2,2.4-8.8,3.9-13.6,4.3c-1.6,0-2.8,1.3-2.8,2.8
		C657.4,487.4,658.7,488.6,660.2,488.7L660.2,488.7z"/>
	<path class="st6" d="M737.7,534.6c22.4,11.2,41.6,22.8,60.2,39.7s32.6,40.1,32.8,65.1c0.1,16.3-5.6,32.1-11.3,47.4
		c-17.6,47.2-37.2,96.5-76.2,128.5c-15.9-23.6-27.3-51.6-24.7-80c2.6-28.7,18.8-54,31.6-79.9s6.7-50.9-4.6-77.4
		c-5.7-13.5-10.3-30.9-9.7-45.6c74.8,9.6,101.5,56.7,118.5,106.8c6.3,18.7,9.4,38.9,6,58.3c-5.1,28.9-24.2,53.8-47.4,71.9
		s-40.8,33.9-67.6,45.8"/>
	<path class="st7" d="M736.3,537c20.6,10.3,40.4,22.2,57.7,37.5c16.1,14.3,29.2,32.8,32.9,54.3c2,11.7,0.4,23.5-2.8,34.8
		c-3.2,11.7-7.8,23-12,34.2c-7.7,20.2-16,40.3-26.4,59.3c-10.3,18.7-22.8,36.3-38.6,50.8c-2,1.8-3.9,3.5-6,5.2l4.5,0.6
		c-10.8-16-19.4-33.7-23-52.7c-1.8-9.3-2.2-18.8-1.1-28.3c1.2-9.4,3.7-18.6,7.2-27.3c3.6-8.9,7.6-17.6,12.1-26.1
		c4.5-8.8,9.6-17.4,13.4-26.5c3.9-9.2,5.9-19.1,5.7-29.1c-0.3-9.9-2.1-19.6-5.2-29c-3-9.5-7.4-18.6-10.5-28.1
		c-3.1-8.9-5-18.2-5.6-27.6c-0.1-2.2-0.1-4.4-0.1-6.7l-2.8,2.8c23.8,3.1,47.6,11,66.5,26c16.1,12.8,27.8,29.4,36.8,47.8
		c4.4,9.1,8.2,18.5,11.5,28.1c5.1,14.7,8.6,29.9,8.3,45.6c-0.3,14.3-3.9,28.3-10.5,41c-6.5,12.2-14.9,23.3-24.9,32.8
		c-5.1,4.8-10.5,9.4-16.1,13.7c-5.9,4.7-11.8,9.4-17.8,14c-11.2,8.7-22.8,16.9-35.4,23.5c-3.4,1.8-6.8,3.4-10.3,5
		c-1.3,0.8-1.8,2.5-1,3.9c0.8,1.3,2.5,1.8,3.9,1c13.6-6.3,26.6-14,38.5-23.1c6-4.4,11.8-9,17.6-13.7c6-4.8,12.2-9.4,18-14.4
		c21.5-18.4,38.9-43.4,42.8-72c3.9-28.2-5-56.1-16.4-81.6c-8.5-19.1-19.9-37.3-35.6-51.3c-18.3-16.3-41.1-26.1-65.1-30.5
		c-3.6-0.7-7.2-1.2-10.8-1.7c-1.6-0.2-2.8,1.5-2.8,2.8c-0.4,9.5,1.2,19.1,3.7,28.3c1.2,4.6,2.7,9.1,4.4,13.6c1.8,4.7,3.9,9.3,5.6,14
		c3.5,9.3,6.4,19,7.4,28.9c1,9.6,0,19.4-3,28.6c-1.7,4.7-3.8,9.3-6.2,13.7c-2.2,4.4-4.5,8.7-6.8,13c-4.6,8.8-9,17.5-12.8,26.6
		c-3.8,8.8-6.7,18.1-8.5,27.6c-1.7,9.6-1.9,19.4-0.7,29.1c2.5,19.6,10.4,38.2,20.7,54.8c1.3,2,2.6,4,3.9,6c0.8,1.4,2.6,1.8,4,0.9
		c0.2-0.1,0.3-0.2,0.5-0.4c17-14,30.7-31.7,41.8-50.6c11.2-19.2,20-39.7,28-60.3c4.3-11,8.6-22.1,12.3-33.4c4-12.1,6.9-24.8,6-37.6
		c-1.5-22.5-13.4-43-29-58.8c-16.5-16.6-36.6-29.5-57.2-40.3c-2.7-1.4-5.3-2.7-8-4.1C735.9,530.4,733,535.3,736.3,537L736.3,537z"/>
	<path class="st8" d="M282.4,940.3l-51.5,66.3c-17,21.9-34,43.7-51,65.6c-8.1,10.4-16.2,20.7-25.2,30.3
		c-7.6,8.2-15.8,15.8-24.4,22.9c-16.3,13.6-33.7,25.9-50.1,39.5c-15.8,13.2-30.8,27.9-41.4,45.7c-1.3,2.3-2.6,4.5-3.8,6.9
		c-0.8,1.6,1.6,3.1,2.5,1.4c9.5-18.5,23.8-33.9,39.4-47.4c16-13.9,33.3-26.2,49.8-39.4c8.4-6.6,16.4-13.7,24-21.2
		c9-9.3,17.6-19.1,25.5-29.3c17.1-21.6,33.8-43.4,50.7-65.1l51.2-65.9l6.4-8.3C285.5,940.9,283.5,938.9,282.4,940.3L282.4,940.3z"/>
	<path class="st8" d="M277.5,922.3c1.5,2.2,0.4,4.9-0.3,7.2c-0.8,2.6-1.6,5.4-0.7,8c1.7,5.1,7.1,7.9,12.2,6.2
		c0.3-0.1,0.5-0.2,0.8-0.3c3-1.3,5.2-3.8,7.2-6.2c1.2-1.4-0.8-3.4-2-2c-2,2.3-4.3,5.1-7.3,6c-2.8,0.8-5.8-0.4-7.4-2.9
		c-3.6-5.5,3.8-11.8-0.1-17.4C279,919.4,276.5,920.8,277.5,922.3L277.5,922.3z"/>
	<path class="st8" d="M281.6,943.9c6.9,21.2-1.9,43-9.3,62.7c-2.3,6.1-4.6,12.1-6.9,18.2c-0.6,1.7,2.1,2.4,2.8,0.8
		c4.1-10.8,8.3-21.5,12.1-32.4c3.6-10.3,6.5-21.1,6.7-32.1c0.1-6.1-0.7-12.2-2.6-18C283.8,941.4,281,942.1,281.6,943.9L281.6,943.9z
		"/>
	<path class="st8" d="M278.6,938.6c-29.5-5.6-58.1,6.3-84.3,18.4c-7.6,3.5-15.2,7.1-22.8,10.4c-1.7,0.7-0.2,3.2,1.4,2.5
		c26.3-11.3,52-26.5,81-29.4c8-0.9,16-0.6,23.9,0.9C279.6,941.6,280.3,938.9,278.6,938.6L278.6,938.6z"/>
	<path class="st8" d="M247.3,987.3c-3.6,5.5-6.3,11.5-8.1,17.8c-1.8,6.5-2.7,13.2-2.8,20c-0.2,7.2,0.2,14.5-0.4,21.7
		c-0.5,6.5-1.9,12.8-4.1,18.9c-2.5,6.7-6,12.9-10.5,18.4c-1.1,1.4,0.9,3.4,2,2c8-9.9,13.2-21.8,15-34.4c1.9-14.1-0.6-28.5,2.7-42.5
		c1.7-7.3,4.7-14.2,8.8-20.5C250.8,987.2,248.3,985.7,247.3,987.3L247.3,987.3z"/>
	<path class="st8" d="M247,988c-15.3,6.4-30.7,12.5-47.1,15.4c-8,1.4-16,2.7-23.5,5.8c-6.9,2.8-13.4,6.5-19.5,10.7
		c-7,4.8-13.6,10.3-20.1,15.7c-1.4,1.2,0.6,3.2,2,2c11.3-9.4,22.9-19,36.5-24.9c7.3-3.2,15.1-4.8,23-6.1c8.1-1.3,16.1-3.3,23.8-5.9
		c8.7-2.9,17.2-6.4,25.6-10C249.5,990,248.7,987.2,247,988L247,988z"/>
	<path class="st8" d="M185.4,1066.6c-5.1,8.3-5.5,18.3-5.9,27.8c-0.1,5.1-0.5,10.1-1.2,15.1c-0.9,5.2-2.3,10.4-4.2,15.4
		c-2.1,5.8-4.6,11.4-7.2,16.9c-0.8,1.6,1.7,3.1,2.5,1.4c4.6-9.7,8.9-19.6,11.1-30.1c2.1-9.8,1.4-19.8,2.5-29.8
		c0.4-5.4,2.1-10.6,4.8-15.3C188.9,1066.4,186.4,1065,185.4,1066.6L185.4,1066.6z"/>
	<path class="st8" d="M184.5,1065.5c-25.2,8.8-52.7,10-76.7,22.3c-6.2,3.1-12,7.1-17.1,11.8c-1.4,1.2,0.7,3.3,2,2
		c19.1-17.7,45.9-21.6,70.3-27.2c7.5-1.6,15-3.7,22.3-6.2C187,1067.7,186.2,1064.9,184.5,1065.5L184.5,1065.5z"/>
	<path class="st8" d="M117.9,1135c0.4,4.9,0.1,9.9-1.1,14.7c-2.8,13.7-8.1,26.8-15.6,38.6l2.6,0.7l0-1.7c0-1.8-2.8-1.8-2.9,0l0,1.7
		c0,0.8,0.7,1.4,1.5,1.4c0.5,0,0.9-0.3,1.2-0.7c8-12.6,13.5-26.7,16.3-41.4c0.9-4.4,1.2-8.9,0.8-13.4
		C120.5,1133.2,117.7,1133.1,117.9,1135L117.9,1135z"/>
	<path class="st8" d="M118.4,1136.4c-9.1,0.5-18.3,1.1-27.2,3.3c-4.4,1.1-8.6,2.6-12.6,4.7c-3.9,2.1-7.6,4.7-11,7.7
		c-3.9,3.3-7.8,6.6-12.4,8.8c-1.6,0.8-0.2,3.3,1.4,2.5c7.9-3.9,13.6-10.9,21.1-15.3c7.7-4.5,16.5-6.6,25.3-7.6
		c5.1-0.6,10.1-0.9,15.2-1.2C120.2,1139.2,120.2,1136.3,118.4,1136.4L118.4,1136.4z"/>
	<path class="st8" d="M308.2,841.9c-13.8-15.6-33.3-25.3-53.7-28.7c-21.7-3.7-43.9-0.1-64.1,8.3c-10.4,4.4-20.3,9.9-29.5,16.5
		c-9.6,7-18.7,14.7-27.1,23.1c-17.1,16.8-33.3,35.1-54.3,47.2c-9.7,5.6-20.5,9.8-31.7,11.2c-9.1,1.1-19.8-0.2-27.9,5.1
		c-1.8,1.2-3.4,2.7-4.6,4.5c-1.1,1.5,1.4,2.9,2.5,1.4c5.5-7.7,16.9-7.2,25.3-7.7c10.8-0.8,21.4-3.6,31.2-8.5
		c21-10.2,37.5-27.1,53.8-43.4c8.5-8.5,17-17,26.3-24.4c8.7-7,18.2-13.1,28.2-18.2c19.4-9.8,41.2-15.2,63-13.3
		c20.2,1.7,40.4,9.6,55.3,23.6c1.8,1.7,3.6,3.6,5.3,5.4C307.4,845.3,309.4,843.3,308.2,841.9L308.2,841.9z"/>
	<path class="st8" d="M252.7,812.4c-8.7-11.5-18.7-22-30.6-30.2c-12.2-8.6-26.3-14.1-41.2-15.8c-8.5-0.9-17.1-0.3-25.3,1.8
		c-0.8,0.2-1.2,1-1,1.7s1,1.2,1.7,1l0,0c14.1-3.8,29.2-2.4,42.8,2.5c13.3,4.8,25.2,12.9,35.4,22.7c5.7,5.5,10.9,11.4,15.6,17.7
		C251.3,815.3,253.8,813.8,252.7,812.4L252.7,812.4z"/>
	<path class="st8" d="M135.5,862.3c-17.1-11.9-37.5-18.4-58.3-18.5c-0.8,0-1.4,0.6-1.4,1.4c0,0.8,0.6,1.4,1.4,1.4
		c20.4,0.1,40.2,6.4,56.9,18.1C135.6,865.8,137,863.3,135.5,862.3z"/>
	<path class="st8" d="M187.6,823c-16.4-8.5-35.2-14-53.7-10c-5,1.1-9.8,2.9-14.3,5.3c-1.6,0.9-0.2,3.3,1.4,2.5
		c15.7-8.7,34.5-7.4,51-1.5c4.8,1.8,9.6,3.8,14.1,6.2C187.8,826.4,189.3,823.9,187.6,823L187.6,823z"/>
	<path class="st8" d="M361.5,796.3c-3.2-4.2-7.7-6.9-12.5-8.9c-5.4-2.3-11-3.9-16.7-5c-5.7-1.1-11.5-1.6-17.3-1.4
		c-3,0.1-6,0.5-9.1,0.3s-5.3-1.4-7.9-2.7c-2.6-1.4-5.5-2.3-8.5-2.6c-3-0.1-6,0.5-8.7,1.9c-1.6,0.8-0.2,3.3,1.4,2.5
		c2.2-1.1,4.7-1.7,7.2-1.5c2.5,0.3,5,1,7.2,2.3c2.2,1.3,4.6,2.2,7.2,2.7c2.8,0.3,5.5,0.3,8.3,0.1c11-0.7,22.1,1,32.4,4.8
		c5.2,2,10.8,4.4,14.3,9C360.1,799.2,362.6,797.8,361.5,796.3L361.5,796.3z"/>
	<path class="st8" d="M327.3,780.4c-7.8-20.5-25-36.6-45.5-43.9c-5.7-2-11.7-3.3-17.8-3.8c-1.8-0.2-1.8,2.7,0,2.8
		c20.7,1.7,40.3,13.3,52.3,30.2c3.4,4.7,6.1,9.9,8.2,15.4C325.2,782.9,327.9,782.2,327.3,780.4L327.3,780.4z"/>
	<path class="st8" d="M295.9,775.6c-4.9-10.5-15.3-17.3-24.2-24.3c-1.4-1.1-3.5,0.9-2,2c8.7,6.8,18.9,13.4,23.8,23.7
		C294.2,778.7,296.7,777.3,295.9,775.6L295.9,775.6z"/>
	<path class="st8" d="M263.5,475.6c20.9,14.5,47.7,16.6,71.4,8.3c12.6-4.4,24.2-11,36.7-15.5c25.3-8.9,52.9-8.8,78.2,0.3
		c11.7,4.3,22.4,11.5,34.7,14.2c5.6,1.3,11.3,1.2,16.8-0.3c2.1-0.4,4.4,0,6.2,1.1c5.8,3.3,10.1,9.3,13.9,14.6
		c4.9,6.9,9.4,14,14.2,21c4,5.8,8.1,12,13.7,16.3c1,0.8,2.1,1.5,3.3,2.1c1.6,0.8,3.1-1.7,1.4-2.5c-2.5-1.3-4.7-3.1-6.5-5.2
		c-2.4-2.6-4.7-5.4-6.7-8.3c-5-6.9-9.4-14.1-14.2-21c-4.1-6-8.5-12.4-14.2-17c-2-1.8-4.5-3.2-7.1-3.9c-3.6-0.8-7,0.9-10.7,1.2
		c-12.4,0.8-23.9-6-34.8-11.1c-11.8-5.5-24.4-9-37.3-10.4c-13.2-1.4-26.6-0.5-39.5,2.5c-13,3-24.8,8.8-36.9,14.2
		c-11.9,5.3-24.2,9.3-37.3,9.6c-12.4,0.4-24.8-2.3-35.9-8c-2.7-1.4-5.4-3-7.9-4.8C263.5,472.2,262,474.6,263.5,475.6L263.5,475.6z"
		/>
	<path class="st8" d="M485.9,480.7c-7.6-15.2-17.8-29-30.1-40.7c-12.3-11.7-26.5-21.3-42-28.3c-8.7-3.9-17.8-7-27.1-9.1
		c-1.8-0.4-2.5,2.3-0.8,2.8c16.3,3.8,31.8,10.3,45.9,19.4c14,9,26.3,20.3,36.5,33.4c5.8,7.4,10.8,15.4,15,23.9
		C484.2,483.7,486.7,482.3,485.9,480.7L485.9,480.7z"/>
	<path class="st8" d="M415.5,458.3C401.1,445.7,383.1,438,364,436c-5.4-0.5-10.9-0.6-16.3-0.2c-1.8,0.1-1.8,3,0,2.8
		c18.5-1.5,37.1,2.8,53,12.3c4.5,2.7,8.8,5.8,12.8,9.2C414.9,461.5,416.9,459.5,415.5,458.3L415.5,458.3z"/>
	<path class="st8" d="M474,478.8c-7,15.4-22.3,24.3-37.5,30c-4.8,1.8-9.6,3.3-14.5,4.9c-1.7,0.5-1,3.3,0.8,2.8
		c16.7-5.2,34.2-11.2,46.1-24.7c3.1-3.4,5.6-7.3,7.5-11.4C477.2,478.6,474.8,477.1,474,478.8z"/>
	<path class="st8" d="M408.9,462.3c-9.1,19.4-27.2,32.3-46.3,40.9c-5.8,2.6-11.8,4.9-17.8,7c-1.7,0.6-1,3.4,0.8,2.7
		c20.8-7.3,41.8-17.1,56.2-34.4c3.8-4.5,7-9.5,9.6-14.8C412.2,462,409.7,460.6,408.9,462.3L408.9,462.3z"/>
	<path class="st8" d="M542.2,559.5c-17.6,2.7-35,6.9-51.8,12.7c-16.9,5.7-33.2,12.9-48.8,21.5c-7.8,4.3-15.4,8.9-22.7,13.8
		c-7.3,4.9-14.4,10.1-21.9,14.8s-15.2,9-23.6,11.8c-9,3-18.4,4.2-27.7,5.7c-15.5,2.5-32.6,6.6-42.7,19.7c-1.1,1.5-2.2,3-3,4.7
		c-0.9,1.6,1.6,3,2.5,1.4c7.7-14.2,24.3-19.5,39.2-22.2c9.3-1.7,18.7-2.7,27.9-5.1c8.4-2.4,16.5-5.9,24-10.4
		c7.5-4.4,14.6-9.5,21.8-14.5s14.6-9.7,22.2-14.1c30.7-17.6,64.2-29.8,99-35.9c2.2-0.4,4.3-0.7,6.5-1.1
		C544.8,562,543.9,559.2,542.2,559.5L542.2,559.5z"/>
	<path class="st8" d="M500.8,566.7c-4.3-3.3-9.6-4.8-14.9-5.5c-6-0.7-12-1-18-0.9c-12.7-0.1-25.5,0.9-38.1,2.8
		c-3.5,0.5-7,1.2-10.5,1.8c-1.7,0.3-3.5,0.7-5.2,1.1c-0.8,0.1-1.5,0.3-2.3,0.7c-0.4,0.3-0.8,0.9-1.2,1c-0.7,0.3-1.1,1.1-0.9,1.8
		c0.2,0.7,0.9,1.1,1.6,0.9c0.9-0.3,1.4-1.1,2.3-1.4c1.5-0.5,3.1-0.8,4.7-1c3.1-0.6,6.2-1.2,9.3-1.7c6.1-1,12.2-1.8,18.4-2.3
		c12.1-1.1,24.4-1.2,36.5-0.3c5.9,0.5,11.9,1.8,16.7,5.4C500.8,570.3,502.3,567.9,500.8,566.7L500.8,566.7z"/>
	<path class="st8" d="M499.3,566.3c-1.9,21.7-6.9,44.1-20.9,61.3c-3.6,4.4-7.7,8.4-12.2,11.8l1.7,2.2l2.7-2.3c1.4-1.2-0.6-3.2-2-2
		l-2.7,2.3c-1.2,1,0.4,3.2,1.7,2.2c17.9-13.1,27.5-34,31.8-55.2c1.3-6.7,2.2-13.5,2.8-20.3C502.4,564.5,499.5,564.5,499.3,566.3
		L499.3,566.3z"/>
	<path class="st8" d="M437.1,594.8c-15.5-8-33.4-6.5-49.7-2.3c-5,1.3-9.8,2.8-14.7,4.3c-1.7,0.6-1,3.3,0.8,2.8
		c15.8-5,32.6-9.9,49.3-6.7c4.5,0.8,8.8,2.3,12.9,4.3C437.3,598.1,438.8,595.6,437.1,594.8z"/>
	<path class="st8" d="M434.2,597.5c-1.5,17-10,32.6-23.5,43c-1.9,1.5-3.9,2.8-6,4c-1.5,0.8-3.7,1.6-3.7,3.6c0.1,0.8,0.8,1.4,1.5,1.3
		c0.7-0.1,1.2-0.6,1.3-1.3c0,0.4-0.2,0.2,0.1,0s0.3-0.2,0.4-0.3c0.3-0.2,0.7-0.4,1.1-0.6c0.9-0.5,1.8-1,2.6-1.5
		c5.3-3.4,10-7.6,14.1-12.4c5.4-6.5,9.6-13.9,12.2-21.9c1.5-4.5,2.4-9.2,2.7-14C437.2,595.7,434.4,595.7,434.2,597.5L434.2,597.5z"
		/>
	<path class="st8" d="M368.7,636.6c-4.5,9-11.7,16.4-20.6,21.2c-1.6,0.9-0.2,3.3,1.4,2.5c9.3-5,16.9-12.7,21.6-22.2
		C372,636.4,369.6,635,368.7,636.6z"/>
	<path class="st8" d="M369.7,634.1c-8.7-0.4-17.4-0.9-26.1-1.2c-6.4-0.2-13.6,0.3-18.3,5.2c-1.3,1.3,0.7,3.3,2,2
		c4.4-4.6,11.5-4.6,17.5-4.3c8.3,0.3,16.7,0.8,25,1.2C371.5,637,371.5,634.2,369.7,634.1L369.7,634.1z"/>
	<path class="st8" d="M532.6,917.6c-3.8,19.3-12,37.3-22.6,53.8c-10.9,16.8-24.2,31.9-38.3,46c-14.1,14.1-29.2,27.2-44.1,40.6
		s-29.8,27.1-43.2,42.1c-13.2,14.7-25,30.8-33.7,48.7c-1.1,2.2-2.1,4.4-3.1,6.7c-0.7,1.7,1.7,3.1,2.5,1.4c8-18.3,19.2-34.9,32.2-50
		c13.1-15.3,27.8-29.2,42.7-42.7s30.1-26.5,44.5-40.5c14.4-14,27.8-28.8,39.2-45.2c11.2-16.1,20.2-33.9,25-52.9
		c0.6-2.3,1.1-4.7,1.6-7.1C535.7,916.6,532.9,915.8,532.6,917.6L532.6,917.6z"/>
	<path class="st8" d="M525.7,944c1.5,25.1-0.4,50.3-5.5,74.9c-1.5,6.9-3.2,13.8-5.1,20.6c-0.2,0.8,0.3,1.5,1.1,1.7
		c0.7,0.1,1.4-0.3,1.6-0.9c7-24.3,10.8-49.5,11.2-74.8c0.1-7.2,0-14.3-0.5-21.5C528.4,942.2,525.5,942.2,525.7,944L525.7,944z"/>
	<path class="st8" d="M524.3,943.1c-16.2,5.7-32.3,11.7-48.3,18.2c-7.9,3.2-15.8,6.5-23.7,9.9c-6.5,2.8-13.2,5.6-19.3,9.3
		c-6.4,3.8-12.3,8.8-16,15.4c-0.9,1.6,1.6,3,2.5,1.4c6.6-11.8,20-17.4,31.8-22.6c15.5-6.7,31.2-13.1,47-19.1
		c8.9-3.4,17.8-6.6,26.7-9.8C526.8,945.2,526.1,942.5,524.3,943.1L524.3,943.1z"/>
	<path class="st8" d="M491.5,998.4c4.4,11.6,2.1,24.3-1.4,35.9c-5.4,17.6-14.2,34-25.8,48.2c-1.2,1.4,0.8,3.4,2,2
		c7.8-9.5,14.3-19.9,19.5-31c5.1-11,9.3-22.9,10.7-35c0.9-7,0.2-14.2-2.2-20.9C493.6,995.9,490.9,996.6,491.5,998.4L491.5,998.4z"/>
	<path class="st8" d="M487.3,1000.4c-28.8,1.9-56.1,13.4-77.5,32.8c-1.5,1.3-2.9,2.7-4.4,4.2c-1.3,1.3-3.2,2.8-3.9,4.5
		s0.4,3.7,2.3,3.2c1.6-0.5,2.2-2.5,0.7-3.4c-0.7-0.4-1.6-0.1-1.9,0.6c-0.3,0.6-0.1,1.4,0.5,1.8l-0.3-0.3l-0.1-1.1l1.6,0.1
		c0.2-0.2,0.4-0.5,0.6-0.7c0.3-0.3,0.5-0.6,0.8-0.9c0.5-0.5,0.9-1,1.4-1.4c1.1-1.1,2.3-2.3,3.5-3.4c2.3-2.1,4.6-4.1,7-6.1
		c4.8-3.8,9.9-7.3,15.3-10.4c10.6-6.2,22-10.7,33.9-13.6c6.8-1.6,13.7-2.7,20.7-3.1C489.1,1003.2,489.1,1000.3,487.3,1000.4
		L487.3,1000.4z"/>
	<path class="st8" d="M421.5,1065.4c-1.1,7.3-2.7,14.6-4.7,21.8c-2.1,6.8-4.8,13.4-8.2,19.6c-2.4,4.6-5.1,9-7.8,13.3
		c-1,1.6,1.5,3,2.5,1.4c4.6-7.1,8.6-14.6,12.1-22.3c2.7-6.4,4.9-13.1,6.3-19.9c1-4.4,1.7-8.8,2.5-13.2
		C424.5,1064.3,421.8,1063.6,421.5,1065.4L421.5,1065.4z"/>
	<path class="st8" d="M419.4,1063.7c-8.9,1.8-17.6,4.6-25.9,8.3c-8.4,3.9-16.2,8.9-23.3,14.9c-4.5,3.8-8.8,8-12.7,12.4
		c-1.2,1.4,0.8,3.4,2,2c6.5-7.4,13.9-13.9,22.1-19.5c7.4-4.9,15.4-8.8,23.8-11.6c4.8-1.6,9.7-2.9,14.7-3.9
		C421.9,1066,421.1,1063.3,419.4,1063.7L419.4,1063.7z"/>
	<path class="st8" d="M585.1,841.4c11.8,12.4,22.2,26.9,37.3,35.6c8.4,4.8,17.9,6.9,26.8,10.6c9.2,3.8,18.6,8.2,26.3,14.5
		c8.2,6.6,14.6,16.3,13.7,27.3c-0.2,1.8,2.7,1.8,2.8,0c0.8-9.6-3.8-18.8-10.4-25.6c-7-7.1-16-11.9-24.9-16c-4.8-2.2-9.8-4.3-14.8-6
		c-4.6-1.6-9.3-2.9-13.7-4.9c-7.8-3.7-14.5-9-20.6-15c-7.2-7.2-13.6-15-20.5-22.4C585.9,838.1,583.8,840.1,585.1,841.4L585.1,841.4z
		"/>
	<path class="st8" d="M608.1,867.1c7.7,13.3,18.4,24.6,31.2,33.1c1.5,1,3-1.4,1.4-2.4c-12.4-8.2-22.7-19.2-30.2-32.1
		c-0.5-0.6-1.3-0.8-2-0.4C608,865.7,607.8,866.5,608.1,867.1L608.1,867.1z"/>
	<path class="st8" d="M612,869c4.3-3,9.8-3.8,14.9-3.5c8.4,0.5,16.3,4.1,23.2,8.7c1.5,1,3-1.5,1.4-2.5c-10-6.6-23-11.5-35-7.9
		c-2.1,0.6-4.2,1.6-6,2.8C609,867.5,610.5,870,612,869L612,869z"/>
	<path class="st8" d="M592.2,545.8c11.7,8,21.9,18,30,29.5c8.2,11.5,14.3,24.4,18,38c4.4,16.1,4.8,33,6,49.5c1,16.3,3,32.5,5.7,48.5
		c2.8,15.9,7.4,31.5,13.9,46.3c0.8,1.8,1.7,3.7,2.6,5.5s3.3,0.2,2.5-1.4c-7.2-14.6-12-30.3-15.2-46.2c-3.3-16.2-5-32.6-6.3-49
		c-1.3-16.8-1.5-34-5.5-50.5c-6.8-27.8-23.1-52.5-46-69.6c-1.4-1-2.8-2-4.3-3S590.6,544.8,592.2,545.8L592.2,545.8z"/>
	<path class="st8" d="M617.7,569.4c17.4,2.6,33.7,10.1,47,21.5c1.8,1.6,3.6,3.2,5.3,4.9c0.9,0.9,1.8,1.8,2.6,2.8l1.2,1.3l0.5,0.6
		l0.3,0.3c0.4,0.7,1,0.6,1.8-0.2l0.4,1v-0.2c-0.2-1.8-3-1.8-2.8,0c0,1.1,0.9,1.9,2,1.9s1.9-0.9,1.9-2l0,0c0-1.3-1-2.2-1.7-3.1
		s-1.7-1.9-2.6-2.8c-3.5-3.7-7.4-7.1-11.4-10.2c-8.1-6.2-17.2-11-26.8-14.4c-5.5-1.9-11.1-3.3-16.8-4.2
		C616.6,566.3,615.9,569.1,617.7,569.4L617.7,569.4z"/>
	<path class="st8" d="M615.1,571.2c-4.2,7.4-5.7,15.8-6.6,24.2c-1,9.3-1.6,18.6-2.4,28l-1.4,16.3c-0.2,1.8,2.7,1.8,2.8,0l2.4-28.1
		c0.7-8.5,1.1-17.3,2.9-25.7c0.9-4.6,2.5-9.1,4.8-13.2c0.3-0.7,0-1.6-0.7-1.9C616.3,570.4,615.5,570.6,615.1,571.2L615.1,571.2z"/>
	<path class="st8" d="M645.1,626.4c2-0.1,4.3,1.9,5.9,2.9s3.5,2.4,5.2,3.7c3.4,2.6,6.7,5.4,9.7,8.4c6.1,6,11.5,12.8,15.9,20.2
		c2.5,4.2,4.7,8.6,6.6,13.1c0.7,1.7,3.4,0.9,2.7-0.8c-7-16.9-18.3-31.6-32.8-42.8c-2-1.5-4-3-6.1-4.4c-2.1-1.4-4.5-3.4-7.2-3.2
		C643.3,623.7,643.3,626.6,645.1,626.4L645.1,626.4z"/>
	<path class="st8" d="M643.5,625.2c-6.2,5-9.4,12.7-12.3,19.9c-3.3,8.2-5.9,16.6-7.9,25.2c-0.5,2.4-1,4.7-1.5,7.1
		c-0.2,1.2-0.4,2.5-0.6,3.7c0,0.3-0.3,3-0.5,3.1c-1.7,0.7-0.9,3.5,0.8,2.7c1.7-0.7,2-2.4,2.3-4.1c0.3-2.2,0.7-4.5,1.2-6.7
		c0.9-4.4,1.9-8.8,3.2-13.2c2.3-8.6,5.4-16.9,9.3-24.9c1.9-4.1,4.6-7.8,8-10.8C647,626,644.9,624,643.5,625.2L643.5,625.2z"/>
	<path class="st8" d="M651.8,686.8c4.1-0.5,7.2,3.3,9.8,6c3.1,3.2,6.1,6.4,9,9.8c5.9,6.7,11.4,13.7,16.5,21c1,1.5,3.5,0.1,2.5-1.4
		c-5.4-7.7-11.3-15.2-17.5-22.3c-3.1-3.6-6.4-7-9.7-10.4c-2.8-2.8-6.3-6-10.6-5.5C649.9,684.2,649.9,687,651.8,686.8L651.8,686.8z"
		/>
	<path class="st8" d="M646.9,686.6c-4.6,14.1-7.3,28.8-8,43.7c-0.1,1.8,2.8,1.8,2.8,0c0.7-14.6,3.4-29.1,7.9-43
		C650.3,685.6,647.5,684.8,646.9,686.6L646.9,686.6z"/>
	<path class="st8" d="M716.3,334.3c8.2,14.6,21.1,25.5,34,35.7c13.4,10.6,27,21,37.3,34.8c10.8,14.6,18.3,31.4,23.2,48.8
		c5.5,19.5,7.7,39.8,8.6,60c0.7,15.4,0.7,30.9,0.7,46.3v4.6c0.1,0.8,0.8,1.4,1.5,1.3c0.7-0.1,1.2-0.6,1.3-1.3c0-14.5,0-29-0.4-43.4
		c-0.6-20.7-2.4-41.5-7.3-61.6c-4.3-17.7-11-35-21.1-50.3c-4.9-7.4-10.5-14.3-16.9-20.5c-6.1-5.8-12.5-11.2-19.2-16.3
		c-13-10.3-26.8-20.6-36.2-34.5c-1.1-1.7-2.2-3.4-3.2-5.2c-0.5-0.6-1.3-0.8-2-0.4C716.2,332.9,716,333.7,716.3,334.3L716.3,334.3z"
		/>
	<path class="st8" d="M738.8,360.6c12.4,7.5,27.3,6.8,41.2,7.6c7.2,0.3,14.3,1.5,21.2,3.7c6.9,2.3,13.5,5.5,19.6,9.4
		c7.1,4.5,13.8,9.4,20.1,14.9c1.4,1.2,3.4-0.8,2-2c-11.2-9.5-23.3-18.2-37.1-23.6c-6.8-2.6-13.9-4.2-21.1-4.9
		c-7.2-0.7-14.5-0.7-21.7-1.2c-8-0.7-15.9-2.2-22.9-6.3c-0.7-0.4-1.6-0.1-1.9,0.6C737.9,359.4,738.1,360.2,738.8,360.6L738.8,360.6z
		"/>
	<path class="st8" d="M788.5,406c10.3,7.1,21.7,12.1,32.7,17.8s21.5,12.4,29.7,21.9c4.5,5.3,8.2,11.2,11.1,17.5
		c0.8,1.7,3.2,0.2,2.5-1.4c-5.3-11.5-13.3-21.5-23.3-29.1c-10-7.6-21.5-12.8-32.7-18.5c-6.4-3.1-12.6-6.7-18.5-10.7
		C788.5,402.5,787,404.9,788.5,406L788.5,406z"/>
	<path class="st8" d="M821.4,538c3.8,4.6,7,9.6,9.4,15c3,6.1,5.5,12.8,5.8,19.6c0.1,1.8,2.9,1.8,2.8,0c-0.4-7.2-3-14.2-6.1-20.7
		c-2.6-5.7-6-11.1-10-15.9C822.2,534.6,820.2,536.6,821.4,538L821.4,538z"/>
	<path class="st8" d="M736,358.5c-1.4,15.7,2.1,31.4,10,45c0.4,0.7,1.3,0.9,1.9,0.5c0.7-0.4,0.9-1.3,0.5-1.9
		c-7.7-13.2-11-28.4-9.6-43.5C739.1,356.7,736.2,356.7,736,358.5L736,358.5z"/>
	<path class="st8" d="M787.5,406.7c-3.5,8.6-6.2,17.9-5.7,27.3s4,18.4,7.5,27c0.7,1.7,3.4,0.9,2.8-0.8c-3.4-8.4-7-17.1-7.4-26.3
		s2.2-18.2,5.6-26.6C791,405.8,788.2,405,787.5,406.7L787.5,406.7z"/>
	<path class="st8" d="M736.7,535.6c12.5,13.7,25,27.5,35.5,42.9c10.2,15,18.3,31.5,21.3,49.5c3.5,20.6-0.1,41.6-6.3,61.3
		c-6.4,20.4-15.3,40-24.1,59.5c-4.4,9.8-9.1,19.6-13.6,29.4c-4.2,9.2-8.2,18.6-10.3,28.5c-0.5,2.5-0.9,4.9-1.2,7.4
		c-0.2,1.8,2.6,1.8,2.8,0c1.2-10.3,4.8-20.3,9-29.8c4.3-9.9,9.1-19.5,13.6-29.3c8.9-19.6,18-39.3,24.9-59.7
		c6.7-19.7,11.1-40.7,8.9-61.6c-2-18.4-9.2-35.7-19-51.3c-10-15.8-22.3-30-34.8-43.8l-4.7-5.1C737.5,532.2,735.5,534.2,736.7,535.6
		L736.7,535.6z"/>
	<path class="st8" d="M759.5,560c15.9,19.5,43.1,25.6,58.2,46c2,2.6,3.6,5.4,4.9,8.4c0.6,1.4,1.1,2.9,1.6,4.4
		c0.2,0.8,0.4,1.6,0.6,2.4c0.1,0.4,0.2,0.8,0.2,1.1c0,0.2,0.1,0.4,0.1,0.6c-0.3,0.6,0.2,0.6,1.3,0.2c-1.4-1.2-3.4,0.8-2,2
		c0.8,0.7,2.1,0.7,2.8-0.2c0.1-0.2,0.3-0.3,0.3-0.5c0.7-1.3,0.2-2.9-0.1-4.3c-0.7-3.1-1.8-6.1-3.2-9c-3-5.7-7-10.8-11.7-15
		c-10-9.3-22.2-15.4-33.4-22.8c-6.5-4.3-12.6-9.2-17.5-15.2C760.4,556.6,758.4,558.6,759.5,560L759.5,560z"/>
	<path class="st8" d="M794.7,646.7l17.4,23.6c5,6.8,10.3,13.7,13.7,21.5c1.9,4.3,2.9,8.9,2.9,13.7c0,0.8,0.6,1.4,1.4,1.4
		c0.8,0,1.4-0.6,1.4-1.4c0.1-8.6-3.5-16.6-8-23.8c-5-8-10.9-15.3-16.4-22.9l-10-13.6C796.1,643.8,793.6,645.3,794.7,646.7
		L794.7,646.7z"/>
	<path class="st8" d="M784.2,704.9l-0.5,0.3c-0.6,0.2-0.7,0.3-0.4,0.3c0,0,0.2,0.1,0.2,0.2c0.2,0.4,0.4,0.8,0.6,1.2
		c0.4,0.9,0.9,1.8,1.3,2.8c0.7,1.8,1.4,3.7,1.9,5.6c1.1,3.9,1.8,7.8,2.2,11.8c0.6,8.1,0.4,16.3-0.6,24.3c-0.5,4.6-1.2,9.2-1.9,13.8
		c-0.3,1.8,2.5,2.6,2.7,0.8c2.7-18,5.5-37.5-0.9-55c-0.7-2.4-1.7-4.6-3-6.8c-1-1.4-3.9-2.3-4.3,0.1
		C781.2,705.9,783.9,706.7,784.2,704.9L784.2,704.9z"/>
	<path class="st8" d="M781.6,703.3c-7.5,3.8-12.8,10.4-18.1,16.7s-10.4,13.2-15.1,20.1c-2.7,4-5.3,8-7.8,12c-0.3,0.7,0,1.6,0.7,1.9
		c0.6,0.3,1.4,0.1,1.8-0.5c8.5-14.1,18.3-27.3,29.3-39.4c3-3.4,6.7-6.3,10.7-8.4C784.7,704.9,783.3,702.5,781.6,703.3L781.6,703.3z"
		/>
	<path class="st8" d="M791.8,647.5c-12,11.8-22.5,24.9-31.4,39.2c-2.5,4.1-4.9,8.3-7.2,12.6c-0.9,1.6,1.6,3.1,2.5,1.4
		c7.7-14.7,17.2-28.5,28.3-40.9c3.2-3.6,6.4-7,9.8-10.3C795.2,648.2,793.1,646.2,791.8,647.5L791.8,647.5z"/>
	<path class="st8" d="M764.8,568.2c2.9,19.2-5.4,37.8-6.2,56.8c-0.3,5.3,0.2,10.6,1.5,15.7c0.4,1.8,3.2,1,2.8-0.8
		c-4.7-18.9,3.3-37.9,5-56.6c0.5-5.3,0.4-10.6-0.4-15.9C767.2,565.7,764.5,566.5,764.8,568.2L764.8,568.2z"/>
	<path class="st8" d="M610.4,295c-8.1,0.2-15.5-4.3-22.3-8.2c-7-4-14.3-8.6-22.5-9.6c-9.2-1.1-17.8,4-23.8,10.6
		c-3.4,3.9-6.4,8.1-9.1,12.5c-2.8,4.4-5.6,8.7-8.6,12.8c-6.9,9.3-14.8,17.8-23.7,25.2c-1.4,1.2,0.6,3.2,2,2
		c7.7-6.5,14.8-13.7,21-21.7c3.1-3.9,6-8,8.8-12.2c2.8-4.3,5.4-8.7,8.5-12.9c5.4-7.2,13.3-14,22.9-13.8c8,0.2,15.3,4.9,22,8.7
		c7.6,4.4,15.8,9.5,24.9,9.2C612.2,297.9,612.2,295,610.4,295L610.4,295z"/>
	<path class="st8" d="M754.8,327.7c19-9.8,34.2-25.4,43.5-44.6c8.9-18.4,12.7-38.9,11-59.3c-1-13.6-0.4-28.4,7.1-40.3
		c1-1.6-1.5-3-2.5-1.4c-6.5,10.4-8.1,23-7.8,35.1c0.1,5.4,0.8,10.8,0.8,16.3c0,5-0.3,10-1,15c-2.8,20.2-11,39.7-24.5,55.1
		c-7.9,9-17.4,16.4-28.1,21.8C751.7,326.1,753.1,328.6,754.8,327.7L754.8,327.7z"/>
	<path class="st8" d="M784.5,304c23.4-11,52.4-10.3,71.8-29.4c2.3-2.2,4.3-4.7,6.1-7.5c0.8-1.3,1.6-2.7,2.3-4.1
		c0.7-1.6,1.5-3.2,0.9-5s-3.3-1-2.7,0.8c0.4,1.3-0.6,2.9-1.2,4c-0.7,1.3-1.4,2.6-2.3,3.8c-1.5,2.2-3.3,4.3-5.3,6.2
		c-4,3.8-8.6,7-13.6,9.5c-11.3,5.9-23.8,8.4-36,11.7c-7.3,1.8-14.5,4.3-21.3,7.5C781.4,302.3,782.9,304.8,784.5,304L784.5,304z"/>
	<path class="st8" d="M798.8,279.5c4.5-3.2,9.2-6.1,14.1-8.6c4.9-2.5,10.1-4.3,14.9-6.7c13.2-6.6,21.9-19.7,22.9-34.3
		c0.1-1.8-2.7-1.8-2.8,0c-1,13.4-8.9,25.4-20.9,31.6c-4.7,2.4-9.6,4.1-14.3,6.4c-5.3,2.7-10.5,5.8-15.3,9.2
		C795.9,278.1,797.3,280.6,798.8,279.5L798.8,279.5z"/>
	<path class="st8" d="M809.5,247.8c5.1-6.4,10.7-12.6,15-19.6c3.4-5.4,5.3-11.7,5.3-18.2c-0.1-4.7-0.8-9.3-1.9-13.9
		c-0.4-1.8-3.2-1-2.7,0.8c1.6,6.9,2.7,14.1,0.9,21.1c-1.6,6.1-5.5,11.4-9.3,16.4c-3,3.8-6.1,7.6-9.1,11.4
		C806.4,247.2,808.4,249.2,809.5,247.8L809.5,247.8z"/>
	<path class="st8" d="M806.9,247.8c0.3,0.2-0.1-0.1-0.3-0.3c-0.2-0.2-0.3-0.3-0.4-0.5c-0.5-0.7-0.9-1.4-1.3-2.1
		c-1.2-2-2.3-4.1-3.3-6.2c-1-2.2-1.9-4.4-2.6-6.7c-0.3-1-0.5-2-0.7-3c-0.1-0.7-0.1-1.3,0-2c0.4-1.8-2.3-2.5-2.8-0.8
		c-0.3,2.1-0.1,4.2,0.6,6.1c0.8,2.6,1.7,5,2.9,7.5c1,2.3,2.2,4.5,3.5,6.6c0.7,1.4,1.7,2.7,2.9,3.7
		C807,251.2,808.5,248.8,806.9,247.8L806.9,247.8z"/>
	<path class="st8" d="M798.5,277.4c-3.9-5.8-6-12.6-6.1-19.6c0-0.8-0.6-1.4-1.4-1.4c-0.8,0-1.4,0.6-1.4,1.4c0.1,7.5,2.3,14.8,6.5,21
		C797.1,280.4,799.6,279,798.5,277.4L798.5,277.4z"/>
	<path class="st8" d="M660.1,489.4c12-4.5,20.6-16.1,25.4-27.6c2.5-5.8,3.8-12,3.8-18.3c-0.2-7.6-2.9-14.9-5.7-21.9
		c-3.2-8.2-6.8-16.4-7.2-25.3c-0.1-1.8-2.9-1.8-2.8,0c0.6,15.3,10.2,28.3,12.5,43.2c1.8,12.3-3.7,25.3-11.2,34.8
		c-4.1,5.2-9.3,10-15.6,12.4C657.6,487.3,658.3,490.1,660.1,489.4L660.1,489.4z"/>
	<path class="st8" d="M688.1,442.8c2.9-1.1,5.6-2.7,8.1-4.6c2.2-1.7,4.6-3.9,5.5-6.6c0.9-3.2,1.3-6.4,1.2-9.7
		c0.1-4.6,0-9.3-0.1-13.9c-0.1-0.8-0.8-1.4-1.5-1.3c-0.7,0.1-1.2,0.6-1.3,1.3c0,4.2,0.2,8.3,0.1,12.5c0.1,3.2-0.2,6.4-0.9,9.5
		c-0.7,2.5-2.7,4.4-4.7,5.9c-2.1,1.7-4.5,3.1-7.1,4.1C685.6,440.7,686.4,443.4,688.1,442.8L688.1,442.8z"/>
	<path class="st8" d="M685.7,463.7c10.8,1.6,21.8-2.5,28.7-11c1.2-1.4-0.9-3.4-2-2c-6.3,7.7-16.1,11.6-26,10.2
		C684.6,460.7,683.8,463.4,685.7,463.7L685.7,463.7z"/>
	<path class="st8" d="M741.4,53c-2.7,8.1-7.1,15.8-11.7,22.9c-5.5,8.5-11.8,16.6-18.9,23.9c-6.4,6.7-13.5,13.1-21.7,17.6
		c-9.7,5.4-21,6.1-31.9,7.3c-6.5,0.6-12.9,1.8-19.2,3.3c-5.8,1.5-11.4,3.5-16.8,6c-11,5.1-21.1,12-29.8,20.5
		c-8.9,8.7-16.9,18.6-27.9,24.9c-10.4,6-22.3,9-34.4,8.6c-6.6-0.2-13-2-19.5-2.5c-5.5-0.6-11,0.5-15.8,3.1
		c-8.9,4.8-14.8,13.9-19.3,22.6c-1.2,2.3-2.3,4.6-3.4,6.9c-0.8,1.6,1.7,3.1,2.5,1.4c4.3-9.1,9.2-18.8,17.1-25.3
		c3.8-3.2,8.4-5.3,13.4-5.8c6.8-0.7,13.5,1.5,20.2,2.2c11.9,1.2,23.9-0.7,34.8-5.6c5.5-2.5,10.6-5.7,15.2-9.5
		c4.8-4.1,9.3-8.5,13.6-13.1c4.2-4.5,8.8-8.8,13.6-12.8c4.8-3.8,9.8-7.1,15.2-10c10.9-5.8,22.8-9.7,35.1-11.3
		c6.8-1,13.8-1.5,20.6-2.6c5-0.7,9.9-2,14.5-3.9c8.2-3.7,15.3-9.6,21.8-15.7c7.3-7.1,13.9-14.9,19.8-23.2c5.4-7.4,10-15.4,13.7-23.8
		c0.8-1.8,1.4-3.5,2-5.3S741.9,51.3,741.4,53L741.4,53z"/>
	<path class="st8" d="M701.5,105.8c-14,1-27.6-2.6-41.4-4.5c-6.7-1.1-13.6-1.4-20.4-1c-13.6,1.1-26.6,6-37.5,14.3
		c-1.4,1.1,0,3.6,1.4,2.5c10.1-7.8,22.1-12.5,34.8-13.8c13.5-1.3,26.8,1.9,40.1,4c7.5,1.3,15.2,1.8,22.9,1.4
		C703.3,108.5,703.3,105.6,701.5,105.8L701.5,105.8z"/>
	<path class="st8" d="M621.5,132.7c-4.4-2.8-9-5.1-13.9-6.9c-4.7-1.6-9.7-2.2-14.7-1.8c-4.9,0.5-9.7,1.9-14,4.3
		c-4.1,2.5-7.9,5.4-11.4,8.6c-2.1,1.8-4.2,3.6-6.4,5.3c-1.1,0.8-2.2,1.6-3.4,2.3s-2.3,1.1-2.5,2.4c-0.4,1.8,2.4,2.5,2.8,0.8
		c0-0.2,1-0.6,1.2-0.7c0.5-0.3,0.9-0.6,1.4-0.9c0.9-0.6,1.8-1.2,2.7-1.9c1.8-1.4,3.5-2.8,5.2-4.3c3.3-3,6.8-5.8,10.5-8.3
		c7.9-4.8,17.5-6.1,26.4-3.6c5.3,1.5,10,4.3,14.7,7.1c0.7,0.3,1.6,0,1.9-0.7C622.3,133.8,622.2,133.1,621.5,132.7L621.5,132.7z"/>
	<path class="st8" d="M577.2,170.1c-13.3-2.2-26.9-0.9-39.6,3.9c-1.7,0.6-1,3.4,0.8,2.8c12.1-4.6,25.2-5.9,38-3.8
		C578.2,173.2,579,170.4,577.2,170.1L577.2,170.1z"/>
	<circle class="st9" cx="259.5" cy="734.6" r="4.5"/>
	<circle class="st9" cx="266.1" cy="750.8" r="4.5"/>
	<circle class="st9" cx="148.3" cy="771.5" r="4.5"/>
	<circle class="st9" cx="118.3" cy="824.3" r="4.5"/>
	<circle class="st9" cx="73.2" cy="845.2" r="4.5"/>
	<circle class="st9" cx="265.4" cy="1029.7" r="4.5"/>
	<circle class="st9" cx="165.7" cy="972.5" r="4.5"/>
	<circle class="st9" cx="132.4" cy="1040.7" r="4.5"/>
	<circle class="st9" cx="221.3" cy="1089.6" r="4.5"/>
	<circle class="st9" cx="164.7" cy="1145.5" r="4.5"/>
	<circle class="st9" cx="87.2" cy="1100.6" r="4.5"/>
	<circle class="st9" cx="101.4" cy="1192" r="4.5"/>
	<circle class="st9" cx="51.5" cy="1166.6" r="4.5"/>
	<circle class="st9" cx="462.5" cy="644.1" r="4.5"/>
	<circle class="st9" cx="398.4" cy="651.6" r="4.5"/>
	<circle class="st9" cx="367.8" cy="598.8" r="4.5"/>
	<circle class="st9" cx="345.9" cy="662.7" r="4.5"/>
	<circle class="st9" cx="320.7" cy="638.8" r="4.5"/>
	<circle class="st9" cx="405.9" cy="569.9" r="4.5"/>
	<circle class="st9" cx="381.2" cy="402.9" r="4.5"/>
	<circle class="st9" cx="417.7" cy="516" r="4.5"/>
	<circle class="st9" cx="343.2" cy="437" r="4.5"/>
	<circle class="st9" cx="340.6" cy="511.6" r="4.5"/>
	<circle class="st9" cx="605.1" cy="645.3" r="4.5"/>
	
		<ellipse transform="matrix(0.1602 -0.9871 0.9871 0.1602 -160.3965 1192.0538)" class="st9" cx="620.3" cy="690.3" rx="4.5" ry="4.5"/>
	<circle class="st9" cx="640.3" cy="735.3" r="4.5"/>
	<circle class="st9" cx="689.1" cy="727.3" r="4.5"/>
	<circle class="st9" cx="691.6" cy="678.8" r="4.5"/>
	<circle class="st9" cx="830.2" cy="711.2" r="4.5"/>
	<circle class="st9" cx="785.9" cy="770.3" r="4.5"/>
	<circle class="st9" cx="738.5" cy="757.4" r="4.5"/>
	<circle class="st9" cx="752" cy="704.1" r="4.5"/>
	<path class="st8" d="M819,485.4c14.6,4.7,26.5,15.5,34.8,28.2c2.3,3.6,4.4,7.4,6.2,11.3c0.8,1.7,3.2,0.2,2.5-1.4
		c-6.6-14.3-17-27.3-30.6-35.4c-3.8-2.3-7.9-4.1-12.1-5.4C818,482.1,817.2,484.8,819,485.4z"/>
	<circle class="st9" cx="463" cy="1088.3" r="4.5"/>
	<circle class="st9" cx="515.3" cy="1044.8" r="4.5"/>
	<circle class="st9" cx="416" cy="1000.7" r="4.5"/>
	<circle class="st9" cx="400.4" cy="1047.1" r="4.5"/>
	<circle class="st9" cx="400.4" cy="1125.9" r="4.5"/>
	<circle class="st9" cx="354" cy="1104.9" r="4.5"/>
	<circle class="st9" cx="644.6" cy="902.6" r="4.5"/>
	<circle class="st9" cx="656.4" cy="875.9" r="4.5"/>
	<circle class="st9" cx="702.5" cy="403.4" r="4.5"/>
	<circle class="st9" cx="717.6" cy="448.1" r="4.5"/>
	<circle class="st9" cx="865.9" cy="254.1" r="4.5"/>
	<circle class="st9" cx="850.5" cy="225.3" r="4.5"/>
	<circle class="st9" cx="826.2" cy="192" r="4.5"/>
	<circle class="st9" cx="796.8" cy="221.5" r="4.5"/>
	<circle class="st9" cx="791" cy="252.9" r="4.5"/>
	<circle class="st9" cx="846.1" cy="399.2" r="4.5"/>
	<circle class="st9" cx="751.2" cy="405.9" r="4.5"/>
	<circle class="st9" cx="792.7" cy="465.3" r="4.5"/>
	<circle class="st9" cx="863.3" cy="467.3" r="4.5"/>
	<circle class="st9" cx="862.2" cy="529.3" r="4.5"/>
	<circle class="st9" cx="839" cy="577.1" r="4.5"/>
	<circle class="st9" cx="533.5" cy="177.4" r="4.5"/>
	<circle class="st9" cx="551.7" cy="149.8" r="4.5"/>
	<circle class="st9" cx="598.5" cy="117" r="4.5"/>
	<circle class="st0" cx="736.3" cy="615.8" r="67.9"/>
	<path class="st1" d="M798.9,611.2c-2.9,2.6-6.7,4.1-10.6,4.1H788c-9.5-0.2-19.4-8.7-29.6-25.4c-7.8-12.7-17.7-20.5-29.5-23.2
		c-17.5-4-34.1,4.2-38.8,6.8c-5.8,6.2-10.2,13.5-13.1,21.5c6.6-4.2,18.8-10.2,32.4-7.9c12.5,2.1,23.2,10.7,31.8,25.5
		c7.1,14.2,15.9,22.5,26.1,24.8c13.9,3.1,26.7-6,30.3-8.8l0.2-0.1c0.8-4,1.2-8.2,1.2-12.3C799.1,614.6,799,613,798.9,611.2z"/>
	<path class="st2" d="M729.9,562.7c12.9,3,23.8,11.4,32.1,25.1c11.6,19.1,20.6,23.2,26,23.3h0.2c5.8,0,9.3-4.4,9.9-5.3
		c-5.8-34.2-38.3-57.2-72.5-51.4c-8.9,1.5-17.4,4.9-24.8,10C708.7,562,719.1,560.2,729.9,562.7z"/>
	<path class="st3" d="M699.7,621.6c9.5,0.7,18,8.6,25.1,23.5c6.7,13.3,15.2,21.2,25.4,23.7c12,2.8,23.2-2.7,27.7-5.4
		c8.7-7.7,15.1-17.8,18.5-28.9c-5,3.3-13.5,7.7-23.3,7.7c-2.2,0-4.5-0.2-6.6-0.7c-11.4-2.5-21-11.5-28.7-26.7
		c-8-13.7-17.7-21.6-29-23.6c-15.7-2.7-30,7.3-33.6,10c-2.7,10.9-2.5,22.3,0.7,33.1C679.7,629.8,688.7,620.7,699.7,621.6z"/>
	<path class="st4" d="M757.2,673.4c-2.7,0-5.3-0.3-7.9-0.9c-11.4-2.7-20.8-11.4-28-25.7c-6.5-13.5-13.9-20.7-21.9-21.4
		c-11.6-0.9-21.2,12.1-22,13.2c12.3,32.5,48.6,48.8,81.1,36.5c1.9-0.7,3.7-1.5,5.5-2.4C761.7,673.2,759.5,673.4,757.2,673.4z"/>
	<circle class="st10" cx="491.1" cy="847.3" r="76.8"/>
	<path class="st1" d="M562,842.1c-3.3,3-7.6,4.6-12,4.7h-0.3c-10.7-0.2-22-9.8-33.5-28.7c-8.8-14.3-20-23.2-33.3-26.2
		c-19.8-4.6-38.6,4.8-43.9,7.7c-6.5,7-11.6,15.3-14.8,24.4c7.5-4.8,21.3-11.5,36.7-8.9c14.1,2.4,26.2,12.1,36,28.9
		c8.1,16.1,18,25.5,29.5,28c15.8,3.5,30.3-6.8,34.3-10l0.2-0.2c0.9-4.6,1.4-9.2,1.4-13.9C562.3,846,562.2,844.1,562,842.1z"/>
	<path class="st2" d="M484,787.2c14.7,3.4,26.9,12.9,36.4,28.4c13.2,21.6,23.3,26.3,29.4,26.4h0.2c6.6,0,10.5-5,11.3-6
		c-6.6-38.7-43.4-64.8-82.1-58.2c-10.1,1.7-19.7,5.6-28.1,11.3C460,786.3,471.7,784.4,484,787.2z"/>
	<path class="st3" d="M449.8,853.8c10.8,0.8,20.3,9.8,28.4,26.6c7.5,15,17.2,24,28.8,26.8c13.5,3.2,26.2-3,31.4-6.1
		c9.9-8.8,17.1-20.1,20.9-32.8c-5.7,3.7-15.3,8.7-26.3,8.7c-2.5,0-5-0.3-7.5-0.8c-12.9-2.9-23.8-13-32.4-30.2
		c-9-15.5-20.1-24.5-32.9-26.7c-17.8-3-34,8.2-38.1,11.3c-3.1,12.3-2.8,25.3,0.8,37.5C427.1,863.2,437.2,852.8,449.8,853.8z"/>
	<path class="st4" d="M514.9,912.5c-3,0-6-0.3-8.9-1c-12.9-3.1-23.5-12.9-31.7-29.1c-7.4-15.3-15.8-23.5-24.8-24.2
		c-13.1-1.1-24,13.7-24.9,15c14,36.7,55.1,55.2,91.8,41.3c2.1-0.8,4.2-1.7,6.2-2.7C520,912.3,517.4,912.5,514.9,912.5z"/>
</g>
</svg>
