<svg id="Layer_4" data-name="Layer 4" xmlns="http://www.w3.org/2000/svg" xmlns:xlink="http://www.w3.org/1999/xlink" viewBox="0 0 1750 700"><defs><style>.cls-1,.cls-7{fill:none;}.cls-2{clip-path:url(#clip-path);}.cls-3,.cls-5{fill:#2b5a6d;}.cls-4,.cls-6{fill:#417180;}.cls-5,.cls-6{stroke:#2b5a6d;stroke-linecap:round;}.cls-5,.cls-6,.cls-7{stroke-miterlimit:10;stroke-width:5px;}.cls-7{stroke:#5f8d95;}</style><clipPath id="clip-path"><rect class="cls-1" x="-2.5" y="-2.5" width="1756" height="700"/></clipPath></defs><g class="cls-2"><g id="Layer_3" data-name="Layer 3"><path class="cls-3" d="M-149.19,527.1c56-81.34,169-103.15,266.61-88.11s188.34,59,284.36,82a683.42,683.42,0,0,0,346.88-7.67c77.4-22.26,150.24-58.09,226.9-82.74s160.55-37.77,237.32-13.46c6.4,2,13.58,5.19,15.33,11.67,1.27,4.69-.84,9.63-3.5,13.69-7.94,12.12-20.76,20.09-30.53,30.78s-16.38,27.15-8.78,39.48c8.16,13.25,26.88,13.78,42.39,12.59,161.19-12.43,325.59-44.86,482.45-5.73,27.26,6.8,54.86,16.21,75.69,35.08s33.35,49.23,24.25,75.81c-8.9-205.06-11.88-404.56-20.78-609.63-.33-7.49-1-15.75-6.32-21-5.18-5.1-13.14-5.77-20.4-6.14L1411.37-24.18c-160.73-8.21-321.62-16.42-482.53-13.35-155,3-310,16.36-464.88,10.44-93.27-3.56-186.52-14.13-279.74-9.36C121.13-33.23,58.64-23-3.7-12.79-14.68-11-26.62-8.68-33.84-.22c-6.94,8.15-7.6,19.76-7.92,30.47q-5,165-10,329.91c-1.41,46.77-8.36,102.66-50.35,123.32"/></g><g id="Layer_2" data-name="Layer 2"><path class="cls-4" d="M1433.31,294.15c-.19-8.38.26-35.18,19.5-60.08,22.6-29.23,54.9-34.87,64.06-36.1,8.57-1.14,32.43-4.18,56.13,9,31.62,17.64,50.14,55.52,45.34,91.24s-32.21,67.29-66.88,78.06-74.83.62-100.58-24.71q13.08-12.86,27.17-26,18-16.66,35.51-31.76-25.75.64-52.6.57Q1447,294.4,1433.31,294.15Z"/><path class="cls-5" d="M1517.84,344.48a173.47,173.47,0,0,1,14.42-30.73"/><path class="cls-5" d="M1512.07,259.69l-23.58-9.27"/><path class="cls-5" d="M1575.13,333.35l-5.63-15.84"/><path class="cls-5" d="M1545.57,246.75a65,65,0,0,0-3.39-16.85"/><path class="cls-5" d="M1599.8,288.37a127.46,127.46,0,0,1-17.19-7.95"/><path class="cls-5" d="M1582.68,245.7l-10.26,11.19"/><path class="cls-4" d="M166.55,82.15c-4.52-.11-39-.35-59.52,26.14-11.59,14.94-13.14,31.13-13.71,37.91-.71,8.63-.93,30.35,13.8,50.55,4.53,6.21,22.52,28.79,51.78,29.88,40.65,1.5,62.95-40,63.9-41.84,18.73-36.25.29-72.2-1.52-75.6-8.29,6.75-17.57,13.76-27.87,20.75s-20.2,13-29.52,18.21c-.08-10.29.06-21,.5-32.16C164.85,104.22,165.59,92.92,166.55,82.15Z"/><path class="cls-6" d="M211.61,153.18l-24.74,6.66"/><path class="cls-6" d="M145.14,131.69a158.59,158.59,0,0,0-2.4-24.71"/><path class="cls-6" d="M128.85,149.87l-13.63-7"/><path class="cls-6" d="M172.53,194.65l-2.39-13"/><path class="cls-6" d="M142.15,176.15,131.59,194"/><path class="cls-7" d="M-72.2,355.39C31.9,331.12,144.62,345.82,239,396c69,36.68,127.56,91,196.8,127.28,84.94,44.55,182.65,60.09,278.57,59.64,283.1-1.32,556.4-135.1,838.8-115.21,110.32,7.77,224.74,43,297.69,126.13"/><path class="cls-7" d="M-25.25,398.32c65.94-24.13,140.62-6.93,203.14,25S294.71,501,354.07,538.55A769.54,769.54,0,0,0,720.63,655.74c299.59,16.59,597.55-142.37,891.24-80.94a612.23,612.23,0,0,1,270.62,132.81"/></g></g></svg>