<?xml version="1.0" encoding="utf-8"?>
<!-- Generator: Adobe Illustrator 25.4.1, SVG Export Plug-In . SVG Version: 6.00 Build 0)  -->
<svg version="1.1" id="Layer_4" xmlns="http://www.w3.org/2000/svg" xmlns:xlink="http://www.w3.org/1999/xlink" x="0px" y="0px"
	 viewBox="0 0 1753 290" style="enable-background:new 0 0 1753 290;" xml:space="preserve">
<style type="text/css">
	.st0{clip-path:url(#SVGID_00000080918096721710720550000001348770458802974884_);}
	.st1{fill:#2B5A6D;}
	.st2{fill:none;stroke:#5F8D95;stroke-width:5;stroke-miterlimit:10;}
</style>
<g>
	<defs>
		<rect id="SVGID_1_" x="-2.3" y="-0.8" width="1756" height="302.2"/>
	</defs>
	<clipPath id="SVGID_00000095328028920543526020000011372926184318161330_">
		<use xlink:href="#SVGID_1_"  style="overflow:visible;"/>
	</clipPath>
	<g style="clip-path:url(#SVGID_00000095328028920543526020000011372926184318161330_);">
		<g id="Layer_3">
			<path class="st1" d="M-149,280.4c56-46.1,169-58.5,266.6-49.9s188.3,33.4,284.4,46.5c113.7,15.5,234.5,14,346.9-4.3
				c77.4-12.6,150.2-32.9,226.9-46.9s160.6-21.4,237.3-7.6c6.4,1.1,13.6,2.9,15.3,6.6c1.3,2.7-0.8,5.5-3.5,7.8
				c-7.9,6.9-20.8,11.4-30.5,17.4s-16.4,15.4-8.8,22.4c8.2,7.5,26.9,7.8,42.4,7.1c161.2-7,325.6-25.4,482.4-3.2
				c27.3,3.8,54.9,9.2,75.7,19.9c20.8,10.7,33.4,27.9,24.2,43c-8.9-116.2-11.9-229.3-20.8-345.5c-0.3-4.2-1-8.9-6.3-11.9
				c-5.2-2.9-13.1-3.3-20.4-3.5l-351.3-10.2c-160.7-4.7-321.6-9.3-482.5-7.6c-155,1.7-310,9.3-464.9,5.9c-93.3-2-186.5-8-279.7-5.3
				C121.3-37.2,58.8-31.4-3.5-25.6c-11,1-22.9,2.3-30.1,7.1c-6.9,4.6-7.6,11.2-7.9,17.3c-3.3,62.3-6.7,124.7-10,187
				c-1.4,26.5-8.4,58.2-50.3,69.9"/>
			<path class="st2" d="M-73.9,75.7c104.1-17,216.8-6.7,311.2,28.4c69,25.7,127.6,63.6,196.8,89.1c84.9,31.2,182.7,42,278.6,41.7
				c283.1-0.9,556.4-94.5,838.8-80.6c110.3,5.4,224.8,30.1,297.7,88.2"/>
			<path class="st2" d="M-27,98.1c65.9-16.9,140.6-4.8,203.1,17.5s116.8,54.4,176.2,80.6c109.6,48.5,237.1,77,366.5,82
				c299.6,11.6,597.5-99.6,891.2-56.6c99.4,14.6,193.4,46.8,270.6,92.9"/>
		</g>
	</g>
</g>
</svg>
