<svg xmlns="http://www.w3.org/2000/svg" xmlns:xlink="http://www.w3.org/1999/xlink" viewBox="0 0 1440 1728"><defs><style>.cls-1,.cls-13{fill:none;}.cls-2,.cls-3,.cls-4,.cls-5,.cls-6{stroke:#afe6ff;}.cls-12,.cls-13,.cls-18,.cls-19,.cls-2,.cls-20,.cls-21,.cls-3,.cls-4,.cls-5,.cls-6{stroke-miterlimit:10;}.cls-12,.cls-13,.cls-2,.cls-3,.cls-4,.cls-5,.cls-6{stroke-width:7px;}.cls-2{fill:url(#linear-gradient);}.cls-3{fill:url(#linear-gradient-2);}.cls-4{fill:url(#linear-gradient-3);}.cls-5{fill:#7474ec;}.cls-6{fill:url(#linear-gradient-4);}.cls-7{fill:#f6a079;}.cls-8{fill:url(#linear-gradient-5);}.cls-22,.cls-9{fill:#ffe9b2;}.cls-10{fill:url(#linear-gradient-6);}.cls-11,.cls-19,.cls-21{fill:#afe6ff;}.cls-12,.cls-15,.cls-18,.cls-20{fill:#4f7dde;}.cls-12,.cls-13,.cls-22{stroke:#f6a079;}.cls-14{fill:#34375a;}.cls-16{fill:#485f94;}.cls-17{clip-path:url(#clip-path);}.cls-18,.cls-19,.cls-20,.cls-21{stroke:#34375a;}.cls-18,.cls-21{stroke-width:2px;}.cls-22{stroke-linejoin:round;stroke-width:3px;}</style><linearGradient id="linear-gradient" x1="603.92" y1="563.76" x2="603.92" y2="1394.32" gradientUnits="userSpaceOnUse"><stop offset="0" stop-color="#f6a079"/><stop offset="0.18" stop-color="#f19e7d"/><stop offset="0.4" stop-color="#e39a8a"/><stop offset="0.62" stop-color="#cc929e"/><stop offset="0.85" stop-color="#ad87ba"/><stop offset="1" stop-color="#947fd0"/></linearGradient><linearGradient id="linear-gradient-2" x1="800.69" y1="1309.62" x2="737.56" y2="1418.96" gradientUnits="userSpaceOnUse"><stop offset="0" stop-color="#f6a079"/><stop offset="0.09" stop-color="#e1998b"/><stop offset="0.28" stop-color="#ba8cae"/><stop offset="0.47" stop-color="#9c81c9"/><stop offset="0.66" stop-color="#867adc"/><stop offset="0.84" stop-color="#7876e8"/><stop offset="1" stop-color="#7474ec"/></linearGradient><linearGradient id="linear-gradient-3" x1="641.86" y1="1462.99" x2="723.25" y2="1544.39" gradientUnits="userSpaceOnUse"><stop offset="0" stop-color="#f6a079"/><stop offset="0.01" stop-color="#f09e7e"/><stop offset="0.08" stop-color="#cf939b"/><stop offset="0.16" stop-color="#b389b5"/><stop offset="0.25" stop-color="#9c81c9"/><stop offset="0.34" stop-color="#8a7bd9"/><stop offset="0.46" stop-color="#7d77e4"/><stop offset="0.63" stop-color="#7675ea"/><stop offset="1" stop-color="#7474ec"/></linearGradient><linearGradient id="linear-gradient-4" x1="725.17" y1="1122.37" x2="725.17" y2="1172.84" gradientUnits="userSpaceOnUse"><stop offset="0" stop-color="#f6a079"/><stop offset="0.27" stop-color="#ca91a0"/><stop offset="0.6" stop-color="#9c81c9"/><stop offset="0.86" stop-color="#7f78e2"/><stop offset="1" stop-color="#7474ec"/></linearGradient><linearGradient id="linear-gradient-5" x1="788.09" y1="633.37" x2="474.31" y2="1176.84" gradientUnits="userSpaceOnUse"><stop offset="0" stop-color="#ffe9b2"/><stop offset="0.27" stop-color="#fce7b3"/><stop offset="0.46" stop-color="#f3dfb7"/><stop offset="0.63" stop-color="#e3d2be"/><stop offset="0.78" stop-color="#cdbfc7"/><stop offset="0.92" stop-color="#b1a7d2"/><stop offset="1" stop-color="#9f98da"/></linearGradient><linearGradient id="linear-gradient-6" x1="786.89" y1="637.25" x2="572.4" y2="1008.75" gradientUnits="userSpaceOnUse"><stop offset="0" stop-color="#afe6ff"/><stop offset="0.39" stop-color="#aee4ff"/><stop offset="0.6" stop-color="#aadcfd"/><stop offset="0.77" stop-color="#a3cefb"/><stop offset="0.92" stop-color="#99bbf8"/><stop offset="1" stop-color="#91acf5"/></linearGradient><clipPath id="clip-path"><rect class="cls-1" x="744.37" y="499.77" width="141.12" height="120.56" transform="translate(-96.46 943.65) rotate(-57.32)"/></clipPath></defs><g id="fire3"><path class="cls-2" d="M670.25,563.76c-29.62,31.86-72.28,45.89-113.09,52s-82,5.67-122.48,15.23-82,31.41-103.74,69.22c-5.05,8.76-9,18.94-7.17,28.41,3.68,18.95,26.78,24,38.3,38.61,17.81,22.55,3,59-15.9,83.93-17.85,23.61-39,44.38-60.5,64.44C249.8,949,209.66,986,203.09,1034c-6.13,44.77,20.92,86.16,57.33,106.79S341,1164.87,384,1164.32c32.51-.42,70-.79,88.93,25,18.26,24.87,10.21,61.8,12.53,94.07,2.72,38,21.95,73.1,51.89,92.94s70.14,23.72,105.51,9.33c13.14-5.34,25.87-13.33,34.7-25,20.24-26.81,14.5-64,2.93-93.32s-28.14-58-26.27-90.7c2.14-37.47,31.09-73.33,66.28-84.47,71.64-22.7,139.55,48.71,211.55,27.77,23.88-7,45.61-24.26,58.63-46.71,24.25-41.82,16.14-93.89-3.58-134.39s-49.63-74.21-70-114.33-30-91.45-7.52-134.21"/><path class="cls-3" d="M740.08,1349.43c-4.72,16.42-10.8,33.08-9.21,50.1.6,6.45,2.44,13,6.68,17.91a28.39,28.39,0,0,0,10,7.06c12,5.3,26.24,4.43,38.06-1.19s21.24-15.69,27.23-27.34c12-23.42,9.78-53.53-5.66-74.88-9.39-13-37.65-35.46-55.75-29.59C738.06,1295.85,744.34,1334.61,740.08,1349.43Z"/><path class="cls-4" d="M648.93,1493.72c.23,15.72,3.87,31.87,13.35,44.42s25.54,20.79,41,18.1,28.58-18.09,26.08-33.62c-1.3-8-6.2-15-11.41-21.24-8.48-10.19-18.34-19.3-26.2-30-4.17-5.67-11-27.58-16.66-30.08C652.16,1431.1,648.75,1481.93,648.93,1493.72Z"/><path class="cls-5" d="M772.7,1601.06c22.85-3.55,31-40.3,3.8-42.52C750,1556.38,743,1605.68,772.7,1601.06Z"/><path class="cls-6" d="M753.06,1163.49c-8,10-23.85,10.5-43.57,8.27-2.46-.27-4.32-.68-5.76-1-4.46-.88-8.78-2.68-10.52-6.67-3.24-7.43,3.78-18.89,12-26,2.78-2.41,22.65-22.11,39.27-13.61,9.65,4.93,12.56,16.47,13.33,20.15C758.59,1155.63,754.85,1161.28,753.06,1163.49Z"/></g><g id="Layer_11" data-name="Layer 11"><path class="cls-7" d="M339.44,733.89c2.17.75,8.59,1.92,26.46-2.2a92,92,0,0,0,24.75-9.6c-15.68,13.73-22.82,36.5-17.77,56.72s22.05,37,42.35,41.71c6.11,1.43,12.64,1.92,18,5.21,10.6,6.55,12.26,22.2,6.78,33.38s-16.11,18.83-26.56,25.61c-53.33,34.56-114.88,60.61-153.38,111.17-11.34,14.89-20.56,32.52-20.25,51.23s12.66,38.11,31.07,41.45c5.92,1.07,12.89.89,16.67,5.57,5.3,6.56-.33,16.15.08,24.58.6,12.47,14.36,20,26.72,21.76s25.58.33,36.71,6c5.15,2.61,9.53,6.61,14.81,8.94,24.14,10.65,46.91-16.78,71.78-25.59,18.9-6.69,41.8-1.2,54.78,14.08s14.43,39.56,2.49,55.66c9.34-7.94,24.85-3,31.9,7.07s7.84,23.06,7.81,35.33c-.07,29.8-2.41,63,16.77,85.77,5,5.93,11.66,11,19.36,11.75,19.4,1.94,30.45-21.61,33.41-40.87,9.64-62.73-2.21-129.71,22.8-188,7-16.33,17.45-32.1,33.15-40.41,18.54-9.82,41-7.63,61.54-3.35,35.39,7.39,69.62,20.24,105.44,25.09s75.11.52,102.83-22.69,37.74-69.09,13.94-96.3c12.16-12.19,25.94-30.24,24.48-51-.9-12.74-6.91-17.57-23.34-41.91-18.23-27-36.57-54.63-45-88-4.18-16.56-4.55-29.11-5-43.31-1.65-56.58,16.09-70.1,12.89-104.72-3.45-37.27-26.42-71.55-58-91.59s-71-26.31-107.94-20.24c-10.92,1.8-21.79,4.67-31.52,9.94-10.23,5.53-18.87,13.51-27.88,20.86a274,274,0,0,1-118.69,56.22c-42.13,8.44-85.74,6.69-128,14.25A186.88,186.88,0,0,0,396.22,645c-1.12.46-2.05.84-3.26,1.38-5,2.21-20.93,9.79-43,33.66-9.15,9.91-15.44,18.4-20,29-3.35,7.79-4.09,12.82-2,17C330.56,731.12,336.42,732.83,339.44,733.89Z"/></g><g id="fire2"><path class="cls-8" d="M679.51,576.42c-7,21-27.6,34.44-47.35,43.19-39.95,17.69-82.64,24.69-123.75,38.24s-83,35.69-107.2,73.65c-5.08,7.94-9.37,16.79-9.87,26-1,19,14.72,33.61,31.82,38.86s35.86,3.85,53.78,6.08c8.59,1.07,17.46,3.22,23.35,9.42,8.63,9.08,8.39,24.79,2.62,37.19s-16,22.13-26.3,31c-29.89,25.7-62.94,47.41-90.49,75.85s-49.76,66-48.87,104.54c.37,16.16,5.08,32.2,15.27,43.58s26.27,17.43,41.7,13.45c27.06-7,41.4-38.89,49.4-66.77,2.7-9.42,5.3-19.13,11-27.22s15.24-14.27,24.16-12.55c11.31,2.19,16.56,15.76,15.92,27.95s-5.36,24.17-6.54,36.37C485,1107.27,509.07,1136,539,1141.05s62.75-10.86,83.68-36.2c30.29-36.67,41-92.67,82.18-114.06,7.4-3.83,15.58-6.24,23.47-5.54,17.1,1.52,28.61,16.51,41.15,27.81,21.75,19.6,52.2,29.94,82.09,23.73s58.08-30.48,66.35-61.2c6.52-24.2.71-49.1-8.12-71.1-14-35-35.7-66.16-45.52-103s-4.2-83.63,26.71-108.73"/></g><g id="Layer_14" data-name="Layer 14"><path class="cls-9" d="M686.42,563.55c2.45-2.11,3.85,3.56,2.16,6.33-29.66,48.76-83.54,77.48-137.51,96-29.38,10.09-62.55,20.18-77.62,47.34-2.39,4.29-4.25,9.19-3.4,14,1.36,7.79,9.57,12.87,17.46,13.35s15.54-2.52,22.87-5.48c-15.35,11.09-14.23,38.21,2,48,8.82,5.32,20,5.68,28.65,11.35,12.36,8.14,15.87,25.54,11.79,39.77s-14.15,25.9-24.48,36.5a447.94,447.94,0,0,1-58.92,50.67c-24.76,17.87-53,35.55-62.8,64.46-2.06,6.09-2.47,14.27,3.1,17.48,2.71,1.56,6.09,1.38,9.14.7,11.25-2.49,20.22-10.64,30-16.74,15.84-9.88,36-14.58,53.47-8s30.29,26.44,25,44.35c-2,6.68-6.1,12.48-9,18.8-7.49,16-6.33,36.8,5.94,49.54s36.07,13.4,46.62-.8c6.29-8.47,7-19.68,8.45-30.13s4.85-21.87,14-27.18,24.21,1.54,22.12,11.88c7.56-33.24,24.6-64.92,51-86.55s62.44-32.27,95.65-24.55c14.27,3.31,28.79,10.88,34.75,24.26,2.39,5.37,3.23,11.29,5.17,16.83,8.29,23.71,39.19,36.33,61.71,25.21s31.29-43.32,17.51-64.32c-6.65-10.13-17.16-17.19-24.18-27.07s-9.25-25.41.29-32.89c3.21-2.52,7.38-3.8,10.06-6.87,6.29-7.24.59-18.18-4.33-26.42A137.66,137.66,0,0,1,843.8,766.3c.81-15.61,4.63-31.73,14.79-43.61,8.32-9.73,20-15.72,31.08-22.22a293.79,293.79,0,0,0,40.1-28.35c7.5-6.31,15.13-13.77,16.64-23.46,1.08-6.9-1.16-13.88-4.08-20.21-14.43-31.29-45.29-52.21-77.55-64.31C805.56,541.92,736.1,545.63,682,578.35"/></g><g id="fire1"><path class="cls-10" d="M687.23,610.58a315.5,315.5,0,0,1,92.15,23.6c8.09,3.45,16.11,7.3,22.84,13,7.36,6.18,15.79,16.44,25.6,16.83C809,670.24,799,694,800.38,713.89s10.9,37.33,18.14,55.32c9.11,22.65,14.82,47.79,10.85,73.1s-19,50.7-41.78,61.9c-12.21,6-27.07,7.39-37.45,0-9.86-7-13.77-20.45-13.59-33.39s3.8-25.81,6.23-38.7a215.24,215.24,0,0,0,3.76-39.9c0-12.4-3.74-27.68-15.56-28.62-9-.71-16.89,7.85-21.62,16.34-14.35,25.7-14.55,55.89-18,84.57-4,33.7-13.47,68.25-34.16,96s-54.28,47.29-86,43c-8.09-1.08-16-3.72-22.24-8.8-16.85-13.72-17.15-41-10.59-63.78,9.53-33.06,30.17-62.4,53.28-88.14,28.86-32.14,63.33-61.7,78.44-102.07,3.16-8.44,4.46-19.83-2.8-23.73-6.34-3.4-14.4,1.66-20.29,6.85-25,22-45.07,51.55-74.49,65.63-7.67,3.67-17.14,6-23.36,1C541,784,544,770,548.8,759.62c13.09-28.1,34.85-51.48,58.48-71.19s49.39-36.26,73.85-54.77c6.72-5.08,14.15-12,13.48-20.21"/></g><g id="Layer_13" data-name="Layer 13"><path class="cls-11" d="M674,635.82c-15.59,6.5-32.73,8-48.75,13.3s-32,16-36.45,32.59c-3.31,12.45,4,28.9,16.61,28.77-5.15.47-5.25,9.3-.73,11.87s10.16.68,14.77-1.71c10.25-5.34,19.25-12.95,29.51-18.27s22.71-8.17,33.2-3.34c14.08,6.48,19.65,25.13,15.93,40.44s-14.5,27.75-25.87,38.44c-29.12,27.37-65,48.49-86.22,82.63-6.33,10.19-11.24,21.58-12.25,33.6s2.26,24.77,10.45,33.46a27.05,27.05,0,0,0,13.36,8c13.6,3.13,26.67-7,35.44-18.12,26.16-33,33.47-77.15,50.39-116,5.09-11.68,11.39-23.31,21.35-31s24.37-10.7,35.13-4.17c14.2,8.63,16.25,28.81,14,45.55-1.62,12.12-4.49,25.18,1,36,6.32,12.42,22.91,17.24,35.55,11.86s20.78-19.14,21.76-33.1-4.39-27.84-12.68-39c11.13-9.78,7.68-28.46.16-41.35s-18.39-24.69-20-39.61c-.42-3.8,0-8.06,2.62-10.76a13.43,13.43,0,0,1,6.33-3.14c12.11-3.22,24.93-2,37.27-4.13a70.91,70.91,0,0,0,36.4-18.24c3.35-3.16,6.49-6.8,7.81-11.26,1.62-5.5.24-11.46-1.79-16.82-7.29-19.19-22.78-34.34-40.59-43.93s-37.87-14.06-57.87-16.36c-12-1.37-24.27-2-35.85,1.35-11.83,3.41-23.81,11-29.68,22.25C697,619.67,688.75,629.67,674,635.82Z"/></g><g id="bottom"><ellipse class="cls-12" cx="838.27" cy="519.96" rx="171.45" ry="306.45" transform="translate(-51.97 944.85) rotate(-57.32)"/><path class="cls-13" d="M687.24,548.72c-2.84,7.14-9.1,26.17-1.68,51A100.42,100.42,0,0,0,706,636.14"/><path class="cls-13" d="M884.72,674.7c-5.3,5.56-20,19.19-45.62,22.79a100.62,100.62,0,0,1-41.67-3.39"/></g><g id="top"><ellipse class="cls-14" cx="856.78" cy="491.73" rx="144" ry="347.34" transform="translate(-19.69 947.44) rotate(-57.32)"/><path class="cls-7" d="M1152.05,681.12a67.92,67.92,0,0,1-18.26,19,84,84,0,0,1-11.31,6.72,108.23,108.23,0,0,1-12.09,5,139.16,139.16,0,0,1-25.23,5.84,193.8,193.8,0,0,1-25.65,1.82,305.36,305.36,0,0,1-50.94-4.18,455.29,455.29,0,0,1-49.72-11.09c-16.34-4.58-32.44-10-48.3-15.94s-31.46-12.62-46.79-19.83c-7.67-3.59-15.26-7.35-22.81-11.2s-15-7.81-22.41-11.94c-14.79-8.24-29.3-17-43.57-26.07a822.21,822.21,0,0,1-81.8-60.13,640.11,640.11,0,0,1-72.67-71.08,443.32,443.32,0,0,1-31.19-40.41,303.14,303.14,0,0,1-25.42-44.58,191.34,191.34,0,0,1-9.2-24.22,138.9,138.9,0,0,1-5.31-25.65,110.61,110.61,0,0,1-.52-13.27,87,87,0,0,1,1.43-13.33,67.19,67.19,0,0,1,28.87-44.18,85.62,85.62,0,0,1,11.56-6.6A109.14,109.14,0,0,1,603,271a136.66,136.66,0,0,1,25.41-5.34,191.84,191.84,0,0,1,25.66-1.26,300.61,300.61,0,0,1,50.63,5.36A463.68,463.68,0,0,1,753.87,282c32.3,9.82,63.56,22.65,93.85,37.32a816.6,816.6,0,0,1,87.82,49.6q21.18,13.69,41.55,28.59c13.56,9.93,26.86,20.25,39.77,31,25.86,21.49,50.43,44.63,72.68,69.93A453.09,453.09,0,0,1,1121,538.06a301.5,301.5,0,0,1,25.76,43.68,191.11,191.11,0,0,1,9.44,23.7,135.56,135.56,0,0,1,5.63,25.08,107.46,107.46,0,0,1,.72,13,84,84,0,0,1-1.18,13A67.79,67.79,0,0,1,1152.05,681.12Zm-5.8-3.72a60.91,60.91,0,0,0,8.68-22,76.18,76.18,0,0,0,1.26-12,101,101,0,0,0-.49-12.16,129.57,129.57,0,0,0-5-24,183.85,183.85,0,0,0-8.83-23.16,293.48,293.48,0,0,0-24.75-43.25,446.17,446.17,0,0,0-30.62-39.6,632.79,632.79,0,0,0-71.84-69.93,791,791,0,0,0-81.12-59.12,813.31,813.31,0,0,0-87.83-48.51,629.93,629.93,0,0,0-93.54-35.71,434.37,434.37,0,0,0-48.67-11.17A293.9,293.9,0,0,0,654,272.43a184.08,184.08,0,0,0-24.55,1.67,128.26,128.26,0,0,0-23.68,5.45,98.62,98.62,0,0,0-11.07,4.57,77.19,77.19,0,0,0-10.16,6.06,57.18,57.18,0,0,0-24,38.28,77.06,77.06,0,0,0-1,11.69,100.33,100.33,0,0,0,.7,11.85,127.16,127.16,0,0,0,5.35,23.46,186.29,186.29,0,0,0,9.08,22.64,291.85,291.85,0,0,0,25.09,42.35,457.08,457.08,0,0,0,30.87,38.78c21.94,24.83,46.26,47.6,71.85,68.78A806.61,806.61,0,0,0,783.1,606.6q21,13.47,42.74,25.71c14.48,8.15,29.16,16,44.12,23.21s30.08,14.13,45.47,20.37,31,12,46.82,16.88a443.84,443.84,0,0,0,48.14,12.28,289,289,0,0,0,49.15,5.49,186,186,0,0,0,24.55-1.12,126.14,126.14,0,0,0,23.85-4.95,100.07,100.07,0,0,0,11.25-4.39,77.89,77.89,0,0,0,10.41-5.93A60.75,60.75,0,0,0,1146.25,677.4Z"/></g><g id="dome"><path class="cls-14" d="M1101.94,554.11c-60.7,48.37-193-24.28-221.1-39.73-72.71-39.93-199.46-137.12-179.5-215.87,21-82.8,202.77-139.79,322.39-63.54C1144.07,311.68,1167.69,501.72,1101.94,554.11Z"/><path class="cls-15" d="M1104.79,557.68a73.38,73.38,0,0,1-18.14,10.62,90.85,90.85,0,0,1-20.05,5.57c-13.64,2.2-27.38,1.84-40.78.22-26.85-3.34-52.55-11.44-77.32-21.16C936.09,548.05,924,542.59,912,536.79s-23.72-12-35.3-18.43-23-13.51-34-20.84-21.93-15-32.52-23a499,499,0,0,1-59.81-52.78,300,300,0,0,1-25.76-30.75A184.1,184.1,0,0,1,704.24,356c-5.36-12.45-9-26-9-39.93a75.21,75.21,0,0,1,11.32-39.5c7.12-11.78,16.62-21.76,27.06-30.25a186.24,186.24,0,0,1,33.89-21.59,247.56,247.56,0,0,1,37.12-14.9,293.12,293.12,0,0,1,118.31-11.56,245.66,245.66,0,0,1,76.68,20.91c6,2.81,12,5.82,17.73,9.19s11.39,6.92,16.79,10.82,10.68,8,15.72,12.33,9.94,8.87,14.57,13.65a262.67,262.67,0,0,1,46,64.9,296.51,296.51,0,0,1,26,75.3c5.18,26.13,7,53.16,3.34,79.88a149,149,0,0,1-10.63,39.13,100.85,100.85,0,0,1-10.09,18A80.11,80.11,0,0,1,1104.79,557.68Zm-5.69-7.14a70.47,70.47,0,0,0,12.77-13.37,92,92,0,0,0,9.42-16.3,140.25,140.25,0,0,0,10.48-36.79c3.82-25.52,2.57-51.84-2.08-77.42a287.85,287.85,0,0,0-9.61-37.85q-3.07-9.29-6.75-18.35c-2.45-6-5.14-12-8-17.85-11.48-23.4-26.24-45.31-44.39-64.05-4.5-4.71-9.26-9.17-14.18-13.45s-10.06-8.29-15.35-12.09-10.79-7.31-16.41-10.59-11.43-6.25-17.34-9a240.11,240.11,0,0,0-75.25-20.2,283.41,283.41,0,0,0-78,2.86,273.72,273.72,0,0,0-37.92,9.47,240.17,240.17,0,0,0-36,15,180,180,0,0,0-32.4,21.2C728.2,260,719.41,269.5,713,280.39A67.33,67.33,0,0,0,703.28,316c.15,12.49,3.63,24.91,8.83,36.52a174.91,174.91,0,0,0,19.8,33A305.49,305.49,0,0,0,757.26,415c18.11,18.68,38.13,35.59,59.06,51.21q15.7,11.7,32.16,22.38c11,7.1,22.13,13.88,33.54,20.13s23,12.43,34.78,18.12,23.69,11,35.75,15.91,24.34,9.27,36.77,12.94a252.55,252.55,0,0,0,37.78,8.34c12.71,1.7,25.58,2.16,38,.31S1089.44,558.13,1099.1,550.54Z"/></g><g id="Layer_16" data-name="Layer 16"><path class="cls-16" d="M823.06,277c11.12-7.14,24.68-9.73,37.9-9.61.89-15.26,14.06-28.86,29.28-30.23s30.62,9.64,34.23,24.5c3.12-11.69,17.63-18,29.13-14.23s19.24,15.42,20.68,27.43-2.57,24.14-8.67,34.58a23.93,23.93,0,0,1,38.2,23.78c5.62-10.61,9.5-22.43,17.67-31.23s22.79-13.4,32.19-5.93c.32-5,5.13-8.81,10.08-9.39s9.87,1.41,14.11,4a48.81,48.81,0,0,1,15.27,14.9,96.82,96.82,0,0,1,7.19,14.32l15,34.41c8.22,18.87,16.52,38,19.56,58.37.65,4.32,1,9-1,12.85-3.13,6-10.61,8-17.26,9.15-23.56,4.26-47.42,6.68-71.29,8.5-28.66,2.19-57.53,3.52-86.08.19-19.5-2.28-38.67-6.71-57.79-11.13-16.39-3.79-32.94-7.63-48.09-14.95A113.53,113.53,0,0,1,822.06,395c-9.32-9.4-17-20.58-21.31-33.1C791.78,335.62,797.94,293.1,823.06,277Z"/><path class="cls-15" d="M852.36,449.77a42,42,0,0,1,42.17,3.87c-1.58-10.08.42-20.39,3.41-30.15,4.14-13.55,10.38-26.75,20.21-37s23.61-17.17,37.77-16.63a41.31,41.31,0,0,1,37.94,53.35c5.18-10.79,16-19.36,28-19.48s23.83,10,23.53,21.94c2-12.61,7.67-25,17.57-33.08s24.4-11,35.84-5.33,18,20.71,12.42,32.21c3.73-.81,13.25-2.38,19.83,3.05,2.63,2.17,5.8,6.3,7,24.44.62,9.5,1.16,18.85-1,33-4.11,26.93-14.42,47.73-22.43,55.83-.4.4-2.18,2.17-5,5-9.45,9.57-15.75,16.3-16.57,17.14-9.75,10.07-42.11,13.12-72,10,0,0-34.5-3.6-81.38-21.81-.91-.35-4.7-1.9-10.08-3.88-9-3.31-18.16-6.36-27.09-9.94a234,234,0,0,1-62.21-36.52C822.23,480.88,833,459.1,852.36,449.77Z"/><path class="cls-11" d="M732.74,306c15-15.24,33.16-29.12,54.4-31.78s45.49,9.71,49.55,30.73c2.7,14-4.06,28.64-14.68,38.13,10.41-3.71,22.61,1.63,28.93,10.69s7.48,20.93,5.52,31.8A39,39,0,0,1,919,411.31c7-.3,13.48,4.34,16.88,10.41s4.1,13.33,3.6,20.27a65.6,65.6,0,0,1-17.07,39.43c9,0,16.72,7.28,20,15.64s3.17,17.66,2.83,26.65c11.69,2,19.33,16.46,14.44,27.26-16.81-6.34-39.12-15.45-64.67-28-23.65-11.59-48.36-23.71-77-44-9.33-6.61-40-28.9-73-66-25.83-29-44.13-57-48.25-86.22-1.11-7.87-3.55-23.74,5.83-30.56,4.25-3.09,11.75-4.86,16.8-3.6C721.48,293.14,735.54,303.12,732.74,306Z"/></g><g id="details"><g class="cls-17"><g class="cls-17"><path class="cls-15" d="M811.05,592.83a17.69,17.69,0,0,1-3.12-2.52c-4.13-4.21-5.89-10.31-5.21-18.12.75-7.3-.52-12.24-3.78-14.69-4.69-3.55-12.19-.86-12.81-.63-2.36,12.11,3,25.25,14.47,32.6a32.92,32.92,0,0,0,13.51,5,19.94,19.94,0,0,1-3.06-1.6"/><path class="cls-15" d="M800.06,556c3.86,2.89,5.4,8.42,4.58,16.43-.63,7.21.94,12.8,4.65,16.58,4.36,4.44,10.59,5.25,13.24,5.39A30.28,30.28,0,0,0,838,587.7a23,23,0,0,1-11.92-3.23,16.18,16.18,0,0,1-2.64-2.11c-4.21-4.14-6-10.44-5.25-18.7.17-7.74-1.92-13.66-6.24-17.53-6-5.38-14.69-5.25-16.95-5.11a28.92,28.92,0,0,0-4.77,5.68,29.34,29.34,0,0,0-3.56,8c2.71-.8,8.94-2.06,13.42,1.33"/><path class="cls-11" d="M828.32,540.31c4.74,4.75,7.14,11.15,7.15,19,0,11,2.7,15.07,5,16.6l.08.05a6.63,6.63,0,0,0,5.63.57c5.6-13.46.49-29.71-12.77-38.22a32.82,32.82,0,0,0-17.95-5.24,29.38,29.38,0,0,1,12.86,7.24"/><path class="cls-11" d="M845.05,578.93a8.42,8.42,0,0,1-5.61-1.23l-.11-.08c-4-2.66-6-8.85-6-18.4,0-7.27-2.19-13.15-6.51-17.48-6.4-6.42-15.66-7.62-18.33-7.84a30.09,30.09,0,0,0-11.2,5.18c3.92.1,10.68,1,15.88,5.67,4.77,4.28,7.09,10.7,6.9,19.09-.67,7.73.9,13.5,4.66,17.22,5.13,5.06,13,4.87,15.24,4.69h.11a28.77,28.77,0,0,0,3.71-4.66c.45-.71.86-1.42,1.25-2.15"/></g></g><circle class="cls-11" cx="968.79" cy="630.39" r="20.52"/><path class="cls-18" d="M957.52,613.93A16.87,16.87,0,0,1,959,647.64q-.71,0-1.41,0A21.91,21.91,0,0,0,970,650.82c11.8-.51,21-10.1,20.48-21.43S980,609.31,968.2,609.82a21.8,21.8,0,0,0-12.09,4.23Q956.8,614,957.52,613.93Z"/><path class="cls-19" d="M1046.4,624a18.47,18.47,0,0,0,5.9,36.45Z"/><path class="cls-20" d="M1047.66,623.66a18.47,18.47,0,0,1,5.9,36.45Z"/><circle class="cls-15" cx="1105.99" cy="613.55" r="16.42"/><path class="cls-21" d="M1101,598.4a13.5,13.5,0,1,0,20.78,17.23c.24-.29.47-.59.68-.89a17.47,17.47,0,0,1-4,9.44c-6,7.27-16.58,8.48-23.56,2.69s-7.75-16.37-1.72-23.65a17.45,17.45,0,0,1,8.55-5.65A10,10,0,0,0,1101,598.4Z"/><circle class="cls-15" cx="695.02" cy="452.79" r="20.52"/><path class="cls-21" d="M714.71,456a16.87,16.87,0,0,0-31.15,13,13.62,13.62,0,0,0,.6,1.28,21.92,21.92,0,0,1-8.14-9.89c-4.54-10.91.27-23.27,10.73-27.63s22.62,1,27.16,11.86a21.86,21.86,0,0,1,1.29,12.74C715.06,456.91,714.9,456.47,714.71,456Z"/><path class="cls-20" d="M659.24,373.12a18.46,18.46,0,0,1-35.51,10.1Z"/><path class="cls-19" d="M659,371.85A18.46,18.46,0,0,0,623.46,382Z"/><circle class="cls-11" cx="646.57" cy="314.92" r="16.42"/><path class="cls-18" d="M662.43,313.07A13.5,13.5,0,0,1,638,301.55a10.47,10.47,0,0,1,.52-1,17.54,17.54,0,0,0-6.87,7.6c-4,8.54-.65,18.61,7.54,22.48s18.12.08,22.15-8.46A17.57,17.57,0,0,0,662.87,312C662.74,312.38,662.59,312.73,662.43,313.07Z"/><path class="cls-11" d="M1098.52,459.15c.07,4,.27,14-6.8,22.05-1.64,1.86-9.13,10.36-17.2,7.95-4.46-1.32-8-5.65-9-10a14.13,14.13,0,0,1,0-6c1-5.92,4.3-7.15,5-13a14,14,0,0,0-.17-5.29c-.33-1.36-.68-1.9-1.15-3.67a19.86,19.86,0,0,1-.6-4.17c-.21-3.79-.45-7.35,1.58-10.62a11.86,11.86,0,0,1,7.34-5.25c4.53-.9,8.26,1.62,10,2.77C1097.6,440.75,1098.44,455.34,1098.52,459.15Z"/><path class="cls-11" d="M1058.05,390.75a14,14,0,0,0,1.12,6.69,14.82,14.82,0,0,0,5.77,6.18,15.21,15.21,0,0,0,9.68,2.72c5.91-.68,11-6.89,11.37-13.88C1087,372.16,1059.43,371.22,1058.05,390.75Z"/><path class="cls-15" d="M1105.28,557.26a73.73,73.73,0,0,1-18.14,10.63,90.89,90.89,0,0,1-20,5.56c-13.64,2.2-27.38,1.84-40.78.22-26.86-3.33-52.55-11.43-77.33-21.16-12.4-4.87-24.55-10.33-36.5-16.13s-23.73-12-35.3-18.43-23-13.52-34.05-20.85-21.93-15-32.52-23c-21.15-16.08-41.39-33.46-59.81-52.79a300.17,300.17,0,0,1-25.76-30.75,183.75,183.75,0,0,1-20.31-34.94c-5.37-12.45-9-26-9-39.92a75.26,75.26,0,0,1,11.33-39.51c7.12-11.78,16.61-21.75,27.05-30.25A186.61,186.61,0,0,1,768,224.32a244.93,244.93,0,0,1,37.11-14.9,292.69,292.69,0,0,1,118.31-11.56,245.37,245.37,0,0,1,76.68,20.9c6,2.81,12,5.82,17.73,9.2s11.4,6.91,16.8,10.82,10.68,8,15.71,12.32,9.94,8.87,14.57,13.66a262.92,262.92,0,0,1,46,64.89,296.84,296.84,0,0,1,26,75.31c5.17,26.13,7,53.16,3.33,79.87A148.41,148.41,0,0,1,1129.63,524a100.5,100.5,0,0,1-10.09,18A79.5,79.5,0,0,1,1105.28,557.26Zm-5.68-7.13a71,71,0,0,0,12.76-13.37,91.79,91.79,0,0,0,9.42-16.31,140.43,140.43,0,0,0,10.49-36.79c3.81-25.51,2.56-51.83-2.08-77.41a291.17,291.17,0,0,0-9.61-37.86q-3.09-9.27-6.76-18.35c-2.45-6-5.14-12-8-17.85-11.49-23.4-26.24-45.3-44.4-64-4.5-4.72-9.26-9.18-14.18-13.46s-10-8.29-15.34-12.09-10.79-7.3-16.42-10.59-11.43-6.25-17.34-9a240.58,240.58,0,0,0-75.25-20.2,283.43,283.43,0,0,0-78,2.87A274,274,0,0,0,807,215.13a239.17,239.17,0,0,0-36,15,179.81,179.81,0,0,0-32.4,21.19c-9.86,8.24-18.66,17.78-25,28.68a67.3,67.3,0,0,0-9.74,35.63c.15,12.5,3.63,24.91,8.83,36.53a174.89,174.89,0,0,0,19.81,33,305.58,305.58,0,0,0,25.34,29.49c18.11,18.69,38.13,35.59,59.06,51.21q15.72,11.7,32.16,22.38c11,7.11,22.13,13.88,33.54,20.14s23,12.43,34.79,18.12,23.68,11,35.74,15.9,24.34,9.28,36.78,12.94a251.31,251.31,0,0,0,37.78,8.34c12.7,1.7,25.57,2.16,38,.31S1089.94,557.71,1099.6,550.13Z"/></g><g id="stars"><path class="cls-22" d="M780.19,350.81A19.36,19.36,0,0,0,767.37,338a15,15,0,0,0,12.82-12.81,15.27,15.27,0,0,0,5.38,9.7A14.81,14.81,0,0,0,793,338a19.31,19.31,0,0,0-12.81,12.81Z"/><path class="cls-22" d="M901.19,457.81a23.7,23.7,0,0,0-15.5-15.5A17.69,17.69,0,0,0,901,427a18.6,18.6,0,0,0,6.54,11.7,18,18,0,0,0,9,3.8,22.89,22.89,0,0,0-15.31,15.31Z"/><path class="cls-22" d="M893.43,308.18a34.15,34.15,0,0,0-22.63-22.63,26.43,26.43,0,0,0,22.63-22.63,26.94,26.94,0,0,0,9.5,17.13,26.12,26.12,0,0,0,13.13,5.5,34.15,34.15,0,0,0-22.63,22.63Z"/><path class="cls-14" d="M807,415a31.71,31.71,0,0,0-21-21,24.53,24.53,0,0,0,21-21,25,25,0,0,0,8.82,15.9A24.25,24.25,0,0,0,828,394a31.71,31.71,0,0,0-21,21Z"/><path class="cls-14" d="M967,426a16.1,16.1,0,0,0-10.81-10.81,13,13,0,0,0,11-11,12.71,12.71,0,0,0,4.5,8.21A12.43,12.43,0,0,0,978,415a16.91,16.91,0,0,0-11,11Z"/><path class="cls-14" d="M1035.8,364.8a21.36,21.36,0,0,0-14.3-14.3A17.13,17.13,0,0,0,1036,336a16.85,16.85,0,0,0,6,10.86,16.45,16.45,0,0,0,8.33,3.44,22.14,22.14,0,0,0-14.5,14.5Z"/><path class="cls-7" d="M1029.19,445.81a16.91,16.91,0,0,0-11-11A12.45,12.45,0,0,0,1029,424a13.27,13.27,0,0,0,4.65,8.29A12.74,12.74,0,0,0,1040,435a16.1,16.1,0,0,0-10.81,10.81Z"/><path class="cls-7" d="M926,352a24.15,24.15,0,0,0-16-16,18.67,18.67,0,0,0,16-16,19,19,0,0,0,6.72,12.11A18.42,18.42,0,0,0,942,336a24.15,24.15,0,0,0-16,16Z"/><path class="cls-7" d="M828.19,242.81a13.13,13.13,0,0,0-8.5-8.5A9.52,9.52,0,0,0,828,226a10.25,10.25,0,0,0,3.6,6.4,9.9,9.9,0,0,0,4.9,2.1,12.32,12.32,0,0,0-8.31,8.31Z"/><path class="cls-7" d="M1016,530a19.1,19.1,0,0,0-12.81-12.81,15.36,15.36,0,0,0,13-13,15.14,15.14,0,0,0,5.34,9.73A14.79,14.79,0,0,0,1029,517a19.91,19.91,0,0,0-13,13Z"/><path class="cls-7" d="M1016.13,286.87a17.72,17.72,0,0,0-11.33-11.32,12.28,12.28,0,0,0,10.87-10.88,13.89,13.89,0,0,0,4.84,8.5A13.35,13.35,0,0,0,1027,276a16.1,16.1,0,0,0-6.85,4A15.87,15.87,0,0,0,1016.13,286.87Z"/></g></svg>