<svg xmlns="http://www.w3.org/2000/svg" xmlns:xlink="http://www.w3.org/1999/xlink" width="1638" height="401" viewBox="0 0 1638 401">
  <defs>
    <clipPath id="clip-path">
      <rect id="Rectangle_5" data-name="Rectangle 5" width="1638" height="401" transform="translate(25 454.93)" fill="none"/>
    </clipPath>
    <linearGradient id="linear-gradient" x1="0.5" x2="0.5" y2="1" gradientUnits="objectBoundingBox">
      <stop offset="0" stop-color="#485f94"/>
      <stop offset="0.28" stop-color="#4a6296"/>
      <stop offset="0.44" stop-color="#506a9d"/>
      <stop offset="0.58" stop-color="#5b78a8"/>
      <stop offset="0.7" stop-color="#6b8db8"/>
      <stop offset="0.82" stop-color="#7fa7cd"/>
      <stop offset="0.92" stop-color="#97c7e6"/>
      <stop offset="1" stop-color="#afe6ff"/>
    </linearGradient>
    <linearGradient id="linear-gradient-2" x1="0.498" x2="0.498" y2="1" gradientUnits="objectBoundingBox">
      <stop offset="0" stop-color="#4f7dde"/>
      <stop offset="0.16" stop-color="#5583e0"/>
      <stop offset="0.38" stop-color="#6494e5"/>
      <stop offset="0.64" stop-color="#7eb0ee"/>
      <stop offset="0.91" stop-color="#a2d7fa"/>
      <stop offset="1" stop-color="#afe6ff"/>
    </linearGradient>
    <linearGradient id="linear-gradient-3" x1="0.5" y1="0" x2="0.5" y2="1" xlink:href="#linear-gradient-2"/>
    <linearGradient id="linear-gradient-4" x1="0.5" x2="0.5" y2="1" gradientUnits="objectBoundingBox">
      <stop offset="0" stop-color="#34375a"/>
      <stop offset="0.14" stop-color="#384370"/>
      <stop offset="0.54" stop-color="#4562ab"/>
      <stop offset="0.84" stop-color="#4c76d0"/>
      <stop offset="1" stop-color="#4f7dde"/>
    </linearGradient>
  </defs>
  <g id="website_header_main" data-name="website header main" transform="translate(1663 855.93) rotate(180)" clip-path="url(#clip-path)">
    <g id="clouds3">
      <path id="Path_281" data-name="Path 281" d="M1682,303.79c-13.9,15-40.16,24-63.61,23-27.86-1.26-51.51-19.84-73-37.57-8.06-6.64-16.15-11.15-24.21-17.78a43.24,43.24,0,0,1-71.46,14.51c-6.23-6.45-11.76-14.09-20.73-14.29-18.93,19.56-51.26,21.41-75.86,9.74-2-1-4.21-2.06-6.47-1.8a10.55,10.55,0,0,0-5.06,2.55c-6.31,5-11.93,11.5-19.71,13.56-8.42,2.22-17.16-1.34-25.14-4.83l-32-14-.23.19c-1.88,2.35-23.75,28.75-58.82,26.11-29.23-2.2-46-22.94-48.71-26.41a48.84,48.84,0,0,1-35.34,22c-14.27,1.57-31.2-.08-41.35-10.24a49.46,49.46,0,0,1-31.61,23.08c-13.1,2.91-29.77.89-40.81-6.75A24.14,24.14,0,0,1,991,319.17a27.07,27.07,0,0,1-21.8-4.57c-12.51-9.09-15.18-29.57-28-38.26-20,19.46-45.1,34.54-72.69,38.56s-57.66-4.23-76.41-24.87c-19.81,19.64-54,27.91-79.43,16.54-17,15.78-42.89,21.36-64.93,14-14.88-5-28.88-15.4-44.46-13.61-8.71,1-16.81,5.84-25.58,5.73-9.45-.11-17.79-5.9-25.28-11.67-10.81-8.32-20.33-16.38-30.43-25.55-19.27,17.39-42.4,32-68.21,34.77s-54.33-9.05-65.21-32.61c-21.4,26.76-63.77,33.67-92.57,15.1-4.18-2.7-9.09-6-13.71-4.15-2.64,1-4.37,3.54-6,5.88-13.22,19.3-29.3,37.74-50.71,47.17s-49.11,7.68-65.13-9.36c-3.93,14.31-21.33,21.52-35.9,18.68s-26.51-13.1-36.63-24c-9.51,10.58-27.22,8.36-39.16.62S28.19,308,16.86,299.42-11,286-22.63,294.26c-2.1,1.5-1.48,6.41.38,4.64-.43-51.31-1.74-112.47-2.16-163.77-.08-8.86,0-18.24,4.61-25.8,6.88-11.25,21.33-14.77,34.31-17.11C218,55.59,426.78,65.1,633.12,78.78c113,7.48,229.36,15.77,336.76-20,99.5-33.16,193.72-104,297.53-89C1306.52-24.65,1342.77-7,1381,3.2c140.11,37.27,165.24,11,215.64,41.21C1690.16,100.46,1727.28,254.77,1682,303.79Z" transform="translate(24.6 455.93)" fill="url(#linear-gradient)"/>
      <path id="Path_282" data-name="Path 282" d="M1265.4,284" transform="translate(24.6 455.93)" fill="#fff"/>
      <path id="Path_283" data-name="Path 283" d="M-22.42,298.73v-4.86l-.33.22C-24.9,295.59-24.29,300.5-22.42,298.73Z" transform="translate(24.6 455.93)" fill="url(#linear-gradient-2)"/>
      <path id="Path_284" data-name="Path 284" d="M1596.41,44.25C1546,14.06,1520.88,40.3,1380.78,3c-4.82-1.28-9.61-2.69-14.38-4.17V78h-361V45.2c-11.84,4.86-23.73,9.4-35.69,13.39-107.41,35.79-223.8,27.5-336.77,20C426.61,64.93,217.86,55.42,14.34,92.05,1.35,94.39-13.1,97.91-20,109.16c-4.62,7.56-4.68,16.94-4.61,25.8.42,49.7,1.66,108.63,2.12,158.91,11.57-7.92,27.93-3.13,39.16,5.38s20,20.48,31.92,28.22,29.65,10,39.15-.62C97.89,337.7,109.83,348,124.4,350.8s32-4.37,35.9-18.68c16,17,43.73,18.79,65.13,9.36s37.49-27.87,50.7-47.17c1.61-2.34,3.34-4.83,6-5.88,4.63-1.85,9.53,1.45,13.72,4.15,28.79,18.57,71.17,11.66,92.57-15.1,10.88,23.56,39.4,35.34,65.21,32.61s48.94-17.38,68.2-34.77c10.1,9.17,19.63,17.23,30.44,25.55,7.49,5.77,15.83,11.56,25.28,11.67,8.77.11,16.86-4.73,25.58-5.73,15.57-1.79,29.58,8.66,44.45,13.61,22,7.34,47.88,1.76,64.93-14,25.48,11.36,59.62,3.09,79.43-16.55,18.75,20.64,48.82,28.89,76.41,24.87S921,295.63,941,276.17c12.79,8.69,15.45,29.18,28,38.26A27.07,27.07,0,0,0,990.8,319a24.16,24.16,0,0,0,16.8-14.35c11,7.64,27.71,9.66,40.81,6.75A49.51,49.51,0,0,0,1080,288.33c10.15,10.15,27.07,11.8,41.34,10.23a48.85,48.85,0,0,0,35.35-22c2.71,3.46,19.48,24.21,48.71,26.41,35.07,2.63,56.94-23.76,58.82-26.12l.22-.19,32,14c8,3.49,16.72,7.05,25.13,4.83,7.78-2.06,13.4-8.57,19.72-13.55a10.44,10.44,0,0,1,5.06-2.56c2.25-.26,4.42.83,6.47,1.8,24.59,11.67,56.93,9.83,75.86-9.74,9,.2,14.49,7.84,20.72,14.29a43.25,43.25,0,0,0,71.47-14.51c8.06,6.64,16.15,11.14,24.21,17.78,21.53,17.73,45.18,36.31,73,37.57,23.45,1.06,49.71-7.94,63.61-23C1727.11,254.6,1690,100.29,1596.41,44.25Z" transform="translate(24.6 455.93)" fill="url(#linear-gradient-3)"/>
    </g>
    <g id="clouds2">
      <path id="Path_285" data-name="Path 285" d="M1126.4-9.64c-4.93,11.16-3.92,24.17-.26,35.81.93,2.93,2.35,6.16,5.27,7.13,2.45.82,5.22-.34,7-2.26a16.23,16.23,0,0,0,3.28-6.93,56.569,56.569,0,0,0-.17-29.31c-.9-3.28-2.48-10.57-6.49-11.43C1131.18-17.45,1127.7-12.58,1126.4-9.64Z" transform="translate(24.6 455.93)" fill="#35476d"/>
      <path id="Path_286" data-name="Path 286" d="M1703.9-443.75c-10.65-10.1-26.41-13.82-40.9-11.52s-27.72,10.12-38.32,20.27-19.1,23.39-20.34,38,6.18,30.54,19.75,36.19c-21.74,9.69-34.42,33.54-37.31,57.17s2.39,47.41,7.63,70.63c-18.47-9-42,0-54.48,16.37s-15.61,38-14.7,58.57,5.42,40.75,6.61,61.27-1.35,42.19-13.1,59.05c-6.4,9.18-15.19,16.44-24.4,22.8-19.88,13.73-38.71,17.44-62.15,23.28C1442,1.3,1452-5.9,1459.55-15.39S1472-37.13,1470.07-49.1c-2-12.62-11.49-23.2-22.85-29.05s-24.45-7.54-37.23-7.6a162.751,162.751,0,0,0-113.391,46c-8.389,8.219-16.379,19-14.489,30.619A64.67,64.67,0,0,0,1221,6c-7,6.73-12.62,15.41-14,25.06s2.09,20.26,10,26c108.6,3.17,211.23-15.33,317.53-37.77,34.22-7.23,71-16.15,93.54-42.86,10.83-12.82,17.35-28.66,23-44.46a556.426,556.426,0,0,0,28.12-119c2.84-23.22,4.21-46.59,5.57-69.95l3.92-66.9,4.59-78.28C1693.88-413.43,1703.25-432.56,1703.9-443.75Z" transform="translate(24.6 455.93)" fill="#35476d"/>
      <path id="Path_287" data-name="Path 287" d="M1688.41,92.9c.32-3.5,2.42-6.57,3.37-10,1.62-5.81-.23-12-2.08-17.71q-6.17-19.2-12.32-38.4c-4-12.53-8.27-25.43-16-35.93L1600.4,61-2.67,71c2,30.26,1.66,60.16-7.16,88.88-2,6.56,2.63,13.82,8.92,16.54s13.58,1.79,20.07-.39,12.54-5.53,19-7.7c.36,18.86,6,38.45,19.52,51.55s36.06,17.72,51.71,7.25c2.6,24.66,14.13,48.78,33.53,64.16s46.86,21,69.88,11.92,39.79-33.59,37.47-58.27c15-2.45,32.45,1.06,47.49,3.22,11.27,1.62,22.38,4.53,33.75,5.08a83.21,83.21,0,0,0,62.91-24.87c9.56-9.87,16.64-24.2,14.13-37.19a64.21,64.21,0,0,0,95.77,30.16c.67,10.72,12.9,17.12,23.46,18.92s21.35-1.79,30.81-6.83a61,61,0,0,0,79.5,46.24c11-3.74,21.1-10.95,26.8-21.1s6.47-23.33.55-33.35c7.94-10.06,23.14-10.48,35.15-6.05s22.26,12.68,34,17.82a71.71,71.71,0,0,0,32.44,5.92c8.47-.44,17.23-2.6,23.57-8.26s9.49-15.45,5.64-23c20.26,21.63,51.9,40.22,81,45.78,22,4.22,46.44.36,65.08-12.57,10.09-7,14.68-17.24,27-20.1,13-3,27.33,1.27,40.37,2.28,41.07,3.19,82.77-22.62,98.32-60.86,1.65,5.19,2.68,10.63,4.34,15.82,2.4,7.53,5.06,15.46,11,20.62,7.9,6.81,20.91,6.58,28.57-.5,1.6,22.64,23.68,39.18,45.93,43.4,14.13,2.68,29.16,1.61,42.25-4.36s24.06-17.07,28.63-30.75c3-9,1.89-21.12-6.75-25,2.25-1.77,6.08-3.56,8.77-2.59,17.91,6.5,39.61.52,51.69-14.24,2.39-2.92,4.48-6.3,4.76-10.07a9.774,9.774,0,0,0-.5-3.86c8.4,12.85,20.08,23.85,34.34,29.38,14.89,5.78,32.72,5,45.82-4.19,19.13,35.25,62.29,52.43,102.24,49.92s77.08-21.48,110.34-43.81c28.93-19.42,56.86-42.79,71.55-74.42C1694,105.22,1687.76,99.8,1688.41,92.9Z" transform="translate(24.6 455.93)" fill="url(#linear-gradient-4)"/>
      <path id="Path_288" data-name="Path 288" d="M-3.6,57q556,8.76,1112,6,289.38-1.44,578.75-6c-2.15-7.79-6-18.64-10.21-31.81-4.68-14.6-9.65-29.71-20.08-40.93-8.29-8.93-19.39-14.66-30.43-19.79-24.27-11.26-49.8-20.55-76.4-23.29-15.89-1.64-31.92-.92-47.88-.2l-55.65,2.51c-21,.95-42.12,1.9-63.07,4.22a485,485,0,0,0-87.86,18.1c-22.39,6.82-42.28,19-62.54,30.73a52.919,52.919,0,0,0-21.23,23.14,82.19,82.19,0,0,0-70.62-.89c-1.94.91-1.68,1-1,3-3.16-6.07-2.13-13.35-2.32-20.19a53.832,53.832,0,0,0-6.09-23.27c-1.1-2.09-2.41-4.19-4.44-5.38a13.371,13.371,0,0,0-4.93-1.44c-7.22-1-11.52,3.16-18.81,2.93-172-5.31-344.46,13.33-515.93-.8-97.62-8-194.09-26.64-291.53-36.76S98.84-74.64,4.33-48.83C.16-47.7-4.28-46.33-7-42.95c-3.84,4.79-3.32,11.09-3.13,13.57C-9.12-16.77-7,14.74-3.6,57Z" transform="translate(24.6 455.93)" fill="#35476d"/>
      <path id="Path_289" data-name="Path 289" d="M-3.6,125.41a180.589,180.589,0,0,1-6.66,32.82c-1.77,5.75,1.58,12,6.66,15.33Z" transform="translate(24.6 455.93)" fill="#35476d"/>
    </g>
    <g id="clouds1">
      <path id="Path_290" data-name="Path 290" d="M1658.35,24.93c-19.73,22.59-39.76,45.44-64.63,62.21s-55.54,27-85,21.52c-7.27-1.36-14.66-3.66-21.92-2.23-5.54,1.1-10.4,4.27-15.23,7.19-16.9,10.23-36.13,18.33-55.82,16.81-27-2.08-48.92-21.23-72-35.24-39-23.62-95.09-33.56-136.49-14.52,18.9-6.44,41,7.84,45.83,27.22s-5.57,40.58-22.2,51.64-38.15,13-57.66,8.66c-18.43-4.05-36.58-14.31-44.93-31.23-10.56,13.67-28.37,20.72-45.63,20.24s-33.87-7.85-47.43-18.56c-20.48-16.16-42.6-36-68.64-37.59a8,8,0,0,1,9.28-3.83c-5.78,29.62-28,54.49-55.05,67.86s-58.39,16.22-88.38,12.83c-44.86-5.08-89.11-24.68-118.21-59.19-6.68,14-22.86,21.67-38.39,22s-31.07-8.6-45.07-15.32c-14.84,36.3-60.35,53.8-98.39,44.27s-67.78-40.91-84.07-76.59c-5.51,23.48-24.22,43.39-47.32,50.34s-49.69.69-67.25-15.85c-.15,36.94-20.64,73.15-52.22,92.31s-73.17,20.58-106,3.64C121.89,195.83,97.32,127.4,41.78,103.79,22.65,95.73,1.63,93.77-19,91.91c-2.51.49-2.39-6.08-2.12-8.62A778.881,778.881,0,0,0-17.49-28.52c19.08-8.3,35.57-15,55.9-19.39,19.32-4.2,39-6.58,58.69-8.24A801.831,801.831,0,0,1,313.26-44.9c24.1,4.58,48.24,10.29,72.77,10,17.29-.23,35.28-3.36,51.41,2.88,11.41,4.42,22,7.52,33.59,11.36a99.634,99.634,0,0,1,12.2,4.62c11.9,5.73,21,15.88,29,26.42a246.629,246.629,0,0,1,18.58,28.44c12.32-15.25,36.74-22.2,56.3-20.85A62.3,62.3,0,0,1,635.37,47.5,73.67,73.67,0,0,1,664-1.84c59.73-44.58,143.78-32,218.29-33.81,22.62-.56,45.23-1.12,67.86-1.07A1253.51,1253.51,0,0,1,1095-28c1.23.14,2.79.11,3.3-1s-2-1.89-1.71-.69a96.359,96.359,0,0,1-18.31,24.11c6,9.38,11.69,19.12,15.34,29.67s5.21,22,3,32.95c9.78,4.07,19,2.41,28.54-2.24,16.69-8.16,26.85-28.33,45.16-31.54,11.43-2,22.83,3.44,32.52,9.84,27.27,1.57,59.35,2.61,83.74-9.68a78.649,78.649,0,0,0,31.21-28.54c5.41-8.7,16.68-12.33,26.24-16a731.562,731.562,0,0,1,180.69-45c32.31-3.76,65.13-5.35,97.29-.44,11.32,1.72,22.78,4.36,32.43,10.54s17.26,16.48,17.6,27.92C1672.57-9.55,1657,6.43,1658.35,24.93Z" transform="translate(24.6 455.93)" fill="#34375a"/>
      <path id="Path_291" data-name="Path 291" d="M1670.63-102.47c-2.35-26.29-23-48.68-47.7-58s-52.54-7.13-77.71.82c-53.83,17-98.47,60.76-116.5,114.25-16.6-13.09-40.77-13.34-60.23-5.06s-34.91,23.81-48.12,40.32c-9.66,12.07-18.58,25-30.81,34.49s-28.86,14.95-43.36,9.58c84.87,32.38,179.2,43.13,269.6,34.28,26.61-2.6,53.41-7.12,77.73-18.24s46.13-29.48,57-53.9c7-15.6,9.2-32.84,11.36-49.79S1672.15-85.55,1670.63-102.47Z" transform="translate(24.6 455.93)" fill="none"/>
    </g>
  </g>
</svg>
