<?xml version="1.0" encoding="utf-8"?>
<!-- Generator: Adobe Illustrator 24.1.1, SVG Export Plug-In . SVG Version: 6.00 Build 0)  -->
<svg version="1.1" id="Layer_1" xmlns="http://www.w3.org/2000/svg" xmlns:xlink="http://www.w3.org/1999/xlink" x="0px" y="0px"
	 viewBox="0 0 579.8 203.5" style="enable-background:new 0 0 579.8 203.5;" xml:space="preserve">
<style type="text/css">
	.st0{fill:url(#SVGID_1_);}
	.st1{fill:url(#SVGID_2_);}
	.st2{fill:url(#SVGID_3_);}
	.st3{fill:url(#SVGID_4_);}
	.st4{fill:#D86C91;}
	.st5{fill:url(#SVGID_5_);}
	.st6{fill:url(#SVGID_6_);}
	.st7{fill:url(#SVGID_7_);}
	.st8{fill:url(#SVGID_8_);}
</style>
<linearGradient id="SVGID_1_" gradientUnits="userSpaceOnUse" x1="289.8764" y1="181.3283" x2="289.8764" y2="64.8772" gradientTransform="matrix(1 0 0 -1 0 206)">
	<stop  offset="0" style="stop-color:#D8ECD2"/>
	<stop  offset="0.7499" style="stop-color:#329456"/>
</linearGradient>
<path class="st0" d="M579.8,42.9c0,27.3,0,54.5,0,81.8c-192,0.7-385.2,0-577.6,0.2c-1.2,0.1-2.6,0.3-2-1.1v-81
	c38.2,1.7,77.5,2.6,115.6-2.5c20.1-2.6,40.2-6.1,60.7-6c12.8,0.2,25.5,1.7,37.9,4.3c16,2.8,30.1,9.2,46.9,8.6
	c16.6-0.5,31.9-5.2,47-9.8c30.8-10.6,65.1,0.3,97.3-0.4c30.1,0.8,59-5.8,88.8-7.5c20.4-0.2,38.5,5.4,57.8,9.2
	C560.8,41.1,571,40.7,579.8,42.9z"/>
<linearGradient id="SVGID_2_" gradientUnits="userSpaceOnUse" x1="289.8765" y1="149.3105" x2="289.8765" y2="4.7769" gradientTransform="matrix(1 0 0 -1 0 206)">
	<stop  offset="0" style="stop-color:#299155"/>
	<stop  offset="1" style="stop-color:#227545"/>
</linearGradient>
<path class="st1" d="M579.8,109.1c0,33.8,0,67.7,0,101.5c-192,0.9-385.2,0-577.6,0.3c-1.1,0.1-2.6,0.3-2-1.3V109.1
	c38.2,2.1,77.5,3.3,115.6-3.1c20.1-3.2,40.2-7.6,60.7-7.4c12.8,0.3,25.5,2.1,37.9,5.3c16,3.5,30.1,11.4,46.9,10.7
	c16.6-0.6,31.9-6.5,47-12.2c30.8-13.1,65.1,0.4,97.3-0.5c30.1,1,59-7.2,88.8-9.3c20.4-0.3,38.5,6.6,57.8,11.4
	C560.8,106.9,571,106.3,579.8,109.1z"/>
<linearGradient id="SVGID_3_" gradientUnits="userSpaceOnUse" x1="289.85" y1="132.6526" x2="289.85" y2="205.9969" gradientTransform="matrix(1 0 0 -1 0 206)">
	<stop  offset="0" style="stop-color:#C9E4C0"/>
	<stop  offset="1" style="stop-color:#FFFFFF"/>
</linearGradient>
<path class="st2" d="M0.7,64.5V17.9c37,3.4,74.3,17,112,13.7c20.2-2.7,38.6-12.2,59.3-11.5c11.6,0.3,23.1,2.2,34.5,4
	C254,33.2,294.1-0.2,341.1,0.4c29.2-2.6,55.2,9.5,83.3,15.1c27.5,4,52.8-8.1,80-9.8c25.4-0.5,50.4,6.1,74.7,12.2v46.4
	c-29-3.8-57.1-15.7-87.2-14.1c-32.7,1.3-65.9,13.8-98.3,4.3c-39.3-11.8-65.5-31.4-106.3-7.8c-20.9,12.2-38.6,27.5-64.6,26.7
	c-24.5,0.8-44.8-9.8-68.7-12.1C102.8,53.3,51.5,78.2,0.7,64.5z"/>
<g>
	<radialGradient id="SVGID_4_" cx="97.1259" cy="147.2283" r="24.5768" gradientUnits="userSpaceOnUse">
		<stop  offset="0" style="stop-color:#EF86AE"/>
		<stop  offset="0.9938" style="stop-color:#F9E8EF"/>
	</radialGradient>
	<path class="st3" d="M90.5,142.7c-0.8-2.6-2.1-5.1-2.5-7.9c-0.4-3.2-0.1-6.3,1.6-9.1c2-3.3,5.4-3.9,8.5-1.5c4,3.2,4.7,7.6,4.3,12.3
		c-0.1,1.1-0.3,2.3-0.6,3.4c-0.4,1.3,0.2,1.2,1.1,0.9c3.5-1.2,7.1-2.1,10.8-2c4.8,0.1,8.7,4.7,7.9,9.2c-0.5,2.6-2.2,4-4.6,4.7
		c-2.7,0.9-5.5,0.9-8.4,0.4c-0.5-0.1-1.2-0.5-1.5,0c-0.2,0.4,0.5,0.7,0.8,1.1c2.2,2.7,4,5.6,4.5,9.2c0.6,4.8-2.9,8.7-7.6,8.3
		c-3.2-0.3-4.6-2.8-5.7-5.3c-0.8-2-1.3-4.1-1.6-6.3c0-0.4-0.3-0.8-0.4-1.2c-0.1,0.3-0.3,0.7-0.4,1c-1,2.9-2.3,5.6-4.7,7.7
		c-2,1.8-4.5,2.4-6.2,1.5c-2.2-1.2-3.5-4-3-6.7c0.7-3.9,3.1-6.7,5.9-9.3c0.3-0.3,0.8-0.4,0.8-0.9c-0.4,0-0.7,0.1-1.1,0.1
		c-3.3,0.5-6.6,0.6-9.9,0.1c-4.3-0.7-6.7-4.1-5.9-8c0.6-2.6,2.3-4,5.4-4.3c4.2-0.5,8.2,0.3,11.9,2.4
		C90.1,142.6,90.3,142.6,90.5,142.7c0,0,0,0.1,0.1,0.1c0,0,0.1,0,0.1,0C90.6,142.7,90.5,142.7,90.5,142.7z M98.9,152.5
		c2.5,0,4.4-1.9,4.3-4.3c0-2.8-2.1-4.9-4.8-4.9c-2.3,0-3.9,1.9-3.8,4.5C94.6,150.7,96.3,152.5,98.9,152.5z"/>
	<path class="st4" d="M98.9,152.5c-2.6,0-4.2-1.7-4.3-4.6c-0.1-2.6,1.5-4.5,3.8-4.5c2.7,0,4.8,2.1,4.8,4.9
		C103.2,150.6,101.4,152.4,98.9,152.5z"/>
</g>
<g>
	
		<radialGradient id="SVGID_5_" cx="357.2393" cy="163.6746" r="19.0005" gradientTransform="matrix(-4.845794e-02 0.9988 -0.9988 -4.845794e-02 465.055 -284.3826)" gradientUnits="userSpaceOnUse">
		<stop  offset="6.172624e-03" style="stop-color:#F9E8EF"/>
		<stop  offset="1" style="stop-color:#FBCCD4"/>
	</radialGradient>
	<path class="st5" d="M277.9,49.8c0.4-0.8,0.8-1.7,1.3-2.5c1.8-3.2,6.3-4.5,10.1-3.1c3.4,1.3,5.7,5.3,4.9,8.8
		c-0.1,0.7-0.2,1.3-0.4,2c-0.3,1-1.1,1.9-1.2,3c1-0.4,2.1-0.9,3.1-1.2c2.3-0.7,4.6-0.9,6.9,0.1c2.8,1.2,4.7,3.8,4.7,6.6
		c-0.1,3-2,5.3-5.1,6.4c-2.2,0.7-4.5,0.8-6.8,0.6c-0.5,0-1.1-0.4-1.4,0.2c-0.2,0.4,0.5,0.7,0.8,1c1.9,2.2,3.4,4.6,3.3,7.7
		c-0.2,4.8-4.2,6.8-8.1,6.3c-3.9-0.5-5.6-3.1-6.4-6.6c-0.1-0.6-0.3-1.3-0.5-1.9c-0.7,0.3-0.7,1.1-1.1,1.6c-1.3,1.9-2.7,3.7-5,4.6
		c-3.5,1.3-7.5,0.1-9.3-2.7c-2-3.1-1.5-7,1.3-9.8c1.8-1.9,1.8-1.9-0.6-2.8c-4.7-1.8-6.8-4.6-6.8-8.9c1-5.2,4.4-7.7,9.1-6.7
		c2.3,0.5,4.3,1.6,6,3.2c0.2,0.2,0.4,0.3,0.7,0.5c0.1-0.2,0.2-0.4,0.2-0.6C277,53.7,278,51.8,277.9,49.8z M284,68.8
		c1.8,0.1,3.3-1.4,3.4-3.4c0.1-1.8-1.4-3.4-3.3-3.5c-2-0.1-3.8,1.5-3.9,3.4C280.2,67.1,282,68.8,284,68.8z"/>
	
		<linearGradient id="SVGID_6_" gradientUnits="userSpaceOnUse" x1="337.0197" y1="192.1673" x2="348.4938" y2="176.5926" gradientTransform="matrix(-4.845794e-02 0.9988 -0.9988 -4.845794e-02 465.055 -284.3826)">
		<stop  offset="0" style="stop-color:#299155"/>
		<stop  offset="1" style="stop-color:#284639"/>
	</linearGradient>
	<path class="st6" d="M277.9,49.8c0.1,2-0.9,3.8-0.4,5.8c0,0.2-0.1,0.4-0.2,0.6c-0.2-0.2-0.5-0.3-0.7-0.5c-1.7-1.6-3.7-2.7-6-3.2
		c-4.7-1-8.1,1.5-9.1,6.7c-4.4-3.2-6.7-7.6-7.7-12.8c-0.3-1.8-0.7-3.6-1.9-5.1c-0.8-1-0.1-1.4,0.7-1.7c4.2-1.6,8.5-1.3,12.7,0
		C271,41.4,275.1,44.8,277.9,49.8z"/>
	<path class="st4" d="M284,68.8c-2-0.1-3.8-1.7-3.8-3.5c0-1.9,1.9-3.5,3.9-3.4c2,0.1,3.4,1.6,3.3,3.5
		C287.3,67.4,285.8,68.9,284,68.8z"/>
</g>
<g>
	<radialGradient id="SVGID_7_" cx="501.2509" cy="104.0793" r="26.1669" gradientUnits="userSpaceOnUse">
		<stop  offset="0" style="stop-color:#D86C91"/>
		<stop  offset="1" style="stop-color:#B43291"/>
	</radialGradient>
	<path class="st7" d="M495.4,120.3c-1.5,2-2.4,4.3-4.1,6.1c-1.6,1.8-2.4,1.7-3.7-0.2c-0.4-0.6-0.6-1.3-1.4-1.1
		c-1.5,0.4-2.2,0.1-2.3-1.5c0-0.5-0.6-0.8-1.2-0.6c-1.8,0.7-1.9-0.6-2-1.8c-0.1-0.8,0-1.4-0.8-2.1c-1-0.8,0.1-1.4,0.6-1.9
		c2.7-2.6,6.1-4.4,9.2-6.5c1-0.7,2.3-1.2,2.9-2.5c-1.2,0.2-2.4,0.4-3.6,0.6c-3.7,0.5-7.3,0.9-11,1.3c-0.7,0.1-2.2,0.1-2-0.6
		c0.6-1.5-2.9-2.3-0.4-3.9c0.9-0.6,0.6-1.1-0.3-1.6c-1.3-0.6-1.4-1.5-0.1-2.2c1.1-0.6,1.2-1.4,0.8-2.3c-0.8-1.9,0.3-2.6,1.9-2.6
		c2.3-0.1,4.5,0.3,6.6,1c0.3,0.1,0.8,0.1,0.8,0c0.2-0.5-0.3-0.5-0.6-0.7c-1.9-1-4-1.8-5.3-3.7c-0.8-1.2-2-2.8,0.8-3.3
		c0.7-0.1,0.8-0.5,0.5-1.1c-0.2-0.3-0.3-0.7-0.2-1c0.1-0.5,0.6-1.3,0.7-1.2c2.4,0.9,2.4-3.1,4.6-2.3c1,0.4,1.6,0.1,2.3-0.5
		c2.5-2.2,2.5-2.1,4.8,0.4c0.3,0.3,0.6,0.6,0.9,0.8c0-0.4,0-0.8,0-1.2c0.1-1.4-1.4-3.9,2-2.8c0.1,0,0.3-0.1,0.4-0.1
		c0.9-2.3,1.9-2.5,3.5-0.4c0.4,0.5,1-0.6,1.3-1c1.1-1.3,2.2-2,3.5-0.2c0.4,0.6,0.9,1,1.7,0.5c2-1.2,2.3,0.4,2.4,1.7
		c0.2,2,0.4,4-0.2,6c-0.1,0.4-0.3,1.1,0.3,1.3c0.7,0.2,0.8-0.4,1-0.9c1-2.3,2-4.5,3.6-6.4c1.5-1.7,2.8-1.5,3.9,0.5
		c0.6,1.1,1,2.1,2.6,1.4c0.7-0.3,3,2.6,2.9,3.5c-0.2,0.9,0.1,1.5,0.8,2c2.6,1.9,2.6,4.3,0,6.3c-2.7,2.1-6,3.2-9.1,4.6
		c-0.6,0.2-1.1,0.6-1.7,0.9c0.6,0,1.3,0.1,1.9,0.1c3.3-0.2,6.5-0.5,9.8-0.6c1.8,0,3.1,0.6,2,2.8c-0.5,0.9-0.2,1.5,0.6,2
		c1.3,0.9,1.4,1.9-0.1,2.6c-1.3,0.6-1.3,1.5-1.2,2.7c0.2,2.4-0.9,3.4-3.3,3.1c-2-0.2-4-0.8-5.9-1.5c-0.3-0.1-0.9-0.2-1-0.1
		c-0.2,0.5,0.3,0.7,0.6,0.9c1.8,1.3,3.7,2.5,5.5,3.9c2.6,2,2.5,3.3-0.5,4.8c-0.5,0.2-0.8,0.5-1,1.1c0,0.1,0,0.2,0,0.2
		c-1.7,1.9-4.1,2.8-6.2,4.2c-0.8,0.5-1.8-0.7-2.4-1.5c-1.5-2.2-2.6-4.7-3.6-7.2c-0.2-0.4-0.2-0.8-0.8-1c0,0.4-0.1,0.8-0.1,1.2
		c0.4,2.9,0.7,5.7,0.6,8.7c-0.1,1.8-1,1.8-2.7,2c-2.4,0.3-4.6-0.1-6.9-0.4c-0.6-0.1-1.2-0.2-1.4-0.7c-0.4-0.9-0.9-1.7-2-2
		c-0.9-0.2-0.4-1.1-0.2-1.7c0.4-1.4,1.1-2.7,1-4.2c0.3-0.2,0.4-0.6,0.1-0.7C495.4,119.6,495.5,120.1,495.4,120.3z M501.8,98.1
		c-1.5-0.2-3.4-0.1-4.7,0.7c-2.9,1.9-3,8-0.3,10.4c2.4,2.1,5,2.4,8,1.2c2-0.8,4.9-4.2,4.6-6.2C508.8,99.7,506.4,97.8,501.8,98.1z"/>
	<radialGradient id="SVGID_8_" cx="502.1203" cy="104.5644" r="6.922" gradientUnits="userSpaceOnUse">
		<stop  offset="6.172624e-03" style="stop-color:#F9E8EF"/>
		<stop  offset="1" style="stop-color:#EF86AE"/>
	</radialGradient>
	<path class="st8" d="M501.8,98.1c4.7-0.3,7,1.6,7.6,6.1c0.3,2.1-2.5,5.4-4.6,6.2c-3,1.2-5.6,0.9-8-1.2c-2.7-2.4-2.6-8.4,0.3-10.4
		C498.4,98,500.3,97.9,501.8,98.1z"/>
</g>
</svg>
