<svg xmlns="http://www.w3.org/2000/svg" xmlns:xlink="http://www.w3.org/1999/xlink" width="1474" height="150.06" viewBox="0 0 1474 150.06">
  <defs>
    <clipPath id="clip-path">
      <rect x="82" y="17" width="1474" height="150.06" fill="none"/>
    </clipPath>
    <clipPath id="clip-path-2">
      <rect id="Rectangle_4" data-name="Rectangle 4" width="1638" height="334.06" transform="translate(1638 334.06) rotate(180)" fill="none"/>
    </clipPath>
  </defs>
  <g id="Scroll_Group_2" data-name="Scroll Group 2" transform="translate(-82 -17)" clip-path="url(#clip-path)" style="isolation: isolate">
    <g id="Layer_8_copy" data-name="Layer 8 copy" transform="translate(-38 46)">
      <g id="Group_71" data-name="Group 71" transform="translate(1676 288.06) rotate(180)" clip-path="url(#clip-path-2)">
        <g id="clouds1_copy" data-name="clouds1 copy" transform="translate(-33.663 115.164)">
          <path id="Path_279" data-name="Path 279" d="M-19.9,239.553c19.73-16.784,39.76-33.764,64.63-46.223s55.54-20.084,85-15.981c7.28,1.008,14.67,2.675,21.92,1.65,5.54-.812,10.41-3.166,15.24-5.351,16.9-7.6,36.12-13.618,55.82-12.485,14.688.839,47.7,28.954,91.672,26.83,36.463-1.761,83.086-34.668,109.568-26.83,58.076,17.187,82.124-33.718,131.84-19.887s90.03,40.542,116.07,41.719c-1.68,2.39-5.81,3.656-9.28,2.836,5.78-22,28-40.479,55-50.414s58.39-12.048,88.38-9.525c44.85,3.772,89.11,18.336,118.21,43.975,6.68-10.425,22.86-16.106,38.39-16.383s31.06,6.394,45.07,11.388c14.84-26.968,60.34-39.971,98.39-32.89s67.78,30.393,84.06,56.9c5.51-17.444,24.23-32.239,47.33-37.4s49.69-.508,67.25,11.781c.15-27.441,136.665-32.069,180.624-11.781s92.01,52.911,124.84,65.53c53.63,20.565-69.044-53.6-13.494-36.056,19.07,6.02,40.09,7.473,60.73,8.856,2.51-.366,2.39,4.513,2.12,6.4a430.936,430.936,0,0,0-3.64,83.072c-19.08,6.163-35.57,11.121-55.9,14.4q-29.137,4.478-58.69,6.118a1074.989,1074.989,0,0,1-216.16-8.356c-24.1-3.407-48.24-7.643-72.77-7.4-17.29.169-35.28,2.5-51.41-2.149-11.41-3.282-22-5.583-33.59-8.437-5.89-1.445-7.65-2.4-12.2-3.433-10.72-2.426-20.89-4.727-31.17-2.283a35.244,35.244,0,0,0-19,11.888,227.072,227.072,0,0,0-102-8.909c-7.06-1.017-19.88-2.675-36-3.719-78.76-5.048-116,12.8-210.93,17.569-30.94,1.561-46.31.829-67.86.794-48.38-.08-96.76-2.247-144.8-6.483-1.23-.107-2.79-.089-3.3.749s2,1.4,1.71.508a78.588,78.588,0,0,1,18.31-17.916,262.605,262.605,0,0,1-59.13,19.62,290.942,290.942,0,0,1-53,5.948c-6.51-4.067-16.89-9.212-30-9.658-31.52-1.079-59.27,25.631-58,26.754,1.74,1.516,68.68-35.137,64-41.6-1.94-2.675-16.17-.08-34,4.459-18.07,3.023-31.33,1.712-40,0-13.18-2.586-18.72-6.653-29.36-5.859-13.79,1.026-21.65,10.595-26.24,11.923a944.1,944.1,0,0,1-180.59,33.38c-32.31,2.8-65.14,3.986-97.29.339C5.15,306.243-6.32,304.245-16,299.7s-17.26-12.245-17.6-20.752C-34.12,265.166-18.5,253.3-19.9,239.553Z" transform="translate(33.613 -55.734)" fill="#34375a"/>
          <path id="Path_280" data-name="Path 280" d="M-32.18,342.59c2.35,21.9,23,40.55,47.7,48.32s52.54,5.93,77.71-.68c53.83-14.16,98.47-50.63,116.5-95.19,16.6,10.91,40.77,11.12,60.23,4.22s34.91-19.84,48.12-33.59c9.66-10.05,18.58-20.85,30.81-28.73s28.86-12.45,43.35-8C307.38,202,213.05,193,122.64,200.4c-26.61,2.17-53.4,5.94-77.72,15.2s-46.13,24.56-57,44.9c-7,13-9.2,27.36-11.36,41.48S-33.7,328.49-32.18,342.59Z" transform="translate(33.613 -78.164)" fill="none"/>
          <rect id="Rectangle_8" data-name="Rectangle 8" width="1644" height="91" transform="translate(49.663 162.836)" fill="#34375a"/>
        </g>
      </g>
    </g>
    <path id="Path_282" data-name="Path 282" d="M-23.475,192.092c14.587-12.231,29.4-24.606,47.782-33.685S65.369,143.771,87.15,146.76c5.382.734,10.846,1.95,16.206,1.2,4.1-.591,7.7-2.307,11.267-3.9,12.494-5.537,26.7-9.924,41.269-9.1,19.962,1.124,36.168,11.5,53.231,19.082,28.833,12.784,70.3,18.165,100.91,7.864-13.973,3.484,158.673-11.893,177.924-11.036-1.242,1.742-4.3,2.665-6.861,2.067,4.273-16.033,20.7-29.5,40.663-36.74s43.169-8.78,65.341-6.941c33.158,2.749,65.881,13.362,87.395,32.047,4.939-7.6,16.9-11.738,28.383-11.939s22.963,4.66,33.321,8.3c10.972-19.654,44.611-29.129,72.742-23.969s50.111,22.149,62.147,41.465c4.074-12.712,17.914-23.495,34.992-27.258s36.737-.37,49.719,8.585c.111-20,15.26-39.606,38.607-49.979s54.1-11.146,78.368-1.95c39.65,14.987,57.815,52.039,98.884,64.823,14.1,4.387,29.639,5.446,44.9,6.454,1.856-.266,1.767,3.289,1.567,4.666a309.611,309.611,0,0,0-2.691,60.54c-14.106,4.491-26.3,8.1-41.328,10.5q-21.542,3.264-43.391,4.458a806.161,806.161,0,0,1-159.811-6.09c-17.818-2.483-35.665-5.57-53.8-5.394-12.783.123-26.083,1.82-38.008-1.566-8.436-2.392-16.265-4.068-24.834-6.148-4.355-1.053-5.656-1.748-9.02-2.5-7.925-1.768-15.444-3.445-23.045-1.664a26.108,26.108,0,0,0-14.047,8.663,170.222,170.222,0,0,0-75.411-6.493c-5.22-.741-14.7-1.95-26.615-2.71-58.229-3.679-85.761,9.326-155.945,12.8-22.875,1.137-34.238.6-50.17.578-35.768-.058-71.537-1.638-107.053-4.725-.909-.078-2.063-.065-2.44.546s1.479,1.02,1.264.37a57.719,57.719,0,0,1,13.537-13.057,196.116,196.116,0,0,1-43.716,14.3,218.087,218.087,0,0,1-39.184,4.335,45.3,45.3,0,0,0-22.18-7.039c-23.3-.786-43.819,18.679-42.88,19.5,1.286,1.1,50.776-25.607,47.316-30.319-1.434-1.95-11.955-.058-25.137,3.25-13.359,2.2-23.163,1.248-29.573,0-9.744-1.885-13.84-4.848-21.706-4.27-10.2.747-16.006,7.721-19.4,8.689A707.053,707.053,0,0,1,75.343,241.382c-23.887,2.041-48.159,2.905-71.928.247-8.369-.936-16.849-2.392-24.006-5.706S-33.352,227-33.6,220.8C-33.988,210.758-22.44,202.107-23.475,192.092Z" transform="translate(2011.905 245.224) rotate(180)" fill="#34375a"/>
  </g>
</svg>
