<?xml version="1.0" encoding="utf-8"?>
<!-- Generator: Adobe Illustrator 25.4.1, SVG Export Plug-In . SVG Version: 6.00 Build 0)  -->
<svg version="1.1" id="Layer_1" xmlns="http://www.w3.org/2000/svg" xmlns:xlink="http://www.w3.org/1999/xlink" x="0px" y="0px"
	 viewBox="0 0 160 155" style="enable-background:new 0 0 160 155;" xml:space="preserve">
<style type="text/css">
	.st0{fill:#C34E4C;}
	.st1{fill:#FBAA82;}
	.st2{fill:#FBAA82;stroke:#FBAA82;stroke-miterlimit:10;}
</style>
<g id="Artboard_1">
	<g id="logo">
		<path id="_4" class="st0" d="M106.3,145.8c-3.3,0-6.6-0.4-9.9-1.1c-14.3-3.2-26.1-13.6-35.1-30.8C53.1,97.6,43.8,89,33.7,88.3
			c-14.5-1.1-26.6,14.5-27.6,15.8c11.3,28.4,40.1,48.7,73.8,48.7c12,0,23.9-2.6,34.9-7.7C112,145.5,109.2,145.8,106.3,145.8z"/>
		<path id="_3" class="st0" d="M34.1,83.6C46,84.5,56.6,94,65.7,111.8c8.3,15.9,19.1,25.5,31.9,28.4c15,3.4,29.1-3.2,34.9-6.5
			c10.9-9.1,18.9-21.2,23.2-34.7c-6.3,3.9-17,9.2-29.2,9.2c-2.8,0-5.6-0.3-8.4-0.9c-14.3-3-26.4-13.8-36-32
			c-10-16.4-22.3-26-36.5-28.3c-19.8-3.2-37.7,8.7-42.2,12C0,72.2,0.3,85.9,4.3,98.8C8.9,93.6,20.2,82.6,34.1,83.6z"/>
		<path id="_2" class="st1" d="M72.1,13c16.3,3.6,29.8,13.7,40.4,30.1C127,66,138.3,71,145.1,71.1h0.2c7.3,0,11.7-5.3,12.5-6.3
			C151.5,29.2,119.1,2.1,80,2.1C64.2,2,48.8,6.6,35.5,15.1C45.4,12.1,58.4,10,72.1,13z"/>
		<path id="_1" class="st2" d="M158.7,71.3c-3.7,3.2-8.5,4.9-13.3,4.9H145c-11.9-0.2-24.4-10.4-37.1-30.4
			c-9.8-15.2-22.2-24.5-37-27.8c-21.9-4.8-42.9,5.1-48.8,8.2C14.9,33.6,9.3,42.4,5.6,52c8.3-5,23.7-12.2,40.7-9.4
			c15.7,2.5,29.1,12.8,40,30.6c9,17,20,27,32.8,29.7c17.5,3.7,33.6-7.2,38.1-10.6l0.2-0.2c1-4.8,1.5-9.8,1.5-14.7
			C159,75.3,158.9,73.3,158.7,71.3z"/>
	</g>
</g>
</svg>
